<?xml version="1.0" encoding="UTF-8"?><svg id="Layer_2" xmlns="http://www.w3.org/2000/svg" viewBox="0 0 152.5 148.36"><defs><style>.cls-1{fill:#5b8817;}.cls-1,.cls-2,.cls-3,.cls-4,.cls-5,.cls-6,.cls-7{fill-rule:evenodd;}.cls-2{fill:#477408;}.cls-3{fill:#629213;}.cls-4{fill:#50711f;}.cls-5{fill:#36550a;}.cls-6{fill:#182903;}.cls-7{fill:#d2d2d2;}</style></defs><g id="Layer_3"><g><path class="cls-7" d="m141.96,51.57c-1.56.52-5.17-1.05-5.29.9v.88c-1.66-.2-1.94.98-3.53.87h-.87c-2.12-.36-1.91,1.62-4.41.88-4.84,2.49-11.07,3.6-15.84,6.16-2.57-.23-2.7,2-5.27,1.78-2.38-.81,2.01-1.98,1.75-3.53,3.64-2.24,5.87-5.88,6.17-11.45h-.88c.14-1.89-3.12-.39-4.39-.88-2.2-.13-2.73,1.39-4.41,1.76-1.47,1.46-5.16.69-4.41,4.41h-.87c0,.87-.71,1.04-.88,1.75-1.98,1.86-5.56,6.72-7.92,5.29-.2-1.66,1-1.95.88-3.53,2.1-3.47,3.05-8.11,4.39-12.31.2-.68.03-1.73.88-1.76.35-3.18,1.17-5.87,2.64-7.92v-2.64c1.91-3.37,2.77-7.76,2.64-13.19-3.38,1.6-3.38,6.59-6.17,8.8v.88c-.98,3.43-2.43,6.36-4.39,8.8-.58,2.93-2.73,4.29-3.53,7.04-.46,1.29-1.3,2.21-1.76,3.51-1.92,3.06-2.35,7.6-5.27,9.68.19-3.54-.22-3.93-1.76-1.76V19.91c-1.73-3.12-4.15-.4-5.27,1.75-2.33,7.66-3.35,16.6-3.51,26.4h-.88v3.51c-2.02,1.81-.32,7.31-.88,10.56.55,2.4-1.11,6.99.88,7.93-.16,1.32.3,3.24-.88,3.51-.01-1.17-1.55-.81-1.76-1.76.19-1.66-1-1.95-.88-3.53-.82-.64-1.34-1.59-1.76-2.63h-.88c-.26-4.42-3.24-6.14-5.26-8.8-1.23-2.59-4.08-3.55-5.29-6.16-1.03.13-1.56-.2-1.76-.88-6.27-7.51-11.76-15.81-19.36-21.99,1.53,3.34.95,3.34,1.76,7.04,1.31.75,1.29,2.83,1.76,4.39h.88c-.13,2.2,1.39,2.73,1.76,4.39,1.16.01.79,1.56,1.76,1.78,1.71,4.45,4.7,7.61,7.02,11.43,1.1,1.85,2.44,3.42,3.53,5.28-1.2.04-1.92-.42-2.63-.88-.1-2.25-3.44-1.24-3.53-3.51-3.47-.06-8.64-6.79-10.56-2.64,3.05,3.12,3.41,8.9,7.92,10.56,2.33.91,2.98,3.48,5.27,4.41,2.24,2.17,5.35,3.45,7.04,6.14h-12.31v-.87h-24.64c-1.81.52-5.77-1.08-6.14.87-1.26-.07-2.5-.14-2.64.88,1.91,1.33,4.94,1.5,7.92,1.76,1.24-.07,2.49-.14,2.64.88h4.39c3.06.45,6.63.41,8.79,1.76h3.53c1.04.43,1.99.92,2.64,1.75,4.49-.68,6.39,1.24,10.55.88,1.2.29,1.68,1.27,3.53.9h3.53c.01.85,1.07.68,1.75.87-1,1.94-2.95,2.93-3.53,5.27-1.16.9-2.65,1.46-3.51,2.65.16.71.88.88.88,1.76-2.31.91-2.96,3.48-5.27,4.41-1.2,2.01-3.63,2.82-5.27,4.39-1.73,1.49-4.41,2.05-5.29,4.39-3.84,1.14-5.53,4.44-7.92,7.04-3.5,2.96-7.8,5.12-9.67,9.68v2.63c1.2-.03,1.92.43,2.63.9,2.69.64,3.21-.91,5.29-.9,2.48-2.77,6.79-3.76,9.67-6.14,2.28-.95,3.27-3.19,6.16-3.53.06-.53.13-1.04.88-.88,2.54-1.87,4.38-4.42,7.92-5.28v-.88c2.54.15,4.22-5.09,6.16-2.64,0,.9-.71,1.04-.87,1.76-2.27,3.02-4.02,6.56-5.29,10.56-1.17,0-.81,1.53-1.76,1.75-.79,3.9-3.6,5.78-4.39,9.68,0,.88-.72,1.06-.87,1.76-1.59,2.53-2.33,5.88-4.42,7.92.74,2.49-1.23,2.27-.87,4.41.39.77.77,1.58,1.76,1.75h4.39c1.23-2.59,4.29-3.32,4.39-7.04,2.93-2.36,3.94-6.63,6.17-9.68,2.77-3.67,4.65-8.24,7.92-11.45-.14-2.17,1.37-2.72,1.75-4.39,1-2.24,2.17-4.29,3.53-6.16.71-2.82,2.6-4.44,2.64-7.92,1.91.16.39-3.12.87-4.39-.98-.19-1.36-.98-1.75-1.76,1.55-.81,1.6-3.09,2.64-4.41h1.75c.52,2.86-.61,4.1-.88,6.17-.2,1.66,1,1.94.88,3.51v2.64c.75-.16.82.33.88.88-.2,1.66.98,1.94.87,3.51.55.06,1.05.13.9.88.39,2.83,1.68,4.77,1.75,7.92v.88c3.22,4.9,5.39,9.64,5.29,14.96.45,1.32,1.3,2.23,1.75,3.53,3.12.46,4.54-.75,5.29-2.64.69-.78.94-1.98.88-3.53v-3.51c-1.16-2.66-.09-7.54-1.76-9.68.68-3.31-1.07-4.2-.88-7.04.74-2.3-2.66-4.83,0-6.16.2,1.26,1.44,1.49,1.76,2.63,4.03,4.77,8.42,9.18,13.19,13.21.9,0,1.04.71,1.76.87.49,1.29,1.37,2.15,2.63,2.64.92,2.33,3.5,2.98,4.41,5.27,1.52-.33,2.25,1.32,2.63,0-.49.01-.98-.71,0-.87.79,1.85,1.37,3.92,2.64,5.27h.88v.88c2.43,1.68,4.61,3.6,7.04,5.27.55-3.77-2.86-3.58-2.63-7.04-3.25-4.38-7.93-7.31-10.56-12.31-.72-.17-.87-.88-1.76-.88-.78-1.56-2.12-2.56-2.64-4.39-.81-.65-1.33-1.6-1.75-2.65-3.31-3.73-6.69-7.38-9.68-11.43-1.79-.26-1.73-2.38-3.53-2.64-.56-4.41-5.88-3.68-7.92-4.41v-3.51h.88c1.75.01,1.13,2.4,3.53,1.75,2.18,1.34,5.33,1.7,8.8,1.76v.88c6-.42,10.52.64,14.96,1.76,3.63-.12,5.51,1.53,9.68.88h7.92v.88h5.27c2.57-.07,3.27-2.01,4.39-3.53-1.5-2.59-2.62-5.58-7.04-5.28v-.88h-1.75c-6.92-1.59-14.39-2.62-21.13-4.41-2.72-.22-4.97-.88-7.04-1.75-5.46,1.07-6.81-1.99-11.43-1.76h-2.64c-2.04-2.38,6.55-1.63,7.9-3.53,1.55.07,2.76-.19,3.53-.87,3.84.61,3.92-2.54,7.04-2.64h.9c.58-1.17,1.88-1.65,3.51-1.76.64-1.99,2.64-2.63,4.41-3.51,1.3-.46,2.21-1.3,3.51-1.76h1.76c5.01-1.72,7.5-5.98,13.19-7.05.14-1.03,1.6-.72,2.64-.87.77-1.29,1.31-2.79,3.53-2.64,2.14-.55,3.92-3.67,0-3.53Z"/><path class="cls-4" d="m149.9,37.07c-1.73.58-5.79-1.19-5.93,1v.98c-1.86-.22-2.17,1.11-3.94.98h-.98c-2.37-.4-2.14,1.81-4.93.98-5.43,2.79-12.41,4.03-17.76,6.91-2.88-.26-3.02,2.23-5.91,1.98-2.67-.9,2.25-2.21,1.97-3.95,4.08-2.51,6.58-6.59,6.91-12.83h-.98c.16-2.12-3.5-.43-4.93-.98-2.46-.14-3.06,1.55-4.94,1.98-1.65,1.63-5.78.78-4.93,4.93h-.98c0,.98-.79,1.17-.98,1.96-2.23,2.1-6.24,7.53-8.87,5.92-.23-1.86,1.11-2.18.98-3.95,2.36-3.89,3.41-9.09,4.93-13.8.22-.77.03-1.95.98-1.98.39-3.55,1.31-6.58,2.96-8.87v-2.96c2.14-3.77,3.12-8.7,2.96-14.78-3.79,1.79-3.79,7.38-6.91,9.86v.98c-1.1,3.84-2.73,7.14-4.93,9.87-.65,3.29-3.06,4.81-3.94,7.89-.52,1.44-1.46,2.49-1.98,3.93-2.15,3.44-2.65,8.53-5.91,10.85.2-3.96-.25-4.41-1.98-1.97V1.58c-1.95-3.5-4.65-.45-5.91,1.97-2.6,8.58-3.76,18.6-3.94,29.58h-.98v3.95c-2.27,2.02-.36,8.19-.98,11.83.61,2.69-1.26,7.83.98,8.89-.17,1.47.35,3.63-.98,3.95-.01-1.31-1.73-.91-1.98-1.98.22-1.86-1.11-2.18-.98-3.94-.93-.72-1.5-1.79-1.98-2.96h-.98c-.3-4.96-3.63-6.88-5.91-9.86-1.37-2.9-4.57-3.99-5.92-6.91-1.14.16-1.75-.22-1.97-.98-7.04-8.42-13.19-17.72-21.71-24.65,1.72,3.74,1.07,3.74,1.98,7.89,1.46.84,1.43,3.18,1.97,4.93h1c-.16,2.46,1.55,3.05,1.97,4.93,1.3.01.9,1.73,1.98,1.98,1.91,4.99,5.26,8.54,7.88,12.82,1.23,2.07,2.73,3.84,3.95,5.91-1.34.04-2.15-.46-2.95-.98-.1-2.53-3.86-1.4-3.94-3.94-3.89-.06-9.68-7.62-11.83-2.96,3.41,3.5,3.81,9.99,8.87,11.84,2.6,1.03,3.32,3.91,5.91,4.94,2.5,2.43,5.98,3.87,7.89,6.89h-13.8v-.98H9.85c-2.04.59-6.47-1.21-6.89.98-1.4-.09-2.8-.16-2.96.98,2.14,1.49,5.55,1.69,8.87,1.98,1.4-.09,2.79-.16,2.96.98h4.93c3.44.51,7.44.45,9.85,1.98h3.95c1.17.48,2.24,1.04,2.96,1.96,5.04-.77,7.17,1.39,11.84.98,1.33.32,1.88,1.42,3.94,1h3.94c.03.95,1.2.77,1.97.98-1.11,2.17-3.29,3.28-3.94,5.91-1.3,1-2.98,1.63-3.94,2.96.19.79,1,.98,1,1.98-2.6,1.01-3.32,3.9-5.92,4.93-1.34,2.25-4.06,3.16-5.91,4.93-1.94,1.68-4.93,2.3-5.92,4.93-4.31,1.27-6.2,4.97-8.87,7.89-3.92,3.32-8.74,5.72-10.84,10.85v2.95c1.34-.03,2.15.48,2.95,1,3.02.71,3.6-1.01,5.92-1,2.79-3.12,7.62-4.22,10.84-6.89,2.56-1.07,3.67-3.57,6.91-3.95.06-.61.14-1.17.98-.98,2.85-2.09,4.91-4.97,8.87-5.92v-.98c2.86.16,4.74-5.69,6.91-2.96,0,1-.79,1.17-.98,1.98-2.53,3.38-4.49,7.34-5.92,11.84-1.3,0-.9,1.72-1.97,1.96-.9,4.36-4.05,6.47-4.93,10.85,0,.98-.79,1.17-.98,1.96-1.78,2.83-2.6,6.6-4.94,8.87.82,2.79-1.39,2.56-.98,4.94.43.87.87,1.76,1.98,1.97h4.93c1.37-2.9,4.81-3.73,4.93-7.89,3.28-2.63,4.41-7.43,6.91-10.85,3.11-4.1,5.22-9.23,8.87-12.82-.16-2.44,1.55-3.05,1.97-4.93,1.11-2.51,2.43-4.81,3.95-6.91.79-3.15,2.92-4.97,2.96-8.87,2.14.17.45-3.5.98-4.93-1.1-.2-1.53-1.1-1.96-1.97,1.73-.91,1.81-3.47,2.96-4.94h1.97c.58,3.21-.66,4.6-.98,6.91-.23,1.86,1.11,2.18.98,3.94v2.96c.84-.19.92.38.98.98-.22,1.86,1.11,2.17.98,3.95.61.06,1.17.14,1,.98.43,3.18,1.88,5.35,1.97,8.87v1c3.6,5.48,6.04,10.79,5.92,16.76.51,1.46,1.46,2.49,1.97,3.94,3.48.52,5.09-.84,5.92-2.96.77-.88,1.06-2.23.98-3.95v-3.94c-1.3-2.98-.1-8.45-1.98-10.85.77-3.71-1.2-4.71-.98-7.89.82-2.57-2.98-5.41,0-6.89.23,1.4,1.62,1.66,1.98,2.95,4.51,5.35,9.44,10.28,14.78,14.8,1,0,1.17.79,1.98.98.55,1.43,1.53,2.41,2.95,2.96,1.03,2.6,3.92,3.32,4.94,5.91,1.69-.38,2.53,1.47,2.95,0-.55.01-1.11-.79,0-.98.88,2.08,1.53,4.39,2.96,5.92h.98v.98c2.72,1.88,5.17,4.03,7.89,5.91.61-4.22-3.21-4.02-2.95-7.89-3.64-4.9-8.9-8.19-11.84-13.8-.81-.19-.98-.98-1.98-.98-.88-1.75-2.38-2.87-2.96-4.93-.91-.72-1.49-1.79-1.97-2.96-3.71-4.18-7.5-8.28-10.85-12.82-2.01-.29-1.94-2.67-3.95-2.96-.64-4.93-6.59-4.13-8.87-4.93v-3.95h.98c1.96.01,1.26,2.69,3.94,1.96,2.46,1.5,5.98,1.91,9.87,1.98v.98c6.72-.48,11.79.71,16.76,1.98,4.06-.13,6.17,1.7,10.85.98h8.87v.98h5.91c2.89-.07,3.67-2.25,4.93-3.95-1.69-2.91-2.93-6.26-7.89-5.91v-1h-1.96c-7.75-1.78-16.13-2.93-23.67-4.93-3.05-.25-5.58-1-7.89-1.96-6.13,1.2-7.63-2.24-12.82-1.98h-2.96c-2.28-2.67,7.34-1.82,8.87-3.95,1.72.07,3.08-.22,3.94-.98,4.31.69,4.39-2.85,7.89-2.96h1c.65-1.32,2.11-1.84,3.94-1.97.71-2.24,2.96-2.95,4.93-3.94,1.46-.52,2.49-1.46,3.95-1.98h1.96c5.64-1.92,8.41-6.71,14.8-7.89.16-1.16,1.79-.82,2.96-.98.85-1.45,1.47-3.12,3.94-2.96,2.4-.61,4.39-4.12,0-3.94ZM20,113.85c.23-.26.48-.54.71-.84-.23.3-.48.58-.71.84Zm-.69.74c.17-.16.33-.33.49-.52-.16.19-.32.36-.49.52Zm-.68.65c.16-.13.32-.29.48-.45-.16.16-.32.3-.48.45Zm-.78.66c-2.3,1.87-4.1,2.49-4.81,4.99.71-2.5,2.51-3.12,4.81-4.99Zm.61-.5c-.17.14-.33.29-.51.43.17-.14.33-.29.51-.43Zm-3.14,6.4h.04s-.04,0-.04,0Z"/><path class="cls-6" d="m71.99,56.8v1c-.78.22-1.16.82-1,1.96-2.8-1.62.48-5.35,1-6.91,2.95.65-.95,2.11,0,3.94Z"/><path class="cls-3" d="m20.71,64.69v-.98h16.76v.98h-16.76Z"/><path class="cls-5" d="m58.18,86.39c2.79-.84,6.08-1.16,8.87-1.98-1.11,4.05-7.12,5.91-12.82,7.89-.12-3.19,5.62-3.14,2.96-5.91h.98Z"/><path class="cls-4" d="m138.06,87.38h-8.87c1.23-4.16,5.33-.35,8.87-.98v.98Z"/><path class="cls-1" d="m102.56,15.38v2.96c-1.65,2.3-2.57,5.32-2.96,8.87-.95.03-.77,1.21-.98,1.98-2.02-2.01-1.97.39-2.96,1.96-1.68.36-1.85-.77-1.97-1.96-3.67,7.5-9.44,14.77-14.8,17.75-1.92-4-3.45-8.38-2.96-14.8-2.15,6.59-2.02-4.51-5.91.98.19-10.98,1.34-21,3.94-29.58,1.73.85,3.42,3.67,2.96-.98.75,10.67-1.18,25.94.98,36.49,2.92-2.67-.95-12.12,1.97-14.8v17.76c1.73-2.44,2.18-1.99,1.98,1.97,3.27-2.33,3.76-7.41,5.91-10.85.52-1.45,1.46-2.49,1.98-3.93,6.33-1.03,8.15-14.78,11.83-21.7,1.95,4.94-4.46,9.99-4.93,15.78,2.28,1.91,3.97-5.17,4.93-7.89h.98Z"/><path class="cls-3" d="m98.61,10.46c3.12-2.47,3.12-8.06,6.91-9.86.16,6.08-.82,11.01-2.96,14.78h-.98c-.95,2.72-2.64,9.8-4.93,7.89.46-5.79,6.88-10.84,4.93-15.78-3.69,6.92-5.51,20.68-11.83,21.7.88-3.08,3.29-4.6,3.94-7.89,2.2-2.73,3.83-6.03,4.93-9.87v-.98Z"/><path class="cls-3" d="m28.6,18.34c-.91-4.15-.26-4.15-1.98-7.89,8.51,6.94,14.67,16.23,21.71,24.65-1.13,1.18-2.5.39-1,0-1.55-.42-2.69-4.06-5.91-2.96.03-4-6.05-8.55-7.89-13.8-1.85,2.56,3.66,6.17,4.93,8.87-3.11,3.37-1.79-6.04-6.89-3.95h-1c-.54-1.75-.51-4.09-1.97-4.93Z"/><path class="cls-2" d="m70.01,33.13c3.89-5.49,3.76,5.61,5.91-.98-.49,6.42,1.04,10.79,2.96,14.8,5.36-2.98,11.13-10.25,14.8-17.75.12,1.2.29,2.33,1.97,1.96,1-1.58.94-3.97,2.96-1.96-1.52,4.71-2.57,9.91-4.93,13.8-.52-.79-1.03-1.6-.98-2.96-.97.03-.77,1.21-1,1.98-1.21-.43-2.02-1.27-1.97-2.96-4.03,6.01-7.27,11.13-12.82,10.85.84-7.1-2.82-9.68-4.93-13.81-1.6-.28-1.7.94-2.96.98v-3.95h.98Z"/><path class="cls-1" d="m31.56,23.27c5.1-2.09,3.79,7.31,6.89,3.95-1.27-2.7-6.78-6.32-4.93-8.87,1.83,5.25,7.92,9.8,7.89,13.8,3.22-1.1,4.36,2.54,5.91,2.96-1.5.39-.13,1.18,1,0,.22.77.82,1.14,1.97.98,1.36,2.92,4.55,4,5.92,6.91-2.41-.56-5.07-.84-4.94-3.94-1.29,1.18-1.55.39-2.95,0h-1c-5.33-9.7-1.69-.4-9.86-5.92.19-1.11,1-.54.98,0,1.14-2.73-1.78-3.67-2.95-2.95-1.08-.25-.68-1.97-1.98-1.98-.42-1.88-2.12-2.47-1.97-4.93Z"/><path class="cls-2" d="m35.5,30.18c1.17-.72,4.09.22,2.95,2.95.01-.54-.79-1.11-.98,0,8.16,5.52,4.52-3.77,9.86,5.92.29,1.59-.92,1.69-.98,2.96-.88-.45-1.76-.87-1.97-1.98-2.23.55,1.2,1.55-1,2.96-2.62-4.28-5.97-7.83-7.88-12.82Z"/><path class="cls-1" d="m113.41,32.14c1.43.55,5.09-1.14,4.93.98-5.64-.36-8.73,1.81-11.83,3.95.35-1.29,1.73-1.55,1.97-2.95,1.88-.43,2.49-2.12,4.94-1.98Z"/><path class="cls-4" d="m47.33,39.05h1c4.03,7.63,10.69,9.72,13.8,13.8h.98c.48,1.17,1.06,2.24,1.98,2.96-.13,1.76,1.2,2.08.98,3.94-1.72-1.85-3.8,1.34-1.97-1.96-2.99,2.77-8.96,2.5-9.87,2.95-2.23.55,1.2,1.55-.98,2.96h-.98c-2.4-.56-2.2-3.73-2.96-5.91,3.66.26,6.24-.32,9.85-1h1.98c-.45-4.15-4.67-4.54-5.92-7.89-2.3.3-4.25,2.11-4.93-.98-.95.03-.77,1.21-.98,1.98-.79-.19-.98-1-1.98-1-1.21-2.07-2.72-3.84-3.95-5.91,2.2-1.41-1.23-2.41,1-2.96.2,1.11,1.08,1.53,1.97,1.98.06-1.27,1.27-1.37.98-2.96Z"/><path class="cls-3" d="m106.5,37.07c3.11-2.14,6.2-4.31,11.83-3.95h.98c-.33,6.24-2.83,10.32-6.91,12.83.85-.79.59-2.7,1.98-2.96-4.18.06-.46-6.92,2.96-7.89-1.08-2.59-4.83,5.56-6.91,1.97-2.54.25,1.36,1.71,0,3.94-1.14-.16-1.75.23-1.98,1-2.85-.56,1.52-1.55,1-2.96-2.87,1.07-3.71,4.18-7.89,3.94.19-.79.98-.98.98-1.98.9-1.73,3.63-1.62,3.94-3.94Z"/><path class="cls-1" d="m102.56,41.02c0,1-.79,1.18-.98,1.98,4.18.23,5.01-2.87,7.89-3.94.52,1.42-3.84,2.4-1,2.96.23-.77.84-1.16,1.98-1,1.36-2.24-2.54-3.7,0-3.94,2.08,3.6,5.82-4.55,6.91-1.97-3.42.97-7.14,7.95-2.96,7.89-1.39.26-1.13,2.17-1.98,2.96.29,1.73-4.64,3.05-1.97,3.95-.03.95-1.21.77-1.98.98-1.39-.09-2.79-.16-2.95.98-1.33-3.61.03-3.06,1.97-7.89-4.88,1.55-11.6,8.89-15.78,4.93v-.98c-.17-.84.39-.92,1-.98,2.63,1.6,6.65-3.83,8.87-5.92h.98Z"/><path class="cls-4" d="m69.03,37.07c1.26-.04,1.36-1.26,2.96-.98,2.11,4.13,5.77,6.72,4.93,13.81,5.55.27,8.79-4.84,12.82-10.85-.06,1.69.75,2.53,1.97,2.96.23-.77.03-1.95,1-1.98-.04,1.36.46,2.17.98,2.96.13,1.76-1.21,2.08-.98,3.95-.61.06-1.17.14-1,.98-2.88.27-3.38-.23-1.97-1.96-3.32.88-.12,2.2-1.98,3.95-1.16-.16-.82-1.81-.98-2.96-2.3,1.65-2.53,5.36-3.94,7.89-4.02-2.8-6.97,2.49-10.84,2.96v-1c3.45-1.14,3.02-6.17,2.95-10.84-.72-.92-1.79-1.5-2.95-1.98-2.33,1.62-.85,7.05-2.96,8.87v-15.78Z"/><path class="cls-5" d="m71.99,57.79c3.87-.48,6.82-5.77,10.84-2.96,1.42-2.53,1.65-6.24,3.94-7.89.16,1.16-.17,2.8.98,2.96,1.86-1.75-1.34-3.06,1.98-3.95-1.42,1.73-.91,2.24,1.97,1.96v.98c-1.42.56-2.4,1.55-2.95,2.96-1.98,1.31-4.28,2.3-4.94,4.93,2.98,3.54,4.68-2.49,8.89-.98.51,1.46,1.46,2.49,1.97,3.94,6.39.33,9.42-4.72,16.76-5.91,2.31,4.25-8.9,8.47-6.91,9.86-.87.77-2.23,1.06-3.94.98-1.53,2.12-11.16,1.27-8.87,3.95-.01,4.91-4.1,5.75-4.93,9.87-1.56.07-3.76-.48-3.94.98-1.55-.35.87-1.73-.98-1.98,2.9-1.08,5.46-9.15,9.85-11.84-1.85-1.96-3.58-1.54-1.97-4.93-2.73.13-3.38,1.88-1.98-.98-2.93,1.3-5,1.01-6.89-.98-3.9,1.71-9.23,7.92-13.81,2.96-2.79-.17-1.92,3.32-5.91,1.96-.81,7.27,8.32,9.13,6.91,13.8,2.24-2.33,2.95,1.24,3.94,2.96,2.95-.35,4.09-5.46,6.89-2.96-3.34,1.72-3.73,4.19-3.94,6.91.74,2.23,5.33-3.8,4.93,1.98.92-.74,1.5-1.81,1.98-2.96.77,1.62.62,2.76,2.96,0,1.16.16.82,1.79.98,2.96.88-.77,2.23-1.07,3.94-1,.97,3.64,4.32,4.88,5.91,7.89,2.12,2.09-3.63-2.2-3.94-3.95-2.08.9,1.86,3.96,1,6.91-.81-.19-1-.98-1.98-.98.19-.84-.38-.94-.98-1-1.01-1.29-.97-3.63-1.98-4.93-1.46.84-1.42,3.18-1.97,4.93-4.31-1.3-3.42-1.58-7.89-2.95-1.21.43-2.02,1.26-1.98,2.95-1.07-.23-.66-1.95-1.97-1.97.13-1.76-1.21-2.08-.98-3.94.3-2.31,1.56-3.7.98-6.91h-1.97c-.79.52-1.6,1.04-2.96,1-1.27-3.97-7.3-7.41-5.93-10.85-7.11,3.14-10.26-1.82-16.76,0-3.03-.98,1.1-2.67,1.98-2.96-.69-1.31-2.63.49-4.94-.98,1.76-2.01,4.02-.65,1-2.96h4.93c-.39,1.92,4.49,1.45,2.96-.98h.98c2.18-1.42-1.24-2.41.98-2.96.91-.45,6.88-.17,9.87-2.95-1.84,3.31.25.12,1.97,1.96.25,1.07,1.97.67,1.98,1.98,1.33-.32.81-2.47.98-3.95v-4.94c2.11-1.82.64-7.25,2.96-8.87,1.16.48,2.23,1.05,2.95,1.98.07,4.67.51,9.7-2.95,10.84-.95-1.83,2.95-3.29,0-3.94-.52,1.56-3.8,5.29-1,6.91-.16-1.14.22-1.75,1-1.96Z"/><path class="cls-1" d="m108.47,34.12c-.23,1.4-1.62,1.66-1.97,2.95-.32,2.33-3.05,2.21-3.94,3.94h-.98c.19-.79.98-.98.98-1.96h.98c-.85-4.15,3.28-3.29,4.93-4.93Z"/><path class="cls-2" d="m91.7,48.91c4.18,3.96,10.9-3.38,15.78-4.93-1.94,4.83-3.29,4.28-1.97,7.89.16-1.14,1.56-1.07,2.95-.98-2.66,2.59-4.58,5.92-10.84,4.93-.4-2.37,1.79-2.14.98-4.93-1.58,1.3-8.71,4-9.86.98.55-1.42,1.53-2.4,2.95-2.96Z"/><path class="cls-3" d="m143.97,39.05c4.36.97,2.59.14,5.93-.98,1.17,1.29.37,1.55,0,2.95-2.47-.16-3.09,1.52-3.94,2.96-1.17.16-2.8-.17-2.96.98-6.39,1.19-9.16,5.97-14.8,7.89h-1.96c.55-.91,2.73-1.49.98-1.97,1.75-1.19,6.75-5.07,11.84-5.92-.65-2.95-2.11.95-3.94,0,.68-2.59,4.49-2.08,4.93-4.93,1.78.13,2.08-1.2,3.94-.98Z"/><path class="cls-1" d="m140.03,40.04c-.43,2.85-4.25,2.34-4.93,4.93,1.83.95,3.29-2.95,3.94,0-5.09.85-10.09,4.74-11.84,5.92,1.75.48-.43,1.05-.98,1.97-1.46.52-2.49,1.46-3.95,1.98.43-2.86,2.08-4.49,4.93-4.93-3.64-3.82,9.88-5.3,11.84-9.87h.98Z"/><path class="cls-3" d="m28.6,41.02c2.15-4.65,7.95,2.9,11.83,2.96.09,2.54,3.84,1.42,3.94,3.94-1.58,1.29-3.97,1.3-1.98-.98-.79.85-2.7.58-2.95,1.96.03-2.95-1.73-2.12-4.94-4.93-.74,3.37,4.02,1.26,2.96,4.93-.79-.52-1.6-1.03-2.96-.98.9,1.75,2.38,2.88,2.96,4.93-5.06-1.85-5.46-8.34-8.87-11.84Z"/><path class="cls-1" d="m37.47,52.85c-.58-2.05-2.07-3.18-2.96-4.93,1.36-.04,2.17.46,2.96.98,1.05-3.67-3.7-1.56-2.96-4.93,3.21,2.8,4.97,1.98,4.94,4.93.25-1.39,2.15-1.11,2.95-1.96-1.99,2.28.4,2.27,1.98.98.79.52,1.6,1.03,2.95.98,1,0,1.18.81,1.98,1,1.47,1.16,4.03,1.21,4.93,2.95-.49,3.42-5.64,1.5-6.91,0-.3,2.93-4.75-.19-3.95,4.94-2.59-1.03-3.31-3.92-5.91-4.94Z"/><path class="cls-2" d="m48.32,39.05c1.4.39,1.66,1.18,2.95,0-.13,3.11,2.53,3.38,4.94,3.94,2.28,2.98,5.61,4.9,5.91,9.86-3.11-4.08-9.77-6.17-13.8-13.8Z"/><path class="cls-2" d="m134.12,41.02c2.79.82,2.56-1.39,4.93-.98-1.95,4.57-15.48,6.05-11.84,9.87-2.85.43-4.49,2.07-4.93,4.93-1.96,1-4.22,1.7-4.93,3.94-1.84.13-3.29.65-3.94,1.97h-1c2.31-3.61,4.54-7.3,8.89-8.87-1.16-1.46-1.16-2.49,0-3.95-2.79,1-2.49,1.45-3.94,1.98-.97-.03-.77-1.21-1-1.98,5.35-2.87,12.33-4.12,17.76-6.91Z"/><path class="cls-2" d="m49.31,64.69h1.97c-1.91-3.02-5.39-4.46-7.89-6.89-.81-5.13,3.64-2.01,3.95-4.94,1.27,1.5,6.42,3.42,6.91,0,.94,2.04,5.09.84,4.93,3.94-3.61.68-6.2,1.26-9.85,1,.77,2.18.56,5.35,2.96,5.91,1.53,2.43-3.35,2.91-2.96.98Z"/><path class="cls-5" d="m49.31,49.91c.22-.77.03-1.95.98-1.98.68,3.09,2.63,1.29,4.93.98,1.26,3.35,5.48,3.74,5.92,7.89h-1.98c.16-3.11-3.99-1.91-4.93-3.94-.9-1.73-3.45-1.79-4.93-2.95Z"/><path class="cls-4" d="m110.45,49.91c2.89.25,3.04-2.24,5.91-1.98.23.77.03,1.95,1,1.98,1.46-.54,1.16-.98,3.94-1.98-1.16,1.46-1.16,2.49,0,3.95-4.35,1.58-6.58,5.26-8.89,8.87-3.5.12-3.58,3.66-7.89,2.96-1.99-1.39,9.22-5.61,6.91-9.86-7.34,1.19-10.37,6.24-16.76,5.91-.51-1.46-1.46-2.49-1.97-3.94-4.2-1.5-5.91,4.52-8.89.98.66-2.63,2.96-3.61,4.94-4.93,1.14,3.02,8.28.32,9.86-.98.81,2.79-1.39,2.56-.98,4.93,6.26,1,8.18-2.34,10.84-4.93.77-.22,1.95-.03,1.98-.98Z"/><path class="cls-4" d="m44.38,64.69c3.02,2.31.77.95-1,2.96,2.31,1.47,4.25-.33,4.94.98-.88.29-5.01,1.98-1.98,2.96,6.5-1.82,9.65,3.14,16.76,0-1.37,3.44,4.65,6.88,5.93,10.85,1.36.04,2.17-.48,2.96-1-1.16,1.47-1.23,4.03-2.96,4.94.43.87.87,1.76,1.96,1.97-.53,1.43,1.16,5.1-.98,4.93-5.69,5.82-8.28,14.74-15.78,18.74.52-.79,1.03-1.6.98-2.96-2.99,1.6-4.25,4.96-7.89,5.93,1.43-4.49,3.4-8.45,5.92-11.84.62,2.88,6.73-5.04,3.94,0,.88-.45,1.76-.87,1.97-1.98,1.47.43-.39,1.26,0,2.96,2.25-6.7,11.89-10.54,8.89-16.76v-.98c-6.47,3.38-10,9.73-19.73,9.86-.04-2.53.72-1.2,1.97-.98-1.13-4.41-.58-1.26,1.98-2.96-.03-.95-1.21-.77-1.98-.98,1.6-1.69,3.08-3.5,4.93-4.93h1.98c2.66,2.77-3.08,2.72-2.96,5.91,5.69-1.98,11.71-3.84,12.82-7.89-.51-.38-1.46-4.78-1.96-1.96-2.24-1.72-1.91-5.98-4.93-6.91v-.98h-10.85c-2.07.42-2.62-.68-3.94-1-4.67.41-6.79-1.75-11.84-.98-.72-.92-1.79-1.49-2.96-1.96-1.63-4.28-11.37-.46-11.84-5.93h25.65Z"/><path class="cls-6" d="m84.81,83.43c-2.34,2.76-2.2,1.62-2.96,0-.48,1.16-1.06,2.23-1.98,2.96.4-5.78-4.19.25-4.93-1.98.22-2.72.61-5.19,3.94-6.91-2.8-2.5-3.94,2.62-6.89,2.96-1-1.72-1.7-5.29-3.94-2.96,1.42-4.67-7.72-6.53-6.91-13.8,3.99,1.36,3.12-2.14,5.91-1.96,4.58,4.96,9.91-1.26,13.81-2.96,1.89,2,3.96,2.28,6.89.98-1.4,2.86-.75,1.11,1.98.98-1.62,3.38.12,2.96,1.97,4.93-4.39,2.69-6.95,10.75-9.85,11.84,1.85.25-.56,1.63.98,1.98.85.79.59,2.7,1.98,2.96v.98Z"/><path class="cls-1" d="m8.87,67.65c-3.32-.29-6.73-.49-8.87-1.98.16-1.14,1.56-1.07,2.96-.98h2.95c-1.53,3.51,3.35.59,2.96,2.96Z"/><path class="cls-2" d="m107.48,70.61c2.31.97,4.84,1.72,7.89,1.96-.19,2.7-1.04,6.94,3.94,6.91-.14,1.82-3.34.61-3.94,1.96,3.19,1.73,5.69,4.18,10.85,3.95,1.55-.42.84-3.09,3.95-1.97-.15-1.82-3.34-.61-3.95-1.98,6.63.36,8.67-2.2,14.78-2.95,4.96-.35,6.2,3,7.89,5.91-1.26,1.69-2.04,3.87-4.93,3.95h-5.91v-1.97c-3.54.64-7.64-3.18-8.87.98-4.68.72-6.79-1.11-10.85-.98-4.97-1.27-10.04-2.46-16.76-1.98v-.98c1.24-.25,1-1.96,0-1.98,1.49-1.46,4.32-1.59,6.89-1.96,4.84-4.32,1.42-8.83-4.93-5.92-2.05.58-2.82,2.46-5.91,1.98h-2.96c2.47-1.89,3.92-6.46,0-6.91,5.19-.26,6.69,3.18,12.82,1.98Z"/><path class="cls-4" d="m101.57,83.43c-3.89-.07-7.41-.48-9.87-1.98,2.76-2.18,6.68-3.19,11.83-2.95-3.47-1.4.1-3.66,1.98-1.98.53-2.18-1.89-1.4-1.98-2.96,6.34-2.9,9.77,1.6,4.93,5.92-2.57.38-5.4.51-6.89,1.96,1,.02,1.24,1.73,0,1.98Z"/><path class="cls-2" d="m58.18,76.52c.79-.19.98-.98,1.98-.98,3.02.92,2.69,5.19,4.93,6.91.51-2.82,1.46,1.59,1.96,1.96-2.79.82-6.08,1.14-8.87,1.98.35-1.3,1.73-1.56,1.98-2.96-.03-.97-1.21-.77-1.98-.98-.04-1.69.74-2.56,1.98-2.96-.16-1.16-1.81-.84-2.96-.98.19-.81.98-.98.98-1.98Z"/><path class="cls-1" d="m52.27,81.45c1.17-2.43,3.37-3.86,5.91-4.93,0,1-.79,1.17-.98,1.98,1.16.14,2.8-.17,2.96.98-1.24.4-2.02,1.27-1.98,2.96.77.22,1.95.01,1.98.98-.25,1.4-1.63,1.66-1.98,2.96h-2.96c-1.39.07-2.79.16-2.95-1,.85-1.73,3.29-3.05,0-3.95Z"/><path class="cls-1" d="m58.18,76.52c-2.54,1.07-4.74,2.5-5.91,4.93h-1c.65-2.63,2.83-3.74,3.94-5.91-.77-.22-1.94-.03-1.97-.98h6.91v.98c-1,0-1.19.79-1.98.98Z"/><path class="cls-4" d="m90.72,95.27c.98,0,1.17.79,1.98.98.87-2.95-3.08-6.01-1-6.91.32,1.75,6.07,6.04,3.94,3.95-1.59-3.01-4.94-4.25-5.91-7.89-1.72-.07-3.06.23-3.94,1-.16-1.17.17-2.8-.98-2.96v-.98c-1.39-.26-1.13-2.17-1.98-2.96.19-1.46,2.38-.91,3.94-.98.82-4.12,4.91-4.96,4.93-9.87h2.96c3.92.45,2.47,5.01,0,6.91h2.96c-1.88,2.72-8.83.38-9.87,3.95h-.98v3.95c2.28.79,8.24,0,8.87,4.93.32,4.23,3.29,8.4,7.89,11.83v.98c-1.94-1.68-4.93-2.3-5.91-4.93-.4,1.34-.07,4.15,2.95,4.93-1.63.94-3.93-.49-.98,2.96-2.91-1.36-3.99-4.55-6.89-5.93-.36-1.29-1.75-1.55-1.98-2.95Z"/><path class="cls-2" d="m55.22,86.39c-1.85,1.43-3.32,3.24-4.93,4.93.77.22,1.95.03,1.98.98-2.56,1.71-3.11-1.44-1.98,2.96-1.24-.22-2.01-1.55-1.97.98,9.73-.13,13.25-6.47,19.73-9.86v.98c-4.75,4.45-9.47,8.94-13.81,13.8-2.17-2.73-4.05,3.12-6.91,2.96-2.76-3.66-2.64-1.92-4.93-3.95.67-2.3,2.51-3.4,3.94-4.93-3.92-.23,1.56-1.58-.98-4.94,2.2.03,1.42,1.11,3.94-.98-.74-1.86-2.95-.68-.98-2.95,1.76.12,2.08-1.21,3.94-1,.16,1.16,1.56,1.07,2.95,1Z"/><path class="cls-1" d="m42.4,91.32c2.6-1.03,3.32-3.92,5.92-4.93-1.97,2.27.25,1.08.98,2.95-2.53,2.09-1.75,1.01-3.94.98,2.54,3.37-2.93,4.71.98,4.94-1.43,1.53-3.28,2.63-3.94,4.93,2.28,2.02,2.17.29,4.93,3.95v.98c-3.96.95-6.03,3.83-8.87,5.92-.84-.19-.92.38-.98.98-3.24.38-4.35,2.88-6.91,3.95-3.22,2.67-8.05,3.77-10.84,6.89-2.33-.01-2.9,1.71-5.92,1-.19-.81-.98-.98-.98-1.98v-.98c1.59-.28,1.69.92,2.96.98.2-3.38,11.03-4.6,12.82-11.83-.62-2.88-6.73,5.04-3.95,0-3.64,2.01-1.66,3.54-4.93,5.92-2.86-.55,1.5-1.55.98-2.96-.42-2.66,5.91-5.43.98-3.95,2.67-2.92,4.57-6.62,8.87-7.89,5.36-.94,8.58-3.64,5.92-4.93,1.85-1.76,4.57-2.67,5.91-4.93Z"/><path class="cls-2" d="m70.01,93.29c-.04,3.9-2.17,5.72-2.96,8.87-7.28,7.17-12.77,15.39-14.78,24.65-2.5,3.42-3.63,8.22-6.91,10.85.77-6.58,1.33-6.01,1.97-12.82-2.15,2.11-5.25,3.29-7.88,4.93.17-.79.98-.98.98-1.96.88-4.38,4.03-6.49,4.93-10.85,1.07-.25.66-1.96,1.97-1.96,3.64-.97,4.9-4.32,7.89-5.93.04,1.36-.46,2.17-.98,2.96,7.5-4,10.09-12.92,15.78-18.74Z"/><path class="cls-5" d="m54.23,101.18c4.35-4.86,9.06-9.35,13.81-13.8,3.01,6.23-6.63,10.06-8.89,16.76-.39-1.71,1.47-2.53,0-2.96-.2,1.11-1.08,1.53-1.97,1.98,2.79-5.04-3.32,2.88-3.94,0,.19-.81.98-.98.98-1.98Z"/><path class="cls-1" d="m99.59,91.32c3.35,4.54,7.14,8.64,10.85,12.82-1.14-.16-1.75.22-1.98.98-2.28-.67-2.63-3.28-4.93-3.95v-.98c-.69-3.57-3.44-5.1-3.94-8.87Z"/><path class="cls-2" d="m95.65,88.36c2.01.29,1.94,2.67,3.95,2.96.51,3.77,3.25,5.3,3.94,8.87-4.6-3.44-7.57-7.6-7.89-11.83Z"/><path class="cls-2" d="m20.71,113.01c.52,1.42-3.84,2.41-.98,2.96,3.27-2.38,1.29-3.92,4.93-5.92-2.79,5.04,3.32-2.88,3.95,0-1.79,7.24-12.62,8.45-12.82,11.83-1.27-.06-1.37-1.26-2.96-.98v.98c.64-4.52,3.97-3.9,7.89-8.87Z"/><path class="cls-3" d="m30.56,101.18c1-2.63,3.99-3.25,5.92-4.93,2.66,1.29-.56,3.99-5.92,4.93Z"/><path class="cls-2" d="m75.92,100.19c.13-1.78-1.2-2.08-.98-3.95,3.8,1.52,8.94.13,11.83,2.96,2.23-.42-.14-5.42,2.96-4.94.61.06,1.17.16.98,1-2.98,1.49.82,4.32,0,6.89-.79-.19-.98-.98-1.97-.98-.13,1.78,1.2,2.08.98,3.95-3.63-3.97-7.54-1.6-12.82-3.95.17-.84-.39-.92-1-.98Z"/><path class="cls-2" d="m99.59,104.14c-2.95-3.45-.65-2.02.98-2.96-3.02-.78-3.35-3.58-2.95-4.93.98,2.63,3.97,3.25,5.91,4.93,2.3.66,2.64,3.28,4.93,3.95,1,1.32,1.63,2.98,2.96,3.94-.43,1.43-.87-.1-1.97,0-.56-1.41-1.55-2.4-2.96-2.96-2.04,1.79,3.99,3.84,2.96,7.89-.81-.19-.98-.98-1.98-.98-2.04-3.55-5.85-5.32-7.89-8.87Z"/><path class="cls-4" d="m107.48,113.01c-5.35-4.52-10.27-9.45-14.78-14.8,2.91,1.37,3.99,4.57,6.89,5.93,2.04,3.55,5.85,5.32,7.89,8.87Z"/><path class="cls-1" d="m78.89,110.05c-.09-3.53-1.53-5.69-1.97-8.87,5.27,2.34,9.19-.03,12.82,3.95.22-1.86-1.11-2.17-.98-3.95.98,0,1.17.79,1.97.98-.22,3.18,1.75,4.18.98,7.89v1.98c-2.57.27-4.23-.36-3.94-2.96-1.49,3.83.9,12.24,1.98,16.76-1.07-.25-.66-1.95-1.98-1.96.07-3.69-1-6.24-1.97-8.87-1.3-2.31-4.25-2.99-4.93-5.93-.81.19-.98,1-1.98.98Z"/><path class="cls-3" d="m108.47,105.12c.23-.77.84-1.14,1.98-.98.48,1.17,1.06,2.24,1.97,2.96.58,2.05,2.08,3.18,2.96,4.93,2.82,6.71,10.35,8.71,11.83,16.76-1.86-.74-.68-2.95-2.96-.98h-.98c-1.43-1.53-2.08-3.84-2.96-5.92-1.11.19-.55,1,0,.98-.42,1.47-1.26-.38-2.95,0-1.03-2.59-3.92-3.31-4.94-5.91.81.19.98.98,1.98.98-1.84-2.77-3.21-5.98-4.93-8.87,1.1-.1,1.53,1.43,1.97,0-1.33-.97-1.97-2.63-2.96-3.94Z"/><path class="cls-1" d="m109.46,113.99c1.03-4.05-5-6.1-2.96-7.89,1.42.56,2.4,1.55,2.96,2.96,1.72,2.89,3.09,6.1,4.93,8.87-1,0-1.17-.79-1.98-.98-1.42-.55-2.4-1.53-2.95-2.96Z"/><path class="cls-3" d="m10.85,119.92c2.1-5.13,6.92-7.53,10.84-10.85,4.93-1.49-1.4,1.29-.98,3.95-3.92,4.97-7.25,4.35-7.89,8.87,0,1,.8,1.17.98,1.98-.8-.52-1.6-1.03-2.95-1v-2.95Z"/><path class="cls-4" d="m84.81,127.81c2.18-2.21,2.67,2.33,4.93,2.95,2.98-1.62,1.92-7.28,3.94-9.85v3.94c.07,1.72-.22,3.06-.98,3.95-.84,2.12-2.44,3.48-5.92,2.96-.51-1.46-1.46-2.49-1.97-3.94Z"/><path class="cls-3" d="m78.89,110.05c1,.01,1.17-.79,1.98-.98.68,2.93,3.63,3.61,4.93,5.93.97,2.63,2.04,5.19,1.97,8.87,1.31.01.91,1.72,1.98,1.96-1.08-4.52-3.47-12.93-1.98-16.76-.29,2.6,1.37,3.24,3.94,2.96v-1.98c1.88,2.4.68,7.87,1.98,10.85-2.02,2.57-.97,8.24-3.94,9.85-2.25-.62-2.75-5.16-4.93-2.95.12-5.97-2.33-11.29-5.92-16.76v-1Z"/><path class="cls-4" d="m124.25,127.81c2.28-1.97,1.1.25,2.96.98-1.49-8.05-9.02-10.06-11.83-16.76,1,0,1.17.79,1.98.98,2.93,5.61,8.19,8.9,11.84,13.8-.26,3.87,3.55,3.67,2.95,7.89-2.72-1.88-5.17-4.03-7.89-5.91v-.98Z"/><path class="cls-1" d="m61.14,113.99c-3.66,3.58-5.77,8.71-8.87,12.82,2.01-9.26,7.5-17.49,14.78-24.65-1.52,2.09-2.83,4.39-3.95,6.91-.42,1.88-2.12,2.49-1.97,4.93Z"/><path class="cls-4" d="m45.36,137.66c-.12,4.16-3.56,4.99-4.93,7.89h-3.94c2.34-1.27,2.8-4.42,3.94-6.91-2.9,1.04-3.42,4.46-4.93,6.91-1.11-.2-1.55-1.1-1.98-1.97-.4-2.38,1.81-2.15.98-4.94,2.34-2.27,3.16-6.04,4.94-8.87,2.63-1.63,5.72-2.82,7.88-4.93-.64,6.81-1.2,6.24-1.97,12.82Z"/><path class="cls-5" d="m35.5,145.55c1.5-2.44,2.02-5.87,4.93-6.91-1.14,2.49-1.6,5.64-3.94,6.91h-.98Z"/><path class="cls-3" d="m79.87,8.47v15.78c-2.92,2.67.95,12.12-1.97,14.8-2.17-10.55-.23-25.82-.98-36.49.46,4.65-1.23,1.83-2.96.98,1.26-2.41,3.96-5.46,5.91-1.97v6.89Z"/><path class="cls-4" d="m143.97,38.07c.13-2.18,4.19-.42,5.93-1,4.39-.17,2.4,3.34,0,3.94.37-1.4,1.17-1.66,0-2.95-3.34,1.13-1.56,1.95-5.93.98v-.98Z"/><path class="cls-1" d="m69.03,37.07v20.72c-2.24-1.05-.38-6.2-.98-8.89.62-3.64-1.29-9.81.98-11.83Z"/><path class="cls-4" d="m2.96,64.69c.42-2.2,4.85-.39,6.89-.98h10.85v.98H2.96Z"/><path class="cls-2" d="m5.91,64.69h12.82c.46,5.46,10.2,1.65,11.84,5.93h-3.95c-2.41-1.53-6.42-1.47-9.85-1.98h-4.93c-.17-1.14-1.56-1.07-2.96-.98.39-2.37-4.49.55-2.96-2.96Z"/><path class="cls-1" d="m115.37,72.58c7.54,1.99,15.92,3.15,23.67,4.93h1.96v1c-6.11.75-8.15,3.31-14.78,2.95.61,1.37,3.8.16,3.95,1.98-3.11-1.13-2.4,1.55-3.95,1.97-5.16.23-7.66-2.21-10.85-3.95.61-1.36,3.8-.14,3.94-1.96-4.99.03-4.13-4.2-3.94-6.91Z"/><path class="cls-5" d="m91.7,81.45c-2.69.72-1.98-1.95-3.94-1.96,1.04-3.57,7.99-1.23,9.87-3.95,3.09.48,3.86-1.4,5.91-1.98.09,1.56,2.51.78,1.98,2.96-1.88-1.68-5.45.58-1.98,1.98-5.16-.25-9.07.77-11.83,2.95Z"/><path class="cls-3" d="m51.27,81.45h1c3.29.9.85,2.21,0,3.95-1.86-.22-2.18,1.11-3.94,1,0-1-.81-1.18-1-1.98.97-1.33,2.64-1.96,3.94-2.96Z"/><path class="cls-4" d="m73.96,95.27v-2.96c1.3.01.9,1.73,1.97,1.97-.04-1.69.77-2.51,1.98-2.95,4.47,1.37,3.58,1.65,7.89,2.95.55-1.75.51-4.09,1.97-4.93,1.01,1.3.97,3.64,1.98,4.93-3.11-.48-.74,4.52-2.96,4.94-2.89-2.83-8.03-1.45-11.83-2.96-.06-.61-.14-1.17-.98-.98Z"/></g></g></svg>