<?xml version="1.0" encoding="UTF-8"?><svg id="Layer_2" xmlns="http://www.w3.org/2000/svg" viewBox="0 0 170.89 197.71"><defs><style>.cls-1{fill:#578438;}.cls-1,.cls-2,.cls-3,.cls-4,.cls-5,.cls-6{fill-rule:evenodd;}.cls-2{fill:#496f2f;}.cls-3{fill:#436427;}.cls-4{fill:#132a06;}.cls-5{fill:#d2d2d2;}.cls-6{fill:#2f501a;}</style></defs><g id="Layer_3"><g><path class="cls-6" d="m116.59,9.41c.05,1.34.56,2.21,1.11,3.04.03-1.28-.39-2.27-1.11-3.04Z"/><path class="cls-6" d="m170.89,88.27c-.22-.92-1.14-1.13-1.13-2.26h-2.26c-1.31-.18-2.01.25-2.26,1.13-1.92-.74-.71-2.6,1.13-2.26h2.26c.98-4.38-2.76-4.03-3.39-6.79,3.44-1.13,1.44-1.87,0-3.4h-3.4v-3.4c-.03-1.1-1.39-.88-2.26-1.13.18-1.33,2.06-.95,3.39-1.13,1.79-.09,4.32.54,4.53-1.13-.32-1.83,1.07-1.95,1.13-3.4-1.21-1.06-.35-4.18-3.39-3.39.62-1.64-1.32-5.85,1.13-5.66-.74-1.15-2.6-1.17-2.26-3.39-.28-1.23-2.25-.77-2.26-2.26-1.97-.32-6.07,3.61-5.66-1.13.36-4.3-2.71-5.79-4.53-7.92,5-.37-4.48-3.08-5.66-4.53-.25-.88-.03-2.23-1.13-2.26-.01,2.66-3.09-.41-2.26-2.26.45-2.71-5.15.63-3.39-3.4,1.31.95,3.03,1.49,5.66,1.13,2.42-3.25-1.24-7.98-3.4-10.19-2.25.01-1.44,3.09-4.53,2.26.59-1.67,1.67-2.85,2.26-4.53-5.54.29-4.73,5.1-2.26,7.92-4.65,3.1-6.97,6.1,0,2.26.44,1.62,1.36,1.91,0,3.4-2.25.01-1.44,3.09-4.53,2.26-2.73.46-2.46-2.07-5.66-1.13-.16-1.34-2.01-2.57,0-3.4,1.38-.13,2.68-.34,2.26-2.26.25-.88.95-1.32,2.26-1.13.25.88.03,2.23,1.13,2.26.54-3.56-1.61-4.42-2.26-6.79,1.7-1.7,4.77-2.02,5.66-4.53-2.22.34-2.24-1.53-3.4-2.26-.59,1.67-1.67,2.85-2.26,4.53-2.96,1.32-4.87-3.49-4.53,1.13-1.63-.26-.39-3.38-2.26-3.4v-3.39c-1.39.49-2.32,1.45-2.26,3.39-1.63-.63-2.76-1.76-3.4-3.39-.55-.84-1.06-1.71-1.11-3.04,0-.12-.03-.22-.02-.35l-.13.18h0c-.84,1.29-2.4,1.87-3.48,2.93,1.07-1.06,2.64-1.63,3.48-2.93-2.68-2.64-9.06-2.58-13.45-2.45.21.96-.44,1.07-1.13,1.13-2.67,1.66-2.11,2.39-5.66,1.13v-2.26c3.39-3.1-1.94-7.05-6.79-5.66h-2.26c-2.31,2.27-2.22-.5-4.53-1.13h-1.13c-.88,1.01-1.22,2.56-1.13,4.53-1.51-1.47-3.41-.7-4.53,1.13.99,3.63-2.94,2.35-3.39,4.53-.85,3.49,3.9,1.38,2.26,5.66-2.66-2.76-2.53,1.26-4.53,2.26-.92.21-1.13,1.14-2.26,1.13v-3.4c.97-3.61-1.78-3.5-2.26-5.66-2.44-1.98-5.57,1.5-7.92,1.13.5,1.01.99,2.02,2.26,2.26,1.1-.03.88-1.39,1.13-2.26,1.33.18.95,2.06,1.13,3.4,1.1-.03.88-1.39,1.13-2.26,1.33.18.95,2.06,1.13,3.39-5.55.87-4.31,2.64-9.05,0,1.47-1.51.7-3.41-1.13-4.53v-2.26c-1.63,1.38-1.72,4.32-3.4,5.66.06.69.17,1.34,1.13,1.13v2.26h-1.13v-2.26c-2.14.25-2.5-1.28-4.53-1.13.34,2.22-1.53,2.24-2.26,3.39-3.16,1.46,3.57,2.34,2.26,5.66-2.47-.21-3.6.93-3.39,3.39-1.52,3.19,6,2.84,2.26,4.53-2.98,2.94-.89-1.83-4.53-1.13.5,1.01.99,2.02,2.26,2.26-.03,1.1-1.39.88-2.26,1.13-1.94-.08-6.17-3.46-3.39-4.53v-1.13c-3.46-.82-4.12,1.16-6.79,1.13-.44-1.62-1.36-1.91,0-3.39-2.34-3.55.78-1.48,3.4-1.13,1.62-.27,1.91-1.86,3.39-2.26-.32,2.58.27,4.25,2.26,4.53v-3.39c7.69-.32-1.74-1.36,0-5.66-2.72-3.74-6.01,1.44-7.92,2.26-.11-2.15-4.42.7-4.53,2.26-.92,3.91,2.11,4.78,0,6.79,1.27.24,1.76,1.26,2.26,2.26-1.99.27-2.58,1.95-2.26,4.53-1.83.32-1.95-1.07-3.39-1.13-2.37-.48-3,.78-4.53,1.13-.14,2.03,1.39,2.39,1.13,4.53-.37,2.65-1.36,4.67-2.26,6.79-1.15-.74-1.17-2.6-3.39-2.26-1.1.03-.88,1.39-1.13,2.26.03,1.1,1.39.88,2.26,1.13-3.5,1.58-1.41,4.19,0,6.79h-1.13c-.49-1.39-1.45-2.32-3.4-2.26.21-.96-.44-1.07-1.13-1.13-3.25,4.25-2.95,7.61-4.53,10.19h-3.4c2.18,4.2,0,8.41-2.26,11.32.11,2.91,4.42,1.62,4.53,4.53h2.26c1,4-2.91,5.83,1.13,6.79.68,4.08-3.45,3.34-3.4,6.79-4.08,5.97,3.49,4.01,4.53,7.92v1.13c-.92-.22-1.13-1.14-2.26-1.13-.21,2.47.93,3.6,3.39,3.4-2.12,2.15-.12,2.84,0,5.66h-2.26c-1.49.4-1.78,1.99-3.4,2.26-.92-.22-1.13-1.13-2.26-1.13h-1.13v1.13c4.16,4.14,4.57,10,9.05,15.84,3.56-.07,6.95-2.94,7.92,1.13,1.53,1.11,1.47,3.82,3.4,4.53,3.09.82,2.28-2.25,4.53-2.26v2.26c-1.14.01-1.42,1.98,0,2.26v1.13c1.99.27,2.58,1.95,2.26,4.53-1.49-1.36-1.78-.44-3.4,0,.13,6.64,6.88,9.33,10.19,6.79,1.43,1.32.92,2.96-1.13,4.53.83,1.06,2.06,1.71,3.39,2.26,1.63-.63,2.76-1.77,3.39-3.4,1.31-3.23,1.31,1.83,0,2.26,2.11-1.08,3.78,3.39,4.53,0,1.01.5,2.02.99,2.26,2.26,1.75,1.65,1,5.79,1.13,9.05h2.26v-1.13c1.57,1.11,4.8-.75,6.82-1.13h1.1c4.16.75,7.76,2.08,10.19-1.13v1.13c2.25,2.61-.28,1.26-1.13,3.4-.53,3.55,3.05,2.99,3.39,5.66,4.35,3.48,1.51-3.94,6.79,0v-4.53c2.61-2.25,1.26.28,3.4,1.13,1.4,3.66-3.66.87-2.26,4.53,1.14,0,1.35.92,2.26,1.13-.14-2.8,1.39-1.92,1.13,0,2.81-1.91.86-7.94,7.92-7.92,1.39-1.26,2.32-.99,2.26,1.13-.35,2.61,3.27,1.26,3.39,3.39,1.01-.5,2.02-.99,2.26-2.26h4.53v-2.26c-.67-4.06,6.76-.03,5.66-4.53h1.13c3.45-.06,5.76,1.03,6.79,3.39h1.13c.22-.92,1.13-1.13,1.13-2.26.21-3.68,1.97-.82,5.66-2.26,2.01-.26,5.67,1.14,4.53-2.26-.25-2.14,1.28-2.5,1.13-4.53h-2.26v-1.13c1.74-.27.17-1.86-1.13-2.26,1.86-1.45,6.14-2.93,7.92-1.13,1.27-.12,1.76,1.64,2.26,0-.69-.06-1.34-.17-1.13-1.13.88-.25,2.23-.03,2.26-1.13.77-4.92-2.04-6.26-4.53-7.92.25-.88.03-2.23,1.13-2.26-.35,1.37,3.27,3.9,3.39,1.13-.13-2.14-3.74-.79-3.39-3.39.88-.25,1.31-.95,1.13-2.26,1.02-4.41,4.17,3.75,4.53,0-1.74-.27-.17-1.86,1.13-2.26.25.88.03,2.23,1.13,2.26v3.39c4.02,1.76.68-3.84,3.39-3.39,0,.63.92,1.28,1.13,0,.06-.69.17-1.34,1.13-1.13,3.86-.67,5.95-3.11,10.19-3.4h1.13c-.22-.92-1.14-1.13-1.13-2.26.18-3.58.04-6.83-2.26-7.92-.03-1.1-1.39-.88-2.26-1.13,1.83-1.57,3.58-3.21,5.66-4.53,1.31.18,2.01-.25,2.26-1.13,1.01-.7,2.02-1.37,2.26,0h1.13c3.37-1.61,0-3.49,3.39-5.66-.18-1.33-2.06-.95-3.39-1.13-.35-2.61,3.27-1.26,3.39-3.4.08-1.97-.25-3.52-1.13-4.53-.06-.69-.17-1.34-1.13-1.13-1.62-1.66-.87-3.59,2.26-3.4-1.63-1.99-1.04-2.58,2.26-2.26Zm-27.22,17.53v-.12s0,.12,0,.12ZM21.57,69.85c-1.75,4.33.02,8.94-3.41,12.7,3.42-3.76,1.66-8.37,3.41-12.7Zm124.43,29.13v-.08s0,.08,0,.08Zm-80.98,29.44l.13-.1-.13.1Zm44.82-7.46c-.12-.08-.25-.19-.37-.29.13.1.26.2.37.29Zm-.57-.44c-.2-.17-.41-.35-.63-.56.22.21.43.39.63.56Zm1.55.99l-.26-.12.26.12Zm-.46-.22c-.1-.05-.2-.12-.3-.19.1.07.21.13.3.19Zm3.57-1.37h-.04s.04,0,.04,0Zm-1.03.66l-.04.12.04-.12Zm-.12.28l-.07.14.07-.14Zm-.16.27l-.09.13.09-.13Zm-.19.23l-.12.1.12-.1Zm-.23.17l-.14.07.14-.07Zm-.27.11l-.17.03.17-.03Zm-.32.04h-.2s.2,0,.2,0Zm-.36-.04l-.23-.06.23.06Zm-45.71,6.4l.14-.06-.14.06Zm.61-.2h-.13s.13,0,.13,0Zm.46,0l-.11-.03.11.03Zm.85.37l-.04-.03.04.03Zm-.41-.23l-.08-.04.08.04Zm.43,9.6c-.22.09-.47.18-.74.26.27-.08.52-.17.74-.26Zm-.85.29c-.3.08-.62.15-.98.21.36-.06.68-.13.98-.21Zm2.05-1.04c-.13.12-.27.24-.44.35.16-.11.31-.23.44-.35Zm-.52.41c-.17.11-.36.21-.57.3.21-.09.4-.2.57-.3Zm1.77-3.96v-.04s0,.04,0,.04Zm-1.19,3.5c.13-.13.24-.26.33-.39-.09.13-.21.27-.33.39Zm.35-.42c.09-.13.17-.27.23-.41-.06.14-.14.28-.23.41Zm.25-.46c.06-.14.11-.28.15-.42-.04.14-.09.28-.15.42Zm.18-.49c.04-.13.07-.27.09-.4-.02.13-.06.27-.09.4Zm.11-.5c.02-.13.04-.25.06-.38-.02.12-.04.25-.06.38Zm.5-2l-.03.04.03-.04Zm.27-.26l-.04.03.04-.03Zm.84-.28h0s0,0,0,0Zm-.47.1h-.04s.04,0,.04,0Zm68.86-34.79l-.07-.06.07.06Zm.41.4l-.04-.05.04.05Zm.88,1.02l-.03-.04.03.04Zm-.46-.56l-.04-.04.04.04Zm1.35,1.83v-.02s0,.02,0,.02Zm4.16-1.08l-.03.06.03-.06Zm-.13.29l-.02.03.02-.03Zm-123.14-18.97l.12.06-.12-.06Zm.46.32l.11.08-.11-.08Zm-.82-.48l.08.02-.08-.02Zm-4.04,3.22v-.04s0,.04,0,.04Zm-.04.5v.09s0-.09,0-.09Zm.02-1.05h0s0,0,0,0Zm-.08-.49h0,0Zm3.87-13.79c.17-.31.36-.62.58-.92-.22.3-.41.61-.58.92Zm0,11.55h-.05s.05,0,.05,0Zm-.46-10.62c.1-.25.23-.5.36-.75-.13.25-.26.5-.36.75Zm.16,10.65h0s0,0,0,0Zm120.94,27.39l-.12.09.12-.09Zm-.4.28l-.17.09.17-.09Zm-.49.23l-.2.08.2-.08Zm-.6.19l-.2.05.2-.05Zm2.42-2.35l-.03.15.03-.15Zm-.11.44l-.05.14.05-.14Zm-.18.43l-.06.11.06-.11Zm-.31.48h0s0,0,0,0Zm.11-4.51l.02.05-.02-.05Zm.19.53l.04.11-.04-.11Zm.15.54l.03.13-.03-.13Zm.12.56l.02.09-.02-.09Zm1.68-3.33c.6-.04,1.08.16,2.98.59-1.9-.43-2.37-.63-2.98-.59Zm-.32.04h.04s-.04,0-.04,0Zm.16-.02h.1s-.1,0-.1,0ZM14.36,79.88h0s0,0,0,0Zm96.36,75.13c0,.17,0,.34.03.52-.02-.17-.03-.34-.03-.52Zm.03.58c.02.15.07.31.13.46-.05-.15-.1-.3-.13-.46Zm2.13-4.62c-.23.26-2.06,2.13-2.16,4.03.1-1.89,1.92-3.77,2.16-4.03Zm.02-.02h0s0,0,0,0Zm-.86.7c.54-.44.79-.66.85-.71-.06.05-.32.27-.85.71Zm3.3,1.32c-.19.05-.39.11-.57.18.18-.07.38-.12.57-.18Zm1.23-.19c-.33,0-.64.05-.94.11.3-.06.61-.1.94-.11ZM12.28,80h-.06s.06,0,.06,0Zm-.62.16l-.07.02.07-.02Zm-.56.21h-.02s.02,0,.02,0Zm-.41.22l-.04.03.04-.03Zm-.32.27l-.04.05.04-.05Zm-.2.34v-.04s0,.04,0,.04Zm61.11,78.37c1.99-1.78,1.48-6.06,3.4-7.92,3.22,2.68.2,13-3.4,9.05v-1.13Zm33.83.17h-.1s.1,0,.1,0Zm.92-.04l-.13.02.13-.02Zm1.59-.58l-.08.05.08-.05Zm-.76.36l-.12.04.12-.04Zm4.02-3.31l-.06.06.06-.06Zm.01-.01h0s.02-.02.02-.02l-.02.02Zm.66-.69c-.16.16-.32.33-.48.5.16-.17.32-.33.48-.5Zm1.35-1.23c-.14.11-.28.23-.42.35.14-.12.28-.24.42-.35Zm-.69.59c-.14.13-.28.27-.42.41.14-.14.28-.27.42-.41Zm2.22-1.54c-.16.07-.33.15-.48.24.16-.09.32-.17.48-.24Zm-.8.43c-.15.09-.29.19-.44.3.14-.11.29-.2.44-.3Zm47.05-49.61c-1.63-2.5-2.76,1.42-3.39-1.13,1.19-.06.89-1.45-1.13-1.13-2.38.32,1.64,3.02-1.13,4.53-1.68-1.34-5.06-.98-4.53-4.53,1.8-.84-.26-5.54,3.39-4.53,1.56.05,2.48-.53,3.39-1.13-1.64,5.52.19,2.09,2.26,0-.46,2.73,2.07,2.46,1.13,5.66-1.37.24-.7,1.26,0,2.26ZM112.92,12.2c-.15.15-.28.32-.41.5.13-.18.26-.35.41-.5Zm-.51.63c-.15.23-.27.47-.37.75.1-.28.22-.52.37-.75Zm-25.26-6.04v1.13c-.96-.21-1.07.44-1.13,1.13,1.23.28.77,2.25,2.26,2.26-.21-.96.44-1.07,1.13-1.13v2.26c.46,2.73-2.07,2.46-1.13,5.66h-1.13v-5.66c-1.1.03-.88,1.39-1.13,2.26-.92-.21-1.13-1.13-2.26-1.13-.6-.91-1.18-1.84-1.13-3.4,2.98.34.89-4.39,4.53-3.4ZM4.53,70.17h2.26c2.14.25,2.5-1.28,4.53-1.13-.05,1.56.53,2.48,1.13,3.4-2.6-2.62-5.21.54-6.79,2.26.17-1.51-4.6-3.41-1.13-4.53Zm2.26,26.03c-.12-1.27,1.64-1.76,0-2.26-.72-3.81,4.31-7.66,6.79-4.53-3.04-.78-2.19,2.34-3.4,3.4-.63,1.63-1.77,2.76-3.39,3.39Zm3.39,20.37c2.35-2.18,1.87-7.18,6.79-6.79.69.06,1.34.17,1.13,1.13v2.26h-4.53c.49,1.78,3.56.97,2.26,4.53-2.67,2.77-2.11-1.69-5.66-1.13Zm67.9,45.27c1.48.02,1.44,3.14,0,3.4-1.34,1.3-4,1.28-6.79,1.13v-2.26c1.53-.36,2.16-1.61,4.53-1.13-1.3-3.56,1.78-2.75,2.26-4.53-2.53-.49-.46-5.58-1.13-7.92.69.06,1.34.17,1.13,1.13v1.13c1.34.55,2.57,1.21,3.4,2.26-.01,1.5-1.98,1.03-2.26,2.26.88.25,1.32.95,1.13,2.26v1.13c-1.31-.18-2.01.25-2.26,1.13Zm30.21-3.15h0s0,0,0,0Zm.65-.54l.06-.05-.06.05Zm.67-.63l.09-.09-.09.09Zm.8-.83l-.12.12.12-.12Zm38.97-29.93h-1.13c-.01,2.66-3.09-.41-2.26-2.26,1.67-.59,2.85-1.67,4.53-2.26h4.53v3.39c-1.64.62-5.85-1.32-5.66,1.13Z"/><path class="cls-5" d="m116.59,33.97c.05,1.34.56,2.21,1.11,3.04.03-1.28-.39-2.27-1.11-3.04Z"/><path class="cls-5" d="m170.89,112.83c-.22-.92-1.14-1.13-1.13-2.26h-2.26c-1.31-.18-2.01.25-2.26,1.13-1.92-.74-.71-2.6,1.13-2.26h2.26c.98-4.38-2.76-4.03-3.39-6.79,3.44-1.13,1.44-1.87,0-3.4h-3.4v-3.4c-.03-1.1-1.39-.88-2.26-1.13.18-1.33,2.06-.95,3.39-1.13,1.79-.09,4.32.54,4.53-1.13-.32-1.83,1.07-1.95,1.13-3.4-1.21-1.06-.35-4.18-3.39-3.39.62-1.64-1.32-5.85,1.13-5.66-.74-1.15-2.6-1.17-2.26-3.4-.28-1.23-2.25-.77-2.26-2.26-1.97-.32-6.07,3.61-5.66-1.13.36-4.3-2.71-5.79-4.53-7.92,5-.37-4.48-3.08-5.66-4.53-.25-.88-.03-2.23-1.13-2.26-.01,2.66-3.09-.41-2.26-2.26.45-2.71-5.15.63-3.39-3.39,1.31.95,3.03,1.49,5.66,1.13,2.42-3.25-1.24-7.98-3.4-10.19-2.25.01-1.44,3.09-4.53,2.26.59-1.67,1.67-2.85,2.26-4.53-5.54.29-4.73,5.1-2.26,7.92-4.65,3.1-6.97,6.1,0,2.26.44,1.62,1.36,1.91,0,3.4-2.25.01-1.44,3.09-4.53,2.26-2.73.46-2.46-2.07-5.66-1.13-.16-1.34-2.01-2.57,0-3.39,1.38-.13,2.68-.34,2.26-2.26.25-.88.95-1.32,2.26-1.13.25.88.03,2.23,1.13,2.26.54-3.56-1.61-4.42-2.26-6.79,1.7-1.69,4.77-2.02,5.66-4.53-2.22.34-2.24-1.53-3.4-2.26-.59,1.67-1.67,2.85-2.26,4.53-2.96,1.32-4.87-3.49-4.53,1.13-1.63-.26-.39-3.38-2.26-3.4v-3.4c-1.39.49-2.32,1.45-2.26,3.4-1.63-.63-2.76-1.77-3.4-3.4-.55-.83-1.06-1.71-1.11-3.04,0-.12-.03-.22-.02-.35l-.13.18h0c-.84,1.29-2.4,1.87-3.48,2.93,1.07-1.06,2.64-1.63,3.48-2.93-2.68-2.64-9.06-2.58-13.45-2.45.21.96-.44,1.07-1.13,1.13-2.67,1.66-2.11,2.39-5.66,1.13v-2.26c3.39-3.1-1.94-7.05-6.79-5.66h-2.26c-2.31,2.27-2.22-.5-4.53-1.13h-1.13c-.88,1.01-1.22,2.56-1.13,4.53-1.51-1.47-3.41-.7-4.53,1.13.99,3.63-2.94,2.35-3.39,4.53-.85,3.49,3.9,1.38,2.26,5.66-2.66-2.76-2.53,1.26-4.53,2.26-.92.21-1.13,1.14-2.26,1.13v-3.4c.97-3.61-1.78-3.5-2.26-5.66-2.44-1.98-5.57,1.5-7.92,1.13.5,1.01.99,2.02,2.26,2.26,1.1-.03.88-1.39,1.13-2.26,1.33.18.95,2.06,1.13,3.4,1.1-.03.88-1.39,1.13-2.26,1.33.18.95,2.06,1.13,3.4-5.55.87-4.31,2.64-9.05,0,1.47-1.51.7-3.42-1.13-4.53v-2.26c-1.63,1.38-1.72,4.32-3.4,5.66.06.69.17,1.34,1.13,1.13v2.26h-1.13v-2.26c-2.14.25-2.5-1.28-4.53-1.13.34,2.22-1.53,2.24-2.26,3.39-3.16,1.46,3.57,2.34,2.26,5.66-2.47-.21-3.6.93-3.39,3.39-1.52,3.19,6,2.84,2.26,4.53-2.98,2.94-.89-1.83-4.53-1.13.5,1.01.99,2.02,2.26,2.26-.03,1.1-1.39.88-2.26,1.13-1.94-.08-6.17-3.46-3.39-4.53v-1.13c-3.46-.82-4.12,1.16-6.79,1.13-.44-1.62-1.36-1.91,0-3.4-2.34-3.55.78-1.48,3.4-1.13,1.62-.27,1.91-1.86,3.39-2.26-.32,2.58.27,4.25,2.26,4.53v-3.39c7.69-.32-1.74-1.36,0-5.66-2.72-3.74-6.01,1.44-7.92,2.26-.11-2.15-4.42.7-4.53,2.26-.92,3.91,2.11,4.78,0,6.79,1.27.24,1.76,1.26,2.26,2.26-1.99.27-2.58,1.95-2.26,4.53-1.83.32-1.95-1.07-3.39-1.13-2.37-.48-3,.78-4.53,1.13-.14,2.03,1.39,2.39,1.13,4.53-.37,2.65-1.36,4.67-2.26,6.79-1.15-.74-1.17-2.6-3.39-2.26-1.1.03-.88,1.39-1.13,2.26.03,1.1,1.39.88,2.26,1.13-3.5,1.58-1.41,4.19,0,6.79h-1.13c-.49-1.39-1.45-2.32-3.4-2.26.21-.96-.44-1.07-1.13-1.13-3.25,4.25-2.95,7.61-4.53,10.19h-3.4c2.18,4.2,0,8.41-2.26,11.32.11,2.91,4.42,1.62,4.53,4.53h2.26c1,4-2.91,5.83,1.13,6.79.68,4.08-3.45,3.34-3.4,6.79-4.08,5.97,3.49,4.01,4.53,7.92v1.13c-.92-.22-1.13-1.14-2.26-1.13-.21,2.47.93,3.6,3.39,3.4-2.12,2.15-.12,2.84,0,5.66h-2.26c-1.49.4-1.78,1.99-3.4,2.26-.92-.22-1.13-1.13-2.26-1.13h-1.13v1.13c4.16,4.14,4.57,10,9.05,15.84,3.56-.07,6.95-2.94,7.92,1.13,1.53,1.11,1.47,3.82,3.4,4.53,3.09.82,2.28-2.25,4.53-2.26v2.26c-1.14.01-1.42,1.98,0,2.26v1.13c1.99.27,2.58,1.95,2.26,4.53-1.49-1.36-1.78-.44-3.4,0,.13,6.64,6.88,9.33,10.19,6.79,1.43,1.32.92,2.96-1.13,4.53.83,1.06,2.06,1.71,3.39,2.26,1.63-.63,2.76-1.77,3.39-3.39,1.31-3.23,1.31,1.83,0,2.26,2.11-1.08,3.78,3.39,4.53,0,1.01.5,2.02.99,2.26,2.26,1.75,1.65,1,5.79,1.13,9.05h2.26v-1.13c1.57,1.11,4.8-.75,6.82-1.13h1.1c4.16.75,7.76,2.08,10.19-1.13v1.13c2.25,2.61-.28,1.26-1.13,3.39-.53,3.55,3.05,2.99,3.39,5.66,4.35,3.48,1.51-3.94,6.79,0v-4.53c2.61-2.25,1.26.28,3.4,1.13,1.4,3.66-3.66.87-2.26,4.53,1.14,0,1.35.92,2.26,1.13-.14-2.8,1.39-1.92,1.13,0,2.81-1.91.86-7.94,7.92-7.92,1.39-1.26,2.32-.99,2.26,1.13-.35,2.61,3.27,1.26,3.39,3.4,1.01-.5,2.02-.99,2.26-2.26h4.53v-2.26c-.67-4.06,6.76-.03,5.66-4.53h1.13c3.45-.06,5.76,1.03,6.79,3.4h1.13c.22-.92,1.13-1.13,1.13-2.26.21-3.68,1.97-.82,5.66-2.26,2.01-.26,5.67,1.14,4.53-2.26-.25-2.14,1.28-2.5,1.13-4.53h-2.26v-1.13c1.74-.27.17-1.86-1.13-2.26,1.86-1.45,6.14-2.93,7.92-1.13,1.27-.12,1.76,1.64,2.26,0-.69-.06-1.34-.17-1.13-1.13.88-.25,2.23-.03,2.26-1.13.77-4.92-2.04-6.26-4.53-7.92.25-.88.03-2.23,1.13-2.26-.35,1.37,3.27,3.9,3.39,1.13-.13-2.14-3.74-.79-3.39-3.39.88-.25,1.31-.95,1.13-2.26,1.02-4.41,4.17,3.75,4.53,0-1.74-.27-.17-1.86,1.13-2.26.25.88.03,2.23,1.13,2.26v3.4c4.02,1.76.68-3.84,3.39-3.4,0,.63.92,1.28,1.13,0,.06-.69.17-1.34,1.13-1.13,3.86-.67,5.95-3.11,10.19-3.39h1.13c-.22-.92-1.14-1.13-1.13-2.26.18-3.58.04-6.83-2.26-7.92-.03-1.1-1.39-.88-2.26-1.13,1.83-1.57,3.58-3.21,5.66-4.53,1.31.18,2.01-.25,2.26-1.13,1.01-.7,2.02-1.37,2.26,0h1.13c3.37-1.61,0-3.49,3.39-5.66-.18-1.33-2.06-.95-3.39-1.13-.35-2.61,3.27-1.26,3.39-3.4.08-1.97-.25-3.52-1.13-4.53-.06-.69-.17-1.34-1.13-1.13-1.62-1.66-.87-3.59,2.26-3.39-1.63-1.99-1.04-2.58,2.26-2.26Zm-27.22,17.53v-.12s0,.12,0,.12ZM21.57,94.41c-1.75,4.33.02,8.94-3.41,12.7,3.42-3.76,1.66-8.37,3.41-12.7Zm124.43,29.13v-.08s0,.08,0,.08Zm-80.98,29.44l.13-.1-.13.1Zm44.82-7.46c-.12-.08-.25-.19-.37-.29.13.1.26.2.37.29Zm-.57-.44c-.2-.17-.41-.35-.63-.56.22.21.43.39.63.56Zm1.55.99l-.26-.12.26.12Zm-.46-.22c-.1-.05-.2-.12-.3-.19.1.07.21.13.3.19Zm3.57-1.37h-.04s.04,0,.04,0Zm-1.03.66l-.04.12.04-.12Zm-.12.28l-.07.14.07-.14Zm-.16.27l-.09.13.09-.13Zm-.19.23l-.12.1.12-.1Zm-.23.17l-.14.07.14-.07Zm-.27.11l-.17.03.17-.03Zm-.32.04h-.2s.2,0,.2,0Zm-.36-.04l-.23-.06.23.06Zm-45.71,6.4l.14-.06-.14.06Zm.61-.2h-.13s.13,0,.13,0Zm.46,0l-.11-.03.11.03Zm.85.37l-.04-.03.04.03Zm-.41-.23l-.08-.04.08.04Zm.43,9.6c-.22.09-.47.18-.74.26.27-.08.52-.17.74-.26Zm-.85.29c-.3.08-.62.15-.98.21.36-.06.68-.13.98-.21Zm2.05-1.04c-.13.12-.27.24-.44.35.16-.11.31-.23.44-.35Zm-.52.41c-.17.11-.36.21-.57.3.21-.09.4-.2.57-.3Zm1.77-3.96v-.04s0,.04,0,.04Zm-1.19,3.5c.13-.13.24-.26.33-.39-.09.13-.21.27-.33.39Zm.35-.42c.09-.14.17-.27.23-.41-.06.14-.14.28-.23.41Zm.25-.46c.06-.14.11-.28.15-.42-.04.14-.09.28-.15.42Zm.18-.49c.04-.13.07-.27.09-.4-.02.13-.06.27-.09.4Zm.11-.5c.02-.13.04-.25.06-.38-.02.12-.04.25-.06.38Zm.5-2l-.03.04.03-.04Zm.27-.26l-.04.03.04-.03Zm.84-.28h0s0,0,0,0Zm-.47.1h-.04s.04,0,.04,0Zm68.86-34.79l-.07-.06.07.06Zm.41.4l-.04-.05.04.05Zm.88,1.02l-.03-.04.03.04Zm-.46-.56l-.04-.04.04.04Zm1.35,1.83v-.02s0,.02,0,.02Zm4.16-1.08l-.03.06.03-.06Zm-.13.29l-.02.03.02-.03Zm-123.14-18.97l.12.06-.12-.06Zm.46.32l.11.08-.11-.08Zm-.82-.48l.08.02-.08-.02Zm-4.04,3.22v-.04s0,.04,0,.04Zm-.04.5v.09s0-.09,0-.09Zm.02-1.05h0s0,0,0,0Zm-.08-.49h0,0Zm3.87-13.79c.17-.31.36-.62.58-.92-.22.3-.41.61-.58.92Zm0,11.55h-.05s.05,0,.05,0Zm-.46-10.62c.1-.25.23-.5.36-.75-.13.25-.26.5-.36.75Zm.16,10.65h0s0,0,0,0Zm120.94,27.39l-.12.09.12-.09Zm-.4.28l-.17.09.17-.09Zm-.49.23l-.2.08.2-.08Zm-.6.19l-.2.05.2-.05Zm2.42-2.35l-.03.15.03-.15Zm-.11.44l-.05.14.05-.14Zm-.18.43l-.06.11.06-.11Zm-.31.47h0s0,0,0,0Zm.11-4.51l.02.05-.02-.05Zm.19.53l.04.11-.04-.11Zm.15.54l.03.12-.03-.12Zm.12.56l.02.09-.02-.09Zm1.68-3.33c.6-.04,1.08.16,2.98.59-1.9-.43-2.37-.63-2.98-.59Zm-.32.04h.04s-.04,0-.04,0Zm.16-.02h.1s-.1,0-.1,0ZM14.36,104.44h0s0,0,0,0Zm96.36,75.13c0,.17,0,.34.03.52-.02-.17-.03-.34-.03-.52Zm.03.58c.02.15.07.31.13.46-.05-.15-.1-.3-.13-.46Zm2.13-4.62c-.23.26-2.06,2.13-2.16,4.03.1-1.89,1.92-3.77,2.16-4.03Zm.02-.02h0s0,0,0,0Zm-.86.7c.54-.44.79-.66.85-.71-.06.05-.32.27-.85.71Zm3.3,1.32c-.19.05-.39.11-.57.18.18-.07.38-.12.57-.18Zm1.23-.19c-.33,0-.64.05-.94.11.3-.06.61-.1.94-.11ZM12.28,104.56h-.06s.06,0,.06,0Zm-.62.16l-.07.02.07-.02Zm-.56.21h-.02s.02,0,.02,0Zm-.41.22l-.04.03.04-.03Zm-.32.27l-.04.05.04-.05Zm-.2.34v-.04s0,.04,0,.04Zm61.11,78.37c1.99-1.78,1.48-6.06,3.4-7.92,3.22,2.68.2,13-3.4,9.05v-1.13Zm33.83.17h-.1s.1,0,.1,0Zm.92-.04l-.13.02.13-.02Zm1.59-.58l-.08.05.08-.05Zm-.76.36l-.12.04.12-.04Zm4.02-3.31l-.06.06.06-.06Zm.01-.01h0s.02-.02.02-.02l-.02.02Zm.66-.69c-.16.16-.32.33-.48.5.16-.17.32-.33.48-.5Zm1.35-1.23c-.14.11-.28.23-.42.35.14-.12.28-.24.42-.35Zm-.69.59c-.14.13-.28.27-.42.41.14-.14.28-.27.42-.41Zm2.22-1.54c-.16.07-.33.15-.48.24.16-.09.32-.16.48-.24Zm-.8.43c-.15.09-.29.19-.44.3.14-.11.29-.2.44-.3Zm47.05-49.61c-1.63-2.5-2.76,1.42-3.39-1.13,1.19-.06.89-1.45-1.13-1.13-2.38.32,1.64,3.02-1.13,4.53-1.68-1.34-5.06-.98-4.53-4.53,1.8-.84-.26-5.54,3.39-4.53,1.56.05,2.48-.53,3.39-1.13-1.64,5.52.19,2.09,2.26,0-.46,2.73,2.07,2.46,1.13,5.66-1.37.24-.7,1.26,0,2.26Zm-47.79-91.92c-.15.15-.28.32-.41.5.13-.18.26-.35.41-.5Zm-.51.63c-.15.23-.27.47-.37.75.1-.28.22-.52.37-.75Zm-25.26-6.04v1.13c-.96-.21-1.07.44-1.13,1.13,1.23.28.77,2.25,2.26,2.26-.21-.96.44-1.07,1.13-1.13v2.26c.46,2.73-2.07,2.46-1.13,5.66h-1.13v-5.66c-1.1.03-.88,1.39-1.13,2.26-.92-.21-1.13-1.14-2.26-1.13-.6-.91-1.18-1.84-1.13-3.39,2.98.34.89-4.39,4.53-3.4ZM4.53,94.73h2.26c2.14.25,2.5-1.28,4.53-1.13-.05,1.56.53,2.48,1.13,3.39-2.6-2.62-5.21.54-6.79,2.26.17-1.51-4.6-3.42-1.13-4.53Zm2.26,26.03c-.12-1.27,1.64-1.76,0-2.26-.72-3.81,4.31-7.66,6.79-4.53-3.04-.78-2.19,2.34-3.4,3.4-.63,1.63-1.77,2.76-3.39,3.4Zm3.39,20.37c2.35-2.18,1.87-7.18,6.79-6.79.69.06,1.34.17,1.13,1.13v2.26h-4.53c.49,1.78,3.56.97,2.26,4.53-2.67,2.77-2.11-1.69-5.66-1.13Zm67.9,45.27c1.48.02,1.44,3.14,0,3.39-1.34,1.3-4,1.28-6.79,1.13v-2.26c1.53-.36,2.16-1.61,4.53-1.13-1.3-3.56,1.78-2.75,2.26-4.53-2.53-.49-.46-5.58-1.13-7.92.69.06,1.34.17,1.13,1.13v1.13c1.34.55,2.57,1.21,3.4,2.26-.01,1.5-1.98,1.03-2.26,2.26.88.25,1.32.95,1.13,2.26v1.13c-1.31-.18-2.01.25-2.26,1.13Zm30.21-3.15h0s0,0,0,0Zm.65-.54l.06-.05-.06.05Zm.67-.63l.09-.09-.09.09Zm.8-.83l-.12.12.12-.12Zm38.97-29.93h-1.13c-.01,2.66-3.09-.41-2.26-2.26,1.67-.59,2.85-1.67,4.53-2.26h4.53v3.39c-1.64.62-5.85-1.32-5.66,1.13Z"/><path class="cls-3" d="m87.14,7.92c2.14-.25,2.5,1.28,4.53,1.13v2.26c-1.13,0-1.35.92-2.26,1.13v-2.26c-.69.06-1.34.17-1.13,1.13-1.49-.01-1.03-1.98-2.26-2.26.06-.69.17-1.34,1.13-1.13Z"/><path class="cls-3" d="m70.17,18.11v3.4c-2.14.25-2.5-1.28-4.53-1.13.36-1.53,1.61-2.16,1.13-4.53h1.13v3.4c1.14,0,1.35-.92,2.26-1.13Z"/><path class="cls-4" d="m102.99,36.21c-2.35,2.98-2.98,2.39-3.39,5.66-4.45-1.08-1.03-6.76,3.39-5.66Z"/><path class="cls-1" d="m31.69,37.35c3.68,2.75,3.25,4.46,7.92,4.53-1.41,4.77-5.78.05-7.92-1.13v-3.4Z"/><path class="cls-4" d="m62.24,44.14v-1.13h1.13c1.45.06,1.57,1.45,3.39,1.13v3.39c-1.52-.23-2.11-4.7-2.26,0-1.95,4.31.09-4.41-2.26-3.39Z"/><path class="cls-6" d="m126.75,65.64c1.33.18,3.21-.19,3.4,1.13-4.38-.99-1.85,4.94-6.79,3.39.33-2.31,3.06-2.22,3.39-4.53Z"/><path class="cls-4" d="m59.98,70.17c.06-.69.17-1.34,1.13-1.13.06.69.17,1.34,1.13,1.13,2.31.33,2.22,3.06,4.53,3.4-.31,1.03-4.22,3.8-4.53,1.13,1.4-3.66-3.66-.86-2.26-4.53Z"/><path class="cls-4" d="m92.8,73.56c-1.89,2.25.1,1.44,0,4.53h-3.39c-.32-2.96.41-4.87,3.39-4.53Z"/><path class="cls-4" d="m145.99,76.96c2.91-3.03,1.62,3.03,4.53,0v1.13c-.39,3.02-3.87,1.81-6.79,4.53,3.4,1.7,4.21.6,7.92,3.39-3.86.84-5.19,1.75-9.05,4.53-.71-1.93-3.42-1.86-4.53-3.39,3.15,1.81,3.13-4.89,1.13-4.53.25-.88.95-1.31,2.26-1.13,3.48.84,2.17-3.11,5.66-2.26,0-1.14-.92-1.35-1.13-2.26Z"/><path class="cls-4" d="m30.56,78.09h1.13c2.36,2.3-5.52,8.29-6.79,6.79v-2.26c1.7-1.69,1.72-5.07,5.66-4.53Z"/><path class="cls-6" d="m18.11,84.88c-3.38-.39-2.13-5.41-7.92-3.4-.53-1.94,9.51-3.43,7.92,3.4Z"/><path class="cls-6" d="m108.64,79.22c1.83-.32,1.95,1.07,3.39,1.13-.99,1.65-.9,4.38-4.53,3.39-.48-2.37.78-3,1.13-4.53Z"/><path class="cls-1" d="m29.42,88.27c.25-.88.03-2.23,1.13-2.26h1.13c1.13,2.4,5.01,5.04,2.26,7.92h-1.13v-4.53c-1.45.06-1.57,1.45-3.4,1.13v-2.26Z"/><path class="cls-4" d="m113.17,117.7c1.45-.06,1.57-1.45,3.4-1.13-.25,2.14,1.28,2.5,1.13,4.53-5.37,1.88-1.25-4.21-3.39-1.13-.69-.06-1.34-.17-1.13-1.13v-1.13Z"/><path class="cls-1" d="m43.01,117.7h1.13c1.56-.05,2.48.53,3.39,1.13-.27,1.99-1.95,2.58-4.53,2.26v-3.4Z"/><path class="cls-1" d="m83.75,126.75c1.63-.63,2.76-1.77,3.39-3.39,3.77,2.15-1.52,7.69-3.39,4.53v-1.13Z"/><path class="cls-4" d="m91.67,125.62h1.13c.02,1.87,3.14.63,3.39,2.26-.21,3.48-6.1,2.38-5.66-1.13.69-.06,1.34-.17,1.13-1.13Z"/><path class="cls-4" d="m101.85,132.41c-.47,3.86-6.21-1.71-5.66,1.13-2.83-3.02,1.2-3.32,4.53-2.26.06.69.17,1.34,1.13,1.13Z"/><path class="cls-4" d="m79.22,139.2c-1.02,1.99-4.17,1.87-4.53,4.53-3.6-2.21,3.15-7,4.53-4.53Z"/><path class="cls-4" d="m98.46,139.2v5.66c-1.34.55-2.57,1.21-3.4,2.26-2.86-2.14,1.04-3.97-1.13-6.79,3.56,1.3,2.75-1.78,4.53-2.26v1.13Z"/><path class="cls-3" d="m155.04,122.23c1.93.42,2.14-.88,2.26-2.26-.03-1.1-1.38-.88-2.26-1.13-1.92-.74-.71-2.6,1.13-2.26,2.3,1.09,2.44,4.35,2.26,7.92,0,1.13.92,1.35,1.13,2.26h-1.13c-.6-.91-1.18-1.84-1.13-3.39-1.23.28-.77,2.25-2.26,2.26v-3.39Z"/><path class="cls-3" d="m123.36,15.84c1.87.02.63,3.14,2.26,3.4-.34-4.62,1.57.19,4.53-1.13.59-1.67,1.67-2.85,2.26-4.53,1.15.74,1.17,2.6,3.4,2.26-.89,2.5-3.96,2.83-5.66,4.53.65,2.37,2.81,3.23,2.26,6.79-1.1-.03-.88-1.39-1.13-2.26-1.32-.18-2.01.25-2.26,1.13-3.03.34,3.01-4.39-2.26-3.4-1.1-.03-.88-1.39-1.13-2.26-.91.6-1.84,1.18-3.4,1.13,1.46-2.67-.15-2.11,1.13-5.66Z"/><path class="cls-3" d="m89.41,1.13c4.85-1.39,10.18,2.56,6.79,5.66v-1.13c-1.07-2.49-4.8-5.69-5.66,0-3.29-.98-1.27-1.69-1.13-4.53Z"/><path class="cls-3" d="m81.48,0h1.13c2.31.63,2.22,3.41,4.53,1.13-.4,1.3-1.99,2.87-2.26,1.13-1.54.35-.94,2.83-1.13,4.53.91-.78,3.1-1.76,3.39,0-3.64-1-1.55,3.73-4.53,3.4-2.98-.02-7.52.63-4.53-2.26-5.27-.4-3.11,5.31-1.13,6.79-.5,1.01-.99,2.02-2.26,2.26v-1.13c1.64-4.28-3.11-2.17-2.26-5.66.46-2.18,4.39-.89,3.39-4.53,1.11-1.83,3.02-2.6,4.53-1.13-.08-1.97.25-3.52,1.13-4.53Z"/><path class="cls-1" d="m89.41,1.13c-.14,2.83-2.16,3.54,1.13,4.53.85-5.69,4.59-2.49,5.66,0h-5.66c-.13,1.16,4.88,2.29,1.13,3.4-2.03.14-2.39-1.39-4.53-1.13v-1.13c-.29-1.76-2.48-.78-3.39,0,.19-1.69-.4-4.18,1.13-4.53.27,1.74,1.86.17,2.26-1.13h2.26Z"/><path class="cls-3" d="m102.99,6.79c5.72-.17,14.86-.24,14.71,5.66-.6-.91-1.18-1.84-1.13-3.4-1.08,1.94-3.76,2.28-4.53,4.53-2.52-2.01-3.83-5.22-7.92-5.66-1.62,1.34-2.14,6-2.26,0,.69-.06,1.34-.17,1.13-1.13Z"/><path class="cls-2" d="m91.67,9.05c3.75-1.11-1.26-2.24-1.13-3.4h5.66v1.13c-2.66.36-2.53,3.5-4.53,4.53v-2.26Z"/><path class="cls-1" d="m117.7,12.45c.63,1.63,1.77,2.76,3.4,3.39-.06-1.95.87-2.9,2.26-3.39v3.39c-1.28,3.55.32,2.99-1.13,5.66,1.56.05,2.48-.53,3.4-1.13.25.88.03,2.23,1.13,2.26-4.58,5.88-9.29-5.11-14.71-5.66.01,2.25,3.09,1.44,2.26,4.53-1.1.03-.88,1.39-1.13,2.26-1.94.24-2.93-1.93-3.4,0-1.25-2.14-2.82-3.97-3.4-6.79-1.39,1.26-2.32.99-2.26-1.13-1.93-.41-2.14.88-2.26,2.26-1.67-.59-2.85-1.67-4.53-2.26-.48-2.36.78-3,1.13-4.53-2.47-.72-3.6,3.21-3.4-1.13-3.89,3.34-1.59,5.9-6.79,7.92-.94-3.2,1.6-2.93,1.13-5.66.92-.21,1.13-1.14,2.26-1.13,1.99-1.02,1.87-4.17,4.53-4.53v2.26c3.55,1.26,2.99.53,5.66-1.13.12,6,.64,1.34,2.26,0,4.09.44,5.4,3.65,7.92,5.66.77-2.25,3.45-2.59,4.53-4.53-.05,1.56.53,2.48,1.13,3.4Z"/><path class="cls-2" d="m88.27,18.11c5.2-2.03,2.9-4.58,6.79-7.92-.21,4.34.93.41,3.4,1.13-.36,1.53-1.61,2.16-1.13,4.53,1.67.59,2.85,1.67,4.53,2.26.13-1.38.34-2.68,2.26-2.26-.06,2.12.87,2.4,2.26,1.13.57,2.82,2.14,4.65,3.4,6.79.46-1.93,1.46.24,3.4,0,.25-.88.03-2.23,1.13-2.26.82-3.09-2.25-2.28-2.26-4.53,5.42.55,10.13,11.54,14.71,5.66,5.27-1-.76,3.73,2.26,3.4.42,1.92-.88,2.13-2.26,2.26v-3.4c-2.33.32-2.26,3.02-3.39,4.53-1.49-1.36-1.78-.44-3.39,0h-3.39c-.52-3.54,2.42-3.62,5.66-3.39-.49-1.39-1.45-2.32-3.39-2.26-1.63,4.98-6.56,0-6.79,6.79-1.73-.01-3.72-3.09,0-2.26.14-2.03-1.39-2.39-1.13-4.53-4.82,1.17-9.25-3.02-11.32,4.53h-1.13c-2.17-1.46,2.67-2.34,0-5.66-3.57-.17-.48,6.31-5.66,4.53,5.65-2.8-4.66-5.63,1.13-9.05-3.35-3.28-6.11,3.64-6.79,6.79-4.2-1.2-3.65-8.89-9.05-5.66.32-1.33,4.99-4.7,0-4.53.74-1.15,2.6-1.17,2.26-3.4,4.17,2.25,1.6,5.35,2.26,6.79,1.1.03.88,1.39,1.13,2.26,2.51.62,1.61-2.16,3.39-2.26h1.13Z"/><path class="cls-1" d="m64.51,15.84c-.18-1.33.19-3.21-1.13-3.39-.25.88-.03,2.23-1.13,2.26-.18-1.33.19-3.21-1.13-3.4-.25.88-.03,2.23-1.13,2.26-1.27-.24-1.76-1.26-2.26-2.26,2.35.37,5.48-3.11,7.92-1.13.48,2.16,3.23,2.05,2.26,5.66h-1.13c.48,2.37-.78,3-1.13,4.53,2.03-.14,2.39,1.39,4.53,1.13v-3.4c1.99-1,1.87-5.02,4.53-2.26v1.13c1.96,1.81,4.12,3.43,3.4,7.92,1.15-.74,1.17-2.6,3.4-2.26v1.13c.42,9.16-9.93-1.98-15.84-1.13-2.27-.38-3.54.23-3.4,2.26-2.18-2.09-.89-2.07-4.53-1.13,1.02-2,2.73-3.3,3.4-5.66,2.03-.14,2.39,1.39,4.53,1.13.32-1.83-1.07-1.95-1.13-3.4Z"/><path class="cls-1" d="m76.96,14.71c-1.98-1.48-4.14-7.19,1.13-6.79-2.99,2.89,1.55,2.25,4.53,2.26-.05,1.56.53,2.48,1.13,3.4.88,1.01,1.22,2.56,1.13,4.53-1.01-.7-2.02-1.37-2.26,0-.66-1.44,1.91-4.54-2.26-6.79.34,2.22-1.53,2.24-2.26,3.4h-1.13Z"/><path class="cls-1" d="m50.93,14.71c1.68-1.34,1.76-4.27,3.4-5.66v2.26c-2.8,1.33,2.75,4.7-2.26,4.53-.96.21-1.07-.44-1.13-1.13Z"/><path class="cls-6" d="m78.09,14.71c4.99-.18.32,3.2,0,4.53,5.41-3.23,4.85,4.46,9.05,5.66.68-3.15,3.44-10.07,6.79-6.79-5.79,3.42,4.52,6.25-1.13,9.05,5.18,1.79,2.09-4.7,5.66-4.53,2.67,3.32-2.17,4.2,0,5.66-.28,1.23-2.25.77-2.26,2.26-1.1-.03-.88-1.39-1.13-2.26-1.79.09-4.32-.54-4.53,1.13-1.32-.33-3.27-6.42-3.39-1.13-2.56-.83-2.48-4.31-5.66-4.53v-1.13c-2.22-.34-2.24,1.53-3.4,2.26.72-4.5-1.44-6.11-3.4-7.92,1.27-.24,1.76-1.26,2.26-2.26h1.13Z"/><path class="cls-3" d="m82.62,18.11c.24-1.37,1.26-.7,2.26,0,.09-1.97-.25-3.52-1.13-4.53,1.13,0,1.35.92,2.26,1.13.25-.88.03-2.23,1.13-2.26v5.66c-1.78.1-.89,2.89-3.39,2.26-.25-.88-.03-2.23-1.13-2.26Z"/><path class="cls-3" d="m44.14,18.11c.74-1.15,2.6-1.17,2.26-3.39,2.03-.14,2.39,1.39,4.53,1.13v2.26c-.28,1.23-2.25.77-2.26,2.26-.03,1.1-1.39.88-2.26,1.13.39-2.27-.23-3.54-2.26-3.4Z"/><path class="cls-2" d="m81.48,23.77c3.18.21,3.1,3.69,5.66,4.53.96-.21,1.07.44,1.13,1.13,1.19,4.21-3.82,2.22-4.53,4.53-1.54-.35-.94-2.83-1.13-4.53-7.09-.17-9.08-.32-15.84,3.4-.05,1.94.84,2.93,2.26,3.39-1.63,3.31-8.04-5.23-7.92,2.26-4.21-4.16,2.33-8.42,0-11.32-.21-.96.44-1.07,1.13-1.13,2.57,5.52,5.12-1.03,10.19,3.39,1.38-3.59-3.38-3.85-6.79-5.66v-1.13c5.91-.85,16.26,10.29,15.84,1.13Z"/><path class="cls-1" d="m31.69,20.37c1.91-.82,5.2-6,7.92-2.26-1.74,4.3,7.69,5.34,0,5.66-1.93-.71-1.86-3.42-3.4-4.53-1.2.82-.13,3.4-2.26,5.66-2.62-.34-5.73-2.42-3.4,1.13-4.21,3.34-1.57-5.78,1.13-5.66Z"/><path class="cls-3" d="m27.16,22.63c.11-1.56,4.42-4.42,4.53-2.26-2.7-.12-5.35,9-1.13,5.66-1.36,1.49-.44,1.78,0,3.39-1.77.4.99,1.99-1.13,2.26-.5-1.01-.99-2.02-2.26-2.26,2.11-2.01-.92-2.88,0-6.79Z"/><path class="cls-2" d="m43.01,27.16c-.21-2.47.93-3.6,3.39-3.39,1.3-3.32-5.43-4.2-2.26-5.66,2.03-.15,2.65,1.12,2.26,3.4.88-.25,2.23-.03,2.26-1.13,2.26,1.97-1.26,7.73-5.66,6.79Z"/><path class="cls-2" d="m54.32,18.11c5.91-3.21.29,8.32,0,12.45-1.39.49-2.32,1.45-2.26,3.4-2.92-.1-1.19-4.85-5.66-3.4,3.24-5.84,7.68-9.06,7.92-12.45Z"/><path class="cls-3" d="m33.95,24.9c2.13-2.25,1.06-4.83,2.26-5.66,1.53,1.11,1.47,3.81,3.4,4.53v3.39c-1.99-.27-2.58-1.95-2.26-4.53-1.49.4-1.78,1.99-3.39,2.26Z"/><path class="cls-3" d="m139.2,16.98c-.59,1.67-1.67,2.85-2.26,4.53,3.09.82,2.28-2.25,4.53-2.26,2.16,2.21,5.81,6.94,3.4,10.19-2.62.36-4.34-.18-5.66-1.13-1.76,4.02,3.84.68,3.39,3.4-.82,1.85,2.25,4.92,2.26,2.26,1.1.03.88,1.39,1.13,2.26,1.11,3.37,3.22,3.99-1.13,2.26h-1.13c1.63-1.99,1.04-2.58-2.26-2.26v-4.53c-2.31.63-2.22,3.41-4.53,1.13v-2.26c1.36-1.49.44-1.78,0-3.4-6.97,3.84-4.65.84,0-2.26-2.47-2.82-3.28-7.63,2.26-7.92Zm-1.13,10.18c.96,1.07,2.79.75,6.79,1.13-.13-2.89-2.07-3.96-3.4-5.66.33,2.98-4.39.89-3.39,4.53Z"/><path class="cls-3" d="m54.32,30.56c.29-4.13,5.91-15.65,0-12.45-.5-1.64-.99.12-2.26,0v-2.26c5.01.18-.53-3.2,2.26-4.53,1.83,1.11,2.6,3.02,1.13,4.53,4.74,2.64,3.5.87,9.05,0,.06,1.45,1.45,1.57,1.13,3.4-2.14.25-2.5-1.28-4.53-1.13-.66,2.35-2.38,3.66-3.4,5.66,3.63-.94,2.35-.96,4.53,1.13v1.13c-.69.06-1.34.17-1.13,1.13-1.1-.03-.88-1.39-1.13-2.26-1.54.35-.94,2.83-1.13,4.53-1.32-.18-2.01.25-2.26,1.13h-2.26Z"/><path class="cls-6" d="m62.24,24.9c-.15-2.03,1.12-2.65,3.4-2.26v1.13c3.41,1.81,8.17,2.07,6.79,5.66-5.07-4.43-7.61,2.12-10.19-3.39v-1.13Z"/><path class="cls-6" d="m61.11,27.16c2.33,2.89-4.21,7.16,0,11.32-.12-7.49,6.29,1.05,7.92-2.26-1.42-.46-2.31-1.46-2.26-3.39,6.76-3.72,8.76-3.56,15.84-3.4.19,1.69-.4,4.18,1.13,4.53.71-2.31,5.72-.32,4.53-4.53,2.63,1.26,3.03-.24,5.66,2.26-.76,2.63-5.94.85-4.53,5.66-3.04.78-2.19-2.34-3.4-3.4-2.52.48-.89,6.01,0,6.79h-1.13c-1.64-.62-5.85,1.32-5.66-1.13v-4.53c-1.92-.42-2.14.88-2.26,2.26-2.33-.67-4.71-2.18-2.26-4.53-2.49.9-4.52,2.27-4.53,5.66h-3.39c-1.94-4-2.28,3.69-4.53,0-.14,2.03,1.39,2.39,1.13,4.53h-1.13c-2.66-1.11-1.88-5.67-5.66-5.66v-1.13c-.67-3.61,2.12-3.5,0-5.66.25-.88.95-1.32,2.26-1.13.19-1.69-.4-4.18,1.13-4.53.25.88.03,2.23,1.13,2.26Z"/><path class="cls-6" d="m119.96,40.74c-2.67-1.46-2.11.15-5.66-1.13-.67-3.61,2.12-3.5,0-5.66-3.23,3.09-3.68,8.39-3.39,10.19-.51,1.36-4.87-.29-5.66,3.39-1.02-2.38-3.14-3.65-4.53-5.66-2.09.17-.69,3.83-2.26,4.53-4.87-2.73-.1-7.11-6.79-3.4-1.44-2.83.58-3.54-1.13-4.53,1.52-1.87,2.89-3.9,5.66-4.53v4.53c1.95-2.58,3.01-6.04,7.92-5.66,2.35-.29.31-4.97,2.26-5.66-.5-1.01-.99-2.02-2.26-2.26-2.66.36-.67,5.37-4.53,4.53v-1.13c2.06-7.54,6.5-3.36,11.32-4.53-.25,2.14,1.28,2.5,1.13,4.53-3.72-.82-1.73,2.25,0,2.26.23-6.78,5.16-1.81,6.79-6.79,1.95-.06,2.9.87,3.39,2.26-3.24-.22-6.18-.14-5.66,3.39h3.39v1.13c-2.14,2.25-5.35.55-7.92,0,3.15,4.31,5.82,8.31,7.92,10.19Zm-20.37,1.13c.41-3.27,1.05-2.68,3.39-5.66-4.42-1.1-7.84,4.57-3.39,5.66Z"/><path class="cls-6" d="m119.96,43.01c2.03.14,2.39-1.39,4.53-1.13-.18,1.32.25,2.01,1.13,2.26-.5,1.64-.99-.11-2.26,0,.22.92,1.13,1.13,1.13,2.26,2.33-.32,2.26-3.02,3.39-4.53,3.47,1.11-.5,3.82-1.13,4.53.03,1.1,1.39.88,2.26,1.13-1.89,4.39-6.15-.63-9.05,2.26-.18-1.33-2.06-.95-3.39-1.13-.22-1.28-1.14-.63-1.13,0-3.28-.63,1.74-1.76,1.13-3.4,1.1.03.88,1.39,1.13,2.26,3.61.67,3.5-2.12,5.66,0,1.77-5.92-7.58-.72-6.79-5.66.91.6,1.84,1.18,3.39,1.13Z"/><path class="cls-4" d="m119.96,43.01c-1.56.05-2.48-.53-3.39-1.13-.79,4.94,8.56-.27,6.79,5.66-2.16-2.12-2.05.67-5.66,0-.25-.88-.03-2.23-1.13-2.26.6,1.63-4.41,2.76-1.13,3.4,0-.63.92-1.28,1.13,0-1.1.03-.88,1.39-1.13,2.26-4.86.54-1.45-3.05-3.4-3.4v-1.13c-3.2-.94-2.93,1.59-5.66,1.13,2.94,2.98-1.83.89-1.13,4.53-4.88-.18-9.89-2.94-11.32,2.26-1.33-.18-.95-2.06-1.13-3.39,4.7-.4-2.54-3.39,2.26-5.66-4.1,2.09-5.59-2.84-9.05-4.53-.89-.79-2.52-6.32,0-6.79,1.21,1.06.35,4.18,3.4,3.4-1.41-4.8,3.76-3.03,4.53-5.66-2.63-2.51-3.03-1-5.66-2.26-.06-.69-.17-1.34-1.13-1.13.13-5.29,2.07.8,3.39,1.13.21-1.68,2.74-1.04,4.53-1.13.25.88.03,2.23,1.13,2.26.01-1.5,1.98-1.03,2.26-2.26h1.13v1.13c3.85.84,1.87-4.17,4.53-4.53,1.27.24,1.76,1.26,2.26,2.26-1.95.69.09,5.37-2.26,5.66-4.91-.38-5.97,3.08-7.92,5.66v-4.53c-2.77.63-4.14,2.65-5.66,4.53,1.71.98-.31,1.69,1.13,4.53,6.69-3.71,1.92.67,6.79,3.4,1.57-.69.17-4.36,2.26-4.53,1.39,2.01,3.51,3.28,4.53,5.66.79-3.68,5.15-2.03,5.66-3.39-.28-1.8.16-7.1,3.39-10.19,2.12,2.16-.67,2.05,0,5.66,3.55,1.28,2.99-.33,5.66,1.13v2.26Z"/><path class="cls-6" d="m105.25,52.06c4.81,1.03,5.7-1.85,6.79-4.53,1.95.35-1.47,3.93,3.4,3.4,3.45,3.22-4.5,5.74,1.13,6.79-.96,1.68-3.64,1.64-5.66,2.26.03-1.1,1.38-.88,2.26-1.13-2.39-1.01-1.96-4.83-5.66-4.53-.09,1.81-3.28,4.22-6.79,5.66.27,2.92,1.95-1.55,4.53,0,.14,2.03-1.39,2.39-1.13,4.53h-1.13v-3.39c-1.06,1.21-4.17.35-3.39,3.39-2.39-2.59.5-4.01-1.13-7.92,2.83.14,3.54,2.16,4.53-1.13-3.48-3.41-6.24,3.51-6.79,6.79-3.97-.31,2.84-4.22-1.13-4.53-1.37-1.95-6.97-5.45-2.26-6.79.18,1.33-.19,3.21,1.13,3.39,1.43-5.2,6.44-2.44,11.32-2.26Z"/><path class="cls-2" d="m105.25,52.06c-.7-3.64,4.07-1.55,1.13-4.53,2.73.46,2.46-2.07,5.66-1.13v1.13c-1.09,2.68-1.98,5.56-6.79,4.53Z"/><path class="cls-1" d="m119.96,29.42c1.61-.44,1.91-1.36,3.39,0,1.14-1.5,1.07-4.21,3.39-4.53v3.4c-2.01.83-.16,2.06,0,3.4-6.84,1.86,5.58,5.83,5.66,1.13,3.09.82,2.28-2.25,4.53-2.26v2.26c2.31,2.27,2.22-.5,4.53-1.13v4.53c3.3-.32,3.89.27,2.26,2.26-.12,2.9-4.22,1.82-5.66,3.39.36-2.62-.18-4.35-1.13-5.66-1.61-.1-3.21-.19-3.39,1.13-7.39-1.76-11.42,3.55-12.45-2.26-.58-3.3,5.02-3.51-1.13-4.53v-1.13Z"/><path class="cls-1" d="m37.35,29.42c-2.78,1.07,1.45,4.45,3.39,4.53.97.91.67,3.1,2.26,3.4,1.68-.96,1.64-3.64,2.26-5.66,3.73-1.69-3.79-1.33-2.26-4.53,4.4.94,7.92-4.82,5.66-6.79.01-1.5,1.98-1.03,2.26-2.26h1.13c1.27.12,1.76-1.64,2.26,0-.24,3.39-4.68,6.61-7.92,12.45,4.47-1.45,2.74,3.3,5.66,3.4-.06-1.95.87-2.9,2.26-3.4h2.26c2.12,2.16-.67,2.05,0,5.66-1.93.42-2.14-.88-2.26-2.26-1.75,1.26-2.36,3.68-5.66,3.4-.46-2.82-5.18-.86-3.4,2.26-.91-.78-3.1-1.76-3.39,0-1.71-.98.31-1.69-1.13-4.53-2.44,4.88-6.35-.73-9.05-2.26-.06,1.7-2.75,2.02-1.13,4.53-1.32-.18-2.01.25-2.26,1.13-.92-.21-1.13-1.13-2.26-1.13-1.01-.5-2.02-.99-2.26-2.26,1.45.06,1.57,1.45,3.39,1.13-.32-2.58.27-4.25,2.26-4.53,2.12-.27-.64-1.86,1.13-2.26,2.67.03,3.33-1.95,6.79-1.13v1.13Z"/><path class="cls-4" d="m66.77,38.48h3.39c0-3.39,2.03-4.76,4.53-5.66-2.45,2.35-.06,3.86,2.26,4.53v1.13c-1.61.1-3.2.19-3.39-1.13-1.01.5-2.02.99-2.26,2.26-1.1.03-.88,1.39-1.13,2.26-.91.6-1.84,1.18-3.39,1.13v-4.53Z"/><path class="cls-3" d="m40.74,30.56c3.64-.7,1.55,4.07,4.53,1.13-.63,2.01-.58,4.7-2.26,5.66-1.59-.3-1.29-2.48-2.26-3.4.88-.25,2.23-.03,2.26-1.13-1.27-.24-1.76-1.26-2.26-2.26Z"/><path class="cls-2" d="m119.96,30.56c6.15,1.02.55,1.22,1.13,4.53,1.03,5.81,5.06.51,12.45,2.26,1.1.03.88,1.39,1.13,2.26-4.38-1.17-4.66.59-7.92-1.13v3.39c3.92-4.87,7.31,2.63,11.32,0,1.44-1.58,5.54-.49,5.66-3.39h1.13c.24,3.64-4.04,2.75-5.66,4.53,1.23,3.81,5.54,3.36,7.92,2.26,3.11,1.75-4.81,1.88-2.26,6.79v1.13c-2.16.48-2.05,3.23-5.66,2.26,2.93,2.45-.95,6.32-3.39,3.4,2.83-2,1.22-1.44,1.13-5.66,1.01.88,2.56,1.22,4.53,1.13,2.52-.47.89-6.01,0-6.79-1.99.27-2.58,1.95-2.26,4.53-4.93,1.54-4.09-2.7-6.79-3.4.03-1.1,1.38-.88,2.26-1.13.19-2.45-4.01-.51-5.66-1.13h-2.26c.63-.71,4.6-3.42,1.13-4.53-1.14,1.5-1.07,4.21-3.39,4.53,0-1.13-.92-1.35-1.13-2.26,1.27-.11,1.76,1.64,2.26,0-.88-.25-1.32-.95-1.13-2.26-2.14-.25-2.5,1.28-4.53,1.13v-2.26c-2.1-1.88-4.77-5.87-7.92-10.19,2.58.55,5.78,2.25,7.92,0Z"/><path class="cls-6" d="m138.07,41.87c-4,2.63-7.4-4.87-11.32,0v-3.39c3.26,1.72,3.54-.04,7.92,1.13-.25-.88-.03-2.23-1.13-2.26.19-1.32,1.79-1.23,3.39-1.13.95,1.31,1.49,3.04,1.13,5.66Z"/><path class="cls-6" d="m71.3,39.61c.24-1.27,1.26-1.76,2.26-2.26.19,1.32,1.79,1.23,3.39,1.13v3.39h-3.39c.48-2.18-.78-4.08-1.13-2.26h-1.13Z"/><path class="cls-6" d="m66.77,43.01c1.56.05,2.49-.53,3.39-1.13-.88,1.01-1.22,2.56-1.13,4.53-2.09.17-.69,3.83-2.26,4.53-1.94.24-2.93-1.93-3.39,0-1.51-1.13-2.22-3.06-4.53-3.4.21-1.28,1.14-.63,1.13,0,3.75-1.11-1.26-2.24-1.13-3.39,1.94-.24,2.93,1.93,3.39,0,2.35-1.01.31,7.71,2.26,3.39.16-4.7.74-.23,2.26,0v-4.53Z"/><path class="cls-3" d="m20.37,40.74c.25-2.14-1.28-2.5-1.13-4.53,1.53-.36,2.16-1.61,4.53-1.13.24,1.27,1.26,1.76,2.26,2.26-.03,1.1-1.38.88-2.26,1.13-1.49.4-1.78,1.99-3.4,2.26Z"/><path class="cls-2" d="m79.22,39.61c-1.96,1.03-2.92,3.96-1.13,5.66-1.73.02-2.48,8.39,1.13,6.79-.98,3.29-1.69,1.27-4.53,1.13.21.92,1.13,1.13,1.13,2.26,3.48.84,2.18-3.11,5.66-2.26v1.13c.14,2.03-1.39,2.39-1.13,4.53-2.19-3.3-5.74-.94-7.92-2.26,3.2,1.94-.42,4.45,3.39,4.53.99,3.63-2.93,2.35-3.39,4.53-4.78-1.54,2.93-5.11-2.26-7.92,1.83-1.11,2.6-3.02,1.13-4.53-2.15.49-2.84,2.44-5.66,2.26.03,1.1,1.38.88,2.26,1.13,1,3.97-3.73,1.97-3.39,0v-1.13c3.57-1.39,6.29-4.87,9.05-1.13.48-2.36-.78-3-1.13-4.53-3.26.51-3.54,4.01-7.92,3.39-.22-.92-1.13-1.13-1.13-2.26.46-1.93,1.46.24,3.39,0,1.57-.69.17-4.36,2.26-4.53,2.3-2.3,5.25-3.13,3.39-6.79.36-1.82,1.61.09,1.13,2.26h3.39v-4.53c.13-1.38.34-2.68,2.26-2.26v4.53Z"/><path class="cls-2" d="m41.87,39.61c-.6.91-1.18,1.84-1.13,3.4,4.03-.5,4.96-4.1,7.92-5.66,3.3.28,3.9-2.13,5.66-3.4.13,1.38.34,2.68,2.26,2.26v1.13c3.78,0,3,4.55,5.66,5.66v1.13c-.46,1.93-1.46-.24-3.39,0h-1.13c1.89-2.25-.1-1.44,0-4.53-2.44.96-1.83,4.96-3.39,6.79-2.57-1.32-3.39.6-4.53-3.4-1.49.4-1.78,1.99-3.4,2.26.8,2.97,5.31,2.23,6.79,4.53v1.13c-2.79.15-5.45.17-6.79-1.13-3.16,1.46,3.57,2.34,2.26,5.66-1.32-.18-2.01.25-2.26,1.13-2.01-.26-5.67,1.14-4.53-2.26,2.82-1.07-3.04-5.83,2.26-5.66-.03-1.1-1.39-.88-2.26-1.13.6-.91,1.18-1.84,1.13-3.39,2.81.17,4.7-.59,5.66-2.26,2.16.48,2.05,3.23,5.66,2.26-1.64-2.15-6.02-4.97-7.92-3.4-1.28.21-.63,1.13,0,1.13-2.24,1.54-5.27,2.28-5.66,5.66-1.68-.49.45-1.45,0-3.39-3.04-2.02-2.19,4.98-3.39,1.13-2.09.17-.69,3.83-2.26,4.53-4.54-1.03-5.49-.79-7.92,2.26,1.22-3.69,3.93-5.88,4.53-10.19v-1.13c2.14,1.18,6.51,5.9,7.92,1.13-4.67-.07-4.24-1.78-7.92-4.53h-1.13c-1.62-2.5,1.07-2.83,1.13-4.53,2.71,1.53,6.62,7.14,9.05,2.26,1.44,2.83-.58,3.54,1.13,4.53Z"/><path class="cls-6" d="m27.16,52.06c2.43-3.05,3.38-3.29,7.92-2.26,1.57-.69.17-4.36,2.26-4.53,1.21,3.85.35-3.15,3.39-1.13.45,1.95-1.68,2.9,0,3.39.39-3.38,3.42-4.12,5.66-5.66h2.26c-.96,1.68-2.85,2.43-5.66,2.26.05,1.56-.53,2.48-1.13,3.39.88.25,2.23.03,2.26,1.13-5.31-.17.56,4.59-2.26,5.66-1.53-1.11-2.26-3.02-3.4-4.53-.91.6-1.84,1.18-3.39,1.13,1.97,1.96,1.25,7-1.13,7.92,1.13,1.56,1.87-.48,3.39,2.26-1.01,1.29-3.16-.7-2.26,4.53,1.65-.99,4.38-.9,3.39-4.53.91.6,1.84,1.18,3.4,1.13-.78-.91-1.76-3.1,0-3.4-.62,2.51,2.16,1.61,2.26,3.4,3.81-1.02.13-2.53,2.26-4.53,1.63.26.39,3.38,2.26,3.39-2.01,2.9-7.27,2.54-10.19,4.53,2.6.41,1.08,4.95,4.53,4.53-.35,1.54-2.83.94-4.53,1.13-.67,3.61,2.12,3.5,0,5.66-1.77-.4.99-1.99-1.13-2.26-.96.21-1.07-.44-1.13-1.13,2.33-.31,1.07-4.22,3.4-4.53-.22-1.68-7.4-4.54-6.79,0-4.21,1.19-2.22-3.82-4.53-4.53-3.94-.1,5.74.65,2.26-2.26,2.12-2.15.12-2.84,0-5.66,3.49-1.13-2.45-1.87-2.26-3.4-1.15.74-1.17,2.6-3.4,2.26.6-.91,1.18-1.84,1.13-3.39h1.13Z"/><path class="cls-6" d="m41.87,39.61c.29-1.76,2.48-.78,3.39,0-1.79-3.13,2.94-5.08,3.4-2.26-2.97,1.56-3.9,5.16-7.92,5.66-.05-1.56.53-2.48,1.13-3.4Z"/><path class="cls-3" d="m151.65,40.74c1.81,2.13,4.89,3.62,4.53,7.92-.42,4.75,3.69.81,5.66,1.13.01,1.5,1.98,1.03,2.26,2.26h-3.39c-.78,3.04,2.34,2.19,3.39,3.39-.38,4.01-3.11,2.78-1.13,6.79-2.51-.62-1.61,2.16-3.39,2.26-.99,3.63,2.93,2.35,3.39,4.53-1.33.18-3.21-.19-3.39,1.13.88.25,2.23.03,2.26,1.13h-4.53c-.42-1.92.88-2.13,2.26-2.26-.81-.94-6.6-4.27-1.13-4.53-.26-1.63-3.38-.39-3.4-2.26.74-1.83,6.48-3,1.13-6.79v-1.13c.38-2.27-.23-3.54-2.26-3.39v-1.13c3.54.35-2.88-3.27,1.13-3.39-.21-3.56-6.1-1.45-5.66-5.66h2.26Z"/><path class="cls-1" d="m145.99,36.21c1.18,1.45,10.66,4.15,5.66,4.53h-2.26c-.44,4.21,5.45,2.09,5.66,5.66-4.01.13,2.41,3.74-1.13,3.39-1.07-2.32-1.4-5.39-4.53-5.66-.42,1.92.88,2.13,2.26,2.26-1.08,4.72-6.76-1.72-5.66,5.66h-1.13c-2.54-4.91,5.37-5.04,2.26-6.79-2.39,1.1-6.69,1.54-7.92-2.26,1.62-1.77,5.9-.89,5.66-4.53,4.35,1.73,2.24,1.1,1.13-2.26Z"/><path class="cls-1" d="m23.77,38.48c.29,3.31-2.56,3.48-2.26,6.79,3.48,1.86,7.56-1.66,6.79-5.66,1.26.5-.22,5,3.39,2.26-.6,4.3-3.31,6.5-4.53,10.19h-1.13c-.95-1.31-1.49-3.03-1.13-5.66-1.01.88-2.56,1.22-4.53,1.13.18.56-3.17,6.31-1.13,7.92-.49,1.68-1.45-.45-3.39,0-1.41-2.6-3.5-5.21,0-6.79-.88-.25-2.23-.03-2.26-1.13.25-.88.03-2.23,1.13-2.26,2.22-.34,2.24,1.53,3.39,2.26.9-2.12,1.89-4.14,2.26-6.79,1.62-.27,1.91-1.86,3.4-2.26Z"/><path class="cls-3" d="m28.29,38.48c.25-.88.95-1.31,2.26-1.13h1.13v4.53c-3.62,2.73-2.14-1.77-3.39-2.26v-1.13Z"/><path class="cls-1" d="m46.4,41.87c-.63,0-1.28-.92,0-1.13,1.91-1.57,6.28,1.25,7.92,3.4-3.61.97-3.5-1.78-5.66-2.26h-2.26Z"/><path class="cls-6" d="m53.19,49.8c-1.48-2.29-5.99-1.55-6.79-4.53,1.61-.27,1.91-1.86,3.4-2.26,1.14,3.99,1.96,2.07,4.53,3.4,1.57-1.83.96-5.83,3.39-6.79-.1,3.09,1.89,2.28,0,4.53-1.33.18-.95,2.06-1.13,3.39-2.27-.38-3.54.23-3.4,2.26Z"/><path class="cls-1" d="m71.3,39.61h1.13c1.85,3.66-1.1,4.49-3.39,6.79-.09-1.97.25-3.52,1.13-4.53.25-.88.03-2.23,1.13-2.26Z"/><path class="cls-1" d="m79.22,39.61c-.19,2.45,4.01.51,5.66,1.13-.34,3.06-4.76,2.03-5.66,4.53h-1.13c-1.79-1.69-.83-4.63,1.13-5.66Z"/><path class="cls-2" d="m15.84,55.45c1.95-.45,2.9,1.68,3.39,0-2.04-1.61,1.31-7.36,1.13-7.92,1.97.09,3.52-.25,4.53-1.13-.36,2.62.18,4.35,1.13,5.66.05,1.56-.53,2.48-1.13,3.39,2.22.34,2.24-1.53,3.4-2.26-.19,1.53,5.76,2.26,2.26,3.4-2.37-.48-3,.78-4.53,1.13.14,2.88,1.65,4.39,4.53,4.53,3.48,2.92-6.2,2.16-2.26,2.26,2.31.71.32,5.72,4.53,4.53-.61-4.54,6.57-1.68,6.79,0-2.33.31-1.06,4.22-3.4,4.53.93-4.05-2.41-5.62-4.53-3.4.4,1.49,1.99,1.78,2.26,3.4-4.17-1.11-4.44-6.12-10.19-5.66,4.11,1.7-.53,6.3,2.26,10.19h-2.26c.78.91,1.76,3.1,0,3.4-3.02-3.12-2.46,1.34-5.66,1.13,4.03-4.34,1.03-9.83,4.53-14.71-2.73-.46-2.46,2.07-5.66,1.13.79-.91,1.76-3.1,0-3.39.28-1.23,2.25-.77,2.26-2.26-2.2-2.32-5.34.81-7.92-1.13.22-1.28,1.14-.63,1.13,0,1.46-1.94,3.72-3.07,6.79-3.4-1.14-2.76-5,2.22-4.53-3.4h1.13Zm4.53,3.4c-1.86,1.76-.48,5.28,1.13,6.79.63-2.56,1.77,1.37,3.4-1.13,0-3.39-2.03-4.76-4.53-5.66Z"/><path class="cls-2" d="m84.88,40.74h1.13c3.47,1.69,4.95,6.62,9.05,4.53-4.8,2.27,2.44,5.26-2.26,5.66-4.7,1.34.89,4.85,2.26,6.79-2.03,2.44-1.99,5.2-1.13,7.92h4.53c-.88,1.01-1.22,2.56-1.13,4.53-.96-.21-1.07.44-1.13,1.13-.92-.21-1.13-1.13-2.26-1.13.88,1.01,1.22,2.55,1.13,4.53-2.88-2.02-6.6-3.21-9.05-5.66v-1.13c.91-.6,1.84-1.18,3.4-1.13-2.94,2.98,1.83.89,1.13,4.53,2.55-3.15-.42-5.34-3.39-7.92v-2.26c1.5-1.14,4.21-1.07,4.53-3.39.32-2.02-1.07-2.32-1.13-1.13.28-.05-1.77-8.47-3.39-2.26-1.99-1.03-2.07-3.96-3.39-5.66h-5.66c.6-.91,1.18-1.84,1.13-3.4.9-2.5,5.32-1.47,5.66-4.53Z"/><path class="cls-6" d="m78.09,45.27h1.13c.05,1.56-.53,2.48-1.13,3.4h5.66c1.32,1.69,1.41,4.63,3.39,5.66,1.63-6.21,3.67,2.22,3.39,2.26.06-1.19,1.45-.89,1.13,1.13-4.11.19-4.02,2.65-7.92,0,2.55-2.45-.94-3.86,0-7.92-2.42-.53-2.16,1.62-2.26,3.39-3.48-.84-2.17,3.11-5.66,2.26,0-1.14-.92-1.35-1.13-2.26,2.83.14,3.54,2.16,4.53-1.13-3.61,1.6-2.86-6.77-1.13-6.79Z"/><path class="cls-4" d="m57.72,44.14h1.13c-.13,1.16,4.88,2.29,1.13,3.39,0-.63-.92-1.28-1.13,0,2.3.34,3.02,2.27,4.53,3.4,0,1.14.92,1.35,1.13,2.26v3.4c-2.08,1.32-3.83,2.96-5.66,4.53-2.9,3-1.82-1.98-3.39-3.39-3.22,4.42,2.2,5.49,0,10.18-1.83.32-1.95-1.07-3.4-1.13-3.93,2.31,2.85,6.36,4.53,3.39-.52,6.44-7.25-2.07-11.32,3.4.01,2.25,3.09,1.44,2.26,4.53-1.3-1.36-2.87-.44-1.13,0-1.81,2.14-13.3,3.02-7.92,0v-1.13c2.12-2.16-.67-2.05,0-5.66,1.69-.19,4.18.4,4.53-1.13-3.45.43-1.92-4.11-4.53-4.53,2.92-1.99,8.18-1.63,10.19-4.53-1.87-.02-.63-3.14-2.26-3.39-1.79.09-4.32-.54-4.53,1.13-1.76.29-.78,2.48,0,3.4-1.56.05-2.48-.53-3.4-1.13.99,3.63-1.74,3.54-3.39,4.53-.9-5.23,1.26-3.24,2.26-4.53-1.53-2.75-2.26-.71-3.39-2.26,2.38-.93,3.1-5.97,1.13-7.92,1.56.05,2.48-.53,3.39-1.13,1.13,1.51,1.87,3.42,3.4,4.53-1.14,3.4,2.52,2.01,4.53,2.26,3.14,2.17,6.66.38,4.53,3.39,3.2-1.86,5.39-7.01,2.26-9.05v-1.13c-.15-2.03,1.12-2.65,3.4-2.26.18-1.33-.19-3.21,1.13-3.39Z"/><path class="cls-6" d="m38.48,78.09c-5.38,3.02,6.12,2.14,7.92,0-1.74-.44-.17-1.36,1.13,0,.82-3.09-2.25-2.28-2.26-4.53,4.07-5.47,10.79,3.04,11.32-3.4h3.39c-1.4,3.66,3.66.86,2.26,4.53-4.24-5.12-4.99-.04-9.05-1.13,1.25,3.55.73,3.19-2.26,4.53-.92-.21-1.13-1.13-2.26-1.13-.1,1.61-.19,3.21,1.13,3.4.45,2.71-5.15-.63-3.4,3.39-6.36-.1-9.72-3.05-12.45,3.4-.92-.21-1.13-1.13-2.26-1.13h-1.13c.21-.96-.44-1.07-1.13-1.13-6.03-.06-3.93,6.36,0,3.4v3.39c-.91-.6-1.84-1.18-3.39-1.13-.56,3.55,3.9,2.99,1.13,5.66h-3.39c1.53-4.99-4.95-7.79-1.13-11.32h2.26c1.27,1.5,9.15-4.49,6.79-6.79,2.12,2.21,4.14.35,6.79,0Z"/><path class="cls-1" d="m153.91,50.93c2.03-.15,2.65,1.12,2.26,3.39-1.36-1.28-2.05-3.23-5.66-2.26,5.04,5.02-1.47,1.66,1.13,7.92,2.31-.71.32-5.72,4.53-4.53,5.34,3.79-.4,4.96-1.13,6.79.02,1.87,3.14.63,3.4,2.26-5.46.25.32,3.59,1.13,4.53-1.38.13-2.68.34-2.26,2.26h4.53v3.4h3.4c1.44,1.53,3.44,2.26,0,3.4-3.55,1.05-4.81,3.57-3.4,6.79,3.29-.98,1.27-1.69,1.13-4.53,3.98-.86,5.06,2.96,3.39,4.53-1.84-.34-3.05,1.53-1.13,2.26.25-.88.95-1.32,2.26-1.13-.73,1.62-6.15,7.75-1.13,7.92.96-.21,1.07.44,1.13,1.13-3.39.75,1.08,2.42,0,4.53-3.5.28-1.91,5.63-6.79,4.53-.7-1.01-1.37-2.02,0-2.26,2-1.17,6.79-4.49,2.26-5.66-.49-1.39-1.45-2.32-3.39-2.26.32-2.96.38-5.66-3.4-4.53-.22-.92-1.14-1.13-1.13-2.26,1.83-.32,1.95,1.07,3.4,1.13-.33-1.01-3.06-4.95-3.4-2.26-1.68-.49.45-1.45,0-3.39,3.91.89,4.98-1.06,5.66-3.4-.9-5.89-7.31-6.28-7.92-12.45-.91.78-3.1,1.76-3.4,0,.21-.96-.44-1.07-1.13-1.13.22-.92,1.14-1.13,1.13-2.26-.49-1.39-1.45-2.32-3.4-2.26,3.17-3.25,4.38-3.33,4.53-7.92-1.01.5-2.02.99-2.26,2.26-3.54.35,2.88-3.27-1.13-3.39,1.59-2.8,3.9-2,6.79-1.13Z"/><path class="cls-2" d="m145.99,52.06c-1.1-7.38,4.57-.94,5.66-5.66-1.38-.13-2.68-.34-2.26-2.26,3.12.27,3.45,3.34,4.53,5.66v1.13c-2.89-.87-5.2-1.67-6.79,1.13,4.01.13-2.41,3.74,1.13,3.39.24-1.27,1.26-1.76,2.26-2.26-.15,4.59-1.35,4.67-4.53,7.92,1.95-.06,2.9.87,3.4,2.26,0,1.14-.92,1.35-1.13,2.26-.91.6-1.84,1.18-3.39,1.13,2.5,1.63-1.42,2.76,1.13,3.39-3.41,2.39-3.1,1.94-7.92,3.4-.2-3.69,2.66-5.45-2.26-5.66.78-.91,1.76-3.1,0-3.4-.35-1.54-2.83-.94-4.53-1.13.75-1.52,2.42-2.11,4.53-2.26-.78,3.04,2.34,2.19,3.39,3.39,2.23,3.24,4.83-2.63,5.66-4.53-.32-2.67-3.02,1.3-4.53,1.13,2.68-2.23,4.2-5.61,5.66-9.05Z"/><path class="cls-6" d="m64.51,53.19c4.38.61,4.66-2.88,7.92-3.39.36,1.53,1.61,2.16,1.13,4.53-2.77-3.74-5.48-.26-9.05,1.13v-2.26Z"/><path class="cls-4" d="m126.75,46.4h2.26c2.63,1.66-2.21,3.59,2.26,3.39-.59,1.67-1.67,2.85-2.26,4.53-2.85-8.88-5.43,5.5-10.19,1.13.49-1.39,1.45-2.32,3.39-2.26-.73-1.15-2.6-1.17-2.26-3.39,2.91-2.9,7.17,2.13,9.05-2.26-.88-.25-2.23-.03-2.26-1.13Z"/><path class="cls-6" d="m118.83,55.45c4.76,4.37,7.33-10.01,10.19-1.13.59-1.67,1.67-2.85,2.26-4.53-4.47.19.36-1.74-2.26-3.39,1.64.62,5.85-1.32,5.66,1.13-.88.25-2.23.03-2.26,1.13,2.7.7,1.86,4.93,6.79,3.4-.32-2.58.27-4.26,2.26-4.53.89.78,2.52,6.32,0,6.79-1.97.09-3.52-.25-4.53-1.13.09,4.22,1.7,3.65-1.13,5.66,2.45,2.93,6.32-.95,3.39-3.4,3.61.97,3.5-1.78,5.66-2.26v-1.13h1.13c-1.46,3.44-2.98,6.83-5.66,9.05.1,1.61.19,3.2-1.13,3.39-1.06-1.21-4.17-.35-3.39-3.39-2.11.16-3.78.74-4.53,2.26-.77-.87-6.74-2.95-5.66,1.13-1.63,1.76-4.56,2.23-3.4,6.79-2.35-2.45-3.86-.06-4.53,2.26.26,1.44,3.38,1.48,3.4,0h1.13c-1.92,2.61-2.85,6.21-7.92,5.66.74-1.52,2.42-2.11,4.53-2.26-.75-1.52-2.42-2.11-4.53-2.26-1.14-5.54,1.41-8.04-2.26-10.19,1.88-1.89,3.77-3.78,5.66-5.66-.05,2.89.84,1.38,2.26,1.13,3.02,1.31,7.79,2.37,9.05-2.26,2.61-.35,1.26,3.27,3.39,3.39,3.17-1.96,1.06-2.97,1.13-6.79-2.81,2.19-4.03-1.11-5.66,2.26-2.79-.15-5.45-.17-6.79,1.13-.44-.59-5.5-1.67-2.26-2.26Zm-2.26,15.84c.32-2.33,3.02-2.26,4.53-3.4-1.29-4.26,1.08-5.15-2.26-6.79-2.2,1.26-3.38,9.35-2.26,10.19Z"/><path class="cls-2" d="m115.43,50.93c.25-.88.03-2.23,1.13-2.26,1.33.18,3.21-.19,3.39,1.13-.34,2.23,1.53,2.24,2.26,3.39-1.95-.06-2.9.87-3.39,2.26-3.23.59,1.83,1.67,2.26,2.26.18,1.32-.25,2.01-1.13,2.26-1.42.25-2.31,1.76-2.26-1.13.21-.96-.44-1.07-1.13-1.13-5.63-1.05,2.32-3.57-1.13-6.79Z"/><path class="cls-6" d="m46.4,56.59c.25-.88.95-1.32,2.26-1.13,1.3-3.32-5.43-4.2-2.26-5.66,1.34,1.3,4,1.28,6.79,1.13,3.12,2.04.93,7.19-2.26,9.05,2.14-3.02-1.39-1.23-4.53-3.39Z"/><path class="cls-4" d="m81.48,53.19c.11-1.78-.15-3.92,2.26-3.39-.94,4.06,2.55,5.48,0,7.92,3.9,2.65,3.81.19,7.92,0-.32,2.33-3.02,2.26-4.53,3.39v2.26c-.03,1.1-1.39.88-2.26,1.13-.1,1.61-.19,3.21,1.13,3.4v1.13h-1.13c-2.25-.01-1.44-3.09-4.53-2.26-.97-.91-.67-3.1-2.26-3.4,3.03-3.45,2.94-3.03,4.53-7.92.21-.96-.44-1.07-1.13-1.13v-1.13Z"/><path class="cls-2" d="m84.88,69.03c-.42,1.92.88,2.14,2.26,2.26.21.96-.44,1.07-1.13,1.13v2.26c-1.66-2.17-8.05-5.45-5.66-7.92,3.09-.82,2.28,2.25,4.53,2.26Z"/><path class="cls-6" d="m81.48,54.32c.69.06,1.34.17,1.13,1.13-1.59,4.89-1.5,4.47-4.53,7.92,1.59.3,1.29,2.48,2.26,3.4-2.39,2.47,4,5.75,5.66,7.92v-2.26c.69-.06,1.34-.17,1.13-1.13-1.38-.13-2.68-.34-2.26-2.26h1.13c2.45,2.45,6.17,3.64,9.05,5.66.09-1.97-.25-3.52-1.13-4.53,1.13,0,1.35.92,2.26,1.13,1.39,4.07-1.39,4.81-3.39,9.05-4.11-2.42-16.42-2.43-11.32-9.05-1.01.88-2.56,1.22-4.53,1.13.02,3.38,2.94,3.85,3.4,6.79-2.89-.05-1.38.84-1.13,2.26-1.05,2.32.5,7.15-2.26,10.19-3.29-.98-1.27-1.69-1.13-4.53-2.37-.48-3,.78-4.53,1.13,3.31,1.22,3.98,5.08,3.4,10.19-4.27-3.16-1.82-6.22-4.53-10.19,3.8-1.42,3.79-6.45,2.26-10.19,3.48-1.26.84-7.9-1.13-5.66-2.17-1.46,2.67-2.34,0-5.66-2.61,2.25-1.26-.28-3.39-1.13-3.32.08-4.2,2.59-5.66,4.53-.96.21-1.07-.44-1.13-1.13.05-1.94-.84-2.93-2.26-3.39-2.84-2.12,1.88-.12,3.39,0-1.13-1.51-1.87-3.42-3.39-4.53,1.83-1.57,3.58-3.21,5.66-4.53-.34,1.97,4.39,3.97,3.39,0,1.32-.18,2.01.25,2.26,1.13,5.19,2.81-2.51,6.39,2.26,7.92.46-2.18,4.39-.89,3.39-4.53-3.82-.08-.2-2.59-3.39-4.53,2.19,1.33,5.74-1.04,7.92,2.26-.25-2.14,1.28-2.5,1.13-4.53Zm7.92,23.77h3.39c.1-3.09-1.89-2.28,0-4.53-2.98-.34-3.71,1.57-3.39,4.53Z"/><path class="cls-4" d="m121.09,57.72c1.34-1.3,4-1.28,6.79-1.13-.21.96.44,1.07,1.13,1.13-1.26,4.63-6.04,3.57-9.05,2.26.88-.25,1.31-.95,1.13-2.26Z"/><path class="cls-4" d="m102.99,64.51h1.13c-.25-2.14,1.28-2.5,1.13-4.53-2.58-1.55-4.25,2.92-4.53,0,3.51-1.43,6.7-3.85,6.79-5.66,3.69-.3,3.27,3.52,5.66,4.53-.88.25-2.23.03-2.26,1.13,2.01-.63,4.7-.58,5.66-2.26.69.06,1.34.17,1.13,1.13-1.89,1.88-3.78,3.77-5.66,5.66,3.67,2.15,1.13,4.64,2.26,10.19,2.11.16,3.78.75,4.53,2.26-2.11.16-3.78.75-4.53,2.26,5.08.55,6-3.05,7.92-5.66h1.13c-1.78,2.37-2.69,4.25-1.13,5.66-2.57,4.27-8.45,1.57-7.92,6.79h-2.26c-.49-2.53-5.58-.46-7.92-1.13,4.85,1.35,2.42,4.08,2.26,9.05-2.25,1.88-1.44-.1-4.53,0-.1,1.61-.19,3.2,1.13,3.39,3.13-.48,1.06,4.22,3.39,4.53-1.99,3.35-2.35-4.33-5.66-3.39-1.89-2.25.1-1.44,0-4.53-1.39-1.62-3.89-2.14-6.79-2.26-1.99,1-1.87,5.02-4.53,2.26.6.91,1.18,1.84,1.13,3.39,1.39-.49,2.32-1.45,2.26-3.39,2.93,1.46,3.56,2.34,2.26,5.66-3.01-3.12-3.97.83-6.79,1.13v-2.26c.54-3.55-1.41-4.62-3.4-5.66-5.22.77,1.73,3.76-1.13,4.53-1.98,2.08-3.93.14-3.4-3.39-1.23.28-.77,2.25-2.26,2.26,2.84,1.99.79,1.87,2.26,4.53-1.32-.18-2.01.25-2.26,1.13-2.35-.63-2.4-1.77-1.13-3.39-6.19.23-9.75,8.09-11.32-2.26-1.01.88-2.56,1.22-4.53,1.13,3.67-4-3.55-3.98-2.26-9.05h1.13c1.93.42,2.14-.88,2.26-2.26,2.31.63,2.22,3.41,4.53,1.13-4.81-2.36,3.1-2.98,1.13-9.05-4.48.35,1.27,3.93-3.39,3.4-2.76-2.66,1.26-2.53,2.26-4.53,2.73-.46,2.46,2.07,5.66,1.13,1.53,3.74,1.54,8.77-2.26,10.19,2.71,3.97.26,7.02,4.53,10.19.58-5.11-.09-8.97-3.4-10.19,1.53-.36,2.16-1.61,4.53-1.13-.14,2.83-2.16,3.54,1.13,4.53,2.76-3.04,1.21-7.87,2.26-10.19,1.69,1.79,4.63.83,5.66-1.13-.32-2.38-3.02,1.64-4.53-1.13-.45-2.94-3.38-3.41-3.4-6.79,1.97.09,3.52-.25,4.53-1.13-5.11,6.62,7.21,6.64,11.32,9.05,2-4.24,4.79-4.99,3.39-9.05.06-.69.17-1.34,1.13-1.13-.35,2.61,3.27,1.26,3.4,3.4,2.63-1.7,1.73-2.77,1.13-5.66-.32-1.83,1.07-1.95,1.13-3.4Zm-4.53,14.71c.01-2.25,3.09-1.44,2.26-4.53-3.88,1.02-5.34,4.47-5.66,9.05,2.14-.25,2.5,1.28,4.53,1.13.12-2.9.64-5.4,2.26-6.79,4.21-1.91,2.22.24,4.53,2.26.19-1.83,3.8-5.83,1.13-6.79-2.02,2.88-6.47,3.33-9.05,5.66Zm9.05,4.53c3.63.99,3.54-1.74,4.53-3.39-1.45-.06-1.57-1.45-3.39-1.13-.36,1.53-1.61,2.16-1.13,4.53Z"/><path class="cls-4" d="m95.06,57.72c3.97.31-2.84,4.22,1.13,4.53.55-3.28,3.31-10.2,6.79-6.79-.98,3.29-1.69,1.27-4.53,1.13,1.64,3.91-1.26,5.33,1.13,7.92-.78-3.04,2.34-2.19,3.39-3.39v2.26c-1.94-.05-2.93.84-3.39,2.26h-5.66c-.86-2.73-.9-5.48,1.13-7.92Z"/><path class="cls-3" d="m5.66,62.24c1.58-2.58,1.28-5.94,4.53-10.19.69.06,1.34.17,1.13,1.13-3.07,1.02.95,4.17,2.26,4.53-.32,2.67-3.02-1.3-4.53-1.13-.17.21-.55,8.93-3.39,5.66Z"/><path class="cls-2" d="m156.18,55.45c-4.21-1.19-2.22,3.82-4.53,4.53-2.6-6.26,3.91-2.91-1.13-7.92,3.61-.97,4.3.99,5.66,2.26v1.13Z"/><path class="cls-1" d="m162.97,69.03c-.46-2.18-4.39-.89-3.39-4.53,1.78-.1.89-2.89,3.39-2.26-1.98-4.01.75-2.78,1.13-6.79-1.06-1.21-4.17-.35-3.39-3.39h3.39c-.34,2.23,1.53,2.24,2.26,3.39-2.45-.19-.51,4.01-1.13,5.66,3.04-.78,2.19,2.34,3.39,3.39-.06,1.45-1.45,1.57-1.13,3.4-.21,1.68-2.73,1.04-4.53,1.13Z"/><path class="cls-1" d="m14.71,55.45c-.48,5.61,3.39.64,4.53,3.4-3.07.32-5.33,1.46-6.79,3.4,0-.63-.92-1.28-1.13,0,2.58,1.94,5.72-1.19,7.92,1.13-.01,1.5-1.98,1.03-2.26,2.26-1.01-.88-2.56-1.22-4.53-1.13-1.61,2.16-3.49,4.05-5.66,5.66h-2.26c-.14-2.03,1.39-2.39,1.13-4.53,1.49.4,1.78,1.99,3.39,2.26.44-4.21-5.45-2.09-5.66-5.66h2.26c2.85,3.27,3.22-5.45,3.39-5.66,1.5-.17,4.21,3.81,4.53,1.13-1.31-.36-5.33-3.5-2.26-4.53,1.95-.06,2.9.87,3.4,2.26Z"/><path class="cls-3" d="m6.79,70.17c2.16-1.61,4.05-3.49,5.66-5.66,1.97-.08,3.52.25,4.53,1.13,1.76.29.79,2.48,0,3.39-1.4,3.66,3.66.86,2.26,4.53-2.89-2.25-4.94,1.47-9.05-1.13-1.02,2.38-3.14,3.65-4.53,5.66h-1.13c-.11-2.91-4.42-1.62-4.53-4.53,2.26-2.9,4.45-7.12,2.26-11.32h1.13c.21,3.56,6.1,1.45,5.66,5.66-1.61-.27-1.91-1.86-3.39-2.26.25,2.14-1.28,2.5-1.13,4.53-3.47,1.11,1.3,3.02,1.13,4.53,1.58-1.73,4.19-4.88,6.79-2.26-.6-.91-1.18-1.84-1.13-3.4-2.03-.14-2.39,1.39-4.53,1.13Z"/><path class="cls-6" d="m114.3,86.01c-.53-5.22,5.35-2.52,7.92-6.79-1.56-1.41-.65-3.29,1.13-5.66.27-1.99,1.95-2.58,4.53-2.26-.32,1.83,1.07,1.95,1.13,3.4h-5.66c-.72,2.47,3.21,3.6-1.13,3.4,2.51,4.22,3.03-2.87,6.79-1.13,2.02-.32,2.32,1.07,1.13,1.13-1.68,1.34-5.06.98-4.53,4.53-1.93.42-2.14-.88-2.26-2.26-2.16.49-2.84,2.44-5.66,2.26.73,1.15,2.6,1.17,2.26,3.39,1.78-.49.97-3.56,4.53-2.26-5.31,5.08,3.28,6.32,1.13,13.58-1.01-.88-2.56-1.22-4.53-1.13.4-1.49,1.99-1.78,2.26-3.39-.32-2.67-3.02,1.3-4.53,1.13,1.26-1.39.99-2.32-1.13-2.26.18-1.33,2.06-.95,3.4-1.13-.65-3.73-4.27-1.62-6.79-1.13,1.36-1.49.44-1.78,0-3.4Z"/><path class="cls-6" d="m112.04,86.01c-6.96,2.62,3.49,8.03-4.53,10.19,3.52-3.22-5.15-.61-4.53,1.13-1.32-.19-1.23-1.79-1.13-3.39,3.09-.1,2.28,1.88,4.53,0,.16-4.97,2.58-7.7-2.26-9.05,2.34.67,7.43-1.4,7.92,1.13Z"/><path class="cls-6" d="m88.27,100.72c2.83-.3,3.78-4.25,6.79-1.13,1.29-3.32.67-4.2-2.26-5.66.06,1.95-.87,2.9-2.26,3.39.05-1.56-.53-2.48-1.13-3.39,2.66,2.76,2.53-1.26,4.53-2.26,2.9.12,5.4.64,6.79,2.26.1,3.09-1.89,2.28,0,4.53-2.16.48-2.05,3.23-5.66,2.26.73,1.15,2.6,1.17,2.26,3.4,2.57-.89,6.6-3.18,4.53,0-1.93-.42-2.14.88-2.26,2.26-1.83.32-1.95-1.07-3.39-1.13-1.79,3.13,2.94,5.08,3.39,2.26,3.18.01-2.69,3.09,2.26,2.26-2.77,2.67,1.69,2.11,1.13,5.66-.91-.6-1.84-1.18-3.39-1.13-1.39-.49-2.32-1.45-2.26-3.4-1.39,1.26-2.32.99-2.26-1.13-3.98,4.82-.62,5.07,3.4,5.66v1.13c-2.25-1.89-1.44.1-4.53,0h-1.13c-1.3-1.34-1.28-4-1.13-6.79-.21-2.47.93-3.6,3.4-3.39-1.69-1.33-3.2-2.84-4.53-4.53h-2.26v-1.13Z"/><path class="cls-6" d="m83.75,97.33c2.86-.77-4.09-3.76,1.13-4.53,1.98,1.03,3.93,2.1,3.4,5.66-1.94-3.69-4.45,4.42-4.53-1.13Z"/><path class="cls-6" d="m53.19,87.14c2.67,1.66,2.11,2.39,5.66,1.13-1.28,5.08,5.93,5.05,2.26,9.05,1.97.09,3.52-.25,4.53-1.13,1.57,10.35,5.13,2.5,11.32,2.26-1.27,1.63-1.22,2.76,1.13,3.39.25-.88.95-1.32,2.26-1.13-.05,1.94.84,2.93,2.26,3.4-1.98,4.01.75,2.78,1.13,6.79-3.18,3.81-5.26-6.9-9.05-2.26-1.78,3.38-1.26-4.14,2.26-2.26-.31-2.33-5.01-.27-4.53-3.4-1.68,1.34-5.06.98-4.53,4.53-1.99-5.48-2.08-.42-7.92-1.13,2.06-5.74-1.09-2.63-2.26-6.79v-1.13c4.96-.82-.91,2.25,2.26,2.26,3.93-4.37-6.58-3.93-4.53-10.19h-4.53v-2.26c.96.21,1.07-.44,1.13-1.13h1.13Z"/><path class="cls-2" d="m80.35,79.22c1.5,2.77,4.21-1.24,4.53,1.13-1.03,1.97-3.97,2.93-5.66,1.13-.25-1.42-1.76-2.31,1.13-2.26Z"/><path class="cls-6" d="m97.33,70.17c-.08-1.97.25-3.52,1.13-4.53h1.13c-.95,1.31-1.49,3.03-1.13,5.66,4.02,1.76.68-3.84,3.39-3.4.6,2.89,1.5,3.96-1.13,5.66-.13-2.14-3.74-.78-3.4-3.4Z"/><path class="cls-2" d="m99.59,65.64c.46-1.42,1.46-2.31,3.39-2.26v1.13c-.06,1.45-1.45,1.57-1.13,3.4-2.71-.45.63,5.15-3.39,3.4-.36-2.62.18-4.35,1.13-5.66Z"/><path class="cls-2" d="m62.24,70.17c1.46-1.94,2.34-4.45,5.66-4.53,2.14.85.79,3.38,3.39,1.13,2.67,3.32-2.17,4.2,0,5.66,1.97-2.25,4.61,4.39,1.13,5.66-3.2.94-2.93-1.59-5.66-1.13-2.67-.03-3.33,1.95-6.79,1.13,1.63,1.99,1.04,2.58-2.26,2.26-.2,3.2,4.25,2.64,1.13,5.66h-1.13c3.95-2.11-5.88-4.46-4.53,1.13h-1.13c-.06.69-.17,1.34-1.13,1.13v2.26h4.53c-2.05,6.25,8.46,5.81,4.53,10.19-3.18-.01,2.7-3.09-2.26-2.26v1.13h-1.13c.21-4.34-.93-.41-3.4-1.13-.49-1.68-1.45.45-3.4,0,.49-1.39,1.45-2.32,3.4-2.26-.35-1.54-2.83-.94-4.53-1.13v-3.4c-6.04-1.21.15,2.81-4.53,2.26v-4.53c3.69-1.45,5.45,1.42,5.66-2.26,2.6-1.55,3.64-4.66,5.66-6.79-1.02-3.31-4.17-.33-4.53-2.26,2.99-1.34,3.51-.98,2.26-4.53,4.07,1.09,4.81-3.99,9.05,1.13.31,2.67,4.22-.1,4.53-1.13-2.31-.33-2.22-3.06-4.53-3.4Z"/><path class="cls-2" d="m118.83,61.11c3.35,1.64.98,2.53,2.26,6.79-1.5,1.14-4.21,1.07-4.53,3.4-1.12-.83.07-8.92,2.26-10.19Z"/><path class="cls-1" d="m140.33,61.11c1.5.17,4.21-3.81,4.53-1.13-.83,1.9-3.43,7.76-5.66,4.53,1.32-.19,1.23-1.79,1.13-3.39Z"/><path class="cls-2" d="m56.59,70.17c-1.68,2.97-8.46-1.09-4.53-3.39,1.45.06,1.57,1.45,3.4,1.13,2.2-4.69-3.22-5.76,0-10.18,1.58,1.42.49,6.4,3.39,3.39,1.53,1.11,2.26,3.02,3.39,4.53-1.51-.12-6.24-2.12-3.39,0,1.42.46,2.31,1.46,2.26,3.39-.96-.21-1.07.44-1.13,1.13h-3.39Z"/><path class="cls-6" d="m87.14,63.38c2.98,2.58,5.94,4.77,3.39,7.92.7-3.64-4.07-1.55-1.13-4.53-1.56-.05-2.49.53-3.4,1.13-1.32-.19-1.23-1.79-1.13-3.4.88-.25,2.23-.03,2.26-1.13Z"/><path class="cls-1" d="m16.98,69.03c3.2.94,2.93-1.59,5.66-1.13-3.5,4.88-.49,10.37-4.53,14.71,3.2.2,2.64-4.25,5.66-1.13-.21.96.44,1.07,1.13,1.13v2.26h-2.26c-1.38-2.75-4.37,2.31-6.79,2.26,3.27,3.27-3.82,5.16,1.13,5.66-.99,2-3.79,3.5,0,4.53-1.26,1.39-.98,2.32,1.13,2.26-2.24,5.6-3.1-1.65-4.53-3.4.68-2.94-.45-4.07-3.4-3.39,1.21-1.06.35-4.17,3.4-3.4-2.48-3.13-7.51.71-6.79,4.53-1.23-.28-.77-2.25-2.26-2.26-.06-3.45,4.08-2.71,3.4-6.79.91.6,1.84,1.18,3.39,1.13-.74-1.52-2.42-2.11-4.53-2.26.97-.91.67-3.1,2.26-3.39-.5-1.01-.99-2.02-2.26-2.26h-1.13c1.39-2.01,3.51-3.28,4.53-5.66,4.11,2.6,6.16-1.12,9.05,1.13,1.4-3.66-3.66-.86-2.26-4.53Zm-6.79,12.45c5.79-2.02,4.54,3,7.92,3.4,1.58-6.82-8.45-5.33-7.92-3.4Z"/><path class="cls-6" d="m135.81,64.51c1.76.29.78,2.48,0,3.4,4.92.21,2.06,1.97,2.26,5.66,4.82-1.45,4.51-1,7.92-3.4-2.56-.63,1.37-1.77-1.13-3.39,1.56.05,2.48-.53,3.39-1.13.69.06,1.34.17,1.13,1.13-2.8,1.34-2.04,4.9,0,6.79-2.04,1.63-3.47.26-7.92,1.13-3.43,3.05-6.03-3.45-9.05,0-.6,1.74-1.18.07-1.13-1.13,1.39-.49,2.32-1.45,2.26-3.4h2.26c-.79-3.48-.79-2.18,0-5.66Z"/><path class="cls-3" d="m166.36,84.88c1.67-1.57.59-5.38-3.39-4.53.14,2.83,2.16,3.54-1.13,4.53-1.42-3.22-.15-5.75,3.4-6.79.63,2.76,4.38,2.41,3.39,6.79h-2.26Z"/><path class="cls-2" d="m149.39,66.77c.3,1.76,2.48.78,3.4,0,.62,6.17,7.02,6.56,7.92,12.45-.68,2.34-1.75,4.29-5.66,3.4.45,1.95-1.68,2.9,0,3.39.33-2.69,3.06,1.26,3.4,2.26-1.45-.06-1.57-1.45-3.4-1.13h-1.13c-1.36-1.49-.44-1.78,0-3.4h-3.39c-.55-3.57,2.04-4,1.13-7.92-.96-.21-1.07.44-1.13,1.13-2.91,3.03-1.62-3.03-4.53,0,.48-3.18-4.22,2.84-4.53-1.13v-1.13c4.46-.87,5.88.5,7.92-1.13-2.04-1.89-2.8-5.45,0-6.79Z"/><path class="cls-2" d="m126.75,65.64c-.33,2.31-3.06,2.22-3.39,4.53,4.94,1.55,2.41-4.38,6.79-3.39-1.76,4.02,3.84.68,3.39,3.39.06,1.95-.87,2.9-2.26,3.4-.92.21-1.13,1.13-2.26,1.13-.06-1.45-1.45-1.57-1.13-3.4-2.58-.32-4.25.27-4.53,2.26h-2.26c-.02,1.48-3.14,1.44-3.4,0,.67-2.33,2.18-4.71,4.53-2.26-1.16-4.56,1.76-5.03,3.4-6.79.96-.21,1.07.44,1.13,1.13Z"/><path class="cls-4" d="m132.41,74.69c3.03-3.45,5.62,3.05,9.05,0v1.13c-2.63.39-5.3.73-4.53,4.53-1.83.32-1.95-1.07-3.39-1.13-.14-2.03,1.39-2.39,1.13-4.53h-2.26Z"/><path class="cls-2" d="m35.08,74.69c1.01.7,2.02,1.37,2.26,0,2.12.27-.64,1.86,1.13,2.26v1.13c-2.65.35-4.67,2.21-6.79,0h-1.13c-.6-.91-1.18-1.84-1.13-3.4,4.23-1.21,3.23,2.81,6.79,2.26.21-.96-.44-1.07-1.13-1.13v-1.13Z"/><path class="cls-1" d="m33.95,73.56c-.27-1.62-1.86-1.91-2.26-3.4,2.12-2.22,5.45-.65,4.53,3.4.06.69.17,1.34,1.13,1.13-.24,1.37-1.26.7-2.26,0,.21-.96-.44-1.07-1.13-1.13Z"/><path class="cls-6" d="m107.51,73.56c2.66.96-.94,4.96-1.13,6.79-2.31-2.02-.32-4.18-4.53-2.26-1.62,1.4-2.14,3.89-2.26,6.79-2.03.14-2.39-1.39-4.53-1.13.32-4.58,1.77-8.03,5.66-9.05.82,3.09-2.25,2.28-2.26,4.53,2.58-2.32,7.03-2.78,9.05-5.66Z"/><path class="cls-6" d="m57.72,86.01h1.13c3.12-3.02-1.34-2.46-1.13-5.66,3.3.32,3.89-.27,2.26-2.26,3.46.82,4.12-1.16,6.79-1.13-1,1.99-5.02,1.87-2.26,4.53,4.66.54-1.09-3.05,3.39-3.4,1.97,6.07-5.94,6.69-1.13,9.05-2.31,2.27-2.22-.5-4.53-1.13-.13,1.38-.34,2.68-2.26,2.26-.28-1.23-2.25-.77-2.26-2.26Z"/><path class="cls-1" d="m53.19,87.14c-1.36-5.6,8.48-3.24,4.53-1.13.01,1.5,1.98,1.03,2.26,2.26h-1.13c-3.55,1.26-2.99.53-5.66-1.13Z"/><path class="cls-1" d="m131.28,73.56c-.05,1.2.53,2.87,1.13,1.13h2.26c.25,2.14-1.28,2.5-1.13,4.53-.96-.21-1.07.44-1.13,1.13-1.93.42-2.14-.88-2.26-2.26,1.19-.06.89-1.45-1.13-1.13-.28-1.23-2.25-.77-2.26-2.26h2.26c1.13,0,1.35-.92,2.26-1.13Z"/><path class="cls-6" d="m132.41,80.35c.06-.69.17-1.34,1.13-1.13,1.45.06,1.57,1.45,3.39,1.13-.78-3.8,1.9-4.14,4.53-4.53.31,3.97,5.01-2.04,4.53,1.13.22.92,1.14,1.13,1.13,2.26-3.48-.84-2.18,3.11-5.66,2.26-.4-1.49-1.99-1.78-2.26-3.4-1.68.49.45,1.45,0,3.4-2.79.15-5.45.17-6.79-1.13Z"/><path class="cls-6" d="m150.52,76.96c.06-.69.17-1.34,1.13-1.13.91,3.93-1.69,4.35-1.13,7.92h3.39c-.44,1.62-1.36,1.91,0,3.4h1.13c0,1.14.92,1.35,1.13,2.26-2.01.26-5.67-1.14-4.53,2.26-4.77.19.02-1.74,0-3.39-2.53.49-4.03,2-4.53,4.53.32,2.38,3.02-1.64,4.53,1.13,5.79,1.41-6.44,1.97-3.4,7.92-3.48-.79-2.17-.79-5.66,0,.13-2.14,3.74-.79,3.39-3.39-1.3,1.36-2.87.44-1.13,0-.18-1.33-2.06-.96-3.4-1.13.5-1.01.99-2.02,2.26-2.26-2.14-2.25-3.97-1.93-6.79-1.13.7-1.01,1.37-2.03,0-2.26.18-1.33,2.06-.95,3.4-1.13-.83-1.06-2.06-1.71-3.4-2.26-4.44,1.11,1.6,5.67-3.39,5.66.21-.96-.44-1.07-1.13-1.13-1.89-2.25.1-1.44,0-4.53-2.03-.14-2.39,1.39-4.53,1.13-.99-2.33,5.76-2.26,2.26-3.4-.35-2.3,3.27.23,3.39,1.13,1.33-.18.96-2.06,1.13-3.4,2.47-.21,3.6.93,3.39,3.4,1.11,1.53,3.81,1.47,4.53,3.39,3.86-2.77,5.19-3.69,9.05-4.53-3.71-2.79-4.52-1.7-7.92-3.39,2.92-2.72,6.4-1.5,6.79-4.53v-1.13Z"/><path class="cls-3" d="m6.79,78.09c1.27.24,1.76,1.26,2.26,2.26-1.59.3-1.29,2.48-2.26,3.39,2.11.16,3.78.75,4.53,2.26-1.56.05-2.48-.53-3.39-1.13-4.04-.96-.14-2.79-1.13-6.79Z"/><path class="cls-1" d="m46.4,83.75c-1.76-4.02,3.84-.68,3.4-3.39-1.32-.19-1.23-1.79-1.13-3.4,1.13,0,1.35.92,2.26,1.13.36,1.94,3.5-1.04,4.53,2.26-2.02,2.13-3.06,5.24-5.66,6.79.7-1.01,1.37-2.02,0-2.26-.18-1.33-2.06-.96-3.4-1.13Z"/><path class="cls-2" d="m125.62,97.33c2.15-7.26-6.44-8.5-1.13-13.58-3.56-1.3-2.75,1.78-4.53,2.26.34-2.22-1.53-2.24-2.26-3.39,2.81.17,3.5-1.78,5.66-2.26.13,1.38.34,2.68,2.26,2.26-.53-3.55,2.85-3.19,4.53-4.53.13,1.38.34,2.68,2.26,2.26,1.34,1.3,4,1.28,6.79,1.13.45-1.95-1.68-2.9,0-3.4.27,1.62,1.86,1.91,2.26,3.4-1.31-.18-2.01.25-2.26,1.13,2-.36,2.02,6.34-1.13,4.53.21-2.47-.93-3.6-3.39-3.4-.18,1.33.19,3.21-1.13,3.4-.13-.9-3.74-3.43-3.39-1.13,3.49,1.14-3.25,1.07-2.26,3.4,2.14.25,2.5-1.27,4.53-1.13.1,3.09-1.89,2.28,0,4.53-2.78.76-3.47,6.58-2.26,7.92-.91-.78-3.1-1.76-3.4,0-1.1-.03-.88-1.38-1.13-2.26,1.28-.22.63-1.14,0-1.13Z"/><path class="cls-4" d="m151.65,93.93c-1.5-2.77-4.21,1.24-4.53-1.13.49-2.53,2-4.04,4.53-4.53.02,1.66-4.77,3.59,0,3.39v2.26Z"/><path class="cls-2" d="m31.69,86.01c1.14,0,1.35.92,2.26,1.13,2.73-6.44,6.09-3.49,12.45-3.4,1.33.18,3.21-.19,3.4,1.13-2.27-.38-3.54.23-3.4,2.26-1.49-.4-1.78-1.99-3.39-2.26-3.17,2.11-4.17,6.4-5.66,10.19-.91-.6-1.84-1.18-3.39-1.13,2.74-2.88-1.13-5.52-2.26-7.92Z"/><path class="cls-2" d="m112.04,86.01h2.26c.44,1.62,1.36,1.91,0,3.4,2.52-.49,6.14-2.6,6.79,1.13-1.33.18-3.21-.19-3.4,1.13,2.12-.06,2.4.87,1.13,2.26-.5,1.01-.99,2.02-2.26,2.26-.4-1.49-1.99-1.78-2.26-3.39-1.85,3.42-6.43,4.59-5.66,7.92-.32,2.58.27,4.25,2.26,4.53v2.26c-2.41-.53-2.16,1.62-2.26,3.39-3.14-1-4.1-4.2-7.92-4.53.22-.92,1.13-1.13,1.13-2.26,2.07-3.18-1.96-.89-4.53,0,.34-2.22-1.53-2.24-2.26-3.4,3.61.97,3.5-1.78,5.66-2.26,3.31-.94,3.67,6.75,5.66,3.39-2.33-.31-.27-5.01-3.39-4.53-.62-1.74,8.05-4.35,4.53-1.13,8.02-2.15-2.43-7.57,4.53-10.19Z"/><path class="cls-2" d="m29.42,88.27c-3.93,2.97-6.03-3.46,0-3.4.69.06,1.34.17,1.13,1.13-1.1.03-.88,1.39-1.13,2.26Z"/><path class="cls-2" d="m32.82,93.93c.32,1.83-1.07,1.95-1.13,3.39,1.11,2.95,7.21,1.28,7.92-1.13,3.15.62-1.59,9.13,4.53,6.79-3.8,1.88-.18,2.96,0,6.79-1.01.5-2.02.99-2.26,2.26-1.28-2.4-.44-3.29-2.26-6.79-2.01-.26-5.67,1.14-4.53-2.26-3.66-1.4-.86,3.66-4.53,2.26,2-7.29-.9-.79-2.26-5.66,2.7-.62,5.35-7.07,1.13-7.92v-1.13c1.83.32,1.95-1.07,3.4-1.13v4.53Z"/><path class="cls-3" d="m167.49,86.01h2.26c0,1.14.92,1.35,1.13,2.26-3.3-.32-3.89.27-2.26,2.26-3.13-.19-3.89,1.74-2.26,3.4-5.02-.17.4-6.3,1.13-7.92Z"/><path class="cls-3" d="m16.98,97.33c-3.79-1.02-.99-2.53,0-4.53h2.26c2.63,1.66-2.21,3.59,2.26,3.39-.98,3.29-1.69,1.27-4.53,1.13Z"/><path class="cls-1" d="m130.15,100.72c-1.2-1.34-.51-7.16,2.26-7.92.69.06,1.34.17,1.13,1.13-2.23.79.28,6.31-2.26,6.79h-1.13Z"/><path class="cls-6" d="m125.62,98.46c.25.88.03,2.23,1.13,2.26.29-1.76,2.48-.78,3.4,0h1.13c-.16,4.06,2.9-.12,5.66,2.26.57-1.46,1.2-2.34,2.26-5.66,2.37,1.68,8.12,10.6,1.13,11.32.18-1.32-.25-2.01-1.13-2.26-.18-1.33-2.06-.95-3.39-1.13-.92-.22-1.13-1.13-2.26-1.13-.46,1.79-3.05,2.62-1.13,6.79-3.61-.97-3.5,1.78-5.66,2.26,2.77,2.17,5.13,5.43,9.05,3.39,1.36,1.49.44,1.78,0,3.4-3.84.5-1.11,5,1.13,2.26-1.03,2.37-3.34,3.45-6.79,3.39-.05-2.89.84-1.38,2.26-1.13-5.92-3.74,3.65-5.14-4.53-7.92-1.81.1-5.2,6.75-1.13,5.66-.6.91-1.18,1.84-1.13,3.39-2.03.14-2.39-1.39-4.53-1.13,2.62-2.6-.54-5.21-2.26-6.79-2.83.78,2.1,3.02,1.13,5.66-4.7-1.77-5.54.95-11.32-1.13h-2.26c.82-3.46-1.16-4.12-1.13-6.79,1.01.88,2.55,1.22,4.53,1.13.32,1.83-1.07,1.95-1.13,3.4,3.64,3.45,4.5.99,4.53-1.13-.21.96.44,1.07,1.13,1.13,2.14-3.08-1.98,3.02,3.39,1.13.14-2.03-1.39-2.39-1.13-4.53-1.83-.32-1.95,1.07-3.4,1.13-.22-.92-1.13-1.13-1.13-2.26,3.31-2.48,7,2.21,10.19,3.4,2.47.21,3.6-.93,3.4-3.4-3.71-2.71-4.26-3.46-4.53-7.92,2.89.13,3.96,2.07,5.66,3.39.92-.22,1.13-1.13,2.26-1.13-.03-1.1-1.39-.88-2.26-1.13,2.24-2.89-1.17-5.2,1.13-6.79-.63-2.56-1.76,1.37-3.39-1.13-.18-1.31.25-2.01,1.13-2.26Z"/><path class="cls-1" d="m27.16,96.2c2.77-2.67-1.69-2.1-1.13-5.66,1.56-.05,2.48.53,3.39,1.13,4.21.85,1.57,7.31-1.13,7.92h-1.13c-4-.34,4.79-2.27,0-3.4Z"/><path class="cls-3" d="m4.53,91.67c1.5.01,1.03,1.98,2.26,2.26,1.64.5-.12.99,0,2.26,1.63-.63,2.76-1.77,3.39-3.39,2.94-.68,4.07.45,3.4,3.39h-1.13c.19-4.77-1.74.02-3.39,0,.5,1.01.99,2.02,2.26,2.26-.03,1.1-1.38.88-2.26,1.13-1.03-3.91-8.6-1.95-4.53-7.92Z"/><path class="cls-4" d="m48.66,95.06c1.69.19,4.18-.4,4.53,1.13-1.95-.06-2.9.87-3.4,2.26,1.95.45,2.9-1.68,3.4,0-5.78,4.48-3.43,4.31-5.66,1.13.88-1.01,1.22-2.55,1.13-4.53Z"/><path class="cls-2" d="m47.53,109.78h-2.26c-3.08-3.07,5.67-6.59,2.26-2.26,3.63-4.61,7.68-11.13,6.79-5.66-3.7,1.21-3.63,6.18-6.79,7.92Z"/><path class="cls-4" d="m125.62,98.46c-.88.25-1.32.95-1.13,2.26,1.63,2.5,2.76-1.42,3.39,1.13-2.3,1.59,1.11,3.9-1.13,6.79.88.25,2.23.03,2.26,1.13-1.14,0-1.35.92-2.26,1.13-1.7-1.32-2.77-3.27-5.66-3.39.27,4.47.81,5.21,4.53,7.92.21,2.47-.93,3.6-3.4,3.4-3.18-1.18-6.88-5.88-10.19-3.4v-2.26c2.94-2.98-1.83-.89-1.13-4.53-2.81,3.74-5.9,6.47-1.13,6.79v1.13c-1.97.08-3.52-.25-4.53-1.13-.03,2.67,1.95,3.33,1.13,6.79h2.26c.21,4.34-.93.41-3.39,1.13v-2.26c-1.31-.18-2.01.25-2.26,1.13-2.59-3.83-4.12-.03-9.05-2.26,1.36-1.49.44-1.78,0-3.4,3.09.1,2.28-1.89,4.53,0v1.13c2.35-.63,2.4-1.77,1.13-3.39,1.56-.05,2.48.53,3.39,1.13.56-3.55-3.9-2.99-1.13-5.66.05-1.94-.84-2.93-2.26-3.39.13-1.38.34-2.68,2.26-2.26,0,1.14-.92,1.35-1.13,2.26,3.83.32,4.78,3.52,7.92,4.53.11-1.78-.15-3.92,2.26-3.39v-2.26c.88-6.36.65,4.5,3.39,0,.92.22,1.13,1.14,2.26,1.13,2.31-.71.32-5.72,4.53-4.53.21-2.47-.93-3.6-3.4-3.39.21-.96-.44-1.07-1.13-1.13v-1.13c1.27-.24,1.76-1.26,2.26-2.26,1.5.16,4.21-3.81,4.53-1.13-.27,1.61-1.86,1.91-2.26,3.39,1.97-.08,3.52.25,4.53,1.13.63,0,1.28.92,0,1.13Z"/><path class="cls-6" d="m112.04,113.17c-4.47-2.76.84,1.26-2.26,2.26-4.77-.32-1.67-3.05,1.13-6.79-.7,3.64,4.07,1.55,1.13,4.53Z"/><path class="cls-2" d="m117.7,98.46c2.47-.21,3.6.93,3.4,3.39-4.21-1.19-2.22,3.82-4.53,4.53-1.14,0-1.35-.92-2.26-1.13v-4.53c2.51.62,1.61-2.16,3.39-2.26Z"/><path class="cls-2" d="m88.27,98.46v3.39c-1.06-.69-4.17-2.63-3.4,1.13-1.39-1.26-2.32-.99-2.26,1.13-1.42-.46-2.31-1.46-2.26-3.4-1.47-2.66.58-2.53-2.26-4.53,1.5-.01,1.03-1.98,2.26-2.26-.54,3.53,1.41,5.48,3.4,3.39.08,5.56,2.59-2.56,4.53,1.13Z"/><path class="cls-3" d="m153.91,97.33c.64-1.06,3.15-1.71,1.13-2.26.96-3.32,2.85,1.47,5.66,0v2.26c1.32.18,2.01-.25,2.26-1.13,4.53,1.17-.26,4.49-2.26,5.66.94-3.2-1.59-2.93-1.13-5.66-2.08,2.09-3.9,5.52-2.26,0-.91.6-1.84,1.18-3.39,1.13Z"/><path class="cls-3" d="m160.7,104.12c4.88,1.11,3.29-4.25,6.79-4.53,1.08-2.11-3.39-3.78,0-4.53.88,1.01,1.22,2.56,1.13,4.53-.13,2.14-3.74.79-3.39,3.4,1.33.18,3.21-.2,3.39,1.13-3.39,2.16-.02,4.05-3.39,5.66h-1.13c-.24-1.37-1.25-.7-2.26,0,.42-1.93-.88-2.14-2.26-2.26.03-1.1,1.38-.88,2.26-1.13.51-1.85-6.17-1.85-5.66,0h-1.13c2.77-1.5-1.24-4.21,1.13-4.53,2.02-.32,2.32,1.07,1.13,1.13.63,2.56,1.77-1.37,3.39,1.13Z"/><path class="cls-2" d="m12.45,96.2h1.13c1.43,1.75,2.28,8.99,4.53,3.4-2.12.06-2.4-.87-1.13-2.26,2.83.14,3.54,2.16,4.53-1.13-4.47.19.36-1.74-2.26-3.39h-2.26c-4.95-.5,2.14-2.39-1.13-5.66,2.42.05,5.41-5.01,6.79-2.26-3.81,3.52,2.66,6.33,1.13,11.32h2.26c-.35,1.54-2.83.94-4.53,1.13.4,1.49,1.99,1.78,2.26,3.4h-4.53c.98,3.29,1.69,1.27,4.53,1.13-1.98,2.31.84,2.22-1.13,4.53,3.54-1.24,3.62-1.16,3.39,3.39-.92.22-1.13,1.13-2.26,1.13-1.11-1.16-2.24-2.29-3.4-3.39-.99-2-3.59-3.3-1.13-5.66-2.25.01-1.44,3.09-4.53,2.26-.63-1.63-1.76-2.76-3.4-3.4.4-1.49,1.99-1.78,2.26-3.4-2.02.32-2.32-1.07-1.13-1.13Z"/><path class="cls-6" d="m108.64,100.72c2.83-.94,4.44-3.1,7.92-3.4.69.06,1.34.17,1.13,1.13-1.78.1-.89,2.89-3.39,2.26v4.53c-2.74,4.5-2.52-6.36-3.39,0-1.99-.27-2.58-1.95-2.26-4.53Z"/><path class="cls-3" d="m9.05,100.72c.26,1.63,3.38.39,3.39,2.26.05,2.89-.84,1.38-2.26,1.13.08,5.06,2.59,1.44,4.53,3.4-.35,1.54-2.83.94-4.53,1.13-.12-2.81-2.12-3.5,0-5.66-2.47.21-3.6-.93-3.39-3.4,1.13,0,1.35.92,2.26,1.13Z"/><path class="cls-4" d="m56.59,99.59h1.13c1.17,4.16,4.33,1.05,2.26,6.79,5.84.72,5.93-4.35,7.92,1.13-.53-3.55,2.85-3.19,4.53-4.53-.48,3.12,4.22,1.06,4.53,3.4-3.52-1.88-4.05,5.64-2.26,2.26,3.8-4.64,5.87,6.07,9.05,2.26-.38-4.01-3.11-2.78-1.13-6.79-.06-2.12.87-2.4,2.26-1.13-.78-3.77,2.34-1.82,3.4-1.13h2.26c1.33,1.69,2.84,3.19,4.53,4.53-2.47-.21-3.6.93-3.4,3.39-2,1.01-1.44,4.59-5.66,3.4.75,1.52,2.42,2.11,4.53,2.26-.22.92-1.14,1.13-1.13,2.26-3.48-.79-2.18-.79-5.66,0-.88-1.01-1.22-2.55-1.13-4.53-2.6,1.77-7.95,4.81-5.66,7.92v1.13c-1.1.03-.88,1.39-1.13,2.26-3.36-.17-3.55-13.85-6.79-6.79-1.61-1.7-4.19-4.88-2.26-6.79-4.48,1.39-5.41,2.86-7.92-1.13-3.07,1.02,2.59,2.53,2.26,4.53-.08,3.32-2.59,4.2-4.53,5.66-3.39-.16,6.9-4.18,0-4.53-.83-1.06-2.06-1.71-3.4-2.26-.96.21-1.07-.44-1.13-1.13.96.21,1.07-.44,1.13-1.13,4.25.85,2.47-4.32,5.66-4.53.81-1.84-5.34-1.84-4.53,0-2.74,2.1,2.01-4.69,2.26-6.79Z"/><path class="cls-2" d="m91.67,109.78c-.15,2.79-.17,5.45,1.13,6.79h1.13c.44,1.61,1.36,1.91,0,3.4-.92-.22-1.13-1.13-2.26-1.13.04,4.49,4.37,4.69,6.79,6.79,1.64-1.35,1.52-5.37,4.53-2.26-1.66,2.57-4.96,4.02,0,5.66.19,2.46-4.01.51-5.66,1.13.18-1.32-.25-2.01-1.13-2.26-.26-1.63-3.38-.39-3.39-2.26-1.21-1.06-.35-4.17-3.39-3.39,1.88-2.25-.1-1.44,0-4.53,0-1.13.92-1.35,1.13-2.26-2.11-.16-3.78-.74-4.53-2.26,4.22,1.2,3.65-2.38,5.66-3.4Z"/><path class="cls-6" d="m76.96,121.09c-2.29-3.12,3.06-6.15,5.66-7.92-.08,1.97.25,3.52,1.13,4.53,3.48-.79,2.17-.79,5.66,0-.1,3.09,1.88,2.28,0,4.53,3.04-.78,2.19,2.34,3.39,3.39h-1.13c-1.77-.25-3.94-5.69-4.53-3.39-1.59-.4-.1-1.99,1.13-2.26-.22-.92-1.13-1.13-1.13-2.26-1.66-.02-3.59,4.77-3.39,0-1.54.35-.94,2.83-1.13,4.53-1.31-.95-3.03-1.49-5.66-1.13Z"/><path class="cls-6" d="m56.59,115.44c6.9.34-3.39,4.37,0,4.53,1.94-1.46,4.45-2.34,4.53-5.66.32-1.99-5.33-3.5-2.26-4.53,2.51,3.99,3.44,2.52,7.92,1.13-1.93,1.91.66,5.09,2.26,6.79,3.24-7.06,3.43,6.62,6.79,6.79.25-.88.03-2.23,1.13-2.26-.86,4.64,3.65,3.9,6.79,4.53v1.13c-3.46.82-4.12-1.16-6.79-1.13-2.25.01-1.44,3.09-4.53,2.26-1.02-3.31-1.02-3.48,0-6.79-1.06.83-1.71,2.06-2.26,3.39-2.75-.65.53-7.32-3.39-6.79-2.18.46-.89,4.39-4.53,3.39,1.62-3.38-.92-3.85,1.13-6.79-3.36,2.28-3.9,4.01-4.53,6.79-1.79-.09-4.32.54-4.53-1.13,2.69.67-3.22-6.76,2.26-5.66Z"/><path class="cls-2" d="m135.81,119.96c.44-1.61,1.36-1.91,0-3.4-3.93,2.04-6.28-1.23-9.05-3.39,2.16-.48,2.05-3.23,5.66-2.26-1.92-4.17.67-5,1.13-6.79,1.14,0,1.35.92,2.26,1.13-3.59,1.85-2.16,8.08,2.26,10.19.19-2.83-1.74-3.54-3.39-4.53.36-2.66,3.5-2.53,4.53-4.53.88.25,1.32.95,1.13,2.26,6.99-.72,1.24-9.64-1.13-11.32-1.07,3.32-1.69,4.2-2.26,5.66-2.76-2.38-5.82,1.79-5.66-2.26,2.54-.48.03-6,2.26-6.79,4.99,0-1.04-4.55,3.39-5.66,1.34.55,2.57,1.21,3.4,2.26-1.33.18-3.21-.19-3.4,1.13,1.37.24.7,1.26,0,2.26,2.82-.8,4.65-1.11,6.79,1.13-1.27.24-1.76,1.26-2.26,2.26,1.33.18,3.21-.19,3.4,1.13-1.74.44-.17,1.36,1.13,0,.35,2.61-3.27,1.26-3.39,3.39,3.48-.79,2.18-.79,5.66,0-3.04-5.95,9.18-6.52,3.4-7.92v-2.26c-1.14-3.4,2.52-2.01,4.53-2.26,3.78-1.14,3.71,1.57,3.4,4.53,1.95-.06,2.9.87,3.39,2.26-.25.88-.95,1.31-2.26,1.13v-2.26c-2.81,1.47-4.7-3.32-5.66,0,2.01.55-.49,1.21-1.13,2.26-3.65-1.01-1.59,3.69-3.39,4.53-.53,3.55,2.85,3.19,4.53,4.53h1.13c-2.16.42-8.11,6.23-1.13,5.66v1.13h-1.13c-3.45,3.31-2.21-4.44-5.66-4.53-3.39.75,1.08,2.42,0,4.53.21,4.34-.93.41-3.39,1.13.49,1.39,1.45,2.32,3.39,2.26-.5,1.01-.99,2.02-2.26,2.26-3.58.19-3.78-3.01-7.92-2.26-1.2-.55-.13,6.25-2.26,3.4Z"/><path class="cls-2" d="m108.64,122.23c5.77,2.09,6.62-.63,11.32,1.13.97-2.64-3.96-4.88-1.13-5.66,1.73,1.58,4.88,4.19,2.26,6.79,2.14-.25,2.5,1.28,4.53,1.13-.05-1.56.53-2.48,1.13-3.39-4.06,1.09-.68-5.56,1.13-5.66,8.18,2.79-1.39,4.19,4.53,7.92-1.42-.25-2.31-1.76-2.26,1.13,3.45.06,5.76-1.03,6.79-3.39,4.58,2.84-7.25,4.67-3.39,6.79v1.13c-2.41-.53-2.15,1.62-2.26,3.4-5.75-1.98-.02.75-4.53,1.13-.79-.91-1.76-3.1,0-3.39.91-.6,1.84-1.18,3.4-1.13-2.41-3.08-4.21-2.46-6.79-3.4v3.4c.91-.79,3.1-1.76,3.39,0-3.18,1.16-4.82,1.29-4.53-3.4-3.51-3.88-4.33-.04-9.05,0-1.36-3.42-5.38.6-2.26,2.26-1.99.27-2.58,1.95-2.26,4.53-1.33-.18-.95-2.06-1.13-3.4-1.94-.24-2.93,1.93-3.4,0v-1.13c6.06,2.76,7.44-3.15,0-2.26-.32-1.83,1.07-1.95,1.13-3.39,2.47-.72,3.6,3.21,3.39-1.13Z"/><path class="cls-1" d="m47.53,109.78c3.16-1.74,3.09-6.72,6.79-7.92.84,3.48-3.11,2.17-2.26,5.66-.83,1.18-4.31,5.32-4.53,3.39v-1.13Z"/><path class="cls-1" d="m156.18,106.38c-.51-1.85,6.17-1.85,5.66,0-.88.25-2.23.03-2.26,1.13,1.38.13,2.68.34,2.26,2.26-.25.88-.95,1.32-2.26,1.13-3.99-5.6-.97,1.23-4.53,2.26v-1.13c-6.98.58-1.03-5.24,1.13-5.66Z"/><path class="cls-3" d="m4.53,110.91c1.62-.27,1.91-1.86,3.4-2.26-.99,1.65-.9,4.38-4.53,3.4,1.2,1.89,4.31,7.66,6.79,4.53,3.55-.56,2.99,3.9,5.66,1.13.02,3-.63,6.66,2.26,6.79,1.42-.28,1.14-2.25,0-2.26,3.55-1.48,2.13,5.97,3.4,9.05,4.21-1.12,2.96-2.42,7.92-1.13-.83,1.06-2.06,1.71-3.39,2.26v-2.26c-2.25.01-1.44,3.09-4.53,2.26-1.93-.71-1.86-3.42-3.4-4.53-.97-4.07-4.36-1.2-7.92-1.13-4.48-5.85-4.89-11.7-9.05-15.84v-1.13h1.13c1.14,0,1.35.92,2.26,1.13Z"/><path class="cls-3" d="m16.98,109.78c.83-1.06,2.06-1.71,3.39-2.26,1.16,1.11,2.29,2.24,3.4,3.39-.21.92-1.14,1.13-1.13,2.26-1.78-.49-.97-3.56-4.53-2.26.21-.96-.44-1.07-1.13-1.13Z"/><path class="cls-2" d="m99.59,106.38c1.42.46,2.31,1.46,2.26,3.39-4.96.82.91-2.25-2.26-2.26-.46,2.82-5.18.86-3.39-2.26,1.45.06,1.57,1.45,3.39,1.13Z"/><path class="cls-1" d="m135.81,105.25c1.33.18,3.21-.19,3.39,1.13-1.02,1.99-4.17,1.87-4.53,4.53,1.66.98,3.59,1.69,3.39,4.53-4.42-2.1-5.85-8.33-2.26-10.19Z"/><path class="cls-6" d="m37.35,113.17h-1.13c.12-2.14,3.74-.79,3.4-3.4-1.21-1.36-3.43-.79-6.79,0-4.77-8.16-4.04-.82-5.66,1.13-.96.21-1.07-.44-1.13-1.13.22-4.55.14-4.64-3.39-3.39,1.97-2.31-.84-2.22,1.13-4.53-2.83.14-3.54,2.16-4.53-1.13h4.53c-.35,2.3,3.27-.23,3.39-1.13h1.13c1.37,4.87,4.27-1.63,2.26,5.66,3.66,1.4.87-3.66,4.53-2.26-1.14,3.4,2.52,2.01,4.53,2.26,1.83,3.5.98,4.4,2.26,6.79.24-1.27,1.26-1.76,2.26-2.26-.18-3.83-3.8-4.91,0-6.79-6.12,2.34-1.38-6.17-4.53-6.79-.71,2.41-6.81,4.08-7.92,1.13.06-1.45,1.45-1.57,1.13-3.39h1.13c1.56-.05,2.48.53,3.39,1.13,1.49-3.79,2.49-8.07,5.66-10.19,1.61.27,1.91,1.86,3.39,2.26-.15-2.03,1.12-2.65,3.4-2.26,1.37.24.7,1.26,0,2.26-.21,3.68-1.97.82-5.66,2.26v4.53c4.67.55-1.52-3.47,4.53-2.26v3.4c.08,1.97-.25,3.52-1.13,4.53,2.22,3.18-.12,3.35,5.66-1.13,2.47.72,3.6-3.21,3.4,1.13-.26,2.1-5.01,8.89-2.26,6.79-.81-1.84,5.34-1.84,4.53,0-3.19.2-1.41,5.38-5.66,4.53-2.5-1.63,1.42-2.76-1.13-3.39-.84-3.48,3.11-2.17,2.26-5.66.89-5.47-3.16,1.04-6.79,5.66,3.41-4.33-5.34-.8-2.26,2.26h2.26v1.13c-2.92,1.18-7.52,5.11-3.39,6.79h-1.13c-5.52-.22-.45-4-5.66-4.53Z"/><path class="cls-1" d="m7.92,108.64h2.26c1.69-.19,4.18.4,4.53-1.13-1.94-1.95-4.45,1.66-4.53-3.4,1.42.25,2.31,1.76,2.26-1.13-.02-1.87-3.14-.63-3.39-2.26v-1.13c.88-.25,2.23-.03,2.26-1.13-1.27-.24-1.76-1.26-2.26-2.26,1.66.02,3.59-4.77,3.39,0-1.19.06-.89,1.45,1.13,1.13-.27,1.61-1.86,1.91-2.26,3.4,1.63.63,2.76,1.77,3.4,3.4,3.09.82,2.28-2.25,4.53-2.26-2.46,2.36.14,3.66,1.13,5.66-1.34.55-2.57,1.21-3.39,2.26-4.92-.39-4.44,4.61-6.79,6.79-2.48,3.14-5.59-2.63-6.79-4.53,3.63.99,3.54-1.74,4.53-3.4Z"/><path class="cls-2" d="m109.78,115.44c3.1-1-2.21-5.02,2.26-2.26v2.26c0,1.13.92,1.35,1.13,2.26v1.13c-.03,2.13-.89,4.58-4.53,1.13.06-1.45,1.45-1.57,1.13-3.4v-1.13Z"/><path class="cls-1" d="m148.25,113.17c1.08-2.11-3.39-3.78,0-4.53,3.45.09,2.21,7.84,5.66,4.53-.82,3.9-3.41.75-5.66,0Z"/><path class="cls-3" d="m155.04,113.17c3.56-1.04.54-7.87,4.53-2.26-2.08,1.32-3.83,2.96-5.66,4.53-.91.6-1.84,1.18-3.39,1.13-1.4,3.66,3.66.87,2.26,4.53-1.32-.18-2.01.25-2.26,1.13-1.67.59-2.85,1.67-4.53,2.26-.82,1.85,2.25,4.92,2.26,2.26h1.13c-.6.91-1.18,1.84-1.13,3.4-.96-.21-1.07.44-1.13,1.13-3.51-1.3.22-5.34-4.53-6.79-1.23.28-.77,2.25-2.26,2.26.49,1.78,3.56.97,2.26,4.53-1.1-.03-.88-1.38-1.13-2.26-1.3.4-2.87,1.99-1.13,2.26-.36,3.75-3.5-4.41-4.53,0,.18,1.32-.25,2.01-1.13,2.26-.35,2.61,3.27,1.26,3.39,3.39-.13,2.77-3.74.24-3.39-1.13-.5-1.64-.99.11-2.26,0v-1.13c-.48-2.36.78-3,1.13-4.53v-1.13c2.16,2.12,2.05-.67,5.66,0-.9-3.91,1.26-4.78,2.26-6.79,3.87,1.62,6.61.94,4.53-3.39,1.27-.24,1.76-1.26,2.26-2.26-1.95.06-2.9-.87-3.39-2.26,2.47-.72,3.6,3.21,3.39-1.13,2.25.75,4.83,3.9,5.66,0h1.13Z"/><path class="cls-1" d="m32.82,109.78c3.36-.79,5.58-1.36,6.79,0,.35,2.61-3.27,1.26-3.4,3.4h1.13c-.74,1.52-2.42,2.11-4.53,2.26.79-3.48.79-2.17,0-5.66Z"/><path class="cls-2" d="m54.32,121.09c.21,1.68,2.73,1.04,4.53,1.13.63-2.78,1.17-4.51,4.53-6.79-2.06,2.94.49,3.41-1.13,6.79,3.63.99,2.35-2.94,4.53-3.39,3.93-.53.65,6.14,3.39,6.79.55-1.34,1.21-2.57,2.26-3.39-1.02,3.31-1.02,3.48,0,6.79,3.09.83,2.28-2.25,4.53-2.26v2.26c-2.31.33-2.22,3.06-4.53,3.4h-1.13c-1.8-.93-4-7.2-6.79-3.4-1.01.5-2.02.99-2.26,2.26-3.39-.74,1.08-2.42,0-4.53-2.04-1.42-5.55-.61-9.05,1.13-.06-3.71-3.22-4.33-2.26-9.05.91.97,3.1.67,3.4,2.26Z"/><path class="cls-2" d="m18.11,110.91c3.56-1.3,2.75,1.78,4.53,2.26-.78,2-1.25,3.5,0,4.53,1.74.6.07,1.18-1.13,1.13-.41-3.27-1.05-2.68-3.4-5.66v-2.26Z"/><path class="cls-6" d="m47.53,133.54c-1.19-3.41-3.26-5.12-6.79-3.4.01-2.25,3.09-1.44,2.26-4.53,10.99,3.49,5.36-4.85,2.26-12.45.34,2.26,7.18,4.4,5.66-1.13h1.13c.06.69.17,1.34,1.13,1.13-.48,2.16-3.23,2.05-2.26,5.66-.95,4.73,2.2,5.34,2.26,9.05,3.5-1.74,7.02-2.55,9.05-1.13,1.08,2.11-3.39,3.78,0,4.53.24-1.27,1.26-1.76,2.26-2.26-.18,1.32.25,2.01,1.13,2.26-.28,1.42-2.25,1.14-2.26,0-2.61-.35-1.26,3.27-3.4,3.39.96,2.67,2.79-3.12,6.79-1.13.14,2.03-1.39,2.39-1.13,4.53,6.84-1.1,1.63-6.37,6.79-5.66,2.31-.33,2.22-3.06,4.53-3.4,1.36,1.49.44,1.78,0,3.4-3.33,2.49-1.14,4.63-4.53,7.92,3.31-1.22,5.93-3.13,5.66-7.92h1.13c.65.69,2.65,5.37,0,5.66.63,3.28,1.77-1.74,3.4-1.13.28,3.81-6.77,3.28-3.4,6.79-.18,1.33-2.06.96-3.39,1.13-.19,5.52,3.98,1.39,5.66,3.4.48-2.37-.78-3-1.13-4.53v-1.13c1.93.42,2.14-.88,2.26-2.26,1.65.99,4.38.9,3.39,4.53,2.5-.14.48-4.8,1.13-6.79,2.08,2.39,3.9,3.29,2.26,6.79,2.61.35,1.26-3.27,3.39-3.39-.49-1.39-1.45-2.32-3.39-2.26.88-1.01,1.22-2.56,1.13-4.53h3.39c-.22-.92-1.14-1.13-1.13-2.26-2-.32-3.5,5.33-4.53,2.26.92-.22,1.13-1.14,2.26-1.13-.29-2.35-4.97-.31-5.66-2.26,1.83-1.57,3.58-3.21,5.66-4.53-.44,3.51,5.45,4.61,5.66,1.13.88.25,1.31.95,1.13,2.26,1.64-.62,5.85,1.32,5.66-1.13-4.96-1.64-1.66-3.09,0-5.66-3.01-3.11-2.89.91-4.53,2.26-2.42-2.1-6.75-2.3-6.79-6.79,1.13,0,1.35.92,2.26,1.13,4.93,2.23,6.46-1.57,9.05,2.26.25-.88.95-1.31,2.26-1.13v2.26c-.06,1.45-1.45,1.57-1.13,3.39,7.44-.88,6.06,5.02,0,2.26v1.13c-.91.6-1.84,1.18-3.4,1.13-3.33-1.05-7.35-.76-4.53,2.26-.55-2.84,5.19,2.73,5.66-1.13,2.02-.32,2.32,1.07,1.13,1.13.64-.87,5.32,4.92,5.66,0-.32-2.58.27-4.25,2.26-4.53-.21,2.47.93,3.6,3.39,3.4-1.91-1.09-3.34-3.56-1.13-5.66,4.73-.04,5.55-3.88,9.05,0-.29,4.68,1.34,4.55,4.53,3.4v1.13c-1.76.29-.79,2.48,0,3.39-.96-.21-1.07.44-1.13,1.13.14,2.03-1.39,2.39-1.13,4.53-.96-2.47-1.16-10.2-3.39-12.45-2.36-.48-3,.78-4.53,1.13-.46,2.73,2.07,2.46,1.13,5.66-3.2-.93-2.93,1.6-5.66,1.13.7-1.01,1.37-2.02,0-2.26-3.07,1.02.95,4.17,2.26,4.53-7.52,3.32-8.57,4.3-12.45,7.92.67-3.93.29-8.09,4.53-5.66-1.16-5.52-5.72-1.56-9.05-5.66-1.06.83-1.71,2.06-2.26,3.4,1.56-1.18,8.79-1.18,3.4,0-1.78.49-.97,3.56-4.53,2.26,2.18,2.82-1.73,4.65,1.13,6.79.83-1.06,2.06-1.71,3.4-2.26v-5.66c.5,5.72,4.56,10.71,3.39,14.71-2.9-.12-1.82-4.22-3.39-5.66-1.48,2.9-5.99-2.63-6.79,0,1.67,2.38-2.75-1.49,1.13-3.4-4.94-.74-5.87,8.4-4.53,10.19-.26,1.63-3.38.39-3.4,2.26-1.23-.28-.77-2.25-2.26-2.26.33-2.31,3.06-2.22,3.39-4.53-1.96-3.61-5.07-1.21-6.79,1.13-.89-4.01-5.92-3.89-6.79-7.92-1.7-2.63-2.77-1.73-5.66-1.13-2.37.48-3-.78-4.53-1.13.48-2.16,3.23-2.05,2.26-5.66-4.57,4.51-4.13.84-10.19,4.53-1.28,3.94,7.03,8.54,1.13,6.79h-1.13c.05-1.94-.84-2.93-2.26-3.39.36-2.66,1.79-4.25,1.13-7.92-1.83-.32-1.95,1.07-3.4,1.13.62-2.51-2.16-1.61-2.26-3.39Zm27.16,10.18c.36-2.66,3.5-2.53,4.53-4.53-1.38-2.48-8.13,2.31-4.53,4.53Z"/><path class="cls-6" d="m24.9,117.7c3.31.3,3.48-2.56,6.79-2.26-2.99,3.67,2.89,4.27-1.13,6.79h-3.39c-.5-1.01-.99-2.02-2.26-2.26v-2.26Z"/><path class="cls-2" d="m153.91,115.44c.88.25,2.23.03,2.26,1.13-1.84-.34-3.05,1.53-1.13,2.26-.5,1.01-.99,2.02-2.26,2.26,1.4-3.66-3.66-.87-2.26-4.53,1.56.05,2.48-.53,3.39-1.13Z"/><path class="cls-1" d="m135.81,119.96c2.13,2.85,1.06-3.95,2.26-3.4,4.14-.74,4.34,2.45,7.92,2.26,2.08,4.34-.66,5.01-4.53,3.39-1.01,2.01-3.16,2.88-2.26,6.79-3.61-.67-3.5,2.12-5.66,0-3.85-2.12,7.97-3.95,3.39-6.79-2.24,2.73-4.98-1.77-1.13-2.26Z"/><path class="cls-2" d="m76.96,121.09c2.62-.36,4.35.18,5.66,1.13.19-1.69-.4-4.18,1.13-4.53-.19,4.77,1.74-.02,3.39,0,0,1.14.92,1.35,1.13,2.26-1.23.27-2.72,1.86-1.13,2.26.59-2.3,2.76,3.15,4.53,3.39.21.96-.44,1.07-1.13,1.13-2.08,1.32-3.83,2.96-5.66,4.53.69,1.95,5.37-.09,5.66,2.26-1.14,0-1.35.92-2.26,1.13-2.47-.21-3.6.93-3.4,3.4-3.24-.15.98-7.77-2.26-7.92.21-.92,1.13-1.13,1.13-2.26,1.87,3.16,7.17-2.38,3.39-4.53-.63,1.63-1.76,2.76-3.39,3.39-3.14-.63-7.65.11-6.79-4.53v-1.13Z"/><path class="cls-2" d="m24.9,119.96c1.27.24,1.76,1.26,2.26,2.26h2.26c-.03,1.1-1.38.88-2.26,1.13-.05,1.94.84,2.93,2.26,3.39-1.63,2.27-5.44,2.65-7.92,2.26.74-1.52,2.42-2.11,4.53-2.26-.78-.91-1.76-3.1,0-3.39-.03-1.1-1.38-.88-2.26-1.13.21-.92,1.13-1.13,1.13-2.26Z"/><path class="cls-1" d="m142.6,131.28c1.3-3.56-1.78-2.75-2.26-4.53,1.5-.01,1.03-1.98,2.26-2.26,4.75,1.45,1.02,5.49,4.53,6.79-.22,1.28-1.14.63-1.13,0-2.71-.45.63,5.15-3.39,3.39v-3.39Z"/><path class="cls-1" d="m30.56,122.23c1.94.24,2.93-1.93,3.4,0,3.58.56.42-5.62,4.53-4.53-2.8,3.96,3.53,3.56-1.13,5.66,1.69.61,1.33,1.13,4.53,2.26,1.4,3.66-3.66.87-2.26,4.53-1.68-3.23-3.3-6.51-9.05-5.66.03,3.87,4.79,6.61-1.13,4.53,2.94,1.21,3.38,4.92,6.79,5.66.32,1.83-1.07,1.95-1.13,3.4h-2.26c2.02-3.04-4.98-2.19-1.13-3.4-1.46-2.17-2.34,2.67-5.66,0-1.42-.28-1.14-2.25,0-2.26,1.34-.55,2.57-1.21,3.39-2.26-4.96-1.29-3.72,0-7.92,1.13-1.27-3.08.15-10.53-3.4-9.05,1.14.01,1.42,1.98,0,2.26-2.89-.13-2.25-3.79-2.26-6.79,1.3-3.56-1.78-2.75-2.26-4.53h4.53c2.35,2.98,2.98,2.39,3.4,5.66,1.2.05,2.87-.53,1.13-1.13-1.25-1.02-.78-2.53,0-4.53,0-1.14.92-1.35,1.13-2.26,1.13,0,1.35-.92,2.26-1.13.06.69.17,1.34,1.13,1.13-.18,1.33-2.06.96-3.39,1.13-.36,2.62.18,4.34,1.13,5.66v2.26c0,1.13-.92,1.35-1.13,2.26.88.25,2.23.03,2.26,1.13-1.76.29-.78,2.48,0,3.39-2.11.16-3.78.75-4.53,2.26,2.48.39,6.29,0,7.92-2.26-1.42-.46-2.31-1.46-2.26-3.39.88-.25,2.23-.03,2.26-1.13h1.13Z"/><path class="cls-1" d="m126.75,134.67c4.51-.38-1.22-3.11,4.53-1.13.11-1.78-.15-3.92,2.26-3.4-.36,1.53-1.61,2.16-1.13,4.53-3.38-.25-3.85,4.18-6.79,1.13.06-.69.17-1.34,1.13-1.13Z"/><path class="cls-2" d="m36.21,134.67c-3.41-.74-3.85-4.44-6.79-5.66,5.92,2.08,1.16-.66,1.13-4.53,5.76-.85,7.38,2.43,9.05,5.66-1.4-3.66,3.66-.87,2.26-4.53-3.19-1.14-2.84-1.66-4.53-2.26,4.66-2.1-1.67-1.7,1.13-5.66-4.11-1.09-.95,5.08-4.53,4.53-.46-1.93-1.46.24-3.4,0,4.02-2.52-1.86-3.12,1.13-6.79-3.31-.3-3.48,2.56-6.79,2.26-.95-1.31-1.49-3.03-1.13-5.66,1.33-.18,3.21.19,3.39-1.13,1.62-1.95.89-9.29,5.66-1.13.79,3.48.79,2.17,0,5.66,2.11-.16,3.78-.74,4.53-2.26,5.21.52.14,4.31,5.66,4.53v3.4c2.58.32,4.25-.27,4.53-2.26-.91-.6-1.84-1.18-3.39-1.13-4.12-1.68.47-5.61,3.39-6.79.21,1.92,3.69-2.21,4.53-3.39,2.56.63-1.37,1.77,1.13,3.39-.06.69-.17,1.34-1.13,1.13h-1.13c1.52,5.53-5.32,3.4-5.66,1.13,3.09,7.59,8.72,15.94-2.26,12.45.82,3.09-2.25,2.28-2.26,4.53,3.53-1.73,5.6-.01,6.79,3.4-4.23-1.21-3.23,2.81-6.79,2.26-.14,2.03,1.39,2.39,1.13,4.53-7.49,4.01-2.4-5.89-6.79-7.92-.21.96.44,1.07,1.13,1.13v1.13Z"/><path class="cls-1" d="m47.53,133.54c.1,1.78,2.89.89,2.26,3.39v1.13c1.39-1.26,2.32-.99,2.26,1.13-4.38-1.17-4.66.59-7.92-1.13,2.24,3.31.4,3.67,3.39,5.66-1.35.59-3.87-.57-6.79-1.13.03-1.1,1.39-.88,2.26-1.13.21-.96-.44-1.07-1.13-1.13.25-2.14-1.28-2.5-1.13-4.53,3.56.55,2.56-3.47,6.79-2.26Z"/><path class="cls-4" d="m64.51,129.02c2.79-3.8,4.99,2.47,6.79,3.4h1.13c-5.16-.71.05,4.56-6.79,5.66-.25-2.14,1.28-2.5,1.13-4.53-4-1.99-5.83,3.8-6.79,1.13,2.14-.13.79-3.74,3.4-3.39.01,1.14,1.98,1.42,2.26,0-.88-.25-1.32-.95-1.13-2.26Z"/><path class="cls-2" d="m49.8,136.94c1.45-.06,1.57-1.45,3.4-1.13.66,3.67-.77,5.27-1.13,7.92,1.42.46,2.31,1.46,2.26,3.39-2.81-.17-4.7.59-5.66,2.26-2.81-.77,1.67-3.45,2.26-4.53-.36-2.4-3.5,1.62-4.53,2.26-.27-3.12-5.59-1.2-6.79-3.39.96.21,1.07-.44,1.13-1.13,2.92.57,5.44,1.72,6.79,1.13-3-1.99-1.16-2.35-3.39-5.66,3.26,1.72,3.54-.04,7.92,1.13.06-2.12-.87-2.4-2.26-1.13v-1.13Z"/><path class="cls-4" d="m110.91,129.02c-3.11-1.66.91-5.68,2.26-2.26-2.2,2.1-.78,4.57,1.13,5.66-2.47.21-3.6-.93-3.39-3.4Z"/><path class="cls-4" d="m88.27,134.67c1.02,3.07,2.53-2.59,4.53-2.26,0,1.13.92,1.35,1.13,2.26h-3.39c.08,1.97-.25,3.52-1.13,4.53,1.95-.06,2.9.87,3.39,2.26-2.14.13-.79,3.74-3.39,3.39,1.64-3.5-.19-4.4-2.26-6.79-.65,1.99,1.37,6.65-1.13,6.79.99-3.63-1.74-3.54-3.39-4.53-.13,1.38-.34,2.68-2.26,2.26v1.13h-1.13c-3.37-3.51,3.67-2.98,3.4-6.79.82-3.46-1.16-4.12-1.13-6.79-1.93-.42-2.14.88-2.26,2.26h-2.26c.44-1.62,1.36-1.91,0-3.4v-2.26c2.67-.03,3.33,1.95,6.79,1.13,0,1.13-.92,1.35-1.13,2.26,3.24.15-.98,7.77,2.26,7.92-.21-2.47.93-3.6,3.4-3.4Z"/><path class="cls-2" d="m98.46,138.07c5.4-1.18-1.84-1.18-3.4,0,.55-1.34,1.21-2.56,2.26-3.4,3.33,4.1,7.9.13,9.05,5.66-4.24-2.43-3.86,1.73-4.53,5.66,3.88-3.62,4.93-4.6,12.45-7.92-1.31-.36-5.33-3.5-2.26-4.53,1.37.24.7,1.26,0,2.26,2.73.46,2.46-2.07,5.66-1.13.93-3.2-1.6-2.93-1.13-5.66,1.53-.36,2.16-1.61,4.53-1.13,2.23,2.25,2.43,9.98,3.39,12.45-.25-2.14,1.28-2.5,1.13-4.53,2.94,3.05,3.41-1.38,6.79-1.13v1.13c.48,2.37-.78,3-1.13,4.53-1.98-.98-3.93-4.22-3.4,1.13-1.99-1.63-2.58-1.04-2.26,2.26-1.54.35-.94,2.83-1.13,4.53-1.68-.34-4.87-4.76-2.26-5.66.56-3.87-8.42-.66-4.53-4.53-1.93-.42-2.14.88-2.26,2.26.46,2.18,5.18.1,3.4,4.53-4.63-.82-5.98.92-11.32,1.13.6-.91,1.18-1.84,1.13-3.39-1.15.73-1.17,2.6-3.39,2.26,1.93,1.09,2.48,3.56,3.39,5.66,3.69-1.17,2.4-2.87,5.66,0,3.09-1.02-3.44-2.53,0-4.53,3.55-.54,2.99,3.05,5.66,3.39-.49,1.68-1.45-.45-3.39,0,.88,1.01,1.22,2.56,1.13,4.53,5.78-1.41,3.44-.5,6.79,1.13,1.77-.4-.99-1.99,1.13-2.26h4.53c.14,2.03-1.39,2.39-1.13,4.53-3.08,4.42-10.69-4.59-10.19,0h-1.13c-2.47.21-3.6-.93-3.39-3.39,1.49.4,1.78,1.99,3.39,2.26-.6-.91-1.18-1.84-1.13-3.4-5.49.15-7.03,8.28-12.45,6.79.4-1.49,1.99-1.78,2.26-3.4-3.93.35-4.3,1.72-7.92,0h-3.4c.54-3.55-3.05-2.99-3.4-5.66-3.04,1.49-1.88,7.17-3.4,10.19-4.44-3.73-3.3-.11-7.92,1.13v-2.26h2.26c-1.31-1.67-1.31-2.85,0-4.53,1.5.01,1.03,1.98,2.26,2.26.02-1.87,3.14-.63,3.4-2.26-1.34-1.78-.41-10.92,4.53-10.19-3.88,1.91.54,5.78-1.13,3.4.8-2.63,5.31,2.9,6.79,0,1.58,1.44.49,5.54,3.39,5.66,1.17-4-2.9-9-3.39-14.71v-1.13Zm10.18,13.58c-.58,2.88-1.93,4.39,2.26,4.53-1.25-3,4-6.87,1.13-4.53-1.61.44-1.91,1.36-3.39,0Z"/><path class="cls-1" d="m108.64,133.54c-.33,4.92-5.02-.87-5.66,0,1.19-.06.89-1.45-1.13-1.13-.96.21-1.07-.44-1.13-1.13,1.56.05,2.48-.53,3.4-1.13.46,1.93,1.46-.24,3.4,0,.18,1.33-.2,3.21,1.13,3.4Z"/><path class="cls-2" d="m78.09,132.41c.27,4.79-2.35,6.7-5.66,7.92,3.39-3.29,1.2-5.43,4.53-7.92h1.13Z"/><path class="cls-3" d="m26.03,134.67c3.32,2.67,4.2-2.17,5.66,0-3.85,1.21,3.15.35,1.13,3.4h2.26c.06-1.45,1.45-1.57,1.13-3.4v-1.13c-.69-.06-1.34-.17-1.13-1.13,4.39,2.03-.7,11.93,6.79,7.92.69.06,1.34.17,1.13,1.13-.88.25-2.23.03-2.26,1.13-.06.69-.17,1.34-1.13,1.13-.96-.21-1.07.44-1.13,1.13.29,2.35,4.97.31,5.66,2.26-3.53,1.61-.71,3.49,1.13,5.66-.74,3.39-2.42-1.08-4.53,0,1.31-.44,1.31-5.5,0-2.26-.63,1.63-1.77,2.76-3.39,3.4-1.34-.55-2.57-1.21-3.39-2.26,2.05-1.57,2.56-3.21,1.13-4.53-1.28-.22-.63-1.13,0-1.13-.36-.59-3.5-1.76-4.53,0-4.14-1.78,2.63-1.69,1.13-4.53-.18-1.33-2.06-.96-3.39-1.13.32-2.58-.27-4.25-2.26-4.53v-1.13Z"/><path class="cls-2" d="m79.22,132.41c.13-1.38.34-2.68,2.26-2.26-.03,2.67,1.95,3.33,1.13,6.79-1.63-.6-2.76,4.41-3.4,1.13,2.65-.29.65-4.97,0-5.66Z"/><path class="cls-2" d="m65.64,144.86c-3.17,1.74-6.38,3.43-9.05,5.66-.96-.21-1.07.44-1.13,1.13h-1.13c.7-1.01,1.37-2.02,0-2.26.22-.92,1.13-1.13,1.13-2.26,5.89,1.75-2.41-2.85-1.13-6.79,6.06-3.69,5.61-.02,10.19-4.53.97,3.61-1.78,3.5-2.26,5.66,1.53.36,2.16,1.61,4.53,1.13-.21.92-1.14,1.13-1.13,2.26Z"/><path class="cls-3" d="m138.07,145.99c-2.55-.47.17-6.21-3.39-5.66-3.08,1.03,3.01,2.1,1.13,5.66-2.89-.05-1.38.84-1.13,2.26-1.78-1.8-6.06-.32-7.92,1.13-2.18-.11,1.76-4.22-1.13-5.66-.32-3.3.27-3.89,2.26-2.26-.17,2.81.59,4.7,2.26,5.66,1.47-2.68,1.89-6.41,3.39-9.05,2.49,1.66,5.3,3,4.53,7.92Z"/><path class="cls-1" d="m133.54,138.07c-1.51,2.64-1.92,6.38-3.39,9.05-1.68-.96-2.43-2.85-2.26-5.66-.54-5.35,1.41-2.11,3.4-1.13.36-1.53,1.61-2.16,1.13-4.53,1.27.11,1.76-1.64,2.26,0-1.1.03-.88,1.38-1.13,2.26Z"/><path class="cls-1" d="m125.62,152.78c-2.12.27.64,1.86-1.13,2.26-3.35-1.64-1.01-2.55-6.79-1.13.08-1.97-.25-3.52-1.13-4.53,1.95-.45,2.9,1.68,3.39,0-2.67-.35-2.11-3.93-5.66-3.39-3.44,2,3.09,3.5,0,4.53-3.26-2.87-1.96-1.17-5.66,0-.91-2.1-1.46-4.57-3.39-5.66,2.22.34,2.24-1.53,3.39-2.26.05,1.56-.53,2.48-1.13,3.39,5.34-.21,6.69-1.96,11.32-1.13,1.79-4.43-2.94-2.34-3.4-4.53.13-1.38.34-2.68,2.26-2.26-3.89,3.87,5.09.65,4.53,4.53-2.61.9.59,5.32,2.26,5.66.19-1.69-.4-4.18,1.13-4.53,2.89,1.44-1.05,5.54,1.13,5.66,1.3.4,2.87,1.99,1.13,2.26-2.89-.13-3.96-2.07-5.66-3.39-3.18.01,2.69,3.09-2.26,2.26-.19,2.45,4.01.51,5.66,1.13v1.13Z"/><path class="cls-3" d="m125.62,152.78v-1.13c-1.64-.62-5.85,1.32-5.66-1.13,4.96.82-.91-2.25,2.26-2.26,1.7,1.32,2.77,3.27,5.66,3.39v1.13h-2.26Z"/><path class="cls-1" d="m28.29,140.33c1.33.18,3.21-.19,3.39,1.13,1.5,2.84-5.27,2.75-1.13,4.53,1.02-1.76,4.17-.59,4.53,0-.63,0-1.28.92,0,1.13-3.31,2.54-10.05-.15-10.19-6.79,1.61-.44,1.91-1.36,3.4,0Z"/><path class="cls-1" d="m39.61,143.73c1.2,2.19,6.52.27,6.79,3.39,1.02-.65,4.17-4.67,4.53-2.26-.59,1.08-5.08,3.76-2.26,4.53.96-1.68,2.85-2.43,5.66-2.26h1.13c0,1.14-.92,1.35-1.13,2.26,1.37.24.7,1.26,0,2.26h-3.4c1.84,3.71-.26,4.33,0,9.05-2.25,3.61.36-7.04-3.4-5.66-.24-1.27-1.26-1.76-2.26-2.26-1.85-2.16-4.66-4.05-1.13-5.66-.69-1.95-5.37.09-5.66-2.26.06-.69.17-1.34,1.13-1.13Z"/><path class="cls-1" d="m66.77,142.6c2.89-.6,3.96-1.5,5.66,1.13-1.3.4-2.87,1.99-1.13,2.26.21.96-.44,1.07-1.13,1.13-.27-1.99-1.95-2.58-4.53-2.26,0-1.13.92-1.35,1.13-2.26Z"/><path class="cls-3" d="m56.59,150.52c2.67-2.23,5.89-3.92,9.05-5.66,2.58-.32,4.25.27,4.53,2.26h-1.13c-3.56-1.3-2.75,1.78-4.53,2.26-1.01.5-2.02.99-2.26,2.26-1.31-.95-3.03-1.49-5.66-1.13Z"/><path class="cls-1" d="m80.35,143.73c.36,1.53,1.61,2.16,1.13,4.53-1.68-2-5.85,2.12-5.66-3.4,1.33-.18,3.21.19,3.39-1.13h1.13Z"/><path class="cls-1" d="m134.67,148.25c-.25-1.42-1.76-2.31,1.13-2.26,1.88-3.55-4.21-4.62-1.13-5.66,3.56-.55.85,5.19,3.39,5.66-.03,1.1-1.39.88-2.26,1.13-.21.96.44,1.07,1.13,1.13-.5,1.64-.99-.12-2.26,0Z"/><path class="cls-1" d="m124.49,159.57c-1.45-3.55-5.39,2.46-5.66-2.26-.5-4.59,7.1,4.42,10.19,0,1.14,3.4-2.52,2.01-4.53,2.26Z"/><path class="cls-6" d="m112.04,151.65c2.87-2.34-2.39,1.53-1.13,4.53-4.19-.14-2.85-1.65-2.26-4.53,1.49,1.36,1.78.44,3.39,0Z"/><path class="cls-1" d="m55.45,151.65c.06-.69.17-1.34,1.13-1.13,2.62-.36,4.34.18,5.66,1.13-2.38,5.33,2.72,5.05,6.79,9.05-2.43,3.21-6.03,1.88-10.19,1.13h-1.13c.49-1.39,1.45-2.32,3.4-2.26-2.07.06-2.45-7.18-4.53-3.4-5.05-1.69,4.91-5.07-1.13-4.53Z"/><path class="cls-6" d="m64.51,149.39c1.78-.49.97-3.56,4.53-2.26,1.45,1.49,1.45,4.17,0,5.66-2.16-.48-4.87-.41-4.53-3.39Z"/><path class="cls-2" d="m69.03,147.12h1.13c.69-.06,1.34-.17,1.13-1.13-1.74-.27-.17-1.86,1.13-2.26.87,4.03,5.9,3.91,6.79,7.92h-1.13c.21-.96-.44-1.07-1.13-1.13-.92-.22-1.13-1.14-2.26-1.13h-1.13c-1.02,2.38-3.14,3.65-4.53,5.66-.32,2.58.27,4.25,2.26,4.53v2.26h-2.26v-1.13c-4.08-4-9.17-3.72-6.79-9.05.24-1.27,1.26-1.76,2.26-2.26-.34,2.99,2.36,2.92,4.53,3.39,1.45-1.49,1.45-4.17,0-5.66Z"/><path class="cls-1" d="m71.3,159.57c-1.99-.27-2.58-1.95-2.26-4.53,1.39-2.01,3.51-3.28,4.53-5.66h1.13v2.26c-1.91,1.86-1.41,6.14-3.4,7.92Z"/><path class="cls-1" d="m79.22,151.65c1.72-2.35,4.83-4.74,6.79-1.13-.33,2.31-3.06,2.22-3.39,4.53-1.31,1.67-1.31,2.85,0,4.53h-2.26c.18-1.32-.25-2.01-1.13-2.26.28-1.23,2.25-.77,2.26-2.26-.83-1.06-2.06-1.71-3.4-2.26v-1.13h1.13Z"/><path class="cls-3" d="m74.69,151.65v-2.26c1.13,0,1.35.92,2.26,1.13.67,2.34-1.4,7.43,1.13,7.92-.49,1.78-3.56.97-2.26,4.53-2.37-.48-3,.78-4.53,1.13v-3.39c3.59,3.95,6.62-6.37,3.4-9.05Z"/><path class="cls-1" d="m80.35,161.83c4.62-1.24,3.49-4.87,7.92-1.13,1.52-3.01.36-8.69,3.4-10.19.35,2.67,3.93,2.1,3.4,5.66h3.4c.68,2.34,1.75,4.29,5.66,3.4,5.42,1.49,6.96-6.64,12.45-6.79-.05,1.56.53,2.48,1.13,3.4-1.61-.27-1.91-1.86-3.39-2.26-.21,2.47.93,3.6,3.39,3.39v4.53c-3.01.64-5.76-4.65-7.92-1.13h-1.13c-5.07.21-6.55,4.01-9.05,6.79h-1.13c-.13-3.24-1-5.65-4.53-7.92-4.17,1.12,5.21,6.89-1.13,6.79.06-2.12-.87-2.4-2.26-1.13-7.06-.02-5.11,6.01-7.92,7.92.25-1.92-1.28-2.8-1.13,0-.92-.22-1.13-1.14-2.26-1.13-1.4-3.66,3.66-.87,2.26-4.53.96.21,1.07-.44,1.13-1.13-.49-1.78-3.56-.97-2.26-4.53Z"/><path class="cls-6" d="m104.12,159.57c-3.91.89-4.98-1.06-5.66-3.4,3.62,1.72,3.99.35,7.92,0-.27,1.61-1.86,1.91-2.26,3.4Z"/><path class="cls-3" d="m55.45,151.65c6.04-.55-3.92,2.84,1.13,4.53,2.07-3.78,2.45,3.45,4.53,3.4-1.95-.06-2.9.87-3.4,2.26h1.13c-1.64-.56-6.02,2.48-7.92,1.13v1.13h-2.26c-.13-3.26.62-7.41-1.13-9.05,3.75-1.38,1.15,9.27,3.4,5.66-.26-4.73,1.84-5.34,0-9.05h4.53Z"/><path class="cls-3" d="m118.83,157.31c.27,4.73,4.21-1.28,5.66,2.26-3.69,1.44-5.45-1.42-5.66,2.26,0,1.14-.92,1.35-1.13,2.26h-1.13c-1.03-2.37-3.34-3.45-6.79-3.39,2.16-3.52,4.91,1.77,7.92,1.13v-4.53h1.13Z"/><path class="cls-3" d="m99.59,167.49c2.5-2.78,3.98-6.58,9.05-6.79,1.1,4.5-6.32.47-5.66,4.53v2.26h-3.39Z"/><path class="cls-3" d="m78.09,161.83c.25-.88.95-1.31,2.26-1.13v1.13c-1.3,3.56,1.78,2.75,2.26,4.53-.06.69-.17,1.34-1.13,1.13-2.14-.85-.79-3.38-3.4-1.13v-1.13c1.44-.26,1.48-3.38,0-3.4Z"/><path class="cls-1" d="m69.03,161.83h2.26v4.53c2.79.15,5.45.17,6.79-1.13v5.66c-5.28-3.94-2.44,3.48-6.79,0-.35-2.67-3.93-2.11-3.39-5.66.85-2.14,3.38-.79,1.13-3.4Z"/><path class="cls-3" d="m92.8,166.36c6.34.1-3.03-5.67,1.13-6.79,3.53,2.27,4.4,4.68,4.53,7.92-.24,1.27-1.26,1.76-2.26,2.26-.13-2.14-3.74-.79-3.39-3.39Z"/><path class="cls-1" d="m141.46,22.63c1.32,1.7,3.27,2.77,3.4,5.66-4-.38-5.83-.07-6.79-1.13-1-3.64,3.73-1.55,3.39-4.53Z"/><path class="cls-3" d="m132.41,32.82c-.08,4.7-12.5.73-5.66-1.13,3.2-.94,2.93,1.6,5.66,1.13Z"/><path class="cls-2" d="m66.77,38.48v5.66c-1.83.32-1.95-1.07-3.39-1.13.25-2.14-1.28-2.5-1.13-4.53,2.25,3.69,2.59-4,4.53,0Z"/><path class="cls-2" d="m26.03,37.35c1.14,0,1.35.92,2.26,1.13v1.13c.77,4-3.31,7.52-6.79,5.66-.29-3.31,2.56-3.48,2.26-6.79.88-.25,2.23-.03,2.26-1.13Z"/><path class="cls-2" d="m127.88,56.59c1.63-3.37,2.85-.07,5.66-2.26-.07,3.83,2.04,4.83-1.13,6.79-2.14-.13-.79-3.74-3.39-3.39-.69-.06-1.34-.17-1.13-1.13Z"/><path class="cls-1" d="m70.17,57.72c-.25-.88-.95-1.32-2.26-1.13-.88-.25-2.23-.03-2.26-1.13,2.81.17,3.5-1.78,5.66-2.26,1.47,1.51.7,3.42-1.13,4.53Z"/><path class="cls-1" d="m30.56,56.59c.12,2.82,2.12,3.5,0,5.66-2.88-.14-4.39-1.65-4.53-4.53,1.53-.36,2.16-1.61,4.53-1.13Z"/><path class="cls-2" d="m46.4,57.72c-2.13,2,1.55,3.5-2.26,4.53-.1-1.78-2.89-.89-2.26-3.4.21-1.68,2.73-1.04,4.53-1.13Z"/><path class="cls-6" d="m24.9,64.51c-1.63,2.5-2.76-1.42-3.4,1.13-1.62-1.51-2.99-5.03-1.13-6.79,2.49.9,4.52,2.27,4.53,5.66Z"/><path class="cls-4" d="m133.54,70.17c.45-2.71-5.15.63-3.39-3.39-.18-1.33-2.06-.96-3.4-1.13-.06-.69-.17-1.34-1.13-1.13-1.08-4.08,4.88-2.01,5.66-1.13,1.69.19,4.18-.4,4.53,1.13-.79,3.48-.79,2.18,0,5.66h-2.26Z"/><path class="cls-2" d="m129.02,76.96c-3.76-1.74-4.28,5.36-6.79,1.13,4.34.21.41-.93,1.13-3.4h3.39c.01,1.5,1.98,1.03,2.26,2.26Z"/><path class="cls-1" d="m108.64,100.72c-.77-3.33,3.81-4.5,5.66-7.92.27,1.61,1.86,1.91,2.26,3.39v1.13c-3.48.29-5.09,2.46-7.92,3.4Z"/><path class="cls-3" d="m27.16,96.2c4.79,1.13-4,3.06,0,3.4-.13.9-3.74,3.43-3.39,1.13-.27-1.61-1.86-1.91-2.26-3.4,1.69-.19,4.18.4,4.53-1.13h1.13Z"/><path class="cls-1" d="m50.93,118.83c-.97-3.61,1.78-3.5,2.26-5.66,1.34.55,2.57,1.21,3.4,2.26-5.49-1.1.43,6.32-2.26,5.66-.29-1.59-2.48-1.29-3.4-2.26Z"/><path class="cls-2" d="m99.59,114.3c1.27,1.63,1.22,2.76-1.13,3.39v-2.26c-4.01-.59-7.37-.84-3.4-5.66-.06,2.12.87,2.4,2.26,1.13-.06,1.95.87,2.9,2.26,3.4Z"/><path class="cls-1" d="m152.78,121.09c1.27-.24,1.76-1.26,2.26-2.26.88.25,2.23.03,2.26,1.13-.13,1.38-.34,2.68-2.26,2.26h-4.53c.25-.88.95-1.31,2.26-1.13Z"/><path class="cls-1" d="m149.39,126.75c-.19-2.45,4.01-.51,5.66-1.13,1.5-.01,1.04-1.98,2.26-2.26-.05,1.56.53,2.48,1.13,3.39-4.24.29-6.33,2.73-10.19,3.4-.05-1.56.53-2.48,1.13-3.4Z"/><path class="cls-1" d="m126.75,130.15c-.29-1.76-2.48-.79-3.39,0v-3.4c2.58.94,4.38.31,6.79,3.4-1.56-.05-2.48.53-3.4,1.13v-1.13Z"/><path class="cls-6" d="m23.77,81.48c1.76-.29.78-2.48,0-3.4h2.26c-2.79-3.89,1.85-8.48-2.26-10.19,5.74-.46,6.02,4.55,10.19,5.66.69.06,1.34.17,1.13,1.13v1.13c.69.06,1.34.17,1.13,1.13-3.56.55-2.56-3.47-6.79-2.26-.05,1.56.53,2.48,1.13,3.4-3.94-.55-3.95,2.84-5.66,4.53-.69-.06-1.34-.17-1.13-1.13Z"/></g></g></svg>