<?xml version="1.0" encoding="UTF-8"?><svg id="Layer_2" xmlns="http://www.w3.org/2000/svg" viewBox="0 0 192.06 223.73"><defs><style>.cls-1{fill:#475e38;}.cls-1,.cls-2,.cls-3,.cls-4,.cls-5,.cls-6,.cls-7,.cls-8,.cls-9{fill-rule:evenodd;}.cls-2{fill:#29441c;}.cls-3{fill:#5c714d;}.cls-4{fill:#2d4121;}.cls-5{fill:#364f28;}.cls-6{fill:#091703;}.cls-7{fill:#203815;}.cls-8{fill:#162b0c;}.cls-9{fill:#d2d2d2;}</style></defs><g id="Layer_3"><g><path class="cls-9" d="m164.02,71.44c1.56.21,2.38-.3,2.68-1.33h6.68c-.05-1.31-1.64-1.04-2.68-1.34.6-1.18,1.16-2.38,2.68-2.67v-1.33c-4.19.69-5.96-3.66-5.34,2.67-2.47-.2-.82-4.53-2.68-5.34-1.23.98-2.02,2.43-2.67,4.01,3.1.37,3.08,3.56,1.34,5.35Z"/><path class="cls-9" d="m119.96,38.06c-.02-3.99-3.46-4.54-3.99-8.02v-2.66c-.12-2.12.63-5.1-1.34-5.35,1.25,8.83-1.63,6.57-4,6.68,3.31.19.39,4.52,0,5.33,2.99,2.97,5.36,9.28,9.34,4.01Z"/><path class="cls-9" d="m5.15,144.87v1.34h-1.33c-.32,1.89-2.2,2.24-2.67,3.99-2.25.88-.83,3.08,1.34,2.68.28,2.29-2.27,3.45,0,4,2.29-.28,3.46,2.28,4,0,1.03,1.06.97,4.67,0,6.67,1.08-.7,2.17-1.38,4.01-1.33v-3.99c2.1.57,1.14,4.19,5.33,2.67v4c1.08-1.15,3.66-.79,4.01-2.68h8.02c-1.6,1.76-.53,2.1,0,4.01,1.29-.03,1.03-1.63,1.32-2.68,5.14.86-.88,9.12,5.34,5.34.2,2.47,4.53.82,5.35,2.68-.77,2.31-5.49,8.18,0,5.32v2.68c1.97-1.55,3.35-1.55,5.33,0,.29,2.29-2.27,3.45,0,4.01-.25,1.08-1.34,1.33-1.33,2.67v4.01c2.9-2.64,6.73,4.76,8-2.68,1.34-.01,1.59,1.09,2.68,1.33.85-5.31-3.54-5.36-2.68-10.68,1.68.29,2.73,2.08,2.68-1.34.07-.8.2-1.57,1.33-1.32-.06,1.84.63,2.93,1.33,4-.29,1.03-1.13,1.55-2.67,1.33-.07,6.35,3.1,3.23,5.33,5.34,1.75,5.76-6.35,1.65-5.33,6.67.52,1.91,1.6,2.26,0,4.01,6.04-1.01-2.05,3.66,3.99,2.67-.25,1.08-1.33,1.32-1.32,2.67-.24,1.14.53,1.27,1.32,1.34-3,8.16,7.02,5.34,6.69,6.67.24,1.13-.53,1.25-1.34,1.33v2.67c1.13.25,1.26-.52,1.34-1.33,2.05-1.15,3.83-9.36,5.34-6.68,3.11,3.22,4.61-1.04,6.67-2.66-.98-1.25-2.43-2.03-3.99-2.68.54-4.5,5.18,3.55,3.99-2.67.03-1.76,2.35-1.22,2.68-2.68-5.73-2.08,5.67-4.64,1.33-5.32v-2.68c1.97-.7,3.37-1.98,5.35-2.67-.48,1.74-2.35,2.1-2.67,4,.7,1.08,1.38,2.17,1.33,4v2.67c-.58,2.8.91,3.55,1.34,5.35,3.27,1.61,4.43,5.36,6.67,8,1.08-.25,1.33-1.33,2.67-1.33v-1.33c1.09.26,1.34,1.34,2.68,1.33-1.34,1.78-2.21,4.03-4.01,5.34.6,1.19,1.17,2.39,2.68,2.68v1.33c.25,1.51,1.34.74,1.34,0,1.35.86,1.37,3.07,4.01,2.67,2.3-5.09-.11,5.2,2.66,4v-2.68c1.33-3.56,3.64-6.13,5.34-9.34.59-1.18,1.17-2.39,2.67-2.68-.25-1.08-1.34-1.32-1.33-2.67h2.67c-1.91-1.95-1.03-4.23,2.67-4-.25-1.07-1.34-1.33-1.33-2.67.92-1.09,2.07-3.65,0-4.01.21-1.55,2.43-1.13,3.99-1.33-1.04-1.18-1.43-3.01-1.33-5.33-2.67-2.72.6-2.62,1.33-5.34,3.64,2.91,5.24-.44,5.34,5.34,1.92-.31.47-3.98,2.68-4v1.33c2.26-.49,2.51,1.04,2.67,2.67,1.79-.88,2.48-2.85,2.66-5.34,3.92,1.13-.8,4.29,0,6.68v1.32c1.06-.29,1.56-1.11,1.34-2.67,3.35,3.2,4.23.58,6.68,4,1.24.82,4.92,3.11,4.01-1.33h1.32c1.86,1.7.83,6.31,2.68,8.01,1.81-.42,1.11-3.34,1.33-5.35,3.08-.4,1.49,3.86,4.01,4.01,1.15-1.09.8-3.66,2.67-4.01v-1.33c-.3-1.02-.04-2.63-1.33-2.65.26-1.1,1.33-1.35,1.33-2.68h-4c.87-1.36,3.07-1.37,2.67-4-1.55,1.11-3.58,1.75-6.68,1.33,1.78-2.68,5.92-2.98,9.35-4.01,4.97-1.84-3.93-.2-2.67-2.67,2.27.5,2.51-1.04,2.67-2.67h-2.67c-8.73-.52,4.64-1.78-4.01-4,4.24-1.13-2.36-1.76-4-1.35v-1.33c8.28-.52-.09-.69-1.35-2.67h1.35c3.34-1.7,4.18.68,5.34-1.33h1.33v-8.01c1.73.76,2.22,13.05,4,5.34,3.1,3.75,5.64.31,9.35,4.01,2.95-.17.57-5.66,1.33-8,.77-3.23,3.09,10.04,6.67,3.99-.69-1.97-1.97-3.36-2.66-5.34,5.74.63,1.7-3.59,3.99-4,1.35,0,1.59,1.08,2.68,1.33.53-2.3-1.99-3.43,0-4.01h1.33v-1.33c-5.08-4.4-7.67,2.23-12.02,2.67,1.6-5.27,4.52-5.27,6.67-12.01-1.9.11-3.77.22-4-1.34,2.43-1.04-.81-1.43-2.67-1.33.26-1.09,1.34-1.32,1.34-2.67-4.11-.99-2.57,3.66-6.68,2.67,1.49-1.64,1.17-2.74-1.34-2.67v-1.35c1.79-.86,2.49-2.85,2.67-5.32,2.12-.12,5.11.64,5.35-1.35.26-1.51,1.33-.74,1.33,0,1.08-.71,2.17-1.38,4-1.33.83-1.19,1.62-2.38,0-2.67.98-1.24,2.43-2.03,4.01-2.68,3.03.39,5.02-.32,5.34-2.66,1-2.53,3.98-.94,1.34-4.01,1.9-.32,2.25-2.19,4-2.67,1.14.24,1.25-.52,1.33-1.33-.38-2.81-3.56,1.94-5.33-1.35-.01,1.35,1.08,1.59,1.33,2.68-3.41-2.29-4.68,1.52-6.68-1.33-.52-1.91-1.6-2.25,0-4.01,1.94-.59-.14-1.16,0-2.66-4.78,2.7-.42-2.26-2.68-5.34-4.05,1.99-5.18-.44-8,1.33-.3,1.03-1.13,1.55-2.67,1.33-.32-2.5-2.2.75-2.68-1.33,1.72-1.76,1.72-4.92,0-6.68,1.65-.76,4.15-.03,5.35-4v-2.67c-1.34,0-1.59,1.09-2.67,1.33,0-1.34-1.09-1.59-1.34-2.67h1.34c-4.21-7,6.7-.82,0-5.34.32-3.43,2.3,1.83,5.34,0-.56-1.67-1.73-2.73-4.01-2.68-1.97-.69-3.36-1.97-5.34-2.66.38,2.34-6.29,4.12-2.66,5.33.74-1.92,2.08-3.26,3.99-4.01v2.68c-1.91.75-3.25,2.08-3.99,4,1.02.3,2.63.03,2.66,1.33h-2.66c-.09-.82-.2-1.57-1.34-1.33,1.02-5.03-7.1-.92-5.35-6.68v-5.34c2.75-6.7,3.1,2.51,2.67,6.67,2.15.39,2.3-1.26,4.01-1.33-.26-1.5-1.35-.74-1.34,0-3-.57-.55-6.57-1.34-9.34-1.99-5.27-1.57.24-5.34,0v-2.68c-1.76,4.58-5.72.64-2.68-2.67-2.48-1.27-4.45,4-5.33,0,.32-1.9,2.2-2.25,2.67-4h-1.35c.26-1.14-.52-1.26-1.32-1.34v-4.01c-1.89.12-3.79.23-4.01-1.33,1.55.23,2.37-.3,2.67-1.33,1.14-.25,1.26.52,1.34,1.33,1.19-.59,2.39-1.16,2.67-2.67-.23-1.55-2.11-1.44-4-1.33h-5.35v1.33h-2.67c-1.49,4.21-.12,3.02,0,8.01v2.67c-2.73-.75-2.62-4.01-5.34-1.33-.01-1.34,1.08-1.59,1.33-2.67-4.41-2.3-4.66.94-5.34-2.68.46-1.74,2.36-2.1,2.68-4-.65-2.38-1.43.58-2.68,1.33,5.17-6.43-8.03-3.28-4-8-3.89-.34-4.61,2.51-6.67,4v-1.34c-3.91-.35-4.11,3.02-8.02,2.67-.82.08-1.58.2-1.34,1.33-3.61-.83-3.31-5.58-8-5.34.92,1.08,2.08,3.65,0,4-.26-1.51-1.34-.75-1.34,0-1.13,1.99-4.31,1.93-6.68,2.67-1.76-.01-1.22-2.33-2.68-2.67-.03-4.42-5.63-3.26-6.67-6.67-.74,2.78-4.02-1.99-1.33,2.67-2.92-.25-4.25,1.1-4.01,4-1.75-.03-1.69-3.7,0-4,.82-.07,1.58-.2,1.33-1.33-2.29-.54-3.43,1.98-3.99,0,.06-1.71,1.7-1.86,1.32-4.01-1.67.3-2.73,2.08-2.66-1.33v-1.33c-3.15-.04-3.94,2.3-8.02,1.33v1.33c-.29,1.03-1.11,1.55-2.67,1.33,2.52,2.08-1.91,5.21,1.33,8.01h-1.33c3.42,2.46.8,3.32,4.01,6.68h-1.34c-1.53-4.32-1.5,3.58-1.34,5.34v1.34c2,.22,4.93-.48,5.35,1.32-1.57.21-3.79-.22-4.01,1.33-1.15,5.84,2.87,9.1-1.34,10.69-2.2-.02-.74-3.71-2.67-4.01-.18,2.48-.87,4.47-2.67,5.35-.31-2.54,1.5-2.95,1.32-5.35.39-2.15-1.24-2.3-1.32-4.01-.33-2.5-2.2.77-2.67-1.33-1.49-.14-2.08,1.94-2.68,0-.35-1.87-2.93-1.51-4-2.67-1.49.14-2.08-1.94-2.67,0h-2.66c-2.85-.62-2.55,1.91-2.67,4,.03,1.31,1.63,1.04,2.67,1.35-1.56,4.33-3.5-.05-5.35,4-.24-1.98-3.23-1.23-5.35-1.33,1.54,2.74-2.09,6.36-2.67,2.68-4.1.92-2.57.92-6.67,0-.45,6.56-1.38-3.05-4.01,1.33v1.33c.1,6.64-3.92.86-6.67,4h-2.67c-1.57.21-3.8-.23-4.01,1.33,1.57.21,3.79-.23,4.01,1.34,1.99.22,4.92-.48,5.35,1.33h-2.68c2.3,6.26,4.96-.65,9.35,0-.89,3.26,6.49,4.88,2.67,6.68h-1.33c.2-5.88-3.77-.38-5.34,0-2.15-.38-2.29,1.26-4,1.32-.96,3.63,6.29-.95,5.34,2.68h-2.67c-2.07,4.75,4.54.8,4.01,4.01-3.15,1.96-2.48,2.82-6.67,1.33v1.33c1.14-.24,1.26.52,1.35,1.33-5.48-.57-6.98,2.83-9.36,5.33-.3-1.03-1.12-1.55-2.67-1.33,1.68,5.57.17,9.28,4,13.36v-2.67c4.73,1.16,3.29.16,8.03,1.33v1.33c-2.48.19-.84,4.52-2.68,5.33h1.33c.26,1.51,1.35.74,1.35,0,1.29.04,1.02,1.63,1.32,2.67,1.14.25,1.27-.52,1.34-1.33,1.36,1.31,2.71,2.64,4.01,4.01,1.45-.33.9-2.67,2.67-2.68.3,1.04.03,2.63,1.33,2.68.55-2.28,1.72.27,4,0-.21,1.55-2.43,1.12-4,1.33-.24,1.14.52,1.27,1.34,1.33-3.35,3.49-8.27,2.43-10.69,4,1.5.28,2.08,1.48,2.67,2.67h-1.33c-.88-1.79-2.86-2.48-5.34-2.67.26,1.08,1.33,1.33,1.33,2.67-5.47,1.36-2.67,3.27-9.35,4.01,1.06,2.95,4.68,3.33,6.68,5.34-1.31,4.09-3.56-1.54-5.34-1.34Zm10.68-1.33h1.34c-.35,2.61,2.47,11.63,2.67,5.33,4.69,7.31-5.26,3.27-4.01,10.69-2.99,1.03-.03-10.39-2.67-5.35-3.18-.4,1.48-3.61,2.67-4.01-.71-1.07-1.39-2.16-1.32-3.99-4.5,4.06-.16-3.65-2.68,0-3.35-2.52,1.07-4.86,4-2.68Z"/><path class="cls-1" d="m159.86,46.38c1.46.2,2.23-.28,2.51-1.26h6.27c-.04-1.22-1.54-.97-2.51-1.25.56-1.11,1.1-2.24,2.51-2.51v-1.25c-3.93.65-5.59-3.42-5.01,2.51-2.32-.19-.77-4.25-2.51-5.02-1.16.93-1.9,2.28-2.51,3.76,2.9.35,2.88,3.34,1.25,5.02Z"/><path class="cls-1" d="m118.5,15.04c-.02-3.74-3.25-4.26-3.75-7.52v-2.5c-.11-1.99.6-4.79-1.25-5.02,1.17,8.29-1.53,6.17-3.76,6.27,3.12.18.37,4.24,0,5.01,2.82,2.79,5.03,8.71,8.77,3.76Z"/><path class="cls-1" d="m8.2,122.83c.27,2.15-2.13,3.25,0,3.76,2.15-.27,3.25,2.14,3.77,0,.96.98.9,4.38,0,6.26,1-.66,2.03-1.3,3.76-1.25v-3.75c1.97.54,1.06,3.94,5.01,2.51v3.75c1.01-1.07,3.44-.74,3.76-2.51h7.52c-1.5,1.65-.49,1.97,0,3.76,1.21-.03.97-1.53,1.24-2.51,4.83.8-.83,8.56,5.02,5.02.19,2.32,4.25.76,5.02,2.51-.72,2.17-5.15,7.69,0,5.01v2.51c1.85-1.45,3.16-1.45,5.01,0,.27,2.15-2.13,3.25,0,3.76-.24,1.02-1.26,1.25-1.25,2.51v3.76c2.72-2.47,6.31,4.47,7.52-2.51,1.25-.01,1.49,1.02,2.51,1.25.8-5-3.32-5.04-2.51-10.03,1.57.28,2.56,1.96,2.51-1.25.07-.76.19-1.48,1.25-1.25-.06,1.72.58,2.75,1.25,3.75-.28.97-1.05,1.46-2.51,1.25-.06,5.96,2.91,3.04,5.01,5.02,1.64,5.4-5.96,1.55-5.01,6.26.49,1.79,1.5,2.12,0,3.76,5.67-.94-1.92,3.44,3.75,2.51-.23,1.01-1.25,1.24-1.24,2.51-.23,1.07.49,1.19,1.24,1.26-2.81,7.66,6.58,5.02,6.27,6.26.23,1.07-.48,1.18-1.25,1.25v2.51c1.06.23,1.18-.49,1.25-1.26,1.93-1.08,3.6-8.79,5.02-6.27,2.91,3.03,4.32-.99,6.26-2.5-.91-1.17-2.28-1.9-3.75-2.51.51-4.23,4.86,3.33,3.75-2.51.02-1.65,2.2-1.14,2.51-2.51-5.37-1.96,5.33-4.36,1.26-5.01v-2.51c1.85-.66,3.15-1.86,5.02-2.51-.45,1.64-2.21,1.97-2.51,3.76.66,1.01,1.3,2.03,1.25,3.75v2.51c-.54,2.62.86,3.33,1.26,5.02,3.08,1.51,4.16,5.03,6.26,7.52,1.02-.24,1.26-1.25,2.51-1.25v-1.25c1.01.24,1.25,1.26,2.51,1.25-1.25,1.67-2.07,3.78-3.76,5.02.55,1.12,1.1,2.24,2.51,2.51v1.26c.24,1.42,1.25.69,1.25,0,1.27.81,1.3,2.87,3.76,2.51,2.16-4.78-.1,4.88,2.5,3.75v-2.51c1.26-3.34,3.42-5.76,5.02-8.77.56-1.11,1.11-2.24,2.51-2.51-.24-1.02-1.26-1.24-1.25-2.51h2.51c-1.8-1.83-.96-3.97,2.5-3.75-.23-1.02-1.25-1.25-1.24-2.51.87-1.02,1.95-3.44,0-3.76.2-1.46,2.28-1.05,3.75-1.25-.97-1.11-1.34-2.83-1.25-5.01-2.51-2.56.56-2.46,1.25-5.02,3.42,2.74,4.92-.41,5.02,5.02,1.8-.29.44-3.74,2.51-3.76v1.26c2.13-.46,2.36.97,2.51,2.51,1.68-.83,2.33-2.68,2.5-5.02,3.69,1.06-.75,4.03,0,6.27v1.24c.99-.27,1.47-1.04,1.26-2.5,3.15,3,3.97.54,6.27,3.75,1.17.77,4.62,2.92,3.76-1.26h1.24c1.74,1.6.78,5.92,2.51,7.53,1.7-.39,1.04-3.14,1.25-5.02,2.9-.38,1.39,3.62,3.76,3.76,1.07-1.02.75-3.43,2.51-3.76v-1.25c-.28-.97-.04-2.47-1.25-2.5.24-1.03,1.25-1.26,1.25-2.51h-3.77c.82-1.27,2.89-1.3,2.51-3.76-1.46,1.06-3.37,1.65-6.27,1.25,1.67-2.51,5.56-2.8,8.78-3.76,4.66-1.73-3.69-.19-2.51-2.51,2.13.47,2.36-.97,2.51-2.5h-2.51c-8.19-.49,4.36-1.67-3.76-3.76,3.98-1.05-2.22-1.65-3.76-1.25v-1.25c7.77-.49-.08-.65-1.26-2.51h1.26c3.15-1.59,3.93.64,5.02-1.26h1.25v-7.51c1.63.71,2.09,12.24,3.76,5.01,2.91,3.52,5.29.29,8.77,3.76,2.76-.16.54-5.32,1.25-7.52.72-3.03,2.9,9.44,6.26,3.75-.65-1.85-1.85-3.16-2.5-5.01,5.39.59,1.6-3.37,3.75-3.76,1.26,0,1.49,1.02,2.51,1.25.5-2.16-1.86-3.21,0-3.76h1.25v-1.25c-4.77-4.13-7.2,2.09-11.28,2.51,1.5-4.96,4.24-4.96,6.26-11.28-1.78.11-3.55.21-3.75-1.25,2.28-.98-.76-1.35-2.51-1.26.24-1.02,1.25-1.24,1.25-2.51-3.86-.92-2.41,3.45-6.27,2.51,1.41-1.54,1.09-2.57-1.25-2.51v-1.25c1.68-.82,2.34-2.68,2.51-5.01,1.99-.11,4.79.6,5.02-1.25.24-1.42,1.25-.7,1.25,0,1.01-.67,2.03-1.3,3.75-1.25.77-1.11,1.52-2.24,0-2.51.92-1.16,2.28-1.9,3.76-2.51,2.86.36,4.72-.3,5.02-2.5.94-2.37,3.75-.87,1.25-3.76,1.79-.3,2.11-2.06,3.76-2.51,1.06.23,1.17-.49,1.24-1.25-.35-2.63-3.35,1.82-5.01-1.25-.01,1.25,1.01,1.49,1.25,2.51-3.2-2.15-4.39,1.43-6.27-1.25-.49-1.79-1.5-2.11,0-3.76,1.82-.55-.13-1.1,0-2.5-4.49,2.54-.39-2.12-2.51-5.02-3.81,1.87-4.87-.41-7.51,1.26-.28.97-1.05,1.45-2.51,1.25-.3-2.35-2.06.71-2.51-1.25,1.62-1.65,1.62-4.62,0-6.27,1.54-.71,3.89-.03,5.02-3.75v-2.51c-1.25-.01-1.49,1.02-2.51,1.25,0-1.26-1.02-1.49-1.26-2.51h1.26c-3.95-6.57,6.29-.78,0-5.02.3-3.22,2.16,1.72,5.01,0-.52-1.57-1.62-2.56-3.76-2.51-1.85-.65-3.16-1.85-5.02-2.5.36,2.2-5.9,3.87-2.5,5.01.7-1.8,1.95-3.06,3.75-3.76v2.51c-1.8.7-3.05,1.96-3.75,3.76.97.28,2.47.03,2.5,1.25h-2.5c-.08-.77-.19-1.48-1.25-1.25.96-4.72-6.66-.87-5.02-6.27v-5.01c2.58-6.29,2.91,2.35,2.51,6.26,2.02.36,2.16-1.19,3.76-1.25-.23-1.42-1.26-.7-1.25,0-2.8-.54-.51-6.17-1.25-8.77-1.87-4.94-1.48.23-5.02,0v-2.51c-1.65,4.3-5.36.6-2.51-2.51-2.33-1.2-4.18,3.76-5.01,0,.3-1.78,2.06-2.11,2.5-3.75h-1.26c.24-1.06-.49-1.19-1.24-1.25v-3.76c-1.78.11-3.55.21-3.76-1.26,1.46.21,2.23-.28,2.51-1.25,1.07-.23,1.19.49,1.25,1.25,1.11-.56,2.24-1.09,2.5-2.51-.21-1.45-1.98-1.36-3.75-1.26h-5.02v1.26h-2.51c-1.4,3.95-.11,2.83,0,7.52v2.51c-2.56-.71-2.46-3.77-5.01-1.26-.01-1.26,1.01-1.49,1.25-2.51-4.14-2.16-4.37.89-5.02-2.51.44-1.64,2.21-1.97,2.51-3.76-.61-2.23-1.35.55-2.51,1.25,4.86-6.03-7.54-3.08-3.76-7.51-3.66-.32-4.32,2.36-6.26,3.76v-1.26c-3.68-.33-3.85,2.83-7.53,2.5-.76.08-1.48.19-1.25,1.26-3.4-.78-3.12-5.24-7.52-5.01.87,1,1.95,3.43,0,3.75-.24-1.41-1.25-.7-1.25,0-1.07,1.87-4.04,1.82-6.27,2.51-1.65-.01-1.14-2.19-2.51-2.51-.03-4.14-5.29-3.05-6.26-6.26-.7,2.61-3.78-1.86-1.26,2.51-2.74-.23-3.99,1.03-3.76,3.75-1.64-.02-1.59-3.47,0-3.75.77-.07,1.48-.19,1.25-1.25-2.15-.5-3.22,1.86-3.75,0,.06-1.6,1.6-1.74,1.25-3.77-1.57.28-2.56,1.95-2.5-1.25v-1.25c-2.96-.03-3.69,2.16-7.52,1.25v1.25c-.28.98-1.05,1.45-2.51,1.26,2.37,1.95-1.79,4.89,1.25,7.51h-1.25c3.21,2.31.76,3.13,3.76,6.27h-1.25c-1.44-4.05-1.41,3.37-1.25,5.02v1.25c1.88.21,4.63-.45,5.02,1.24-1.48.2-3.57-.21-3.76,1.25-1.08,5.49,2.69,8.54-1.25,10.03-2.07-.02-.7-3.49-2.51-3.76-.17,2.33-.82,4.19-2.5,5.02-.29-2.38,1.41-2.77,1.24-5.02.36-2.02-1.17-2.16-1.24-3.76-.31-2.35-2.07.72-2.51-1.26-1.4-.13-1.95,1.82-2.51,0-.33-1.76-2.75-1.42-3.76-2.51-1.41.13-1.95-1.82-2.51,0h-2.5c-2.68-.58-2.39,1.79-2.51,3.76.03,1.22,1.53.97,2.51,1.25-1.46,4.07-3.29-.04-5.02,3.76-.23-1.86-3.02-1.15-5.02-1.25,1.45,2.57-1.96,5.97-2.51,2.51-3.85.88-2.41.88-6.26,0-.42,6.16-1.29-2.86-3.76,1.26v1.25c.09,6.23-3.68.82-6.26,3.75h-2.51c-1.47.2-3.56-.21-3.76,1.25,1.48.2,3.56-.21,3.76,1.25,1.87.21,4.62-.45,5.02,1.26h-2.51c2.16,5.87,4.65-.61,8.77,0-.83,3.07,6.09,4.58,2.51,6.27h-1.25c.19-5.52-3.54-.36-5.02,0-2.02-.36-2.15,1.18-3.75,1.24-.91,3.4,5.9-.9,5.01,2.51h-2.51c-1.94,4.46,4.26.76,3.76,3.76-2.96,1.84-2.33,2.65-6.26,1.25v1.26c1.06-.23,1.17.49,1.25,1.25-5.14-.54-6.55,2.65-8.78,5.01-.28-.98-1.05-1.45-2.51-1.26,1.58,5.24.16,8.71,3.77,12.54v-2.51c4.44,1.1,3.09.15,7.53,1.26v1.25c-2.32.18-.78,4.24-2.51,5.01h1.25c.24,1.42,1.25.7,1.25,0,1.21.04.96,1.53,1.24,2.51,1.06.23,1.18-.49,1.25-1.26,1.29,1.22,2.54,2.48,3.77,3.76,1.36-.31.85-2.5,2.51-2.51.28.97.03,2.47,1.26,2.51.51-2.14,1.61.26,3.75,0-.2,1.46-2.28,1.06-3.75,1.26-.23,1.06.49,1.18,1.25,1.25-3.15,3.27-7.77,2.28-10.03,3.75,1.41.27,1.95,1.39,2.51,2.51h-1.26c-.83-1.68-2.68-2.33-5-2.51.24,1.02,1.25,1.26,1.25,2.51-5.15,1.28-2.52,3.08-8.78,3.76,1,2.77,4.39,3.14,6.27,5.02-1.23,3.84-3.34-1.44-5.02-1.26v1.26h-1.26c-.3,1.78-2.06,2.11-2.51,3.75-2.12.82-.78,2.89,1.25,2.51Zm25.03-7.15l.02-.22-.02.22Zm-3.38,1.4h0s0,0,0,0Zm3.35-1.23l-.07.22.07-.22Zm-.15.39l-.12.19.12-.19Zm-.24.37l-.14.16.14-.16Zm-.3.33l-.15.12.15-.12Zm-.36.28l-.14.08.14-.08Zm-.13-3.16c.2.06.38.15.53.24-.15-.09-.33-.18-.53-.24Zm.66.33c.09.07.18.13.24.2-.06-.07-.15-.13-.24-.2Zm.34.33l.13.21-.13-.21Zm.18.36l.06.23-.06-.23Zm73.27,21.68v.08s0-.08,0-.08Zm.04.23l.04.08-.04-.08Zm.11.23l.04.06-.04-.06Zm.15.21l.04.05-.04-.05Zm.2.21l.03.03-.03-.03Zm.25.21h-.02s.02,0,.02,0Zm-.75-1.24v-.09s0,.09,0,.09Zm.05-.25l.03-.1-.03.1Zm.12-.27l.06-.11-.06.11Zm.2-.31l.08-.1-.08.1Zm2.39,6.61h0s0,0,0,0Zm1.95-.73h-.02s.02,0,.02,0Zm.41-.25l.1-.09-.1.09Zm.36-.38l.09-.12-.09.12Zm-80.18-23.59l-.11.04.11-.04Zm-.41.13h-.07s.07,0,.07,0Zm-.61,2.62c.03.44.04.91.02,1.39.02-.49,0-.96-.02-1.39Zm-.46-2.22l.02.07-.02-.07Zm.3,1.02c.02.1.03.22.05.33-.02-.11-.03-.22-.05-.33Zm-9.85-4.93h1.25c-.33,2.45,2.32,10.91,2.51,5.01,4.41,6.86-4.94,3.07-3.76,10.03-2.81.97-.03-9.76-2.5-5.02-2.99-.37,1.39-3.39,2.5-3.76-.66-1.01-1.31-2.03-1.24-3.75-4.22,3.81-.15-3.43-2.51,0-3.16-2.36,1-4.56,3.75-2.51Z"/><path class="cls-7" d="m85.92,117.81c-4.06,1.55-.97-4.05-5.02-2.5.19-2.32,4.25-.78,5.02-2.51-.27-1.4-1.39-1.95-2.51-2.51,1.12-3.38,5.09.59,3.76,3.76-2.61.7-2.66,1.95-1.26,3.75Z"/><path class="cls-5" d="m64.61,65.17v-2.51c1.6.07,1.74,1.61,3.76,1.25,0,1.27-1.02,1.49-1.26,2.51-1.31.07-.98,1.61,1.26,1.26-.21,1.46-1.98,1.36-3.76,1.25v-3.76Z"/><path class="cls-3" d="m122.26,27.57c-1.25,0-1.49,1.02-2.51,1.25-3.51-1.23,1.82-3.35-1.26-5.02,3.42-.91,2.53,2.49,5.02,2.51-.07.76-.19,1.48-1.25,1.25Z"/><path class="cls-2" d="m109.73,177.97c-1.59,3.01-3.76,5.43-5.02,8.77v2.51c-2.59,1.12-.34-8.53-2.5-3.75-2.47.37-2.49-1.69-3.76-2.51,0,.69-1.01,1.42-1.25,0v-1.26c-2.49-2.9.32-1.39,1.25-3.76,1.02.24,1.24,1.25,2.51,1.25v3.77c1.7-.39,1.04-3.15,1.26-5.02,1.53.55,2.57,1.6,2.5,3.76,1.47-.21,1.06-2.29,1.26-3.76,1.65-1.5,1.97-.49,3.76,0Z"/><path class="cls-2" d="m98.45,174.21v-1.25c2.37.14.87,4.15,3.76,3.76-.24,1.02-1.26,1.25-1.26,2.51-1.26,0-1.49-1.01-2.51-1.25-.94,2.37-3.74.87-1.25,3.76-1.41-.27-1.95-1.39-2.51-2.51,1.69-1.23,2.51-3.34,3.76-5.02Z"/><path class="cls-2" d="m72.13,172.96c-1.41-2.52-3.09,5.19-5.02,6.27-.07.77-.19,1.49-1.25,1.26v-2.51c.77-.07,1.48-.19,1.25-1.25,2.81-.54.51-6.17,1.26-8.77-1.8.7-3.06,1.95-3.76,3.76-1.96-.45,1.1-2.21-1.25-2.51.56-2.67,1.56-5.58,0-8.78,3.22,3.33,1.79-2.41,5.02-2.5-.66,1.85-1.85,3.15-2.51,5.01,2.37-1.38,5.92-1.59,8.78-2.51-1.49,2.43-6.04,3.67,0,7.52,1.47.61,2.84,1.33,3.75,2.51-1.94,1.51-3.35,5.52-6.26,2.5Z"/><path class="cls-2" d="m105.97,177.97c-4.21-2.57,2.5-5.96,0-6.26-.4-2.22,7.01-2.24,5.01,1.25,0,1.26,1.02,1.49,1.25,2.51-1.4.27-1.95,1.39-2.51,2.51-1.79-.49-2.11-1.5-3.76,0Z"/><path class="cls-2" d="m67.11,176.72c.31-1.25-9.09,1.4-6.27-6.26.04-1.22,1.55-.98,2.51-1.26,2.35.3-.71,2.06,1.25,2.51.71-1.81,1.96-3.07,3.76-3.76-.75,2.6,1.55,8.23-1.26,8.77Z"/><path class="cls-1" d="m102.21,160.42c-1.65-1.5-1.97-.49-3.76,0,1.95,6.37-.43,9.03,5.01,12.53,3.39-2.65-3.35-3.63,0-7.52,2.03-.35,2.16,1.19,3.76,1.26,6.62.59-2.92-3.38,1.26-3.76h5.02c-.11,1.78-.21,3.55,1.25,3.76,0,1.25,1.01,1.49,1.24,2.51-3.46-.22-4.3,1.92-2.5,3.75h-2.51c2-3.49-5.41-3.46-5.01-1.25,2.5.3-4.21,3.69,0,6.26-.19,1.47.22,3.55-1.26,3.76.07-2.16-.97-3.21-2.5-3.76-.22,1.87.44,4.63-1.26,5.02v-3.77c0-1.25,1.02-1.49,1.26-2.51-2.9.39-1.39-3.62-3.76-3.76v1.25c-1.25.01-1.5-1.02-2.51-1.25-.92-1.16-2.28-1.89-3.76-2.5,3.07-2.96-1.87-2.34-1.25-6.27,2.56.7,2.46,3.77,5.02,1.25.9-3.83-2.16-3.68-1.25-7.51,1.21-.04.97-1.54,1.25-2.51,6.31-2.83,8.46,2.83,6.27,5.01Z"/><path class="cls-2" d="m90.93,164.19c-.62,3.93,4.32,3.31,1.25,6.27,1.48.61,2.85,1.33,3.76,2.5v1.25c-1.25,0-1.49,1.02-2.51,1.25-2.1-2.49-3.19-6-6.26-7.52-.4-1.69-1.79-2.4-1.26-5.02v-2.51c1.12.56,2.24,1.1,2.5,2.51.04,1.22,1.54.98,2.51,1.26Z"/><path class="cls-2" d="m147.33,161.68v-3.75c2.21.86,3.88,1.38,5.02,0,1.21.03.98,1.53,1.25,2.5v1.25c-1.76.33-1.44,2.75-2.51,3.76-2.37-.14-.87-4.14-3.76-3.76Z"/><path class="cls-3" d="m107.22,166.7c-1.6-.07-1.73-1.6-3.76-1.26-3.35,3.88,3.39,4.87,0,7.52-5.43-3.5-3.05-6.16-5.01-12.53,1.79-.49,2.11-1.5,3.76,0,.85,2.92,4.16,3.36,5.01,6.27Z"/><path class="cls-2" d="m74.64,167.95c-6.04-3.85-1.49-5.1,0-7.52-2.86.91-6.41,1.13-8.78,2.51.66-1.85,1.85-3.15,2.51-5.01,1.54-.55,2.58-1.61,2.51-3.76,1.11.76,2.24,1.51,2.51,0,4.22,1.13.14,2.8,2.5,5.01,3.54,1.04,3.25-1.76,6.27-1.24,4.07.65-6.63,3.04-1.26,5.01-.31,1.37-2.49.86-2.51,2.51,1.11,5.84-3.24-1.72-3.75,2.51Z"/><path class="cls-5" d="m107.22,166.7c-.85-2.92-4.16-3.35-5.01-6.27,2.19-2.18.04-7.83-6.27-5.01.84-1.48.48-7.93,0-8.78-.46-2.13.98-2.36,2.51-2.5.87,1.01,1.95,3.43,0,3.75.92,1.18,2.28,1.9,3.76,2.51v1.25c1.21-.03.97-1.53,1.24-2.51,3.56.15,2.41,5.34-1.24,5.02,1.12,4.19,2.8,1.09,5.01,0-.9,4.85-1.59,4.94,1.26,8.77-4.17.39,5.36,4.35-1.26,3.76Z"/><path class="cls-2" d="m113.49,154.16c3.39-.9-.9,5.9,2.5,5.01-.34,2.59-5.55.3-5.01,3.76h-2.51c-2.85-3.83-2.15-3.92-1.26-8.77,1.44-1.5,3.18-.49,1.26,0,.19,3.11,4.25.37,5.02,0Z"/><path class="cls-7" d="m95.94,155.42c-.28.97-.04,2.47-1.25,2.51-.91,3.83,2.16,3.68,1.25,7.51-2.56,2.52-2.46-.56-5.02-1.25-.97-.28-2.47-.03-2.51-1.26,2.21-1.13,3.88-2.8,5.01-5.01.56-1.12,1.1-2.25,2.51-2.51Z"/><path class="cls-2" d="m152.34,157.93c-1.14,1.38-2.81.86-5.02,0v3.75c-.21,1.88.45,4.63-1.25,5.02-1.73-1.6-.77-5.92-2.51-7.53,5.2,4.55.41-7.05,2.51-6.26,2.9.4,4.81-.2,6.27-1.25.38,2.47-1.69,2.49-2.51,3.76h3.77c0,1.25-1.02,1.48-1.25,2.51Z"/><path class="cls-3" d="m142.32,159.17c.86,4.17-2.6,2.02-3.76,1.26-.16-2.25,1.53-2.64,1.26-5.01-1.12.77-2.24,1.51-2.51,0,2.23-.92.18-2.28,0-3.76.55-1.86,1.6.5,3.76,0,3.1,1.76,2.21,4.32,1.25,7.51Z"/><path class="cls-2" d="m93.43,157.93c-2.49.01-1.59,3.41-5.01,2.5.7-1.8,1.96-3.06,3.76-3.75-1.08-3.7-1.87,2.91-5,1.26v-1.26c1.43-.45,3.17-2.21,1.25-2.51.56-1.82,1.1.13,2.51,0,3.24-.3-1.72-2.16,0-5.02,3.42.92,2.53-2.49,5.02-2.51.48.85.84,7.3,0,8.78-1.4.26-1.95,1.38-2.51,2.51Z"/><path class="cls-1" d="m138.56,160.42c-2.3-3.22-3.12-.76-6.27-3.75.86-2.49,4.17-5.51,5.02-1.25.27,1.51,1.39.77,2.51,0,.28,2.37-1.42,2.76-1.26,5.01Z"/><path class="cls-1" d="m87.17,156.67v1.26c3.13,1.65,3.92-4.96,5-1.26-1.8.7-3.05,1.95-3.76,3.75,3.42.91,2.53-2.49,5.01-2.5-1.14,2.21-2.81,3.87-5.01,5.01-.26-1.4-1.38-1.95-2.5-2.51.05-1.72-.6-2.75-1.25-3.75h2.51Z"/><path class="cls-1" d="m68.37,157.93c-3.22.09-1.79,5.83-5.02,2.5v-1.26c1.13-2.18,2.8-4.82,5.02-2.5.38-1.52-3.62-4.33-3.76-1.25-5.6-4.05,3.1-8.5,7.53-10.03-4.61-4.51-8.89,1.91-12.53,2.51-.67-1-1.31-2.03-1.25-3.75v-8.78c2.32-1.19.77,7.18,2.49,2.51,1.74,1.61.34,2.59,0,6.27,1.79.1,3.56.2,3.77-1.25,3.33-.02,7.38.69,7.53-2.51,1.46.2,1.05,2.28,1.25,3.76,1.04,3.54-1.77,3.25-1.25,6.26,2.68-.59,3.89,4.41,7.51,6.27-.08-3.89,4.57-4.9,6.27-10.03,1.02-.23,1.25-1.25,2.5-1.25-2.77,2.92-1.11,3.35-2.5,6.27,1.02-.24,1.25-1.25,2.5-1.25,1.76.45.11,2.21-1.25,2.51-1.86.65-3.17,1.85-5.02,2.51v2.51c-3.02-.52-2.73,2.28-6.27,1.24-2.36-2.21,1.72-3.87-2.5-5.01-.27,1.51-1.39.76-2.51,0,.07,2.15-.97,3.21-2.51,3.76Z"/><path class="cls-5" d="m59.6,147.89c3.65-.6,7.92-7.02,12.53-2.51-4.43,1.53-13.13,5.98-7.53,10.03.14-3.08,4.14-.27,3.76,1.25-2.21-2.32-3.88.32-5.02,2.5-3.54-1.03-3.25,1.77-6.26,1.26-.95-4.71,6.65-.86,5.01-6.26-2.09-1.98-5.07.95-5.01-5.02,1.45.21,2.23-.28,2.51-1.25Z"/><path class="cls-2" d="m146.07,152.91c-2.1-.79,2.68,10.81-2.51,6.26h-1.24c.96-3.2,1.84-5.75-1.25-7.51-.24-1.02-1.26-1.25-1.25-2.51,2.24.36,2.57-1.19,1.25-1.25,1.53-3.79,4.78.89,6.26,1.25,1.01-1.08,3.43-.75,3.76-2.51h1.26c-1.18,2.32,7.17.78,2.51,2.51-3.22.97-7.11,1.26-8.78,3.76Z"/><path class="cls-5" d="m132.28,156.67c.21,1.45-.27,2.23-1.26,2.5v-1.24c-.75-2.24,3.69-5.21,0-6.27-.17,2.34-.81,4.19-2.5,5.02-.15-1.53-.38-2.97-2.51-2.51v-1.26c3.07-1.55-3.76-3.64-3.76-6.27-1.47.21-1.05,2.29-1.25,3.77-2.92-1.88-1.91-3.07-1.26-6.26-1.86,1.76-2.69,3.99-2.51-1.25,1.23-.04.98-1.54,1.25-2.51,1.12.56,2.25,1.1,2.51,2.51.24,1.02,1.25,1.25,1.25,2.5,1.21-.03.98-1.53,1.25-2.5,1.54.55,2.58,1.6,2.51,3.75,1.13-.96,5.15-8.07,0-7.51-1.39-2.37-1.6-5.92-2.51-8.77,2.21.3,2.86,2.15,2.51,5.01,2.9-2.75,4.15,3.21,10.02,1.25,2.72,2.61.07,4.27-2.51,5.02,4.28.96-1.26,7.92,3.76,10.02.18,1.48,2.23,2.85,0,3.76-.85-4.26-4.16-1.24-5.02,1.25Zm-3.75-13.79v5.01c2.33-.17,4.18-.83,5.01-2.51-1.85-.65-3.16-1.85-5.01-2.5Z"/><path class="cls-7" d="m113.49,154.16c-.77.37-4.83,3.11-5.02,0,1.92-.49.19-1.5-1.26,0-2.21,1.09-3.88,4.19-5.01,0,3.65.33,4.81-4.87,1.24-5.02-.28.98-.03,2.48-1.24,2.51v-1.25c-3.28-4.84,9.3-1.44,5.01-6.26-.23-1.07.49-1.18,1.26-1.25,1.01-1.08,3.43-.75,3.76-2.51,1.57-1.32-1.86,6.57,1.26,7.52-.04,1.22-1.54.97-2.51,1.25.03,1.22,1.54.98,2.51,1.26,1.5,1.64.49,1.97,0,3.76Z"/><path class="cls-5" d="m90.93,149.15c-1.72,2.86,3.24,4.72,0,5.02-1.4.13-1.95-1.82-2.51,0,1.93.3.19,2.06-1.25,2.51h-2.51c.3-1.79,2.06-2.12,2.51-3.76,1.35-.3,3-2.06,1.25-2.51v-1.26c1.12-.77,2.25-1.51,2.51,0Z"/><path class="cls-2" d="m126.02,152.91c-2.07.02-.71,3.48-2.51,3.76-.1-5.42-1.6-2.28-5.02-5.02-.69,2.56-3.76,2.46-1.25,5.02-.09,2.18.28,3.89,1.25,5.01-1.47.2-3.55-.21-3.75,1.25,1.95.33.87,2.75,0,3.76-1.46-.21-1.36-1.98-1.25-3.76h-2.51c-.54-3.46,4.67-1.17,5.01-3.76-3.4.9.9-5.9-2.5-5.01.49-1.79,1.5-2.12,0-3.76h2.5v-7.52h1.25c-.18,5.25.65,3.02,2.51,1.25-.66,3.2-1.66,4.38,1.26,6.26.2-1.48-.22-3.56,1.25-3.77,0,2.63,6.83,4.72,3.76,6.27Z"/><path class="cls-3" d="m57.09,145.38c.05,3.21-.94,1.53-2.51,1.25-.81,5,3.31,5.04,2.51,10.03-1.02-.24-1.25-1.26-2.51-1.25v-2.51c-2.25-.16-2.65,1.53-5.02,1.26.21-1.45-.27-2.23-1.25-2.51,7.28-6.01-4.03-6.66-1.25-8.77-2.79-.7-1.79,2.39-3.76,2.5-5.15,2.68-.72-2.84,0-5.01,1,.87,3.43,1.95,3.76,0,1.69,1.23,2.5,3.35,3.75,5.01h2.51c1.64-1.5,1.97-.49,3.76,0Z"/><path class="cls-2" d="m43.3,145.38c1.97-.11.97-3.2,3.76-2.5-2.79,2.11,8.52,2.76,1.25,8.77-2.13-.52.27-1.61,0-3.76-1.85-1.45-3.16-1.45-5.01,0v-2.51Z"/><path class="cls-4" d="m115.99,142.88v7.52h-2.5c-.98-.28-2.48-.03-2.51-1.26.97-.28,2.47-.03,2.51-1.25-3.12-.95.32-8.84-1.26-7.52-.33,1.76-2.75,1.43-3.76,2.51,6.77-4.1-5.01-4.02-1.26-7.52.12,1.73,4.9,4.9,5.02,2.51,1.02.24,1.25,1.25,2.51,1.25-.36,2.02,1.18,2.16,1.24,3.76Z"/><path class="cls-3" d="m151.09,146.64c-.33,1.76-2.75,1.43-3.76,2.51-1.48-.37-4.73-5.05-6.26-1.25,1.31.07.98,1.61-1.25,1.25-1.37-.31-.86-2.49-2.51-2.51.37-4.36,3.39.11,3.76-2.5,4.1.07,4.79,3.56,10.02,2.5Z"/><path class="cls-1" d="m141.07,144.14c-.37,2.61-3.39-1.86-3.76,2.5,1.66.02,1.15,2.2,2.51,2.51-.01,1.26,1.01,1.49,1.25,2.51-2.16.5-3.22-1.86-3.76,0-5.02-2.1.52-9.06-3.76-10.02,2.58-.75,5.22-2.41,2.51-5.02h3.77c-.24,1.02-1.27,1.26-1.26,2.51,3.54,1.03,3.25-1.77,6.26-1.25v1.25c-2.83.7,1.52,1.95-1.26,3.76-1.45-1.05-3.35-1.65-6.26-1.25.92,1.17,2.28,1.9,3.76,2.51Z"/><path class="cls-2" d="m133.54,145.38c-.83,1.68-2.68,2.34-5.01,2.51v-5.01c1.85.65,3.15,1.85,5.01,2.5Z"/><path class="cls-7" d="m88.42,149.15c.47-4.16,8-10.2,10.03-5.01-1.53.14-2.97.37-2.51,2.5-2.49.02-1.59,3.43-5.02,2.51-.26-1.51-1.38-.77-2.51,0Z"/><path class="cls-2" d="m126.02,139.12c5.15-.56,1.13,6.55,0,7.51.07-2.15-.97-3.2-2.51-3.75-.28.97-.04,2.47-1.25,2.5,0-1.25-1.02-1.48-1.25-2.5,1.22-.04.97-1.54,1.25-2.51,1.12.56,2.24,1.1,2.51,2.51,1.46-.21,1.05-2.29,1.26-3.76Z"/><path class="cls-2" d="m151.09,146.64c-5.23,1.07-5.92-2.43-10.02-2.5-1.48-.61-2.85-1.34-3.76-2.51,2.91-.4,4.81.2,6.26,1.25,1.83,1.79,4.86,1.84,3.76-2.51h1.25c8.12,2.09-4.43,3.28,3.76,3.76h2.51c-.15,1.52-.38,2.97-2.51,2.5h-1.26Z"/><path class="cls-8" d="m107.22,144.14v1.25h-3.76c-.62-3.93,2.96-5.12-1.24-6.26.23-1.02,1.25-1.25,1.24-2.51-1.06-.23-1.17.49-1.24,1.26-2.72.21-.58-4.45-1.26-6.27-.2-3.12,1.96-3.87,2.5-6.26-.25-6.15-5.15-13.37-3.75-11.28-1.53,3.79-4.79-.88-6.27-1.25-.52,3.14,5.71,5.82,2.51,7.51-.56-1.12-1.11-2.24-2.51-2.51-.66-1.01-1.3-2.03-1.26-3.75-1.64,1.5-1.97.49-3.76,0h-1.25c1.32-3.17-2.64-7.15-3.76-3.76,1.11.56,2.24,1.1,2.51,2.51-.76,1.73-4.82.19-5.02,2.51,4.05-1.55.96,4.05,5.02,2.5,3.98,1.06-2.23,1.65-3.76,1.26,1.76,1.86,4,2.7-1.26,2.51.2,1.48,2.29,1.06,3.76,1.26-.04,1.22-1.53.97-2.51,1.25.03,1.21,1.53.98,2.51,1.26.05,1.77-3.31,10.87-7.53,12.53v-1.26c2.37-.14.88-4.14,3.76-3.76-2.26-4.08-4.6-.33-10.02-1.25,7.11-1.72-2.1-5.08-5.02-3.75.78-1.12,1.51-2.25,0-2.51-1.98.1-4.78-.61-5.02,1.25-1.75-.45-.1-2.21,1.26-2.51-3.78-2.15-4.36,2.07-6.26,5.02-1.12-.56-2.24-1.11-2.51-2.51v-1.25c3.24-.11,1.33-5.37,6.27-3.77-.19-2.32-4.25-.77-5.02-2.51v-5.01c4.81-.23.46,1.03,1.25,3.75,2.43-2.99,6.41-4.44,7.52-8.77-7.37-.13-5.91-4.67-11.28-3.77.92-2.55,3.77-5.11,6.27-2.5-.71-1.81-1.96-3.07-3.76-3.76.19-3.11,4.24-.37,5.02,0-2.7-4.66-1.48-2.32,1.24-6.27.39-2.54-3.61.26-3.75,1.25-2.57-1.61-1.33-7.03-5.02-7.52.39-2.96,4.35-2.33,3.76-6.27-2.26,2.76-4.89,5.14-6.27,8.78-.77-12.84,15.65-10.51,20.06-6.27,1.51-5.13,10.7-7.99,13.79-7.51,1.26-3.77-2.8-2.23-5.02-2.51.56-1.11,1.11-2.25,2.51-2.51-.7-2.82-1.95,1.52-3.76-1.25-.41-2.93-1.5-5.17-2.5-7.51-1.4-1.54-1.09-2.58,1.25-2.51-.03-1.22-1.54-.98-2.5-1.26-1.03-3.54,1.77-3.24,1.26-6.27,8.1,3.95,4.08,1.94,15.03,6.27-5.93-6.6,4.4,1.14,6.27-3.76-1.52,6.54,6.77-.26,7.51,3.76,4.37-.37-.1-3.39,2.51-3.76,1.02-.24,1.25-1.25,2.51-1.25h1.25c.05,3.21-.94,1.53-2.51,1.25.56,1.12,1.1,2.24,2.51,2.51,3.67-1.06-.75-4.03,0-6.27,1.8,1.87,6.09,3.96,3.76,6.27,2.73.23,3.98-1.03,3.75-3.76,2.19,1.15,2.77,3.92,2.51,7.52,3.13-.14,3.88-2.35,6.27,0-1.81-6.11.2-2.32,2.51,0,1.06-.23,1.17.49,1.25,1.26-2.57,2.67-4.97-.36-7.53-1.26,3.26,5.05-.35,1.94,1.25,7.52-2.99-.79-5.52-.77-8.77-3.76-1.17.72-1.9,3.48-2.51,1.26-1.23-3.5-3.34,1.82-5.02-1.26v7.53c.81,5.88,2.15,11.22,6.27,13.79,1.01.24,1.24,1.25,2.5,1.25.45,1.64,2.21,1.97,2.51,3.75,5.49-1.56,7.89,2.7,11.29,0,2.36.94.87,3.74,3.75,1.25-.23,1.06.48,1.19,1.25,1.25-.68,4.44,4.44,3.08,3.76,7.53-6.27-2.51-8.29-7.42-12.53-2.51-1.92-.02-4.12-3.42,0-2.51-.92-2.23-2.28-.18-3.76,0-.02,1.83,5.29,3.97,0,3.76,2.49,2.81,8.73-1.23,12.53-1.25-6.29,3.53-9.23,6.7-16.3,5.02.04,1.22,1.53.97,2.51,1.25-2.51,5.6,2.07,5.44,5.02,6.27v5.02c1.8-.29.44-3.74,2.51-3.76v2.51c.55,1.86,1.6-.5,3.75,0,.97,6.4-2.64,8.21-7.52,8.77v-1.26c-.24-1.01-1.25-1.24-1.25-2.51-1.99.11-4.78-.6-5.02,1.25-1.45-.2-2.23.28-2.51,1.25-1.42-.24-.69-1.25,0-1.25-.2-1.46-2.28-1.06-3.75-1.25,1.86,4.7,2.06,3.79,1.26,10.03-1.86-4.05-6.48.52-6.27-3.76-3.58,2.85,4.27,4.84,2.51,10.02-1.22-.03-.98-1.53-1.25-2.51-1.22.04-.98,1.54-1.26,2.51-3.75,3.5,8.02,3.42,1.26,7.52-.77.07-1.48.18-1.26,1.25Zm-1.25-22.57c.28-.97,1.05-1.45,2.51-1.25-.47-4.61,2.07-6.28,2.51-7.51.9-3.4-5.91.9-5.01-2.51,2.87-3.25,11.08-6.37,6.27-10.02,1.26,0,1.49-1.02,2.51-1.26,1.78.49,2.11,1.5,3.75,0,.29.97.04,2.47,1.26,2.51.63-3.95-2.73-4.91,0-7.52-4.37,1.96-10.24-.07-12.53-3.76,2.72-4.32-.91-7.57-3.76-7.52,2.25.16,2.94-1.24,2.51-3.76-4.02-1.03-2.6-1.07-5.01,1.26-6.06-5.3,3.12-16.67,1.26-16.3-2.88.46-10.5-.26-8.78-3.75-1.08,1.83-1.87,3.97-5.01,3.75-1.76-2-4.31-3.19-7.52-3.75-1.48.61-2.84,1.34-3.76,2.5,4.1-.2,8.1-2.9,8.78,2.51-3.72-.88-6.18-1.5-7.52,0,5.13,3.52.72.99,5.02,0,1.1,4.44-3.22,6.46,1.25,7.52.3-2.35,2.06.71,2.51-1.25-2.36-.3.71-2.06-1.26-2.51-.3,1.36-2.07,3-2.51,1.25,2.49-.02,1.59-3.42,5.01-2.51-1.38,3.93-.58,3.31,1.25,6.27-3.1-2.42-4.62,1.06-1.25,2.5-1.26,0-1.48,1.02-2.5,1.26-1.7-.39-2.4-1.78-5.02-1.26-.11,5.33-5.77,5.1-6.26,10.03-3.83.91-4.57-1.28-7.53-1.25-2.19,2.56.94,2.46-1.25,5.01,3.21.14,4.39,2.3,6.27,3.76-5.77-.28-10.42,7.07-8.78,10.02,1.26-1.66,1.18-4.66,3.76-5.01,2.89,3.4-2.39,5.87,0,7.52.27-1.4,1.39-1.95,2.51-2.51,0,1.66,2.2,1.15,2.51,2.51-.22,1.88.45,4.63-1.25,5.02-.2-1.47.21-3.55-1.25-3.76-.42,4.6,1.39,6.97,2.51,10.02-2.5-2.61-5.35-.04-6.27,2.51,5.84.02,6.93,4.78,13.79,3.76-2.08-3.93,4.66-5.11,1.25-6.27-.54,3.16-2.7-2.08-2.51-3.75.94-6.3,5.53-2.57,1.25-7.52,4.26-.34,10.65.49,7.53,3.76,3.11.19,3.87-1.97,6.26-2.51-.07,1.6-1.6,1.74-1.26,3.76,1.73-.05,2.76.59,3.76,1.26-.35-2.86.3-4.72,2.51-5.02-.53,4.54,4.67,2.18,7.52,13.79Zm20.06-5c-3.21,1.36-2.02-7.78-3.76-3.76-.14,1.53-.38,2.97-2.51,2.51.18-1.48,2.23-2.85,0-3.76-4.06,5.63,5.65,5.1,6.27,5.02Zm-22.57-40.12c5.7,1.04.27-11.88,0-8.77-.21,1.87.45,4.63-1.24,5.02.09-1.76-.28-4.8-1.26-2.51-.94,3.85,3.43,2.41,2.5,6.26Zm11.29,10.03c-2.37.28-2.77-1.41-5.02-1.25.15,3.19,1.82,4.86,5.02,5.01v-3.75Zm-48.89,26.32c.09,4.91-7.39,3.14-5.02,7.51,2.1-1.13,9.36-8.02,5.02-7.51Z"/><path class="cls-4" d="m102.21,139.12c4.2,1.14.62,2.33,1.24,6.26h3.76v-1.25c4.3,4.82-8.28,1.43-5.01,6.26-1.48-.61-2.85-1.33-3.76-2.51,1.95-.33.87-2.75,0-3.75-2.03-5.2-9.56.85-10.03,5.01v1.26c-1.26,0-1.48,1.01-2.5,1.25,1.4-2.92-.27-3.35,2.5-6.27.86-2.91,5.69-1.82,6.27-5.01-.44-1.97-2.21,1.1-2.51-1.25-1.96.44,1.1,2.21-1.25,2.51h-2.51c-.2-1.46.28-2.23,1.25-2.51,1.01-.24,1.25-1.25,2.51-1.25.55,1.86,1.6-.5,3.76,0,.11-1.78.21-3.56-1.25-3.77.77-4.74,5.23,1.35,5.01-5v-2.51c.66-1.01,1.31-2.04,1.25-3.76,1.36.31.85,2.49,2.5,2.51-.54,2.39-2.7,3.14-2.5,6.26-1.59,2.18-4.24,3.28-3.76,7.52,3.92-7.34,2.68,6.87,5.02,0Z"/><path class="cls-7" d="m89.67,139.12c-.98.28-1.45,1.04-1.25,2.51h2.51c2.35-.3-.71-2.07,1.25-2.51.3,2.35,2.07-.72,2.51,1.25-.58,3.19-5.42,2.1-6.27,5.01-1.26,0-1.48,1.03-2.5,1.25-.21-1.45.27-2.23,1.26-2.5-.04-1.22-1.53-.97-2.51-1.25.84-1.39,4.16-6.51,5.01-3.76Z"/><path class="cls-2" d="m53.33,145.38c.75-3.26-.51-4.51-3.76-3.75-.5-3.01,5.72.7,3.76-3.76,1.68.82,2.34,2.68,2.51,5.02,3.4.9-.9-5.91,2.51-5.02v6.27c-1.07-.24-1.19.49-1.25,1.25-1.79-.49-2.12-1.5-3.76,0Z"/><path class="cls-5" d="m148.58,140.38h-1.25c1.09,4.35-1.93,4.3-3.76,2.51,2.78-1.81-1.57-3.07,1.26-3.76,1.54-.4,7.75.2,3.76,1.25Z"/><path class="cls-7" d="m64.61,142.88c-.21,1.45-1.98,1.35-3.77,1.25.34-3.68,1.74-4.66,0-6.27.67-1.01,1.32-2.03,1.26-3.77v-1.25c1.02-.66,2.04-1.3,3.76-1.25.77-5.32-4.55-3.34,0-6.26,1.51.26.78,1.39,0,2.51,2.92-1.32,12.12,2.03,5.02,3.75,5.43.92,7.77-2.83,10.02,1.25-2.88-.38-1.39,3.62-3.76,3.76-1.39-1.54-1.08-2.57,1.25-2.51-2.67-3.14-7.7,1.89-5.01,5.02-1.54-.55-2.58-1.6-2.51-3.76-7.88-.12-2.86,5.75-8.78,6.27.04,1.21,1.53.96,2.51,1.25Z"/><path class="cls-5" d="m79.65,144.14c1.02-.24,1.25-1.26,2.51-1.25-.92-1.18-2.28-1.9-3.76-2.51.45-1.65,2.21-1.97,2.51-3.76,2.83.71-1.52,1.95,1.26,3.76.63-1.61,1.32-2.6,2.51-6.27,2.93.33.71,5.51,0,6.27,2.63-2.39,6.61-3.41,6.26-8.78-1.21.04-.97,1.54-1.25,2.51-1.83-1.08-3.97-1.87-3.75-5h5.01c1.78,5.85,5.97-2.95,5.02-5.02h2.51c-.21,1.45.28,2.23,1.25,2.51v2.51c-1.22.03-.97,1.53-1.25,2.5-2.95-3.85-.75-.5-5.02,0,.1,4.68,1.88,4.05-1.26,6.27-1.25,0-1.49,1.01-2.51,1.25-.85-2.75-4.16,2.37-5.01,3.76.98.28,2.47.03,2.51,1.25-.98.27-1.46,1.05-1.26,2.5-1.7,5.14-6.35,6.14-6.27,10.03-3.62-1.86-4.83-6.86-7.51-6.27-.52-3.02,2.29-2.73,1.25-6.26,1.47.2,1.06,2.28,1.26,3.75,2.55-.37,2.45-3.39,5.01-3.75Z"/><path class="cls-2" d="m73.38,144.14c-.2-1.48.21-3.56-1.25-3.76-.14,3.2-4.2,2.49-7.53,2.51-.98-.29-2.47-.04-2.51-1.25,5.92-.52.9-6.39,8.78-6.27-.07,2.16.97,3.21,2.51,3.76-2.69-3.13,2.34-8.16,5.01-5.02-2.34-.06-2.65.97-1.25,2.51v1.26c.18,2.33.83,4.19,2.51,5.02v1.25c-2.56.37-2.46,3.39-5.01,3.75-.2-1.48.21-3.55-1.26-3.75Z"/><path class="cls-7" d="m102.21,139.12c-2.34,6.87-1.1-7.34-5.02,0-.48-4.24,2.17-5.34,3.76-7.52.68,1.82-1.46,6.48,1.26,6.27.07-.77.18-1.48,1.24-1.26.01,1.26-1.01,1.49-1.24,2.51Z"/><path class="cls-7" d="m90.93,129.1h-5.01c-.22,3.13,1.92,3.92,3.75,5,.29-.96.04-2.47,1.25-2.51.35,5.37-3.64,6.39-6.26,8.78.71-.76,2.93-5.94,0-6.27-1.19,3.67-1.88,4.66-2.51,6.27-2.78-1.81,1.57-3.05-1.26-3.76-.3,1.79-2.06,2.11-2.51,3.76,1.48.61,2.85,1.33,3.76,2.51-1.26-.01-1.49,1.02-2.51,1.25v-1.25c-1.68-.83-2.33-2.69-2.51-5.02,4.22-1.66,7.58-10.76,7.53-12.53.83-3.75,2.68,1.19,5.01,0-.55-1.54-1.6-2.58-3.75-2.51.85-2.49,3.81-2.87,5.01-5.02-.53-2.44-3.57,2.05-2.51-3.75,1.79.49,2.12,1.5,3.76,0-.05,1.72.6,2.75,1.26,3.75-3.7,1.1,2.91,1.88,1.26,5.02-1.22.04-.98,1.53-1.26,2.51-2.69-1.88.9-3.07-1.26-6.27-1.64.45-1.97,2.21-3.76,2.51,2.11,1.2,3.92,4.16,0,5.02-.36,1.4,5.9-.08,2.51,2.51Z"/><path class="cls-5" d="m47.07,139.12c-.04-1.23-1.54-.98-2.51-1.25.03-1.22,1.53-.98,2.51-1.26-.86-4.69-4.17.93-5.02-3.76,1.46.21,2.23-.27,2.51-1.25-.23-1.07.49-1.18,1.25-1.25,3.09-4.13-2.57,3.71,1.25,3.75.67-1.87,1.25-1.47,2.5-5h1.26v1.25c2.15,3.2-1.44,4.38,1.25,6.26,2.99.73-2.56,3.11-5.01,2.51Z"/><path class="cls-5" d="m112.24,137.87c2.42-5.98,7.04,4.16,7.52-3.77,3.35,1.83-.52,6.88-3.76,6.27v-3.76c-1.21.04-.97,1.53-1.24,2.51-1.26,0-1.49-1.02-2.51-1.25Z"/><path class="cls-7" d="m144.82,137.87c-3.02-.52-2.72,2.29-6.26,1.25-.01-1.25,1.02-1.49,1.26-2.51,1.82-.56-.13-1.09,0-2.51,1.77-.11,3.54-.2,3.75,1.26,1.17,1.86,9.03,2.02,1.26,2.51Z"/><path class="cls-7" d="m103.46,125.34c-1.65-.02-1.14-2.2-2.5-2.51.05,1.72-.6,2.76-1.25,3.76-.97-.28-1.46-1.06-1.25-2.51-.45-1.64-2.21-1.97-2.51-3.76,3.21-1.69-3.03-4.37-2.51-7.51,1.48.37,4.74,5.05,6.27,1.25-1.39-2.09,3.5,5.13,3.75,11.28Z"/><path class="cls-6" d="m98.45,107.79c-2.21.3-2.86,2.16-2.51,5.02-1.01-.67-2.03-1.31-3.76-1.26-.35-2.02,1.19-2.16,1.26-3.76-2.39.54-3.15,2.7-6.26,2.51,3.13-3.27-3.27-4.1-7.53-3.76,4.28,4.95-.31,1.22-1.25,7.52-.19,1.67,1.97,6.91,2.51,3.75,3.41,1.16-3.33,2.34-1.25,6.27-6.86,1.02-7.94-3.74-13.79-3.76.92-2.55,3.77-5.12,6.27-2.51-1.11-3.05-2.92-5.42-2.51-10.02,1.46.21,1.05,2.29,1.25,3.76,1.7-.39,1.03-3.14,1.25-5.02-.31-1.36-2.5-.85-2.51-2.51-1.12.56-2.24,1.1-2.51,2.51-2.39-1.64,2.89-4.11,0-7.52-2.58.35-2.5,3.34-3.76,5.01-1.64-2.96,3.01-10.3,8.78-10.02-1.88-1.46-3.07-3.62-6.27-3.76,2.19-2.55-.94-2.45,1.25-5.01,2.96-.03,3.69,2.16,7.53,1.25.49-4.94,6.15-4.71,6.26-10.03,2.62-.53,3.32.87,5.02,1.26,1.02-.24,1.25-1.26,2.5-1.26-3.37-1.43-1.84-4.92,1.25-2.5-1.83-2.96-2.64-2.34-1.25-6.27-3.42-.92-2.52,2.49-5.01,2.51.44,1.75,2.21.11,2.51-1.25,1.96.45-1.1,2.21,1.26,2.51-.45,1.96-2.21-1.1-2.51,1.25-4.47-1.06-.15-3.09-1.25-7.52-4.3.99.11,3.52-5.02,0,1.34-1.5,3.8-.88,7.52,0-.67-5.4-4.68-2.71-8.78-2.51.93-1.16,2.28-1.89,3.76-2.5,3.21.56,5.76,1.75,7.52,3.75,3.14.22,3.93-1.92,5.01-3.75-1.72,3.49,5.9,4.21,8.78,3.75,1.86-.37-7.32,11-1.26,16.3,2.41-2.32.99-2.29,5.01-1.26.43,2.52-.26,3.92-2.51,3.76,2.86-.05,6.48,3.2,3.76,7.52,2.29,3.69,8.16,5.72,12.53,3.76-2.73,2.62.63,3.57,0,7.52-1.21-.04-.96-1.54-1.26-2.51-1.64,1.5-1.97.49-3.75,0-1.02.24-1.25,1.26-2.51,1.26,4.81,3.65-3.4,6.78-6.27,10.02-.9,3.4,5.91-.9,5.01,2.51-.44,1.23-2.98,2.91-2.51,7.51-1.45-.2-2.23.28-2.51,1.25-2.85-11.61-8.04-9.25-7.52-13.79Z"/><path class="cls-7" d="m107.22,135.36c.28-.97.04-2.47,1.26-2.51.28.98.03,2.48,1.25,2.51,1.76-5.19-6.08-7.18-2.51-10.02-.21,4.28,4.41-.29,6.27,3.76.81-6.24.61-5.34-1.26-10.03,1.48.2,3.56-.21,3.75,1.25-.69,0-1.42,1.02,0,1.25.28-.97,1.05-1.45,2.51-1.25h1.26c-2.63,3.06,1.99,6.45-2.51,6.27.04,1.21,1.54.97,2.51,1.25,2.09-3.33-.85-5.57,5.02-6.27v1.26c4.88-.56,8.48-2.37,7.52-8.77-2.15-.5-3.2,1.86-3.75,0,1.27-.82,1.29-2.89,3.75-2.51.93,1.1,5.84,1.43,6.27,6.26,1.12-.96,2.83-1.34,5.01-1.24v6.26c-2.13-.46-2.36.97-2.5,2.51-8.87,1.41-8.44-1.22-18.8,0-.05,1.86,7.45,1.81,1.25,2.51v2.51c.91,2.85,1.12,6.4,2.51,8.77-.2,1.47.21,3.55-1.26,3.76-.27-1.41-1.39-1.95-2.51-2.51-.28.97-.03,2.47-1.25,2.51-.26-1.41-1.4-1.95-2.51-2.51-.28.97-.03,2.47-1.25,2.51h-1.25c-.06-1.6-1.6-1.74-1.24-3.76.28-.98.03-2.47,1.24-2.51v3.76c3.25.61,7.11-4.44,3.76-6.27-.48,7.92-5.1-2.22-7.52,3.77-.12,2.39-4.9-.78-5.02-2.51Z"/><path class="cls-2" d="m60.84,137.87c-1.73,4.67-.18-3.69-2.49-2.51h-1.25c-.21-1.45.28-2.23,1.25-2.51,2.89-2.48,1.39.32,3.75,1.25.06,1.73-.59,2.76-1.26,3.77Z"/><path class="cls-7" d="m141.07,130.35c-.77,2.16-5.94-.1-6.27,2.5-1.54-.7.93-4.85-5.01-3.75.29-6,4.44.96,7.51,0,1.22-.04.98-1.54,1.25-2.51,1.12.77,2.24,1.51,2.51,0,1.16.37,1.16,3.38,0,3.76Z"/><path class="cls-4" d="m141.07,130.35c2.23,3.37-5.53,2.42-1.25,3.75-.13,1.42,1.82,1.95,0,2.51h-1.26c.5-3.01-5.71.7-3.76-3.76.33-2.6,5.5-.34,6.27-2.5Z"/><path class="cls-2" d="m136.05,136.61c-5.87,1.96-7.13-4-10.02-1.25.35-2.86-.3-4.71-2.51-5.01v-1.25h6.27c5.94-1.1,3.46,3.05,5.01,3.75-1.95,4.46,4.26.76,3.76,3.76h-2.51Z"/><path class="cls-2" d="m144.82,135.36c.47-2.13-.97-2.36-2.5-2.51-.22-3.55,8.19,1.52,6.26-3.75,1.7.39,1.04,3.13,1.25,5-1.08,1.89-1.87-.34-5.02,1.26Z"/><path class="cls-2" d="m44.56,131.6c-.28.98-1.06,1.46-2.51,1.25h-2.51c-.1,1.99.61,4.79-1.25,5.02-5.84,3.54-.19-4.22-5.02-5.02-.28.98-.03,2.48-1.24,2.51-.49-1.79-1.5-2.11,0-3.76v-2.5c3.12.87,5.15,1.23,7.52-1.26h1.25c1.55,1.39,2.58,1.09,2.51-1.25h1.26c1.72,2.86-3.24,4.71,0,5.01Z"/><path class="cls-1" d="m32.03,131.6h-7.52c.88-4.12,2.01-8.01,2.51-12.53,1.36-.31.85-2.49,2.51-2.5.96,1.11,1.34,2.83,1.25,5-2.14-.46-2.37.98-2.51,2.51,2.35,1.38,7.49.94,11.28,3.76-2.37,2.49-4.39,2.13-7.52,1.26v2.5Z"/><path class="cls-5" d="m62.1,134.1c-2.36-.93-.86-3.73-3.75-1.25-.36-2.02,1.18-2.15,1.25-3.75,1.43-.45,3.18-2.21,1.24-2.51.24-1.86,3.04-1.15,5.02-1.25-4.55,2.92.77.94,0,6.26-1.72-.05-2.75.6-3.76,1.25v1.25Z"/><path class="cls-2" d="m99.7,129.1c.22,6.36-4.24.27-5.01,5,1.46.21,1.36,1.98,1.25,3.77-2.16-.5-3.22,1.86-3.76,0,3.14-2.22,1.36-1.59,1.26-6.27,4.27-.5,2.07-3.85,5.02,0,.28-.97.03-2.47,1.25-2.5Z"/><path class="cls-7" d="m53.33,126.59c.27,1.4,1.39,1.95,2.51,2.51,1.9-2.95,2.48-7.17,6.26-5.02-1.35.3-3,2.06-1.26,2.51,1.93.3.19,2.06-1.24,2.51-3.85-.19-5.64,4.41-8.78,1.25v-1.25c-.46-2.14.98-2.37,2.51-2.51Z"/><path class="cls-6" d="m60.84,120.32c-2.37-4.38,5.11-2.61,5.02-7.51,4.34-.51-2.92,6.38-5.02,7.51Z"/><path class="cls-2" d="m98.45,124.08h-2.51c.96,2.07-3.24,10.87-5.02,5.02,3.39-2.59-2.87-1.11-2.51-2.51,3.92-.86,2.11-3.82,0-5.02,1.79-.3,2.12-2.06,3.76-2.51,2.15,3.2-1.43,4.39,1.26,6.27.28-.98.04-2.47,1.26-2.51,1.65-3.14-4.96-3.92-1.26-5.02,1.4.27,1.95,1.39,2.51,2.51.3,1.79,2.06,2.12,2.51,3.76Z"/><path class="cls-1" d="m49.56,129.1c-1.25,3.53-1.83,3.13-2.5,5-3.82-.04,1.83-7.88-1.25-3.75-.77.07-1.48.18-1.25,1.25-3.24-.3,1.72-2.15,0-5.01,1.01-.24,1.24-1.25,2.51-1.25v1.25c.31,1.36,2.49.85,2.5,2.51Z"/><path class="cls-2" d="m147.33,120.32c-1.12,2.22-5.09,1.6-3.76,6.27,1.94-3.02,2.64-5.36,2.51,1.25,1.47-.21,1.06-2.29,1.25-3.76,2.37.14.88,4.14,3.76,3.76v6.26h-1.25c-.21-1.87.45-4.62-1.25-5,1.93,5.27-6.48.2-6.26,3.75,1.52.15,2.96.38,2.5,2.51h-1.26c-.21-1.45-1.98-1.37-3.75-1.26-4.27-1.33,3.48-.39,1.25-3.75,1.16-.38,1.16-3.39,0-3.76v-1.25c.14-1.54.37-2.97,2.5-2.51v-3.76c1.78-.1,3.56-.2,3.76,1.25Z"/><path class="cls-7" d="m54.58,117.81v1.26c.77,1.74,4.83.19,5.02,2.51-4.94-1.6-3.03,3.66-6.27,3.77,3.48-4.08-10.22-5.34-5.02,1.25h-1.25v-1.25c-.32-1.57-2.5-1.27-2.51,0-2.24.37-.08-4.87,2.51-3.77-4.23-4.04-10.73-6.2-3.76,0-3.94.6-4.9-1.78-7.53-2.51.67-1.01,1.31-2.03,1.26-3.75-.23-4.81,1.02-.46,3.76-1.25-2.44-2.16-3.79-5.39-7.52-6.27-1.27,1.22-2.53,2.48-3.75,3.76-3.44-1.13,2.45-4.62-2.51-5.02,1.07-1.85,3.15-2.69,6.26-2.51,1.12.77,2.25,1.52,2.51,0,.26,1.65,1.86,5.74,5.02,1.25,1.02.24,1.25,1.27,2.51,1.26-.39,1.7-3.15,1.04-5.02,1.25.57,6.17,5.93.65,7.53,2.51,3.62.7-1.93,1.95-1.25,3.76-1.23-.04-.98-1.53-1.26-2.51-3.68,1.06,1.63,3.16,0,6.26,2.07-4.37,6.84.46,8.77-5,2.14.4-1.15,3.88,2.51,5Z"/><path class="cls-4" d="m53.33,126.59c-1.52.14-2.97.37-2.51,2.51h-1.26c0-1.66-2.19-1.15-2.5-2.51h1.25c-5.21-6.59,8.5-5.34,5.02-1.25v1.25Z"/><path class="cls-2" d="m176.15,120.32h-1.25c-1.86.55.5,1.6,0,3.76-1.01-.24-1.25-1.25-2.51-1.25-2.15.39,1.63,4.35-3.75,3.76.65,1.85,1.85,3.16,2.5,5.01-3.37,5.68-5.55-6.78-6.26-3.75-.72,2.2,1.51,7.36-1.25,7.52-3.48-3.48-5.86-.24-8.77-3.76v-5.01c1.46.2,1.06,2.28,1.25,3.76,1.59-5.99-.16-10.92,3.75-16.29,4-.18,3.72-4.64,7.52-5.02.21,1.46,1.98,1.36,3.75,1.25-2.02,6.32-4.76,6.32-6.26,11.28,4.08-.42,6.51-6.64,11.28-2.51v1.25Z"/><path class="cls-5" d="m124.77,121.57c-5.86.7-2.92,2.94-5.02,6.27-.96-.29-2.47-.04-2.51-1.25,4.5.18-.12-3.21,2.51-6.27h-1.26c.24-1.85,3.03-1.14,5.02-1.25,0,1.26,1.02,1.49,1.25,2.51Z"/><path class="cls-7" d="m151.09,127.84c-2.88.38-1.39-3.62-3.76-3.76-.19,1.48.22,3.55-1.25,3.76.13-6.61-.57-4.27-2.51-1.25-1.32-4.67,2.65-4.05,3.76-6.27,1.78.11,3.55.21,3.76-1.25,2.79.53.99,6.66,0,7.52v1.25Z"/><path class="cls-2" d="m39.54,127.84c-3.79-2.82-8.93-2.38-11.28-3.76.14-1.53.37-2.97,2.51-2.51,2.13.46,2.36-.97,2.5-2.51,2.4.54,2.27,3.58,6.27,2.51-.92,1.18-2.28,1.9-3.76,2.51-.4,3.33,7.03-1.18,5.02,3.76h-1.25Z"/><path class="cls-3" d="m10.71,116.57c.55,1.53,1.6,2.57,3.76,2.5-.04,1.22-1.53.97-2.51,1.25.2,1.47,2.29,1.06,3.76,1.25-1.14,2.2-2.33,4.36-6.27,3.77-.23-1.07.49-1.19,1.26-1.26-.03-1.21-1.53-.97-2.51-1.25,2.42-2.55,2.88-5.12-1.25-2.51.45-1.64,2.21-1.97,2.51-3.75h1.26Z"/><path class="cls-5" d="m40.79,127.84c2.01-4.94-5.41-.44-5.02-3.76,1.48-.61,2.85-1.33,3.76-2.51-4,1.08-3.87-1.97-6.27-2.51-.14,1.53-.37,2.97-2.5,2.51.09-2.18-.29-3.89-1.25-5,1.45,3.04,5.9-1.41,2.51-2.51.03-1.22,1.53-.98,2.5-1.25,1.37.31.86,2.49,2.51,2.51.06,1.72-.59,2.75-1.26,3.75,2.63.73,3.58,3.1,7.53,2.51-.2,1.48-2.29,1.06-3.76,1.26,1.22,1.28,2.48,2.54,3.76,3.76.07,2.34-.96,2.65-2.51,1.25Z"/><path class="cls-2" d="m43.3,121.57c-6.97-6.2-.47-4.04,3.76,0-2.59-1.1-4.75,4.13-2.51,3.77.01-1.27,2.19-1.57,2.51,0-1.26,0-1.49,1.01-2.51,1.25h-1.26c-1.28-1.22-2.54-2.48-3.76-3.76,1.47-.2,3.56.22,3.76-1.26Z"/><path class="cls-2" d="m54.58,117.81c-3.66-1.12-.37-4.61-2.51-5-1.93,5.46-6.7.64-8.77,5,1.63-3.1-3.68-5.2,0-6.26.28.98.03,2.47,1.26,2.51-.68-1.81,4.88-3.07,1.25-3.76-1.59-1.86-6.96,3.66-7.53-2.51,1.87-.21,4.63.45,5.02-1.25.24-1.02,1.26-1.25,1.26-2.51,6.11,1.29,5.78-8.33,10.02-5.01-5.45,4.36-5.01,5.26-6.27,11.28,1.26-4.42,4.66.2,6.27-2.51,1.73,1.61.33,2.6,0,6.27v3.75Z"/><path class="cls-6" d="m119.75,111.55c2.23.92.18,2.28,0,3.76,2.13.46,2.37-.97,2.51-2.51,1.74-4.01.55,5.13,3.76,3.76-.62.08-10.33.62-6.27-5.02Z"/><path class="cls-2" d="m100.96,70.19c.97-2.29,1.35.75,1.26,2.51,1.69-.39,1.04-3.15,1.24-5.02.27-3.12,5.7,9.8,0,8.77.94-3.85-3.44-2.41-2.5-6.26Z"/><path class="cls-7" d="m113.49,85.23c-4.12-2.57-5.47-7.9-6.27-13.79,1.48.2,1.06,2.28,1.26,3.76.3,3.22,2.16-1.72,5.02,0,3.17,6.25,4.62,4.78-1.26,7.51.24,1.02,1.26,1.26,1.26,2.51Z"/><path class="cls-2" d="m88.42,114.06c-1.07,5.8,1.98,1.31,2.51,3.75-1.2,2.15-4.16,2.53-5.01,5.02,2.15-.07,3.21.97,3.75,2.51-2.33,1.19-4.18-3.75-5.01,0-.98-.28-2.48-.04-2.51-1.26.97-.28,2.47-.03,2.51-1.25-1.47-.2-3.56.22-3.76-1.26,5.26.19,3.02-.64,1.26-2.51,1.53.4,7.74-.2,3.76-1.26-1.4-1.8-1.35-3.05,1.26-3.75h1.25Z"/><path class="cls-7" d="m77.14,68.93c1.81,2.78,3.07-1.57,3.76,1.25-1.4.26-1.95,1.4-2.51,2.51,2.22.28,6.28-1.26,5.02,2.51-3.09-.48-12.27,2.39-13.79,7.51-4.41-4.24-20.83-6.57-20.06,6.27,1.38-3.64,4.01-6.02,6.27-8.78.59,3.94-3.38,3.31-3.76,6.27,3.69.49,2.45,5.9,5.02,7.52.14-1,4.14-3.79,3.75-1.25-2.73,3.95-3.94,1.61-1.24,6.27-.77-.37-4.83-3.11-5.02,0,1.8.7,3.06,1.95,3.76,3.76-2.5-2.62-5.36-.05-6.27,2.5,5.37-.91,3.91,3.63,11.28,3.77-1.11,4.33-5.09,5.77-7.52,8.77-.8-2.73,3.55-3.98-1.25-3.75.33-3.67,1.73-4.66,0-6.27-1.61,2.71-5.01-1.91-6.27,2.51,1.26-6.02.82-6.92,6.27-11.28-4.24-3.32-3.91,6.3-10.02,5.01-.24-1.41-1.26-.69-1.26,0-1.86-.54.49-1.6,0-3.75-.22-3.14,1.92-3.92,3.76-5.02,3.03-2.74-1.96,2.38-2.51,3.76,4.01-.17,5.51-2.85,5-7.52-2.36,2.24-5.8,3.39-7.52,6.27-3.83.91-4.57-1.28-7.53-1.25.49-4.77,10.24-9.98,5.02-12.53h-1.25c.46-2.13-.98-2.37-2.51-2.51.45-1.64,2.21-1.97,2.51-3.76,1.17.72,1.9,3.48,2.51,1.25,2.23.93.18,2.28,0,3.76,2.48.65,3.35-7.39,3.77-1.25,1.19-3.64.64-3.09,3.75-3.76,1.23-.03.97-1.53,1.25-2.5,1.48.2,1.07,2.28,1.26,3.75,3.2-.14,2.49-4.19,2.51-7.51,1.23.03.98,1.53,1.25,2.51,3.08-3.11,2.81,3.55,7.52,2.5,3.49,3.09,5.86-1.46,8.78,1.26-.87-2.47-3.35-3.33-6.27-3.75h-2.51c2.14-2.46,12.02-2.07,11.29,2.5.05-7.5,4.15,2.81,3.75-6.26v-1.25Zm-33.83,22.56c.02-2.84,6.33-9.55,1.26-6.26-2.19-1.11.93-5.49-1.26-2.51-.18,1.82-.57,5.62-3.76,7.52,1.72-.05,2.75.6,3.76,1.25Z"/><path class="cls-2" d="m27.01,119.06c-.5,4.53-1.62,8.41-2.51,12.53-.33,1.77-2.75,1.43-3.76,2.51v-5c-1.18-6.97,8.17-3.18,3.76-10.03-.19,5.9-2.84-2.56-2.51-5.01h-1.25c-2.36-2.5-1.18-5.36-2.5-6.27,0-1.25-1.02-1.49-1.25-2.51,2.33.18,4.18.83,5,2.51-3.91-.38,3.19,3.62-1.25,3.76.56,1.11,1.11,2.24,2.51,2.51.51,2.41,4.86.99,3.76,5.01Z"/><path class="cls-3" d="m29.52,116.57c-1.66,0-1.15,2.19-2.51,2.5,1.1-4.02-3.25-2.6-3.76-5.01.31-1.36,2.5-.86,2.51-2.51,2.61.7,2.66,1.95,1.25,3.76,1.11-.56,2.24-1.1,2.51-2.51,2.33,1.19,4.19-3.75,5,0-.97.28-2.47.03-2.5,1.25,3.39,1.1-1.05,5.55-2.51,2.51Z"/><path class="cls-2" d="m148.58,109.04c-.44,1.64-2.21,1.97-2.51,3.76,1.06.23,1.18-.49,1.25-1.26,2.06,4.78-4.16-.71-6.26-2.51-1.86.55.49,1.6,0,3.76-2.91-.35-2.89-3.34-1.25-5.02.24-1.02,1.25-1.24,1.25-2.51,2.59.71,2.66,1.96,1.25,3.77,3.11,1.63,5.2-3.67,6.26,0Z"/><path class="cls-2" d="m132.28,111.55c-2.46-.38-2.48,1.69-3.75,2.51v-2.51c3.38-3.21-2.17-.75-3.77-3.76,1.47-4.14,6.5.1,8.77,0-3.92-.38,3.18,3.62-1.26,3.76Z"/><path class="cls-4" d="m37.04,115.31c-1.66-.02-1.15-2.2-2.51-2.51-.82-3.75-2.68,1.19-5,0v-1.26c1.22-1.28,2.48-2.54,3.75-3.76,3.73.88,5.09,4.11,7.52,6.27-2.74.8-3.99-3.55-3.76,1.25Z"/><path class="cls-1" d="m29.52,112.8c-.27,1.4-1.4,1.95-2.51,2.51,1.41-1.81,1.35-3.07-1.25-3.76-.01,1.65-2.2,1.15-2.51,2.51-1.4-.27-1.95-1.39-2.51-2.51,4.44-.14-2.66-4.14,1.25-3.76h1.26c-.56-1.12-1.09-2.24-2.51-2.51,2.26-1.47,6.89-.48,10.03-3.75,1.77-.11,3.54-.21,3.75,1.25-1.06-.24-1.17.49-1.25,1.25-3.11-.18-5.2.66-6.26,2.51,4.96.4-.92,3.88,2.51,5.02v1.26Z"/><path class="cls-5" d="m139.81,107.79c-1.63,1.67-1.66,4.67,1.25,5.02.49-2.16-1.86-3.22,0-3.76,2.1,1.8,8.32,7.28,6.26,2.51-.07.77-.19,1.48-1.25,1.26.3-1.79,2.07-2.12,2.51-3.76,1.45.21,2.23-.28,2.51-1.26,4.98,2.47.31,7.86,6.27,5.02v3.76c-4.88-.67-9.13-1.99-13.79,0-2.18-.1-3.89.28-5.01,1.24-.43-4.83-5.34-5.16-6.27-6.26,4.44-.14-2.66-4.14,1.26-3.76,1.01-.66,2.04-1.3,3.76-1.25-.03,1.22-1.53.97-2.51,1.25.83,3.75,2.68-1.19,5.02,0Z"/><path class="cls-7" d="m157.36,112.8c-5.96,2.85-1.29-2.55-6.27-5.02-.28.98-1.06,1.46-2.51,1.26-1.06-3.67-3.15,1.63-6.26,0,1.4-1.8,1.34-3.06-1.25-3.77,0,1.27-1.02,1.49-1.25,2.51-2.34-1.19-4.19,3.75-5.02,0,.98-.28,2.48-.03,2.51-1.25-1.72-.05-2.75.6-3.76,1.25-2.27.1-7.3-4.14-8.77,0,1.59,3.01,7.15.55,3.77,3.76-2.07.02-.71,3.48-2.51,3.76v-5.02c-2.95-.83-7.53-.67-5.02-6.27-.98-.28-2.47-.03-2.51-1.25,7.07,1.68,10-1.48,16.3-5.02-3.8.02-10.04,4.06-12.53,1.25,5.29.21-.02-1.93,0-3.76,1.48-.18,2.85-2.23,3.76,0-4.12-.91-1.92,2.49,0,2.51,4.24-4.91,6.26,0,12.53,2.51.68-4.44-4.44-3.09-3.76-7.53,1.01-.66,2.04-1.31,3.76-1.25.9.3,7.42,2,3.76,6.27-1.42-.24-.7-1.25,0-1.25-.21-1.48-2.29-1.06-3.76-1.26h-1.25c1.35,3.65,5.31,4.72,5.02,10.02,1.64-1.5,1.97-.49,3.75,0-.85-2.91-4.16-3.35-5.01-6.26,4.02.77,1.71-4.51,5.01-1.25-.69-3.91-3.79-5.39-5.01-8.77.55-1.54,1.6-2.58,3.75-2.51-1.61-3.92-2.59-.64-6.26-2.51-1.12-.78-2.24-1.51-2.51,0-1.57-.31-1.26-2.49,0-2.51,4.33.7,6.74-1.39,8.77-1.25,3.23.31-1.71,2.16,0,5.02,5.76-4.25,1.18,5.91,6.27,2.51,1.12.55,2.24,1.09,2.51,2.5-1.23.04-.98,1.54-1.25,2.51-2.64-3.05-5.58,1.11-7.53-1.25-.35,2.03,1.18,2.16,1.26,3.76,2.93-3.84,1.22-.97,3.76,1.26,1.43.24.7,1.25,0,1.25.7,2.83,1.95-1.52,3.77,1.25-1,2.47-4.39,4.5-6.27,2.51.45,1.43,2.21,3.18,2.51,1.25,1.86.55-.5,1.6,0,3.75,3.87.93,2.41-3.44,6.27-2.51-.9,3.83,1.27,4.57,1.25,7.52,1.44-3.37,4.92-1.84,2.5,1.26h-2.5Z"/><path class="cls-8" d="m141.07,99.02c.85,2.91,4.16,3.35,5.01,6.26-1.78-.49-2.11-1.5-3.75,0,.29-5.31-3.66-6.37-5.02-10.02h1.25c.44,1.64,2.21,1.97,2.51,3.76Z"/><path class="cls-8" d="m40.79,105.28c-3.15,4.49-4.76.4-5.02-1.25-.26,1.52-1.38.77-2.51,0,.08-.76.19-1.48,1.25-1.25,2.63-.54,3.33.86,5.02,1.25-.23,1.07.49,1.18,1.25,1.25Z"/><path class="cls-5" d="m43.3,100.27c.49,2.15-1.86,3.21,0,3.75,0-.69,1.02-1.41,1.26,0,0,1.26-1.02,1.49-1.26,2.51-1.26.01-1.49-1.02-2.51-1.26-.77-.07-1.48-.18-1.25-1.25-.54-2.39-3.58-2.26-2.51-6.26-2.37.94-.87,3.74-3.77,1.25-2.14.26-3.24-2.14-3.75,0-1.23-.04-.98-1.53-1.26-2.51h1.26c1.11-.56,2.24-1.11,2.51-2.51,1.35.31.85,2.5,2.5,2.51,2.96-.03,3.7,2.16,7.53,1.25-.21,1.45.28,2.23,1.26,2.51Z"/><path class="cls-3" d="m39.54,104.02c-1.69-.39-2.39-1.78-5.02-1.25-.21-1.46-1.98-1.36-3.75-1.25-.77-.07-1.48-.19-1.25-1.25,1.47-.2,3.55.21,3.75-1.26,2.9,2.49,1.39-.32,3.77-1.25-1.08,4,1.97,3.87,2.51,6.26Z"/><path class="cls-2" d="m138.56,83.98c3.67,1.86,4.65-1.41,6.26,2.51-2.15-.07-3.2.97-3.75,2.51,1.21,3.38,4.32,4.86,5.01,8.77-3.3-3.26-.99,2.02-5.01,1.25-.3-1.79-2.07-2.12-2.51-3.76,1.47.2,3.55-.22,3.76,1.26-.7,0-1.42,1.02,0,1.25,3.66-4.27-2.87-5.97-3.76-6.27,1.02-.23,1.25-1.25,2.51-1.25-.79-2.55-6.34-.35-5.02-5.01.45-1.97,2.21,1.09,2.51-1.25Z"/><path class="cls-8" d="m43.3,100.27c-.97-.28-1.47-1.06-1.26-2.51,1.71-2.88,5.16-4.03,7.52-6.27.51,4.68-.99,7.36-5,7.52.54-1.38,5.54-6.5,2.51-3.76-1.84,1.1-3.98,1.88-3.76,5.02Z"/><path class="cls-2" d="m166.13,97.76c-.23,1.85-3.03,1.14-5.02,1.25-.17,2.33-.83,4.19-2.51,5.01-1.01-.66-2.03-1.3-3.75-1.25,3.33-1.27,2.48-6.72,5.01-8.78.7,1.81,1.96,3.05,3.76,3.76h2.51Z"/><path class="cls-2" d="m25.76,99.02c-1.23-1.28-2.48-2.54-3.77-3.76-.07.77-.19,1.48-1.25,1.26-.28-.98-.03-2.47-1.24-2.51,0,.7-1.02,1.42-1.25,0,1.83-1.09,3.97-1.87,3.75-5.01,1.87,1.07,2.7,3.15,2.51,6.26,2.95-3.85.75-.5,5.02,0v1.26h-1.26c-1.66,0-1.14,2.2-2.51,2.51Z"/><path class="cls-2" d="m149.83,96.51c-2.54-2.23-.83-5.1-3.76-1.26-.07-1.6-1.6-1.73-1.26-3.76,1.95,2.37,4.89-1.79,7.53,1.25.28-.97.03-2.47,1.25-2.51.55,1.54,1.6,2.58,3.76,2.51-.32,1.58-2.49,1.26-2.5,0-1.86.55.49,1.6,0,3.76-2.34,1.19-4.19-3.75-5.02,0Z"/><path class="cls-2" d="m34.52,96.51c-1.65-.01-1.14-2.2-2.5-2.51-.27,1.4-1.39,1.95-2.51,2.51v-1.26c2.63-1.54,4.88-3.46,7.52-5.02-.44-1.96-2.2,1.1-2.51-1.25-1.27,1.23-2.53,2.47-3.75,3.75-3.26-4.15,8.63-3.85,8.77-8.77,5.22,2.56-4.53,7.76-5.02,12.53Z"/><path class="cls-3" d="m174.9,91.49c-1.48.61-2.84,1.34-3.76,2.51,1.52.27.77,1.39,0,2.51-1.72-.05-2.75.59-3.75,1.25,0-.7-1.01-1.42-1.25,0h-2.51c-.59-2.68,1.79-2.39,3.76-2.51-.54-1.97-3.94-1.07-2.51-5.02,2.39-1.08-1.36-.74-1.25-2.5,6.78-2.2,10.61-.68,16.29-2.51-.15,3.6-5.35,2.17-5.02,6.26Z"/><path class="cls-5" d="m39.54,83.98c-.14,4.92-12.03,4.62-8.77,8.77,1.22-1.28,2.48-2.53,3.75-3.75.31,2.35,2.07-.71,2.51,1.25-2.63,1.55-4.89,3.47-7.52,5.02-4.27-.5-2.07-3.85-5.02,0,.19-3.11-.65-5.2-2.51-6.26.56-1.13,1.11-2.25,2.51-2.51-.46,2.13.97,2.36,2.51,2.51,1.02-.24,1.24-1.26,2.51-1.25-3.3-2.81-4.03-2.13-2.51-7.52-1.45-.2-2.23.28-2.51,1.25-1.07.23-1.19-.49-1.26-1.25-1.08-1.01-.75-3.44-2.51-3.77-3.42-2.01,1.84-4.2,2.51-1.24,2.58-.36,2.51-3.35,3.76-5.02.4-2.94,5.94-.75,5.02-5.02h3.75c2.13-.46,2.37.98,2.51,2.51-4.31,1.96-6.57,5.96-11.28,7.52.65,1.85,1.85,3.15,2.51,5.01.4-8.25,4.78,2.96-1.26,0v2.51c1.43-.25,7.64,2.97,10.03,1.26h1.25Z"/><path class="cls-3" d="m18.24,94h-1.25c1.73-.77.19-4.83,2.51-5.01h1.24c-.53-2.4-.45-5.39-3.75-5.02-.24-1.02-1.27-1.26-1.26-2.51,1.95-2.36,4.88,1.8,7.52-1.25.07.76.19,1.48,1.26,1.25-.03,1.22-1.54.98-2.51,1.25.21,1.47,2.29,1.05,3.77,1.26-.24,1.02-1.25,1.24-1.25,2.51-1.4.26-1.95,1.38-2.51,2.51.22,3.14-1.92,3.92-3.75,5.01Z"/><path class="cls-2" d="m174.9,91.49c-.33-4.09,4.87-2.66,5.02-6.26h1.25c2.49,2.89-.32,1.4-1.25,3.76-.3,2.2-2.16,2.86-5.02,2.5Z"/><path class="cls-8" d="m134.79,85.23c-2.74-5.9-7.37-2.3,0-6.27.24,1.42,1.25.7,1.25,0,1.82.56-.13,1.1,0,2.51-1.26.02-1.57,2.2,0,2.51.27-1.51,1.39-.78,2.51,0-.3,2.35-2.06-.72-2.51,1.25h-1.25Z"/><path class="cls-7" d="m133.54,91.49c-2.89,2.49-1.39-.31-3.75-1.25-3.4,2.7-5.8-1.56-11.29,0-.3-1.78-2.06-2.11-2.51-3.75,1.65.44,1.97,2.2,3.76,2.51,2.29-2.03-.87-3.97,2.51-6.27,2.02.35,2.16-1.18,3.76-1.25.5-3.01-5.72.7-3.76-3.76,2.49,2.09,1.59-.11,5.02,0-.04-1.21-1.54-.97-2.51-1.26-4.74-.97,5.97-2.79,5.02,0,2.83-.69-1.52-1.95,1.24-3.75,1,1.08.43,4.64,3.77,6.26-7.37,3.97-2.74.37,0,6.27.4,2.91-.2,4.81-1.25,6.26Z"/><path class="cls-4" d="m39.54,90.24c3.19-1.89,3.58-5.7,3.76-7.52,2.19-2.98-.94,1.39,1.26,2.51,5.08-3.28-1.24,3.43-1.26,6.26-1.02-.66-2.04-1.3-3.76-1.25Z"/><path class="cls-5" d="m164.88,75.21h1.25c-1.59,4.09-1.8,2.66-2.51,6.26,1.06.23,1.18-.49,1.25-1.25,1.96.45-1.09,2.21,1.25,2.51-1.25.9-5.06-1.39-7.52-1.25-4.99,3.28,1.55,4.32-1.25,8.77,4.09-1.3,2.65-3.17,6.27,0-.77-1.12-1.51-2.24,0-2.5-.1,1.76,3.64,1.42,1.25,2.5-3.29-.37-.98,4.87-5.02,3.76-2.53,2.06-1.68,7.5-5.01,8.78,1.72-.06,2.75.59,3.75,1.25v1.25c2.35-.06,2.66.97,1.25,2.51,3.86.94,2.41-3.43,6.27-2.51,0,1.27-1.02,1.49-1.25,2.51,1.75-.09,4.79.28,2.51,1.26-3.8.38-3.52,4.84-7.52,5.02v-1.25c2.42-3.1-1.07-4.63-2.5-1.26.02-2.96-2.15-3.69-1.25-7.52-3.86-.93-2.41,3.44-6.27,2.51-.5-2.15,1.86-3.21,0-3.75-.3,1.92-2.06.18-2.51-1.25,1.88,1.99,5.27-.04,6.27-2.51-1.81-2.78-3.07,1.57-3.77-1.25.7,0,1.43-1.02,0-1.25.83-3.75,2.68,1.19,5.02,0,.49-2.16-1.86-3.22,0-3.76.01,1.26,2.19,1.58,2.5,0-2.15.07-3.21-.97-3.76-2.51-.27-1.41-1.39-1.95-2.51-2.5-3.58-.66,2.02-1.86,2.51-2.51-.92-1.17-2.28-1.9-3.77-2.51,1.5-1.43.49-3.17,0-1.25-2.55-1.04,3.02-4.39,3.77-6.26-.31-1.36-2.5-.86-2.51-2.51,1.46.2,2.23-.28,2.51-1.25h1.25c1.01.24,1.24,1.25,2.5,1.25-.11,3.24-5.37,1.31-3.76,6.26,6.15,1.15,4.77-5.25,10.02-5.01-.23,1.06.49,1.17,1.25,1.25Z"/><path class="cls-2" d="m115.99,86.48c-1.25,0-1.48-1.01-2.5-1.25,0-1.25-1.02-1.49-1.26-2.51,5.88-2.74,4.42-1.26,1.26-7.51-2.86-1.72-4.72,3.22-5.02,0,.96-1.97,3.97-1.88,3.76-5.02,2.32-.19.77-4.25,2.51-5.02,1.17.92,1.89,2.28,2.5,3.76-.2,5.87-.26,7.13-1.25,10.02,2.25.16,2.65-1.53,5.02-1.25-.44,1.65-2.21,1.97-2.51,3.76.71,2.83,1.96-1.52,3.76,1.25-3.38,2.3-.22,4.24-2.51,6.27-1.79-.31-2.11-2.07-3.76-2.51Z"/><path class="cls-2" d="m114.75,90.24c-3.2-.15-4.87-1.82-5.02-5.01,2.25-.16,2.65,1.53,5.02,1.25v3.75Z"/><path class="cls-1" d="m24.5,81.47c.28-.98,1.05-1.46,2.51-1.25-1.51,5.4-.79,4.72,2.51,7.52-1.27-.01-1.49,1.02-2.51,1.25-1.53-.15-2.97-.38-2.51-2.51,0-1.26,1.01-1.49,1.25-2.51-1.47-.2-3.56.22-3.77-1.26.98-.28,2.48-.03,2.51-1.25Z"/><path class="cls-2" d="m19.5,88.99v-1.25c-4.44-1.1-3.09-.16-7.53-1.26h-1.26c2.21-6.11,4.44,2.85,6.27-2.51,3.3-.38,3.22,2.62,3.75,5.02h-1.24Z"/><path class="cls-2" d="m151.09,72.7c0,1.65,2.2,1.15,2.51,2.51-.75,1.87-6.31,5.23-3.77,6.26.49-1.92,1.5-.18,0,1.25,1.48.61,2.85,1.33,3.77,2.51-.49.65-6.09,1.85-2.51,2.51-5.09,3.4-.51-6.76-6.27-2.51-1.71-2.86,3.23-4.71,0-5.02-2.03-.14-4.44,1.95-8.77,1.25-.13-1.41,1.82-1.95,0-2.51-.2-1.45.28-2.23,1.25-2.51,2.12,7.72,10.39-3.68,7.52-3.75,1.65-1.61,4.62-1.61,6.27,0Z"/><path class="cls-2" d="m16.99,83.98c-1.83,5.35-4.06-3.6-6.27,2.51h1.26v2.51c-3.6-3.83-2.18-7.31-3.77-12.54,1.46-.2,2.23.28,2.51,1.26,2.23-2.36,3.64-5.55,8.78-5.01-.78,1.12-1.53,2.24,0,2.51-.93,1.16-2.28,1.89-3.77,2.5h-1.25c-.36,2.03,1.19,2.16,1.25,3.76-.01,1.25,1.02,1.49,1.26,2.51Z"/><path class="cls-2" d="m176.15,83.98c-4.74.85-6.74,1.53-7.51-3.76,2.96,1.84,2.33,2.65,6.26,1.25.24,1.02,1.25,1.25,1.25,2.51Z"/><path class="cls-1" d="m163.62,87.74c-1.51.26-.77,1.38,0,2.5-3.62-3.17-2.17-1.3-6.27,0,2.8-4.45-3.74-5.49,1.25-8.77,2.47-.14,6.27,2.15,7.52,1.25-2.35-.3.71-2.06-1.25-2.51-.07.76-.19,1.48-1.25,1.25.71-3.6.92-2.17,2.51-6.26h-1.25c1.08-1.89,1.87.34,5.01-1.25-.24,1.01-1.26,1.24-1.25,2.5,1.45.21,2.23-.27,2.5-1.24,1.47.2,1.06,2.28,1.25,3.75,1.01-.66,2.04-1.3,3.76-1.25-1.5,1.65-.49,1.97,0,3.76h-1.25c-3.93,1.39-3.31.59-6.26-1.25.78,5.29,2.78,4.61,7.51,3.76,1.78-.11,3.56-.21,3.76,1.25-5.68,1.83-9.52.31-16.29,2.51Z"/><path class="cls-2" d="m38.29,83.98c-2.38,1.71-8.6-1.5-10.03-1.26v-2.51c6.03,2.96,1.65-8.25,1.26,0-.66-1.85-1.86-3.16-2.51-5.01,4.71-1.56,6.97-5.56,11.28-7.52h2.51c.15,4.64,1.82,3.15,5.02,2.51-.21,1.46.27,2.23,1.25,2.51v2.51c4.9-4.44,3.22-3.12,1.25,2.5-3.11.68-2.56.12-3.75,3.76-.42-6.13-1.29,1.9-3.77,1.25.18-1.48,2.23-2.84,0-3.76-.61,2.23-1.33-.54-2.51-1.25-.3,1.79-2.06,2.12-2.51,3.76,1.53.14,2.97.38,2.51,2.51Z"/><path class="cls-2" d="m176.15,81.47c1.88,2.69,3.07-.9,6.27,1.25-.24-1.02-1.26-1.25-1.25-2.51,1.66,3.08,4.66-1.38,5.01,1.25-.07.77-.18,1.48-1.24,1.25-1.66.45-1.97,2.21-3.76,2.51h-1.25c-.21-1.46-1.98-1.36-3.76-1.25,0-1.26-1.01-1.49-1.25-2.51h1.25Z"/><path class="cls-5" d="m122.26,82.72c-1.8-2.78-3.05,1.57-3.76-1.25.3-1.79,2.07-2.11,2.51-3.76-2.37-.28-2.77,1.41-5.02,1.25,1-2.9,1.05-4.15,1.25-10.02,1.23.03.98,1.53,1.25,2.51,2.63-3.53,4.72.2,6.27-3.76-3.01,4.24,4.89,7.28,6.26,3.76v1.25c-2.76,1.8,1.59,3.06-1.24,3.75.95-2.79-9.76-.97-5.02,0,.98.29,2.47.04,2.51,1.26-3.42-.11-2.53,2.09-5.02,0-1.95,4.46,4.26.76,3.76,3.76-1.6.07-1.74,1.6-3.76,1.25Z"/><path class="cls-1" d="m15.73,77.7c1.23,3.84,4.22-.56,5.01-1.26,1.76.33,1.43,2.76,2.51,3.77-2.64,3.05-5.56-1.11-7.52,1.25-.07-1.6-1.61-1.73-1.25-3.76h1.25Z"/><path class="cls-7" d="m144.82,72.7c2.88.07-5.4,11.47-7.52,3.75v-1.24c1.02.87,3.44,1.94,3.76,0,.91-1.17,2.28-1.9,3.75-2.51Z"/><path class="cls-4" d="m136.05,78.96c0,.7-1.01,1.42-1.25,0-3.34-1.62-2.77-5.19-3.77-6.26v-1.25c1.43-.24.7-1.26,0-1.26.04-1.22,1.55-.97,2.51-1.25-.83-3.75-2.68,1.2-5.01,0,.44-1.64,2.2-1.97,2.5-3.76,2.03-.35,2.16,1.19,3.77,1.25.21-1.45-.28-2.23-1.25-2.51.29-1.8,3.74-.44,3.76-2.5,2.21-1.8,2.86-1.16,2.51,2.5,2.57-.35,2.5-3.34,3.75-5.01h1.26c2.42.53,4.53-.87,2.51-1.26.37-2.92,3.4-2.92,3.76,0,1.54-.54,2.58-1.6,2.51-3.76,1.01.24,1.24,1.26,2.51,1.26,1.07-.23,1.18.49,1.25,1.25-2.55.37-3.34,2.51-5.01,3.76-1.85,1.44-3.17,1.44-5.02,0-.46,2.13.98,2.36,2.51,2.5-1.07,3.67-4.03-.75-6.27,0,.82,1.27,2.89,1.31,2.51,3.76-7.68-1.48-2.54,6.78-8.77,1.26,2.7,2.74-.32,2.69-3.76,2.51.19,2.32,4.25.77,5.01,2.51-.24,1.02-1.25,1.25-1.25,2.51v1.24c-.97.28-1.45,1.06-1.25,2.51Z"/><path class="cls-2" d="m64.61,73.95c2.92.42,5.41,1.28,6.27,3.75-2.92-2.72-5.29,1.83-8.78-1.26.32-1.35,2.5-.85,2.51-2.5Z"/><path class="cls-2" d="m77.14,70.19c.4,9.07-3.7-1.24-3.75,6.26.74-4.57-9.15-4.96-11.29-2.5h-2.5c-.04-1.23-1.53-.98-2.51-1.26,2.98-3.45.9-6.38,6.26-8.78-.23,1.06.49,1.18,1.25,1.26v3.76c1.78.11,3.55.21,3.76-1.25-2.24.36-2.57-1.19-1.26-1.26,1.12-.76,2.24-1.51,2.51,0,.24,1.42,1.25.7,1.25,0,2.21,3.15,2.07.89,5.01,2.51-.03,1.21-1.54.98-2.5,1.25.92,2.23,2.28.18,3.75,0Z"/><path class="cls-4" d="m163.62,73.95c-5.26-.24-3.87,6.15-10.02,5.01-1.61-4.95,3.65-3.03,3.76-6.26-1.26,0-1.49-1.02-2.5-1.25-.24-1.02-1.26-1.26-1.25-2.51,3.94-.6,4.9,1.78,7.51,2.51.45,1.96,2.21-1.1,2.51,1.25v1.26Z"/><path class="cls-5" d="m62.1,76.45c-4.71,1.06-4.43-5.6-7.52-2.5-.28-.98-.03-2.48-1.25-2.51h-1.25c-.93-3.86,3.44-2.41,2.51-6.27,2.02-.35,2.16,1.19,3.76,1.25,1.01-.24,1.24-1.25,2.49-1.25-.8-1.27-2.87-1.3-2.49-3.75-1.97.54-1.08,3.94-5.02,2.5-.75-3.99,2.35-3.87,0-6.26-1.86,1.76-2.7,4-2.51-1.25,3.62,2.28,5.71.24,6.27,3.76,1.77.1,3.54.2,3.75-1.25,1.37.31.86,2.49,2.51,2.51v2.5c-5.36,2.4-3.29,5.33-6.26,8.78.98.28,2.47.03,2.51,1.26h5.01c0,1.65-2.19,1.14-2.51,2.5Z"/><path class="cls-2" d="m176.15,77.7c-1.72-.05-2.75.6-3.76,1.25-.19-1.47.22-3.55-1.25-3.75-.27.98-1.05,1.45-2.5,1.24-.01-1.25,1.02-1.48,1.25-2.5-3.14,1.59-3.93-.64-5.01,1.25-.77-.08-1.48-.19-1.25-1.25v-1.26c1.45.2,2.23-.28,2.51-1.25,2.65-1.66,3.7.62,7.51-1.26,2.12,2.9-1.98,7.56,2.51,5.02-.13,1.4,1.82,1.95,0,2.5Z"/><path class="cls-3" d="m27.01,70.19c-1.25,1.66-1.18,4.66-3.76,5.02-.67-2.96-5.92-.77-2.51,1.24-.79.7-3.78,5.1-5.01,1.26,1.48-.61,2.84-1.33,3.77-2.5-1.53-.27-.78-1.39,0-2.51-.08-.76-.19-1.48-1.25-1.25v-1.26c3.93,1.4,3.3.59,6.26-1.25.04,1.21,1.53.98,2.51,1.25Z"/><path class="cls-7" d="m131.03,71.44c-1.37,3.51-9.27.48-6.26-3.76-1.55,3.96-3.64.24-6.27,3.76-.28-.98-.03-2.48-1.25-2.51-.61-1.48-1.33-2.84-2.5-3.76-1.74.76-.19,4.83-2.51,5.02,1.2-2.34-3.75-4.19,0-5.02.61,2.23,1.34-.54,2.51-1.26,3.24,3,5.78,2.98,8.77,3.76-1.6-5.57,2.01-2.47-1.25-7.52,2.56.9,4.96,3.92,7.53,1.26,4.26.54-5.49,2.7,1.24,2.5v1.26c-.3,1.79-2.06,2.12-2.5,3.76,2.33,1.2,4.18-3.75,5.01,0-.97.28-2.47.03-2.51,1.25.7,0,1.43,1.02,0,1.26Z"/><path class="cls-7" d="m74.64,61.42c-2.5-2.09-1.6.11-5.01,0-.39-1.7-3.14-1.05-5.02-1.26v-3.76c.36-7.65,1.61,5.87,3.76,0,1.11.56,2.24,1.09,2.51,2.51,3.27-5.69,1.93-16.27-1.25-18.8.54-1.54,1.6-2.57,3.76-2.51-.81-1.27-2.88-1.29-2.51-3.75,1.45-.21,2.23.27,2.51,1.24-.39,2.9,3.61,1.39,3.75,3.76-2.12.81-.78,2.88,1.25,2.51-.24,1.01-1.25,1.26-1.25,2.51h-1.25c.31,1.57,2.5,1.26,2.51,0,3.49,3.53,4.72,6.88,5.02,10.02,2.23-.7,5.21-.64,6.26-2.51,5.55-.98,13.7,2.82,16.3,2.51-2.61.37,1.86,3.39-2.51,3.76-.75-4.02-9.04,2.78-7.51-3.76-1.87,4.9-12.2-2.84-6.27,3.76-10.95-4.33-6.93-2.32-15.03-6.27.51,3.03-2.29,2.73-1.26,6.27.97.28,2.47.03,2.5,1.26-2.34-.07-2.65.97-1.25,2.51Z"/><path class="cls-7" d="m128.53,60.16c-2.31-2.32-4.32-6.11-2.51,0-2.39-2.35-3.15-.14-6.27,0,.26-3.6-.32-6.37-2.51-7.52.23,2.74-1.02,3.99-3.75,3.76,2.33-2.31-1.96-4.4-3.76-6.27-.75,2.24,3.67,5.21,0,6.27-1.4-.27-1.95-1.39-2.51-2.51,1.57.28,2.56,1.95,2.51-1.25h-1.25c-.53-2.62.86-3.32,1.25-5.01-4.47,2.81-.15-.89-1.25-5.02-.23-1.07.49-1.19,1.25-1.26,1.45.2,2.23-.28,2.51-1.25,1.18-.67-.8,9.07,2.51,5.02,1.8.67,3.06-4.89,3.75-1.25.52,3.02-2.29,2.73-1.25,6.26,1.57-4.27,6.66,1.19,7.52,5.02,1.71-2.69,7.38-3.84,2.51-6.27h5c-.66,1.02-1.3,2.04-1.26,3.76h-1.24c1.17,3.67,1.87,4.66,2.5,6.27.39,3.91-3.61-3.19-3.75,1.25Z"/><path class="cls-4" d="m48.31,77.7c1.97-5.62,3.65-6.94-1.25-2.5v-2.51c.92-1.17,2.27-1.9,3.75-2.51-.23,1.07.49,1.19,1.25,1.26h1.25c-.02,3.32.7,7.38-2.51,7.51-.19-1.47.22-3.55-1.26-3.75-.28.97-.03,2.47-1.25,2.5Z"/><path class="cls-1" d="m69.63,66.42c-.27-1.51-1.39-.76-2.51,0,.24-1.02,1.26-1.24,1.26-2.51-2.02.36-2.16-1.18-3.76-1.25v2.51c-.77-.07-1.48-.19-1.25-1.26v-2.5c-1.66-.02-1.15-2.2-2.51-2.51-.21,1.45-1.98,1.35-3.75,1.25-.56-3.52-2.65-1.48-6.27-3.76h-1.26c-.31-1.57-2.49-1.26-2.5,0-2.24-.92-.19-2.28,0-3.76-4.4,2.33-4.13-.95-7.52-2.51v-1.25h1.25c3.65-1.79,1.41-.96,1.25,2.51,3.85-.88,2.41-.88,6.26,0h2.51c.27,3.57,7.8,6.31,8.78,5.01,2.57-3.98,2.5,3.54,3.75,0h1.25v3.76c1.88.21,4.63-.45,5.02,1.26.81,1.27,2.87,1.29,2.51,3.75-1.01.24-1.25,1.26-2.51,1.25Z"/><path class="cls-4" d="m77.14,70.19c-1.47.18-2.83,2.23-3.75,0,.97-.28,2.47-.04,2.5-1.25-2.94-1.62-2.8.64-5.01-2.51,0,.7-1.01,1.42-1.25,0,1.25.01,1.49-1.02,2.51-1.25.37-2.46-1.69-2.48-2.51-3.75,3.41.11,2.52-2.09,5.01,0,1,2.34,2.09,4.59,2.5,7.51v1.25Z"/><path class="cls-3" d="m161.11,71.44c-2.62-.73-3.57-3.11-7.51-2.51.81-1.27,2.88-1.3,2.51-3.76,2.02-.35,2.15,1.19,3.75,1.25-.23-1.02-1.25-1.24-1.25-2.51,1.02.24,1.25,1.27,2.51,1.26,1.62,1.65,1.62,4.62,0,6.27Z"/><path class="cls-1" d="m153.6,68.93c-.01,1.25,1.01,1.49,1.25,2.51h-1.25c-1.07.23-1.19-.49-1.25-1.26-1.87-2.92.42-5.4-1.26-6.27.03-1.21,1.53-.96,2.51-1.25-.24-1-1.25-1.24-1.25-2.5,1.67-1.25,2.46-3.39,5.01-3.76h2.5c-.03-1.22-1.54-.98-2.5-1.25.7-1.8,1.95-3.06,3.75-3.76,1.02.24,1.25,1.26,2.51,1.25,6.29,4.24-3.95-1.55,0,5.02h-6.27c2.48,2.89-.32,1.39-1.25,3.77-3.58.64,2.02,1.85,2.5,2.5,0,1.27,1.02,1.49,1.25,2.51-1.6-.07-1.73-1.6-3.75-1.25.37,2.47-1.69,2.49-2.51,3.76Z"/><path class="cls-2" d="m50.82,56.4c-.19,5.26.65,3.02,2.51,1.25,2.35,2.39-.75,2.27,0,6.26,3.94,1.44,3.05-1.96,5.02-2.5-.38,2.46,1.69,2.48,2.49,3.75-1.25,0-1.48,1.02-2.49,1.25-1.6-.07-1.74-1.6-3.76-1.25-1,.67-2.03,1.31-3.76,1.25.43-2.54.97-5-3.75-5,.11-3.43-2.09-2.53,0-5.02,2.83.7-1.52,1.95,1.25,3.76,2.84-.71-1.51-1.96,1.25-3.76h1.26Z"/><path class="cls-5" d="m40.79,67.68c1.46-.2,2.23.28,2.51,1.25,1.54-.55,2.57-1.6,2.51-3.76,3.97,2.77-1.83,3.07,5.01,5.02-1.48.61-2.84,1.34-3.75,2.51-.98-.28-1.46-1.05-1.25-2.51-3.2.65-4.87,2.13-5.02-2.51Z"/><path class="cls-4" d="m27.01,70.19c-.98-.28-2.47-.04-2.51-1.25,1.8-.7,3.06-1.95,3.76-3.76h1.26c1-.87,3.43-1.95,3.75,0h-1.24c.92,4.27-4.62,2.07-5.02,5.02Z"/><path class="cls-5" d="m152.34,60.16c0,1.26,1.01,1.49,1.25,2.5-.98.29-2.48.04-2.51,1.25,1.67.87-.62,3.35,1.26,6.27-4.07.73-5.84-.86-8.78-1.25-1.42,1.12.78,3.5-5.01,2.51,2.91,1.83-2.45,3.97,2.51,3.76-.33,1.94-2.75.87-3.76,0,0-1.26,1.02-1.49,1.25-2.51-.76-1.74-4.83-.19-5.01-2.51,3.44.18,6.46.23,3.76-2.51,6.23,5.52,1.1-2.74,8.77-1.26.38-2.46-1.69-2.49-2.51-3.76,2.24-.75,5.21,3.67,6.27,0-1.53-.14-2.97-.37-2.51-2.5,1.85,1.44,3.17,1.44,5.02,0Z"/><path class="cls-2" d="m28.26,65.17c-.7,1.81-1.96,3.07-3.76,3.76.5-3.01-5.71.7-3.76-3.76h5.02c.23-1.07-.49-1.19-1.25-1.26.31-1.35,2.5-.85,2.51-2.5h1.25c-1.5,1.64-.49,1.97,0,3.75Z"/><path class="cls-1" d="m50.82,70.19c-6.84-1.95-1.04-2.25-5.01-5.02.06,2.16-.97,3.21-2.51,3.76-.28-.98-1.05-1.45-2.51-1.25h-2.51c-.14-1.52-.38-2.97-2.51-2.51v-1.26h1.26c1.01,1.09,3.43.75,3.76,2.51,1.55-.55,2.58-1.6,2.51-3.76,4.77-1,3.84,3.67,7.52,3.76,1.73.06,2.76-.59,3.76-1.25.94,3.86-3.44,2.41-2.51,6.27-.77-.07-1.48-.19-1.25-1.26Z"/><path class="cls-2" d="m137.3,61.42c-.02,2.06-3.47.69-3.76,2.5.97.28,1.46,1.06,1.25,2.51-1.6-.07-1.73-1.6-3.77-1.25v-1.26c-6.73.2,3.02-1.96-1.24-2.5-.08-.77-.19-1.48-1.25-1.26.14-4.44,4.14,2.66,3.75-1.25-.62-1.61-1.32-2.6-2.5-6.27h1.24c1.45,1.47,8.3,8.11,3.77,7.52.04,1.21,1.53.97,2.51,1.26Z"/><path class="cls-3" d="m43.3,62.66c.07,2.16-.96,3.22-2.51,3.76-.33-1.76-2.75-1.42-3.76-2.51,1.12-3.66,1.12-3.84,0-7.52.73-1.44,5.63,3.48,6.27,6.26Z"/><path class="cls-3" d="m35.78,63.92v1.26h-2.51c-.32-1.95-2.75-.87-3.75,0-.49-3.88,6.03-5.1,6.26-1.26Z"/><path class="cls-2" d="m27.01,61.42c0,1.65-2.2,1.14-2.51,2.5.76.07,1.48.19,1.25,1.26h-2.51c.89-3.4-5.91.9-5.01-2.51,1.6-.06,1.73-1.6,3.75-1.24,1.47-.36,5.21-5.52,5.02,0Z"/><path class="cls-2" d="m156.1,61.42c4.51,2.27,3.7-.23,7.52-1.26,1.02-.24,1.25-1.26,2.51-1.25v2.51c-1.13,3.72-3.47,3.04-5.02,3.75-1.25.01-1.48-1.02-2.51-1.26-.48-.65-6.08-1.85-2.5-2.5Z"/><path class="cls-5" d="m144.82,58.91h-1.26c-1.25,1.66-1.17,4.66-3.75,5.01.34-3.65-.3-4.3-2.51-2.5-.97-.29-2.47-.04-2.51-1.26,4.54.59-2.32-6.05-3.77-7.52-.05-1.72.6-2.75,1.26-3.76h-6.26c1.05-1.45,1.65-3.36,1.25-6.26-1.05-1.45-1.66-3.37-1.25-6.27h3.76c.46,2.14-.99,2.37-2.51,2.51.67,2.59,5.92.3,2.51,3.76,1-.67,2.03-1.31,3.75-1.26-4.82-4.31,5.15-3.6,7.52-2.51-1.6,3.01-4.09,5.1-8.78,5.02,3.18,2.09,4.68,1.94,0,3.76,1.75,3.93,6.19-1.73,7.53,1.25,2.5-1.26,1.98-5.54,6.26-5.01-.31-1.36-2.49-.86-2.51-2.51h6.27c-.2,1.45.28,2.23,1.25,2.51v5.01h-1.25v-3.75c-2.74.18-2.69,3.16-2.51,6.26-1.22-.03-.97-1.54-1.25-2.51-1.02.24-1.25,1.26-2.51,1.25-3-2.51-1.66,6.17-5.01,5.02,2.35,1.72,4.23-.11,6.26,3.76Z"/><path class="cls-3" d="m34.52,56.4v1.25c-1.19-.65-4.15-5.62-5-2.51-2.77-.16-.54-5.32-1.26-7.52,1.22.03.98,1.53,1.26,2.5,1.85-.65,3.16-1.85,5-2.5-.69,2.55-3.76,2.45-1.25,5.01,2.32-.19.78-4.24,2.51-5.01,2.03-.36,2.16,1.18,3.76,1.25v1.25c-1.87.68-1.47,1.26-5.02,2.51v3.76Z"/><path class="cls-5" d="m156.1,61.42c.93-2.37,3.73-.88,1.25-3.77h5.01c.24,1.02,1.26,1.25,1.26,2.51-3.82,1.03-3.01,3.52-7.52,1.26Z"/><path class="cls-1" d="m144.82,58.91c-2.03-3.87-3.91-2.04-6.26-3.76,3.35,1.15,2-7.53,5.01-5.02-2.31,2.47,1.11,6.27,3.76,7.52,2.02.39-.09,1.78-2.51,1.26Z"/><path class="cls-2" d="m127.28,48.88c4.87,2.43-.8,3.58-2.51,6.27-.86-3.83-5.95-9.29-7.52-5.02-1.03-3.53,1.77-3.25,1.25-6.26,3.31.38,3.24-2.62,3.76-5.02.04-1.21,1.53-.98,2.51-1.26-1.69,1.58-2.41,6.62,2.51,5.02.4,2.91-.2,4.81-1.25,6.26h1.25Z"/><path class="cls-5" d="m39.54,50.13c3.39,1.56,3.12,4.84,7.52,2.51-.19,1.48-2.24,2.85,0,3.76.01-1.26,2.19-1.57,2.5,0-2.76,1.8,1.58,3.06-1.25,3.76-2.77-1.81,1.58-3.06-1.25-3.76-2.09,2.49.11,1.59,0,5.02,4.73,0,4.18,2.47,3.75,5-3.68-.09-2.75-4.77-7.52-3.76-.64-2.79-5.54-7.7-6.27-6.26h-2.51v-3.76c3.54-1.25,3.15-1.83,5.02-2.51Z"/><path class="cls-3" d="m156.1,55.15c-1.26,0-1.49-1.02-2.51-1.26.07,2.16-.97,3.22-2.51,3.76-.37-2.92-3.39-2.92-3.76,0-2.66-1.25-6.07-5.05-3.76-7.52,1.27.01,1.49-1.02,2.51-1.25.29.97.04,2.48,1.25,2.51.71,1.81,1.96,3.06,3.76,3.76,4.14-1.88-2.61-3.07-1.25-6.27h1.25c-1.64,5.41,5.97,1.55,5.02,6.27Z"/><path class="cls-2" d="m105.97,53.89c-2.6.31-10.75-3.48-16.3-2.51h-1.25c-1.14-5.14.46-6.88,2.51-7.52h2.51c1.5,1.64.49,1.97,0,3.76,2.92-1.1,3.36-1.1,6.27,0-.04,1.21-1.53.97-2.51,1.25,3.95,6.34,4.32-1.63,10.02-2.5,1.55-4.06-4.05-.97-2.51-5.02,1.02.67,2.04,1.31,3.76,1.26,1.1,4.13-3.22,7.82,1.25,5.02-.4,1.69-1.78,2.39-1.25,5.01-1.26,0-1.49,1.02-2.51,1.25Z"/><path class="cls-3" d="m68.37,56.4c-2.15,5.87-3.41-7.65-3.76,0h-1.25v-3.76c2.68.59,2.39-1.79,2.51-3.76,1.28-.14,2.54,5.42,3.76,1.25,3.12.87-2.33,3.34-1.26,6.27Z"/><path class="cls-2" d="m25.76,55.15c-4.12-.61-6.61,5.87-8.77,0h2.51c-.4-1.7-3.15-1.05-5.02-1.26-.2-1.46-2.29-1.05-3.76-1.25.2-1.46,2.29-1.05,3.76-1.25h2.51c2.58-2.94,6.35,2.48,6.26-3.75,1.01.66,2.04,1.31,3.76,1.25.4,2.91-.2,4.82-1.25,6.27Z"/><path class="cls-5" d="m63.35,52.64v3.76c-1.26,3.54-1.18-3.98-3.75,0,.13-3.89-3.95-3.57-2.51-8.77,1.66-3.56,3.31,3.22,2.51,6.26,1.46-.2,1.06-2.28,1.24-3.76,1.37.31.86,2.5,2.51,2.51Z"/><path class="cls-2" d="m149.83,48.88c-1.35,3.2,5.4,4.39,1.25,6.27-1.8-.7-3.06-1.95-3.76-3.76-.18-3.11-.23-6.08,2.51-6.26v3.75Z"/><path class="cls-5" d="m68.37,56.4c-1.07-2.93,4.38-5.4,1.26-6.27-2.22-6.4-.92-9.17-3.76-13.79.2-1.46,2.29-1.06,3.76-1.25-.39-1.69-3.14-1.04-5.02-1.24v-1.25c2.65-.25,7.87-4.96,1.25-3.76v-1.25h1.25c1.02-1.08,3.44-.75,3.76-2.51,4.4.35-3.14,4.67,1.25,5.02h1.25c-.44,1.64-2.21,1.97-2.51,3.76-.38,2.46,1.69,2.48,2.51,3.75-2.16-.06-3.21.97-3.76,2.51,3.18,2.54,4.53,13.11,1.25,18.8-.27-1.42-1.39-1.95-2.51-2.51Z"/><path class="cls-2" d="m59.6,56.4c-.98,1.3-8.51-1.44-8.78-5.01h-2.51c2.14-.79,2.07-3.78,3.76-5.01-.53,2.41.86,4.52,1.25,2.5,1.47.21,1.05,2.29,1.25,3.76,1.46-.2,1.06-2.28,1.25-3.76-.23-1.07.49-1.17,1.25-1.25-1.45,5.2,2.64,4.88,2.51,8.77Z"/><path class="cls-3" d="m161.11,51.39v-2.51c-1.8.71-3.05,1.96-3.75,3.76-3.4-1.14,2.86-2.81,2.5-5.01,1.86.65,3.16,1.85,5.02,2.5,2.14-.05,3.25.94,3.76,2.51-2.86,1.72-4.72-3.22-5.01,0-1.26.01-1.49-1.02-2.51-1.25Z"/><path class="cls-5" d="m89.67,51.39c-1.05,1.86-4.03,1.81-6.26,2.51-.3-3.14-1.53-6.49-5.02-10.02-.01,1.26-2.2,1.57-2.51,0h1.25c1.81-.71,3.07-1.96,3.76-3.76.37,3.95,3.14-1.37,8.77,2.51,1.08-.23,1.19.49,1.25,1.25-2.04.64-3.64,2.38-2.51,7.52h1.25Z"/><path class="cls-5" d="m108.48,42.62c-1.72.05-2.75-.59-3.76-1.26-1.54,4.05,4.06.96,2.51,5.02-5.71.87-6.07,8.84-10.02,2.5.98-.28,2.47-.03,2.51-1.25-2.91-1.1-3.35-1.1-6.27,0,.49-1.79,1.5-2.12,0-3.76h-1.26c.02-2.49,3.43-1.59,2.51-5.02,5.63,1.27,3.63-.72,5.01,3.76,2.91-.55,3.36-5.54,6.26-2.51.04,1.22,1.53.98,2.51,1.25.24-1.42,1.25-.7,1.25,0-.77.07-1.48.19-1.25,1.26Z"/><path class="cls-2" d="m39.54,48.88c-1.6-.06-1.73-1.6-3.76-1.25-1.73.77-.19,4.82-2.51,5.01-2.51-2.56.56-2.46,1.25-5.01,1.55-.55,2.58-1.61,2.51-3.76,2.55,2.19,2.46-.94,5.01,1.25.35,2.02-1.18,2.16-1.25,3.75h-1.25Z"/><path class="cls-1" d="m105.97,40.11c-2.91-3.03-3.36,1.96-6.26,2.51-1.38-4.48.62-2.49-5.01-3.76.91,3.42-2.49,2.53-2.51,5.02h-1.25c-.07-.77-.18-1.48-1.25-1.25-.55-1.11-1.1-2.24-2.5-2.51-.06-2.14.93-3.25,2.5-3.76,2.21-1.8,2.86-1.15,2.51,2.51,3.02-7.17,2.45-6.04,6.27-10.03-.46,2.13.97,2.36,2.51,2.51.93,3.85-3.44,2.41-2.51,6.26,2.56-1.61,2.28-6.07,7.52-5-.85-4.26-2.93-4.75,0-10.03-.23-1.07.49-1.17,1.25-1.26.67,1.02,1.3,2.04,1.26,3.76-3.45.39-2.65,4.35,1.25,3.76-.24,1.02-1.25,1.25-1.25,2.51v3.75c-6.19.69,1.3.65,1.25,2.51h-3.76c.77,1.11,1.51,2.25,0,2.51Z"/><path class="cls-1" d="m57.09,47.63c-.77.07-1.48.18-1.25,1.25-2.74-.18-2.7-3.16-2.51-6.26,1.8,1.4,3.05,1.35,3.76-1.26,2.37.94.87,3.74,3.75,1.26.16,2.25-1.53,2.64-1.24,5.02,1.68-.83,2.33-2.69,2.5-5.02,1.81.28.44,3.74,2.51,3.76-1.04,1.45-1.65,3.35-1.25,6.26-1.66-.01-1.15-2.2-2.51-2.51-.19,1.48.22,3.56-1.24,3.76.81-3.04-.85-9.82-2.51-6.26Z"/><path class="cls-2" d="m48.31,51.39c-3.85-.88-2.41-.88-6.26,0,.16-3.46,2.39-4.3-1.25-2.51.07-1.59,1.6-1.73,1.25-3.75-2.56-2.19-2.46.94-5.01-1.25.07,2.15-.97,3.22-2.51,3.76-1.85.65-3.15,1.85-5,2.5-.28-.97-.04-2.47-1.26-2.5.72,2.2-1.51,7.36,1.26,7.52.85-3.12,3.81,1.85,5,2.51v-1.25h2.51c1.12,3.67,1.12,3.85,0,7.52h-1.26c-.23-3.84-6.75-2.63-6.26,1.26h-1.26c-.49-1.78-1.5-2.11,0-3.75,3.58-1.69-3.33-3.21-2.51-6.27,1.06-1.45,1.65-3.37,1.25-6.27-1.72.06-2.75-.59-3.76-1.25v-1.25c2.48-4.11,3.34,4.91,3.76-1.26,3.85.88,2.41.88,6.26,0,.55,3.46,3.95.06,2.51-2.51,1.99.1,4.79-.61,5.02,1.25,1.73-3.8,3.56.31,5.02-3.76h2.5c-1.44-1.85-1.44-3.16,0-5.02.56-1.82,1.1.13,2.51,0,.91,3.84-2.16,3.69-1.26,7.53,1.22-.04.98-1.53,1.26-2.51,3.43,1.14-2.22,4.39,1.25,6.27-1.69,1.23-1.62,4.22-3.76,5.01Z"/><path class="cls-1" d="m143.56,41.36c.02,1.65,2.2,1.15,2.51,2.51-4.28-.53-3.77,3.75-6.26,5.01-1.34-2.98-5.78,2.69-7.53-1.25,4.68-1.82,3.18-1.67,0-3.76,4.69.09,7.18-2.01,8.78-5.02-2.37-1.1-12.35-1.8-7.52,2.51-1.72-.05-2.75.59-3.75,1.26,3.41-3.46-1.84-1.17-2.51-3.76,1.52-.14,2.97-.37,2.51-2.51h-3.76c-.4,2.91.2,4.82,1.25,6.27-4.92,1.6-4.2-3.44-2.51-5.02-.97.28-2.47.04-2.51,1.26-4.12-4.52-1.2-.52-5.02,0,.81-5.62-.01-5.6,2.51-10.03,1.02-.24,1.26-1.25,2.51-1.25v1.25c-3.16.36,4.48,7.4-1.25,3.76-.14,5.22,8.36.94,8.78-1.26,1.27-.15,2.53,5.4,3.75,1.26v-2.51c1.78.11,3.55.21,3.76-1.26h1.25c3.59.65-2.02,1.85-2.51,2.51.94,2.37,3.74.87,1.25,3.75,4.95,1.61,3.04-3.64,6.26-3.75h1.26c-.44,1.64-2.2,1.97-2.5,3.75-3.1.54-3.12,3.58,1.24,2.51v3.76Z"/><path class="cls-2" d="m65.86,36.34c2.84,4.62,1.54,7.39,3.76,13.79-1.23,4.16-2.48-1.39-3.76-1.25-.12,1.97.17,4.35-2.51,3.76-.4-2.91.21-4.81,1.25-6.26,3.94-1.49.18-4.55,1.25-10.03Z"/><path class="cls-2" d="m162.37,45.12c-.28.98-1.05,1.45-2.51,1.26,1.63-1.67,1.65-4.67-1.25-5.02.61-1.48,1.34-2.83,2.51-3.76,1.75.77.19,4.83,2.51,5.02-.24,1.02-1.26,1.24-1.26,2.51Z"/><path class="cls-2" d="m168.64,41.36c-1.41.27-1.95,1.39-2.51,2.51.97.28,2.47.03,2.51,1.25h-6.27c0-1.26,1.02-1.49,1.26-2.51-.58-5.93,1.08-1.86,5.01-2.51v1.25Z"/><path class="cls-2" d="m114.75,45.12c-3.32,4.05-1.33-5.68-2.51-5.02-.28.98-1.06,1.45-2.51,1.25,0-.7-1.01-1.42-1.25,0-.98-.28-2.47-.03-2.51-1.25,1.51-.26.77-1.4,0-2.51h3.76c-.87,4.17,2.59,2.02,3.76,1.26,2.49-.78,5.39,4.93,0,2.51.65,1.01,1.3,2.03,1.25,3.76Z"/><path class="cls-3" d="m151.09,43.87c-.97-.28-1.45-1.06-1.25-2.51h-6.27v-3.76c-4.36,1.08-4.34-1.97-1.24-2.51.83,3.76,2.68-1.2,5.01,0-2.86,3.1.86,6.81,2.51,2.51v2.51c3.54.23,3.15-4.94,5.02,0,.75,2.6-1.55,8.23,1.25,8.77,0-.7,1.02-1.42,1.25,0-1.6.07-1.74,1.61-3.76,1.25.4-3.91.07-12.55-2.51-6.26Z"/><path class="cls-7" d="m113.49,38.85c-1.18.77-4.63,2.92-3.76-1.26.05-1.86-7.45-1.81-1.25-2.51h2.51c2.14-.26,3.25,2.14,3.76,0-1.76-1.5-.11-.49,1.24,0-.44,1.65-2.2,1.98-2.5,3.76Z"/><path class="cls-2" d="m89.67,42.62c-5.63-3.88-8.4,1.44-8.77-2.51-.7,1.8-1.95,3.06-3.76,3.76,0-1.25,1.01-1.49,1.25-2.51-2.03.38-3.37-1.69-1.25-2.51,4.74,1.81,2.41-3.44,6.27-2.51-2.64,3.96,1.65.24,3.76,3.76,1.4.27,1.95,1.39,2.5,2.51Z"/><path class="cls-3" d="m98.45,28.83c-3.82,3.98-3.25,2.86-6.27,10.03.35-3.66-.3-4.31-2.51-2.51v-1.25c5.04-1.32-.68-5.67-1.25-8.77v-1.26c1.88,1.88,3.77,3.75,6.27,5.02-.39-2.96-4.35-2.33-3.77-6.27,2.23-.69,5.2-.64,6.27-2.51,0-.7,1.01-1.41,1.25,0-.16,2.25,1.53,2.65,1.25,5.02-1.01-.24-1.25-1.26-2.51-1.26-.36,2.03,1.19,2.16,1.25,3.76Z"/><path class="cls-5" d="m105.97,22.56c-2.93,5.28-.85,5.77,0,10.03-5.24-1.07-4.96,3.39-7.52,5-.94-3.85,3.43-2.41,2.51-6.26-1.53-.15-2.97-.38-2.51-2.51-.07-1.6-1.61-1.73-1.25-3.76,1.25,0,1.49,1.02,2.51,1.26.28-2.37-1.41-2.77-1.25-5.02,1.95-.32.87-2.75,0-3.75,4.4-.23,4.12,4.23,7.52,5.01Z"/><path class="cls-2" d="m57.09,37.6c.44,1.97,2.2-1.09,2.51,1.26.07,1.6,1.6,1.74,1.24,3.76-2.88,2.49-1.38-.32-3.75-1.26-.71,2.61-1.96,2.66-3.76,1.26.11-1.78.21-3.55-1.25-3.76.04-1.21,1.53-.98,2.51-1.26.56,1.82,1.11-.13,2.51,0Z"/><path class="cls-5" d="m113.49,38.85c.3-1.78,2.06-2.11,2.5-3.76-1.35-.49-3.01-1.5-1.24,0-.52,2.14-1.62-.26-3.76,0,.03-1.22,1.54-.97,2.51-1.24.23-1.08-.49-1.19-1.26-1.25.55-1.54,1.6-2.58,3.75-2.51-1.39-1.54-1.09-2.58,1.25-2.51-2.48-2.58-2.48-1.19,0-3.76h1.25c3.08,1.67-2.26,3.78,1.26,5.02-2.52,4.43-1.7,4.41-2.51,10.03,3.82-.52.9-4.52,5.02,0-.53,2.4-.46,5.39-3.76,5.02-.69-3.63-1.95,1.92-3.75,1.25.05-1.73-.6-2.76-1.25-3.76,5.39,2.42,2.49-3.29,0-2.51Z"/><path class="cls-3" d="m54.58,37.6c-.97.28-2.47.04-2.51,1.26,1.46.21,1.36,1.98,1.25,3.76-.19,3.1-.23,6.08,2.51,6.26-.2,1.48.21,3.56-1.25,3.76-.2-1.47.22-3.55-1.25-3.76-.4,2.02-1.78-.09-1.25-2.5-3.47-1.88,2.18-5.13-1.25-6.27-.28.98-.03,2.47-1.26,2.51-.91-3.83,2.17-3.68,1.26-7.53,1.01,1.08,3.43.74,3.76,2.51Z"/><path class="cls-2" d="m90.93,23.81c-.59,3.94,3.37,3.32,3.77,6.27-2.5-1.26-4.39-3.14-6.27-5.02-1.5-1.64-.49-1.97,0-3.76,1.36.32.86,2.5,2.51,2.51Z"/><path class="cls-5" d="m77.14,38.85c-.14-2.37-4.14-.87-3.75-3.76,1.65-1.27,4.62-1.22,6.26-2.5v2.5c2.95-1.62,2.81.65,5.02-2.5,2.93-3.06,2.81,1.39,5.01,2.5v1.25c-1.57.52-2.56,1.62-2.5,3.76-2.11-3.52-6.4.2-3.76-3.76-3.86-.93-1.54,4.32-6.27,2.51Z"/><path class="cls-1" d="m79.65,32.59c-1.64,1.27-4.62,1.22-6.26,2.5-.28-.98-1.05-1.45-2.51-1.24.3-1.79,2.06-2.12,2.51-3.76h-1.25c.31-1.36,2.49-.86,2.51-2.51,2.6-.32.34-5.5,2.5-6.27-.23-2.73,1.02-3.98,3.76-3.75-2.41,1.52-5.41,11.02-1.25,5.01,3.2-.05,1.53.93,1.25,2.51-1.75.45-.11,2.21,1.26,2.51v2.51c-3.21.05-1.54-.94-1.26-2.51-2.93.37-2.93,3.39,0,3.76.23,1.06-.49,1.19-1.25,1.26Z"/><path class="cls-2" d="m133.54,32.59c-1.23,4.15-2.48-1.4-3.75-1.26-.42,2.2-8.92,6.48-8.78,1.26,5.73,3.63-1.91-3.41,1.25-3.76,1.8-.67,3.06,4.89,3.76,1.26,1.72-.19-.54,5.1,2.51,1.25,2.55-2.52,2.45.55,5.01,1.26Z"/><path class="cls-2" d="m84.66,32.59c-2.21,3.14-2.07.87-5.02,2.5v-2.5c.77-.07,1.48-.19,1.25-1.26,2.56-.7,2.46-3.77,5.02-1.25-.24,1.02-1.26,1.24-1.25,2.51Z"/><path class="cls-2" d="m143.56,31.34c-3.22.11-1.31,5.37-6.26,3.75,2.49-2.89-.32-1.38-1.25-3.75.49-.66,6.09-1.86,2.51-2.51.7-3.63,1.95,1.92,3.76,1.26.76.07,1.48.19,1.24,1.25Z"/><path class="cls-2" d="m110.98,27.57c.05,2.14-.93,3.25-2.51,3.76,0-1.26,1.01-1.49,1.25-2.51-3.9.59-4.7-3.37-1.25-3.76,4.96-3.05-.93,1.4,2.51,2.51Z"/><path class="cls-3" d="m110.98,35.09h-2.51v-3.75c1.57-.52,2.56-1.62,2.51-3.76,3.33.4-1.17-7.02,3.76-5.02.03,1.22,1.53.97,2.5,1.25-2.48,2.58-2.48,1.19,0,3.76-2.34-.07-2.65.97-1.25,2.51-2.15-.07-3.21.97-3.75,2.51.77.07,1.48.18,1.26,1.25-.98.28-2.48.03-2.51,1.24Z"/><path class="cls-1" d="m89.67,35.09c-2.2-1.11-2.07-5.56-5.01-2.5-.01-1.27,1.02-1.49,1.25-2.51,1.82-.56-.13-1.1,0-2.51,1.07.23,1.19-.49,1.26-1.25h1.25c.57,3.1,6.3,7.45,1.25,8.77Z"/><path class="cls-5" d="m85.92,30.08c-2.56-2.52-2.46.56-5.02,1.25-2.93-.37-2.93-3.39,0-3.76-.28,1.57-1.95,2.56,1.26,2.51v-2.51c.29-1.59,3.74-1.64,3.76,0-.13,1.4,1.82,1.95,0,2.51Z"/><path class="cls-2" d="m128.53,31.34c-3.05,3.84-.79-1.44-2.51-1.25-.71,3.63-1.96-1.92-3.76-1.26v-1.25c1.07.23,1.19-.49,1.25-1.25h1.25c.65,3.39.88.35,5.02,2.51-.24,1.02-1.26,1.25-1.25,2.51Z"/><path class="cls-2" d="m133.54,30.08c-.11-4.69-1.4-3.57,0-7.52h2.51c.39,1.7,3.14,1.04,5.02,1.25-.28.98-1.05,1.46-2.51,1.25-3.67-.59-1.89,3.38-1.25,3.76-.21,1.46-1.98,1.37-3.76,1.26Z"/><path class="cls-3" d="m87.17,26.32c-.07.76-.19,1.48-1.26,1.25-.02-1.64-3.47-1.59-3.76,0-1.37-.3-3.01-2.06-1.26-2.51.66,3.58,1.85-2.02,2.51-2.51,1.16.72,1.9,3.48,2.51,1.25,1.22.04.97,1.53,1.26,2.51Z"/><path class="cls-3" d="m72.13,30.08c-4.4-.35,3.15-4.67-1.25-5.02-.33,1.76-2.75,1.43-3.76,2.51-3-3.15-.55-3.96-3.76-6.27h1.25c1.07.24,1.19-.49,1.25-1.24,1.83,1.79,3.97.96,3.76-2.51,1.05-3.98,1.65,2.22,1.25,3.75,2.04.57,2.04-6.83,0-6.26-2.61,1.4-2.66,1.36-1.25-1.25h3.76c1.08,6.68-3,10.73,1.26,13.79-.02,1.65-2.2,1.15-2.51,2.51Z"/><path class="cls-2" d="m74.64,27.57c-4.26-3.05-.18-7.11-1.26-13.79h-2.51c-.46-2.13.98-2.37,2.51-2.51-.06,3.21.93,1.53,2.5,1.25.36,2.02-1.19,2.16-1.25,3.77.54,1.86,1.6-.5,3.75,0,.23,1.06-.49,1.18-1.25,1.25-1.59.28-1.64,3.73,0,3.75-2.16.77.1,5.95-2.5,6.27Z"/><path class="cls-2" d="m142.32,30.08c-1.81.67-3.07-4.89-3.76-1.26h-1.25c-.64-.39-2.42-4.35,1.25-3.76.21,1.46,1.98,1.37,3.76,1.26v3.76Z"/><path class="cls-2" d="m127.28,22.56c-.3,1.79-2.07,2.12-2.51,3.76h-1.25c-2.49-.02-1.59-3.41-5.02-2.51h-1.25c-.97-.28-2.47-.03-2.5-1.25v-2.5c1.94-1.41,2.61-4.08,6.26-3.76-3.78,4.44,8.62,1.48,3.76,7.51,1.16-.71,1.9-3.48,2.51-1.25Z"/><path class="cls-2" d="m88.42,25.06v1.26h-1.25c-.29-.98-.04-2.47-1.26-2.51.24-1.02,1.26-1.25,1.26-2.51-.31-3.22-2.16,1.72-5.02,0,.24-1,1.25-1.24,1.25-2.5-2.74-.23-3.99,1.03-3.76,3.75-4.16,6.01-1.16-3.49,1.25-5.01-2.52-4.37.56.1,1.26-2.51.97,3.21,6.23,2.12,6.26,6.26-.49,1.79-1.5,2.12,0,3.76Z"/><path class="cls-2" d="m69.63,13.79c-1.41,2.61-1.36,2.66,1.25,1.25,2.04-.57,2.04,6.83,0,6.26.4-1.53-.2-7.73-1.25-3.75.21,3.46-1.93,4.3-3.76,2.51.04-1.23,1.53-.98,2.51-1.26.36-2.19-4-6.73,1.26-6.27v1.26Z"/><path class="cls-2" d="m114.75,22.56c-4.94-2-.44,5.42-3.76,5.02-3.43-1.1,2.45-5.56-2.51-2.51.05-1.72-.59-2.75-1.26-3.76,3.67.33,3.85-2.83,7.53-2.5v3.75Z"/><path class="cls-2" d="m80.9,25.06c.28-1.57,1.95-2.56-1.25-2.51-.23-2.73,1.03-3.98,3.76-3.75,0,1.26-1.02,1.49-1.25,2.5,2.86,1.72,4.71-3.22,5.02,0,0,1.26-1.02,1.49-1.26,2.51-.61,2.23-1.34-.54-2.51-1.25-.66.48-1.85,6.09-2.51,2.51Z"/><path class="cls-2" d="m114.75,7.52c.5,3.26,3.73,3.78,3.75,7.52-3.74,4.95-5.95-.97-8.77-3.76.37-.77,3.12-4.83,0-5.01,2.23-.1,4.94,2.02,3.76-6.27,1.85.23,1.14,3.03,1.25,5.02v2.5Z"/><path class="cls-2" d="m64.61,21.3c-3.04-2.63,1.12-5.56-1.25-7.51,1.46.2,2.23-.28,2.51-1.26v-1.25c3.83.91,4.57-1.29,7.52-1.25v1.25c-1.53.14-2.96.38-2.51,2.51h-1.25v-1.26c-5.26-.46-.9,4.08-1.26,6.27-.98.28-2.47.03-2.51,1.26-.07.75-.19,1.48-1.25,1.24Z"/><path class="cls-3" d="m59.6,169.2c0-1.26,1.01-1.49,1.24-2.51-5.67.94,1.92-3.45-3.75-2.51,1.5-1.64.49-1.97,0-3.76,3.01.52,2.72-2.29,6.26-1.26v1.26c1.56,3.19.56,6.11,0,8.78-.97.28-2.47.03-2.51,1.26-.75-.07-1.47-.19-1.24-1.26Z"/><path class="cls-2" d="m54.58,155.42c-1.2,6.98-4.8.04-7.52,2.51v-3.76c-.01-1.26,1.01-1.49,1.25-2.51.98.28,1.47,1.06,1.25,2.51,2.37.28,2.77-1.41,5.02-1.26v2.51Z"/><path class="cls-2" d="m52.07,136.61c.35-2.91,3.35-2.88,5.02-1.25h1.25v2.51c-3.41-.9.89,5.91-2.51,5.02-.17-2.34-.83-4.19-2.51-5.02,1.95,4.46-4.26.75-3.76,3.76,3.26-.76,4.51.5,3.76,3.75h-2.51c-1.26-1.66-2.06-3.77-3.75-5.01v-1.25c2.45.6,8-1.78,5.01-2.51Z"/><path class="cls-1" d="m38.29,137.87c1.86-.23,1.16-3.03,1.25-5.02h2.51c.85,4.69,4.16-.92,5.02,3.76-.98.28-2.48.04-2.51,1.26.96.28,2.47.03,2.51,1.25v1.25c-.33,1.95-2.76.87-3.76,0-.77-1.74-4.83-.19-5.02-2.51Z"/><path class="cls-4" d="m50.82,130.35c3.13,3.16,4.92-1.44,8.78-1.25-.07,1.6-1.61,1.73-1.25,3.75-.98.28-1.46,1.06-1.25,2.51-1.67-1.62-4.67-1.65-5.02,1.25-2.69-1.88.9-3.07-1.25-6.26Z"/><path class="cls-1" d="m154.85,131.6c-1.67,7.23-2.13-4.3-3.76-5.01.99-.87,2.79-7,0-7.52-.21,1.46-1.98,1.36-3.76,1.25-.21-1.45-1.98-1.35-3.76-1.25v-2.5c4.66-1.99,8.91-.67,13.79,0v-3.76h2.5v1.25c-3.91,5.38-2.16,10.3-3.75,16.29-.2-1.48.21-3.56-1.25-3.76v5.01Z"/><path class="cls-2" d="m10.71,115.31c1.67-.19,3.78,5.1,5.02,1.26-1.88-1.88-5.28-2.25-6.27-5.02,6.26-.69,3.63-2.48,8.78-3.76,1.32.92.14,3.77,2.5,6.27-2.76-2.05-6.91.15-3.75,2.51,2.36-3.43-1.71,3.81,2.51,0-.06,1.72.58,2.75,1.24,3.75-1.1.37-5.48,3.39-2.5,3.76,2.47-4.74-.31,5.98,2.5,5.02v1.25c-3.94,1.43-3.03-1.97-5.01-2.51v3.75c-1.73-.05-2.76.6-3.76,1.25.9-1.88.96-5.28,0-6.26-.52,2.14-1.61-.27-3.77,0-2.13-.52.27-1.61,0-3.76-2.03.38-3.37-1.69-1.25-2.51,4.13-2.61,3.67-.04,1.25,2.51.98.28,2.48.04,2.51,1.25-.76.07-1.48.19-1.26,1.26,3.94.59,5.13-1.56,6.27-3.77-1.47-.19-3.56.22-3.76-1.25.97-.28,2.47-.03,2.51-1.25-2.16.07-3.22-.97-3.76-2.5v-1.26Z"/><path class="cls-5" d="m136.05,85.23c-1.32,4.66,4.23,2.46,5.02,5.01-1.26,0-1.49,1.02-2.51,1.25-1.72-.05-2.76.6-3.76,1.25-.77-.07-1.48-.19-1.25-1.25,1.06-1.45,1.65-3.36,1.25-6.26h1.25Z"/><path class="cls-4" d="m151.09,72.7c-1.65-1.61-4.62-1.61-6.27,0-1.47.61-2.84,1.34-3.75,2.51-4.96.21.4-1.93-2.51-3.76,5.78.99,3.59-1.39,5.01-2.51,2.95.4,4.71,1.98,8.78,1.25.07.77.19,1.48,1.25,1.26-.28.97-1.06,1.45-2.51,1.25Z"/><path class="cls-5" d="m107.22,71.44v-7.53c1.67,3.08,3.78-2.25,5.02,1.26-3.75.83,1.2,2.68,0,5.02.21,3.14-2.8,3.05-3.76,5.02-.2-1.48.22-3.56-1.26-3.76Z"/><path class="cls-2" d="m45.81,40.11c-.98-.28-2.48-.03-2.51-1.25.12-1.97-.17-4.34,2.51-3.76h2.5c-1.44,1.86-1.44,3.16,0,5.02h-2.5Z"/><path class="cls-3" d="m64.61,32.59c-.16-1.65-.19-9.07,1.25-5.02v1.25c6.62-1.19,1.39,3.51-1.25,3.76Z"/><path class="cls-2" d="m142.32,25.06c-.07-.77-.19-1.48-1.25-1.25-1.88-.21-4.63.45-5.02-1.25v-1.26h5.02c1.77-.1,3.54-.2,3.75,1.26-.26,1.41-1.38,1.95-2.5,2.51Z"/><path class="cls-4" d="m141.07,126.59c-.27,1.51-1.39.77-2.51,0-.28.97-.04,2.47-1.25,2.51-3.08.96-7.23-6-7.51,0h-6.27v-1.26c6.19-.69-1.3-.64-1.25-2.51,10.36-1.22,9.93,1.41,18.8,0v1.25Z"/><path class="cls-1" d="m163.62,97.76c-1.81-.71-3.06-1.95-3.76-3.76,4.03,1.1,1.72-4.13,5.02-3.76-1.43,3.95,1.97,3.04,2.51,5.02-1.97.12-4.35-.17-3.76,2.51Z"/></g></g></svg>