<?xml version="1.0" encoding="UTF-8"?><svg id="Layer_2" xmlns="http://www.w3.org/2000/svg" viewBox="0 0 168.35 181.59"><defs><style>.cls-1{fill:#335429;}.cls-1,.cls-2,.cls-3,.cls-4,.cls-5,.cls-6,.cls-7,.cls-8,.cls-9,.cls-10,.cls-11,.cls-12,.cls-13,.cls-14{fill-rule:evenodd;}.cls-2{fill:#347523;}.cls-3{fill:#277413;}.cls-4{fill:#4a9e32;}.cls-5{fill:#60a64c;}.cls-6{fill:#6bc053;}.cls-7{fill:#457c36;}.cls-8{fill:#196805;}.cls-9{fill:#368b20;}.cls-10{fill:#105203;}.cls-11{fill:#225913;}.cls-12{fill:#cfd9c9;}.cls-13{fill:#d2d2d2;}.cls-14{fill:#84bb74;}</style></defs><g id="Layer_3"><g><path class="cls-13" d="m165.89,90.63c-.04-.28-.07-.57-.09-.87-4.07,1.09-4.84-1.11-6.38-2.55-.1-.68-.4-.9-.81-.85-.15.02-.32.09-.5.18-1.25.63-3.04,2.74-3.79,3.22-2.27-.94-.18-2.32,0-3.83h-1.28c.07-.78.19-1.51,1.28-1.28-.18-.3-.33-.62-.48-.96-1-2.35-1.26-5.43-2.07-7.97-.57-1.14-1.12-2.28-2.55-2.55-.23-1.08.5-1.2,1.28-1.28,1.7-2.12,5.67-1.98,7.65-3.83-.07-.78-.19-1.51-1.28-1.28.98-2.91,4.8-7.96-1.28-7.65h-2.55c.66-2.14-.34-2.64-1.79-2.67-1.09-.02-2.45.21-3.56.22-.37,0-.72-.03-1.02-.1-.15-3.25-.24-6.56-3.83-6.38.04-.61.15-1.22.31-1.82.11-.4.24-.8.38-1.2.07-.2.15-.4.23-.59,2.02-4.93,6.26-9.49,2.16-13.74-.16-.17-.34-.34-.53-.51,4.69-3.55-5.38-3.03-3.83-7.65-2.54,3.09-5.45-2.15-6.38,2.55-6.96,1.37-7.37,1.75-11.48,6.38-.24,1.03-1.28,1.27-1.28,2.55-.04,1.24-1.56.99-2.55,1.28.11-1.81.21-3.61-1.28-3.83-3.96,4.66-8.81-4.89-10.2-2.55-1.08-2.75-8.13.48-8.93-2.55-2.94-.39-1.42,3.68-3.83,3.83-.55-3.53-4.01-.07-2.55,2.55-1.14-.99-2.88-1.37-5.1-1.28h-2.55v-5.1c-.21-1.49-2.33-1.08-3.83-1.28-.24-1.03-1.28-1.27-1.28-2.55-2.41-.29-2.81,1.44-5.1,1.28-.13-1.43,1.85-1.99,0-2.55-2.31,1.52-7.43.91-8.93,2.55-2.36-.19-.78-4.32-2.55-5.1-2.18-.06-3.3.95-3.83,2.55-.39,1.73-3.19,1.06-5.1,1.28-5.44-1.5-5.12,10.08-1.28,10.2-2.83,5.25-5.94,2.19-7.65,2.55h-1.28c-.14-2.41-4.22-.89-3.83-3.83-11.72-1.09-13.58,7.68-20.41,11.48-1.64,3.3-2.64,4.01-6.38,2.55-.06,1.76.6,2.8,1.28,3.83-4.74,2.7.61,8.02-6.38,8.93-7.19.99-7.78,5.96-8.93,10.2,4.91,4.05,11.3,8.93,19.13,6.38-2.1,6.77,3.11,6.25,6.38,7.65,4.44,9.72-6.18,10.37-10.2,15.3v5.1c-5.13,3.24-3.64,5.42-6.38,10.2h1.28c1.53,1.67.5,2.01,0,3.83,1.48.21,2.27-.28,2.55-1.28,2.6.8.36,6.44,5.1,5.1,5.36,1.81,7.48-.85,12.75,3.83.23,1.08-.5,1.2-1.28,1.28h-2.55c-.09,4.34-.4,8.9,2.55,10.2.78,1.19,2.97,4.7-1.28,3.83,2.36,3.9,6.06-1.47,10.2,0-.24,1.03-1.28,1.27-1.28,2.55-.93,5.59,2.53-1.03,2.55,2.55-.21,1.48.28,2.27,1.28,2.55v2.55c-6.13.54,1.52.46,0,3.83-1.14.57-2.28,1.12-2.55,2.55,1.08,2.75,3.14,4.51,7.65,3.83,7.55,3.38,9.12-9.02,19.13-3.83,2.79-2.75,2.74.33,2.55,3.83v3.83c-2.33.99.76,1.37,2.55,1.28-.54,2.67.87,3.38,1.28,5.1,3.29-.11,1.34-5.46,6.38-3.83-.47,2.17.99,2.41,2.55,2.55-.24,1.03-1.28,1.27-1.28,2.55h1.28c5.08-4.99,7.35,3.64,7.65,7.65,1.25-3,5.48-3.02,7.65-5.1,3.95.12,3.8-3.85,3.83-7.65,1.62-1.78,6.25-.55,6.38-3.83.31-1.39,2.54-.87,2.55-2.55v-5.1h3.83c3.96-3.57,8.25.77,8.93-5.1,3.6,1.05,3.3-1.8,6.38-1.28-1.91-2.98.43-5.5-1.28-6.38-.21-2.77,4.52-.58,6.38-1.28,2.06-2.08,5.33,1.14,10.2,0,1.7-1.27,2.5-3.45,5.1-3.83.52-3.07-2.33-2.77-1.28-6.38,1.6-.52,2.61-1.64,2.55-3.83-.27-1.43-1.42-1.99-2.55-2.55v-3.83c-4.01-1.33-2.09-7.76,2.55-7.65h1.28c-1.35-4.75,2.69-4.12,3.83-6.38-.12-.04-.24-.08-.35-.13-.76-.36-1.11-1.12-.93-2.42,1.12-1.49,1.89-3.32,3.22-4.59.19-.18.39-.35.61-.51.31,1.38,2.1,3.06,2.55,1.28,2.83,1.1,3.46-.57,6.38-1.28-3.03-.71,1.42-3.84,2.55-1.28v-5.1c-1.5-.73-2.19-2.27-2.46-4.23Zm-57.48,43.77c1.79-.33,1.45-2.8,2.55-3.83,1.28,0,1.52-1.03,2.55-1.27v5.1c.94,4.87-4.7,1.46-5.1,0Zm-10.2-48.46c-4.05-3.05.28,3.22-6.38,2.55-.1-2.22.28-3.97,1.28-5.1v-1.28h1.27c2.49-.6,6.52,3.43,3.83,3.83Z"/><path class="cls-10" d="m165.8,68.87c-4.07,1.09-4.84-1.11-6.38-2.55-.41-2.71-3.95,1.82-5.1,2.55-2.27-.94-.18-2.32,0-3.83h-1.28c.07-.78.19-1.51,1.28-1.28-1.41-2.41-1.63-6.03-2.55-8.93-.57-1.14-1.12-2.28-2.55-2.55-.23-1.08.5-1.2,1.28-1.28,1.7-2.12,5.67-1.98,7.65-3.83-.07-.78-.19-1.51-1.28-1.28.98-2.91,4.8-7.96-1.28-7.65h-2.55c1.31-4.29-3.97-1.98-6.38-2.55-.15-3.25-.24-6.56-3.83-6.38.43-6.54,8.67-12.45,2.55-17.86,4.69-3.55-5.38-3.03-3.83-7.65-2.54,3.09-5.45-2.15-6.38,2.55-6.96,1.37-7.37,1.75-11.48,6.38-.24,1.03-1.28,1.27-1.28,2.55-.04,1.24-1.56.99-2.55,1.28.11-1.81.21-3.61-1.28-3.83-3.96,4.66-8.81-4.89-10.2-2.55-1.08-2.75-8.13.48-8.93-2.55-2.94-.39-1.42,3.68-3.83,3.83-.55-3.53-4.01-.07-2.55,2.55-1.14-.99-2.88-1.37-5.1-1.28h-2.55v-5.1c-.21-1.49-2.33-1.08-3.83-1.28-.24-1.03-1.28-1.27-1.28-2.55-2.41-.29-2.81,1.44-5.1,1.28-.13-1.43,1.85-1.99,0-2.55-2.31,1.52-7.43.91-8.93,2.55-2.36-.19-.78-4.32-2.55-5.1-2.18-.06-3.3.95-3.83,2.55-.39,1.73-3.19,1.06-5.1,1.28-5.44-1.5-5.12,10.08-1.28,10.2-2.83,5.25-5.94,2.19-7.65,2.55h-1.28c-.14-2.41-4.22-.89-3.83-3.83-11.72-1.09-13.58,7.68-20.41,11.48-1.64,3.3-2.64,4.01-6.38,2.55-.06,1.76.6,2.8,1.28,3.83-4.74,2.7.61,8.02-6.38,8.93-7.19.99-7.78,5.96-8.93,10.2,4.91,4.05,11.3,8.93,19.13,6.38-2.1,6.77,3.11,6.25,6.38,7.65,4.44,9.72-6.18,10.37-10.2,15.3v5.1c-5.13,3.24-3.64,5.42-6.38,10.2h1.28c1.53,1.67.5,2.01,0,3.83,1.48.21,2.27-.28,2.55-1.28,2.6.8.36,6.44,5.1,5.1,5.36,1.81,7.48-.85,12.75,3.83.23,1.08-.5,1.2-1.28,1.28h-2.55c-.09,4.34-.4,8.9,2.55,10.2.78,1.19,2.97,4.7-1.28,3.83,2.36,3.9,6.06-1.47,10.2,0-.24,1.03-1.28,1.27-1.28,2.55-.93,5.59,2.53-1.03,2.55,2.55-.21,1.48.28,2.27,1.28,2.55v2.55c-6.13.54,1.52.46,0,3.83-1.14.57-2.28,1.12-2.55,2.55,1.08,2.75,3.14,4.51,7.65,3.83,7.55,3.38,9.12-9.02,19.13-3.83,2.79-2.75,2.74.33,2.55,3.83v3.83c-2.33.99.76,1.37,2.55,1.28-.54,2.66.87,3.38,1.28,5.1,3.29-.11,1.34-5.46,6.38-3.83-.47,2.17.99,2.41,2.55,2.55-.24,1.03-1.28,1.27-1.28,2.55h1.28c5.08-4.99,7.35,3.64,7.65,7.65,1.25-3,5.48-3.02,7.65-5.1,3.95.12,3.8-3.85,3.83-7.65,1.62-1.78,6.25-.55,6.38-3.83.31-1.39,2.54-.87,2.55-2.55v-5.1h3.83c3.96-3.57,8.25.77,8.93-5.1,3.6,1.05,3.3-1.8,6.38-1.28-1.91-2.98.43-5.5-1.28-6.38-.21-2.77,4.52-.58,6.38-1.28,2.06-2.08,5.33,1.14,10.2,0,1.7-1.27,2.5-3.45,5.1-3.83.52-3.07-2.33-2.77-1.28-6.38,1.6-.52,2.61-1.64,2.55-3.83-.27-1.43-1.42-1.99-2.55-2.55v-3.83c-4.01-1.33-2.09-7.76,2.55-7.65h1.28c-1.35-4.75,2.69-4.12,3.83-6.38-.99-.28-1.48-1.07-1.28-2.55,1.28-1.7,2.1-3.85,3.83-5.1.31,1.38,2.1,3.06,2.55,1.28,2.83,1.1,3.46-.57,6.38-1.28-3.03-.71,1.42-3.84,2.55-1.28v-5.1c-1.71-.84-2.38-2.73-2.55-5.1Zm-57.39,44.64c1.79-.33,1.45-2.8,2.55-3.83,1.28,0,1.52-1.03,2.55-1.27v5.1c.94,4.87-4.7,1.46-5.1,0Zm15.3-75.25c-.13.19-.26.35-.38.5.13-.15.25-.31.38-.5Zm-42.03,62.24v-.2s0,.2,0,.2Zm-.02.4l-.03.16.03-.16Zm16.55-35.85c-4.05-3.05.28,3.22-6.38,2.55-.1-2.22.28-3.97,1.28-5.1v-1.28h1.27c2.49-.6,6.52,3.43,3.83,3.83Zm-16.83,36.52l-.07.04.07-.04Zm.18-.25l-.06.1.06-.1Zm44.15-62.21l.09-.04-.09.04Zm.33-.29l.07-.08-.07.08Zm-2.49,2.46v.02s0-.02,0-.02Zm.11.31l.02.07-.02-.07Zm-49.28,53.25l-.06-.07.06.07Zm6.75,6.84h-.06s.06,0,.06,0Zm44.25-62.4h-.05s.05,0,.05,0Zm-2.87.26h.01s-.01,0-.01,0Zm.47-.38l.24-.24-.24.24Zm-.43.35c.09-.06.18-.13.27-.2-.09.08-.18.14-.27.2Zm-.08.06h0s0,0,0,0Zm-1.49.41h.2s-.2,0-.2,0Zm.37-.02l.2-.03-.2.03Zm.37-.07l.21-.06-.21.06Zm.37-.12l.26-.13-.26.13Zm-3.23.16h.05s-.05,0-.05,0Zm.42-.04h.05-.05Zm.38,0h.06s-.06,0-.06,0Zm.85.07h.03s-.03,0-.03,0Zm-2.42.25l.12-.07-.12.07Zm.37-.18l.11-.04-.11.04Zm-.73.43l.11-.08-.11.08Zm-40.57,60.82h0s0,0,0,0Z"/><path class="cls-7" d="m59.94,2.55c3.08,1.18,5.2,3.3,6.38,6.38-1.24.04-.99,1.56-1.28,2.55h-2.55c-.13-7.21-3.43-4.13-7.65-3.83.54,2.44.46,5.49,3.83,5.1,1.05,3.6-1.8,3.3-1.28,6.38h-1.27c-.29-2.26,1.29-6.39-2.55-5.1-.56-4.38.5-7.15,1.28-10.2,1.91-.22,4.71.46,5.1-1.28Z"/><path class="cls-4" d="m85.45,8.93c-7.16-.43-17.89-6.5-15.3,2.55-2.56.43-3.99-.26-3.83-2.55-1.18-3.08-3.3-5.2-6.38-6.38C60.47.95,61.59-.05,63.77,0c1.77.78.19,4.91,2.55,5.1,1.5-1.64,6.62-1.03,8.93-2.55,1.85.57-.13,1.12,0,2.55,2.29.16,2.69-1.56,5.1-1.28,0,1.28,1.03,1.52,1.28,2.55,1.5.2,3.62-.22,3.83,1.28v1.28Z"/><path class="cls-3" d="m58.67,12.76c-3.36.39-3.29-2.66-3.83-5.1,4.22-.31,7.52-3.39,7.65,3.83-1.08-.23-1.2.5-1.28,1.28h-2.55Z"/><path class="cls-5" d="m66.32,8.93c-.16,2.29,1.27,2.98,3.83,2.55-2.59-9.05,8.15-2.98,15.3-2.55v3.83c-1.38-.32-.87-2.54-2.55-2.55-5.02-.16-8.65-4.38-10.2,1.28-1.89.66-3.21,1.89-5.1,2.55-5.59.93,1.03-2.53-2.55-2.55.29-.99.03-2.52,1.28-2.55Z"/><path class="cls-14" d="m95.65,11.48c2.41-.14.89-4.22,3.83-3.83.8,3.03,7.85-.2,8.93,2.55.38,2.6,2.55,3.4,3.83,5.1-4.02-.29-7.12-8.1-11.48-3.83-2.25-3.88-3.95,3.48-5.1,0Z"/><path class="cls-9" d="m108.41,10.21c1.39-2.34,6.24,7.21,10.2,2.55-1.17,3.08-3.3,5.2-6.38,6.38v-3.83c-1.27-1.7-3.45-2.5-3.83-5.1Z"/><path class="cls-2" d="m53.57,14.03c-3.84-.12-4.17-11.71,1.28-10.2-.77,3.06-1.83,5.82-1.28,10.2Z"/><path class="cls-4" d="m126.26,12.76c1.24-.04.99-1.56,1.28-2.55,1.89,2.01,5.7,1.42,5.1-2.55h6.38c-1.77,6.02,3.84,4.67,5.1,7.65-1.99.28-4.44,6.42-5.1,3.83.36-2.28-1.21-2.62-1.28-1.28-3.12-.14-.27-4.22,1.28-3.83-.21-1.49-2.33-1.08-3.83-1.28-2.36.19-.78,4.32-2.55,5.1-1.03-.24-1.27-1.28-2.55-1.28-1.19-1.36-4.71-.4-3.83-3.83Z"/><path class="cls-3" d="m82.9,11.48h-1.28c-1.45.24-.71,1.28,0,1.28-1.94,5.13-7.92-1.71-7.65,5.1-2.67.54-3.38-.87-5.1-1.28h-1.28c1.15-2.25,4.69-2.11,5.1-5.1,1.55-5.65,5.19-1.44,10.2-1.28v1.28Z"/><path class="cls-4" d="m65.04,11.48c3.58.02-3.04,3.48,2.55,2.55.07,3.15-8.99,2.25-2.55,1.28-.29-1.84-3.81-.44-3.83-2.55.07-.78.19-1.51,1.28-1.28h2.55Z"/><path class="cls-4" d="m100.75,11.48c2.18-.06,3.3.95,3.83,2.55-1.68,1.53-2.01.5-3.83,0-.16,2.29,1.56,2.69,1.28,5.1-4.62-2.95-6.6-1.71-11.48,0-3.29-.62-11.38.36-7.65,2.55-1.9,1.5-1.5,5.3-5.1,5.1.84,3.82,2.73-1.22,5.1,0,.33,5.27-1.51,5.13-5.1,3.83-4-5.93,2.23-10.9,6.38-12.75.41-2.96-.21-4.9-1.28-6.38v-1.28c1.69.01,1.17,2.24,2.55,2.55h2.55c-1.44,4.37,9.28,3.78,6.38-1.28h1.28c1.15,3.48,2.85-3.88,5.1,0Z"/><path class="cls-5" d="m104.58,14.03c-.52-1.6-1.64-2.61-3.83-2.55,4.35-4.27,7.45,3.54,11.48,3.83v3.83c3.08-1.18,5.2-3.3,6.38-6.38,1.49.21,1.39,2.02,1.28,3.83.99-.29,2.52-.04,2.55-1.28,1.08-.23,1.2.5,1.28,1.28-1.98,1.42-2.66,4.15-6.38,3.83-.67-1.96-1.33-.08-1.28,1.28-6.65.27-4.18-8.57-11.48-7.65Z"/><path class="cls-4" d="m44.64,16.58c-5.83-2.5-4.53-.39-8.93-1.28v3.83c-.04,1.24-1.56.99-2.55,1.28-3.36-.38-4.19,1.77-3.83,5.1h-3.83c-5.13.4-8,3.05-10.2,6.38v-1.28c-.68-1.03-1.33-2.07-1.28-3.83,3.74,1.46,4.74.75,6.38-2.55,6.83-3.8,8.69-12.57,20.41-11.48-.39,2.94,3.68,1.42,3.83,3.83Z"/><path class="cls-11" d="m88,12.76c2.22-.1,3.97.29,5.1,1.28-1.46-2.62,2-6.08,2.55-2.55h-1.28c2.9,5.05-7.81,5.65-6.38,1.28Z"/><path class="cls-3" d="m130.09,16.58c1.28,0,1.52,1.03,2.55,1.28,1.77-.78.19-4.91,2.55-5.1,1.5.2,3.62-.22,3.83,1.28-1.55-.39-4.4,3.68-1.28,3.83.07-1.34,1.63-1,1.28,1.28-1.64,2.19-7.63.03-7.65,3.83.23,1.08-.5,1.2-1.27,1.28-2.06.36-2.2-1.21-3.83-1.28-5.81.36,1.72-4.09,2.55-1.28-.54-2.66.87-3.38,1.28-5.1Z"/><path class="cls-2" d="m35.71,19.13v-3.83c4.4.89,3.1-1.22,8.93,1.28h1.28v1.28c-4.01-.61-4.99,1.82-7.65,2.55-.03-1.24-1.56-.99-2.55-1.28Z"/><path class="cls-9" d="m61.22,12.76c.02,2.11,3.54.71,3.83,2.55-6.44.98,2.62,1.88,2.55-1.28,1.89-.66,3.21-1.89,5.1-2.55-.41,2.99-3.95,2.85-5.1,5.1-2.24,1.16-2.33,4.47-3.83,6.38-1.45-.24-.71-1.28,0-1.28.06-2.18-.95-3.3-2.55-3.83-1.49.21-1.08,2.33-1.28,3.83h-5.1c.24-1.03,1.28-1.27,1.28-2.55h1.27c-.52-3.07,2.33-2.77,1.28-6.38h2.55Z"/><path class="cls-4" d="m45.91,16.58c1.71-.36,4.82,2.7,7.65-2.55,3.84-1.29,2.26,2.84,2.55,5.1-2.17-.47-2.41,1-2.55,2.55-3,.03-3.76-2.2-7.65-1.28v-3.83Z"/><path class="cls-9" d="m67.59,21.68c2.96-.36,2.93-3.41,1.28-5.1,1.72.4,2.44,1.82,5.1,1.28-.27-6.81,5.71.03,7.65-5.1-.71,0-1.45-1.03,0-1.28h1.28c1.07,1.48,1.68,3.42,1.28,6.38-4.14,1.86-10.37,6.83-6.38,12.75h-1.28c-.67-1.03-1.33-2.07-1.28-3.83-1.13.57-2.28,1.12-2.55,2.55-2.06-1.76-3.14-4.51-7.65-3.83-.47,2.17.99,2.41,2.55,2.55-.31,1.38-2.54.87-2.55,2.55-1.89-1.08-2.74-3.21-2.55-6.38,2.91.36,4.79-.31,5.1-2.55Z"/><path class="cls-6" d="m63.77,22.96c1.49-1.91,1.59-5.22,3.83-6.38h1.28c1.66,1.7,1.68,4.75-1.28,5.1-2.06-.36-2.2,1.21-3.83,1.28Z"/><path class="cls-4" d="m123.71,16.58c1.03.24,1.27,1.28,2.55,1.28v2.55c-3.48-.12-2.57,2.12-5.1,0-.23,1.08.5,1.2,1.28,1.28.55,2.11-4.75-.11-5.1-1.28,3.72.32,4.4-2.4,6.38-3.83Z"/><path class="cls-4" d="m45.91,20.41c3.9-.92,4.65,1.3,7.65,1.28.14-1.56.38-3.02,2.55-2.55,0,1.28-1.03,1.52-1.28,2.55h5.1c.2-1.5-.22-3.62,1.28-3.83,1.6.52,2.61,1.64,2.55,3.83-.71,0-1.45,1.03,0,1.28,1.63-.07,1.77-1.63,3.83-1.28-.31,2.24-2.19,2.91-5.1,2.55-.19,3.17.66,5.29,2.55,6.38.02-1.69,2.24-1.17,2.55-2.55,1.38.31.86,2.54,2.55,2.55,1.48.21,2.27-.28,2.55-1.28.27-1.43,1.42-1.99,2.55-2.55-.06,1.76.6,2.8,1.28,3.83v2.55c-2.86,1.39-6.39,2.11-8.93,3.83h-5.1v-2.55c-.66-5.59-.4-4.19-1.28-8.93-1.73.39-1.06,3.19-1.28,5.1-1.03-.24-1.27-1.28-2.55-1.28-3.93-.95-2.45,3.5-6.38,2.55-1.65-3.28-3.55-6.25-2.55-8.93,1.2-2.36-7.3-.78-2.55-2.55Z"/><path class="cls-5" d="m82.9,21.68c-3.73-2.19,4.36-3.17,7.65-2.55-.11,1.81-.21,3.61,1.28,3.83-.39,1.73-3.19,1.06-5.1,1.28.67-1.03,1.33-2.07,1.28-3.83-1.81-.11-3.61-.21-3.83,1.28h-1.28Z"/><path class="cls-9" d="m104.58,14.03c7.3-.92,4.83,7.92,11.48,7.65-.06-1.36.6-3.24,1.28-1.28.35,1.16,5.65,3.39,5.1,1.28-.78-.07-1.51-.19-1.28-1.28,2.53,2.12,1.62-.12,5.1,0v-2.55c-1.28,0-1.52-1.03-2.55-1.28-.07-.78-.19-1.51-1.28-1.28,0-1.28,1.03-1.52,1.28-2.55h2.55c-.88,3.43,2.64,2.46,3.83,3.83-.4,1.72-1.82,2.44-1.28,5.1-.84-2.81-8.36,1.64-2.55,1.28,2.56,2.6-.56,2.5-1.28,5.1-2.27-.94-.18-2.32,0-3.83-1.03,1.1-3.49.76-3.83,2.55-5.41-.68-7.77,8.31-11.48,5.1,3.53-.55.07-4.01-2.55-2.55v-5.1c-1.84.71-3.11,1.99-3.83,3.83-2-.55-1.09-4.01-5.1-2.55-1.08-1.89-3.21-2.74-6.38-2.55-1.49-.21-1.39-2.02-1.28-3.83,4.87-1.71,6.86-2.95,11.48,0,.29-2.41-1.44-2.81-1.28-5.1,1.82.5,2.15,1.53,3.83,0Z"/><path class="cls-14" d="m25.51,25.51h3.83c-.36-3.34.47-5.49,3.83-5.1-2.27,4.1,3.88,6.11-5.1,6.38h-2.55v-1.28Z"/><path class="cls-9" d="m38.26,20.41c2.67-.74,3.64-3.16,7.65-2.55v2.55c-4.75,1.77,3.75.19,2.55,2.55-1,2.67.9,5.65,2.55,8.93,3.93.95,2.45-3.5,6.38-2.55v5.1c-1.51-1.62-4.82-.54-6.38,1.28-2.3-6.37-2.21-6.14-8.93-3.83.38,2.6,2.55,3.4,3.83,5.1,2.52.89-.31,7.12,2.55,7.65-1.42,3.73-4.15-1.62-3.83-3.83-1.49.21-1.08,2.33-1.28,3.83-1.24-.03-.99-1.56-1.28-2.55-3.46-.91.91,6.01-2.55,5.1-.41-2.96.21-4.9,1.28-6.38-.15-2.08-5.44,1.22-5.1,3.83-2.74-2.3-4.51-3.62-3.83,2.55v1.28c-3.73-.95-2.47-6.88-7.65-6.38,2.23-4.52-.85-3.14-1.28-7.65,2.3,3.48,3.43-5.05,3.83-5.1-.23-1.08.5-1.2,1.28-1.28,3.74.09,4.74,2.91,6.38,5.1,1.01-1.38,4.01-10.58,0-8.93.71-1.84,1.99-3.11,3.83-3.83Z"/><path class="cls-4" d="m84.17,21.68c.21-1.49,2.02-1.38,3.83-1.28.06,1.76-.6,2.8-1.28,3.83,1.91-.22,4.71.46,5.1-1.28,3.17-.19,5.29.66,6.38,2.55-2.84.54-1,6.77,0,7.65-3.26-.14-2.53-4.27-2.55-7.65-5.12,1.29-9.04-.5-8.93,3.83-.73-2.67-3.16-3.64-2.55-7.65Z"/><path class="cls-5" d="m139.01,7.65c1.74,2.94,4,5.36,7.65,6.38-2.62,1.21-1.08,6.57-5.1,6.38,1.89,5.55-.66,8.07,2.55,12.75-2.06-.36-2.2,1.2-3.83,1.27.51-4.34,3.93-2.1,0-5.1-.71-2.27-.66-5.3-2.55-6.38-4.13-1.58-.97,4.13-5.1,2.55.21-1.48-.28-2.27-1.28-2.55.03-3.8,6.02-1.64,7.65-3.83.66,2.59,3.11-3.55,5.1-3.83-1.26-2.99-6.87-1.63-5.1-7.65Z"/><path class="cls-2" d="m145.39,11.48c6.12,5.4-2.12,11.32-2.55,17.86,3.59-.19,3.68,3.12,3.83,6.38,2.41.57,7.69-1.73,6.38,2.55-.88-1-7.12-2.84-7.65,0-1.48.21-2.27-.28-2.55-1.28.03-1.24,1.56-.99,2.55-1.28-.35-4.47-5.65,2.3-5.1-1.28,1.63-.07,1.77-1.63,3.83-1.27-3.21-4.68-.66-7.21-2.55-12.75,4.02.19,2.48-5.17,5.1-6.38-3.66-1.02-5.91-3.44-7.65-6.38h-6.38c.6,3.97-3.21,4.56-5.1,2.55-.29.99-.04,2.52-1.28,2.55h-2.55c4.1-4.62,4.52-5.01,11.48-6.38h5.1c0,3.39,3.55,3.25,5.1,5.1Z"/><path class="cls-4" d="m140.29,29.34c-1.51,1.89-4.82,1.98-6.38,3.83-2.65-1.11,1.88-5.65,5.1-5.1-.99-1.13-1.37-2.88-1.28-5.1,1.9,1.08,1.85,4.11,2.55,6.38Z"/><path class="cls-4" d="m38.26,20.41c-1.84.71-3.11,1.99-3.83,3.83,4.01-1.65,1.01,7.55,0,8.93-1.64-2.19-2.64-5.02-6.38-5.1v-1.28c8.98-.27,2.83-2.28,5.1-6.38.99-.29,2.52-.04,2.55-1.28.99.29,2.52.04,2.55,1.28Z"/><path class="cls-9" d="m86.72,29.34c-.11-4.33,3.81-2.53,8.93-3.83.02,3.38-.71,7.51,2.55,7.65h3.83v2.55c-4.52.43-3.14,3.51-7.65,1.28-.7,2.83,2.44,1.82,2.55,3.83,1.3-.83,1.32-2.93,3.83-2.55-1.14,4.45,4.16,2.18,5.1,1.28.31,1.6,2.54,1.29,2.55,0h2.55c-1.11,4.09,1.96,3.99,3.83,5.1,1.82,3.54,2.99,7.72,7.65,5.1-.16,2.29,1.56,2.69,1.28,5.1-3.14.17-6.14.19-7.65-1.28-1.48.21-2.27-.28-2.55-1.28-1.49.21-1.08,2.33-1.28,3.83-3.59-3.7-3.49,1.92-6.38,2.55.43-2.56-.26-3.99-2.55-3.83v-1.28c4.05-5.43-4.07-10.81-8.93-7.65-.57-1.85-1.12.13-2.55,0-1.11-3.82-8.26-1.54-10.2-1.28.23,1.08-.5,1.2-1.28,1.28-2.78.23-4.06-1.04-3.83-3.83.93-2.08-2.53-5.55-2.55-2.55-1.49-.2-1.08-2.33-1.28-3.83-1.03.24-1.27,1.28-2.55,1.28-1.14.79-2.28,1.54-2.55,0,2.54-1.71,6.07-2.43,8.93-3.83h1.28c-1.22,2.37,3.82,4.26,0,5.1,3.5,2.07,5.89,6.01,10.2,3.83-.65-3.6-8.14-.36-6.38-6.38,3.07-.52,2.77,2.33,6.38,1.28.97-4.8-6.77-.88-5.1-6.38,1.84-2.82,3.11,1.61,3.83-1.28Z"/><path class="cls-5" d="m98.2,25.51c.02,2.53,3.48,1.62,2.55,5.1.24,1.03,1.28,1.27,1.28,2.55h-3.83c-1-.89-2.84-7.12,0-7.65Z"/><path class="cls-2" d="m130.09,24.23c.71,3.67.93,2.21,2.55,6.38-4.07.76-3.94-2.39-6.38,0-2.93-4.07-3.17,5.23-5.1,6.38-3.28-4.28,3.69-6.62,0-10.2.33-1.79,2.8-1.45,3.83-2.55-.18,1.51-2.27,2.89,0,3.83.71-2.6,3.84-2.5,1.28-5.1,1.63.07,1.77,1.63,3.83,1.28Z"/><path class="cls-2" d="m15.3,31.89c2.2-3.33,5.08-5.98,10.2-6.38v1.28c-3.21,1.04-5.08,3.42-7.65,5.1v1.28c-1.48-.21-2.27.28-2.55,1.27-1.85-.56.13-1.12,0-2.55Z"/><path class="cls-5" d="m25.51,26.79h2.55v1.28c-.78.07-1.51.19-1.28,1.28-5.5-.32-4,5.44-8.93,2.55,2.58-1.68,4.44-4.06,7.65-5.1Z"/><path class="cls-4" d="m26.78,29.34c-.4.05-1.52,8.58-3.83,5.1.43,4.52,3.51,3.14,1.28,7.65,5.18-.51,3.92,5.43,7.65,6.38-.14,2.41-4.22.89-3.83,3.83h-2.55c2.53,2.62,2.53,1.2,0,3.83,1.92,2.33,5.5,3,7.65,5.1.3-2.69-7.52-7.07-1.28-7.65-1.58,3.55,4.13,3.55,2.55,0,1.03-.67,2.07-1.33,3.83-1.28,1.08-.23,1.2.5,1.28,1.28-.27,2.18,2.17,3.3,0,3.83h-2.55c-2.7,3.84-2.19,3.49-3.83,8.93-3.07.52-2.77-2.33-6.38-1.28.23-1.08-.5-1.2-1.28-1.28-.56-1.57-1.63-2.62-3.83-2.55v-5.1c3.09-4.6,3.05-5.66-1.28-6.38,1.48.21,2.27-.28,2.55-1.28,6.05-2.26-.58-5.88-3.83-6.38h-2.55c.03-1.24,1.56-.99,2.55-1.28.03-3-2.2-3.75-1.27-7.65v-1.28c4.92,2.89,3.43-2.87,8.93-2.55Z"/><path class="cls-11" d="m121.16,26.79c3.69,3.58-3.28,5.92,0,10.2,1.94-1.14,2.17-10.45,5.1-6.38-.24,1.03-1.28,1.27-1.28,2.55,3.17-.14,3.95-2.39,6.38,0-.31,1.6-2.54,1.29-2.55,0-2.88.71,1.55,1.99-1.28,3.83h-2.55c-.23,1.08.5,1.2,1.28,1.28-.21,1.5-2.33,1.08-3.83,1.28.24,1.03,1.28,1.27,1.28,2.55-1.49.21-1.08,2.33-1.28,3.83h-3.83c-.11-2.02.61-4.86-1.28-5.1,2.06-2.33,4.04.9,6.38-2.55-1.39.06-6.24-.44-8.93,2.55-1.51-.37-4.82-5.14-6.38-1.28-.02,1.29-2.24,1.6-2.55,0,2.65-4.63,0-2.55-3.83-3.83v-2.55c0-1.28-1.03-1.52-1.28-2.55,2.94,2.53,1.42-.32,3.83-1.28,2,.55,1.09,4.01,5.1,2.55,3.71,3.2,6.06-5.78,11.48-5.1Zm-3.83,10.2c-1.49-.21-1.38-2.02-1.28-3.83-1.91.22-4.71-.46-5.1,1.27,3.02-.66,2.21,6.35,6.38,2.55Z"/><path class="cls-9" d="m137.74,22.96c-.1,2.22.28,3.97,1.28,5.1-3.22-.55-7.75,3.99-5.1,5.1,1.56-1.84,4.87-1.93,6.38-3.83,3.93,3,.51.76,0,5.1-2.67.54-3.38-.87-5.1-1.27-3.38,1.84-.68,8.21,2.55,7.65-4.54,1.87-7.4-1.17-8.93,1.28.54-2.66-.87-3.38-1.28-5.1,2.82-1.84-1.61-3.11,1.28-3.83.01,1.29,2.24,1.6,2.55,0-2.43-2.39-3.2-.14-6.38,0,0-1.28,1.03-1.52,1.28-2.55,2.43-2.39,2.31.76,6.38,0-1.62-4.16-1.84-2.7-2.55-6.38.78-.07,1.51-.19,1.27-1.28.99.28,1.48,1.07,1.28,2.55,4.13,1.58.97-4.13,5.1-2.55Z"/><path class="cls-11" d="m8.93,39.54c6.99-.91,1.63-6.23,6.38-8.93v1.28c.13,1.43-1.85,1.99,0,2.55,2.39,2.43-.76,2.31,0,6.38-1.14-.99-2.88-1.37-5.1-1.28h-1.28Z"/><path class="cls-3" d="m45.91,36.99c-1.27-1.7-3.45-2.5-3.83-5.1,6.72-2.32,6.62-2.55,8.93,3.83-.23,1.08.5,1.2,1.28,1.28-.04,1.24-1.56.99-2.55,1.28-1.03-.67-2.07-1.33-3.83-1.28Z"/><path class="cls-3" d="m57.39,29.34c1.28,0,1.52,1.03,2.55,1.28.22-1.91-.46-4.71,1.28-5.1.88,4.74.62,3.33,1.28,8.93-1.3.83-1.32,2.93-3.83,2.55.21-1.48-.28-2.27-1.28-2.55v-5.1Z"/><path class="cls-3" d="m86.72,29.34c-.71,2.88-1.99-1.55-3.83,1.28-1.67,5.5,6.07,1.58,5.1,6.38-3.6,1.05-3.3-1.8-6.38-1.28-1.76,6.01,5.73,2.77,6.38,6.38-4.31,2.18-6.7-1.76-10.2-3.83,3.82-.84-1.22-2.73,0-5.1h-1.28v-2.55h1.28c3.59,1.3,5.43,1.45,5.1-3.83-2.37-1.22-4.26,3.82-5.1,0,3.6.2,3.2-3.61,5.1-5.1h1.28c-.61,4.01,1.82,4.99,2.55,7.65Z"/><path class="cls-4" d="m105.85,39.54c-.94.9-6.24,3.18-5.1-1.28-2.51-.38-2.53,1.72-3.83,2.55-.12-2.01-3.25-1-2.55-3.83,4.52,2.23,3.14-.85,7.65-1.28,3.82,1.27,6.47-.8,3.83,3.83Z"/><path class="cls-7" d="m110.96,34.44c.39-1.73,3.19-1.06,5.1-1.27-.11,1.81-.21,3.61,1.28,3.83-4.17,3.8-3.36-3.21-6.38-2.55Z"/><path class="cls-11" d="m57.39,34.44c.99.28,1.48,1.07,1.28,2.55-1.08-.23-1.2.5-1.28,1.28-1.84.29-.44,3.81-2.55,3.83,1.15,1.41,2.85.88,5.1,0,3.73-.33,3.92,2.88,7.65,2.55v1.28c-2.37.18-4.26.84-5.1,2.55-1.84-1.43-3.11-1.37-3.83,1.28-1.89-.56.5-1.63,0-3.83-1.03,1.1-3.49.76-3.83,2.55-2.11-1.29-1.39-5.42-2.55-7.65-1.39.32-.87,2.54-2.55,2.55-2.12-2.53.12-1.62,0-5.1.99-.29,2.52-.03,2.55-1.28,2.91.36,4.79-.31,5.1-2.55Z"/><path class="cls-2" d="m58.67,36.99c2.51.38,2.53-1.72,3.83-2.55v2.55c-.47,3.87,4.15,2.65,6.38,3.83,2.43.55,3.2,2.75,6.38,2.55.24,1.03,1.28,1.27,1.28,2.55-1.89.56.5,1.63,0,3.83h-1.28c1.29-3.84-2.84-2.26-5.1-2.55-1.48.21-2.27-.28-2.55-1.28v-1.28c-3.73.33-3.92-2.88-7.65-2.55.43-2.56-.26-3.99-2.55-3.83.07-.78.19-1.51,1.28-1.28Z"/><path class="cls-5" d="m48.46,44.64c-2.86-.54-.04-6.77-2.55-7.65,1.76-.05,2.8.6,3.83,1.28.12,3.48-2.12,2.57,0,5.1-1.08-.23-1.2.5-1.28,1.28Z"/><path class="cls-8" d="m62.49,36.99h5.1c.27,1.54,1.42.79,2.55,0,.36,2.06-1.21,2.2-1.28,3.83-2.22-1.18-6.85.04-6.38-3.83Z"/><path class="cls-10" d="m123.71,42.09c0-1.28-1.03-1.52-1.28-2.55,1.5-.2,3.62.22,3.83-1.28-.78-.07-1.51-.19-1.28-1.28h2.55c.4,1.72,1.81,2.44,1.28,5.1h-5.1Z"/><path class="cls-1" d="m59.94,42.09c-2.25.88-3.95,1.41-5.1,0,2.11-.02.71-3.54,2.55-3.83,2.29-.16,2.98,1.27,2.55,3.83Z"/><path class="cls-10" d="m108.41,39.54c1.56-3.86,4.87.9,6.38,1.28,2.69-2.99,7.54-2.49,8.93-2.55-2.34,3.45-4.32.22-6.38,2.55h-2.55c-.27,2.18,2.17,3.3,0,3.83-1.86-1.11-4.94-1.01-3.83-5.1h-2.55Z"/><path class="cls-6" d="m145.39,38.26c-.04,1.24-1.56.99-2.55,1.28-1.68,3.19,5.04,3.99,1.28,5.1-.24-1.03-1.28-1.27-1.28-2.55-1.9,1.08-1.85,4.11-2.55,6.38-.21,1.5-2.33,1.08-3.83,1.28h-1.28c2.22-4.58,5.93-7.67,7.65-12.75.28.99,1.07,1.48,2.55,1.28Z"/><path class="cls-9" d="m154.32,38.26c.6,2.72-1.82,2.43-3.83,2.55.57,1.14,1.12,2.28,2.55,2.55.21,2.77-4.52.58-6.38,1.28-1.68.45-2.01,2.25-3.83,2.55-2.43-1.1,1.38-.76,1.28-2.55,3.77-1.11-2.96-1.91-1.28-5.1.99-.29,2.52-.03,2.55-1.28.54-2.84,6.77-1,7.65,0h1.28Z"/><path class="cls-2" d="m25.51,63.77c-3.27-1.41-8.47-.88-6.38-7.65-7.83,2.55-14.22-2.33-19.13-6.38,1.15-4.25,1.74-9.21,8.93-10.2h1.28c-.1,3.28-5.94,1.82-2.55,5.1-2.06-.36-2.2,1.21-3.83,1.28,3.09,2.31,1.48,10.55,8.93,6.38v2.55c3.54-2.25,3.61-.93,6.38-2.55,1.84.29.44,3.81,2.55,3.83v5.1c2.19-.07,3.27.98,3.83,2.55Z"/><path class="cls-5" d="m7.65,44.64c-3.39-3.28,2.45-1.82,2.55-5.1,2.22-.1,3.97.29,5.1,1.28-.76-4.07,2.39-3.94,0-6.38.28-.99,1.07-1.48,2.55-1.27-.92,3.9,1.3,4.65,1.27,7.65-.99.29-2.52.04-2.55,1.28v1.28h-2.55c-1.58-5.27-3.71.48-6.38,1.28Z"/><path class="cls-4" d="m31.88,47.19c-.68-6.17,1.08-4.85,3.83-2.55-.34-2.61,4.95-5.91,5.1-3.83-1.07,1.48-1.68,3.42-1.28,6.38-1.08-.23-1.2.5-1.28,1.28h-1.28c-1.03-.67-2.07-1.33-3.83-1.28h-1.28Z"/><path class="cls-9" d="m127.54,67.6c-1.36-1.19-.4-4.7-3.83-3.83.18-3.65,5.32-2.33,8.93-2.55-.18-2.37-.84-4.26-2.55-5.1,1.56-1.82,4.87-2.9,6.38-1.28.12-3.48-2.12-2.57,0-5.1,1.5-.2,3.62.22,3.83-1.28,2.06-.36,2.2,1.21,3.83,1.28-.21,1.48.28,2.27,1.28,2.55,1.19,5.31,1.63,10.13,2.55,11.48-1.03-.24-1.27-1.28-2.55-1.28h-1.28c-.54-2.67.87-3.38,1.28-5.1-1.62,1.78-6.25.55-6.38,3.83.92,3.9-1.3,4.65-1.28,7.65-3.6,1.05-3.3-1.8-6.38-1.28.39-1.73,3.19-1.06,5.1-1.28-2-4.99-4.63-5.97-7.65,1.28h-1.28Zm7.65-5.1c4.27-.41,2.07-7.28,6.38-7.65-3.48-.12-2.57,2.12-5.1,0,.92,3.9-2.2,3.75-1.28,7.65Z"/><path class="cls-6" d="m127.54,48.47c2.96,1.42,3.41-.27,6.38,2.55-1.15,3.08-7.2.54-7.65-1.28-.23-1.08.5-1.2,1.28-1.28Z"/><path class="cls-9" d="m7.65,44.64c2.67-.79,4.79-6.54,6.38-1.28-1.03,1.1-3.49.76-3.83,2.55,1.25,1.31,2.52,2.58,3.83,3.83-.24,1.03-1.28,1.27-1.28,2.55-7.45,4.18-5.84-4.07-8.93-6.38,1.63-.07,1.77-1.63,3.83-1.28Z"/><path class="cls-5" d="m19.13,42.09c3.25.49,9.88,4.11,3.83,6.38h-1.28c-.21-1.48.28-2.27,1.28-2.55.51-3.06-5.81.71-3.83-3.83Z"/><path class="cls-2" d="m94.38,45.92c4.85-3.16,12.97,2.23,8.93,7.65h-1.28c-1.62-3.48-5.12-5.08-7.65-7.65Z"/><path class="cls-5" d="m123.71,42.09h3.83c1.83,1.87.98,4.04-2.55,3.83.31,1.38,2.54.87,2.55,2.55-.78.07-1.51.19-1.28,1.28h-3.83v-3.83c.2-1.5-.22-3.62,1.28-3.83Z"/><path class="cls-8" d="m14.03,49.74c-1.3-1.25-2.58-2.52-3.83-3.83.33-1.79,2.8-1.45,3.83-2.55h2.55c1.09,4.07-2.01,3.94-2.55,6.38Z"/><path class="cls-10" d="m81.62,44.64c1.94-.27,9.1-2.54,10.2,1.28-9.64.17-4.7,5.2-10.2-1.28Z"/><path class="cls-4" d="m117.33,40.81c1.89.24,1.17,3.08,1.28,5.1h3.83v3.83h3.83c.45,1.82,6.5,4.36,7.65,1.28-2.96-2.82-3.41-1.13-6.38-2.55-.02-1.68-2.24-1.17-2.55-2.55,3.53.22,4.38-1.96,2.55-3.83h1.28c1.53-2.45,4.39.59,8.93-1.28-3.23.56-5.93-5.81-2.55-7.65,1.72.4,2.44,1.82,5.1,1.27-.55,3.58,4.75-3.2,5.1,1.28-.99.29-2.52.04-2.55,1.28-1.72,5.08-5.43,8.17-7.65,12.75h1.28c-2.12,2.53.12,1.62,0,5.1-1.51-1.62-4.82-.54-6.38,1.28,1.71.84,2.37,2.73,2.55,5.1-3.61.22-8.75-1.1-8.93,2.55,3.43-.88,2.46,2.64,3.83,3.83-2.67.54-3.38-.88-5.1-1.28-.59,2.44,3.93,5.49-1.28,5.1.24,1.03,1.28,1.27,1.28,2.55,2.17.47,2.41-1,2.55-2.55,4.97,1.15-4.23,4.69,0,5.1-.84,3.82-2.73-1.22-5.1,0-2.46.51-.11,5.84-5.1,3.83.88,2.52,3.4,3.4,6.38,3.83v1.28c-1.03.67-2.07,1.33-3.83,1.28-.11,1.81-.21,3.61,1.28,3.83-.31,2.24-2.19,2.91-5.1,2.55,2.06,1.77,5.02,2.63,6.38,5.1-5.02-2.04-.44,5.51-3.83,5.1-4.62,1.22-1.3-5.5-3.83-6.38-3.82.84,1.22,2.73,0,5.1-1.24-.04-.99-1.56-1.27-2.55-1.24.03-.99,1.56-1.28,2.55-1.07,1.48-1.68,3.42-1.28,6.38h-3.83c-3.67-.15-2.21-5.44-6.38-5.1,2.82-2.28,3.45-6.76,5.1-10.2,2.06-.36,2.2,1.2,3.83,1.28,4.33,2.3,1.86-5.98,3.83-8.93-2.02.11-4.87-.61-5.1,1.28-2.06.36-2.2-1.21-3.83-1.28-.16-2.29,1.56-2.69,1.28-5.1,5.04.22-.41-1.96,2.55-3.83,1.03-.67,2.07-1.33,3.83-1.28-.24,1.03-1.28,1.27-1.28,2.55v5.1h2.55c1.92-1.9,1.94-5.72,6.38-5.1.11-1.81.21-3.61-1.28-3.83h-1.28c.36-2.96,3.41-2.93,5.1-1.28-1.49-4.92-2.98-8.71,2.55-15.3-1.92-3.98-5.5,3.75-7.65,0-.36-2.06,1.21-2.2,1.28-3.83,1.51,1.47,4.51,1.44,7.65,1.28.29-2.41-1.44-2.81-1.28-5.1-4.66,2.62-5.84-1.56-7.65-5.1,2.17-.52-.27-1.64,0-3.83h2.55Z"/><path class="cls-2" d="m19.13,42.09c-1.98,4.53,4.33.77,3.83,3.83-.99.28-1.48,1.07-1.28,2.55h1.28c-.28.99-1.07,1.48-2.55,1.28-1.24.04-.99,1.56-1.28,2.55-1.24-.04-.99-1.56-1.27-2.55-1.68,1.53-2.01.5-3.83,0,.54-2.43,3.64-2.31,2.55-6.38v-1.28h2.55Z"/><path class="cls-10" d="m39.54,47.19c3.46.91-.91-6.01,2.55-5.1.29.99.04,2.52,1.28,2.55,1.93,3.69-1.86,5.81,3.83,6.38v3.83c-1.57.56-2.62,1.63-2.55,3.83-1.81-.11-3.61-.21-3.83,1.28-1.24-.04-.99-1.56-1.28-2.55,2.17-.52-.27-1.64,0-3.83,5.78.95-1.95-3.5,3.83-2.55-.31-2.24-2.19-2.91-5.1-2.55.07-.78.19-1.51,1.28-1.28Z"/><path class="cls-11" d="m81.62,44.64c5.5,6.48.56,1.45,10.2,1.28-4.05,5.04,4.92-1.98,3.83,5.1-1.48-.21-2.27.28-2.55,1.28-1.48-.21-2.27.28-2.55,1.28-4.02-1.43-2.89-.11-7.65,0-2.17-2.5-2.98-6.37-6.38-7.65,0-1.28-1.03-1.52-1.28-2.55-.23-1.08.5-1.2,1.28-1.28-.23,2.78,1.04,4.06,3.83,3.83.78-.07,1.51-.19,1.28-1.28Z"/><path class="cls-4" d="m144.12,44.64c.1,1.79-3.71,1.45-1.28,2.55,1.82-.3,2.15-2.1,3.83-2.55-.02,2.54-3.48,1.62-2.55,5.1-1.63-.07-1.77-1.63-3.83-1.28.71-2.27.66-5.3,2.55-6.38,0,1.28,1.03,1.52,1.28,2.55Z"/><path class="cls-7" d="m93.1,52.29c.28-.99,1.07-1.48,2.55-1.28,1.1-7.08-7.87-.06-3.83-5.1,1.43.13,1.98-1.85,2.55,0,2.53,2.57,6.03,4.17,7.65,7.65-4.42,1.02-4.9-1.9-8.93-1.28Z"/><path class="cls-5" d="m14.03,49.74c1.82.5,2.15,1.53,3.83,0,.29.99.03,2.52,1.27,2.55.29-.99.04-2.52,1.28-2.55,4.33.71,4.36,1.78,1.28,6.38-2.11-.02-.71-3.54-2.55-3.83-2.77,1.62-2.84.3-6.38,2.55v-2.55c0-1.28,1.03-1.52,1.28-2.55Z"/><path class="cls-3" d="m33.16,47.19c-.52,3.07,2.33,2.77,1.28,6.38,1.58,3.55-4.13,3.55-2.55,0-.21-1.49-2.33-1.08-3.83-1.28-.39-2.94,3.68-1.42,3.83-3.83v-1.28h1.28Z"/><path class="cls-11" d="m38.26,48.47c2.91-.36,4.79.31,5.1,2.55-5.78-.95,1.95,3.5-3.83,2.55-.07-.78-.19-1.51-1.28-1.28.36-2.06-1.21-2.2-1.28-3.83h1.28Z"/><path class="cls-5" d="m66.32,51.02c3.2-.54-1.22-3.64-3.83-2.55.84-1.71,2.73-2.37,5.1-2.55.28.99,1.07,1.48,2.55,1.28-1.53,1.68-.5,2.01,0,3.83,2.67.54,3.38-.87,5.1-1.28h1.28c.24,1.03,1.28,1.27,1.28,2.55v3.83c-4.94.05-7.88,2.37-7.65,6.38-3.26.06-1.56-.95-1.28-2.55v-3.83c.23-4.89-1.04-.46-3.83-1.28-.36-2.06,1.21-2.2,1.28-3.83Z"/><path class="cls-4" d="m149.22,52.29h-3.83c-.99-.28-1.48-1.07-1.28-2.55,1.03-.24,1.27-1.28,2.55-1.28,2.39-1.86,8.45-.05,10.2-2.55,1.08-.23,1.2.5,1.28,1.28-1.98,1.85-5.95,1.7-7.65,3.83-.78.07-1.51.19-1.28,1.28Z"/><path class="cls-1" d="m77.8,52.29c0-1.28-1.03-1.52-1.28-2.55.5-2.19-1.89-3.27,0-3.83,3.4,1.28,4.21,5.15,6.38,7.65,4.76-.11,3.63-1.43,7.65,0-2.5,4.6,1.7,3.46,2.55,7.65v1.28c-4.37-1.43-3.78,9.28,1.27,6.38-.54,2.86-6.77.03-7.65,2.55v-1.28c1.71-.84,2.37-2.73,2.55-5.1-3.48-.93-2.57,2.53-5.1,2.55-1.68-.45-2.01-2.25-3.83-2.55.2-3.17-2-3.95-2.55-6.38v-1.28c3.36.38,4.19-1.77,3.83-5.1-1.68,1.53-2.01.5-3.83,0Zm12.75,8.93c.95-3.93-3.5-2.45-2.55-6.38-4,1.44-3.37-.37-6.38,1.28-2.2,8.8,5.23,8.64,8.93,5.1Z"/><path class="cls-5" d="m47.19,51.02c.67-1.03,1.33-2.07,1.28-3.83,3.51,1.17,6.19,3.16,8.93,5.1v2.55c-2.52-.42-9.11-3.95-7.65,2.55.23,1.08-.5,1.2-1.28,1.28.36-2.06-1.21-2.2-1.28-3.83v-3.83Z"/><path class="cls-14" d="m58.67,52.29c-.51-3.06,5.81.71,3.83-3.83,2.6-1.09,7.03,2.01,3.83,2.55-1.14.99-2.88,1.37-5.1,1.28-.36,2.06,1.21,2.2,1.28,3.83-6.51,1.63-1.35-3.72-3.83-3.83Z"/><path class="cls-4" d="m66.32,51.02c-.07,1.63-1.63,1.77-1.28,3.83,2.78.81,4.06-3.61,3.83,1.28h-6.38c-.07-1.63-1.63-1.77-1.28-3.83,2.22.1,3.97-.29,5.1-1.28Z"/><path class="cls-9" d="m28.06,52.29c1.5.2,3.62-.22,3.83,1.28-6.25.58,1.58,4.96,1.28,7.65-2.15-2.1-5.73-2.77-7.65-5.1,2.53-2.63,2.53-1.2,0-3.83h2.55Z"/><path class="cls-9" d="m49.74,57.39c-1.46-6.5,5.13-2.97,7.65-2.55v-2.55h1.28c2.48.11-2.69,5.46,3.83,3.83h1.28c1.88,4.85-5.7.25-3.83,5.1h-3.83c-.23,1.08.5,1.2,1.27,1.28-.21,1.49-2.33,1.08-3.83,1.28-.06-.73,2.14-5.73-3.83-6.38Z"/><path class="cls-1" d="m93.1,52.29c4.02-.62,4.5,2.3,8.93,1.28h1.28v1.28c-3.2,1.9-7.02,3.18-8.93,6.38h-1.27c-.85-4.19-5.05-3.05-2.55-7.65.28-.99,1.07-1.48,2.55-1.28Z"/><path class="cls-2" d="m105.85,58.67c2.89-.64,2.79-6.25,6.38-2.55.2-1.5-.22-3.62,1.28-3.83.28.99,1.07,1.48,2.55,1.28-.07,1.63-1.63,1.77-1.28,3.83h-1.28c.04,1.24,1.56.99,2.55,1.28-1.78,4.17-7.87,4.04-6.38,11.48-.04,1.24-1.56.99-2.55,1.28h-1.28c.36-1.5,5.62-5.3,0-5.1-.39-2.94,3.68-1.42,3.83-3.83.51-3.06-5.81.71-3.83-3.83Z"/><path class="cls-9" d="m77.8,56.12v-3.83c1.82.5,2.15,1.53,3.83,0,.36,3.33-.47,5.49-3.83,5.1v-1.28Z"/><path class="cls-9" d="m149.22,52.29c1.43.27,1.99,1.42,2.55,2.55.92,2.9,1.14,6.51,2.55,8.93-1.08-.23-1.2.5-1.28,1.28-.57,1.85-1.12-.13-2.55,0h-2.55v-1.28c-.92-1.35-1.36-6.17-2.55-11.48h3.83Z"/><path class="cls-4" d="m68.87,59.94c-.28,1.6-1.99,2.61,1.28,2.55-.23-4.01,2.71-6.33,7.65-6.38v2.55c-3.14-1.98-3.75,4.33-1.28,3.83.23,1.08-.5,1.2-1.28,1.28h-2.55c.61,4.01-1.82,4.99-2.55,7.65-.47-2.94-5.58-1.22-5.1-5.1,1.94-4.85-2.44-8.63,3.83-6.38Z"/><path class="cls-4" d="m136.46,54.84c2.53,2.12,1.62-.12,5.1,0-4.31.37-2.11,7.24-6.38,7.65-.92-3.9,2.2-3.75,1.28-7.65Z"/><path class="cls-4" d="m47.19,54.84c.07,1.63,1.63,1.77,1.28,3.83.47,2.17-.99,2.41-2.55,2.55.21,1.49,2.33,1.08,3.83,1.28v3.83c-1.08-.23-1.2.5-1.28,1.28-2.02.11-4.86-.61-5.1,1.28-1.68.45-2.01,2.25-3.83,2.55-1.98-2.1-4.97.44-7.65,1.27-.16,2.29,1.56,2.69,1.28,5.1h-5.1c-1.48.21-2.27-.28-2.55-1.28h6.38c-.83-1.3-2.93-1.32-2.55-3.83,2.18.06,3.3-.95,3.83-2.55,2.62-.36,2.54-3.41,3.83-5.1,1.91,2.02,5.22.94,6.38-1.28,3.58-.02-3.04-3.48,2.55-2.55.21-1.48-.28-2.27-1.28-2.55-.07-2.19.98-3.27,2.55-3.83Z"/><path class="cls-9" d="m114.78,57.39c2.15,3.75,5.73-3.98,7.65,0-5.53,6.59-4.04,10.38-2.55,15.3-1.69-1.66-4.75-1.68-5.1,1.28h1.28c-.57,1.14-1.12,2.28-2.55,2.55,1.91-1.89.12-6.59-3.83-6.38-1.49-7.44,4.6-7.3,6.38-11.48-.99-.29-2.52-.04-2.55-1.28h1.28Z"/><path class="cls-9" d="m40.81,59.94c-.03,1.24-1.56.99-2.55,1.28.19,2.36,4.32.78,5.1,2.55-1.16,2.21-4.47,3.3-6.38,1.28-1.28,1.69-1.21,4.75-3.83,5.1-1.36-4.34-.4,3.55-3.83,1.28,1.09-4.07-2.01-3.95-2.55-6.38,3.6-1.05,3.3,1.8,6.38,1.28,1.64-5.44,1.13-5.09,3.83-8.93h2.55c.29.99.04,2.52,1.28,2.55Z"/><path class="cls-6" d="m49.74,57.39c5.96.64,3.77,5.64,3.83,6.38-.68,1.03-1.33,2.07-1.28,3.83-1.03-.24-1.27-1.28-2.55-1.28v-3.83c-1.5-.2-3.62.22-3.83-1.28,1.56-.14,3.02-.38,2.55-2.55.78-.07,1.51-.19,1.28-1.28Z"/><path class="cls-4" d="m81.62,56.12c3.01-1.64,2.37.17,6.38-1.28-.95,3.93,3.5,2.45,2.55,6.38-3.69,3.53-11.13,3.7-8.93-5.1Z"/><path class="cls-4" d="m94.38,61.22c1.9-3.2,5.73-4.48,8.93-6.38,2.29-.16,2.98,1.27,2.55,3.83-1.98,4.53,4.33.77,3.83,3.83-.14,2.41-4.22.89-3.83,3.83-4-.6-3.37,3.43-6.38,3.83-2.67.54-3.38-.87-5.1-1.28-5.05,2.9-5.65-7.81-1.27-6.38-.99,1.13-1.37,2.88-1.28,5.1,6.65.67,2.33-5.6,6.38-2.55,2.7-.39-1.34-4.43-3.83-3.83Z"/><path class="cls-6" d="m139.01,61.22c.13-3.27,4.75-2.05,6.38-3.83-.4,1.72-1.82,2.44-1.28,5.1h1.28c.21,1.48-.28,2.27-1.28,2.55v-2.55c-1.08-.23-1.2.5-1.28,1.28-1.89-.56.5-1.63,0-3.83-1.03.67-2.07,1.33-3.83,1.28Z"/><path class="cls-6" d="m43.36,63.77c-.78-1.77-4.91-.19-5.1-2.55.99-.29,2.52-.04,2.55-1.28.21-1.49,2.02-1.38,3.83-1.28.99.28,1.48,1.07,1.28,2.55-5.59-.93,1.03,2.53-2.55,2.55Z"/><path class="cls-11" d="m59.94,61.22c-1.87-4.85,5.7-.25,3.83-5.1h5.1v3.83c-6.27-2.25-1.88,1.53-3.83,6.38h-2.55c-4.75-5.96-2.57,8.17-5.1,0-.93-3.48,2.53-2.57,2.55-5.1Z"/><path class="cls-5" d="m53.57,63.77c1.5-.2,3.62.22,3.83-1.28-.78-.07-1.51-.19-1.27-1.28h3.83c-.02,2.53-3.48,1.62-2.55,5.1-2.26.12-9.84,4.75-3.83,5.1-.11,2.02.61,4.86-1.28,5.1.06-2.18-.95-3.3-2.55-3.83h-2.55c-.6-2.72,1.82-2.43,3.83-2.55.47-2.17-.99-2.41-2.55-2.55.07-.78.19-1.51,1.28-1.28,1.28,0,1.52,1.03,2.55,1.28-.06-1.76.6-2.8,1.28-3.83Z"/><path class="cls-5" d="m75.25,63.77c.78-.07,1.51-.19,1.28-1.28,5.4,1.27-4.5,3.45,0,3.83,2.23,2.6-.95,2.5,1.28,5.1h-3.83v3.83c-3.3-4.16,1.93-8.66,1.27-11.48Z"/><path class="cls-10" d="m128.81,67.6c3.02-7.25,5.65-6.26,7.65-1.28-1.91.22-4.71-.46-5.1,1.28h-2.55Z"/><path class="cls-4" d="m150.49,65.05c1.43-.13,1.99,1.85,2.55,0h1.28c-.18,1.51-2.27,2.89,0,3.83,1.15-.73,4.69-5.26,5.1-2.55-1.84.29-.44,3.81-2.55,3.83-2.96.41-4.9-.21-6.38-1.28,1.53-1.68.5-2.01,0-3.83Z"/><path class="cls-12" d="m84.17,67.6c2.53-.02,1.62-3.48,5.1-2.55-.18,2.37-.84,4.26-2.55,5.1-2.24,1.83-2.91,1.17-2.55-2.55Z"/><path class="cls-2" d="m150.49,73.97c.13-3.96-4.01-3.64-2.55-8.93h2.55c.5,1.82,1.53,2.15,0,3.83,1.48,1.07,3.42,1.68,6.38,1.28v1.28c-1.36,1.19-.4,4.7-3.83,3.83.23-1.08-.5-1.2-1.28-1.28h-1.28Z"/><path class="cls-4" d="m62.49,66.32c.24,4.01,2.37,6.13,6.38,6.38-1.42,1.57-1.11,2.62,1.28,2.55-.57,3.68-9.64-1.13-10.2,2.55-2.02-.11-4.86.61-5.1-1.28,3.28.19,4.13-7.11-1.28-5.1-6.02-.35,1.56-4.98,3.83-5.1,2.54,8.17.35-5.96,5.1,0Z"/><path class="cls-1" d="m99.48,70.15c3.01-.39,2.37-4.43,6.38-3.83-1.11,1.87-1.91,4.04-5.1,3.83-.41,3.38,7.14-1.19,5.1,3.83h-6.38c-.31-3.29-2.19,1.75-5.1,0,.35-2.62,4.75-1.2,5.1-3.83Z"/><path class="cls-3" d="m121.16,85.45v-1.28c-2.97-.43-5.5-1.31-6.38-3.83,4.99,2.02,2.64-3.31,5.1-3.83,2.37-1.22,4.26,3.82,5.1,0-4.23-.41,4.97-3.95,0-5.1-.14,1.55-.38,3.02-2.55,2.55,0-1.28-1.03-1.52-1.28-2.55,5.21.39.68-2.66,1.28-5.1,1.72.4,2.44,1.82,5.1,1.28h2.55c-.03,3,2.2,3.75,1.27,7.65-6.62-1.69-4.51,7.17-10.2,10.2Z"/><path class="cls-14" d="m156.87,70.15c2.11-.02.71-3.54,2.55-3.83,1.54,1.44,2.31,3.64,6.38,2.55.18,2.37.84,4.26,2.55,5.1v1.28c-1.98,1.84-4.97,2.68-7.65,3.83,1.32-3.35,2.02-8.32-3.83-7.65v-1.28Z"/><path class="cls-5" d="m26.78,65.05c.54,2.43,3.64,2.31,2.55,6.38,3.43,2.27,2.46-5.62,3.83-1.28-.52,1.6-1.64,2.61-3.83,2.55-.38,2.51,1.72,2.53,2.55,3.83h-6.38c-1.92-2.72-3.82,1.83-5.1,1.28.23,1.08-.5,1.2-1.28,1.28h-3.83c4.02-4.94,14.64-5.58,10.2-15.3.78.07,1.51.19,1.28,1.28Z"/><path class="cls-9" d="m43.36,68.87c.24-1.89,3.08-1.17,5.1-1.28,1.56.14,3.02.38,2.55,2.55-2,.12-4.42-.17-3.83,2.55-.57,1.14-1.12,2.28-2.55,2.55h-1.28c-.47-2.17.99-2.41,2.55-2.55-1.1-1.03-.76-3.49-2.55-3.83Z"/><path class="cls-9" d="m75.25,63.77c.65,2.82-4.57,7.32-1.27,11.48v-3.83h3.83c-.12,4.76-1.43,3.63,0,7.65-2.06-.36-2.2,1.21-3.83,1.28-1.89.66-3.21,1.89-5.1,2.55-.24-1.45-1.28-.71-1.28,0-1.38-2.87-3.46-5.04-7.65-5.1.57-3.68,9.64,1.13,10.2-2.55-2.39.07-2.7-.98-1.28-2.55-4.01-.24-6.13-2.37-6.38-6.38h2.55c-.48,3.88,4.64,2.17,5.1,5.1.73-2.67,3.16-3.64,2.55-7.65h2.55Z"/><path class="cls-1" d="m105.85,73.97c2.04-5.02-5.51-.44-5.1-3.83,3.19.22,3.99-1.96,5.1-3.83,5.62-.2.36,3.61,0,5.1h1.28c.21,1.48-.28,2.27-1.28,2.55Z"/><path class="cls-5" d="m131.36,75.25c.92-3.9-1.3-4.65-1.27-7.65h1.27c1.09,3.59,4.12,5.23,3.83,10.2h-1.28c-.03-1.24-1.56-.99-2.55-1.28v-1.28Z"/><path class="cls-3" d="m116.06,73.97c1.49.21,1.39,2.02,1.28,3.83-4.44-.62-4.46,3.2-6.38,5.1h-2.55v-5.1c3.35,3.32,1-2.06,5.1-1.28,1.43-.27,1.99-1.41,2.55-2.55Z"/><path class="cls-4" d="m139.01,61.22c1.76.05,2.8-.6,3.83-1.28.5,2.19-1.89,3.27,0,3.83.07-.78.19-1.51,1.28-1.28v2.55c.28,4.82,2.94,7.27,6.38,8.93h1.28c.21,1.48-.28,2.27-1.28,2.55-2.43.55-3.2,2.75-6.38,2.55.56-1.57,1.63-2.62,3.83-2.55-2.31-1.09-3.52-3.28-6.38-3.83,2.02,4.87-3.77,3.68-7.65,7.65v-2.55h1.28c.29-4.97-2.74-6.61-3.83-10.2,3.07-.52,2.77,2.33,6.38,1.28-.03-3,2.2-3.76,1.28-7.65Z"/><path class="cls-2" d="m33.16,77.8c.29-2.41-1.44-2.81-1.28-5.1,2.68-.84,5.67-3.37,7.65-1.27-4.09,6.07,2.69-.13,2.55,5.1v2.55h-3.83c-.23,1.08.5,1.2,1.28,1.28-.56,1.89-1.63-.5-3.83,0-1.39-.31-.87-2.54-2.55-2.55Z"/><path class="cls-7" d="m156.87,71.42c5.85-.67,5.15,4.3,3.83,7.65-1.24.04-.99,1.56-1.28,2.55-1.3-.83-1.32-2.93-3.83-2.55-.21-1.49-2.33-1.08-3.83-1.28.24-1.03,1.28-1.27,1.28-2.55,3.43.88,2.46-2.64,3.83-3.83Z"/><path class="cls-10" d="m44.64,75.25c1.43-.27,1.99-1.41,2.55-2.55h2.55c-.36,2.06,1.21,2.2,1.28,3.83h-3.83c-.23,1.08.5,1.2,1.28,1.28-.21,1.5-2.33,1.08-3.83,1.28-1.96-.67-.08-1.33,1.28-1.28-.24-1.03-1.28-1.27-1.28-2.55Z"/><path class="cls-7" d="m90.55,73.97h-3.83c-.11,1.81-.21,3.61,1.28,3.83v1.28c-1.03.68-2.07,1.33-3.83,1.28v-3.83c-1.92.36-5.37,5.48-6.38,2.55-1.43-4.02-.12-2.89,0-7.65-2.23-2.6.95-2.5-1.28-5.1,1.81.11,3.61.21,3.83-1.28,1.82.3,2.15,2.1,3.83,2.55-.36,3.72.31,4.38,2.55,2.55v1.28c.29,1.84,3.81.44,3.83,2.55Z"/><path class="cls-5" d="m109.68,70.15c3.94-.22,5.74,4.49,3.83,6.38-4.1-.79-1.75,4.59-5.1,1.28,0-1.28,1.03-1.52,1.28-2.55-1.76-.05-2.8.6-3.83,1.28v-2.55c.99-.28,1.48-1.07,1.28-2.55.99-.29,2.52-.04,2.55-1.28Z"/><path class="cls-4" d="m94.38,73.97c2.91,1.75,4.79-3.29,5.1,0v3.83c-1.6,1.78-7.21.55-3.83,3.83h-1.28c-1.16-2.24-4.47-2.33-6.38-3.83-1.49-.21-1.39-2.02-1.28-3.83h7.65Z"/><path class="cls-9" d="m133.91,77.8v2.55c3.88-3.97,9.68-2.78,7.65-7.65,2.86.54,4.06,2.74,6.38,3.83-2.19-.07-3.27.98-3.83,2.55,3.17.2,3.95-2,6.38-2.55v7.65c-2.65-1.43-2.7-1.37-1.28,1.28h-8.93c-.06-3.26.95-1.56,2.55-1.28,1.98-4.53-4.33-.77-3.83-3.83-2.77-.21-.58,4.52-1.28,6.38-1.03-.67-2.07-1.33-3.83-1.28h-1.28c1.02-4.42-1.9-4.9-1.28-8.93.99.29,2.52.04,2.55,1.28Z"/><path class="cls-9" d="m20.41,77.8c1.29.56,3.19-4,5.1-1.28.28.99,1.07,1.48,2.55,1.28-.41,2.96.2,4.9,1.28,6.38-2.32,1.75.87,6.04,2.55,10.2.71,1.84,1.99,3.11,3.83,3.83-2.82,4.33-1.13,1.25-2.55-1.28-1.3.83-1.32,2.93-3.83,2.55-1.48,1.07-3.42,1.68-6.38,1.28-.03-1.24-1.56-.99-2.55-1.28-.43-2.56.26-3.99,2.55-3.83v-2.55c.59-2.44-3.93-5.49,1.28-5.1.12-3.48-2.12-2.57,0-5.1-2.17-.8-2.1-3.85-3.83-5.1Zm5.1,17.86c.39-2.19,4.43,1.66,3.83-3.83-2.37,1.22-4.26-3.82-5.1,0,4.52.14-2.71,4.22,1.28,3.83Z"/><path class="cls-4" d="m20.41,77.8c1.73,1.25,1.65,4.3,3.83,5.1-2.12,2.54.12,1.62,0,5.1-5.21-.39-.68,2.66-1.28,5.1-1.03-1.1-3.49-.76-3.83-2.55,1.64-1.67,1.64-4.7,0-6.38,1.48-1.89,1.48-3.21,0-5.1.78-.07,1.51-.19,1.28-1.28Z"/><path class="cls-4" d="m160.7,79.07c2.68-1.14,5.67-1.98,7.65-3.83v3.83c-1.13-2.56-5.58.56-2.55,1.28-2.92.7-3.54,2.37-6.38,1.28.29-.99.03-2.52,1.28-2.55Z"/><path class="cls-1" d="m99.48,77.8c3.6,1.05,3.3-1.8,6.38-1.28-2.96,1.87,2.49,4.04-2.55,3.83-2.06.36-2.2-1.21-3.83-1.28v-1.28Z"/><path class="cls-2" d="m121.16,85.45c5.69-3.04,3.58-11.89,10.2-10.2v1.28c-.62,4.03,2.3,4.5,1.28,8.93h1.28c1.47,2.68-.78,4.97,2.55,7.65-2.94-2.53-1.42.32-3.83,1.28-.03-1.24-1.56-.99-2.55-1.28-3.36,4.96-3.2,5.93-7.65,10.2,2.79-.22,4.1,3.33,5.1,2.55,1.03.24,1.27,1.28,2.55,1.28-1.25,3-.41,8.09-5.1,7.65,2.53-1.54-.32-4.4-1.28-1.28-3.46.91.91-6.01-2.55-5.1v-2.55c.11-1.81.21-3.61-1.28-3.83,1.42-1.25,6.26-5.48,2.55-7.65-.54-2.67.87-3.38,1.28-5.1-2.06-.36-2.2,1.21-3.83,1.28h-1.28c-1.49-.21-1.38-2.02-1.28-3.83,1.76.05,2.8-.6,3.83-1.28Zm3.83,1.28c1.6.52,2.61,1.64,2.55,3.83,2.6,1.09,7.03-2.01,3.83-2.55-1.05,4.17-4.47-6.3-6.38-1.28Z"/><path class="cls-4" d="m133.91,85.45c1.76-.05,2.8.6,3.83,1.28.7-1.85-1.49-6.59,1.28-6.38-.51,3.06,5.81-.71,3.83,3.83-1.6-.28-2.61-1.99-2.55,1.28h1.28c-1.98.13-3.51,1.66-5.1,5.1.04,1.24,1.56.99,2.55,1.28,1.89-.56-.5-1.63,0-3.83,2.63-.77,8.86,2.06,7.65-2.55h2.55c.92,3.9-2.2,3.75-1.27,7.65h-3.83c.2-5.62-3.61-.36-5.1,0h-2.55c-3.33-2.68-1.09-4.97-2.55-7.65Z"/><path class="cls-11" d="m33.16,77.8c1.69.02,1.17,2.24,2.55,2.55v2.55c.23,1.08-.5,1.2-1.28,1.28h-5.1c-1.07-1.48-1.68-3.42-1.28-6.38h5.1Z"/><path class="cls-8" d="m35.71,80.35c2.19-.5,3.27,1.89,3.83,0-.78-.07-1.51-.19-1.28-1.28h3.83v-2.55c1.08.23,1.2-.5,1.28-1.28h1.28c0,1.28,1.03,1.52,1.28,2.55-1.36-.05-3.24.6-1.28,1.28-1.53,1.68-.5,2.01,0,3.83-.04,5.71-3.75-2.79-8.93,0v-2.55Z"/><path class="cls-7" d="m53.57,77.8c-1.98,4.53,4.33.77,3.83,3.83-1.08-.23-1.2.5-1.27,1.28-1.46-1.53-3.23-.5-1.28,0-.21,1.5-2.33,1.08-3.83,1.28.21-1.48-.28-2.27-1.28-2.55-.54-2.67.87-3.38,1.28-5.1-.07-1.63-1.63-1.77-1.28-3.83,1.6.52,2.61,1.64,2.55,3.83-.23,1.08.5,1.2,1.28,1.28Z"/><path class="cls-5" d="m149.22,85.45c-1.43-2.65-1.37-2.7,1.28-1.28v-7.65c.99-.28,1.48-1.07,1.28-2.55.78.07,1.51.19,1.28,1.28,0,1.28-1.03,1.52-1.28,2.55,1.5.2,3.62-.22,3.83,1.28-2.47,1.79-2.44,6.06-6.38,6.38Z"/><path class="cls-4" d="m44.64,79.07c1.5-.2,3.62.22,3.83-1.28-.78-.07-1.51-.19-1.28-1.28h3.83c-.4,1.72-1.82,2.44-1.28,5.1-.77,5.93-8.13,11.9-2.55,16.58-5.82,2.09-4.03-6.19-7.65-2.55.76-1.21,5.68-6.57,0-6.38,3.31-2.3,4.32.37,7.65-2.55.06-2.18-.95-3.3-2.55-3.83-.5-1.82-1.53-2.15,0-3.83Z"/><path class="cls-4" d="m73.97,80.35c1.63-.07,1.77-1.63,3.83-1.28,1.01,2.93,4.46-2.19,6.38-2.55v3.83c-.76,4.07,2.39,3.94,0,6.38.03,1.24,1.56.99,2.55,1.28-.3-3.38,5.23-2.85,2.55,2.55-.21,1.48.28,2.27,1.28,2.55-1.48,1.89-1.48,3.21,0,5.1h-1.28c-1.87,1.83-4.04.98-3.83-2.55,1.24-.04.99-1.56,1.28-2.55-.54-2.49-3.64,2.09-2.55-3.83-2.43,2.39-2.31-.76-6.38,0,1.36-1.19.4-4.7,3.83-3.83-.57-1.14-1.12-2.28-2.55-2.55-1.73.4-1.06,3.19-1.28,5.1-2.6-.38-3.4-2.55-5.1-3.83-.51-3.06,5.81.71,3.83-3.83-1.14.79-2.28,1.54-2.55,0Z"/><path class="cls-5" d="m88,77.8c1.91,1.49,5.22,1.59,6.38,3.83-1.24.04-.99,1.56-1.27,2.55.19,2.36,4.32.78,5.1,2.55.93-3.48-2.53-2.57-2.55-5.1-3.38-3.27,2.23-2.05,3.83-3.83v1.28c-2.98.33-.73,5.6,0,6.38v1.28c-2.43,2.39-3.2.14-6.38,0-.52-3.73-3.33-5.17-5.1-7.65v-1.28Z"/><path class="cls-9" d="m84.17,80.35c1.76.05,2.8-.6,3.83-1.28,1.77,2.48,4.58,3.92,5.1,7.65v1.28c-2.88.71,1.55,1.99-1.28,3.83-1.03-.24-1.27-1.28-2.55-1.28,2.68-5.4-2.85-5.93-2.55-2.55-.99-.29-2.52-.04-2.55-1.28,2.39-2.43-.76-2.31,0-6.38Z"/><path class="cls-1" d="m103.3,80.35c.29,2.41-1.44,2.81-1.28,5.1h-2.55c-.73-.77-2.98-6.05,0-6.38,1.63.07,1.77,1.63,3.83,1.28Z"/><path class="cls-1" d="m56.12,82.9c.07-.78.19-1.51,1.27-1.28,1.49.21,1.08,2.33,1.28,3.83v2.55c-3.99-.39,3.24,3.68-1.28,3.83.47-2.17-.99-2.41-2.55-2.55.72-2.65,3.64-4.12,1.28-6.38Z"/><path class="cls-14" d="m66.32,85.45c-.48-3.41-6.78-5.98-6.38,0h-1.28c-.2-1.5.22-3.62-1.28-3.83.51-3.06-5.81.71-3.83-3.83-.23-1.08.5-1.2,1.28-1.28.24,1.89,3.08,1.17,5.1,1.28,4.19.06,6.27,2.23,7.65,5.1,0-.71,1.03-1.45,1.28,0v1.28c-1.03.24-1.27,1.28-2.55,1.28Z"/><path class="cls-3" d="m16.58,88c1.38.32.86,2.54,2.55,2.55.33,1.79,2.8,1.45,3.83,2.55v2.55c-2.29-.16-2.98,1.27-2.55,3.83-3.71-.25-.78-4.51-6.38-5.1v-1.28c3.84,1.29,2.26-2.84,2.55-5.1Z"/><path class="cls-5" d="m16.58,88c-.43-2.56.26-3.99,2.55-3.83,1.64,1.68,1.64,4.7,0,6.38-1.69-.01-1.17-2.24-2.55-2.55Z"/><path class="cls-9" d="m35.71,82.9c5.18-2.79,8.89,5.71,8.93,0,1.6.52,2.61,1.64,2.55,3.83-3.34,2.92-4.34.25-7.65,2.55,5.68-.19.76,5.17,0,6.38-.7,2.83,2.44,1.82,2.55,3.83v1.28h-3.83v-2.55c-.5-4.17-6.75-2.61-5.1-8.93v-1.28c2.6-2.56,2.5.56,5.1,1.28-.38-2.6-2.55-3.4-3.83-5.1.78-.07,1.51-.19,1.28-1.28Z"/><path class="cls-9" d="m12.75,93.1c-1.46-5.29,2.68-4.97,2.55-8.93v-5.1h3.83c1.48,1.89,1.48,3.21,0,5.1-2.29-.16-2.98,1.27-2.55,3.83-.29,2.26,1.29,6.39-2.55,5.1h-1.28Z"/><path class="cls-4" d="m15.3,84.18c.13,3.96-4.01,3.64-2.55,8.93-.04,1.24-1.56.99-2.55,1.28h-1.28c2.74-4.79,1.25-6.96,6.38-10.2Z"/><path class="cls-2" d="m34.44,84.18c1.27,1.7,3.45,2.5,3.83,5.1-2.6-.71-2.5-3.84-5.1-1.28v1.28c-1.73.39-1.06,3.19-1.28,5.1-1.68-4.16-4.87-8.46-2.55-10.2h5.1Z"/><path class="cls-10" d="m52.29,91.83c.43-2.56-.26-3.99-2.55-3.83-.36-2.06,1.21-2.2,1.28-3.83,1.5-.2,3.62.22,3.83-1.28-1.96-.5-.19-1.53,1.28,0,2.37,2.25-.55,3.72-1.28,6.38,1.56.14,3.02.38,2.55,2.55h-5.1Z"/><path class="cls-9" d="m47.19,98.21c-5.58-4.68,1.78-10.65,2.55-16.58.99.28,1.48,1.07,1.28,2.55-.07,1.63-1.63,1.77-1.28,3.83,2.29-.16,2.98,1.27,2.55,3.83,2.56,2.6-.56,2.5-1.28,5.1-1.03.24-1.27,1.28-2.55,1.28h-1.28Z"/><path class="cls-5" d="m73.97,80.35c.27,1.54,1.41.79,2.55,0,1.98,4.53-4.33.77-3.83,3.83,1.7,1.27,2.5,3.45,5.1,3.83.22-1.91-.46-4.71,1.28-5.1,1.43.27,1.99,1.42,2.55,2.55-3.43-.88-2.46,2.64-3.83,3.83,4.07-.76,3.94,2.39,6.38,0-1.09,5.91,2.01,1.34,2.55,3.83-.29.99-.04,2.52-1.28,2.55-2-.55-1.09-4.01-5.1-2.55.22-5.38-1.96.02-3.83,0-.36-2.06,1.21-2.2,1.28-3.83-1.48-.21-2.27.28-2.55,1.28-1.38-.32-.86-2.54-2.55-2.55h-1.28c.67-1.03,1.33-2.07,1.28-3.83-2.83-.7-1.82,2.43-3.83,2.55v-3.83c1.89-.66,3.21-1.89,5.1-2.55Z"/><path class="cls-7" d="m131.36,88c3.2.54-1.22,3.64-3.83,2.55.06-2.18-.95-3.3-2.55-3.83,1.91-5.03,5.32,5.45,6.38,1.28Z"/><path class="cls-4" d="m149.22,93.1c.65-3.18-.04-7.69,3.83-7.65-.21,1.48.28,2.27,1.28,2.55-1.14,2.26-5.18,1.62-3.83,6.38h-1.28v-1.28Z"/><path class="cls-2" d="m93.1,86.73c3.17.14,3.95,2.39,6.38,0h1.28c-.88,3.43,2.64,2.46,3.83,3.83.38,2.22-4.95,4.47-3.83,0-1.6.32-1.29,2.54,0,2.55-.31,1.38-2.54.87-2.55,2.55-1.42-.86.25-4.24-3.83-5.1.21-1.48-.28-2.27-1.27-2.55v-1.28Z"/><path class="cls-1" d="m68.87,95.65c3.62-3.08-.75-7.45-3.83-3.83,1.28-1.7,1.21-4.75,3.83-5.1,2.01-.12,1-3.25,3.83-2.55.06,1.76-.6,2.8-1.28,3.83h1.28c-1.07,1.48-1.68,3.42-1.28,6.38.23,1.08-.5,1.2-1.28,1.28h-1.28Z"/><path class="cls-5" d="m89.28,90.55c1.28,0,1.52,1.03,2.55,1.28,2.82-1.84-1.61-3.11,1.28-3.83.99.28,1.48,1.07,1.27,2.55.47,2.17-.99,2.41-2.55,2.55h-1.28c-.99-.28-1.48-1.07-1.28-2.55Z"/><path class="cls-12" d="m72.7,88c1.69.01,1.17,2.24,2.55,2.55.28-.99,1.07-1.48,2.55-1.28-.07,1.63-1.63,1.77-1.28,3.83-1.48-.21-2.27.28-2.55,1.28h-2.55c-.41-2.96.2-4.9,1.28-6.38Z"/><path class="cls-5" d="m24.23,91.83c.84-3.82,2.73,1.22,5.1,0,.6,5.48-3.43,1.63-3.83,3.83-3.99.39,3.24-3.68-1.28-3.83Z"/><path class="cls-5" d="m119.88,90.55c1.69,2.69-.63,3.77,1.28,7.65-.24,1.45-1.28.71-1.28,0-1.36-2.47-4.32-3.33-6.38-5.1,2.91.36,4.79-.31,5.1-2.55h1.28Z"/><path class="cls-7" d="m51.01,96.93c.71-2.6,3.84-2.5,1.28-5.1h5.1c1.91,1.49,3.12,3.68,6.38,3.83,1.03.67,2.07,1.33,3.83,1.28,1.57.56,2.62,1.63,2.55,3.83-3.01-3.12-2.37,1.9-6.38,1.28,2.53-2.68-2.61-4.88-5.1-6.38.23-1.08-.5-1.2-1.28-1.28-4.36-.96-1.62,5.18-6.38,3.83v-1.28Z"/><path class="cls-12" d="m65.04,91.83c3.08-3.62,7.44.75,3.83,3.83-1.08-.23-1.2.5-1.28,1.28-1.76.05-2.8-.6-3.83-1.28-.36-2.06,1.21-2.2,1.28-3.83Z"/><path class="cls-1" d="m76.52,93.1c1.87.02,4.04-5.38,3.83,0-1.69-.62-.08,5.85,1.28,6.38.6,5.25-3.21-1-5.1,2.55,2.91-2.89-.86-5.61-2.55-7.65.28-.99,1.07-1.48,2.55-1.28Z"/><path class="cls-9" d="m94.38,90.55c4.08.86,2.41,4.24,3.83,5.1.02-1.69,2.24-1.17,2.55-2.55-1.29-.01-1.6-2.24,0-2.55-1.12,4.47,4.2,2.22,3.83,0,1.24-.04.99-1.56,1.28-2.55,2.21,1.16,3.3,4.47,1.28,6.38-1.63-.07-1.77-1.63-3.83-1.28-1.65,3.45-2.28,7.92-5.1,10.2-1.19,4.27,4.08,8.54,6.38,5.1h3.83c-.41-2.96.2-4.9,1.28-6.38,1.3.83,1.32,2.93,3.83,2.55v1.28c-2.72-.6-2.43,1.82-2.55,3.83-3.35.9-5.73,2.77-5.1,7.65-1.03.24-1.27,1.28-2.55,1.28.21-1.48-.28-2.27-1.28-2.55-1.36-1.19-.4-4.7-3.83-3.83-1.57-1.42-2.62-1.11-2.55,1.28-3.05,2.9-5.19-2.3-5.1-6.38,1.48.21,2.27-.28,2.55-1.28,1.67,1.53,2.01.5,3.83,0,1.58-4.13-4.13-.98-2.55-5.1v-2.55c.06-2.18-.95-3.3-2.55-3.83v-1.28c1.56-.14,3.02-.38,2.55-2.55Z"/><path class="cls-6" d="m42.09,99.48c-.12-2.01-3.25-1-2.55-3.83,3.62-3.64,1.84,4.64,7.65,2.55h1.28c-1.91,2.97-3.12,1.95-6.38,1.28Z"/><path class="cls-7" d="m80.35,93.1c4.01-1.46,3.1,2,5.1,2.55-.22,3.53,1.96,4.38,3.83,2.55,1.01,4.41-1.42,5.38-2.55,7.65-1.24.03-.99,1.56-1.28,2.55-2.94-2.53-1.42.32-3.83,1.27-.03-1.24-1.56-.99-2.55-1.27,3.73-1.37,4.48-5.72,3.83-11.48-1.24.04-.99,1.56-1.28,2.55-1.35-.53-2.96-6.99-1.28-6.38Z"/><path class="cls-8" d="m90.55,98.21c-1.48-1.89-1.48-3.21,0-5.1h1.28v1.28c1.6.52,2.61,1.64,2.55,3.83h-3.83Z"/><path class="cls-6" d="m144.12,93.1c-1.6.32-1.29,2.54,0,2.55-.04,1.24-1.56.99-2.55,1.28-2.46.52-1.01,4.94-5.1,3.83-.52-3.07,2.33-2.77,1.28-6.38,1.08.23,1.2-.5,1.28-1.28,1.5-.36,5.3-5.62,5.1,0Z"/><path class="cls-7" d="m73.97,94.38c1.69,2.04,5.46,4.77,2.55,7.65-2.54-1.29-4.47-3.19-6.38-5.1v-1.28c.78-.07,1.51-.19,1.28-1.28h2.55Z"/><path class="cls-7" d="m121.16,98.21c1.49-.21,1.08-2.33,1.28-3.83,3.71,2.17-1.13,6.4-2.55,7.65,1.49.21,1.38,2.02,1.28,3.83-2.67.54-3.38-.87-5.1-1.28v-1.28c3.38.41-1.19-7.14,3.83-5.1,0,.71,1.03,1.45,1.28,0Z"/><path class="cls-4" d="m58.67,95.65c2.04,5.02-5.51.44-5.1,3.83-.91,2.07,6.01,2.07,5.1,0,2.84.54,1,6.77,0,7.65-2.17.47-2.41-1-2.55-2.55-5.32,3.99,6.7,3.77,0,6.38,1.08,1.9,4.11,1.85,6.38,2.55-.37.78-3.17,4.91,0,5.1,1.98-1.15.66-4.69,0-5.1,2.82-.55,5.06,2.47,8.93,5.1-.83,1.3-2.93,1.32-2.55,3.83v1.28c-1.03-.88-3.49-1.98-3.83,0-1.86-1.11-4.94-1.01-3.83-5.1-1.03.68-2.07,1.33-3.83,1.28h-3.83v-5.1c-2.06-.36-2.2,1.21-3.83,1.28v-3.83c-.21-1.48.28-2.27,1.28-2.55-.04-1.24-1.56-.99-2.55-1.27,3.8-1.83-3.35-6.65,2.55-6.38-2.68-4.61-4.12,2.54-6.38,2.55-3.41.38,3.39-4.95-2.55-3.83v-1.28c3.26.67,4.46,1.69,6.38-1.28,1.28,0,1.52-1.03,2.55-1.28v1.28c4.76,1.35,2.02-4.78,6.38-3.83.78.07,1.51.19,1.28,1.28Z"/><path class="cls-8" d="m127.54,105.86c-1,.78-2.31-2.77-5.1-2.55,4.45-4.27,4.29-5.24,7.65-10.2.99.29,2.52.04,2.55,1.28-2.13,2.01,1.66,5.86-3.83,6.38.67,1.03,1.33,2.07,1.28,3.83-1.48-.21-2.27.28-2.55,1.28Z"/><path class="cls-5" d="m132.64,100.76c0-3.82,2.29-5.36,5.1-6.38,1.05,3.6-1.8,3.3-1.28,6.38-.93,2.27-2.32.18-3.83,0Z"/><path class="cls-4" d="m136.46,100.76c4.09,1.12,2.64-3.31,5.1-3.83,3.55,1.89-2.7,5.7,2.55,5.1-2.36,2.25.33,3.95,2.55,5.1-1.3,1.67-1.25,4.7-2.55,6.38v1.28c-1.08-.23-1.2.5-1.28,1.28-4.01-.64-5.21,3.01-6.38-1.28,8.59-3.11-9.23-4.77-3.83-8.93,1.85.57-.13,1.12,0,2.55,5.89-.52-2.03-5.58,5.1-2.55-.12-3.28-4.98-1.82-5.1-5.1,1.51.18,2.89,2.27,3.83,0Z"/><path class="cls-3" d="m94.38,100.76c-5.41-3.56.82,3.12-2.55,3.83-4.02-.63-2.48,7.37-5.1,1.28,1.13-2.27,3.56-3.24,2.55-7.65h5.1v2.55Z"/><path class="cls-11" d="m38.26,100.76h3.83c5.94-1.12-.86,4.2,2.55,3.83v1.28c-3.27.13-2.05,4.75-3.83,6.38-1.03-1.1-3.49-.76-3.83-2.55,2.83.7,1.82-2.43,3.83-2.55-.19-2.36-4.32-.78-5.1-2.55.83-1.3,2.93-1.32,2.55-3.83Z"/><path class="cls-9" d="m44.64,104.58c2.26-.01,3.7-7.16,6.38-2.55-5.9-.27,1.25,4.55-2.55,6.38.99.29,2.52.03,2.55,1.27-.99.28-1.48,1.07-1.28,2.55-5.04,3.11.94-1.42-2.55-2.55.21-1.48-.28-2.27-1.28-2.55.23-1.08-.5-1.2-1.28-1.28v-1.28Z"/><path class="cls-2" d="m63.77,103.31c5.62-2.35,5.22,2.04,8.93,0h1.28c2.23,2.6-.95,2.5,1.27,5.1-.78-.37-4.91-3.17-5.1,0-1.24-.04-.99-1.56-1.28-2.55-3.93-.95-2.45,3.5-6.38,2.55-.54-2.67.87-3.38,1.28-5.1Z"/><path class="cls-6" d="m113.51,105.86v-1.28c-2.51.38-2.53-1.72-3.83-2.55.29-.99.03-2.52,1.28-2.55.29.99.03,2.52,1.27,2.55,1.22-2.37-3.82-4.26,0-5.1,2.53.87-.8,7.6,3.83,6.38v1.28c-1.19.72-1.93,3.55-2.55,1.28Z"/><path class="cls-5" d="m81.62,99.48c.29-.99.04-2.52,1.28-2.55.65,5.75-.1,10.11-3.83,11.48.99.29,2.52.03,2.55,1.27-1.09-.23-1.2.5-1.28,1.28v3.83c-2.06-.36-2.2,1.21-3.83,1.28.54-2.66-.87-3.38-1.28-5.1,1.6-.31,1.29-2.54,0-2.55-2.23-2.6.95-2.5-1.27-5.1h-1.28c.14-4.52,4.22,2.71,3.83-1.28,1.9-3.55,5.7,2.7,5.1-2.55Z"/><path class="cls-14" d="m144.12,113.51c1.3-1.67,1.25-4.7,2.55-6.38-2.22-1.15-4.91-2.85-2.55-5.1,1.84.29.44,3.81,2.55,3.83,1.14.57,2.28,1.12,2.55,2.55.06,2.18-.95,3.3-2.55,3.83-1.03.24-1.27,1.28-2.55,1.28Z"/><path class="cls-4" d="m31.88,105.86c1.03.24,1.27,1.28,2.55,1.28-.4,2.68-3.63,7.61,2.55,6.38-.78,1.14-1.54,2.28,0,2.55-.56,6.37-2.69-2.81-6.38-1.28-.45-1.67-2.25-2.01-2.55-3.83-.36-2.06,1.21-2.2,1.28-3.83.78-.07,1.51-.19,1.28-1.28h1.28Z"/><path class="cls-7" d="m44.64,105.86c.78.07,1.51.19,1.28,1.28-1.14,2.68-1.98,5.67-3.83,7.65h-1.28v-2.55c1.78-1.62.56-6.25,3.83-6.38Z"/><path class="cls-10" d="m93.1,105.86c-.28.99-1.07,1.48-2.55,1.28-.09,4.08,2.05,9.28,5.1,6.38.39,2.94-3.68,1.42-3.83,3.83h-2.55c2.82-1.84-1.61-3.11,1.28-3.83-.33-2.65-5.6-.35-6.38-2.55.24-1.03,1.28-1.27,1.28-2.55.29-.99.03-2.52,1.28-2.55,2.62,6.09,1.08-1.91,5.1-1.28-.23,1.08.5,1.2,1.28,1.28Z"/><path class="cls-11" d="m85.45,108.41c0,1.28-1.03,1.52-1.28,2.55.77,2.2,6.05-.1,6.38,2.55-2.88.71,1.55,1.99-1.28,3.83-1.14-.78-2.28-1.54-2.55,0-3.6,1.05-3.3-1.8-6.38-1.28.37-.78,3.17-4.91,0-5.1.07-.78.19-1.51,1.28-1.28,2.41-.96.88-3.81,3.83-1.27Z"/><path class="cls-1" d="m121.16,108.41c-2.62.36-2.54,3.41-3.83,5.1.23,1.08-.5,1.2-1.28,1.28-.03-1.24-1.56-.99-2.55-1.28v-5.1c-1.03.24-1.27,1.28-2.55,1.27.12-2-.17-4.42,2.55-3.83.62,2.27,1.36-.55,2.55-1.28,1.72.4,2.44,1.82,5.1,1.28v2.55Z"/><path class="cls-2" d="m47.19,109.68c-1.9.25-5.12,8.34,0,7.65.36,2.06-1.21,2.2-1.28,3.83-1.48.21-2.27-.28-2.55-1.28-1.19.72-1.93,3.55-2.55,1.28-.21-1.48.28-2.27,1.28-2.55-1.11-3.77-1.91,2.96-5.1,1.28.45-1.67,2.25-2.01,2.55-3.83-.23-1.08.5-1.2,1.28-1.28h1.28c1.84-1.98,2.68-4.97,3.83-7.65.99.28,1.48,1.07,1.28,2.55Z"/><path class="cls-9" d="m63.77,103.31c-.4,1.72-1.82,2.44-1.28,5.1,3.93.95,2.45-3.5,6.38-2.55.29.99.03,2.52,1.28,2.55.19-3.17,4.32-.37,5.1,0,1.29.01,1.6,2.24,0,2.55-2.29-.16-2.69,1.56-5.1,1.28-.98,2.86,5.89,4.07,1.28,6.38-3.87-2.63-6.1-5.65-8.93-5.1.66.41,1.98,3.95,0,5.1-3.17-.19-.37-4.32,0-5.1-2.27-.7-5.3-.65-6.38-2.55,6.7-2.61-5.32-2.39,0-6.38.14,1.56.38,3.02,2.55,2.55,1-.89,2.84-7.12,0-7.65.91,2.07-6.01,2.07-5.1,0-.41-3.38,7.14,1.19,5.1-3.83,2.49,1.49,7.63,3.69,5.1,6.38v1.28Z"/><path class="cls-9" d="m36.99,116.06c-1.54-.27-.78-1.41,0-2.55-6.18,1.24-2.95-3.69-2.55-6.38v-1.28c1.57.56,2.62,1.63,2.55,3.83.33,1.79,2.8,1.45,3.83,2.55v2.55c-.78.07-1.51.19-1.28,1.28h-2.55Z"/><path class="cls-2" d="m105.85,117.34c-.63-4.88,1.75-6.75,5.1-7.65-1.1,1.03-.76,3.49-2.55,3.83.4,1.46,6.05,4.87,5.1,0,.99.29,2.52.04,2.55,1.28-.57,1.14-1.12,2.28-2.55,2.55-1.48-.21-2.27.28-2.55,1.28-1.7-1.61-2.5-3.83-5.1-1.28Z"/><path class="cls-8" d="m76.52,116.06c1.63-.07,1.77-1.63,3.83-1.28v-3.83c3.17.19.37,4.32,0,5.1-1.84.29-.44,3.81-2.55,3.83-.67-1.03-1.33-2.07-1.28-3.83Z"/><path class="cls-3" d="m71.42,118.61c4.61-2.31-2.25-3.52-1.28-6.38,2.41.29,2.81-1.44,5.1-1.28.4,1.72,1.82,2.44,1.28,5.1-.06,1.76.6,2.8,1.28,3.83v7.65c-2.26.29-6.39-1.29-5.1,2.55-6.8-2.5,3.86-7.01-3.83-7.65-.38-2.51,1.72-2.53,2.55-3.83Z"/><path class="cls-7" d="m117.33,113.51c1.28-1.69,1.21-4.75,3.83-5.1,3.46-.91-.91,6.01,2.55,5.1v1.28c-4.58,1.69-6.07,1.31-6.38-1.28Z"/><path class="cls-9" d="m123.71,113.51c.96-3.12,3.81-.27,1.28,1.28,4.69.44,3.86-4.65,5.1-7.65-1.28,0-1.52-1.03-2.55-1.28.28-.99,1.07-1.48,2.55-1.28.06-1.76-.6-2.8-1.28-3.83,5.49-.52,1.69-4.36,3.83-6.38,2.41-.96.89-3.81,3.83-1.28h2.55c-.07.78-.19,1.51-1.28,1.28-2.81,1.02-5.09,2.56-5.1,6.38.12,3.28,4.98,1.82,5.1,5.1-7.13-3.03.78,2.03-5.1,2.55-.13-1.43,1.85-1.99,0-2.55-5.4,4.16,12.41,5.82,3.83,8.93-2.17-.47-2.41,1-2.55,2.55-2.43-2.39-3.2-.14-6.38,0,.31,1.38,2.54.87,2.55,2.55h-5.1c2.56-2.6-.56-2.5-1.28-5.1v-1.28Z"/><path class="cls-14" d="m30.61,114.78c3.69-1.54,5.81,7.65,6.38,1.28h2.55c-.31,1.82-2.1,2.15-2.55,3.83,3.19,1.68,3.99-5.04,5.1-1.28-.99.28-1.48,1.07-1.28,2.55-1.3.83-1.32,2.93-3.83,2.55,0-1.28,1.03-1.52,1.28-2.55-4.14-1.47-7.84,3.9-10.2,0,4.24.88,2.06-2.64,1.28-3.83.24-1.03,1.28-1.27,1.28-2.55Z"/><path class="cls-9" d="m49.74,116.06c1.63-.07,1.77-1.63,3.83-1.28v5.1h3.83c-1.07,1.48-1.68,3.42-1.27,6.38-1.24.04-.99,1.56-1.28,2.55-3.06,3.75-7.48,6.12-8.93,11.48-4.02.62-2.89-3.91-7.65-2.55.27-1.43,1.42-1.99,2.55-2.55,2.6-.8.36-6.44,5.1-5.1.21-1.48-.28-2.27-1.28-2.55-.36-2.06,1.21-2.2,1.28-3.83v-2.55c.07-1.63,1.63-1.77,1.28-3.83.03-1.24,1.56-.99,2.55-1.28Zm-2.55,16.58c-1.98-4.53,4.33-.77,3.83-3.83-2.01-.12-1-3.25-3.83-2.55.43,2.4-2.95,9.3,0,6.38Z"/><path class="cls-2" d="m98.2,112.23c-2.12,2.54.12,1.62,0,5.1,1.81.11,3.61.21,3.83-1.28.99.28,1.48,1.07,1.28,2.55-1.03.24-1.27,1.28-2.55,1.28-.57-1.85-1.12.13-2.55,0-1.48-.21-2.27.28-2.55,1.28-2.41-.14-.88-4.22-3.83-3.83.14-2.41,4.22-.88,3.83-3.83-.07-2.39.98-2.7,2.55-1.28Z"/><path class="cls-5" d="m130.09,119.89c-.02-1.68-2.24-1.17-2.55-2.55,3.17-.14,3.95-2.39,6.38,0,.14-1.56.38-3.02,2.55-2.55,1.17,4.28,2.37.63,6.38,1.28.78,2.81-6.98.87-10.2,2.55-1.03.24-1.27,1.28-2.55,1.28Z"/><path class="cls-2" d="m80.35,116.06c3.07-.52,2.77,2.33,6.38,1.28-.93,1.19-2.32,1.93-3.83,2.55.93,1.19,2.32,1.93,3.83,2.55-1.62,1.92-4.16.31-8.93,0v-2.55c2.11-.02.71-3.54,2.55-3.83Z"/><path class="cls-5" d="m105.85,117.34c2.6-2.56,3.4-.33,5.1,1.28.28-.99,1.07-1.48,2.55-1.28,1.22,2.37-3.82,4.26,0,5.1-.57,1.85-1.12-.13-2.55,0-1.19-.94-1.93-2.32-2.55-3.83-2.38-1.22-4.26,3.82-5.1,0,1.28,0,1.52-1.03,2.55-1.28Z"/><path class="cls-9" d="m132.64,118.61c3.23-1.68,10.98.26,10.2-2.55.07-.78.19-1.51,1.28-1.28,3.08,8.03-7.77,4.75-11.48,5.1v-1.28Z"/><path class="cls-7" d="m40.81,121.16c.62,2.27,1.36-.55,2.55-1.28.28.99,1.07,1.48,2.55,1.28v2.55c-2.89-3-2.79,2.62-6.38,2.55-.02-3.58-3.48,3.04-2.55-2.55,2.51.38,2.53-1.72,3.83-2.55Z"/><path class="cls-6" d="m57.39,119.89c1.76.05,2.8-.6,3.83-1.28-1.11,4.09,1.96,3.99,3.83,5.1-1.44,4.37-8.82-6.41-7.65,2.55h-1.27c-.41-2.96.2-4.9,1.27-6.38Z"/><path class="cls-4" d="m117.33,113.51c.31,2.58,1.79,2.97,6.38,1.28.71,2.6,3.84,2.5,1.28,5.1h3.83c-2.53,1.73-4.96,3.54-3.83,8.93-2.54-2.66-5.45-.04-6.38,2.55v1.28c-1.03-.67-2.07-1.33-3.83-1.28,1.42,1.57,1.11,2.62-1.28,2.55,1.15-3.3-7.2-6.26-6.38-1.28-2.43-.55-3.2-2.75-6.38-2.55,1-4.79,7.89,3.36,6.38-2.55,2.97,1.9,5.49-.43,6.38,1.28,1.71-.84,2.38-2.73,2.55-5.1-4.1-.79-1.75,4.59-5.1,1.28v-2.55c1.43-.13,1.98,1.85,2.55,0-3.82-.84,1.22-2.73,0-5.1,1.43-.27,1.99-1.41,2.55-2.55.78-.07,1.51-.19,1.28-1.28Z"/><path class="cls-4" d="m132.64,119.89c3.71-.35,14.55,2.93,11.48-5.1v-1.28c1.28,0,1.52-1.03,2.55-1.28-1.05,3.6,1.8,3.3,1.28,6.38-2.6.38-3.4,2.55-5.1,3.83-4.87,1.14-8.14-2.08-10.2,0v-2.55Z"/><path class="cls-4" d="m95.65,121.16c.28-.99,1.07-1.48,2.55-1.28-2.41,3.21,2.88,6.83-3.83,6.38.31,2.24,2.19,2.91,5.1,2.55.16,2.29-1.56,2.69-1.28,5.1,2.98-2.56,2.98.56,0,1.28-3.48-.12-2.57,2.12-5.1,0v-1.28c2.53-2.63,2.53-1.2,0-3.83-3.69-3.84,2.22-5.28,2.55-8.93Z"/><path class="cls-9" d="m98.2,135.19c2.98-.71,2.98-3.84,0-1.28-.29-2.41,1.44-2.81,1.28-5.1-2.91.36-4.79-.31-5.1-2.55,6.71.46,1.42-3.17,3.83-6.38,1.43.13,1.99-1.85,2.55,0v2.55c1.48.21,2.27-.28,2.55-1.28,1.73.39,1.06,3.19,1.28,5.1,4-1.44,3.37.37,6.38-1.28,3.35,3.32,1-2.06,5.1-1.28-.18,2.37-.84,4.26-2.55,5.1-.88-1.71-3.4.63-6.38-1.28,1.52,5.91-5.38-2.24-6.38,2.55,3.17-.2,3.95,2,6.38,2.55-.83-4.98,7.52-2.02,6.38,1.28.23,1.08-.5,1.2-1.28,1.28-2.17.47-2.41-1-2.55-2.55-4.16,1.84-3.21,2.85-2.55,7.65-2.67.73-3.64,3.16-7.65,2.55-.7-1.85,1.49-6.59-1.28-6.38v-1.28Zm5.1,5.1c1.47-2.68-.78-4.97,2.55-7.65-4.29-.55-6.56,7.43-2.55,7.65Z"/><path class="cls-9" d="m77.8,122.44c4.77.31,7.3,1.92,8.93,0-1.51-.62-2.89-1.36-3.83-2.55,1.51-.62,2.89-1.36,3.83-2.55.27-1.54,1.42-.78,2.55,0h2.55c2.94-.39,1.42,3.68,3.83,3.83-.33,3.65-6.24,5.09-2.55,8.93h-5.1c.67,1.03,1.33,2.07,1.28,3.83.63,4-4.4,3.37-1.28,6.38-1.24.03-.99,1.56-1.28,2.55-1.03-.68-2.07-1.33-3.83-1.28-1.19.93-1.93,2.32-2.55,3.83h-3.83c-4.66.28-4.89,1.75-8.93,0v-3.83c1.49-.21,1.08-2.33,1.28-3.83,4.12,1.14,1.79-4.16,3.83-5.1-4.99-2.74-8.66-4.56-11.48-1.28-1.24-.04-.99-1.56-1.28-2.55.47-2.17-.99-2.41-2.55-2.55-1.17-8.96,6.21,1.82,7.65-2.55.33-1.98,2.8-.88,3.83,0v-1.28c7.68.65-2.98,5.15,3.83,7.65-1.29-3.84,2.84-2.26,5.1-2.55v-5.1Zm5.1,11.48c.24,1.89,3.08,1.17,5.1,1.28-3.28-5.45-.32-7.69-7.65-7.65v2.55c-1.29,2.54-3.19,4.47-5.1,6.38,2.39.3-.72,2.1,1.28,2.55,3.14-4.2-2.61,3.79,1.28,3.83,2.07-2.18,3.98-4.52,6.38-6.38-1.43-.27-1.99-1.42-2.55-2.55h1.28Z"/><path class="cls-3" d="m103.3,118.61c.84,3.82,2.73-1.22,5.1,0,.62,1.51,1.36,2.89,2.55,3.83v2.55c-3.01,1.64-2.37-.17-6.38,1.28-.22-1.91.46-4.71-1.28-5.1-.28.99-1.07,1.48-2.55,1.28v-2.55c1.28,0,1.52-1.03,2.55-1.28Z"/><path class="cls-4" d="m39.54,126.26c3.59.06,3.49-5.55,6.38-2.55-.07,1.63-1.63,1.77-1.28,3.83-1.81-.11-3.61-.21-3.83,1.28-.99-.28-1.48-1.07-1.28-2.55Z"/><path class="cls-9" d="m65.04,137.74c-10.01-5.19-11.58,7.21-19.13,3.83,1.09.23,1.2-.5,1.28-1.28,4.06-1.89,4.97-6.93,8.93-8.93h1.27c.29,4.39,5.26,4.1,7.65,6.38Z"/><path class="cls-8" d="m47.19,126.26c2.83-.7,1.82,2.43,3.83,2.55.51,3.06-5.81-.71-3.83,3.83-2.95,2.92.43-3.98,0-6.38Z"/><path class="cls-4" d="m68.87,137.74c-1.45-4.12-4.62-7.28-8.93-5.1-.85-2.23-4.4-6.84,0-3.83.29.99.04,2.52,1.28,2.55,2.82-3.29,6.49-1.46,11.48,1.28-2.03.94.29,6.24-3.83,5.1Z"/><path class="cls-5" d="m40.81,128.81c.21-1.49,2.02-1.38,3.83-1.28.99.28,1.48,1.07,1.28,2.55-4.74-1.34-2.5,4.3-5.1,5.1,1.52-3.36-6.13-3.29,0-3.83v-2.55Z"/><path class="cls-4" d="m80.35,130.09v-2.55c7.33-.03,4.37,2.21,7.65,7.65-2.02-.11-4.86.61-5.1-1.28-1.1-1.03-.76-3.49-2.55-3.83Z"/><path class="cls-5" d="m59.94,128.81c-4.4-3.01-.85,1.59,0,3.83,4.31-2.18,7.47.99,8.93,5.1-.2,1.5.22,3.62-1.28,3.83.19-3.5.24-6.58-2.55-3.83-2.4-2.28-7.36-1.99-7.65-6.38h-1.27c.21-1.48-.28-2.27-1.28-2.55.29-.99.03-2.52,1.28-2.55h1.27c1.56.14,3.02.38,2.55,2.55Z"/><path class="cls-4" d="m54.84,128.81c.99.28,1.48,1.07,1.28,2.55-3.96,2-4.87,7.04-8.93,8.93h-1.28c1.45-5.35,5.87-7.73,8.93-11.48Z"/><path class="cls-8" d="m89.28,133.92c.06-1.76-.6-2.8-1.28-3.83h5.1c2.53,2.62,2.53,1.2,0,3.83-1.68,1.53-2.01.5-3.83,0Z"/><path class="cls-8" d="m105.85,132.64c-3.33,2.68-1.09,4.97-2.55,7.65-4.01-.22-1.74-8.2,2.55-7.65Z"/><path class="cls-5" d="m107.13,140.29c-.66-4.8-1.61-5.81,2.55-7.65.14,1.56.38,3.02,2.55,2.55v1.28h-3.83v5.1c-1.08.23-1.2-.5-1.28-1.28Z"/><path class="cls-14" d="m113.51,133.92c2.39.07,2.7-.98,1.28-2.55,1.76-.05,2.8.6,3.83,1.28v-1.28h2.55c-.68,5.87-4.97,1.53-8.93,5.1v-1.28c.78-.07,1.51-.19,1.28-1.28Z"/><path class="cls-2" d="m88,140.29c-3.12-3.01,1.9-2.37,1.28-6.38,1.82.5,2.15,1.53,3.83,0v6.38c-3.48.12-2.57-2.12-5.1,0Z"/><path class="cls-4" d="m76.52,145.39h3.83c.62-1.51,1.36-2.89,2.55-3.83,1.76-.05,2.8.6,3.83,1.28.29-.99.03-2.52,1.28-2.55-.21,1.48.28,2.27,1.28,2.55-.84,1.71-2.73,2.37-5.1,2.55.52,4.31,4.94-3.39,3.83,2.55-3.86,1.75-4.56-.61-10.2,0-.24-1.03-1.28-1.27-1.28-2.55Z"/><path class="cls-2" d="m82.9,133.92h-1.28c.57,1.14,1.12,2.28,2.55,2.55-2.39,1.86-4.3,4.2-6.38,6.38-3.89-.04,1.87-8.02-1.28-3.83-2-.45,1.12-2.25-1.28-2.55,1.92-1.91,3.82-3.84,5.1-6.38,1.79.33,1.45,2.8,2.55,3.83Z"/><path class="cls-9" d="m88,147.94c1.12-5.94-3.31,1.76-3.83-2.55,2.37-.18,4.26-.84,5.1-2.55h2.55c-.52,3.07,2.33,2.77,1.28,6.38-1.03-.67-2.07-1.33-3.83-1.28h-1.28Z"/><path class="cls-5" d="m96.93,144.12c-1.06,3.33,3.86,7,0,8.93-2.17-2.35-6.4-3.42-7.65,0v-5.1c1.76-.05,2.8.6,3.83,1.28,1.05-3.6-1.8-3.3-1.28-6.38h-2.55c-.99-.28-1.48-1.07-1.28-2.55,2.53-2.12,1.62.12,5.1,0v-5.1c2.53,2.12,1.62-.12,5.1,0v1.28c.6,2.72-1.82,2.43-3.83,2.55.55,2,4.01,1.09,2.55,5.1Z"/><path class="cls-4" d="m98.2,136.47c2.77-.22.58,4.52,1.28,6.38,4.01.61,4.99-1.82,7.65-2.55.07.78.19,1.51,1.28,1.28-.02,1.68-2.24,1.17-2.55,2.55-4.66.28-4.89,1.75-8.93,0,1.46-4.01-2-3.1-2.55-5.1,2-.12,4.42.17,3.83-2.55Z"/><path class="cls-2" d="m77.8,147.94c-5.03-1.63-3.09,3.72-6.38,3.83-.4-1.72-1.82-2.44-1.28-5.1-1.79.1-4.88-.29-2.55-1.28,4.04,1.75,4.26.28,8.93,0,0,1.28,1.03,1.52,1.28,2.55Z"/><path class="cls-4" d="m95.65,155.6c-2.17,2.08-6.4,2.11-7.65,5.1-.3-4.01-2.57-12.65-7.65-7.65h-1.28c0-1.28,1.03-1.52,1.28-2.55-1.56-.14-3.02-.38-2.55-2.55,5.65-.61,6.34,1.75,10.2,0h1.28v5.1c-.89,6.52,2.02,1.28,6.38,2.55Z"/><path class="cls-14" d="m89.28,153.05c1.25-3.42,5.48-2.35,7.65,0-1.24.04-.99,1.56-1.28,2.55-4.36-1.27-7.27,3.97-6.38-2.55Z"/><path class="cls-4" d="m145.39,11.48c-1.55-1.85-5.09-1.71-5.1-5.1h-5.1c.93-4.7,3.84.54,6.38-2.55-1.55,4.63,8.52,4.1,3.83,7.65Z"/><path class="cls-10" d="m98.2,25.51c4.01-1.46,3.1,2,5.1,2.55,1.08-.23,1.2.5,1.28,1.28-2.41.96-.88,3.81-3.83,1.28.93-3.48-2.53-2.57-2.55-5.1Z"/><path class="cls-8" d="m67.59,28.06c-1.56-.14-3.02-.38-2.55-2.55,4.51-.69,5.59,2.06,7.65,3.83-.28.99-1.07,1.48-2.55,1.28-1.69-.02-1.17-2.24-2.55-2.55Z"/><path class="cls-8" d="m103.3,28.06c.71-1.84,1.99-3.11,3.83-3.83v5.1c2.62-1.46,6.08,2,2.55,2.55-4.01,1.46-3.1-2-5.1-2.55-.07-.78-.19-1.51-1.28-1.28Z"/><path class="cls-7" d="m51.01,35.71c1.56-1.82,4.87-2.9,6.38-1.28-.31,2.24-2.19,2.91-5.1,2.55-.78-.07-1.51-.19-1.28-1.28Z"/><path class="cls-3" d="m75.25,43.36c-3.17.2-3.95-2-6.38-2.55.07-1.63,1.63-1.77,1.28-3.83,1.28,0,1.52-1.03,2.55-1.28.2,1.5-.22,3.62,1.28,3.83.02-3,3.48.47,2.55,2.55-.78.07-1.51.19-1.28,1.28Z"/><path class="cls-5" d="m146.67,44.64c1.85-.7,6.59,1.49,6.38-1.28-1.43-.27-1.99-1.41-2.55-2.55,2-.12,4.42.17,3.83-2.55h1.28c.92,3.9-2.2,3.75-1.28,7.65-3.38.02-7.51-.71-7.65,2.55-1.28,0-1.52,1.03-2.55,1.28-.93-3.48,2.53-2.57,2.55-5.1Z"/><path class="cls-2" d="m155.59,38.26c6.08-.3,2.25,4.74,1.28,7.65-1.75,2.5-7.81.69-10.2,2.55.14-3.26,4.27-2.53,7.65-2.55-.92-3.9,2.2-3.75,1.28-7.65Z"/><path class="cls-2" d="m57.39,52.29c-2.74-1.94-5.42-3.93-8.93-5.1.06,1.76-.6,2.8-1.28,3.83-5.69-.56-1.9-2.69-3.83-6.38.2-1.5-.22-3.62,1.28-3.83-.32,2.2,2.4,7.55,3.83,3.83.07-.78.19-1.51,1.28-1.28,1.69-.01,1.17-2.24,2.55-2.55,1.17,2.24.44,6.36,2.55,7.65.33-1.79,2.8-1.45,3.83-2.55.5,2.19-1.89,3.27,0,3.83.71-2.65,1.99-2.7,3.83-1.28,1.98,4.53-4.33.77-3.83,3.83h-1.28Z"/><path class="cls-11" d="m75.25,49.74c-1.72.4-2.44,1.82-5.1,1.28-.5-1.82-1.53-2.15,0-3.83,2.26.29,6.39-1.29,5.1,2.55Z"/><path class="cls-9" d="m36.99,48.47c.07,1.63,1.63,1.77,1.28,3.83-1.76-.05-2.8.6-3.83,1.28,1.05-3.6-1.8-3.3-1.28-6.38,1.76-.05,2.8.6,3.83,1.28Z"/><path class="cls-14" d="m80.35,65.05c-.21,1.49-2.02,1.38-3.83,1.28-4.5-.38,5.4-2.55,0-3.83-2.47.51-1.86-5.81,1.28-3.83.55,2.43,2.75,3.2,2.55,6.38Z"/><path class="cls-1" d="m99.48,70.15c-.35,2.62-4.75,1.2-5.1,3.83h-3.83c-.02-2.11-3.54-.71-3.83-2.55.88-2.52,7.12.31,7.65-2.55,1.72.4,2.44,1.82,5.1,1.28Z"/><path class="cls-5" d="m147.94,65.05c-1.46,5.29,2.68,4.97,2.55,8.93-3.44-1.66-6.1-4.11-6.38-8.93.99-.28,1.48-1.07,1.28-2.55,1.28,0,1.52,1.03,2.55,1.28v1.28Z"/><path class="cls-9" d="m52.29,76.52c1.89-.24,1.17-3.08,1.28-5.1,5.4-2.01,4.55,5.29,1.28,5.1-.78.07-1.51.19-1.28,1.28-.78-.07-1.51-.19-1.28-1.28Z"/><path class="cls-9" d="m105.85,76.52c-3.07-.52-2.77,2.33-6.38,1.28v-3.83h6.38v2.55Z"/><path class="cls-2" d="m159.42,81.63c-.45,1.79-2.25.11-2.55-1.28-1.72,1.25-2.55,3.4-3.83,5.1-3.87-.04-3.18,4.48-3.83,7.65h-1.27c-.92-3.9,2.2-3.75,1.27-7.65,3.93-.32,3.91-4.59,6.38-6.38,2.51-.38,2.53,1.72,3.83,2.55Z"/><path class="cls-4" d="m58.67,85.45h1.28c-.4-5.98,5.9-3.41,6.38,0-.12,5.4-5.15,5.93-7.65,2.55v-2.55Z"/><path class="cls-11" d="m95.65,81.63c.02,2.54,3.48,1.62,2.55,5.1-.78-1.77-4.91-.19-5.1-2.55.29-.99.03-2.52,1.27-2.55h1.28Z"/><path class="cls-11" d="m102.03,85.45c1.63.07,1.77,1.63,3.83,1.28v1.28c-.29.99-.04,2.52-1.28,2.55-1.19-1.36-4.7-.4-3.83-3.83h-1.28v-1.28h2.55Z"/><path class="cls-3" d="m105.85,86.73c.24-1.89,3.08-1.17,5.1-1.28-1.96,2.95.5,11.23-3.83,8.93,2.02-1.91.94-5.22-1.28-6.38v-1.28Z"/><path class="cls-5" d="m146.67,85.45c1.21,4.61-5.02,1.78-7.65,2.55-.5,2.19,1.89,3.27,0,3.83-.99-.29-2.52-.04-2.55-1.28,1.59-3.45,3.12-4.97,5.1-5.1h5.1Z"/><path class="cls-8" d="m33.16,89.28c-1.64,6.32,4.6,4.75,5.1,8.93-1.14-.79-2.28-1.54-2.55,0-1.84-.71-3.11-1.99-3.83-3.83.22-1.91-.46-4.71,1.28-5.1Z"/><path class="cls-2" d="m121.16,98.21c-1.9-3.88.42-4.96-1.28-7.65,1.63-.07,1.77-1.63,3.83-1.28-.4,1.72-1.82,2.44-1.28,5.1-.2,1.5.22,3.62-1.28,3.83Z"/><path class="cls-1" d="m63.77,95.65c-3.26-.14-4.46-2.34-6.38-3.83,4.52-.14-2.71-4.22,1.28-3.83,2.5,3.38,7.53,2.85,7.65-2.55,1.28,0,1.52-1.03,2.55-1.28v2.55c-2.62.36-2.55,3.41-3.83,5.1-.07,1.63-1.63,1.77-1.28,3.83Z"/><path class="cls-11" d="m149.22,94.38c-4.64-.11-6.56,6.32-2.55,7.65v3.83c-2.11-.02-.71-3.54-2.55-3.83-5.25.6,1-3.21-2.55-5.1.99-.29,2.52-.04,2.55-1.28-1.29-.01-1.6-2.24,0-2.55h5.1v1.28Z"/><path class="cls-5" d="m17.86,102.03c-4.74,1.34-2.5-4.3-5.1-5.1-.28.99-1.07,1.48-2.55,1.28.5-1.82,1.53-2.15,0-3.83.99-.29,2.52-.04,2.55-1.28h1.28v1.28c5.59.59,2.66,4.86,6.38,5.1-.31,1.38-2.54.87-2.55,2.55Z"/><path class="cls-2" d="m20.41,99.48c.99.29,2.52.03,2.55,1.28,2.96.41,4.9-.21,6.38-1.28,1.3,1.67,1.25,4.7,2.55,6.38h-1.28c-5.27-4.67-7.4-2.02-12.75-3.83.01-1.69,2.24-1.17,2.55-2.55Z"/><path class="cls-2" d="m29.33,99.48c2.51.38,2.53-1.72,3.83-2.55,1.42,2.53-.27,5.61,2.55,1.28.27-1.54,1.41-.79,2.55,0v2.55c.38,2.51-1.72,2.53-2.55,3.83.78,1.77,4.91.19,5.1,2.55-2.01.12-1,3.25-3.83,2.55.07-2.19-.98-3.27-2.55-3.83v1.28c-1.28,0-1.52-1.03-2.55-1.28-1.3-1.68-1.25-4.7-2.55-6.38Z"/><path class="cls-3" d="m63.77,102.03c4,.63,3.37-4.4,6.38-1.28.07-2.19-.98-3.27-2.55-3.83.07-.78.19-1.51,1.28-1.28h1.28v1.28c1.91,1.92,3.84,3.82,6.38,5.1.39,3.99-3.68-3.24-3.83,1.28-3.7,2.04-3.31-2.35-8.93,0v-1.28Z"/><path class="cls-8" d="m94.38,100.76c-1.58,4.13,4.13.97,2.55,5.1-1.82.5-2.15,1.53-3.83,0-.78-.07-1.51-.19-1.28-1.28,3.37-.71-2.85-7.39,2.55-3.83Z"/><path class="cls-5" d="m98.2,103.31c4.16-.34,2.7,4.95,6.38,5.1-2.29,3.43-7.57-.83-6.38-5.1Z"/><path class="cls-7" d="m47.19,109.68c3.5,1.13-2.49,5.66,2.55,2.55v3.83c-.99.29-2.52.04-2.55,1.28-5.12.69-1.9-7.4,0-7.65Z"/><path class="cls-10" d="m102.03,116.06c-.21,1.49-2.02,1.39-3.83,1.28.12-3.48-2.12-2.57,0-5.1,3.43-.88,2.46,2.64,3.83,3.83Z"/><path class="cls-2" d="m30.61,114.78c0,1.28-1.03,1.52-1.28,2.55-2.95-1.3-2.64-5.86-2.55-10.2h2.55c-.07,1.63-1.63,1.77-1.28,3.83.31,1.82,2.1,2.15,2.55,3.83Z"/><path class="cls-2" d="m132.64,122.44c-1.85.7-6.59-1.49-6.38,1.28,1.71.88-.63,3.4,1.28,6.38-3.07-.52-2.77,2.33-6.38,1.28h-2.55c.93-2.59,3.84-5.21,6.38-2.55-1.13-5.39,1.3-7.2,3.83-8.93h1.28c1.28,0,1.52-1.03,2.55-1.28v3.83Z"/><path class="cls-2" d="m45.91,141.57c-4.51.68-6.57-1.08-7.65-3.83,4.76-1.36,3.64,3.17,7.65,2.55h1.28c-.07.78-.19,1.51-1.28,1.28Z"/><path class="cls-11" d="m105.85,144.12c-.13,3.27-4.75,2.05-6.38,3.83-.03,3.8.12,7.77-3.83,7.65.29-.99.04-2.52,1.28-2.55,3.86-1.93-1.06-5.6,0-8.93,4.04,1.75,4.26.28,8.93,0Z"/><path class="cls-10" d="m39.54,71.42c1.82-.31,2.15-2.1,3.83-2.55,1.79.33,1.45,2.8,2.55,3.83-1.56.14-3.02.38-2.55,2.55-.07.78-.19,1.51-1.28,1.28.14-5.23-6.64.97-2.55-5.1Z"/></g></g></svg>