<?xml version="1.0" encoding="UTF-8"?><svg id="Layer_2" xmlns="http://www.w3.org/2000/svg" viewBox="0 0 167.62 197.92"><defs><style>.cls-1{fill:#58331c;}.cls-1,.cls-2,.cls-3,.cls-4,.cls-5,.cls-6{fill-rule:evenodd;}.cls-2{fill:#7a4b25;}.cls-3{fill:#432615;}.cls-4{fill:#d2d2d2;}.cls-5{fill:#935a2c;}.cls-6{fill:#694021;}</style></defs><g id="Layer_3"><g><path class="cls-5" d="m155.09,92.27c1.01-2.47,2.23-4.74,4.18-6.27,1.42,7.1,6.94,2.05,8.36-2.09-1.63-.46-2.43-1.75-2.09-4.18-5.03-.85-4.54,3.82-10.44,2.09.36-3.12-.75-7.71,2.09-8.36,3.95-.47,4.61,2.35,8.36,2.09.84-9.89-5.35-12.75-10.44-16.71-3.92,3.98,1.24,3.78,0,10.44-6.69.43-3.41-9.12-10.44-8.35v-2.09c1.78.38,1.97-.81,2.09-2.09h4.18v-6.27c1.27-.12,2.47-.31,2.09-2.09,4.19-9.01-8.94-12.45-6.27-2.09-2.98-.5-3.52-3.44-6.27-4.18.97-4.46-2.98-3.98-6.27-4.18v-2.09h-2.09c-3.09-.39-1.91-5.05-2.09-8.35,4.15-3.48,2.66.19,8.36,0v-6.27c-5.23-5.26-8.2,2.4-14.62,2.09,0-2.1-1.69-2.49-2.09-4.18,2.42-3.09,2.42-5.26,0-8.35-2.46.33-5.93-.36-6.26,2.09-2.1,0-2.49,1.69-4.18,2.09h-2.09c-1.36-2.12-4.8-2.16-4.18-6.27,1.15-4.63-3.99-2.97-4.18-6.27-2.46-.33-5.93.36-6.27-2.09-5.43-1.25-7.52.84-6.27,6.27h8.35c.4,1.69,2.1,2.08,2.09,4.18-5.78,4.93-11.18-1.88-18.8,2.09.2-3.28-.28-7.24,4.18-6.27V.37c-9.29-1.63-12.54,2.78-20.89,2.09.66,4.84-.34,8.02-2.09,10.44-2.98.5-3.52,3.44-6.27,4.18-3.98,3.91-5.25.23-10.44,0-2.23,1.95-.65,7.71-6.27,6.27-.21-5.32-7.78-4.94-10.44-2.09.33,2.46-.36,5.93,2.09,6.27h2.09c.66,2.82,2.97,3.99,2.09,8.35h-8.35v-8.35c-6.56-.99-8.54,2.6-10.44,6.27,1.28,2.9,8.04.31,8.36,4.18,1.64,7.17-1.95,10.77-6.27,6.27.27-3.75-2.08-4.89-6.27-4.18,1.13,9,5.54,6.77,2.09,16.71v2.09c8.65-2.94,10.86,11.23,6.27,14.62-10.62-1.56-16.02,2.08-18.8,8.36,2.68,3.59,12.49.04,12.53,6.27.64,4.82-6.04,2.32-6.27,6.27-2.39,8.66,4.39,8.14,4.18,14.62,1.95,2.23,7.7.65,6.27,6.27v2.09h-2.09c-3.94,9.51-11.07,18.28,6.27,18.8,3.95-.47,4.61,2.35,8.35,2.09v-2.09c3.28.2,7.24-.28,6.27,4.18,3.32,10.28-10.79,3.13-8.35,12.53,9.8.64,10.31,10.57,20.89,10.44.36-3.12-.75-7.71,2.09-8.36,2.83.66,3.99,2.97,8.36,2.09,3.95-.93,12.59,2.84,10.44-4.18-.46-1.63-1.75-2.43-4.18-2.09-1.87-7.29,6.81-3.57,8.35-2.09-.63,5.51,4.36,5.39,8.36,6.27v4.18c.47,3.95-2.35,4.61-2.09,8.36,3.39,3.14,15.41,3.14,18.8,0,.09-2.87-.98-4.59-2.09-6.27h-2.09c5.32-3.11,11.99-15.75,20.89-8.36-.23,5.2-3.92,6.47,0,10.44,7.53-.53,14.94-8.6,10.44-14.62-3.9-7.25,1.06-11.05,4.18-16.71h8.36c.21,5.36,7.78,3.36,10.44,6.27-.47-3.95,2.35-4.61,2.09-8.35-6.71,1.83-4.33-5.42-8.36-6.27h-2.09c-1.21-7.48,6.18-6.35,12.53-6.27v-10.44c4.9-5.09,4.67,2.33,8.35,4.18.46-1.63,1.75-2.43,4.18-2.09,2.55-11.6-12.43-5.68-10.44-16.71Zm-83.77,2.13l.03.22-.03-.22Zm.22-2.13c.28-.12.54-.19.8-.25-.26.06-.53.13-.8.25Zm.97-.29c.25-.04.5-.07.74-.06-.24,0-.49.02-.74.06Zm.84-.06c.22.01.44.04.65.09-.21-.05-.43-.08-.65-.09Zm.78.12c.23.06.46.14.68.24-.22-.1-.45-.18-.68-.24Zm.8.29c.21.1.42.21.63.34-.21-.13-.42-.24-.63-.34Zm.68.37c.22.14.44.3.66.46-.22-.17-.44-.32-.66-.46Zm.77.55c.44.35.88.73,1.31,1.14-.43-.41-.87-.8-1.31-1.14Zm1.3,1.19c-.1.07-.21.14-.33.21.12-.07.23-.15.33-.21Zm-.52.33c-.09.06-.19.12-.29.18.1-.06.2-.12.29-.18Zm-.55.33c-.09.05-.18.1-.27.16.09-.05.18-.1.27-.16Zm-.59.33l-.25.13.25-.13Zm-.61.31l-.24.11.24-.11Zm-.62.27l-.22.09.22-.09Zm-.62.21l-.19.06.19-.06Zm-.59.14l-.18.03.18-.03Zm-.55.05h-.16s.16,0,.16,0Zm-.5-.07l-.14-.03.14.03Zm-.43-.19l-.12-.07.12.07Zm-.35-.34l-.09-.12.09.12Zm-.25-.51l-.06-.17.06.17Zm-.14-1.62v-.24s0,.24,0,.24Zm6.46.83c.43.4.85.82,1.28,1.22-.43-.4-.86-.81-1.28-1.22h0Zm8.36,8.2c-.08-.13-.19-.25-.31-.35.13.1.23.22.31.35Zm-.53-4.71l.27-.1-.27.1Zm.74-.32c.09-.04.18-.09.28-.14-.09.05-.19.1-.28.14Zm.81-.46l.25-.16-.25.16Zm-2.03.92l-.22.06.22-.06Zm-.84.14h-.05s.05,0,.05,0Zm-.68,0l-.21-.03.21.03Zm-.62-.1l-.24-.06.24.06Zm-.6-.18l-.23-.09.23.09Zm-.58-.25l-.21-.11.21.11Zm-.62-.35l-.2-.13.2.13Zm-.65-.44l-.24-.18.24.18Zm-.51-.4l-.26-.22.26.22Zm-.5-.43c-.1-.09-.19-.17-.28-.26.09.09.19.17.28.26Zm-1.74-1.58c-.2,7.27,5.28,6.45,7.57,7.51-2.29-1.06-7.77-.24-7.57-7.51Zm7.95,7.74c-.11-.08-.22-.15-.34-.21.13.06.24.14.34.21Z"/><path class="cls-5" d="m2.61,102.71c-3.41-.37-4.22,13.66,2.09,10.44.46-1.63,1.75-2.43,4.18-2.09-2.1-2.78-1.98-7.77-6.27-8.35Z"/><path class="cls-4" d="m155.09,120.38c1.01-2.47,2.23-4.74,4.18-6.27,1.42,7.1,6.94,2.05,8.36-2.09-1.63-.46-2.43-1.75-2.09-4.18-5.03-.86-4.54,3.81-10.44,2.09.36-3.12-.75-7.71,2.09-8.35,3.95-.47,4.61,2.35,8.36,2.09.84-9.89-5.35-12.75-10.44-16.71-3.92,3.98,1.24,3.78,0,10.44-6.69.43-3.41-9.12-10.44-8.35v-2.09c1.78.38,1.97-.82,2.09-2.09h4.18v-6.27c1.27-.12,2.47-.31,2.09-2.09,4.19-9.01-8.94-12.45-6.27-2.09-2.98-.5-3.52-3.44-6.27-4.18.97-4.46-2.98-3.98-6.27-4.18v-2.09h-2.09c-3.09-.39-1.91-5.05-2.09-8.35,4.15-3.48,2.66.19,8.36,0v-6.27c-5.23-5.26-8.2,2.4-14.62,2.09,0-2.09-1.69-2.48-2.09-4.18,2.42-3.09,2.42-5.27,0-8.36-2.46.33-5.93-.36-6.26,2.09-2.1,0-2.49,1.69-4.18,2.09h-2.09c-1.36-2.12-4.8-2.16-4.18-6.27,1.15-4.63-3.99-2.97-4.18-6.27-2.46-.33-5.93.36-6.27-2.09-5.43-1.25-7.52.84-6.27,6.27h8.35c.4,1.69,2.1,2.08,2.09,4.18-5.78,4.93-11.18-1.88-18.8,2.09.2-3.28-.28-7.24,4.18-6.27v-6.27c-9.29-1.64-12.54,2.78-20.89,2.09.66,4.84-.34,8.02-2.09,10.44-2.98.5-3.52,3.44-6.27,4.18-3.98,3.91-5.25.23-10.44,0-2.23,1.95-.65,7.71-6.27,6.27-.21-5.31-7.78-4.94-10.44-2.09.33,2.46-.36,5.93,2.09,6.27h2.09c.66,2.82,2.97,3.99,2.09,8.35h-8.35v-8.35c-6.56-.99-8.54,2.61-10.44,6.27,1.28,2.9,8.04.31,8.36,4.18,1.64,7.17-1.95,10.77-6.27,6.27.27-3.75-2.08-4.89-6.27-4.18,1.13,9,5.54,6.77,2.09,16.71v2.09c8.65-2.94,10.86,11.23,6.27,14.62-10.62-1.56-16.02,2.08-18.8,8.35,2.68,3.59,12.49.04,12.53,6.27.64,4.82-6.04,2.32-6.27,6.27-2.39,8.66,4.39,8.14,4.18,14.62,1.95,2.23,7.7.65,6.27,6.27v2.09h-2.09c-3.94,9.51-11.07,18.28,6.27,18.8,3.95-.47,4.61,2.35,8.35,2.09v-2.09c3.28.2,7.24-.28,6.27,4.18,3.32,10.28-10.79,3.13-8.35,12.53,9.8.64,10.31,10.57,20.89,10.44.36-3.12-.75-7.71,2.09-8.35,2.83.66,3.99,2.97,8.36,2.09,3.95-.93,12.59,2.84,10.44-4.18-.46-1.63-1.75-2.43-4.18-2.09-1.87-7.29,6.81-3.57,8.35-2.09-.63,5.51,4.36,5.39,8.36,6.27v4.18c.47,3.95-2.35,4.61-2.09,8.35,3.39,3.14,15.41,3.14,18.8,0,.09-2.87-.98-4.59-2.09-6.27h-2.09c5.32-3.11,11.99-15.75,20.89-8.35-.23,5.2-3.92,6.47,0,10.44,7.53-.53,14.94-8.6,10.44-14.62-3.9-7.25,1.06-11.05,4.18-16.71h8.36c.21,5.36,7.78,3.36,10.44,6.27-.47-3.95,2.35-4.61,2.09-8.35-6.71,1.83-4.33-5.42-8.36-6.27h-2.09c-1.21-7.48,6.18-6.35,12.53-6.27v-10.44c4.9-5.09,4.67,2.33,8.35,4.18.46-1.63,1.75-2.43,4.18-2.09,2.55-11.6-12.43-5.68-10.44-16.71Zm-83.77,2.13l.03.22-.03-.22Zm.22-2.13c.28-.12.54-.19.8-.25-.26.06-.53.13-.8.25Zm.97-.29c.25-.04.5-.07.74-.06-.24,0-.49.02-.74.06Zm.84-.05c.22.01.44.04.65.09-.21-.05-.43-.08-.65-.09Zm.78.12c.23.06.46.14.68.24-.22-.1-.45-.18-.68-.24Zm.8.29c.21.1.42.21.63.34-.21-.13-.42-.24-.63-.34Zm.68.37c.22.14.44.3.66.46-.22-.17-.44-.32-.66-.46Zm.77.55c.44.35.88.73,1.31,1.14-.43-.41-.87-.8-1.31-1.14Zm1.3,1.19c-.1.07-.21.14-.33.21.12-.07.23-.15.33-.21Zm-.52.33c-.09.06-.19.12-.29.18.1-.06.2-.12.29-.18Zm-.55.33c-.09.05-.18.1-.27.16.09-.05.18-.1.27-.16Zm-.59.33l-.25.13.25-.13Zm-.61.31l-.24.11.24-.11Zm-.62.27l-.22.09.22-.09Zm-.62.21l-.19.06.19-.06Zm-.59.14l-.18.03.18-.03Zm-.55.04h-.16s.16,0,.16,0Zm-.5-.06l-.14-.03.14.03Zm-.43-.19l-.12-.07.12.07Zm-.35-.34l-.09-.12.09.12Zm-.25-.51l-.06-.17.06.17Zm-.14-1.62c0-.09,0-.15.01-.24,0,.09,0,.16-.01.24Zm6.46.82c.43.4.85.82,1.28,1.22-.43-.4-.86-.81-1.28-1.22h0Zm8.36,8.2c-.08-.13-.19-.25-.31-.35.13.1.23.22.31.35Zm-.53-4.71l.27-.1-.27.1Zm.74-.32c.09-.04.18-.09.28-.14-.09.05-.19.1-.28.14Zm.81-.46l.25-.16-.25.16Zm-2.03.92l-.22.06.22-.06Zm-.84.14h-.05s.05,0,.05,0Zm-.68,0l-.21-.03.21.03Zm-.62-.1l-.24-.06.24.06Zm-.6-.18l-.23-.09.23.09Zm-.58-.25l-.21-.1.21.1Zm-.62-.34l-.2-.13.2.13Zm-.65-.44l-.24-.19.24.19Zm-.51-.4l-.26-.22.26.22Zm-.5-.43c-.1-.08-.19-.17-.28-.26.09.09.19.17.28.26Zm-1.74-1.58c-.2,7.27,5.28,6.45,7.57,7.51-2.29-1.06-7.77-.24-7.57-7.51Zm7.95,7.74c-.11-.08-.22-.15-.34-.21.13.06.24.14.34.21Z"/><path class="cls-4" d="m2.61,130.82c-3.41-.37-4.22,13.66,2.09,10.44.46-1.63,1.75-2.43,4.18-2.09-2.1-2.78-1.98-7.77-6.27-8.35Z"/><path class="cls-5" d="m92.43,48.41c-3.98.89-3.78,5.97-10.44,4.18-1.46-5.8,9-16.66,10.44-6.27v2.09Z"/><path class="cls-5" d="m96.61,67.21c-5.66,4.85-17.13-2.28-14.62-12.53,3.73,2.54,12.15.38,14.62,4.18.39,5.9-8.22,5.24,0,8.36Z"/><path class="cls-3" d="m27.68,81.83h4.18c1.86,3.71,5.83,5.31,4.18,12.53-3.98-3.92-3.78,1.24-10.44,0,6.66-6.46-.02-3.53,0-12.53h2.09Z"/><path class="cls-5" d="m77.81,83.92c4.85-.67,8.02.34,10.45,2.09v2.09c-2.42,3.09-2.42,5.27,0,8.35-8.41-1.34-15.11-4.38-14.62-14.62,2.1,0,2.49,1.69,4.18,2.09Z"/><path class="cls-3" d="m40.21,119.42c-2.27-.5-5.01-3.44-2.09-4.18-6.56-3.4-9.56-13.58-6.27-20.89,2.77,4.19,9.07,4.86,10.44,10.44-3.09-2.42-5.26-2.42-8.35,0,.54,2.94,4.58,2.38,6.27,4.18.46,1.63,1.75,2.43,4.18,2.09-.9,3.28-6.57,1.79-4.18,8.36Z"/><path class="cls-1" d="m96.61,100.63v2.09c1.01,2.47,2.23,4.73,4.18,6.27-.54,3.25-4.58,1.45-6.27,0-1.63-.46-2.43-1.75-2.09-4.18,1.63-.46,2.43-1.75,2.09-4.18h2.09Z"/><path class="cls-3" d="m130.03,100.63h2.09c.66,2.82,2.97,3.99,2.09,8.35-2.46-.33-5.93.36-6.27-2.09-5.59-.62,5.55,8.1-4.18,6.27.47-3.95-2.35-4.61-2.09-8.36,3.28-.2,7.24.28,6.27-4.18h2.09Z"/><path class="cls-3" d="m71.54,115.25h2.09c1.31,4.26,10.56.59,8.36,8.35-10.45-2.45-17.36.07-25.07-2.09.03-4.15,5.7-2.66,4.18-8.35,4.84-.67,8.02.34,10.44,2.09Z"/><path class="cls-3" d="m115.41,117.34c3.37-.59,3.6,1.97,6.26,2.09-.72,4.85-1.35,9.79-8.35,8.35-1.73-5.9,2.94-5.41,2.09-10.44Z"/><path class="cls-1" d="m96.61,144.49v2.09c7.43,3.25,1.26-7.09,6.27-6.27,6.92,9.73-7.55,8.8-14.62,6.27.58-4.84,5.58-4.8,8.35-2.09Z"/><path class="cls-6" d="m109.14,21.25c-6.44-.52-6.4-7.52-10.44-10.44,0-2.09-1.69-2.49-2.09-4.18,3.95-.47,4.61,2.35,8.36,2.09-.62,4.11,2.82,4.14,4.18,6.27h2.09c.09,2.87-.98,4.59-2.09,6.27Z"/><path class="cls-2" d="m130.03,27.52c-1.81-6.17-3.12,4.85-8.35,2.09.33-5.91-6.27-4.87-6.26-10.44-2.88-.09-4.59.98-6.27,2.09,1.11-1.68,2.18-3.39,2.09-6.27,1.69-.4,2.08-2.1,4.18-2.09,1.17,3.01,3.26,5.1,6.26,6.27.4,1.69,2.1,2.08,2.09,4.18,6.42.31,9.39-7.35,14.62-2.09v6.27c-5.7.19-4.21-3.48-8.36,0Z"/><path class="cls-1" d="m61.1,12.9c3.28.2,7.24-.28,6.27,4.18-2.03.06-1.62,2.56-2.09,4.18-7.11-3.66-7.78.68-10.44,6.27-1.69-.4-2.08-2.1-4.18-2.09-8.17-3.3-4.32,5.42-8.36,6.27h-4.18c.68-9.76,16.2-4.69,16.71-14.62,2.74-.74,3.29-3.68,6.27-4.18Z"/><path class="cls-2" d="m92.43,46.32c-1.45-10.39-11.9.46-10.44,6.27,6.67,1.79,6.46-3.29,10.44-4.18-.38,1.78.81,1.97,2.09,2.09h2.09c.34,3.18,7.72,14.32,0,12.53.65,2.84,5.23,1.73,8.36,2.09-3.76,5.36-10.25,9.23-16.71,6.27-3.55-.77-3.94,1.63-4.18,4.18-1.59,3.28-6.62,3.12-6.27,8.36-1.69-.4-2.08-2.09-4.18-2.09-.49,10.24,6.21,13.28,14.62,14.62-8.04,6.62-10.5-6.84-16.71-4.18-.4-2.37-2.09-1.16-2.09,0-.27-3.02.69-10.04,4.18-14.62-3.02-7.9,5.74-4.01,4.18-10.44-3.91-2.41-11.26,9.54-18.8,10.44-2.9-2.67-1.28-9.86-4.18-12.53.5-5.39,3.59,2.87,8.36,0v2.09c4.96-3.39,3.32-13.39,14.62-10.44-1.1-1.68-2.18-3.39-2.09-6.27-1.95,1.28-7.71,4.86-6.27-2.09-4.92.65-3.89,7.25-10.44,6.27-1.95-5.67,12.89-4.89,4.18-10.44-.89-3.46,7.79.19,8.35,2.09,11.51-7.54-2.08-19.96-6.27-25.06.47-1.62.06-4.12,2.09-4.18,1.88-.21,14.38,9.9,18.8,6.27,1.98,10.55,8.93,16.13,16.71,20.89-4.84-.67-8.02.34-10.44,2.09Zm4.18,12.53c-2.47-3.8-10.89-1.64-14.62-4.18-2.51,10.26,8.96,17.38,14.62,12.53-8.22-3.12.39-2.46,0-8.36Z"/><path class="cls-6" d="m65.28,21.25c4.18,5.1,17.77,17.52,6.27,25.06-.57-1.9-9.25-5.55-8.35-2.09,8.71,5.56-6.12,4.77-4.18,10.44,6.56.99,5.52-5.62,10.44-6.27-1.44,6.95,4.32,3.37,6.27,2.09-.09,2.88.98,4.59,2.09,6.27-11.3-2.94-9.66,7.05-14.62,10.44v-2.09c5.72-6.94-7.99-11.34-6.27-4.18-8.22,3.35-.73-9.02-6.27-8.35,7.98,4.56,9.87-10.96,16.71-18.8-3.24,3.02-9.75,2.79-12.53,6.27-6.26-1.37,2-4.47,0-8.36h10.44v-6.27c-2.51,2.36-3.79,5.96-10.44,4.18-1.86-.93-3.74-1.83-4.18-4.18,2.09,0,2.48,1.69,4.18,2.09,2.66-5.59,3.33-9.93,10.44-6.27Z"/><path class="cls-6" d="m54.83,17.08c-.51,9.93-16.03,4.86-16.71,14.62-2.63-.52-2.11-4.15,0-4.18-.91-3.1-2.67.82-6.27,0h-2.09c1.37-2.8,4.46-3.89,8.35-4.18,5.62,1.44,4.04-4.32,6.27-6.27,5.2.23,6.47,3.91,10.44,0Z"/><path class="cls-2" d="m38.12,31.7h4.18c4.03-.84.18-9.57,8.36-6.27.44,2.34,2.32,3.25,4.18,4.18-.5,3.67-3.59,4.76-8.36,4.18,2.92,8.85,4.63,22.46-4.18,31.33-2.43.34-3.72-.46-4.18-2.09-3.67.5-4.76,3.59-4.18,8.36h-2.09c-5.48-7,8.33-8.68,10.44-14.62.32-5.9-5.91-5.24-8.35-8.36,3.04-4.62,9.37-5.94,12.53-10.44-.86-2.63-2.69-4.27-6.27-4.18-1.27-.12-2.47-.31-2.09-2.09Z"/><path class="cls-2" d="m19.32,50.5c4.72.85-1.1,12.24,8.36,8.35,1.56-6.43-5.73-4.01-4.18-10.44,1.62-.47,4.12-.06,4.18-2.09,11.73,7.3-12.94,27.26,4.18,27.15-.59,3.37,1.97,3.6,2.09,6.27-1.78-.38-1.97.82-2.09,2.09h-4.18c-1.37-6.26-4.46,2-8.36,0v16.71c-3.37.59-3.6-1.97-6.27-2.09v10.44c10.92-9.45,19.92-15.08,8.35,2.09.59,3.37-1.97,3.6-2.09,6.27h-2.09c1.44-5.62-4.32-4.04-6.27-6.27.22-6.48-6.57-5.96-4.18-14.62.23-3.95,6.91-1.45,6.27-6.27-.04-6.22-9.85-2.68-12.53-6.27,2.78-6.27,8.19-9.92,18.8-8.36,4.6-3.39,2.38-17.56-6.27-14.62v-2.09c5.43,1.25,7.52-.84,6.27-6.27Z"/><path class="cls-6" d="m102.87,35.87c7.96-1.69,6.41,6.12,12.53,6.27-1.9,3.63-7.32,5.4-10.45,2.09,5.23,8.83,14.97,2.67,22.98,10.44-5.67,7.07,2.3,22.65-10.44,25.06,5.34-4.53,3.15-4.87,2.09-12.53-2.57.91-4.29,2.67-4.18,6.27-5.93,1.03-3.01,10.92-12.53,8.36,2.97,6.42.94,9.39-2.09,14.62-3.1-.91.82-2.67,0-6.27-2.12,1.36-2.16,4.8-6.27,4.18-.59,3.37,1.97,3.6,2.09,6.27h-2.09c.34,2.43-.46,3.72-2.09,4.18v-6.27c-4.68,2.28-3.67,10.25-8.36,12.53-.26-3.75,2.56-4.41,2.09-8.35-1.3-2.15-8.73.27-8.36-8.36-1.95,1.28-7.7,4.86-6.27-2.09,6.21-2.66,8.67,10.8,16.71,4.18-2.42-3.09-2.42-5.26,0-8.35,5.9,1.73,5.41-2.94,10.44-2.09-2.84-9.03-1.52-12.71-10.44-12.53v-2.09c6.46,2.97,12.95-.91,16.71-6.27-3.12-.36-7.71.75-8.36-2.09,7.72,1.79.34-9.35,0-12.53h-2.09c.84-5.2,9.57-1.59,6.27,4.18,5.32-.21,4.93-7.78,2.09-10.44,6.26-1.37-2-4.46,0-8.35Zm2.09,16.71c-3.48,4.15.19,2.66,0,8.35,3.95.47,4.61-2.35,8.36-2.09-1.1,5.34-2.77,7.31,2.09,10.44,1.17-4.34,3.26-4.43,6.26-2.09-4.14-5.34,2.17-9.6-2.09-12.53-4.96,8.22-8.48-.47-14.62-2.09Z"/><path class="cls-6" d="m130.03,44.23c.2-3.28-.28-7.24,4.18-6.27,3.28.2,7.24-.28,6.27,4.18.27,3.75-2.07,4.89-6.27,4.18-.74-3.27-3.68,1.83-4.18-2.09Z"/><path class="cls-6" d="m17.24,44.23c.11,2.67,2.68,2.89,2.09,6.27,1.25,5.43-.84,7.52-6.27,6.27,3.46-9.94-.96-7.71-2.09-16.71,4.19-.71,6.54.43,6.27,4.18Z"/><path class="cls-1" d="m92.43,46.32c2.43-1.75,5.6-2.76,10.44-2.09,2.85,2.66,3.23,10.23-2.09,10.44,3.3-5.77-5.42-9.37-6.27-4.18-1.28-.12-2.47-.31-2.09-2.09v-2.09Z"/><path class="cls-2" d="m144.65,58.85c-3.95-.47-4.61,2.35-8.35,2.09.7-4.87,2.14-9,6.27-10.44-2.99,3.06-1.6,6.62,4.18,6.27-.12,1.27-.31,2.47-2.09,2.09Z"/><path class="cls-5" d="m140.47,42.14c2.74.74,3.29,3.68,6.27,4.18-2.67-10.36,10.46-6.92,6.27,2.09.38,1.78-.81,1.97-2.09,2.09-3.37.59-3.6-1.97-6.27-2.09-1.78-.38-1.97.81-2.09,2.09-4.12,1.44-5.57,5.57-6.27,10.44,3.75.27,4.41-2.56,8.35-2.09v2.09c7.04-.77,3.75,8.78,10.44,8.35,1.24-6.66-3.92-6.46,0-10.44,5.1,3.96,11.28,6.82,10.44,16.71-3.75.27-4.41-2.56-8.36-2.09-2.83.65-1.73,5.23-2.09,8.36,5.9,1.73,5.41-2.94,10.44-2.09-.34,2.43.46,3.72,2.09,4.18-1.42,4.14-6.94,9.18-8.36,2.09-1.95,1.53-3.16,3.8-4.18,6.27-1.98,11.03,13,5.11,10.44,16.71-2.43-.34-3.72.46-4.18,2.09-3.68-1.85-3.45-9.27-8.35-4.18-.31-4.66-5.26,2.71-10.44,0,1.24-7.81,7.3-10.8,10.44-16.71.06-3.09-10.51.39-10.44,4.18h-2.09c-1.37-6.26-4.46,2-8.36,0-2.76-5.23,8.26-6.54,2.09-8.35v-2.09c1.86-.93,3.74-1.83,4.18-4.18,2.57.91,4.29,2.67,4.18,6.27,5.11-8.34.93-15.5,4.18-22.98-8.46,1.29-9.55,9.95-16.71,12.53-.05-9.89-1.21-23.37,4.18-29.24,4.19.71,6.54-.43,6.27-4.18Z"/><path class="cls-1" d="m42.3,65.12c8.8-8.87,7.1-22.48,4.18-31.33,4.76.58,7.85-.5,8.36-4.18,6.66,1.78,7.93-1.82,10.44-4.18v6.27h-10.44c2,3.89-6.26,6.98,0,8.36,2.79-3.48,9.29-3.24,12.53-6.27-6.84,7.84-8.73,23.36-16.71,18.8,5.54-.67-1.95,11.7,6.27,8.35-1.72-7.17,11.98-2.76,6.27,4.18-4.76,2.87-7.85-5.39-8.36,0-5.38.5,2.87,3.59,0,8.36-2.43-.34-3.71.46-4.18,2.09-4.84-.58-4.8-5.58-2.09-8.35-2.57.91-4.29,2.67-4.18,6.27-7.33-.57,5.24-7.78-2.09-8.36Z"/><path class="cls-1" d="m142.56,50.5c.12-1.27.31-2.47,2.09-2.09,2.67.11,2.89,2.68,6.27,2.09v6.27h-4.18c-5.78.35-7.17-3.21-4.18-6.27Z"/><path class="cls-2" d="m119.58,54.67c4.25,2.93-2.05,7.2,2.09,12.53-3.01-2.34-5.1-2.25-6.26,2.09-4.86-3.13-3.19-5.11-2.09-10.44-3.75-.27-4.41,2.56-8.36,2.09.19-5.7-3.48-4.2,0-8.35,6.14,1.62,9.66,10.31,14.62,2.09Z"/><path class="cls-6" d="m42.3,65.12c7.33.57-5.24,7.78,2.09,8.36-.11-3.59,1.61-5.35,4.18-6.27-2.71,2.78-2.75,7.77,2.09,8.35.46-1.63,1.75-2.43,4.18-2.09,2.87-4.76-5.38-7.85,0-8.36,2.9,2.67,1.28,9.86,4.18,12.53,7.53-.9,14.88-12.86,18.8-10.44,1.56,6.44-7.2,2.54-4.18,10.44-3.37.59-3.59-1.97-6.26-2.09-2.65,4.14,1.25,8.12-10.44,6.27.66,4.91,9.9,1.24,8.36,8.35-6.48-.71-9.98,4.84-14.62,0-1.36-2.12-4.8-2.16-4.18-6.27,4.34,2.34,4.43,2.25,2.09-2.09h4.18c-5.56-.69-17.2-17.15-16.71,0,0,.33-3.34-.77-2.09-2.09-.12-2.67-2.68-2.89-2.09-6.27v-2.09h2.09c-.58-4.76.5-7.85,4.18-8.36.46,1.63,1.75,2.43,4.18,2.09Z"/><path class="cls-1" d="m33.95,79.74c-1.25,1.31,2.1,2.42,2.09,2.09-.49-17.15,11.15-.69,16.71,0h-4.18c-3.98-3.92-3.78,1.24-10.44,0,3.99,4.17,12.17,31.13,14.62,16.71,4.19,3.47,9.71,5.61,10.44,12.53,5.31-1.08,8.1-3.56,8.35,4.18-2.42-1.75-5.6-2.76-10.44-2.09,1.52,5.7-4.15,4.2-4.18,8.35,7.71,2.16,14.62-.36,25.07,2.09,2.2-7.77-7.04-4.1-8.36-8.35,4.37-.88,5.53,1.43,8.36,2.09v-4.18c-2.23-1.22-6.33-2.12-12.53-4.18,4.18-11.34-3.51-19.03-8.35-8.35,1.43-2.29-5.92-7.84-10.44-2.09-6.26-1.37,2-4.46,0-8.35,4.64,4.84,8.14-.71,14.62,0,1.55-7.12-7.7-3.44-8.36-8.35,11.7,1.86,7.79-2.13,10.44-6.27,2.67.11,2.89,2.68,6.26,2.09-3.49,4.58-4.45,11.6-4.18,14.62,0-1.16,1.69-2.37,2.09,0-1.44,6.95,4.32,3.37,6.27,2.09-.37,8.63,7.06,6.21,8.36,8.36.47,3.95-2.35,4.61-2.09,8.35-.59,8.48.76,4.71,6.27,4.18,7.66,6.78-8.87,6.63-2.09,12.53-11.46.41-7.62,6.61-10.45,12.53,3.56.77,3.94-1.63,4.18-4.18,2.82.66,3.99,2.97,8.36,2.09.25,8.32-10.16,5.9-14.62,4.18v-4.18c-3.31,1.07-14.18,5.05-10.44,6.27-2.48,5-9.05-3.29-12.53-4.18-.88-4.37,1.43-5.53,2.09-8.35,1.66,5.31,12.8,1.13,12.53,8.35,5.7-2.65,8.33-8.38,12.53-12.53-1.73-4.24-7.32,5.02-10.44,6.27-5.69-5.83-4.54-.33-6.27-8.35-4.84-.67-8.02.34-10.44,2.09.11-3.59-1.61-5.35-4.18-6.27,2.32-4.64,8.27-5.66,10.45-10.44-.44-2.34-2.32-3.25-4.18-4.18-3.23,5.03-4.38,8.93-4.18-2.09-2.74,2.13-7.7,2.05-10.44,4.18-1.68-1.8-5.72-1.24-6.27-4.18,3.09-2.42,5.26-2.42,8.35,0-1.37-5.59-7.67-6.26-10.44-10.44-3.29,7.31-.3,17.49,6.27,20.89-2.93.74-.18,3.68,2.09,4.18h2.09v2.09c-3.95-.47-4.61,2.35-8.35,2.09,6.94-11.66-9.87-10.46-12.53-14.62,11.57-17.17,2.56-11.53-8.35-2.09v-10.44c2.67.11,2.89,2.68,6.27,2.09v-16.71c3.89,2,6.98-6.26,8.36,0h-2.09c-.02,9,6.66,6.08,0,12.53,6.66,1.24,6.46-3.92,10.44,0,1.65-7.22-2.32-8.82-4.18-12.53.12-1.27.31-2.47,2.09-2.09Z"/><path class="cls-2" d="m134.2,86c6.17,1.82-4.85,3.13-2.09,8.35,3.89,2,6.98-6.26,8.36,0-6.71-1.83-4.33,5.42-8.36,6.27h-2.09c.03-5.54-1.16-12.3,4.18-12.53v-2.09Z"/><path class="cls-1" d="m115.41,73.47c-.11-3.59,1.61-5.35,4.18-6.27,1.06,7.67,3.25,8-2.09,12.53-2.37-.4-1.16-2.1,0-2.09-.4-1.69-2.1-2.08-2.09-4.18Z"/><path class="cls-2" d="m115.41,73.47c0,2.1,1.69,2.49,2.09,4.18-1.16,0-2.37,1.69,0,2.09,12.74-2.41,4.77-17.99,10.44-25.06-8.01-7.78-17.75-1.62-22.98-10.44,3.13,3.31,8.54,1.54,10.45-2.09-6.12-.14-4.58-7.96-12.53-6.27-3.76,0,2.85-6.6,6.27-6.27v6.27c2.46.33,5.93-.36,6.27,2.09,2.43-.35,2.27-3.3,2.09-6.27,7.53.82.53,16.18,12.53,12.53.5,3.92,3.44-1.19,4.18,2.09-5.39,5.87-4.23,19.35-4.18,29.24,7.16-2.58,8.25-11.24,16.71-12.53-3.25,7.47.93,14.64-4.18,22.98.11-3.59-1.61-5.35-4.18-6.27-.44,2.34-2.32,3.25-4.18,4.18.14-6.12,4.77-7.76,8.35-10.44-2.94-2.2-13.81,1.49-14.62,8.36-3.98-3.91-5.25-.23-10.44,0,.5,3.67,3.59,4.76,8.35,4.18-9.23,2.61-16.73,6.94-16.71,18.8-1.86.93-3.74,1.83-4.18,4.18h-4.18c.11-3.59-1.61-5.35-4.18-6.27v-2.09c-.11-2.67-2.67-2.89-2.09-6.27,4.11.63,4.14-2.82,6.27-4.18.82,3.59-3.1,5.35,0,6.27,3.03-5.23,5.06-8.2,2.09-14.62,9.53,2.56,6.6-7.32,12.53-8.36Z"/><path class="cls-1" d="m84.07,75.56c.24-2.55.62-4.95,4.18-4.18v2.09c8.92-.18,7.61,3.51,10.44,12.53-5.03-.85-4.54,3.81-10.44,2.09v-2.09c-.18-2.96-.34-5.91,2.09-6.27-.91-2.57-2.67-4.29-6.27-4.18Z"/><path class="cls-6" d="m77.81,83.92c-.36-5.23,4.68-5.07,6.27-8.36,3.59-.11,5.36,1.61,6.27,4.18-2.43.35-2.27,3.3-2.09,6.27-2.43-1.75-5.6-2.76-10.45-2.09Z"/><path class="cls-3" d="m52.74,98.54c-2.45,14.42-10.63-12.54-14.62-16.71,6.66,1.24,6.46-3.92,10.44,0,2.34,4.34,2.25,4.43-2.09,2.09-.62,4.11,2.82,4.14,4.18,6.27,2,3.89-6.26,6.98,0,8.35h2.09Z"/><path class="cls-3" d="m109.14,104.8c-.02-11.86,7.48-16.19,16.71-18.8.46-1.63,1.75-2.43,4.18-2.09-2.31,3.95-2.66,9.87-4.18,14.62-3.94-.23-1.45-6.91-6.27-6.27-2.34.44-3.25,2.32-4.18,4.18,0,1.16,1.69,2.37,2.09,0,2.52.44,1.28,2.32,0,4.18-5.49-.62-1.64,8.1-8.36,6.27v-2.09Z"/><path class="cls-6" d="m50.66,98.54c4.52-5.75,11.87-.2,10.44,2.09,4.85-10.68,12.53-2.99,8.35,8.35,6.2,2.06,10.3,2.96,12.53,4.18v4.18c-2.82-.66-3.99-2.97-8.36-2.09h-2.09c-.25-7.74-3.04-5.26-8.35-4.18-.73-6.92-6.26-9.06-10.44-12.53h-2.09Z"/><path class="cls-1" d="m104.96,108.98c.44-2.34,2.32-3.25,4.18-4.18v2.09c6.71,1.84,2.86-6.89,8.36-6.27-3.16,7.99-3.64,18.64-12.53,20.89,5.87-5.66,1.65-5.2,0-12.53Z"/><path class="cls-6" d="m96.61,102.71c2.57.91,4.29,2.67,4.18,6.27h4.18c1.65,7.33,5.87,6.87,0,12.53,8.9-2.24,9.38-12.9,12.53-20.89,1.28-1.86,2.52-3.74,0-4.18-.4,2.37-2.1,1.16-2.09,0,.92-1.86,1.83-3.74,4.18-4.18,4.82-.64,2.32,6.04,6.27,6.27,1.51-4.75,1.86-10.67,4.18-14.62-2.43-.34-3.72.46-4.18,2.09-4.76.58-7.85-.5-8.35-4.18,5.2-.23,6.47-3.91,10.44,0,.82-6.86,11.68-10.55,14.62-8.36-3.58,2.69-8.21,4.32-8.35,10.44v4.18c-5.34.23-4.15,6.99-4.18,12.53h-2.09c.97,4.46-2.98,3.98-6.27,4.18-.26,3.75,2.56,4.41,2.09,8.36v2.09c-7.22-1.66-8.82,2.32-12.53,4.18-2.94,5.98,6.48,11.4-2.09,10.44.31,5.2,7.08.61,8.36,0,.89,5.77-7.79,1.96-8.36,6.27.47,3.01,6.23.73,6.27,4.18,2.14-2.04,4.22-4.13,6.26-6.27,5.87-.39,5.72-6.81,10.44-8.35-9.3.97-6.63-9.99,2.09-12.53v-4.18c.88-4.37-1.43-5.53-2.09-8.35,4.03-.85,1.65-8.1,8.36-6.27h2.09c1.11,1.68,2.18,3.39,2.09,6.27-11.17-1.81-8.74,20.55-4.18,22.98h2.09c-.29,3.89-1.38,6.98-4.18,8.35h-8.36c-3.11,5.66-8.07,9.46-4.18,16.71-5.23-.26-6.54-3.99-8.35,2.09-2.84-.65-1.73-5.23-2.09-8.35-12.52-2.07-9.08,11.81-18.8,12.53-4.35-.61,3.1-5.65-4.18-6.27-5.01-.83,1.16,9.51-6.27,6.27v-10.44c-8.16-.07-.37,10.51-4.18,10.44-3.99-.88-8.99-.76-8.36-6.27,6.53.64-5.31-6.03,2.09-6.27,4.47,1.72,14.87,4.14,14.62-4.18-4.37.88-5.53-1.43-8.36-2.09-1.84-6.71,6.88-2.86,6.27-8.36-6.79-5.9,9.75-5.75,2.09-12.53.74-2.74,3.68-3.29,4.18-6.27,1.69,1.45,5.72,3.25,6.27,0-1.95-1.53-3.16-3.8-4.18-6.27Zm6.27,22.98c2.49-3.52-3.12-11.59-2.09-14.62-3.15,6.6-10.56,8.94-10.44,18.8,6.43,1.56,4.01-5.73,10.44-4.18-.19,3.29-5.33,1.64-4.18,6.27h4.18c-2.66,8.87-3.33,3.52-10.44,2.09-.99,6.56,5.62,5.52,6.26,10.44-2.77-2.71-7.77-2.75-8.35,2.09,7.07,2.54,21.54,3.46,14.62-6.27,5.2-.31.61-7.07,0-8.35,2.88-2.18,6.18-12.23,0-6.27Z"/><path class="cls-6" d="m40.21,108.98c2.75-2.13,7.7-2.05,10.44-4.18-.21,11.02.95,7.12,4.18,2.09,1.86.93,3.74,1.83,4.18,4.18-2.18,4.79-8.12,5.81-10.45,10.44,2.57.91,4.29,2.67,4.18,6.27,1.73,5.9-2.94,5.41-2.09,10.44-4.35-1.22-6.75-4.39-10.44-6.27-6.51,1.84,5.25,14.54-4.18,8.35.98-4.46-2.98-3.98-6.27-4.18,2.34-3.01,2.25-5.1-2.09-6.27.58-4.94,5.58,2.39,8.35,2.09-1.62-1.86-2.25-4.72-2.09-8.35-9.69,5.6-1.11-3.64-2.09-8.35-3.06,1.82-6.62,3.13-6.27,8.35h-2.09c-.29-3.89-1.37-6.98-4.18-8.35.12-2.67,2.68-2.89,2.09-6.27,2.67,4.16,19.47,2.96,12.53,14.62,3.75.27,4.41-2.56,8.35-2.09-.74,2.74-3.68,3.29-4.18,6.27,5.57-5.61,7.65,2.95,10.44,6.27,3.42-5.37-2.13-17.46-6.27-14.62h-2.09c-2.39-6.57,3.28-5.08,4.18-8.36-2.43.34-3.71-.46-4.18-2.09Z"/><path class="cls-2" d="m92.43,104.8c-.34,2.43.46,3.72,2.09,4.18-.5,2.98-3.44,3.52-4.18,6.27-5.5.54-6.86,4.3-6.27-4.18,4.68-2.28,3.67-10.25,8.36-12.53v6.27Z"/><path class="cls-1" d="m123.76,113.16c9.73,1.84-1.41-6.89,4.18-6.27.34,2.45,3.81,1.76,6.27,2.09v4.18c-8.72,2.54-11.39,13.5-2.09,12.53-4.73,1.54-4.57,7.96-10.44,8.35.4-1.69,2.1-2.08,2.09-4.18h-6.27c-1.28.61-8.04,5.2-8.36,0,8.57.96-.85-4.46,2.09-10.44,3.72-1.85,5.31-5.83,12.53-4.18v-2.09Zm-10.44,14.62c7,1.43,7.63-3.5,8.35-8.35-2.67-.11-2.89-2.68-6.26-2.09.85,5.03-3.82,4.54-2.09,10.44Z"/><path class="cls-2" d="m100.78,125.69c-6.43-1.56-4.01,5.73-10.44,4.18-.12-9.86,7.29-12.2,10.44-18.8-1.04,3.03,4.58,11.1,2.09,14.62h-2.09Z"/><path class="cls-2" d="m23.5,123.6h2.09c-.35-5.23,3.21-6.54,6.27-8.35.98,4.71-7.6,13.95,2.09,8.35-.16,3.64.47,6.5,2.09,8.35-2.78.31-7.77-7.02-8.35-2.09-2.46-.33-5.93.36-6.27-2.09,0-2.09,1.69-2.49,2.09-4.18Z"/><path class="cls-3" d="m17.24,117.34v-2.09h2.09c2.8,1.37,3.89,4.46,4.18,8.35-.4,1.69-2.09,2.08-2.09,4.18h-2.09c-1.75-2.42-2.75-5.6-2.09-10.44Z"/><path class="cls-2" d="m42.3,119.42c4.13-2.84,9.69,9.25,6.27,14.62-2.79-3.31-4.87-11.87-10.44-6.27.5-2.98,3.44-3.52,4.18-6.27v-2.09Z"/><path class="cls-2" d="m21.41,136.13c-17.33-.52-10.21-9.29-6.27-18.8h2.09c-.67,4.84.33,8.02,2.09,10.44-.88,4.37,1.43,5.53,2.09,8.36Z"/><path class="cls-1" d="m102.87,125.69c6.18-5.96,2.88,4.09,0,6.27h-6.27c-1.15-4.63,3.99-2.97,4.18-6.27h2.09Z"/><path class="cls-3" d="m81.99,136.13c-.24,2.55-.62,4.94-4.18,4.18,2.82-5.92-1.01-12.13,10.45-12.53.62,5.49-8.1,1.64-6.27,8.36Z"/><path class="cls-3" d="m52.74,127.78c2.42-1.75,5.6-2.75,10.44-2.09,1.73,8.02.58,2.53,6.27,8.35,3.13-1.25,8.72-10.51,10.44-6.27-4.2,4.15-6.83,9.88-12.53,12.53.27-7.23-10.88-3.05-12.53-8.35-.66,2.82-2.97,3.99-2.09,8.35-1.27-.12-2.47-.31-2.09-2.09-.86-5.03,3.81-4.54,2.09-10.44Z"/><path class="cls-2" d="m138.38,131.96c2.8-1.37,3.89-4.47,4.18-8.35,4.02.85,1.65,8.1,8.36,6.27.26,3.75-2.56,4.41-2.09,8.35-2.66-2.91-10.23-.91-10.44-6.27Z"/><path class="cls-2" d="m36.03,140.31c9.43,6.18-2.33-6.52,4.18-8.35,3.69,1.88,6.1,5.04,10.44,6.27-.38,1.78.81,1.97,2.09,2.09,3.48.89,10.05,9.18,12.53,4.18-3.73-1.21,7.13-5.2,10.44-6.27v4.18c-7.4.23,4.44,6.91-2.09,6.27-1.54-1.48-10.22-5.21-8.35,2.09-5.96-6.29-15.27,3.01-6.27,6.27-4.37.88-5.53-1.43-8.36-2.09-2.83.65-1.73,5.23-2.09,8.36-10.57.13-11.08-9.81-20.89-10.44-2.44-9.4,11.67-2.25,8.35-12.53Z"/><path class="cls-3" d="m59.01,157.02c-9-3.26.3-12.56,6.27-6.27,2.43-.34,3.72.46,4.18,2.09,2.15,7.02-6.5,3.25-10.44,4.18Z"/><path class="cls-2" d="m125.85,148.67c4.49,6.02-2.92,14.09-10.44,14.62-3.92-3.98-.23-5.25,0-10.44-8.9-7.4-15.56,5.25-20.89,8.36-5.15.27-10.06.32-12.53-2.09v-4.18c3.8.07-3.98-10.51,4.18-10.44v10.44c7.42,3.25,1.26-7.09,6.27-6.27,7.28.62-.17,5.65,4.18,6.27,9.72-.72,6.28-14.61,18.8-12.53.35,3.12-.75,7.71,2.09,8.35,1.81-6.08,3.13-2.35,8.35-2.09Z"/><path class="cls-6" d="m94.52,161.2h2.09c1.11,1.68,2.18,3.39,2.09,6.27-3.39,3.14-15.41,3.14-18.8,0-.26-3.75,2.56-4.41,2.09-8.36,2.47,2.41,7.38,2.36,12.53,2.09Z"/><path class="cls-5" d="m96.61,6.63h-8.35c-1.25-5.43.84-7.52,6.27-6.27.34,2.45,3.81,1.76,6.27,2.09.19,3.29,5.33,1.63,4.18,6.27-3.75.26-4.41-2.56-8.36-2.09Z"/><path class="cls-5" d="m84.07,6.63c-4.46-.98-3.98,2.98-4.18,6.27,7.62-3.97,13.02,2.84,18.8-2.09,4.04,2.92,4,9.92,10.44,10.44,1.68-1.1,3.39-2.18,6.27-2.09,0,5.58,6.6,4.54,6.26,10.44,5.23,2.76,6.54-8.26,8.35-2.09.17,3.31-1,7.97,2.09,8.35h2.09v2.09c-4.46-.98-3.98,2.98-4.18,6.27-12,3.65-5-11.71-12.53-12.53.18,2.96.34,5.91-2.09,6.27-.34-2.45-3.81-1.76-6.27-2.09v-6.27c-3.42-.33-10.03,6.27-6.27,6.27-2,3.89,6.26,6.98,0,8.35-7.78-4.75-14.73-10.34-16.71-20.89-4.42,3.63-16.92-6.48-18.8-6.27.98-4.46-2.99-3.98-6.27-4.18,1.75-2.42,2.75-5.6,2.09-10.44,8.35.69,11.59-3.72,20.89-2.09v6.27Z"/><path class="cls-5" d="m17.24,44.23c4.31,4.5,7.91.9,6.27-6.27-.31-3.86-7.07-1.28-8.35-4.18,1.91-3.66,3.88-7.26,10.44-6.27v8.35h8.36c.88-4.37-1.43-5.53-2.09-8.35,3.59.82,5.35-3.1,6.27,0-2.11.02-2.63,3.66,0,4.18-.38,1.78.82,1.97,2.09,2.09,3.57-.09,5.41,1.55,6.27,4.18-3.16,4.5-9.5,5.82-12.53,10.44,2.45,3.12,8.68,2.46,8.35,8.36-2.11,5.94-15.92,7.62-10.44,14.62v2.09c-17.12.11,7.55-19.86-4.18-27.15-.06,2.03-2.56,1.62-4.18,2.09-1.56,6.43,5.73,4.01,4.18,10.44-9.46,3.89-3.63-7.51-8.36-8.35.59-3.37-1.97-3.6-2.09-6.27Z"/><path class="cls-2" d="m142.56,94.36c-.07-3.79,10.51-7.27,10.44-4.18-3.14,5.91-9.2,8.9-10.44,16.71,5.18,2.71,10.14-4.66,10.44,0v10.44c-6.35-.08-13.75-1.21-12.53,6.27-4.56-2.43-7-24.79,4.18-22.98.09-2.88-.98-4.59-2.09-6.27Z"/><path class="cls-2" d="m8.88,111.07c-2.43-.34-3.72.46-4.18,2.09-6.3,3.22-5.5-10.81-2.09-10.44,4.29.58,4.17,5.58,6.27,8.35Z"/><path class="cls-2" d="m117.49,129.87h6.27c0,2.09-1.69,2.49-2.09,4.18-2.04,2.14-4.13,4.23-6.26,6.27-.04-3.45-5.79-1.17-6.27-4.18.57-4.31,9.25-.5,8.36-6.27Z"/><path class="cls-2" d="m102.87,140.31c-5.01-.83,1.16,9.51-6.27,6.27v-2.09c-.64-4.93-7.25-3.89-6.26-10.44,7.11,1.43,7.78,6.78,10.44-2.09h2.09c.61,1.28,5.2,8.04,0,8.35Z"/><path class="cls-1" d="m19.32,127.78h2.09c.34,2.45,3.81,1.76,6.27,2.09,4.34,1.17,4.43,3.26,2.09,6.27v2.09c-3.75.27-4.41-2.56-8.36-2.09-.66-2.82-2.97-3.99-2.09-8.36Z"/><path class="cls-5" d="m115.41,12.9c.34-2.45,3.81-1.76,6.26-2.09,2.42,3.09,2.42,5.26,0,8.35-3.01-1.17-5.1-3.26-6.26-6.27Z"/><path class="cls-5" d="m29.77,27.52c-2.45-.34-1.76-3.81-2.09-6.27,2.66-2.85,10.23-3.23,10.44,2.09-3.89.29-6.98,1.37-8.35,4.18Z"/></g></g></svg>