<?xml version="1.0" encoding="UTF-8"?><svg id="Layer_2" xmlns="http://www.w3.org/2000/svg" viewBox="0 0 185.12 206.34"><defs><style>.cls-1{fill:#2f4b17;}.cls-1,.cls-2,.cls-3,.cls-4,.cls-5{fill-rule:evenodd;}.cls-2{fill:#4d6c32;}.cls-3{fill:#152c06;}.cls-4{fill:#436427;}.cls-5{fill:#d2d2d2;}</style></defs><g id="Layer_3"><g><path class="cls-5" d="m165.25,73.41c.14-.24.19-.58.22-.93-.18.24-.24.56-.22.93Z"/><path class="cls-5" d="m176.52,113.01c-.18,3.86,3.15,4.22,6.14,4.91.27.96,1.03,1.43,2.46,1.23-1.26-4.75-3.24-4.84-1.23-8.6h-4.91c-3.09,1.31-5.91-4.61-1.23-3.68-.07-.75-.18-1.45-1.23-1.23-1.28-4.13-4.77.97-6.14-3.68v-1.23c-.06-.17-.13-.33-.21-.49.08.16.15.32.21.49,2.5-.69,2.41-3.69,4.91-1.23,2.11.07,3.15-.95,3.68-2.46-.75-.07-1.45-.18-1.23-1.23-3.06-2.36-5.05,1.87-7.37-1.23v-1.23c-2.52-.34-2.45-3.28-3.68-4.91-1.23,0-1.46-.99-2.46-1.23-2.11-.48-3.15,1.82-3.68,0,.96-.27,1.43-1.03,1.23-2.46,1.54-1.71,6.94-.53,3.68-3.68,3.53-.44-.12-5.19-.22-7.67-.16.27-.45.42-1,.3-.21-1.84.44-4.53-1.23-4.91h-1.23c.58-5.28-3.31-1.57-3.68-3.68v-3.68c.75-.07,1.45-.18,1.23-1.23.95-.28,2.42-.03,2.46-1.23-2.11.07-3.15-.95-3.68-2.46h-7.37c-3.22-3.58,3.54-4.62,2.46-9.82-1.43.2-2.19-.27-2.46-1.23,3.73-1.23,1.57-2.02,0-3.68-2.55-.72-3.97-2.58-6.14-3.68-2.55-1.37-2.6-1.32-1.23,1.23-1.45-.18-2.78-2.19-3.68,0-1.89-.29-.18-2.02,1.23-2.46,0-1.23-1-1.46-1.23-2.46h-2.46v-1.23c-3.97-1.52-.94,3.97-4.91,2.46.18-1.45,2.19-2.78,0-3.68-.07.75-.18,1.45-1.23,1.23-1.84,1.44-5.02,1.53-6.14,3.68h-1.23c2.3-2.34.13-3.09,0-6.14,1.48-.26.76-1.36,0-2.46-1.69.05-2.7-.58-3.68-1.23v-1.23c-1.62-.01-1.12-2.15-2.46-2.46-4.73-1.36-5.51,1.8-12.28,3.68-.19-1.44.21-3.49-1.23-3.68-1.67,2.57-5.54,3.24-8.6,2.46-.28.95-.03,2.42-1.23,2.46v-1.23h-4.91c-2.38-1.55,2.15-6.51-2.46-3.68-.34,2.52-3.28,2.45-4.91,3.68v-2.46c-1.23,0-1.46,1-2.46,1.23-.14,1.5-.37,2.91-2.46,2.46-.07-.75-.18-1.45-1.23-1.23-1.33.3-.83,2.44-2.46,2.46-3.35,4.56-6.84,2.82-9.82,6.14-.27.96-1.03,1.43-2.46,1.23-3.98,1.53.88,4.28-7.37,2.46,2.83,4.6-2.13.08-3.68,2.46,0,1.23-1,1.46-1.23,2.46v3.68h-1.23c-3.35.9-2.47-2.44-4.91-2.46,2.04,2.44-.11,1.56,0,4.91-3.23,3.19-.97-1.98-4.91-1.23.03-1.19,1.5-.95,2.46-1.23-.23-.99-1.23-1.22-1.23-2.46-1.33.3-.83,2.44-2.46,2.46v2.46c-2.58-1.51-4.79-3.4-7.37-4.91-.07,1.57-1.57,1.7-1.23,3.68-2.03-.02-.69-3.41-2.46-3.68,1.91,4.37-4.17.74-3.68,3.68,3.45.02-2.92,3.35,2.46,2.46,1.82,2.25,3.3,4.16,0,6.14.32-4.25-4.77-1.49-4.91-1.23,1.26,1.2,2.48,2.43,3.68,3.68-3.86-1.41-2.98,1.93-4.91,2.46h-1.23c.27,2.09-1.38,3.04-1.23,0-1.66.39-2.35,1.75-4.91,1.23,1.37,1.9,3.99,2.56,3.68,6.14.07.75.18,1.45,1.23,1.23,3.25,1.45,3.81,1.06,2.46,4.91-.16,3.03-.19,5.92,1.23,7.37-3.05.18-5.96.23-6.14-2.46,3.43.85,5.2-6.11,2.46-7.37-.26,1.48-1.36.75-2.46,0-.14,1.5-.37,2.91-2.46,2.46.72,2.92,1.88,5.72-2.46,6.14-.07-.75-.18-1.45-1.23-1.23-.28.95-.03,2.42-1.23,2.46-.27,3.95,2.17,5.2,1.23,9.82v1.23c1.75.29,2.07,2.02,3.68,2.46v3.68c-4.13-.45-2.05,5.32-3.68,7.37,2.44.84,2.81,3.74,4.91,4.91-1.93.12-4.26-.16-3.68,2.46h2.46c.11,1.94,3.13.96,2.46,3.68-2.8-.34-4.62.3-4.91,2.46,1.38.26,1.91,1.36,2.46,2.46-6.23-2.32,3.21,3.31-2.46,8.6-3.14-.65-4.3-1.63-6.14,1.23,2.31,3.01,8.02,2.62,11.05,4.91-1.81.28-11.2.25-7.37,4.91.29-1.33,2.02-2.95,2.46-1.23-.75.07-1.45.18-1.23,1.23,1.69-.05,2.7.58,3.68,1.23-4.05,2.03,2.73,5.95,3.68,7.37v1.23c-.75.07-1.45.18-1.23,1.23h1.23c5.38-.89-.99,2.44,2.46,2.46.26-1.48,1.36-.76,2.46,0v1.23c0,1.23-1,1.46-1.23,2.46,4.52,3.02,2.89,7.03,6.14,4.91.75.07,1.45.18,1.23,1.23-.71.74-2.87,5.82,0,6.14.69-1.77,1.92-3,3.68-3.68.96.27,1.43,1.03,1.23,2.46-3.24,3.12,1.65.56,2.46,3.68.02-1.61,3.41-1.57,3.68,0v1.23c-2.6,1.8,1.29,2.59,3.68,1.23-.16,2.73,5.4,5.9,6.14,3.68-.68,0-1.39-.99,0-1.23,2.16.71,7.22-1.48,7.37,1.23-5.2-.19-.02,1.93,1.23,2.46h1.23c.07.75.18,1.45,1.23,1.23.32-1.91,2.69-.85,3.68,0,.77,5.96,6.81.25,7.37,4.91-3.56,1.37,1.88,1.32,1.23-1.23h1.23c.12,1.38-1.79,1.91,0,2.46,2.85,1.8-2.4,3.89,2.46,3.68.07-.75.18-1.45,1.23-1.23.5-2.09,1.58.26,3.68,0,1.38.12,1.91-1.79,2.46,0,3.01,2.9-1.83,2.28-1.23,6.14,6.05,1.2,3.18-4.61,4.91-4.91.21-1.43,1.94-1.33,3.68-1.23-1.52,3.97,3.97.94,2.46,4.91h-4.91c.71,2.16-1.48,7.21,1.23,7.37.33-2.53,5.44-.29,4.91-3.68,0-1.23,1-1.46,1.23-2.46h1.23c2.41.37,2.43-1.66,3.68-2.46.59,1.45,1.31,2.78,2.46,3.68.17-2.29.81-4.1,2.46-4.91.5,1.54,1.58,2.51,3.68,2.46v-2.46c0-1.23,1-1.46,1.23-2.46-.95-.27-2.42-.03-2.46-1.23h1.23c3.23,3.19.97-1.98,4.91-1.23,2.31,2.16-1.68,3.8,2.46,4.91.27-.96,1.03-1.43,2.46-1.23.07.75.18,1.45,1.23,1.23,1.8-2.85,3.89,2.4,3.68-2.46v-4.91c4.31-.97,4.04-3.45,7.37,0h1.23c.02-2.03,3.41-.69,3.68-2.46-1.99.88-1.99-5.79,0-4.91,1.94.11.96,3.13,3.68,2.46,1.57.07,1.7,1.57,3.68,1.23v-1.23c-1.17-2.1-4.08-2.47-4.91-4.91,2.11.07,3.15-.95,3.68-2.46-1.45-.19-3.48.21-3.68-1.23,3.45.45,14.1,2.41,13.51-7.37,1.57.07,1.7,1.57,3.68,1.23.75-.07,1.45-.18,1.23-1.23-2.94-3.42,4.05-7.36,7.37-8.6-.96-.27-1.43-1.03-1.23-2.46,1.89-3.11,9.79,1.92,11.05-2.46h-1.23v-3.68c4.62-1.29,5.59,5.32,7.37,0-1.25-4.23-7.8-10.57-1.23-14.74-.16-3.03-.19-5.92,1.23-7.37-3.05.18-5.1-.63-6.14-2.46.81-1.65,2.62-2.29,4.91-2.46-.21,2.66,4.36.56,6.14,1.23h1.23c-1.11-2.17-2.75-3.8-4.91-4.91.07-2.11-.94-3.15-2.46-3.68-.19,1.44.21,3.49-1.23,3.68-3.35-2.12-5.73-7.28,1.23-7.37Zm-12.87-22.9l-.21-.17.21.17Zm6.24,9.65c-1.42-2.16-4.47-3.85-2.01-6.35l.03.07-.03-.07c-2.47,2.51.59,4.19,2.01,6.35Zm-.42-3.35c.09.1.19.19.29.27-.1-.08-.2-.17-.29-.27Zm-98.06,83.94c-.01.1-.02.21-.02.31,0-.1.01-.21.02-.31Zm46.1-26.92l.19.12-.19-.12Zm-24.33-5.33l-.02-.13.02.13Zm-4.39-5.97l-.06.03.06-.03Zm.63-.39h-.01s.01,0,.01,0Zm.94-1.1h0s0,0,0,0Zm2.75,7.07l-.04-.14.04.14Zm-.16-.49l-.05-.12.05.12Zm-.25-.6v-.02s0,.02,0,.02Zm.47,1.71v.09s0-.09,0-.09Zm25.03,5.47l-.17-.07.17.07Zm-1.06-.66l-.18-.16.18.16Zm2.38.45h0s0,0,0,0Zm-1,.27h.13s-.13,0-.13,0Zm4.38-6.49l-.03.04.03-.04Zm.35-.41l-.1.09.1-.09Zm1.83-.93c-.11.01-.22.02-.33.05.11-.03.22-.04.33-.05Zm-.48.1c-.1.03-.21.06-.3.1.1-.04.2-.07.3-.1Zm-.47.19l-.26.14.26-.14Zm-.45.28l-.19.14.19-.14Zm1.89-.56c-.12-.01-.23-.03-.35-.02.12,0,.23,0,.35.02Zm.6.15c-.16-.07-.32-.11-.48-.14.16.03.32.07.48.14Zm-2.51,3.67h0s0,0,0,0h0Zm.09-.05h0c1.79-5.01,4.56-1.54,6.53-1.93-1.96.38-4.73-3.08-6.53,1.93Zm1.18-.66l-.17.09.17-.09Zm6.16-1.72c-.12.13-.25.23-.38.3.13-.07.26-.17.38-.3Zm-.44.32c-.11.06-.23.11-.35.13.12-.03.24-.07.35-.13Zm-53.25,24.29h0s0,0,0,0h0Zm-.55.65l.12-.14-.12.14Zm-5.15,9.57l-.09-.26.09.26Zm-.24-.78c-.02-.1-.03-.2-.04-.3.01.1.02.2.04.3Zm.04-1.57c.02-.1.05-.2.08-.3-.03.1-.05.2-.08.3Zm.25-.79c.04-.09.07-.18.11-.28-.04.09-.08.18-.11.28Zm.39-.82l.12-.21-.12.21Zm.59-.95h0s0,0,0,0Zm1.26-1.56l.05-.05-.05.05Zm2.31-2.48l.05-.06-.05.06Zm2.94,5.49l.06.11-.06-.11Zm88.64-85.4c-.06-.15-.12-.3-.18-.45.06.15.12.3.18.45Zm-4.17-3.2c1.26,1.19,1.56,3.33,4.15,3.2-2.59.14-2.89-2.01-4.15-3.2Zm6.19,9.6c.08.13.16.26.23.39-.07-.13-.14-.26-.23-.39Zm0-2.97c.15.1.31.19.48.25-.17-.06-.33-.15-.48-.25Zm-.93-1.04c-.11-.18-.22-.38-.33-.59.1.21.21.4.33.59Zm.37.51c-.09-.11-.18-.23-.26-.36.08.13.17.25.26.36Zm-1.31-2.51c.07.18.15.36.22.53-.07-.18-.15-.35-.22-.53Zm.31.75c.1.23.2.45.3.66-.11-.21-.2-.43-.3-.66Zm-.92-2.23l-.06-.15.06.15Zm-.36-.77l-.06-.11.06.11Zm-.77-1.22l-.07-.09.07.09Zm.39.53v-.02s0,.02,0,.02Zm-.96-1.06l.08.06-.08-.06Zm-1.07-.4h-.11s.11,0,.11,0Zm.58.12h-.01s.01,0,.01,0Zm-1.45-.05l.13-.03-.13.03Zm-.42.46c-.11-.07-.22-.14-.34-.2.12.06.23.12.34.2Z"/><path class="cls-4" d="m133.85,13.14c-.23-1.04.48-1.16,1.23-1.23h2.46c.23.99,1.23,1.22,1.23,2.46-1.41.43-3.11,2.16-1.23,2.46,0,1.23-1,1.46-1.23,2.46-2.13-1.11-3.39-4.52,0-4.91-.27-.96-1.03-1.43-2.46-1.23Z"/><path class="cls-2" d="m54.03,42.61c-.28,2.32,1.38,2.71,1.23,4.91-1.8.02-3.89-5.18-3.68,0-4.4-.86-1.55-5.59,1.23-6.14.07.75.18,1.45,1.23,1.23Z"/><path class="cls-2" d="m63.86,42.61h1.23c1.7.75.18,4.73,2.46,4.91-2.76,2.07-7.9-1.88-3.68-4.91Z"/><path class="cls-3" d="m50.35,47.52c-.81,1.65-2.62,2.29-4.91,2.46.36-.75,3.05-4.73,0-4.91,2.1-4.32,2.47,3.08,4.91,2.46Z"/><path class="cls-3" d="m130.17,62.26c-2.07-1.18-3.62-3.86-1.23-6.14,2.01.29,6.08,7.97,1.23,7.37v-1.23Z"/><path class="cls-4" d="m6.14,61.03c.95-.28,2.42-.03,2.46-1.23,2.83-.38,1.36,3.55,3.68,3.68v1.23c-1.5-.14-2.91-.37-2.46-2.46-1.69-.05-2.7.58-3.68,1.23-1.24-.01-1.54-2.15,0-2.46Z"/><path class="cls-2" d="m94.56,79.45h3.68c-.03,1.19-1.5.95-2.46,1.23.81,1.65,2.63,2.29,4.91,2.46-.28,1.77-3.66.43-3.68,2.46-2.68-.18-2.64-3.09-2.46-6.14Z"/><path class="cls-2" d="m151.05,105.24c-.54,1.09-1.08,2.2-2.46,2.46.03,1.19,1.5.95,2.46,1.23.22,2.68-1,3.91-3.68,3.68-1.24-2.84-1.85-6.56,3.68-7.37Z"/><path class="cls-3" d="m151.05,115.06c-2.95-3.63,6.05-4.51,7.37-1.23-1.24,2.03-5.22,1.33-7.37,2.46v-1.23Z"/><path class="cls-2" d="m88.42,115.06v2.46c-.26,1.38-1.36,1.91-2.46,2.46.45-2.09-.96-2.32-2.46-2.46-.35-3.21.45-5.28,3.68-4.91.28.95.03,2.42,1.23,2.46Z"/><path class="cls-3" d="m82.28,118.75v-1.23h1.23c1.5.14,2.91.37,2.46,2.46-.16,4.99-4.98,5.33-6.14,6.14-3.77-2.29,3.99-3.26,2.46-7.37Z"/><path class="cls-2" d="m146.14,131.03h-4.91c.91-3.78-3.37-2.36-2.46-6.14,1.41,1.47,3.11.48,1.23,0,.2-1.44,2.24-1.04,3.68-1.23-.76,1.09-1.48,2.2,0,2.46.64,1.82,1.82,3.1,2.46,4.91Z"/><path class="cls-2" d="m116.66,140.85c1.61.43,1.93,2.16,3.68,2.46-1.11,3.59-4.52.36-4.91,2.46-3.77-1.2,1.41-3.28,1.23-4.91Z"/><path class="cls-3" d="m76.14,148.22c-2.77,2.75.08,6.15,1.23,8.6-1.09,3.33-5.45-1.03-2.46-2.46-2.1,1.58-4.83,2.54-4.91,6.14-3.12-4.4,4.26-8.8,6.14-12.28Z"/><path class="cls-4" d="m84.73.86c4.6-2.83.08,2.13,2.46,3.68-1.09.54-2.2,1.08-2.46,2.46-3.12-2.12-4.76,1.87-4.91-2.46-1.77,1.62-3.09,5.62-6.14,2.46-.23-1.04.48-1.16,1.23-1.23,2.09.45,2.32-.96,2.46-2.46,1-.23,1.22-1.23,2.46-1.23v2.46c1.63-1.23,4.57-1.16,4.91-3.68Z"/><path class="cls-4" d="m109.29,4.54c.69-7.38,3.84.94,8.6,0,.99.65,1.99,1.28,3.68,1.23.76,1.09,1.48,2.2,0,2.46-2.62-1.88-6.69-.85-7.37,0,.23,1.04-.48,1.16-1.23,1.23v-4.91c-1.61,1.47-1.93.48-3.68,0Z"/><path class="cls-2" d="m97.01,8.22c2.72-1.77-1.55-3,1.23-3.68.81,3.68,2.63-1.17,4.91,0-.19,5.47,4.98.73,6.14,0,1.52,6.43-7.44,2.39-9.82,4.91,1.76-3.57.94-1.38-2.46-1.23Z"/><path class="cls-2" d="m114.21,8.22c.68-.85,4.75-1.88,7.37,0,.13,3.06,2.3,3.8,0,6.14-.57,6.49,8.95.21,4.91,4.91,3.13-.15,4.76-1.79,4.91-4.91,1-.23,1.22-1.23,2.46-1.23,1.43-.2,2.19.27,2.46,1.23-3.39.39-2.13,3.8,0,4.91.23-.99,1.23-1.22,1.23-2.46.9-2.19,2.23-.18,3.68,0,.81,2.7-6.89,4.9-1.23,4.91-.29,1.75-2.02,2.07-2.46,3.68-1.33.29-2.95,2.02-1.23,2.46-.02,2.03-3.41.69-3.68,2.46-.54-.99-1.57-5.06,0-7.37-3.39,3.35-1.15-1.8-3.68-2.46-3.84-.38,3.12,3.55-1.23,3.68h-2.46c-.35-1.98,1.16-2.11,1.23-3.68-1.74-.11-3.48-.2-3.68,1.23.49-2.45-1.98-4.09-6.14-4.91v-4.91c2.92-.36-1.36-3.32-2.46-3.68Z"/><path class="cls-4" d="m74.91,14.36c4.84-4.03,6.14-4.13,12.28-6.14.95,1.09,1.32,2.77,1.23,4.91-.85-2.42-6.85.3-7.37-2.46-1.82,1.04-2.64,3.09-2.46,6.14-.99-.65-1.99-1.28-3.68-1.23v-1.23Z"/><path class="cls-1" d="m109.29,4.54c1.75.48,2.07,1.47,3.68,0v4.91c-2.1-.05-3.18.91-3.68,2.46-1.79,1.76-4.76,1.8-3.68-2.46-1.77.28-.43,3.66-2.46,3.68.38,2.11,4.26-1.6,3.68,3.68v1.23c-1.74-.11-3.48-.2-3.68,1.23-2.89-.02.45-3.35,2.46-2.46-2.56-3.66-5,3.09-8.6,2.46,2.05-2.44-.11-1.56,0-4.91v-1.23c-3.34-2.26,3.27-.15,1.23,3.68,4.55.86,2.12-5.25,4.91-6.14-.54-1.82-1.57.48-3.68,0v-1.23c2.39-2.52,11.35,1.52,9.82-4.91Z"/><path class="cls-2" d="m90.87,7c.03,1.19,1.5.95,2.46,1.23-.65.99-1.28,1.99-1.23,3.68,3.74-1.83,4.78.4,7.37-1.23,2.11.48,3.15-1.82,3.68,0-2.79.89-.37,7-4.91,6.14,2.04-3.83-4.57-5.95-1.23-3.68v1.23h-1.23c-3.55.77-6.34,4.65-8.6,0-3.07-.21-3.84,1.89-4.91,3.68-1.59,3.79-1.62-3.53,1.23-2.46-.01-1.62-2.15-1.12-2.46-2.46-1.82.23-1.13,2.97-1.23,4.91-2.29-.17-4.1-.81-4.91-2.46,1.69-.05,2.7.58,3.68,1.23-.18-3.05.63-5.1,2.46-6.14.52,2.76,6.52.03,7.37,2.46.09-2.14-.27-3.82-1.23-4.91-6.14,2.01-7.44,2.11-12.28,6.14-.23-3.47,4.83-3.08,0-4.91-1.69-.18.52,4.99-2.46,1.23-.05-1.69.58-2.7,1.23-3.68,3.05,3.16,4.37-.83,6.14-2.46.15,4.33,1.79.34,4.91,2.46.26-1.38,1.36-1.91,2.46-2.46h1.23c0,1.23-.99,1.46-1.23,2.46,1.75.48,2.07,1.47,3.68,0Z"/><path class="cls-4" d="m90.87,7c3.59-.79,8.83,6.73,6.14,1.23,3.4-.15,4.22-2.34,2.46,1.23v1.23c-2.59,1.63-3.63-.61-7.37,1.23-.05-1.69.58-2.7,1.23-3.68-.95-.28-2.42-.03-2.46-1.23Z"/><path class="cls-2" d="m106.84,16.82c.58-5.28-3.31-1.57-3.68-3.68,2.03-.02.69-3.41,2.46-3.68-1.07,4.26,1.89,4.21,3.68,2.46-.18,1.45-2.19,2.78,0,3.68-.03,1.19-1.5.95-2.46,1.23Z"/><path class="cls-3" d="m97.01,14.36c-.11,3.35,2.05,2.47,0,4.91,3.59.63,6.04-6.11,8.6-2.46-2.01-.89-5.34,2.44-2.46,2.46.21-1.43,1.94-1.33,3.68-1.23v-1.23c.95-.28,2.42-.03,2.46-1.23h1.23c3.11,3-2.59,2.62-1.23,7.37-1.82-.64-3.1-1.82-4.91-2.46-2.1-.05-3.18.91-3.68,2.46-1.57.07-1.7,1.57-3.68,1.23v-1.23c-.5-1.54-1.58-2.51-3.68-2.46-.12-1.38,1.78-1.91,0-2.46.11-1.94,3.13-.96,2.46-3.68h1.23Z"/><path class="cls-3" d="m82.28,19.28c1.79.54-.12,1.08,0,2.46,3.46-.22,1.53-5.84,6.14-4.91,3.79,10.42-9.51.14-8.6,9.82-3.47,1.01-3.18-1.73-6.14-1.23-1.01-3.47,1.73-3.18,1.23-6.14,1.77.69,3,1.92,3.68,3.68,1.77-.69,3-1.92,3.68-3.68Z"/><path class="cls-2" d="m63.86,31.56c.29,1.75,2.02,2.07,2.46,3.68.49-1.47,1.86-4.2,3.68-7.37,5.44,2.39,19.88.23,11.05-1.23.02-2.03,3.41-.69,3.68-2.46.63,4.19,11.14,2.3,7.37-1.23-2.27-3.55,4,5.85,4.91,0v1.23c.07,1.57,1.57,1.7,1.23,3.68-3.48-1.28-5.12-1.28-8.6,0,.18,1.45,2.19,2.78,0,3.68.27.96,1.03,1.43,2.46,1.23.12,1.38-1.79,1.91,0,2.46-1.35-.3-10.91-.68-7.37-4.91-4.01,2.13-5.04,7.24-12.28,6.14-.07-1.57-1.57-1.7-1.23-3.68-3.14,3.2-5.37,4.08-9.82,1.23-.05-1.69.58-2.7,1.23-3.68,1.04-.23,1.16.48,1.23,1.23Z"/><path class="cls-4" d="m131.4,14.36c-.15,3.12-1.79,4.76-4.91,4.91,4.04-4.7-5.48,1.58-4.91-4.91h1.23c.96.27,1.43,1.03,1.23,2.46,3.06-.13,3.8-2.3,6.14,0,.28-.95.03-2.42,1.23-2.46Z"/><path class="cls-1" d="m127.71,24.19c4.35-.14-2.61-4.06,1.23-3.68,2.53.66.29,5.81,3.68,2.46-1.57,2.31-.54,6.38,0,7.37.28-1.77,3.66-.43,3.68-2.46-1.72-.43-.11-2.16,1.23-2.46,2.57-.52,3.25.84,4.91,1.23-.21,3.48,4.15,2.4,2.46,7.37-2.55-.69-2.6-1.92-1.23-3.68-4.05.71-1.76,4.64-1.23,7.37,3.93-1.86,9.4,3.56,8.6-1.23,1,.23,1.22,1.23,2.46,1.23v1.23c-1.57,1.68-5.8,1.68-7.37,0,2.09,2.47,7.22,4.52,6.14,3.68,3.6,3.2.66,5.32,1.23,11.05.99-1.06,3.36-.73,3.68-2.46,3.66,4.12,3.71,6.33,2.46,11.05.2,1.43-.27,2.19-1.23,2.46.54,1.82,1.57-.48,3.68,0-.23.99-1.23,1.22-1.23,2.46,1.93.93,1.83,3.9,4.91,3.68-2.92,2.9,1.54,4.69,2.46,7.37v1.23c-1.61.43-1.93,2.16-3.68,2.46-1.65-5.37-.84-5.49-3.68-11.05.38,2.35-2.41,4.71-3.68,8.6-.2,1.44-2.24,1.04-3.68,1.23-.21,3.07,1.89,3.84,3.68,4.91,3.89.2,4.1-3.26,8.6-2.46-1.8,2.9-2.59,2.28-1.23,6.14h-1.23c-1.45-1.41-4.34-1.39-7.37-1.23.83,2.13,8.21,3.94,8.6,2.46,1.43-.2,2.18.27,2.46,1.23-1.65.81-2.29,2.63-2.46,4.91-4.49.81-4.71-2.66-8.6-2.46.59,5.16,6.99,2.48,0,6.14,4.46,1.11,7.11,1.89,6.14,8.6,1.66-1.21,2.45-3.28,3.68-4.91-4.18-1.53-1.03-7.62,1.23-9.82,1.02,2.67,4.64,2.73,4.91,6.14-9.46,1.77.52,10.18-8.6,12.28,1.07,1.8,1.84,3.89,4.91,3.68-4.59-2.51.78-2.23,0-7.37,1.09.75,2.2,1.48,2.46,0,2.38-.19-3.01,6.85,3.68,4.91-6.57,4.16-.02,10.51,1.23,14.74-4.85,1.57-2.97-3.58-6.14-3.68-1.2-5.35-5.13-7.97-8.6-11.05.14-2.32,4.06-.85,3.68-3.68-1.07-3.63-1.84,2.85-4.91,1.23,1.43,5,.89,4.84,3.68,7.37-2.13,1.9-3.52,9.59,0,9.82-2.76,6.41-2.83-3.39-7.37-2.46.8,1.25,2.82,1.27,2.46,3.68-3.15-1.52-11.69-2.96-9.82,3.68,1.39-.23.68-1.23,0-1.23.03-1.19,1.5-.95,2.46-1.23,3.39.29,2.8,4.57,4.91,6.14-5.64,2.54-1.91,2.19-7.37,4.91.03,1.19,1.5.95,2.46,1.23-1.07,3.57-1.84,1.38-4.91,1.23-3.17.3,1.69,2.11,0,4.91-5.99-.45-4.12-3.2-8.6,0,.65-.99,1.28-1.99,1.23-3.68-10.07,4.97-7.6.3-14.74,7.37.7,1.26,5.78.29,6.14,4.91-1.43-.2-2.18.27-2.46,1.23-1.61-.43-1.93-2.16-3.68-2.46-.58,2.39,3.31,6.28,3.68,3.68,4.06,1.84-2.55,3-1.23,6.14-3.33-3.45-3.06-.97-7.37,0,1.7-5.93-4.78-7.6-1.23-2.46h-1.23c-.29-1.75-2.02-2.07-2.46-3.68,2.41-1.71,2.14-9.78,6.14-6.14-1.36-3.86-.58-3.24,1.23-6.14-6.97,1.44-9.29-2.68-15.96-2.46,2.88-5.7,9.2-3.42,7.37-9.82,2.83-.38,1.36,3.55,3.68,3.68,4.49-1.93-2.85-1.83-1.23-4.91,1.51,1.37,2.52,1.07,2.46-1.23,1.98,1.21,2.83,3.28,1.23,4.91.2,1.44,2.24,1.04,3.68,1.23-4.52-8.17,2.29-4.16,1.23-13.51-5.97,1.85-6.1,8.13-9.82,3.68-1.85,1.07.34,1.84-1.23,4.91-1.8.02-3.89-5.18-3.68,0-2.83.38-1.36-3.55-3.68-3.68-4.76-.59-.06-4.49-8.6-2.46,1.47,1.61.48,1.93,0,3.68-1.83.05-1.78-7.29-2.46-1.23-3.37-6.49,4.57-5.63,6.14-9.82,2.82,3.61,3.95,1.79,6.14,4.91,2.28-2.22,4.5-4.51,3.68-9.82,2.19.35,2.52-1.16,1.23-1.23.69-2.92,3.69,1.36,1.23,2.46,7.5-.68.39-5.91,2.46-4.91v-2.46c.99.85,3.36,1.91,3.68,0,1.65.81,2.29,2.62,2.46,4.91,6.6-5.15,1.6,3.5,8.6,1.23,1.78.54-.12,1.08,0,2.46,3.81-.29,3.83-4.35,4.91-7.37,3.86-.61,3.25,4.23,6.14,1.23-.89-.63-5.76-.86-2.46-4.91-4.21.7-4.3,5.52-8.6,6.14.23-.99,1.23-1.22,1.23-2.46-.84-.93-5.18-3.9,0-3.68-.38-1.67-3.07-1.02-4.91-1.23.69-1.77,1.92-3,3.68-3.68-1.23-2.45-5.43-1.94-4.91-6.14.99.85,3.36,1.91,3.68,0,1.15,1.04,4.12,6.33,1.23,7.37,4.11,4.34,8.63,1.25,11.05,6.14,3.77-1.2-1.41-3.28-1.23-4.91-2.2-.16-2.59,1.5-4.91,1.23-.67-2.23-.67-7.59,0-9.82,1.39.23.68,1.23,0,1.23,2.29.15,8.21-1.9,7.37-7.37-1.02,2.62-4.64,2.96-4.91-1.23,2.18,2.29,3.12-1,7.37,0,1.58,2.9-.16,2.28,1.23,6.14-1.61,1.25-4.53,1.2-6.14,2.46.54,1.09,1.08,2.2,2.46,2.46-1.98,3.3-3.89,1.82-6.14,0,.65.99,1.28,1.99,1.23,3.68,3.23.02,8.16-.68,4.91,2.46,7.54,2.22,4.39-6.25,11.05-4.91.49-2.94-5.59.68-3.68-3.68,3.78-.86,2.36-.86,6.14,0-1.09-2.59-3.74-3.63-3.68-7.37-2.66-.21-.56,4.36-1.23,6.14-3.92-2.39-.36-5.89-6.14-7.37,2.17-4.39-.87-6.74-1.23-8.6,4.83-.24-.93-2.97,1.23-6.14h2.46c.04,4.46,3.61,5.4,8.6,4.91-3.53-2.77-.5-7.56-6.14-9.82-2.68-.22-3.91,1-3.68,3.68-1.61-1.58-4.53-1.58-6.14,0-1.09.95-2.77,1.32-4.91,1.23-1.21-3.44-3.28,1.78-4.91-1.23.54,1.51,1.57,2.52,3.68,2.46v3.68c-1,.23-1.22,1.23-2.46,1.23-5.05.57.96-3.09-2.46-4.91-1.61.43-1.93,2.16-3.68,2.46.02,3.45,3.35-2.92,2.46,2.46-3.26-.01-7.01.46-8.6-1.23,4.15-2.07-.81-5.64,2.46-8.6,3.6-.08,2.69-4.68,7.37-3.68-3.86,3.99,4.13-.04,0,3.68.38,1.67,3.08,1.02,4.91,1.23-1.55-1.84-5.02-3.69-2.46-6.14-.29-3.17-2.11,1.69-4.91,0-.57-2.62,1.75-2.34,3.68-2.46,4.86.6.78-7.08-1.23-7.37-2.39,2.28-.84,4.96,1.23,6.14-8.61-3.16-4.88,4.51-8.6,7.37-1.39-1.48-3.51-2.23-2.46-6.14-1.32,3.19-5.34,3.67-6.14,7.37v1.23c-3.05-.18-.36-4.16,0-4.91-2.8-.34-4.62.3-4.91,2.46-3.93-1.85-.53-5.3-2.46-7.37-1.39.23-.68,1.23,0,1.23-1.64,2.05-5.46,1.91-7.37,3.68,5.71-5.49-2.16-5.64-3.68-4.91-3.43-2.12,3.87,1.81,2.46-3.68,1.44,1.83,5.1,1.45,4.91,4.91,2.68-.18,2.64-3.09,2.46-6.14,2.85,5.55,7.48.23,12.28,2.46-.84-4.56-.59-3.21-1.23-8.6,2.57-1.52,4.61-3.57,6.14-6.14-1.39-.57-5.92-.15-4.91-6.14-1.51.54-2.52,1.57-2.46,3.68-1.09-.75-2.2-1.48-2.46,0-3.79-1.23,2.66-2.02,2.46-3.68-.23-1.39-1.23-.68-1.23,0h-1.23c-.52-2.57.84-3.25,1.23-4.91-.54-1.82-1.57.48-3.68,0-.85-3.3,2.54-2.37,3.68-3.68-.54-1.82-1.57.48-3.68,0,.3-2.16,2.11-2.8,4.91-2.46-.34,2.8.3,4.62,2.46,4.91-.54,1.51-1.57,2.52-3.68,2.46,3.91,3.63,16.09.35,9.82-4.91h3.68c-2.28-2.17.53-3.59,1.23-6.14Zm19.65,30.7c3.85-4.5-2.41-7.5-3.68-7.37.11-1.7,8.83-.75,4.91-2.46-3.86.59-4.8-1.75-7.37-2.46-2.33,5.85-.98,6.78-1.23,9.82,1.89-2.61,7.2-.34,7.37,0-.75.07-1.45.18-1.23,1.23-1.62.01-1.12,2.15-2.46,2.46-.05-1.69.58-2.7,1.23-3.68-8.61,2.73,2.04,12.39,1.23,18.42,2.9-4.57-.78-10.3,4.91-7.37.26-6.56-5.5.03-7.37-4.91,3.05.18,5.1-.63,6.14-2.46-1.23,0-1.46-.99-2.46-1.23Zm-17.19-6.14c.07-.75.18-1.45,1.23-1.23.28.95.03,2.42,1.23,2.46.5-4.37,2.1-5.38-1.23-8.6,2.16,4.34-4.12,6.33-1.23,7.37Zm-13.51,6.14c8.28-1.55,4.52,2.54,9.82,2.46.76-3.95-4.42-1.68-1.23-4.91-3.47.21-8.42-1.06-8.6,2.46Zm20.88,15.96c.69,2.77,1.92-1.49,3.68,1.23.28-.95.03-2.42,1.23-2.46.07.75.18,1.45,1.23,1.23v-2.46c-.07-.75-.18-1.45-1.23-1.23-.27.96-1.03,1.43-2.46,1.23,0-.68-1-1.39-1.23,0,4.18,2.72-5.41,1.09-1.23,2.46Zm15.96-3.68c1.82.23,1.13,2.97,1.23,4.91,3.3-2.19,2.37,5.41,3.68,1.23.66-1.77-4.78-3-1.23-3.68.07.75.18,1.45,1.23,1.23-.08-2.11-3.75-6.7-4.91-3.68Zm-6.14,45.44c2.68.22,3.91-1,3.68-3.68-.95-.27-2.42-.03-2.46-1.23,1.38-.26,1.91-1.36,2.46-2.46-5.54.81-4.92,4.53-3.68,7.37Zm3.68,2.46c-2.76,2.1-6.7,1.12-2.46-1.23-2.44-.82-5.25-4.24-6.14,0,3.55,1.73-4.42,9.97,1.23,7.37-2.49.38.25-3.55,1.23-3.68.75.07,1.45.18,1.23,1.23-2.5,3.29-1.16,4.67-2.46,7.37-1.48-.26-.76-1.36,0-2.46-1.44.19-3.48-.21-3.68,1.23,1.89.48.18,1.47-1.23,0-.91,3.78,3.37,2.36,2.46,6.14h4.91c.14-1.83,1.61-5.51,3.68-8.6,4.32-2.1-3.08-2.47-2.46-4.91,1.45.18,2.78,2.19,3.68,0-.68,0-1.39-.99,0-1.23,2.15-1.12,6.13-.42,7.37-2.46-1.32-3.28-10.32-2.4-7.37,1.23Zm-19.65,22.1c-3.33-3.47,3.04-4.18,4.91-6.14-3.56-.69,1.88-1.91,1.23-3.68-6.41-3.27-9.45,4.36-4.91,0,.02,3.78-6.61,7.21-2.46,11.05v2.46h-3.68c-.48,2.11,1.82,3.15,0,3.68-.26-1.38-1.36-1.91-2.46-2.46,1.17,2.29-3.68,4.1,0,4.91-.21-5.18,1.89.02,3.68,0,.64-1.82,1.82-3.1,2.46-4.91,1.62.01,1.12,2.15,2.46,2.46.36-2.5,3.32-2.41,3.68-4.91-2.41-.37-2.43,1.66-3.68,2.46-.21-1.84.44-4.53-1.23-4.91Zm8.6-1.23c4.35.85-7.17,4.19-2.46,8.6,5.35-9.52,2.15-.29,7.37-6.14.28.95.03,2.42,1.23,2.46.07-3.87-4.76-9.88-6.14-4.91Zm-23.33-18.42c2.73.95,6.66.71,7.37,3.68-3.07,1.57-3.84-.62-4.91,1.23,2.3.29-.7,2.02,1.23,2.46-.38-1.49,3.55-4.23,3.68-1.23-2.53-1.08-5.51,3.19-2.46,3.68,2.06-5.87,5.43-.39,7.37-2.46-2.56-5.22-6.96-8.6-11.05-12.28.09,2.14-.27,3.82-1.23,4.91Zm15.96,7.37c.75.07,1.45.18,1.23,1.23.95-.27,2.42-.03,2.46-1.23-2.75-.89,2.71-3.69,2.46-6.14-4.06.03-3,5.18-6.14,6.14Zm-17.19,20.88c.39-2.1,3.8,1.13,4.91-2.46-1.75-.29-2.07-2.02-3.68-2.46.18,1.64-4.99,3.71-1.23,4.91Zm0-22.1c3.15,3.15-3.11,2.39-4.91,0-.07.75-.18,1.45-1.23,1.23-.37,2,1.66,3.31,2.46,1.23-2.27-1.18,4,.51,4.91,2.46-.37-2.41,1.66-2.44,2.46-3.68-1.77.66-3-4.79-3.68-1.23Z"/><path class="cls-1" d="m116.66,11.91v4.91c4.16.83,6.63,2.46,6.14,4.91.21-1.43,1.94-1.33,3.68-1.23-.07,1.57-1.57,1.7-1.23,3.68h1.23c-.23.99-1.23,1.22-1.23,2.46-1.05-1.02-9.6-3.36-3.68-3.68-.9-2.19-2.23-.18-3.68,0-.2,1.43.27,2.19,1.23,2.46-.54,1.82-1.57-.48-3.68,0-.16-2.2,1.5-2.59,1.23-4.91-3.59,1.26-3.98,3.81-6.14,3.68-3.86-.61-4.8,2.68-7.37,0,.65-.99,1.28-1.99,1.23-3.68,1.82.64,3.1,1.82,4.91,2.46-1.36-4.75,4.34-4.37,1.23-7.37-2.9-2.5,1.53-5.01,3.68-2.46-.07-2.3.95-2.6,2.46-1.23Z"/><path class="cls-2" d="m61.4,13.14c2.79-2.9,3.67,1.53,4.91,3.68-3.78-.92-2.36,3.37-6.14,2.46,1.23,1.64,2.02,3.71,3.68,4.91v1.23c-.23.99-1.23,1.22-1.23,2.46-1.45-1.83-3.08-3.47-4.91-4.91-1.48,1.39-2.23,3.51-6.14,2.46.8,1.25,2.82,1.27,2.46,3.68-4.51-1.92-4.71-1.03-7.37-3.68v-3.68c1.09.54,2.2,1.08,2.46,2.46,2.52-.34,2.45-3.28,3.68-4.91,2.29,2.4,4.5.38,7.37,0,.16-2.2-1.5-2.59-1.23-4.91,1.43.2,2.19-.27,2.46-1.23Z"/><path class="cls-4" d="m51.58,16.82c8.25,1.82,3.38-.93,7.37-2.46-.28,2.32,1.38,2.71,1.23,4.91-2.87.38-5.07,2.4-7.37,0-1.23,1.63-1.16,4.57-3.68,4.91-.26-1.38-1.36-1.91-2.46-2.46.23-.99,1.23-1.22,1.23-2.46,1.55-2.38,6.51,2.15,3.68-2.46Z"/><path class="cls-4" d="m141.22,16.82c-1.37-2.55-1.32-2.6,1.23-1.23,2.66,3.98-.15,2.3-1.23,3.68,1.38.26,1.91,1.36,2.46,2.46h-3.68c-5.66,0,2.04-2.21,1.23-4.91Z"/><path class="cls-3" d="m63.86,24.19h1.23c-.69-1.09-3.69-5.38-1.23-2.46,2.44-.02,1.56-3.35,4.91-2.46.18,1.64-4.99,3.71-1.23,4.91-.21,1.43-1.94,1.33-3.68,1.23v-1.23Z"/><path class="cls-3" d="m110.52,24.19c2.16.13,2.55-2.42,6.14-3.68.28,2.32-1.38,2.71-1.23,4.91,2.11-.48,3.15,1.82,3.68,0-.96-.27-1.43-1.03-1.23-2.46,1.45-.18,2.78-2.19,3.68,0-5.91.32,2.63,2.66,3.68,3.68,0-1.23,1-1.46,1.23-2.46h1.23c-.69,2.55-3.51,3.97-1.23,6.14h-3.68c6.26,5.26-5.92,8.55-9.82,4.91,2.11.07,3.15-.95,3.68-2.46.32-3.6-2.78-3.77-2.46-7.37-1.15.75-4.53,2.86-3.68-1.23Z"/><path class="cls-2" d="m100.7,22.96c.5-1.54,1.58-2.51,3.68-2.46.05,1.69-.58,2.7-1.23,3.68,2.57,2.68,3.5-.61,7.37,0-.85,4.09,2.54,1.98,3.68,1.23-.32,3.6,2.78,3.77,2.46,7.37-2.16-.3-2.8-2.11-2.46-4.91-2.8-.34-4.62.3-4.91,2.46,2.11.48,3.15-1.82,3.68,0-1.14,1.31-4.53.38-3.68,3.68,2.11.48,3.15-1.82,3.68,0-.39,1.66-1.75,2.35-1.23,4.91h-1.23c-2.12-3.18,1.81-3.86-3.68-2.46,1.44-2.37-1.13-6.22,2.46-8.6-4.45,4.33-4.25-1.68-8.6-3.68v-1.23Z"/><path class="cls-1" d="m100.7,22.96v1.23c4.34,2.01,4.14,8.02,8.6,3.68-3.58,2.37-1.01,6.22-2.46,8.6,5.49-1.4,1.56-.72,3.68,2.46-2.93.76-2.02,5.35-7.37,3.68-.58-3.83,1.53-5.95,3.68-3.68-1.27-2.99-4.87-2.99-6.14,0,5.97.47-4.71.18-6.14-4.91-3.45-.53,3.08,4.58-1.23,4.91.03,1.19,1.5.95,2.46,1.23-.95,2.73-2.58,4.79-2.46,8.6-1.09-.75-2.2-1.48-2.46,0-1.44-.2-1.04-2.24-1.23-3.68-1.15.9-1.86,2.23-2.46,3.68-2.64-7.67,6.75.19,4.91-6.14-.36-2.5-3.32-2.41-3.68-4.91.69,5.09-7.72,5.27-13.51,3.68.69-2.77,1.92,1.49,3.68-1.23-.51-2.73-6.73-1.18-6.14,1.23,2.63,2.69,4.09,6.55,6.14,9.82-1.14-1.31-4.53-.38-3.68-3.68-2.16,3.08-2.03.86-4.91,2.46,1.62,5.19,6.92,10.42,11.05,6.14,1.27,4.05.18,10.46,3.68,12.28,2.49,2.85-.5,2.82-2.46,1.23.35-1.98-1.16-2.11-1.23-3.68-5.45,4.47-12.77-1.42-13.51,3.68-3.03,3.32-4.43-2.13-1.23-3.68-3.23.58-4.14.96-7.37,3.68,2.65,1.05,6.05.12,8.6,3.68-.38,1.67-3.07,1.02-4.91,1.23,6.66,3.17,2.22-.24,1.23,6.14,2.96.5,2.67-2.24,6.14-1.23.16,2.2-1.5,2.59-1.23,4.91-1.06-4.54.07-2.39-7.37-2.46,1.58,1.61,1.58,4.53,0,6.14-2.86-1.84-1.87-3-1.23-6.14-.84-4.48-4.89.26-9.82-1.23,1.47,1.61.48,1.93,0,3.68,1.61-.43,1.93-2.16,3.68-2.46,2.24-1.06-4.8,8.34-1.23,4.91,2.58,4.29-6.01,3.54-7.37,0-2.78.5.65,7.2-4.91,4.91.78-9.28-.9.03,0,6.14-.99-.65-1.99-1.28-3.68-1.23.23.99,1.23,1.22,1.23,2.46,3.47,1.01,3.18-1.73,6.14-1.23-4.05-4.33,3.04-2.25,0-3.68,7.14-3.68,5.87,1.19,12.28,0-.9,1.15-2.23,1.86-3.68,2.46.28,1.77,3.67.43,3.68,2.46,2.74,1.16-3.02.08-6.14,1.23,3.31,6.52-1.43,3.32,6.14,8.6-2.32,3.1-4.3-1.13-7.37,1.23-.13-1.76-5.39-6.4,0-6.14-.65-.99-1.28-1.99-1.23-3.68-1.43,2.33-3.55,3.31-3.68-1.23-4.06,1.84,2.55,3,1.23,6.14-3.92-3.03-3.83,6.17-8.6,6.14,2.8-4.71-.83-1.63-2.46-4.91-1.65.25-2.29,5.1-2.46,0-.99.23-1.22,1.23-2.46,1.23-1.01,3.47,1.73,3.18,1.23,6.14-2.09-.45-2.32.96-2.46,2.46-3.58,1.33-7.26,2.56-8.6,6.14-.2,1.44-2.24,1.04-3.68,1.23-1.79-.54.12-1.08,0-2.46-.23-1.04.48-1.16,1.23-1.23h3.68c.85-3.3-2.54-2.37-3.68-3.68,1.03-2.65,3.18-4.19,2.46-8.6-1.77.69-3,1.91-3.68,3.68-2.65-.08,1.88-7.98-2.46-3.68-1.67-.38-1.02-3.07-1.23-4.91,2.9.38,2.28,4.26,6.14,3.68-.47-3.21-3.94-3.43-2.46-8.6,3.94,1.02,2.55,1.05,4.91-1.23-.23-1.39-1.23-.68-1.23,0-2.13-4.82-5.2-8.72-9.82-11.05,6.51-9.04-3.41-15.64,3.68-15.96-.95-1.09-1.32-2.77-1.23-4.91v-1.23c1.51.54,2.52,1.57,2.46,3.68,3.3-3.76,5.79-4.94,2.46-9.82,2.5-2.47,2.41.54,4.91,1.23-3.79-5.71.42-4.12,0-11.05,3.31,3.98,9.88-5.53,4.91-6.14,4.1-1.16,2.72-.61,3.68-4.91,5.13-.97,7.31,7.35,11.05,3.68-3.14-.54-.72-1.17-2.46-6.14,4.82.73,1.44-6.74,7.37-4.91-.65-.99-1.28-1.99-1.23-3.68h1.23c2.66,2.66,2.86,1.77,7.37,3.68.37-2.41-1.66-2.44-2.46-3.68,3.91,1.05,4.66-1.07,6.14-2.46,1.83,1.45,3.47,3.08,4.91,4.91,0-1.23.99-1.46,1.23-2.46,1.74.11,3.48.2,3.68-1.23-3.77-1.21,1.41-3.28,1.23-4.91-3.35-.89-2.47,2.44-4.91,2.46-2.47-2.92.54,1.36,1.23,2.46h-1.23c-1.66-1.21-2.45-3.28-3.68-4.91,3.78.92,2.36-3.37,6.14-2.46.02,1.61,3.41,1.56,3.68,0-1.82-.23-1.13-2.97-1.23-4.91,1.57-.07,1.7-1.57,3.68-1.23,2.98,3.77.77-1.41,2.46-1.23,4.83,1.83-.23,1.45,0,4.91v1.23c.81,1.65,2.63,2.29,4.91,2.46.1-1.94-.59-4.68,1.23-4.91.3,1.33,2.44.83,2.46,2.46-2.85-1.07-2.82,6.25-1.23,2.46,1.07-1.8,1.84-3.89,4.91-3.68,2.25,4.65,5.05.77,8.6,0,.68,2.72-2.35,1.75-2.46,3.68,1.78.54-.12,1.08,0,2.46,2.1-.05,3.18.91,3.68,2.46-.92,5.85-7.18-3.55-4.91,0,3.78,3.52-6.74,5.42-7.37,1.23-.28,1.77-3.66.43-3.68,2.46,8.83,1.46-5.62,3.62-11.05,1.23-1.82,3.16-3.19,5.9-3.68,7.37-.43-1.61-2.16-1.93-2.46-3.68,1.82-8.51-7.3,4.41-9.82-1.23-2.92.36,1.36,3.32,2.46,3.68-1.12,1.37-2.28.39-6.14,1.23.52-2.57-.84-3.25-1.23-4.91-.99.23-1.22,1.23-2.46,1.23,1.58,2.1,2.54,4.83,6.14,4.91-2.82,3.85,2.24,3.46,0,4.91-2.78.55-5.63,5.28-1.23,6.14-.21-5.18,1.89.02,3.68,0,.16-2.2-1.5-2.59-1.23-4.91,1.19-.03.95-1.5,1.23-2.46,3.4-.21,4.22,1.89,2.46,3.68,2.57.1,4.62-2.54,6.14-1.23-4.21,3.03.92,6.98,3.68,4.91-2.27-.18-.75-4.16-2.46-4.91-.3-2.16-2.11-2.8-4.91-2.46,1.06-.99.73-3.36,2.46-3.68-1.99,1.09-4.46-4.83,0-6.14-.65.99-1.28,1.99-1.23,3.68,4.46,2.86,6.68,1.98,9.82-1.23-.35,1.98,1.16,2.11,1.23,3.68,7.24,1.1,8.27-4.01,12.28-6.14-3.54,4.23,6.02,4.61,7.37,4.91-1.79-.54.12-1.08,0-2.46-1.43.2-2.19-.27-2.46-1.23,2.19-.9.18-2.23,0-3.68,3.48-1.28,5.12-1.28,8.6,0,.35-1.98-1.16-2.11-1.23-3.68,1.98.35,2.11-1.16,3.68-1.23Zm-31.93,35.61c0-.68,1-1.39,1.23,0-1.42.47-1.42,5.96,0,2.46,1.41-1.45,1.39-4.34,1.23-7.37-3.11-1.29-5.44,4.14-2.46,4.91Zm-12.28,0c3.17.3-1.69,2.11,0,4.91,1.64-.18,3.71,4.99,4.91,1.23-1.56-2.67-.29-2.73-2.46-6.14,1.66.39,2.35,1.75,4.91,1.23-1.83-6.83,5.97-2.48,3.68-8.6-.69,3.56-1.92-1.88-3.68-1.23-4.46,1.18-1.03-5.52-4.91-4.91-4.63,2.16,1.08,5.34-3.68,7.37-3.43-6.26-6.69,1.51-13.51,1.23.29-1.75,2.02-2.07,2.46-3.68-5.85-6.43-14.63-1.92-20.88,1.23-.02,7.62,4.03,4.4,8.6,6.14-.14,1.5-.37,2.91-2.46,2.46-3.78.92-2.36-3.37-6.14-2.46,1.01,3.47-1.73,3.18-1.23,6.14,1.57.07,1.7,1.57,3.68,1.23-.07,2.11.95,3.15,2.46,3.68-2.39,1.31-5.79.37-8.6,3.68,1.35,5,1.12,8.33-1.23,12.28h4.91c.37-2.41-1.66-2.44-2.46-3.68h4.91c2.05,2.44-.11,1.56,0,4.91-1.44.19-3.49-.21-3.68,1.23,1.88.48.18,1.47-1.23,0,2.55,5.81,2.16,7.92,3.68,12.28-4.39-1.96-2.9.59-1.23,3.68-4.74-3.74-.76,10.44,3.68,6.14-5.74-.14.87-2.25,1.23-3.68-3.39.26,5.63-5.21,1.23-2.46-5.15.45-.88-4-1.23-6.14,6.63-.52-3.65,3.68,1.23,4.91.02-2.03,3.41-.69,3.68-2.46-5.1-.17-.25-.81,0-2.46-2.32.27-2.71-1.38-4.91-1.23.91-3.78-3.37-2.36-2.46-6.14.52-5.55,9.87-.75,6.14-4.91-2.32-.27-2.71,1.38-4.91,1.23,2.53-2.63,6.4-3.9,9.82-2.46-2.41-4.61,1.16-2.68,2.46-6.14-1.86-1.1-5.58-6.57-7.37-3.68-2.31,2.33-6.38.15-7.37-2.46,3.86,1.39,3.24-.35,6.14,1.23.05-1.69-.58-2.7-1.23-3.68,1.75.29,2.07,2.02,3.68,2.46-.72-5.15-.5-7.63,2.46-12.28,2.62,1.88,6.69.85,7.37,0,1.62-.01,1.12-2.15,2.46-2.46,5.06,2.62-.43,4.55-2.46,4.91,1.64,1.23,3.71,2.02,4.91,3.68-3.92,1.05-3.8-1.93-6.14-2.46-1.22,3.41,6.98,3.47,2.46,6.14,1.97-4.83-5.3-.43-4.91-3.68.68,0,1.39-.99,0-1.23-.11,1.94-3.13.96-2.46,3.68,4.12-.84,4.49,2.06,4.91,4.91-3.3-.85-2.37,2.54-3.68,3.68,3.41,3.95,7.43-5.23,4.91,2.46,4.37,1.91.74-4.17,3.68-3.68,1.84.21,4.53-.44,4.91,1.23-1.51.72,1.3,2.58,1.23,3.68.52-2.34,3.51-2.22,2.46-6.14-1.97-3.3.4-8.27-1.23-11.05-1.23,3.47-1.16-3.9-3.68,0-4.52.05.68-2.59,0-3.68,3,.26,4.49,4.99,6.14,0Zm13.51,4.91c3.28,3.39,2.67-1.45,6.14-1.23-2.37,5.5.58,5.5,1.23,0-1.98-2.1-6.33-1.12-7.37,1.23Zm-24.56-18.42c3.05.18.36,4.16,0,4.91,2.29-.17,4.1-.81,4.91-2.46-2.44.62-2.81-6.77-4.91-2.46Zm33.16-22.1c-.69-1.77-1.92-3-3.68-3.68.5,2.96-2.24,2.67-1.23,6.14,2.96-.5,2.67,2.24,6.14,1.23-.92-9.68,12.39.6,8.6-9.82-4.61-.92-2.68,4.69-6.14,4.91-.12-1.38,1.79-1.91,0-2.46-.69,1.77-1.92,3-3.68,3.68Zm-41.75,67.54c-2.14-2.31-4.73,1.68-2.46-2.46h-6.14c-.18,3.05-.23,5.96,2.46,6.14-.36-6.47,3.12,1.86,7.37,0,2.1-4.17-3.64-9.32-1.23-6.14v2.46Z"/><path class="cls-2" d="m153.5,37.7c-1.23,0-1.46-.99-2.46-1.23.8,4.79-4.67-.63-8.6,1.23-.53-2.73-2.82-6.66,1.23-7.37-1.37,1.77-1.32,3,1.23,3.68,1.7-4.97-2.66-3.88-2.46-7.37h2.46c.91-1.56.16-7,3.68-3.68.27.96,1.03,1.43,2.46,1.23,1.09,5.2-5.68,6.24-2.46,9.82.41,2.98,9.29-.58,4.91,3.68Z"/><path class="cls-2" d="m25.79,26.64c-.35-1.98,1.16-2.11,1.23-3.68,2.58,1.51,4.79,3.4,7.37,4.91,0,1.23-.99,1.46-1.23,2.46-3.78.91-2.36-3.37-6.14-2.46-1.04.23-1.16-.48-1.23-1.23Z"/><path class="cls-4" d="m34.38,25.42c1.62-.01,1.12-2.15,2.46-2.46,0,1.23.99,1.46,1.23,2.46-.95.28-2.42.03-2.46,1.23,3.95-.76,1.68,4.42,4.91,1.23,1.91.32.85,2.69,0,3.68h-2.46c.21-3.07-1.89-3.84-3.68-4.91v-1.23Z"/><path class="cls-3" d="m52.81,41.38c2.24-1.45-2.82-1.06,0-4.91-3.6-.08-4.56-2.81-6.14-4.91,1.23,0,1.46-.99,2.46-1.23.39,1.66,1.75,2.35,1.23,4.91,3.86-.84,5.02.14,6.14-1.23-1.09-.36-5.38-3.32-2.46-3.68,2.52,5.64,11.65-7.28,9.82,1.23-.07-.75-.18-1.45-1.23-1.23-4.46,1.31-1.99,7.23,0,6.14-1.73.32-1.4,2.69-2.46,3.68,2.8-.34,4.62.3,4.91,2.46h-1.23c-1.52-1.31-3.57,1.33-6.14,1.23,1.76-1.8.94-3.89-2.46-3.68-.27.95-.03,2.42-1.23,2.46-1.04.23-1.16-.48-1.23-1.23Z"/><path class="cls-3" d="m84.73,68.4c-3.5-1.82-2.42-8.23-3.68-12.28-4.13,4.28-9.44-.95-11.05-6.14,2.88-1.59,2.75.62,4.91-2.46-.85,3.3,2.54,2.37,3.68,3.68-2.05-3.28-3.51-7.13-6.14-9.82-.59-2.41,5.63-3.96,6.14-1.23-1.77,2.72-3-1.55-3.68,1.23,5.78,1.58,14.2,1.41,13.51-3.68.36,2.5,3.32,2.41,3.68,4.91,1.84,6.33-7.55-1.53-4.91,6.14.6-1.45,1.31-2.78,2.46-3.68.19,1.44-.21,3.49,1.23,3.68.26-1.48,1.36-.75,2.46,0-.12-3.81,1.5-5.87,2.46-8.6-.95-.28-2.42-.03-2.46-1.23,4.31-.33-2.22-5.44,1.23-4.91,1.43,5.09,12.11,5.39,6.14,4.91,1.27-2.99,4.87-2.99,6.14,0-2.15-2.26-4.27-.15-3.68,3.68,5.35,1.67,4.44-2.93,7.37-3.68h2.46c0-.68,1-1.39,1.23,0,.21,1.66-6.25,2.45-2.46,3.68.26-1.48,1.36-.75,2.46,0-.07-2.11.95-3.15,2.46-3.68-1.01,5.99,3.52,5.57,4.91,6.14-1.53,2.57-3.57,4.62-6.14,6.14.64,5.39.38,4.03,1.23,8.6-4.8-2.23-9.43,3.1-12.28-2.46.18,3.05.23,5.96-2.46,6.14.19-3.47-3.47-3.08-4.91-4.91,1.41,5.49-5.89,1.56-2.46,3.68,1.52-.73,9.39-.58,3.68,4.91v1.23c-1.51-1.37-2.52-1.07-2.46,1.23-1.82-.64-3.1-1.82-4.91-2.46.43-1.61,2.16-1.93,2.46-3.68.18-1.67-6.85-.44-4.91,3.68-1.04-.23-1.16.48-1.23,1.23h-2.46Zm11.05-19.65c2.93,2.57,6.44-1.72,7.37-4.91-1.77-3.31-7.79,1.56-4.91,2.46,2.99-2.61-1.37,1.75-2.46,2.46Zm14.74-1.23c-3.96-1.1-1.73,4.01-3.68,4.91,1.78-.67,6.35,1.44,6.14-1.23-1.73-.32-1.4-2.69-2.46-3.68Z"/><path class="cls-4" d="m148.59,34.01h7.37c.54,1.51,1.57,2.52,3.68,2.46-.03,1.19-1.5.95-2.46,1.23-1.2-4.07-2.43,1.37-3.68,1.23v-1.23c4.37-4.26-4.5-.7-4.91-3.68Z"/><path class="cls-1" d="m34.38,27.87v-1.23c1.8,1.07,3.89,1.84,3.68,4.91.53,3.39-4.58,1.15-4.91,3.68-.96-.27-1.43-1.03-1.23-2.46-.95.28-2.42.03-2.46,1.23h-1.23c.18-1.45,2.19-2.78,0-3.68-.23-.99-1.23-1.22-1.23-2.46,3.78-.91,2.36,3.37,6.14,2.46.23-.99,1.23-1.22,1.23-2.46Z"/><path class="cls-4" d="m29.47,34.01c.28,2.32-1.38,2.71-1.23,4.91-3.35.89-2.47-2.44-4.91-2.46.3-2.16,2.11-2.8,4.91-2.46h1.23Z"/><path class="cls-4" d="m20.88,37.7h1.23c-.22,2.68,1,3.91,3.68,3.68-2.69,2.56,1.08,3.97-1.23,6.14-4.28-.36.1-3.32-2.46-3.68-.51-2.76-6.73.18-6.14-3.68,1.93-.53,1.05-3.86,4.91-2.46Z"/><path class="cls-4" d="m159.64,46.29c-3.69.73-6.97-5.18-3.68-7.37v3.68c.38,2.11,4.26-1.6,3.68,3.68Z"/><path class="cls-2" d="m28.24,68.4c-1.51-.54-2.52-1.57-2.46-3.68,5.08.32,4.94-1.46,3.68-4.91,2.09.45,2.32-.96,2.46-2.46,3.03-2.38,10.73-.82,11.05,0v1.23c-.68.85-4.75,1.88-7.37,0-2.96,4.65-3.18,7.13-2.46,12.28-1.61-.43-1.93-2.16-3.68-2.46h-1.23Z"/><path class="cls-2" d="m25.79,80.68c1.23,0,1.46-.99,2.46-1.23-.04,1.82,6.18-.23,6.14-2.46.37-2.41-1.66-2.44-2.46-3.68,1.78-2.88,5.51,2.58,7.37,3.68-1.3,3.46-4.87,1.53-2.46,6.14-3.42-1.45-7.3-.18-9.82,2.46h-1.23c-.11-3.35,2.05-2.47,0-4.91Z"/><path class="cls-3" d="m28.24,96.64c.35,2.14-3.92,6.59,1.23,6.14,4.4-2.75-4.62,2.71-1.23,2.46-.36,1.43-6.97,3.55-1.23,3.68-4.45,4.3-8.42-9.88-3.68-6.14-1.67-3.09-3.16-5.64,1.23-3.68-1.52-4.36-1.13-6.47-3.68-12.28,1.41,1.47,3.11.48,1.23,0,.2-1.44,2.24-1.04,3.68-1.23h1.23c2.2.16,2.59-1.5,4.91-1.23,3.73,4.16-5.62-.63-6.14,4.91-.91,3.78,3.37,2.36,2.46,6.14v1.23Z"/><path class="cls-2" d="m28.24,116.29h2.46c-.54,1.51-1.57,2.52-3.68,2.46-5.05-1.29-6.46,4.15-1.23,3.68-1.37,2.55-1.32,2.6,1.23,1.23,1.65,1.34-5.12,3.1,0,6.14-.29,1.75-2.02,2.07-2.46,3.68-2.5-.36-2.41-3.32-4.91-3.68-.53-2.97,8.17,3.85,4.91,0-2.84-1.83-2.34-3.47,0-4.91-1.38-.26-1.91-1.36-2.46-2.46h-2.46c1.33-3.58,5.02-4.81,8.6-6.14Z"/><path class="cls-2" d="m12.28,64.71c-.09,2.14.27,3.82,1.23,4.91-7.09.32,2.83,6.92-3.68,15.96,4.62,2.33,7.69,6.23,9.82,11.05,0-.68.99-1.39,1.23,0-2.37,2.27-.97,2.25-4.91,1.23-1.48,5.16,1.98,5.38,2.46,8.6-3.86.58-3.24-3.31-6.14-3.68.21,1.84-.44,4.53,1.23,4.91,4.33-4.3-.19,3.6,2.46,3.68.69-1.77,1.92-3,3.68-3.68.72,4.41-1.43,5.94-2.46,8.6,1.15,1.31,4.53.38,3.68,3.68h-3.68c-.23-1.39-1.23-.68-1.23,0-2.73-.52-.96-6.52,0-7.37-2.89-.03-3.62,2.12-7.37,1.23-2.43-4.24,4.18-5.4,1.23-6.14,1.7-.75.18-4.73,2.46-4.91-.2-1.44-2.24-1.03-3.68-1.23-.54-1.09-1.08-2.2-2.46-2.46.3-2.16,2.11-2.8,4.91-2.46.68-2.72-2.35-1.75-2.46-3.68,6.06-4.78-3.82-6.72,0-14.74v-3.68c-3.26-3.02,3.2-8.04-1.23-8.6,0-1.23-.99-1.46-1.23-2.46.99-.65,1.99-1.28,3.68-1.23-.45,2.09.96,2.32,2.46,2.46Z"/><path class="cls-2" d="m15.96,53.66h3.68c.85-4.94-5.17-3.02-4.91-7.37,1.04.23,1.16-.48,1.23-1.23,1.09.95,2.77,1.32,4.91,1.23-.2-1.43.27-2.19,1.23-2.46,2.56.36-1.82,3.32,2.46,3.68,2.31-2.17-1.46-3.58,1.23-6.14-2.68.22-3.91-1-3.68-3.68h-1.23c-1.2-1.26-2.43-2.48-3.68-3.68.15-.26,5.24-3.03,4.91,1.23,3.3-1.98,1.82-3.89,0-6.14,3.14-4.62,2.08,5.17,6.14,3.68v-2.46c2.19.9.18,2.23,0,3.68-2.8-.34-4.62.3-4.91,2.46,2.44.02,1.56,3.35,4.91,2.46-.16-2.2,1.5-2.59,1.23-4.91.03-1.19,1.5-.95,2.46-1.23-.2,1.43.27,2.19,1.23,2.46.33-2.53,5.44-.29,4.91-3.68h2.46c.85-.99,1.91-3.36,0-3.68-.11-3.35,2.05-2.47,0-4.91,2.44.02,1.56,3.35,4.91,2.46-.05,1.69.58,2.7,1.23,3.68-5.92-1.83-2.55,5.64-7.37,4.91,1.74,4.97-.69,5.6,2.46,6.14-3.74,3.66-5.92-4.66-11.05-3.68-.96,4.3.42,3.75-3.68,4.91,4.97.61-1.6,10.12-4.91,6.14.42,6.93-3.79,5.34,0,11.05-2.5-.69-2.41-3.69-4.91-1.23,3.33,4.88.85,6.06-2.46,9.82.07-2.11-.95-3.15-2.46-3.68-2.32-.14-.85-4.06-3.68-3.68-.03,1.19-1.5.95-2.46,1.23v-1.23c4.34-.42,3.17-3.22,2.46-6.14,2.09.45,2.32-.96,2.46-2.46,1.09.75,2.2,1.48,2.46,0,2.74,1.26.97,8.22-2.46,7.37.18,2.68,3.09,2.64,6.14,2.46-1.41-1.45-1.39-4.34-1.23-7.37Z"/><path class="cls-3" d="m31.93,57.34c-4.56-1.74-8.61,1.48-8.6-6.14,6.24-3.15,15.02-7.65,20.88-1.23-.43,1.61-2.16,1.93-2.46,3.68,6.82.28,10.08-7.49,13.51-1.23,4.76-2.03-.95-5.21,3.68-7.37,3.88-.61.46,6.09,4.91,4.91-.28,5.93-3.89-.35-4.91-1.23-.41,3.4,1.26,3.24-2.46,9.82-1.65,4.99-3.14.26-6.14,0,.68,1.09-4.52,3.74,0,3.68-3.42,1.82,2.6,5.49-2.46,4.91.77,3.74,2.73,6.28,7.37,6.14,1.05,3.92-1.93,3.8-2.46,6.14.07-1.1-2.74-2.96-1.23-3.68-.38-1.67-3.07-1.02-4.91-1.23-2.94-.49.68,5.59-3.68,3.68,2.52-7.69-1.5,1.5-4.91-2.46,1.31-1.15.38-4.53,3.68-3.68-.42-2.85-.79-5.75-4.91-4.91-.68-2.72,2.35-1.75,2.46-3.68,1.39.23.68,1.23,0,1.23-.39,3.26,6.88-1.15,4.91,3.68,4.52-2.67-3.67-2.73-2.46-6.14,2.34.52,2.22,3.51,6.14,2.46-1.21-1.66-3.28-2.45-4.91-3.68,2.03-.36,7.52-2.29,2.46-4.91-1.33.3-.83,2.44-2.46,2.46v-1.23c-.33-.82-8.02-2.38-11.05,0Z"/><path class="cls-2" d="m131.4,41.38c3.32,3.22,1.73,4.23,1.23,8.6-1.19-.03-.95-1.5-1.23-2.46-1.04-.23-1.16.48-1.23,1.23-2.9-1.04,3.38-3.02,1.23-7.37Z"/><path class="cls-1" d="m98.24,46.29c-2.88-.89,3.14-5.76,4.91-2.46-.92,3.19-4.44,7.48-7.37,4.91,1.09-.7,5.45-5.06,2.46-2.46Z"/><path class="cls-3" d="m146.14,53.66c-.23-1.04.48-1.16,1.23-1.23-.17-.34-5.48-2.61-7.37,0,.25-3.04-1.1-3.97,1.23-9.82,2.57.71,3.5,3.04,7.37,2.46,3.92,1.7-4.8.75-4.91,2.46,1.28-.13,7.53,2.87,3.68,7.37-1.04.23-1.16-.48-1.23-1.23Z"/><path class="cls-4" d="m15.96,53.66c1.36-3.85.79-3.46-2.46-4.91.12-1.93-.16-4.26,2.46-3.68-.07.75-.18,1.45-1.23,1.23-.26,4.35,5.76,2.43,4.91,7.37h-3.68Z"/><path class="cls-2" d="m56.49,58.57c3.72-6.58,2.04-6.42,2.46-9.82,1.02.88,4.64,7.16,4.91,1.23,1.77-.66,3,4.79,3.68,1.23,2.29,6.12-5.51,1.76-3.68,8.6-2.57.52-3.25-.84-4.91-1.23,2.16,3.41.9,3.47,2.46,6.14-1.21,3.77-3.28-1.41-4.91-1.23-1.69-2.8,3.17-4.62,0-4.91Z"/><path class="cls-2" d="m138.77,68.4c.23-1.39,1.23-.68,1.23,0,1.43.2,2.19-.27,2.46-1.23,1.04-.23,1.16.48,1.23,1.23v2.46c-1.04.23-1.16-.48-1.23-1.23-1.19.03-.95,1.5-1.23,2.46-1.77-2.72-3,1.55-3.68-1.23-4.18-1.37,5.41.26,1.23-2.46Z"/><path class="cls-2" d="m55.26,73.31c-4.64.14-6.6-2.4-7.37-6.14,5.05.57-.96-3.09,2.46-4.91,2.52-3.9,2.45,3.47,3.68,0,1.63,2.78-.74,7.75,1.23,11.05Z"/><path class="cls-4" d="m160.87,46.29c1.67.38,1.02,3.07,1.23,4.91,1.04.23,1.16-.48,1.23-1.23-1.37,1.9,4.05,8.09,0,8.6-2.06-3.13-2.8-8.79-2.46-12.28Z"/><path class="cls-1" d="m112.98,51.2c.21,2.66-4.36.56-6.14,1.23,1.96-.91-.28-6.01,3.68-4.91,1.06.99.73,3.36,2.46,3.68Z"/><path class="cls-2" d="m160.87,46.29c-.34,3.49.4,9.15,2.46,12.28,3.26,3.15-2.15,1.97-3.68,3.68,1.26-4.73,1.21-6.94-2.46-11.05-.32,1.73-2.69,1.4-3.68,2.46-.56-5.73,2.38-7.85-1.23-11.05,1.08.84-4.05-1.21-6.14-3.68,1.57,1.68,5.8,1.68,7.37,0,1.26.14,2.48-5.3,3.68-1.23.23,1.04-.48,1.16-1.23,1.23-3.28,2.18,0,8.1,3.68,7.37h1.23Z"/><path class="cls-2" d="m125.26,52.43c-3.19,3.23,1.98.97,1.23,4.91-5.31.09-1.55-4.01-9.82-2.46.17-3.51,5.12-2.25,8.6-2.46Z"/><path class="cls-2" d="m147.36,54.89c1,.23,1.22,1.23,2.46,1.23-1.04,1.82-3.09,2.64-6.14,2.46,1.87,4.94,7.63-1.65,7.37,4.91-5.69-2.93-2.01,2.8-4.91,7.37.82-6.03-9.83-15.69-1.23-18.42-.65.99-1.28,1.99-1.23,3.68,1.33-.3.83-2.44,2.46-2.46.07.75.18,1.45,1.23,1.23Z"/><path class="cls-2" d="m71.23,53.66c.16,3.03.19,5.92-1.23,7.37-1.42,3.51-1.42-1.98,0-2.46-.23-1.39-1.23-.68-1.23,0-2.99-.77-.65-6.21,2.46-4.91Z"/><path class="cls-2" d="m160.87,67.17c4.8-2.19,4.38,6.36,7.37,7.37,2.18.28,6.15-1.24,4.91,2.46-2.5-2.47-2.41.54-4.91,1.23-.92-2.68-5.37-4.47-2.46-7.37-3.08.21-2.98-2.75-4.91-3.68Z"/><path class="cls-3" d="m157.19,79.45c1.27-3.89,4.07-6.24,3.68-8.6,2.84,5.56,2.03,5.68,3.68,11.05h-1.23c-1.08-3.73-3.34-8.89-4.91-2.46h-1.23Z"/><path class="cls-2" d="m158.42,70.85c-1.04.23-1.16-.48-1.23-1.23-3.56.69,1.88,1.92,1.23,3.68-1.31,4.18-.38-3.42-3.68-1.23-.1-1.94.59-4.68-1.23-4.91,1.16-3.02,4.83,1.58,4.91,3.68Z"/><path class="cls-3" d="m77.37,62.26c-.65,5.5-3.6,5.5-1.23,0-3.47-.22-2.86,4.62-6.14,1.23,1.04-2.35,5.39-3.32,7.37-1.23Z"/><path class="cls-3" d="m28.24,116.29c.14-1.5.37-2.91,2.46-2.46.5-2.96-2.24-2.67-1.23-6.14,1.23,0,1.46-.99,2.46-1.23.17,5.1.81.25,2.46,0,1.62,3.28,5.25.2,2.46,4.91,4.76.03,4.67-9.17,8.6-6.14,1.32-3.14-5.29-4.3-1.23-6.14.14,4.54,2.25,3.55,3.68,1.23-.05,1.69.58,2.7,1.23,3.68-5.39-.26-.13,4.38,0,6.14,3.06-2.36,5.05,1.87,7.37-1.23-7.57-5.28-2.83-2.08-6.14-8.6,3.12-1.15,8.88-.07,6.14-1.23-.02-2.03-3.41-.69-3.68-2.46,1.45-.6,2.78-1.31,3.68-2.46-6.41,1.19-5.14-3.68-12.28,0,3.04,1.44-4.05-.65,0,3.68-2.96-.5-2.67,2.24-6.14,1.23,0-1.23-.99-1.46-1.23-2.46,1.69-.05,2.7.58,3.68,1.23-.9-6.11.78-15.42,0-6.14,5.56,2.28,2.14-4.41,4.91-4.91,1.36,3.54,9.94,4.29,7.37,0-3.57,3.42,3.47-5.97,1.23-4.91-1.75.29-2.07,2.02-3.68,2.46.48-1.75,1.47-2.07,0-3.68,4.94,1.49,8.99-3.25,9.82,1.23-.65,3.14-1.63,4.3,1.23,6.14,1.58-1.61,1.58-4.53,0-6.14,7.44.06,6.31-2.08,7.37,2.46-.27-2.32,1.38-2.71,1.23-4.91-3.47-1.01-3.18,1.73-6.14,1.23.99-6.38,5.43-2.97-1.23-6.14,1.84-.21,4.53.44,4.91-1.23-2.55-3.57-5.95-2.63-8.6-3.68,3.23-2.72,4.14-3.1,7.37-3.68-3.2,1.56-1.8,7,1.23,3.68.74-5.1,8.06.79,13.51-3.68.07,1.57,1.57,1.7,1.23,3.68-3.04-.16-2.09,1.5,0,1.23-.75,1.09-1.48,2.2,0,2.46-.43,1.72-2.16.11-2.46-1.23-5.98,4.84,6.58,15.04,13.51,11.05-2.22,2.2.08,6.15,4.91,4.91,1.24,1.54,4.7,9.44,0,6.14v3.68c3.8-3.28,6.59-.7,8.6-2.46,1.04-.23,1.16.48,1.23,1.23v2.46c-5.03-2.69-12.76,4.17-7.37,8.6,1.67-.38,1.02-3.07,1.23-4.91,2.57-.52,3.25.84,4.91,1.23-1.58,2.1-2.54,4.83-6.14,4.91.23.99,1.23,1.22,1.23,2.46,1.19-.03.95-1.5,1.23-2.46,1.98-.35,2.11,1.16,3.68,1.23.78-2.68-3.48-3.91,1.23-3.68,1.43-.2,2.19.27,2.46,1.23,1.25-.8,1.27-2.82,3.68-2.46v-3.68c-.23-.99-1.23-1.22-1.23-2.46v-1.23c2.57-.52,3.25.84,4.91,1.23.03-2.89-2.12-3.62-1.23-7.37,1.54-.3,1.24-2.44,0-2.46.03-1.19,1.5-.95,2.46-1.23,5.92-4.43-2.46-8.46-3.68-9.82,2.82-.97-2.11-4.29-2.46-6.14v-1.23c.8-3.7,4.82-4.18,6.14-7.37-1.05,3.91,1.07,4.66,2.46,6.14v1.23c-3.27,2.96,1.7,6.53-2.46,8.6,1.58,1.69,5.33,1.22,8.6,1.23,1,.23,1.22,1.23,2.46,1.23,1.04.23,1.16-.48,1.23-1.23,1.23,0,1.46-.99,2.46-1.23-.58,3.86,1.53,5.02,3.68,6.14.19-3.06-1.93-3.8-2.46-6.14,2.3-1.39,5.92-1.45,4.91-6.14,1.61-1.58,4.53-1.58,6.14,0,1.04-.23,1.16.48,1.23,1.23h-2.46c-2.16,3.17,3.6,5.9-1.23,6.14.36,1.86,3.4,4.21,1.23,8.6,5.78,1.47,2.22,4.98,6.14,7.37.67-1.78-1.43-6.35,1.23-6.14-.06,3.74,2.59,4.78,3.68,7.37-3.78-.86-2.36-.86-6.14,0-1.91,4.37,4.17.74,3.68,3.68-6.66-1.34-3.52,7.13-11.05,4.91,3.25-3.14-1.68-2.44-4.91-2.46.05-1.69-.58-2.7-1.23-3.68,2.25,1.82,4.16,3.3,6.14,0-1.38-.26-1.91-1.36-2.46-2.46,1.61-1.25,4.53-1.2,6.14-2.46-1.39-3.86.35-3.24-1.23-6.14-4.25-1-5.18,2.29-7.37,0,.28,4.19,3.89,3.85,4.91,1.23.84,5.47-5.08,7.52-7.37,7.37.68,0,1.39-.99,0-1.23-.67,2.23-.67,7.59,0,9.82,2.32.27,2.71-1.38,4.91-1.23-.18,1.64,4.99,3.71,1.23,4.91-2.42-4.89-6.94-1.8-11.05-6.14,2.89-1.04-.08-6.33-1.23-7.37-.32,1.91-2.69.85-3.68,0-.52,4.2,3.68,3.69,4.91,6.14-1.77.69-3,1.91-3.68,3.68,1.84.21,4.53-.44,4.91,1.23-5.18-.21-.84,2.75,0,3.68,0,1.23-1,1.46-1.23,2.46,4.29-.62,4.39-5.44,8.6-6.14-3.31,4.05,1.56,4.28,2.46,4.91-2.9,3.01-2.28-1.83-6.14-1.23-1.08,3.01-1.11,7.08-4.91,7.37-.12-1.38,1.78-1.91,0-2.46-7,2.27-2-6.38-8.6-1.23-.17-2.29-.81-4.11-2.46-4.91-.32,1.91-2.69.85-3.68,0v2.46c-2.07-1,5.04,4.23-2.46,4.91,2.47-1.09-.54-5.38-1.23-2.46,1.29.07.97,1.57-1.23,1.23.82,5.32-1.4,7.61-3.68,9.82-2.19-3.13-3.32-1.31-6.14-4.91-1.57,4.2-9.51,3.34-6.14,9.82.68-6.07.63,1.28,2.46,1.23v1.23c-1.39.23-.68,1.23,0,1.23-1.1,3.32-2.96-2.59-3.68-3.68-3.87-.59-.92,5.63-3.68,6.14.92,2.32,3.67.85,1.23,3.68,5.39,1.29,4.03-4.15,8.6-3.68v1.23c-.68,0-1.39.99,0,1.23-3.79,4.28-7.59,1.13-11.05,4.91-.68,0-1.39-.99,0-1.23-.21-1.43-1.94-1.33-3.68-1.23.34-2.8-.3-4.62-2.46-4.91-1.91.32-.85,2.69,0,3.68h-2.46c0-1.23-.99-1.46-1.23-2.46-1.93.53-1.05,3.86-4.91,2.46.53,1.93,3.86,1.05,2.46,4.91-3.06.19-3.8-1.93-6.14-2.46,2.75-4.37-3.66-5.38,1.23-8.6h1.23c1.79,2.88,3.06,2.75,0,4.91,5.01-.32,5.11-5.53,7.37-8.6,1.55,1.72,6.48.07,4.91,4.91,1.2-3.9.62-6.92,2.46-12.28,2.72-.68,1.75,2.34,3.68,2.46,1.15-.87-3.76-6.81-2.46-8.6v-2.46c.23-.99,1.23-1.22,1.23-2.46,1.61.43,1.93,2.16,3.68,2.46,1-.23,1.22-1.23,2.46-1.23-.98-10.04.61-10.53-1.23-15.96-4.12,1.12-.61,2.28-1.23,6.14h-3.68c-.35-1.98,1.16-2.11,1.23-3.68-6.12-1.7-7.24,5.66-11.05,2.46,3.74-1.17,5.28-4.55,11.05-3.68-.64-1.82-1.82-3.1-2.46-4.91-4.59,2.32-7.03-1.21-8.6,0-2.27,1.16-.75-7.03-2.46-2.46-2.49.38.25-3.55,1.23-3.68-.69-1.77-1.92-3-3.68-3.68-.45,2.09.96,2.32,2.46,2.46-2.83.45-1.17,5.38-4.91,4.91.95-1.09,1.32-2.77,1.23-4.91-1.44.2-1.04,2.24-1.23,3.68-1.8-1.07-3.89-1.84-3.68-4.91-1.51,1.37-2.52,1.07-2.46-1.23-2.9,1.12-2.85,7.03,1.23,7.37-.75,1.09-1.48,2.2,0,2.46-.3,3.17-2.11-1.69-4.91,0,3.3,1.41,1.81,4.82-1.23,2.46.54,1.51,1.57,2.52,3.68,2.46-.52,2.76-6.52.03-7.37,2.46,1.28.69,6.22.91,4.91,7.37-2.44,2.04-1.56-.11-4.91,0,4.27,5.45-5.24,1.82-4.91,11.05,1.23,1.69,2.02-.52,3.68,2.46,1.04-.23,1.16.48,1.23,1.23-3.6.09-2.69,4.68-7.37,3.68-.42-3.41-3.58-6.69-7.37-9.82.83-1.37,4.08.24,4.91-3.68-4.39.78-6.74,3.49-8.6,1.23-2.27.18-.75,4.16-2.46,4.91,4.71-3.44,2.65-.5,7.37,1.23-.39,1.66-1.75,2.35-1.23,4.91-2.57.71-3.5,3.04-7.37,2.46.69,2.5,3.69,2.41,1.23,4.91,1.61-1.25,4.53-1.2,6.14-2.46-.07-1.57-1.57-1.7-1.23-3.68,1.57.07,1.7,1.57,3.68,1.23v3.68c.89,3.35-2.44,2.47-2.46,4.91-1.23,0-1.46.99-2.46,1.23,0,1.23.99,1.46,1.23,2.46-.39.64-3.8,1.9-4.91,0,1.12-1.6-2.22-9.19-7.37-8.6-.04-1.82,5.03-5.49,0-4.91,1.98-3.59,3.89-.48,6.14-2.46-1.72-3.04-4.23-2.17-7.37-1.23.16-2.2-1.5-2.59-1.23-4.91,2.11.07,3.15-.95,3.68-2.46h-2.46Zm106.84-30.7c.42,5,3.22-.05,6.14,2.46.28-.95.03-2.42,1.23-2.46.07.75.18,1.45,1.23,1.23.19-3.05-.63-5.1-2.46-6.14.95,4.78-4.06,6.85-6.14,4.91Zm-30.7,30.7c.95.27,2.42.03,2.46,1.23-.95.27-2.42.03-2.46,1.23,4.08,1.51,7-4.31,4.91-4.91-.39,2.1-3.8-1.13-4.91,2.46Z"/><path class="cls-2" d="m130.17,62.26v1.23c-1.93.12-4.26-.16-3.68,2.46,2.8,1.69,4.62-3.17,4.91,0-2.56,2.45.9,4.3,2.46,6.14-1.84-.21-4.53.44-4.91-1.23,4.13-3.72-3.86.31,0-3.68-4.68-.99-3.77,3.6-7.37,3.68v-1.23c3.71-2.86-.02-10.53,8.6-7.37Z"/><path class="cls-2" d="m98.24,67.17c1.91-1.78,5.73-1.64,7.37-3.68-.68,0-1.39-.99,0-1.23,1.92,2.07-1.48,5.52,2.46,7.37.29-2.16,2.11-2.8,4.91-2.46-.36.75-3.05,4.73,0,4.91.34,1.85,5.28,5.17,2.46,6.14-6.63.02-.21,3.19-2.46,3.68.18,2.74,3.09-1.59,6.14,0,.73,3.92-2.3,3.8,0,6.14-.95.28-2.42.03-2.46,1.23,1.24.01,1.54,2.15,0,2.46-2.4-3.33-6.84-4.62-11.05-6.14.35-.66,5.41-1.22,0-2.46.16-2.2-1.5-2.59-1.23-4.91,1,.23,1.22,1.23,2.46,1.23-.15-3.07-2.34-3.84,1.23-4.91-.7-1.15-3.41-1.86-1.23-2.46-1.28-1-6.22,3.36-4.91-4.91-3.15.12-1.97,4.58-3.68,6.14-1.41-1.47-3.11-.48-1.23,0-.14,4.35-4.06-2.61-3.68,1.23-1.19-.03-.95-1.5-1.23-2.46-4.02,3.47-5.8.54-9.82-1.23-2.09.28-3.04-1.38,0-1.23,1.96,1.6,4.94,1.62,2.46-1.23h2.46c.07-.75.18-1.45,1.23-1.23h2.46c-.11,4.53,6.15,4.23,7.37,1.23v-1.23Z"/><path class="cls-3" d="m25.79,64.71c-1.98.35-2.11-1.16-3.68-1.23-.5-2.96,2.24-2.67,1.23-6.14,3.78-.92,2.36,3.37,6.14,2.46,1.26,3.45,1.39,5.23-3.68,4.91Z"/><path class="cls-3" d="m29.47,68.4c.65.99,1.28,1.99,1.23,3.68-2.9-1.58-2.28.16-6.14-1.23.99,2.6,5.06,4.79,7.37,2.46.8,1.25,2.82,1.27,2.46,3.68-2.09.45-2.32-.96-2.46-2.46-3.93.83-2.32,4.08-3.68,4.91-.99.23-1.22,1.23-2.46,1.23h-4.91c.8,1.25,2.82,1.27,2.46,3.68h-4.91c2.34-3.95,2.57-7.28,1.23-12.28,2.8-3.31,6.2-2.38,8.6-3.68h1.23Z"/><path class="cls-1" d="m88.42,67.17c-1.94-4.13,5.1-5.35,4.91-3.68-.29,1.75-2.02,2.07-2.46,3.68,1.82.64,3.1,1.82,4.91,2.46-.07-2.3.95-2.6,2.46-1.23-1.22,3-7.48,3.3-7.37-1.23h-2.46Z"/><path class="cls-4" d="m160.87,67.17c0-1.23,1-1.46,1.23-2.46,1,.23,1.22,1.23,2.46,1.23,1.23,1.63,1.16,4.57,3.68,4.91v1.23c-1.48.26-.76,1.36,0,2.46-2.99-1-2.57-9.55-7.37-7.37Z"/><path class="cls-4" d="m7.37,65.94c4.43.56-2.04,5.57,1.23,8.6-1.61-.43-1.93-2.16-3.68-2.46v-1.23c2.27-.18.75-4.16,2.46-4.91Z"/><path class="cls-1" d="m119.12,88.05c-2.3-2.34.73-2.22,0-6.14-3.05-1.59-5.96,2.74-6.14,0,2.25-.49-4.17-3.66,2.46-3.68,1.23,1.36,9.61,5.39,3.68,9.82Z"/><path class="cls-1" d="m82.28,70.85c4.02,1.77,5.8,4.7,9.82,1.23.28.95.03,2.42,1.23,2.46-.38-3.84,3.55,3.12,3.68-1.23-1.89-.48-.18-1.47,1.23,0,1.71-1.56.54-6.02,3.68-6.14-1.3,8.27,3.63,3.91,4.91,4.91-2.19.6.53,1.31,1.23,2.46-3.57,1.07-1.38,1.84-1.23,4.91-1.23,0-1.46-.99-2.46-1.23v-3.68c-4.33,3.95-.57,7.5-1.23,11.05,1.39-.23.68-1.23,0-1.23.03-1.19,1.5-.95,2.46-1.23,5.41,1.23.35,1.8,0,2.46,4.21,1.52,8.65,2.81,11.05,6.14-.89,3.75,1.26,4.47,1.23,7.37-1.66-.39-2.35-1.75-4.91-1.23-.16-2.2,1.5-2.59,1.23-4.91-1.58-2.1-2.54-4.83-6.14-4.91-.93,4.62,6.52.85,4.91,6.14-2.19-.35-2.52,1.16-1.23,1.23-1.12,3.34-2.28-3.27-6.14-1.23-.23,1.04.48,1.16,1.23,1.23-2.01,1.76-4.8-.82-8.6,2.46v-3.68c4.7,3.3,1.24-4.6,0-6.14-4.83,1.24-7.13-2.71-4.91-4.91-6.93,3.99-19.49-6.21-13.51-11.05.29,1.33,2.02,2.95,2.46,1.23-1.48-.26-.75-1.36,0-2.46Zm14.74,14.74c.02-2.03,3.41-.69,3.68-2.46-2.29-.17-4.1-.81-4.91-2.46.95-.28,2.42-.03,2.46-1.23h-3.68c-.18,3.05-.23,5.96,2.46,6.14Z"/><path class="cls-3" d="m104.38,78.22c-.28,2.32,1.38,2.71,1.23,4.91-.95.28-2.42.03-2.46,1.23.68,0,1.39.99,0,1.23.66-3.55-3.1-7.1,1.23-11.05v3.68Z"/><path class="cls-1" d="m108.07,96.64c1.67.38,1.02,3.07,1.23,4.91,5.69,1.05,1.29-1.93,3.68-2.46,0,1.23,1,1.46,1.23,2.46-2.44,1.24-5.25,2.12-6.14,4.91-4.71-.22-.45,1-1.23,3.68-1.57-.07-1.7-1.57-3.68-1.23-.28.95-.03,2.42-1.23,2.46,0-1.23-1-1.46-1.23-2.46,3.6-.08,4.56-2.81,6.14-4.91-1.66-.39-2.35-1.75-4.91-1.23-.21,1.84.44,4.53-1.23,4.91-5.39-4.43,2.33-11.28,7.37-8.6v-2.46Z"/><path class="cls-2" d="m114.21,101.55v3.68c-2.41-.37-2.43,1.66-3.68,2.46-.27-.96-1.03-1.43-2.46-1.23.89-2.79,3.7-3.67,6.14-4.91Z"/><path class="cls-2" d="m131.4,80.68c-.07.75-.18,1.45-1.23,1.23-1.23,0-1.46-.99-2.46-1.23.89-5.38-2.44.99-2.46-2.46,1.75-.29,2.07-2.02,3.68-2.46,3.42,1.82-2.6,5.49,2.46,4.91Z"/><path class="cls-1" d="m141.22,80.68c1.82,1.04,2.64,3.09,2.46,6.14-1.04.23-1.16-.48-1.23-1.23-1.19.03-.95,1.5-1.23,2.46-2.92-2.51-5.72,2.54-6.14-2.46,2.08,1.93,7.09-.13,6.14-4.91Z"/><path class="cls-1" d="m99.47,137.17c-4.56-.47-3.21,4.98-8.6,3.68,2.44-2.83-.31-1.36-1.23-3.68,2.76-.51-.18-6.73,3.68-6.14.72,1.09,2.58,7,3.68,3.68-.68,0-1.39-.99,0-1.23.8,1.25,2.82,1.27,2.46,3.68Z"/><path class="cls-1" d="m78.59,116.29c1.23-3.79,1.16,3.53,3.68,2.46,1.54,4.11-6.23,5.08-2.46,7.37,1.16-.81,5.98-1.15,6.14-6.14,1.09-.54,2.2-1.08,2.46-2.46-1.3,1.79,3.6,7.73,2.46,8.6-1.94-.11-.96-3.13-3.68-2.46-1.84,5.36-1.26,8.38-2.46,12.28,1.57-4.84-3.36-3.19-4.91-4.91-2.26,3.07-2.36,8.28-7.37,8.6,3.06-2.16,1.79-2.03,0-4.91.35-3.21-.45-5.28-3.68-4.91.02-3.67,3.19-4.18,3.68-7.37,2.11.38-1.59,4.26,3.68,3.68,2.79-.89.37-7,4.91-6.14-.8-1.25-2.82-1.27-2.46-3.68Z"/><path class="cls-1" d="m56.49,122.43c-1.66-2.98-2.45-.77-3.68-2.46-.33-9.23,9.18-5.6,4.91-11.05,3.35-.11,2.47,2.04,4.91,0,1.3-6.46-3.63-6.68-4.91-7.37.85-2.42,6.85.3,7.37-2.46-2.11.07-3.15-.95-3.68-2.46,3.03,2.36,4.53-1.05,1.23-2.46,2.8-1.69,4.62,3.17,4.91,0-1.48-.26-.75-1.36,0-2.46-4.07-.34-4.13-6.25-1.23-7.37-.07,2.3.95,2.6,2.46,1.23-.21,3.07,1.89,3.84,3.68,4.91.19-1.44-.21-3.49,1.23-3.68.09,2.14-.27,3.82-1.23,4.91,3.74.46,2.09-4.46,4.91-4.91-1.5-.14-2.91-.37-2.46-2.46,1.77.69,3,1.92,3.68,3.68-.98.14-3.72,4.06-1.23,3.68,1.7-4.57.18,3.61,2.46,2.46,1.56-1.21,4.01,2.32,8.6,0,.64,1.82,1.82,3.1,2.46,4.91-5.77-.86-7.31,2.52-11.05,3.68,3.82,3.2,4.93-4.16,11.05-2.46-.07,1.57-1.57,1.7-1.23,3.68h3.68c.62-3.86-2.89-5.02,1.23-6.14,1.84,5.43.25,5.92,1.23,15.96-1.23,0-1.46.99-2.46,1.23-1.75-.29-2.07-2.02-3.68-2.46,0,1.23-.99,1.46-1.23,2.46-1.19-.03-.95-1.5-1.23-2.46-3.24-.37-4.03,1.7-3.68,4.91h-1.23c.91-6.28-3.97-4.99-4.91-1.23-3.45-.02,2.92-3.35-2.46-2.46-.85-4.09,2.54-1.98,3.68-1.23,3.39.53,1.15-4.58,3.68-4.91-3.03-.56-7.73-9-11.05-15.96-1.09.54-2.2,1.08-2.46,2.46.9,1.15,2.23,1.86,3.68,2.46-2.4,1.29-4.9,2.46-7.37,3.68.81,3.68,2.63-1.17,4.91,0-.57,3.93-4.68,4.33-4.91,8.6,3.74.46,2.09-4.46,4.91-4.91,2.99,1.23-2.41,5.43,3.68,4.91v4.91c-2.15,2.26-4.27.15-3.68-3.68-3.42-.55.96,6.69-2.46,6.14.54,1.82,1.57-.48,3.68,0-.73,3.92,2.31,3.8,0,6.14-1.19.03-.95,1.5-1.23,2.46-4.43.34-3.33-4.86-7.37-4.91.36-2.5,3.32-2.41,3.68-4.91-2.6.75-7.54,5.45-4.91,7.37-5.43,2.87.39-6.41,2.46-7.37-1.21-1.98-3.28-2.83-4.91-1.23,4.9,2.25-2.82,3.78-2.46,8.6Z"/><path class="cls-2" d="m106.84,95.41c-.75-.07-1.45-.18-1.23-1.23,3.86-2.04,5.02,4.57,6.14,1.23-1.29-.07-.97-1.57,1.23-1.23,1.61-5.29-5.85-1.52-4.91-6.14,3.6.08,4.56,2.81,6.14,4.91.28,2.32-1.38,2.71-1.23,4.91v1.23c-2.4.52,2.01,3.51-3.68,2.46-.21-1.84.44-4.53-1.23-4.91-.07-.75-.18-1.45-1.23-1.23Z"/><path class="cls-2" d="m133.85,79.45v-3.68c-2.11.07-3.15-.95-3.68-2.46,1.64,3.01,3.71-2.21,4.91,1.23-3.35,1.11,3.74,2.75,0,4.91.53,2.34,2.65,3.08,2.46,6.14-2.15-1.12-4.27-2.28-3.68-6.14Z"/><path class="cls-1" d="m28.24,79.45c1.37-.83-.24-4.08,3.68-4.91.14,1.5.37,2.91,2.46,2.46.04,2.23-6.18,4.27-6.14,2.46Z"/><path class="cls-2" d="m146.14,73.31c-.22-2.68,1.01-3.91,3.68-3.68,5.64,2.26,2.61,7.05,6.14,9.82-4.98.48-8.56-.45-8.6-4.91-.07-.75-.18-1.45-1.23-1.23Z"/><path class="cls-2" d="m28.24,96.64v-1.23c2.2-.16,2.59,1.5,4.91,1.23-.25,1.65-5.1,2.29,0,2.46-.28,1.77-3.67.43-3.68,2.46-4.88-1.23,5.4-5.43-1.23-4.91Z"/><path class="cls-2" d="m36.84,88.05c-2.41-3.18,3.33,1.97,1.23,6.14-4.25,1.86-7.73-6.47-7.37,0-2.68-.18-2.64-3.09-2.46-6.14h6.14c-2.27,4.14.32.14,2.46,2.46v-2.46Z"/><path class="cls-4" d="m140,73.31c1,4.69-2.61,4.75-4.91,6.14,3.74-2.17-3.35-3.8,0-4.91,2.14.09,3.82-.27,4.91-1.23Z"/><path class="cls-1" d="m158.42,79.45c1.57-6.43,3.84-1.28,4.91,2.46-2.55.69-3.97,3.51-6.14,1.23-.05-1.69.58-2.7,1.23-3.68Z"/><path class="cls-2" d="m158.42,79.45c-.65.99-1.28,1.99-1.23,3.68,2.17,2.28,3.59-.53,6.14-1.23h1.23c1.75-.29,2.07-2.02,3.68-2.46,1.37,4.66,4.86-.44,6.14,3.68,1.04-.23,1.16.48,1.23,1.23-4.68-.92-1.87,4.99,1.23,3.68-.54,1.09-1.08,2.2-2.46,2.46-6.95.08-4.58,5.25-1.23,7.37.23.99,1.23,1.22,1.23,2.46v1.23c-2.29.17-4.1.81-4.91,2.46,1.04,1.82,3.09,2.64,6.14,2.46-1.41,1.45-1.39,4.34-1.23,7.37-6.7,1.94-1.3-5.1-3.68-4.91-.26,1.48-1.36.75-2.46,0,.78,5.13-4.59,4.86,0,7.37-3.07.21-3.85-1.89-4.91-3.68,9.12-2.1-.86-10.51,8.6-12.28-.28-3.41-3.89-3.47-4.91-6.14v-2.46c-.27-.96-1.03-1.43-2.46-1.23-1.04.23-1.16-.48-1.23-1.23h1.23c-1.36-3.86-.58-3.24,1.23-6.14-4.49-.81-4.71,2.66-8.6,2.46-1.8-1.07-3.89-1.84-3.68-4.91,1.45-.19,3.49.21,3.68-1.23h1.23Z"/><path class="cls-4" d="m174.38,90.5c1.38-.26,1.91-1.36,2.46-2.46h1.23c-.45,2.09.96,2.32,2.46,2.46-1.42,1.82-1.42,3.1,0,4.91-2.99-.69-6.32-1.05-6.14-4.91Z"/><path class="cls-2" d="m73.68,113.83v-4.91c-6.09.52-.69-3.68-3.68-4.91-2.83.45-1.17,5.38-4.91,4.91.24-4.27,4.34-4.66,4.91-8.6-2.29-1.17-4.1,3.68-4.91,0,2.46-1.22,4.97-2.4,7.37-3.68-1.45-.6-2.78-1.31-3.68-2.46.26-1.38,1.36-1.91,2.46-2.46,3.33,6.97,8.02,15.4,11.05,15.96-2.53.33-.29,5.44-3.68,4.91-1.14-.75-4.53-2.86-3.68,1.23h-1.23Z"/><path class="cls-3" d="m164.56,90.5c-.39,1.48-7.77-.32-8.6-2.46,3.03-.16,5.92-.19,7.37,1.23.07.75.18,1.45,1.23,1.23Z"/><path class="cls-3" d="m167.01,91.73v2.46c-2.26,2.2-5.41,8.3-1.23,9.82-1.23,1.64-2.02,3.71-3.68,4.91.97-6.71-1.68-7.49-6.14-8.6,6.99-3.66.59-.98,0-6.14,3.89-.2,4.1,3.26,8.6,2.46.17-2.29.81-4.1,2.46-4.91Z"/><path class="cls-1" d="m45.44,132.25v-3.68c-1.98.35-2.11-1.16-3.68-1.23-.35,1.98,1.16,2.11,1.23,3.68-1.61,1.25-4.53,1.2-6.14,2.46,2.47-2.5-.54-2.41-1.23-4.91,3.86.59,4.8-1.75,7.37-2.46-.52-2.57.84-3.25,1.23-4.91-4.71-1.72-2.65-4.67-7.37-1.23,1.7-.75.18-4.73,2.46-4.91,1.86,2.26,4.21-.44,8.6-1.23-.83,3.93-4.08,2.32-4.91,3.68,3.79,3.14,6.95,6.41,7.37,9.82,4.68.99,3.77-3.6,7.37-3.68.99.65,1.99,1.28,3.68,1.23-.03,1.19-1.5.95-2.46,1.23h-2.46c.39,2.88,3.8,2.75,4.91,4.91,3.31,2.29-2.13-1-4.91,0,4.6.81,7.45,6.96,6.14,4.91.38-1.67,3.07-1.02,4.91-1.23.26-2.1-2.09-3.18,0-3.68,1.09.76,2.2,1.48,2.46,0,1.44.2,1.04,2.24,1.23,3.68-4.89,3.22,1.52,4.23-1.23,8.6,2.34.53,3.08,2.65,6.14,2.46,1.41-3.86-1.93-2.98-2.46-4.91,3.86,1.41,2.98-1.93,4.91-2.46.23.99,1.23,1.22,1.23,2.46-1.98.22,2,5.84-3.68,4.91.23.99,1.23,1.22,1.23,2.46,1.7-1.56,3.48-6,4.91-1.23.41-.29,2.35-4.57,0-6.14-.85-.99-1.91-3.36,0-3.68,2.16.3,2.8,2.11,2.46,4.91,1.74-.11,3.48-.2,3.68,1.23-1.39.23-.68,1.23,0,1.23,3.47-3.78,7.27-.64,11.05-4.91-1.39-.23-.68-1.23,0-1.23.9,2.19,2.23.18,3.68,0-.38,1.49,3.55,4.23,3.68,1.23,1.88,2.71-7.66,9.8-2.46,15.96,4.58-4.15,5-.01,9.82,1.23-1.07,1.2-7.72.53-4.91,3.68,1.19.03.95,1.5,1.23,2.46h-3.68c-.05,1.83,7.29,1.78,1.23,2.46-1.14-.75-4.53-2.86-3.68,1.23-.99-.65-1.99-1.28-3.68-1.23-3.35-.89-2.47,2.44-4.91,2.46h-1.23c-.03-1.19-1.5-.95-2.46-1.23.54-1.09,1.08-2.2,2.46-2.46-.03-1.19-1.5-.95-2.46-1.23.03-1.19,1.5-.95,2.46-1.23,6.5.31,7.17-6.07,2.46-8.6-.11-1.74-.2-3.48,1.23-3.68-1.31-2.78-3.72-4.46-7.37-4.91,4.25,2.35.31,3.32-2.46,1.23.54,1.51,1.57,2.52,3.68,2.46-.89,2.75-7,.6-6.14-2.46-1.78,1.5-1.64,4.91-4.91,4.91-3.35.9-2.47-2.44-4.91-2.46-1.88,3.49-9.26,7.88-6.14,12.28.08-3.6,2.81-4.56,4.91-6.14-2.99,1.42,1.37,5.78,2.46,2.46,5.49-3.49,10.45-3.4,12.28-3.68,2.24-.35,3.23.62,3.68,2.46-1.42,1.82-1.42,3.1,0,4.91-2.79.89-3.67,3.69-4.91,6.14-4.4.11-10.18,1.26-14.74-2.46,1.04.23,1.16-.48,1.23-1.23-2.1.26-3.18-2.09-3.68,0-2.9-.38-2.28-4.26-6.14-3.68-.39-2.85.2-4.71,1.23-6.14-.99.65-1.99,1.28-3.68,1.23-.11,3.35,2.05,2.47,0,4.91-1.93-1.79-6.85.37-8.6,2.46h-1.23c.39-2.85-.2-4.71-1.23-6.14-2.73.53-6.66,2.82-7.37-1.23.99-.23,1.22-1.23,2.46-1.23v2.46c3.48-1.28,5.12-1.28,8.6,0-1.93-8.99-7.95-2.73-12.28-9.82-3.23-.36-.97,4.76-4.91,3.68,1.35-3.38,4.08-6.25,3.68-8.6-.23-.99-1.23-1.22-1.23-2.46.99-.23,1.22-1.23,2.46-1.23-2.87,6.67,3.93-2.57,3.68,0,.75,1.15,2.86,4.53-1.23,3.68,3.03,2.26,4.43,3.06,1.23,6.14,6.24-1.66,3.45-6.21,8.6-7.37-2.6-2.25-3.57-4.23-7.37-2.46-1.7-.75-.18-4.73-2.46-4.91Zm9.82,3.68c2.56.36-1.82,3.32,2.46,3.68-.5-2.96,2.24-2.67,1.23-6.14-2.11.48-3.15-1.82-3.68,0,.07,1.44-9.19-1.83-4.91-4.91-4.43-1.18-2.18,5.3-1.23,6.14,4.18-3.68,4.57,3.52,6.14,1.23Zm9.82,6.14c1.75.29,2.07,2.02,3.68,2.46-.09-2.14.27-3.82,1.23-4.91-2.17.35-3.8-5.78-4.91-2.46,1.48.26.75,1.36,0,2.46.95.27,2.42.03,2.46,1.23h-3.68c-.52,5.91-5.1.63-6.14,4.91-2.57,3.35-4.62-4.34-6.14,1.23.96.27,1.43,1.03,1.23,2.46,4.94-2.91,3.02,1.96,7.37,2.46-.27-.95-.03-2.42-1.23-2.46.35-2.34,7.25,1.66,3.68,3.68,3.32-1.18,7.02-1.99,9.82-3.68-2.03-.02-.69-3.41-2.46-3.68,1.03,5.83-5.5-4.18-2.46,2.46-2.32-.27-2.71,1.38-4.91,1.23.05-1.69-.58-2.7-1.23-3.68,1.45-.6,2.78-1.31,3.68-2.46-.68,0-1.39-.99,0-1.23Zm14.74,19.65c.17,2.29.81,4.1,2.46,4.91.05-1.69-.58-2.7-1.23-3.68,2.41.45,9.38-3.15,3.68-6.14.57,3.85-3.09,3.46-4.91,4.91Z"/><path class="cls-2" d="m36.84,140.85c1.11,1.9,4.52.64,4.91,0,.39,2.35-2.34,5.21-3.68,8.6,3.95,1.08,1.68-4.05,4.91-3.68,4.33,7.09,10.35.83,12.28,9.82-3.48-1.28-5.12-1.28-8.6,0v-2.46c2.01-2.75-4.08-2.75-6.14,0,.2,1.44,2.24,1.04,3.68,1.23.71,4.05,4.64,1.76,7.37,1.23,1.03,1.43,1.62,3.29,1.23,6.14-1.25-.53-6.43-2.65-1.23-2.46-.15-2.71-5.21-.52-7.37-1.23-.38-1.67-3.07-1.02-4.91-1.23-1.05-3.92,1.93-3.8,2.46-6.14-3.97-1.01-4.87,7.28-7.37,3.68v-1.23c1.44-.2,1.04-2.24,1.23-3.68-2.87.38-5.07,2.4-7.37,0,.2-1.43-.27-2.18-1.23-2.46,0-.68-.99-1.39-1.23,0-1.57-2.98-.44-6.3,0-9.82h2.46c1.38,2.71,5.41,2.78,8.6,3.68Z"/><path class="cls-1" d="m27.02,118.75c-.28,2.32,1.38,2.71,1.23,4.91,3.14-.94,5.65-1.81,7.37,1.23-2.25,1.97-4.16-1.13-6.14,2.46,5.03-.57-.04,3.09,0,4.91,5.15-.6,8.49,6.99,7.37,8.6-3.19-.9-7.21-.98-8.6-3.68-.32-1.73-2.69-1.4-3.68-2.46-.35-2.16,5.78-3.8,2.46-4.91-5.12-3.04,1.65-4.8,0-6.14-2.55,1.37-2.6,1.32-1.23-1.23-5.23.47-3.83-4.98,1.23-3.68Z"/><path class="cls-2" d="m151.05,131.03c-.95.27-2.42.03-2.46,1.23.68,0,1.39.99,0,1.23-1.87-6.65,6.67-5.21,9.82-3.68.37-2.41-1.66-2.44-2.46-3.68,4.54-.94,4.61,8.87,7.37,2.46-3.52-.24-2.13-7.92,0-9.82-2.79-2.52-2.26-2.37-3.68-7.37,3.07,1.62,3.85-4.86,4.91-1.23.38,2.83-3.55,1.36-3.68,3.68,3.47,3.08,7.4,5.7,8.6,11.05-2.33,4.91-2.59-.28-1.23-2.46h-3.68c.95,3.15,1.23,6.96,3.68,8.6v1.23c-4.9-.67-3.7-.67-8.6,0-2.01-2.73-6.33-2.31-8.6-1.23Z"/><path class="cls-3" d="m149.82,122.43c-2.07,3.08-3.54,6.76-3.68,8.6-.64-1.82-1.82-3.1-2.46-4.91,1.29-2.7-.04-4.08,2.46-7.37,1.75.29,2.07,2.02,3.68,2.46v1.23Z"/><path class="cls-2" d="m146.14,118.75c.23-1.04-.48-1.16-1.23-1.23-.98.14-3.72,4.06-1.23,3.68-5.65,2.6,2.32-5.64-1.23-7.37.89-4.24,3.7-.82,6.14,0-4.25,2.35-.31,3.32,2.46,1.23v1.23c-1.39.23-.68,1.23,0,1.23-.9,2.19-2.23.18-3.68,0-.62,2.44,6.78,2.81,2.46,4.91v-1.23c-1.61-.43-1.93-2.16-3.68-2.46Z"/><path class="cls-3" d="m71.23,122.43c2.31-2.34-.73-2.22,0-6.14-2.11-.48-3.15,1.82-3.68,0,3.42.55-.96-6.69,2.46-6.14-.58,3.83,1.53,5.95,3.68,3.68h1.23c5.38-.89-.99,2.44,2.46,2.46h1.23c-.37,2.41,1.66,2.44,2.46,3.68-4.55-.86-2.12,5.25-4.91,6.14-5.28.58-1.57-3.31-3.68-3.68h-1.23Z"/><path class="cls-2" d="m56.49,122.43c-.36-4.82,7.36-6.35,2.46-8.6,1.64-1.6,3.71-.76,4.91,1.23-2.07.96-7.89,10.24-2.46,7.37-2.63-1.92,2.31-6.61,4.91-7.37-.36,2.5-3.32,2.41-3.68,4.91,4.04.06,2.94,5.25,7.37,4.91.28-.95.03-2.42,1.23-2.46h1.23c-.49,3.19-3.66,3.7-3.68,7.37,3.24-.37,4.03,1.7,3.68,4.91h-1.23c-.19-1.44.21-3.49-1.23-3.68-.26,1.48-1.36.76-2.46,0,.39-4.89-7.14-1.87-8.6-4.91.95-.27,2.42-.03,2.46-1.23-1.69.05-2.7-.58-3.68-1.23-.07-.75-.18-1.45-1.23-1.23Z"/><path class="cls-2" d="m130.17,138.39c-4.16-3.84,2.48-7.28,2.46-11.05-4.53,4.36-1.5-3.27,4.91,0,.66,1.77-4.78,3-1.23,3.68-1.88,1.96-8.24,2.67-4.91,6.14.23,1.04-.48,1.16-1.23,1.23Z"/><path class="cls-2" d="m130.17,142.08c-.64,1.82-1.82,3.1-2.46,4.91-1.8.02-3.89-5.18-3.68,0-3.68-.81,1.17-2.62,0-4.91,1.09.54,2.2,1.08,2.46,2.46,1.82-.54-.48-1.57,0-3.68h3.68v1.23Z"/><path class="cls-3" d="m131.4,137.17c1.67.38,1.02,3.08,1.23,4.91,1.25-.8,1.27-2.82,3.68-2.46-.36,2.5-3.32,2.41-3.68,4.91-1.33-.3-.83-2.44-2.46-2.46v-3.68c.75-.07,1.45-.18,1.23-1.23Z"/><path class="cls-3" d="m146.14,140.85c-1.19-.03-.95-1.5-1.23-2.46-5.22,5.85-2.02-3.38-7.37,6.14-4.71-4.41,6.81-7.74,2.46-8.6,1.38-4.96,6.21,1.05,6.14,4.91Z"/><path class="cls-2" d="m127.71,159.27c.27-.96,1.03-1.43,2.46-1.23-.36-4.62-5.44-3.65-6.14-4.91,7.14-7.07,4.66-2.4,14.74-7.37.05,1.69-.58,2.7-1.23,3.68,4.47-3.2,2.61-.45,8.6,0,1.69-2.8-3.17-4.62,0-4.91-.23,1.04.48,1.16,1.23,1.23.59,9.78-10.06,7.82-13.51,7.37-1.23,0-1.46-.99-2.46-1.23-1.01,3.47,1.73,3.18,1.23,6.14-2.32-.27-2.71,1.38-4.91,1.23Z"/><path class="cls-3" d="m105.61,131.03c2.32.14.85,4.06,3.68,3.68-.21-5.18,1.89.02,3.68,0,1.57-3.07-.62-3.84,1.23-4.91,3.73,4.44,3.85-1.84,9.82-3.68,1.06,9.35-5.75,5.34-1.23,13.51-1.44-.19-3.48.21-3.68-1.23,1.6-1.64.76-3.71-1.23-4.91.07,2.3-.94,2.6-2.46,1.23-1.62,3.08,5.72,2.98,1.23,4.91-2.32-.14-.85-4.06-3.68-3.68,1.83,6.4-4.49,4.13-7.37,9.82,6.68-.22,9,3.9,15.96,2.46-1.8,2.9-2.59,2.28-1.23,6.14-4-3.64-3.73,4.43-6.14,6.14-2.17-.85-3.8-1.36-4.91,0-2.8-3.16,3.84-2.48,4.91-3.68-4.83-1.24-5.25-5.37-9.82-1.23-5.2-6.16,4.34-13.26,2.46-15.96-.14,3.01-4.06.26-3.68-1.23v-2.46c1.98.35,2.11-1.16,3.68-1.23-.54-1.82-1.57.48-3.68,0,.65-.99,1.28-1.99,1.23-3.68h1.23Z"/><path class="cls-4" d="m9.82,107.69c2.96.74-3.66,1.9-1.23,6.14,3.75.89,4.48-1.26,7.37-1.23-.96.85-2.73,6.85,0,7.37,0-.68.99-1.39,1.23,0-.75.07-1.45.18-1.23,1.23-1.51-.54-2.52-1.57-2.46-3.68-2.57-.52-3.25.84-4.91,1.23,1.52,1.26,4.74-.16,2.46,4.91-.68,6.07-.63-1.28-2.46-1.23-.99-.65-1.99-1.28-3.68-1.23-.23-1.04.48-1.16,1.23-1.23-.43-1.72-2.16-.11-2.46,1.23-3.83-4.66,5.56-4.63,7.37-4.91-3.03-2.29-8.74-1.91-11.05-4.91,1.84-2.86,3-1.87,6.14-1.23,1.75-.29,2.07-2.02,3.68-2.46Z"/><path class="cls-2" d="m77.37,116.29c.94-3.76,5.82-5.05,4.91,1.23v1.23c-2.52,1.07-2.45-6.25-3.68-2.46h-1.23Z"/><path class="cls-3" d="m117.89,112.61c4.09,3.68,8.49,7.06,11.05,12.28-1.94,2.07-5.31-3.42-7.37,2.46-3.06-.5-.07-4.76,2.46-3.68-.14-3.01-4.06-.26-3.68,1.23-1.92-.43,1.07-2.16-1.23-2.46,1.07-1.85,1.84.34,4.91-1.23-.71-2.98-4.64-2.73-7.37-3.68.95-1.09,1.32-2.77,1.23-4.91Z"/><path class="cls-1" d="m109.29,113.83c2.09.61-.83,6.42-4.91,4.91.03-1.19,1.5-.95,2.46-1.23-.03-1.19-1.5-.95-2.46-1.23,1.11-3.59,4.52-.36,4.91-2.46Z"/><path class="cls-2" d="m11.05,123.66c2.28-5.07-.93-3.65-2.46-4.91,1.66-.39,2.35-1.75,4.91-1.23-.07,2.11.95,3.15,2.46,3.68.12,1.38-1.79,1.91,0,2.46-.48,1.75-1.47,2.07,0,3.68-1.69.05-2.7-.58-3.68-1.23.27-1.54,1.91-2.51-1.23-2.46Z"/><path class="cls-2" d="m119.12,124.89c-.8,1.25-2.82,1.27-2.46,3.68-.92-1.95-7.18-3.63-4.91-2.46-.8,2.08-2.82.77-2.46-1.23,1.04.23,1.16-.48,1.23-1.23,1.8,2.39,8.06,3.15,4.91,0,.69-3.56,1.92,1.88,3.68,1.23Z"/><path class="cls-2" d="m138.77,118.75c.26,2.45-5.21,5.25-2.46,6.14-.03,1.19-1.5.95-2.46,1.23.23-1.04-.48-1.16-1.23-1.23,3.14-.96,2.08-6.11,6.14-6.14Z"/><path class="cls-2" d="m45.44,132.25c2.27.18.75,4.16,2.46,4.91h-1.23c.25-2.57-6.55,6.67-3.68,0,.02-2.44,3.35-1.56,2.46-4.91Z"/><path class="cls-2" d="m97.01,132.25c.48-1.75,1.47-2.07,0-3.68,8.54-2.03,3.84,1.87,8.6,2.46h-1.23c.05,1.69-.58,2.7-1.23,3.68,2.11.48,3.15-1.82,3.68,0-1.57.07-1.7,1.57-3.68,1.23v2.46c-1.45.18-2.78,2.19-3.68,0v-1.23c.37-2.41-1.66-2.44-2.46-3.68v-1.23Z"/><path class="cls-4" d="m168.24,131.03c-2.46-1.63-2.74-5.45-3.68-8.6h3.68c-1.37,2.17-1.1,7.37,1.23,2.46,3.17.11,1.29,5.26,6.14,3.68-1.78,5.32-2.74-1.29-7.37,0v2.46Z"/><path class="cls-3" d="m55.26,135.94c-1.57,2.29-1.96-4.9-6.14-1.23-.95-.84-3.2-7.32,1.23-6.14-4.27,3.08,4.98,6.35,4.91,4.91,1.48.26.75,1.36,0,2.46Z"/><path class="cls-4" d="m12.28,126.11c.99.65,1.99,1.28,3.68,1.23v2.46c-.99.65-1.99,1.28-3.68,1.23v-4.91Z"/><path class="cls-4" d="m19.65,129.8c2.5.36,2.41,3.32,4.91,3.68.43-1.61,2.16-1.93,2.46-3.68,3.33,1.11-2.81,2.75-2.46,4.91.99,1.06,3.36.73,3.68,2.46h-2.46c-.44,3.52-1.57,6.85,0,9.82.23-1.39,1.23-.68,1.23,0-1.77.69-3,1.92-3.68,3.68-2.87-.32-.71-5.39,0-6.14.23-1.04-.48-1.16-1.23-1.23,1.14-4.82,2.67-4.56,1.23-9.82-4.61-1.22-2.68,6.03-6.14,2.46v-1.23c.02-2.44,3.35-1.56,2.46-4.91Z"/><path class="cls-3" d="m67.54,131.03c-2.09.5.26,1.58,0,3.68-1.84.21-4.53-.44-4.91,1.23,1.31,2.04-1.54-4.1-6.14-4.91,2.79-1,8.22,2.29,4.91,0-1.11-2.16-4.52-2.03-4.91-4.91h2.46c1.46,3.04,8.98.02,8.6,4.91Z"/><path class="cls-2" d="m55.26,133.48c.54-1.82,1.57.48,3.68,0,1.01,3.47-1.73,3.18-1.23,6.14-4.28-.36.1-3.32-2.46-3.68.75-1.09,1.48-2.2,0-2.46Z"/><path class="cls-3" d="m65.09,140.85h2.46c-.03-1.19-1.5-.95-2.46-1.23.75-1.09,1.48-2.2,0-2.46,1.11-3.33,2.75,2.81,4.91,2.46-.95,1.09-1.32,2.77-1.23,4.91-1.61-.43-1.93-2.16-3.68-2.46v-1.23Z"/><path class="cls-4" d="m146.14,144.53c3.07.15,3.85,2.34,4.91-1.23-.95-.27-2.42-.03-2.46-1.23,5.46-2.72,1.73-2.37,7.37-4.91-2.11-1.57-1.52-5.85-4.91-6.14,2.27-1.08,6.58-1.5,8.6,1.23-1.94.1-4.68-.59-4.91,1.23,5.06-.61-1.18,4.23,3.68,1.23-.2,1.43.27,2.18,1.23,2.46-3.32,1.24-10.31,5.18-7.37,8.6.23,1.04-.48,1.16-1.23,1.23-1.98.35-2.11-1.16-3.68-1.23-.75-.07-1.45-.18-1.23-1.23Z"/><path class="cls-3" d="m47.89,137.17c3.8-1.77,4.77.2,7.37,2.46-5.15,1.16-2.36,5.7-8.6,7.37,3.2-3.08,1.8-3.88-1.23-6.14,4.09.85,1.98-2.54,1.23-3.68h1.23Z"/><path class="cls-3" d="m58.95,149.45c1.19.03.95,1.5,1.23,2.46-4.35-.5-2.43-5.37-7.37-2.46.2-1.43-.27-2.18-1.23-2.46,1.52-5.57,3.57,2.12,6.14-1.23.19,1.45-.21,3.49,1.23,3.68Z"/><path class="cls-2" d="m54.03,161.73c1.75-2.09,6.66-4.25,8.6-2.46,2.05-2.44-.11-1.56,0-4.91,1.69.05,2.7-.58,3.68-1.23-1.03,1.43-1.62,3.29-1.23,6.14,3.86-.58,3.24,3.31,6.14,3.68-1.06.99-.73,3.36-2.46,3.68h-2.46c.23-.99,1.23-1.22,1.23-2.46-2.81-2.98-4.35-1.48-8.6-1.23-.99-.85-3.36-1.91-3.68,0-1.04.23-1.16-.48-1.23-1.23Z"/><path class="cls-4" d="m34.38,153.13c-.28-1.56-3.67-1.61-3.68,0-.81-3.12-5.69-.56-2.46-3.68,2.29,2.4,4.5.38,7.37,0-.19,1.45.21,3.49-1.23,3.68Z"/><path class="cls-2" d="m109.29,160.5c1.11-1.36,2.75-.85,4.91,0,.43,1.61,2.16,1.93,2.46,3.68-5.35-3.58,1.47,3.67-3.68,2.46-.75,4.7,4.72,1.93,2.46,7.37-1.04.23-1.16-.48-1.23-1.23-.27-.96-1.03-1.43-2.46-1.23v-3.68c-2.44,2.05-1.56-.11-4.91,0,0-1.23,1-1.46,1.23-2.46,6.07-.68-1.28-.63-1.23-2.46h3.68c-.28-.95-.03-2.42-1.23-2.46Z"/><path class="cls-3" d="m93.33,155.59c1.65.81,2.29,2.63,2.46,4.91.3-2.85,3.18-3.82,1.23-7.37,4.72,2.53,4.05,8.91-2.46,8.6-.07-.75-.18-1.45-1.23-1.23-1.42-1.82-1.42-3.1,0-4.91Z"/><path class="cls-2" d="m76.14,148.22c2.44.02,1.56,3.35,4.91,2.46,3.27,0,3.13-3.42,4.91-4.91-.86,3.05,5.25,5.2,6.14,2.46-2.11.07-3.15-.94-3.68-2.46,2.76,2.1,6.7,1.12,2.46-1.23,3.64.45,6.06,2.13,7.37,4.91-1.43.21-1.33,1.94-1.23,3.68,1.95,3.55-.93,4.52-1.23,7.37-.17-2.29-.81-4.1-2.46-4.91-.46-1.83-1.45-2.8-3.68-2.46-1.83.28-6.79.19-12.28,3.68-1.15-2.44-4-5.85-1.23-8.6Z"/><path class="cls-2" d="m82.28,140.85c2.35,1.57.41,5.85,0,6.14-1.43-4.77-3.21-.33-4.91,1.23,0-1.23-.99-1.46-1.23-2.46,5.68.92,1.71-4.69,3.68-4.91h2.46Z"/><path class="cls-2" d="m57.72,145.76c1.04-4.28,5.62.99,6.14-4.91h1.23v1.23c-1.39.23-.68,1.23,0,1.23-.9,1.15-2.23,1.86-3.68,2.46.65.99,1.28,1.99,1.23,3.68,2.2.16,2.59-1.5,4.91-1.23-3.04-6.64,3.48,3.37,2.46-2.46,1.77.28.43,3.67,2.46,3.68-2.8,1.7-6.5,2.5-9.82,3.68,3.56-2.02-3.33-6.02-3.68-3.68-1.44-.2-1.04-2.24-1.23-3.68Z"/><path class="cls-4" d="m44.21,154.36c-1.44-.19-3.49.21-3.68-1.23,2.06-2.75,8.15-2.75,6.14,0-1.23,0-1.46.99-2.46,1.23Z"/><path class="cls-4" d="m34.38,154.36c2.49,3.59,3.4-4.69,7.37-3.68-.52,2.34-3.51,2.22-2.46,6.14,1.84.21,4.53-.44,4.91,1.23-1.39.23-.68,1.23,0,1.23-.74,2.22-6.3-.95-6.14-3.68-2.39,1.36-6.28.57-3.68-1.23Z"/><path class="cls-4" d="m126.49,166.64c-1.32-3.14,5.29-4.3,1.23-6.14-.38,2.6-4.26-1.29-3.68-3.68,1.75.29,2.07,2.02,3.68,2.46,2.2.16,2.59-1.5,4.91-1.23,1.51.54,2.52,1.57,2.46,3.68-2.72.68-1.75-2.34-3.68-2.46-1.99-.88-1.99,5.79,0,4.91-.28,1.77-3.66.43-3.68,2.46h-1.23Z"/><path class="cls-2" d="m84.73,156.82c5.7,2.99-1.28,6.59-3.68,6.14.65.99,1.28,1.99,1.23,3.68-1.65-.81-2.29-2.62-2.46-4.91,1.82-1.45,5.49-1.06,4.91-4.91Z"/><path class="cls-4" d="m71.23,162.96c.5-2.09,1.58.26,3.68,0-.07.75-.18,1.45-1.23,1.23-1.82.54.48,1.57,0,3.68-1.25.8-1.27,2.82-3.68,2.46-.18-1.63,4.13-4.57,1.23-4.91-.43,1.61-2.16,1.93-2.46,3.68-1.79-.54.12-1.08,0-2.46,1.73-.32,1.4-2.69,2.46-3.68Z"/><path class="cls-4" d="m67.54,166.64c.66,2.55-4.79,2.6-1.23,1.23-.56-4.66-6.6,1.04-7.37-4.91,4.25-.25,5.79-1.75,8.6,1.23,0,1.23-.99,1.46-1.23,2.46h1.23Z"/><path class="cls-4" d="m108.07,165.41c-.23.99-1.23,1.22-1.23,2.46,3.35-.11,2.47,2.05,4.91,0v3.68c1.43-.2,2.19.27,2.46,1.23-1.43-.2-2.19.27-2.46,1.23-4.13-1.11-.14-2.75-2.46-4.91-3.95-.76-1.68,4.42-4.91,1.23v-3.68c-.85-4.09,2.54-1.98,3.68-1.23Z"/><path class="cls-2" d="m94.56,161.73c-.95.27-2.42.03-2.46,1.23.95.27,2.42.03,2.46,1.23-1.38.26-1.91,1.36-2.46,2.46.95.27,2.42.03,2.46,1.23h1.23v1.23c-.99.65-1.99,1.28-3.68,1.23.38,2.87,2.4,5.07,0,7.37h-1.23c-.79-1.99-4.6-9.54,0-6.14-.07-1.57-1.57-1.7-1.23-3.68-3.93,2.49-4.33,1.4-8.6,2.46-.29-1.75-2.02-2.07-2.46-3.68-2.32.92-.85,3.66-3.68,1.23h-1.23c.48-2.11-1.82-3.15,0-3.68,4.56,3.72,10.33,2.56,14.74,2.46,1.24-2.45,2.12-5.25,4.91-6.14,1.04-.23,1.16.48,1.23,1.23Z"/><path class="cls-4" d="m115.43,174.01c2.26-5.44-3.21-2.67-2.46-7.37,5.15,1.22-1.67-6.03,3.68-2.46h1.23c-1.69,1.57-2.14,7.34,1.23,7.37.21,4.85-1.89-.39-3.68,2.46Z"/><path class="cls-4" d="m92.1,177.69c2.4-2.29.38-4.5,0-7.37,1.69.05,2.7-.58,3.68-1.23-.54,1.09-1.08,2.2-2.46,2.46-.2,2.01,7.57,2.01,7.37,0,1-.23,1.22-1.23,2.46-1.23.03,1.19,1.5.95,2.46,1.23-.23.99-1.23,1.22-1.23,2.46v2.46c-2.1.05-3.18-.91-3.68-2.46-1.65.81-2.29,2.63-2.46,4.91-1.15-.9-1.86-2.23-2.46-3.68-1.25.8-1.27,2.82-3.68,2.46Z"/><path class="cls-4" d="m74.91,167.87c2.83,2.44,1.36-.31,3.68-1.23.43,1.61,2.16,1.93,2.46,3.68,4.27-1.05,4.66.04,8.6-2.46-.35,1.98,1.16,2.11,1.23,3.68-4.6-3.4-.79,4.15,0,6.14-.23.99-1.23,1.22-1.23,2.46-1.44-.2-1.04-2.24-1.23-3.68,1.52-3.97-3.97-.94-2.46-4.91-1.74-.11-3.48-.2-3.68,1.23-1.73.3,1.14,6.11-4.91,4.91-.61-3.86,4.23-3.24,1.23-6.14-.54-1.79-1.08.12-2.46,0-.92-2.32-3.67-.85-1.23-3.68Z"/><path class="cls-4" d="m176.84,97.87c.07,1.57,1.57,1.7,1.23,3.68-1.57-.07-1.7-1.57-3.68-1.23,0-1.23-1-1.46-1.23-2.46,1.44-.2,1.04-2.24,1.23-3.68,1.51.54,2.52,1.57,2.46,3.68Z"/><path class="cls-2" d="m100.7,171.55c-2.62.57-2.34-1.75-2.46-3.68.99.85,3.36,1.91,3.68,0-1.19-.03-.95-1.5-1.23-2.46,1.69-.05,2.7.58,3.68,1.23v3.68h-1.23c-1.23,0-1.46.99-2.46,1.23Z"/><path class="cls-2" d="m119.12,166.64v4.91c-3.36-.02-2.92-5.79-1.23-7.37-3.55-5.14,2.93-3.48,1.23,2.46Z"/></g></g></svg>