<?xml version="1.0" encoding="UTF-8"?><svg id="Layer_2" xmlns="http://www.w3.org/2000/svg" viewBox="0 0 141.9 168.43"><defs><style>.cls-1{fill:#345310;}.cls-1,.cls-2,.cls-3,.cls-4,.cls-5,.cls-6,.cls-7,.cls-8{fill-rule:evenodd;}.cls-2{fill:#59833b;}.cls-3{fill:#618821;}.cls-4{fill:#619437;}.cls-5{fill:#77864f;}.cls-6{fill:#537423;}.cls-7{fill:#142703;}.cls-8{fill:#d2d2d2;}</style></defs><g id="Layer_3"><g><path class="cls-8" d="m124.44,98.59c3.54-.73,10.03,1.49,11.64-1.16,2.17-.16,3.89-.77,4.66-2.33-.9-.26-2.3-.03-2.33-1.16h-9.32c-3.39-1.09-12.76-.36-9.3-4.66,3.66.57,2.63-3.57,6.98-2.33,1.44-1.67,4.01-2.2,6.99-2.33,4.71.45,5.36-3.18,8.15-4.65h-9.32c-3.51-.37-9.05,1.29-9.32-2.33,2.38-1.11,4.62-2.38,6.99-3.49,1.66-.28,1.96-1.92,3.49-2.33,2.92.2,3.64-1.78,4.66-3.49h-4.66c-2.74-.02-3.43,2-6.99,1.17.22-.94,1.17-1.17,1.17-2.33h-2.33c-3.33-2.65,4.75-3.7,4.66-6.99,1.68-2.05,1.07-2.64-2.33-2.32v1.15c-3.55-.05-5.93,1.06-6.98,3.49-.94.62-1.9,1.22-3.49,1.16,1.8-2.86-3.96-3.42-3.49-1.16.55,2.62-6.32,3.6-6.99,1.16,1,.22,1.1-.45,1.16-1.16,1.09-.85,1.76-2.11,2.33-3.49,2.43-1.05,3.55-3.43,3.49-6.98,2.57-.15.49-4.94,1.16-6.99-2.35,1.53-3.94,3.82-4.66,6.99-2.06,1.05-3.61,2.6-4.66,4.66-.94.22-1.15,1.16-2.33,1.16.85,3.17-2.31,2.34-2.33,4.65-1.03.52-2.08,1.03-2.33,2.33-3.85-1.05-5.04,6.47-6.98,3.49-.59-3.66,2.54-4.55,0-6.99,1.7,1.67,3.68.89,3.49-2.33.06-.7.17-1.37,1.16-1.15-.87-3.59,3.19-2.25,2.32-5.82,2.21-5.17,3.26-11.49,5.82-16.3,1.58-.36.96-2.91,1.17-4.65-3.28-.19-2.92,3.28-4.66,4.65-3.91,5.01-6.06,11.79-10.47,16.3v-1.16c1.37-2.9,1.68-6.85,2.33-10.48.37-1.57,1.66-2.22,1.17-4.66,1.72-.21,1.06-2.81,1.16-4.65-.51-1.73-1.49.45-3.49,0,.05,1.59-.56,2.55-1.16,3.48,1.04,3.77-3.8,1.64-4.66,3.49-.2,1.74.42,4.3-1.16,4.66-2.67-2.76-.42-10.45-1.17-15.13-4.65-.39-2.45,6.07-4.66,8.14h-1.16c-1.22-1.22-.73-9.98-2.33-6.98.68,3.78-.79,5.41-1.16,8.14.58,3.68-2.09,4.11-1.15,8.15v1.16c-4.19.68-.04-6.95-4.66-5.82-.91-.25-1.35-.98-1.17-2.33-2.3-.81.28-6.49-2.33-6.98.56-3.66-1.66-4.55-2.33-6.99-.51-1.04-1.02-2.09-2.33-2.33v2.33c.76,5.46-1.52,13.94,1.16,17.46v9.32c-.93.62-1.89,1.22-3.49,1.16-.62-.94-1.22-1.89-1.16-3.49.21-4.09-3.93-3.83-4.66-6.99-1.41.67-2.37,7.53-1.16,6.99-1.05,3.15-2.6-2.66-4.65-2.33-.03-1.13-1.43-.9-2.33-1.16-1.05-2.06-2.6-3.61-4.66-4.66-.41-1.52-2.04-1.83-2.33-3.49h-2.33c-2.44,1.83-6.04,1.1-3.49,3.49,2.96,2.86,2.58,9.06,6.99,10.48,1.42.13,2.76.35,2.33,2.33,1.36,1.74,1.45,4.76,3.49,5.81-1.02,3.46,4.97,5.75,2.33,6.99-.94-.22-1.17-1.16-2.33-1.16-.96-2.92-4.08-3.68-5.82-5.82-2.77-1.88-5.13-4.18-8.15-5.81-.22-.94-1.16-1.17-1.16-2.33-5.28-2.18-1.58,4.63-5.81,3.49-.22.99.45,1.09,1.16,1.16.51,1.03,1.02,2.08,2.32,2.33-.38,2.48-5.08-.19-5.81-1.16-1.24-2.64-7.32-.45-10.48-1.16.51,1.03,1.03,2.08,2.33,2.33.41,1.52,2.05,1.83,2.33,3.48,1.48,1.63,5.7.51,5.82,3.49.33,2.37,3.15,2.29,3.49,4.66-.04,1.13-1.43.9-2.33,1.16h-2.33c-1-1.73-2.94-2.51-5.82-2.33-1.69.51.12,1.03,0,2.33,1.88-.33,2,1.1,3.49,1.16,3.15,2.66,6.11,5.53,10.47,6.99,1.44.5,2.39,1.49,2.33,3.49h-3.49c-1.24-2.64-7.31-.45-10.47-1.17h-2.33c-.03-1.13-1.43-.9-2.33-1.16-.5-2.6-5.74-.47-8.15-1.16-1.9-.85-5.06,2.31-2.33,2.33h1.16c3.5,1.14,5.2,4.11,10.48,3.48,1.61-.04,2.56.56,3.49,1.16-.06.71-.18,1.38-1.16,1.16.99,4.06,5.74,4.35,9.32,5.82.9.26,2.29.03,2.32,1.17-4.46,3.68-16.34-.05-19.79,4.66,3.78-.68,5.41.79,8.15,1.16.15,2.57,4.94.49,6.99,1.16h5.81c1.99,2.66,8.88.43,12.81,1.16,2.49,1.45-4.78,2.87-6.99,3.49-1.53.41-1.83,2.05-3.49,2.32-4.53-.26-6.03,2.51-9.3,3.49-.14,3.33,9.11,3.21,10.47,1.16,2.54.75,3.7-3.29,3.49,1.16-2.32,1.17-4.97,2.01-5.82,4.66-.94.22-1.15,1.16-2.33,1.16h-1.17c-4.33,2.64-6.88,7.08-11.63,9.31.2,1.35,1.84,1.26,3.49,1.16,1.49-.06,1.61-1.5,3.49-1.16.06-.71.17-1.38,1.16-1.16,1.51-2.1,6.28,1.46,9.3-1.16-1.68,4.13-4.71,6.92-8.14,9.3-.54,3.73-4.44,4.11-4.66,8.15,4.66,1.03,8.63-9.26,10.47-3.49.33,2.75,3.12-1.33,4.66-1.16,1.39-2.87,3.99-4.55,6.99-5.82.18,2.9-.6,4.84-2.33,5.82h-1.16c.33,2.05-3.27,5.81,0,6.99,1.83-.88,1.74-3.69,4.66-3.49,2.19-4.01,6.75-5.67,8.14-10.48.25-1.3,1.3-1.8,2.33-2.32.39,4.26-1.29,6.46-2.33,9.3-.06.71-.17,1.38-1.15,1.16v2.33c-1-.21-1.1.45-1.16,1.16-4.22,1.76-.19,6.58-3.49,10.48,2.38,3.42,5.39-2.28,5.81-4.66.23-.94,1.17-1.16,1.16-2.33.22-.94,1.17-1.16,1.16-2.33,0-1.17.94-1.38,1.16-2.33-.06-2.18.9-2.46,2.33-1.16.26,2.2-1.31,2.57-1.17,4.66v3.49c.91.25,1.35.98,1.17,2.33v1.16c1.16,0,1.38-.94,2.33-1.16.73,3.91-1.5,10.8,1.16,12.8.57,1.37,1.24,2.64,2.33,3.49,1.15-6.6,4.11-11.41,3.49-19.78,5.44,1.17-.21-8.75,3.49-9.32.06,5.37.53,10.32,2.33,13.97v4.65c-.26,2.2,1.31,2.57,1.16,4.66,4.9,1.79.18-6.02,3.48-5.82,2.34,1.94,5.41,3.13,5.82,6.99v1.16c1.09-.98,3.9-6,1.16-6.99v-11.63c-.64-1.69,1.36-6.02-1.16-5.82-.2-1.74.42-4.29-1.17-4.66v-3.49c1.54.02,1.07,2.04,2.33,2.33-.52,4.79,4.92,3.62,3.49,9.31.16,2.17.77,3.89,2.33,4.66,2.11,4.09,2.76,9.66,6.99,11.63v-9.31c-.71-.07-1.38-.18-1.16-1.16v-1.16c.18-1.37-.2-3.3,1.16-3.49,1.3.24,1.8,1.29,2.33,2.33-.05,1.61.54,2.55,1.15,3.49.91.25,1.35.98,1.17,2.33,2.38.34,2.29,3.15,4.66,3.48v-11.63c-2.95-2.1-4.37-5.72-5.82-9.32-.51-1.03-1.02-2.08-2.32-2.33v-1.16c-3.22.5-1.1-4.33-3.49-4.65-.52-2.98-1.64-5.35-3.49-6.99.26-.9.03-2.3,1.16-2.33,1.88,1.33,3.68,4.57,5.82,2.33v1.16c-3.16,1.05,2.65,2.6,2.32,4.66,3.75-1.03,2.41,3.02,4.66,3.49,3.18,4.57,9.88,5.64,11.64,11.63h2.33c.77,1.56,2.49,2.17,4.66,2.33.31-2.65-.28-4.37-2.33-4.66-1.22-3.44-5.9-3.42-4.66-9.3h1.16c.77,1.55,2.49,2.16,4.66,2.32,3.87,1.16,4.66,5.42,10.47,4.66,0-1.16-.94-1.38-1.17-2.33-5.67.64-4.5-5.58-9.3-5.81v-1.16c.03-1.13,1.42-.9,2.32-1.16-.34-2.38-3.15-2.29-3.48-4.66-4.01-1.16-6.24-4.1-8.92-6.6.02.56.13,1.12.28,1.69-.17-.57-.26-1.13-.28-1.69-.01-.15-.03-.3-.03-.45.01-.8.12-1.56.27-2.31-.16.75-.27,1.52-.27,2.31,1.35-.05,2.28-.54,3.13-1.1v-1.16c1.35-.98,3.12-1.53,5.82-1.16h6.98c4.76-.28,11.22,1.13,12.81-2.33,2.4-2.3-.8-3.09-3.49-3.48-.99-2.52-7.42.43-8.15-2.33-.19-1.36-1.84-1.27-3.49-1.16-2.61-2.04-8.72-.6-10.47-3.49h10.47Zm-12.23,20.62c.29.46.71.92,1.15,1.38-.45-.46-.85-.92-1.15-1.38Zm1.64,1.91c.67.63,1.47,1.27,2.46,1.91-.99-.64-1.77-1.27-2.46-1.91Zm-1.93-2.4c-.28-.49-.51-.98-.67-1.45.16.47.4.96.67,1.45Zm-.75-6.5c.16-.68.33-1.35.47-1.99-.15.64-.33,1.31-.47,1.99Z"/><path class="cls-6" d="m68.58,18.62c4.62-1.13.47,6.5,4.66,5.82v3.49c-4.31.82-2.91-4.08-4.66-5.82v-3.49Z"/><path class="cls-2" d="m83.7,33.76c2.55-2.52,2.5.29,2.33,3.48v1.16c-2.04,1.68-2.65,1.07-2.33-2.32v-2.33Z"/><path class="cls-1" d="m93.02,62.85h-3.49c2.11-2.93,4.53-5.55,9.3-5.81-.95,2.92-4.07,3.68-5.81,5.81Z"/><path class="cls-6" d="m18.53,61.68c.5-2.6,5.74-.46,8.14-1.15h3.49c-2.36,4.24-6.97.97-11.63,1.15Z"/><path class="cls-2" d="m63.92,105.92c.15,2.09-1.43,2.45-1.16,4.65-2.55-.17-2.5-2.93-2.33-5.81.9-.26,2.3-.03,2.33-1.16.9.25,1.35.98,1.16,2.33Z"/><path class="cls-3" d="m63.92,105.92h1.17c.18,1.36-.2,3.3,1.16,3.49v2.32c-.9.26-2.3.03-2.33,1.16-.91-.25-1.35-.98-1.16-2.33-.26-2.19,1.31-2.56,1.16-4.65Z"/><path class="cls-6" d="m80.21,114.06c-2.57.15-.49,4.94-1.16,6.99-1.49-.06-1.6-1.49-3.49-1.16,1.74-4.3-3.08-3.04,1.16-9.31v3.49c2.2-.13.81-3.84,3.49-3.49v3.49Z"/><path class="cls-5" d="m61.59,5.82c2.2.13.81,3.85,3.49,3.49,2.61.48.03,6.17,2.33,6.98-.19,1.35.25,2.08,1.17,2.33v3.49c-4.14,1.81-.7-3.96-3.49-3.49.67-3.9.57-4.64-2.33-5.82.02-2.74-2-3.42-1.17-6.98Z"/><path class="cls-6" d="m74.39,15.13c.38-2.73,1.85-4.36,1.16-8.14,1.59-3,1.11,5.76,2.33,6.98-.47,2.81,2.13,2.54,1.16,5.82-.94.22-1.15,1.16-2.33,1.16.9-1.04,1.26-2.62,1.17-4.66-2.67,2.32-1.29-.28-3.49-1.16Z"/><path class="cls-4" d="m91.86,9.32c2,.45,2.98-1.73,3.49,0-.1,1.84.56,4.44-1.16,4.65v-3.48c-2.44,1.79-.42,6.91-3.49,2.32.61-.93,1.22-1.89,1.16-3.48Z"/><path class="cls-6" d="m84.87,20.95c1.58-.36.96-2.92,1.16-4.66.86-1.86,5.7.27,4.66-3.49,3.07,4.59,1.05-.52,3.49-2.32v3.48c.49,2.43-.8,3.08-1.17,4.66-2.36,1.91-4.65,3.89-4.66,8.15-2.62.86-.45,6.52-1.16,9.32.21.99-.45,1.09-1.17,1.15.17-3.19.22-6-2.33-3.48.61-1.73,1.72-2.94,2.33-4.66-4.34-3.5-5.46,6.13-5.82,10.47-.86-.82-5.7-2.9-4.66,1.16-1.67-1.43-2.2-4-2.32-6.98h1.15c3.82,2.97,6.4-5.2,5.82-10.48,1.55,1.51,4.33,1.53,4.66-1.16v-1.17Z"/><path class="cls-2" d="m79.05,19.79c4.61.2-.37-1.78,2.33-3.49,2.57.15.49,4.94,1.16,6.99.94-.22,1.16-1.16,2.33-1.16-.33,2.7-3.11,2.67-4.66,1.16.58,5.28-2,13.45-5.82,10.48-.27-4.94,1.07-8.25,2.33-11.64v-1.17c1.18,0,1.38-.94,2.33-1.16Z"/><path class="cls-6" d="m102.33,13.96h2.33c-2.56,4.82-3.61,11.13-5.82,16.3-1.52-.41-1.83-2.06-3.48-2.33,1.3-1.8,3.78-2.42,3.48-5.82,1.97-1.91,1.45-6.32,3.49-8.15Z"/><path class="cls-2" d="m90.69,30.26c3.07,2.25,4.57-7.02,8.14-8.15.29,3.4-2.18,4.02-3.48,5.82,1.66.27,1.96,1.92,3.48,2.33.87,3.58-3.19,2.23-2.32,5.82-1-.22-1.1.45-1.16,1.15-3.93,3.49.9-6.4-5.82-2.32,1.94-2.32-.1-1.48,0-4.66-.22-1,.45-1.1,1.16-1.16v1.16Z"/><path class="cls-4" d="m90.69,30.26c4.41-4.51,6.56-11.29,10.47-16.3h1.16c-2.05,1.84-1.52,6.24-3.49,8.15-3.57,1.13-5.07,10.4-8.14,8.15Z"/><path class="cls-4" d="m37.15,15.13c.28,1.67,1.92,1.97,2.33,3.49-.86-.82-5.7-2.89-4.66,1.17-.93-.62-1.89-1.22-3.49-1.17-2.55-2.39,1.05-1.67,3.49-3.49h2.33Z"/><path class="cls-6" d="m39.48,18.62c2.06,1.05,3.61,2.6,4.66,4.66-2.29,4.65,6.54,8.18,6.98,13.96-.47,2.81,2.13,2.54,1.16,5.82-1.26-.28-.79-2.31-2.33-2.33-4.08.33,2.93,4.34-1.15,4.66-1.35.19-2.08-.25-2.33-1.16,2.64-1.24-3.35-3.53-2.33-6.99,1.19.77,1.2,2.69,3.49,2.33-3.57-3.82-5.14-18.31-6.99-8.14.43-1.98-.91-2.2-2.33-2.33-4.41-1.42-4.03-7.62-6.99-10.48,1.61-.05,2.56.55,3.49,1.17-1.04-4.06,3.8-1.98,4.66-1.17Z"/><path class="cls-3" d="m65.09,18.62c2.79-.46-.65,5.31,3.49,3.49,1.75,1.74.35,6.64,4.66,5.82v-4.66c.93-.62,1.89-1.22,3.48-1.16-1.26,3.4-2.6,6.7-2.33,11.64h-1.15c.12,2.98.65,5.55,2.32,6.98-1.04-4.06,3.8-1.98,4.66-1.16.36-4.34,1.48-13.97,5.82-10.47-.61,1.72-1.72,2.93-2.33,4.66v2.33c-1.96,1.91-1.45,6.31-3.49,8.14,3.11,4.5,8.38-.78,5.82-5.82v-1.16c.71-.06,1.37-.17,1.17-1.15h1.16c-.9,1.03-1.25,2.62-1.16,4.65,2.34-4.77,3.99,1.21,3.49,5.82v2.33c-3.84,2.21,1.97,2.7,2.33,0,1.66,6.28,7.12.66,15.13-4.66.55,3.66-3.13,3.07-3.49,5.82.77,1.56,2.49,2.17,4.66,2.33-.03-1.13-1.43-.9-2.33-1.16,2.42-2.3,4.74-3.88,8.15-2.33-3,4.37-7.26,7.48-12.81,9.32,1.43,3.55,4.45-1.71,5.82,1.16-.26,1.67-3.47.4-3.49,2.32,2.52-.07,10.25.24,12.81,3.49-1.91,3.25-9.58,2.29-16.3,3.49-2.59.17,1.51,2.94,0,5.82,4.83.31,4.54-1.53,8.15,0-5.3,3.15.53,5.19-3.49,6.99.42,3.07,5.94,1.05,6.99,3.49-5.32-.89-12.07-.35-12.81-5.82.94.22,1.16,1.16,2.33,1.16.18-5.22-5.22-4.86-10.47-4.66,1.43-7.49,9.47-8.38,17.46-9.31-5.67-6.26-14.22,4.08-19.79,1.16,3.58-2.74.46-.69,0-4.66h3.49c1.35-.19,2.07.26,2.33,1.16,3.14-3.45,6.22-6.97,10.47-9.3-3.56-2.85-9.14.43-13.96,2.33-3.83-2.32-2.96-7.54-3.49-10.48-4.24,1.2-6.42,4.45-6.99,9.32-2.21-2.18-2.93-.13-5.82,0-1.5-5.77,2.82-5.72,2.33-10.48-1.17.75-1.2,2.67-3.49,2.33-.21-6.38-2.15-11.04-3.48-16.29-1.27.28-.8,2.31-2.33,2.33-1.02-1.76-1.74.31-4.66-1.16v-1.17c4.53-4.73.16-6.56,0-12.81h1.17Z"/><path class="cls-5" d="m63.92,31.43v1.17c2.92,1.48,3.64-.6,4.66,1.16-1.13.03-.9,1.43-1.17,2.33h-3.49c-.9-1.04-1.25-2.63-1.16-4.66h1.16Z"/><path class="cls-5" d="m93.02,18.62c-.65,3.63-.95,7.58-2.33,10.48-.71.06-1.38.17-1.16,1.16-2.63-.65,1.41-1.81-1.16-3.49.01-4.26,2.3-6.24,4.66-8.15Z"/><path class="cls-3" d="m46.47,24.44c2.04-.34,3.6,5.48,4.65,2.33-1.21.55-.24-6.32,1.16-6.99.72,3.16,4.87,2.9,4.66,6.99-1.68-.65-2.84-1.81-3.49-3.49-2.59.49-.91,6.18,0,6.99.05,2.98-.86,1.42-2.33,1.16-1.43-2.44-3.22-4.54-4.65-6.99Z"/><path class="cls-3" d="m53.44,30.26c-.91-.81-2.59-6.49,0-6.99.65,1.68,1.81,2.84,3.49,3.49-.05,1.6.55,2.55,1.16,3.49.68,2.42,2.44,3.76,3.49,5.82-4.7.21-3.86-9.26-8.15-5.82Z"/><path class="cls-4" d="m110.48,30.26c.71-3.17,2.31-5.46,4.66-6.99-.67,2.04,1.41,6.84-1.16,6.99-.94.81-3.19,1.8-3.49,0Z"/><path class="cls-2" d="m40.64,31.43c1.85-10.16,3.42,4.32,6.99,8.14-2.3.36-2.31-1.56-3.49-2.33-2.05-1.05-2.13-4.07-3.49-5.81Z"/><path class="cls-6" d="m89.53,34.92c6.72-4.08,1.89,5.81,5.82,2.32.19,3.22-1.79,4-3.49,2.33,2.54,2.43-.59,3.33,0,6.99h-1.16c.49-4.62-1.15-10.59-3.49-5.82-.08-2.02.26-3.62,1.16-4.65-.21-1,.45-1.1,1.16-1.16Z"/><path class="cls-6" d="m89.53,30.26c-.1,3.18,1.94,2.34,0,4.66-.71.06-1.37.17-1.16,1.16h-1.16c.71-2.79-1.46-8.45,1.16-9.32,2.57,1.68-1.47,2.84,1.16,3.49Z"/><path class="cls-3" d="m105.82,34.92c1.05-2.06,2.6-3.61,4.66-4.66.3,1.8,2.55.81,3.49,0,.05,3.55-1.06,5.93-3.49,6.98-1.49-1.52-1.49-4.28,0-5.81-2.37.34-2.29,3.15-4.66,3.49Z"/><path class="cls-3" d="m24.35,33.76c-.71-.07-1.38-.18-1.16-1.16,4.23,1.13.54-5.68,5.81-3.49,0,1.16.94,1.38,1.16,2.33-1.35-.19-2.07.25-2.33,1.17v2.33c-.93-.62-1.89-1.22-3.48-1.16Z"/><path class="cls-2" d="m53.44,30.26c4.29-3.44,3.45,6.03,8.15,5.82-.32,1.88,1.1,2,1.17,3.48-1.57,1.14-2.33,3.11-3.49,4.66-.94-.22-1.16-1.17-2.33-1.17-1.11-3.54-1.37-7.94-4.66-9.3-.22-.94-1.16-1.16-1.16-2.33,1.47.25,2.38,1.82,2.33-1.16Z"/><path class="cls-6" d="m62.76,39.57c-.21,1,.45,1.1,1.16,1.16-.84,3.56,1.19,4.25,1.17,6.99-2.49-.55-2.21,1.67-2.33,3.49-.5.42-4.32-5.71-5.82-8.15,1.16,0,1.38.94,2.33,1.17,1.16-1.55,1.92-3.51,3.49-4.66Z"/><path class="cls-3" d="m61.59,29.1c-.21.99.45,1.09,1.17,1.16v1.16c-.08,2.03.26,3.62,1.16,4.66v4.65c-.71-.06-1.37-.17-1.16-1.16-.06-1.48-1.49-1.6-1.17-3.48-1.05-2.07-2.81-3.4-3.49-5.82,1.61.05,2.56-.55,3.49-1.16Z"/><path class="cls-5" d="m27.83,32.59c.26-.91.98-1.35,2.33-1.17,3.02,1.64,5.38,3.93,8.15,5.81,1.74,2.14,4.86,2.91,5.82,5.82-1-.21-1.1.46-1.16,1.17-3.69-2.9-7.64-5.56-11.64-8.14-2.69.36-1.29-3.37-3.49-3.49Z"/><path class="cls-6" d="m68.58,33.76c1.53-.02,1.06-2.05,2.33-2.33,1.33,5.26,3.27,9.91,3.48,16.29,2.3.35,2.32-1.57,3.49-2.33.49,4.76-3.83,4.71-2.33,10.48,2.9-.13,3.61-2.18,5.82,0,.57-4.87,2.75-8.12,6.99-9.32.54,2.94-.34,8.16,3.49,10.48,4.83-1.9,10.41-5.18,13.96-2.33-4.25,2.34-7.33,5.85-10.47,9.3-.26-.9-.98-1.35-2.33-1.16,1.74-2.13,4.86-2.89,5.81-5.81-4.77.26-7.2,2.88-9.3,5.81.46,3.97,3.58,1.92,0,4.66,5.56,2.92,14.12-7.43,19.79-1.16-7.98.93-16.03,1.83-17.46,9.31,5.25-.2,10.65-.57,10.47,4.66-1.16,0-1.38-.94-2.33-1.16.73,5.48,7.49,4.93,12.81,5.82,1.39,1.52.45,1.83,0,3.48h-1.17c-.19-1.36-2.12-.98-3.49-1.16-.51-3.36-8.79,1.04-9.32-2.32,10.28,0-2.72-3-4.65-4.66.19-1.36,2.12-.99,3.49-1.16-1.13-2.37-4.47-2.52-8.15-2.33-2.34-2.37.51-2.29,1.16-4.66-5.63.59-6.63-3.45-8.15-6.99,2.32-.01,1.48-3.17,4.66-2.33-.28-3.59-1.19-6.58-2.33-9.3-2.83,5.59-6.15,8.38-10.48,6.99-1.12-.04-.9-1.43-1.15-2.33v-2.33c3.26-3.35-3.29-6.75-1.16-12.81-4.51.5-4.14,1.28-6.99-1.16.09-1.65.19-3.29-1.17-3.49v-2.32h3.49c.26-.9.03-2.3,1.17-2.33Z"/><path class="cls-1" d="m65.09,41.9c2.84,2.44,2.48,1.67,6.99,1.16-2.13,6.06,4.43,9.46,1.16,12.81-2.53.19-.54-4.13-1.16-5.82-3.43,3.62-.82,9.18-2.33,16.29-1.35-.19-2.08.26-2.33,1.16-3.51-3.17-5.13-7.62-9.32-4.66.75,2.66,2.31,7.03,0,9.32.17,2.6,2.94-1.51,5.82,0-.84,3.56,1.19,4.24,1.17,6.99-4.53.51-4.77,5.32-6.99,8.14.41,1.83,2.05-1.02,2.33,1.16,2.99-.12,1.87-4.33,3.49-5.81h6.99c1.33,1.38,1.31,4.11,1.16,6.98,2.52-4.79,2.71,1.34,6.98,1.16-1.25-1.68-6.97-10.14-2.33-13.96,1.88,2.39,5.84,2.7,10.48,2.33-3.65-2.53-8.84-8.53-6.99-12.81-.26-1.68-3.47-.4-3.49-2.33-1.57.37-.96,2.92-1.16,4.66-1.98.24-3.01-1.98-3.48,0-3.47-2.42,1.54-6.12,0-10.47h1.16c.25.9.03,2.29,1.15,2.33,4.33,1.4,7.65-1.39,10.48-6.99,1.14,2.73,2.05,5.72,2.33,9.3-3.18-.84-2.34,2.32-4.66,2.33,1.52,3.54,2.52,7.57,8.15,6.99-.65,2.37-3.5,2.29-1.16,4.66,3.68-.19,7.02-.04,8.15,2.33-1.37.18-3.3-.2-3.49,1.16,1.93,1.66,14.93,4.66,4.65,4.66h-1.15c-.9-1.07-7.51-4.78-6.99,0-3.21-2.8-7.42-2.7-10.48,0,1.86-1.75-.03-4.91-2.33-5.82-3.91,5.52,4.33,8.83,4.66,13.96-4.16-.67-3.54,3.45-3.49,6.99-1.52-.41-1.83-2.05-3.49-2.33v-1.16c.16-2.09-1.42-2.46-1.16-4.66-1.97-.43-2.19.91-2.32,2.33-2.57-.15-.5-4.94-1.16-6.99-.92.41-8.72-3.41-8.15,2.33v2.33c-5.07-.8-6.44,2.1-8.15,4.66-1.77-3.34-1.64-9.11,3.49-10.48.87-3.58-3.19-2.23-2.33-5.81,3.56.84,4.25-1.2,6.99-1.16.71-3.74-4.19-1.59-1.17-4.66-10.65-.7-5.89,6.83-12.8,9.32h-4.66c4.4-6.09,19.52-16.98,4.66-22.12h-2.33c-.19-1.36-2.13-.98-3.49-1.15,3.57-4.65,10.38,4.23,16.29-1.16-1.64-2.25-3.07-4.69-3.49-8.15,7.06.7,5.12,10.41,11.64,11.63.3-2.85,2.79-12.63-1.16-16.29.49-2.43-.8-3.08-1.16-4.66Z"/><path class="cls-4" d="m20.86,34.92c.73.98,5.43,3.64,5.81,1.16-1.3-.25-1.8-1.3-2.32-2.33,1.59-.05,2.55.55,3.48,1.16v-2.33c2.2.13.81,3.85,3.49,3.49-.33,1.88,1.1,2,1.16,3.48-1.72,1.35-2.94,1.35-4.66,0-2.88-1.37-6.85-1.68-10.47-2.33v-1.15c1.88.33,2-1.1,3.49-1.16Z"/><path class="cls-6" d="m31.33,36.09c4.01,2.58,7.95,5.25,11.64,8.14,1.04.51,2.08,1.03,2.33,2.33-.56,5.53,1.45,1.29,3.49,3.49.84,3.18-2.32,2.34-2.33,4.66-5.15.1-8.4-1.69-10.48-4.66,1.47-.28,1.18-2.32,0-2.33.35-2.77,3.15,1.29,3.49,2.33,1.43-.5,2.39-1.49,2.33-3.49-.72-1.2-4.87.15-4.66-4.66-2.8-.47-2.53,2.13-5.82,1.16-1,3.71,1.84,3.6,2.33,5.82-4.4,2.62,9.09,6.87,0,4.66-1.35.19-2.07-.26-2.33-1.16-.12-2.99-4.54-1.67-4.66-4.66.17-3.66-2.98-4-5.81-4.66-.13-2.98-4.34-1.87-5.82-3.49-.28-1.66-1.92-1.96-2.33-3.48v-1.16c2.09-.16,2.46,1.42,4.66,1.16v1.15c3.62.65,7.58.95,10.47,2.33,2.11,4.67-.36-.31-3.48,0,2.86,4.22,5.1,3.11,9.3,2.33-.22-.94-1.16-1.15-1.16-2.33-.06-1.48-1.49-1.6-1.16-3.48Z"/><path class="cls-4" d="m105.82,34.92c2.37-.35,2.29-3.16,4.66-3.49-1.49,1.53-1.49,4.29,0,5.81-.57,1.38-1.24,2.64-2.33,3.49-.22-1.32-1.16-.64-1.16,0-1.13-.03-.9-1.43-1.16-2.33-3.18-.84-2.34,2.32-4.66,2.33.02-2.31,3.18-1.48,2.33-4.65,1.17,0,1.38-.94,2.33-1.16Z"/><path class="cls-3" d="m63.92,40.73v-2.33c1.35.2,1.26,1.85,1.17,3.49.37,1.57,1.66,2.22,1.16,4.66,2.38,5.84-1.43,5.41-1.16,11.64-4.32-2.66-5.76-8.2-8.15-12.81-2.07,1.04-2.96,3.25-6.99,2.33-.22-.94-1.16-1.16-1.15-2.33,4.08-.31-2.93-4.33,1.15-4.66,1.54.02,1.07,2.05,2.33,2.33.96-3.28-1.64-3.01-1.16-5.82,1.36-.19.99-2.12,1.16-3.48,3.28,1.36,3.54,5.77,4.66,9.3,1.5,2.44,5.32,8.57,5.82,8.15.12-1.83-.16-4.04,2.33-3.49.02-2.74-2-3.43-1.17-6.99Z"/><path class="cls-6" d="m66.25,46.56c3.95,3.66,1.47,13.44,1.16,16.29-6.52-1.23-4.58-10.93-11.64-11.63.42,3.46,1.86,5.91,3.49,8.15-5.91,5.39-12.72-3.48-16.29,1.16,1.36.18,3.3-.21,3.49,1.15h-3.49c-.94-.22-1.16-1.16-2.33-1.15h-2.33c-.41-1.83-2.04,1.02-2.33-1.16.77-4.71-9.81-4.08-6.99-6.99h2.33c.26.9.98,1.35,2.33,1.16,4.26,4.45,11.36.02,15.14,5.82,6.15.44-.53-4.72,5.81-3.49-1.69-4.52-5.39-7.03-9.3-9.32-.25-1.3-1.29-1.81-2.33-2.33.06-.7.17-1.38,1.16-1.17,1.16,0,1.38.94,2.33,1.17.25.91.98,1.35,2.33,1.16,0,1.16.93,1.38,1.15,2.33,4.03.92,4.92-1.29,6.99-2.33,2.39,4.61,3.83,10.14,8.15,12.81-.26-6.23,3.54-5.8,1.16-11.64Z"/><path class="cls-5" d="m127.93,37.24c1.03,1.87-4.35,7.25-8.14,8.15-.22-2.54.94-3.7,3.48-3.49-.03-1.13-1.42-.9-2.32-1.17,1.05-2.43,3.43-3.54,6.98-3.49Z"/><path class="cls-6" d="m117.46,41.9c1.59.05,2.55-.55,3.49-1.17.9.26,2.29.03,2.32,1.17-2.54-.21-3.7.95-3.48,3.49v2.33c-1.04.51-2.09,1.02-2.33,2.33-4.47,1.25-1.55,2.64-4.66,4.66,2.19,4.01,5.32.33,9.32,0v1.16c-1.64,1.86-4.02,2.97-6.99,3.49,4.71,3.49,10.82-1.56,17.46,0h4.66c.36,2.67-3.37,1.29-3.49,3.48-2.98.13-5.55.66-6.99,2.33-4.34-1.24-3.31,2.9-6.98,2.33-4.95,1.88-7.56,1.58-11.64,2.33.36,1.58,2.92.96,4.66,1.16-7.53,1.99,3.66,3.86-2.33,6.99,1.06,2.43,3.43,3.55,6.99,3.49,3.77,1.33-3.13,1.31-4.66,1.16,3.17,4.03,10.13-2.15,12.8,1.17,3.27-.02-2.77-3.18,2.33-2.33.73,2.76,7.16-.19,8.15,2.33v2.32c-4.2-2.28-3.16,1.56-6.99,2.33-3.91-2.68-11.97-1.22-16.29-3.48-1.05-2.44-6.57-.42-6.99-3.49,4.03-1.79-1.8-3.84,3.49-6.99-3.61-1.53-3.33.31-8.15,0,1.51-2.88-2.59-5.65,0-5.82,6.72-1.21,14.39-.24,16.3-3.49-2.56-3.25-10.29-3.57-12.81-3.49.02-1.92,3.23-.65,3.49-2.32-1.37-2.87-4.4,2.38-5.82-1.16,5.55-1.84,9.81-4.94,12.81-9.32-3.41-1.55-5.73.03-8.15,2.33.9.26,2.3.03,2.33,1.16-2.17-.16-3.89-.77-4.66-2.33.37-2.75,4.04-2.16,3.49-5.82-8,5.32-13.47,10.94-15.13,4.66-.36,2.7-6.17,2.21-2.33,0,3.55.05,4.52-2.46,6.99-3.49,2.41,1.84,5.21-3.4,9.3-3.49.67,2.43,7.53,1.46,6.99-1.17,4.92-.18.02,1.84-1.16,2.33-.37,2.06,6.51,2.08,4.66-1.16Z"/><path class="cls-4" d="m119.79,45.39c3.79-.9,9.17-6.28,8.14-8.15v-1.15c3.4-.33,4.01.27,2.33,2.32.09,3.28-7.98,4.33-4.66,6.99v1.16c-3.28-.96-3.01,1.64-5.81,1.16v-2.33Z"/><path class="cls-2" d="m32.49,39.57c0,1.17.94,1.38,1.16,2.33-4.21.78-6.44,1.89-9.3-2.33,3.13-.31,5.59,4.67,3.48,0,1.72,1.35,2.94,1.35,4.66,0Z"/><path class="cls-4" d="m117.46,41.9c1.86,3.24-5.02,3.22-4.66,1.16,1.18-.49,6.08-2.51,1.16-2.33-.46-2.25,5.3-1.7,3.49,1.17Z"/><path class="cls-3" d="m45.3,46.56c3.91,2.29,7.62,4.79,9.3,9.32-6.35-1.23.34,3.93-5.81,3.49-3.78-5.8-10.88-1.37-15.14-5.82,9.09,2.21-4.4-2.04,0-4.66.94.22,1.16,1.16,2.33,1.16,2.08,2.97,5.33,4.76,10.48,4.66,0-2.32,3.17-1.48,2.33-4.66-2.04-2.2-4.05,2.04-3.49-3.49Z"/><path class="cls-6" d="m48.79,83.81c6.9-2.49,2.15-10.02,12.8-9.32-3.02,3.06,1.88.91,1.17,4.66-2.74-.03-3.43,2-6.99,1.16-.86,3.58,3.2,2.23,2.33,5.81-5.13,1.37-5.27,7.14-3.49,10.48,1.71-2.56,3.08-5.46,8.15-4.66.47,2.81-2.13,2.53-1.17,5.82v1.16c-1.98.43-2.19-.91-2.33-2.33-2.84,2.59-5.37,5.49-6.99,9.32-2.18-3.39.69-9.88-3.48-12.81,1.01-1.7.92-4.5,4.65-3.49.49-3.98-.35-6.63-4.65-5.81Z"/><path class="cls-6" d="m39.48,86.12c-.8-3.54,10.14-5.85,1.16-6.98h-1.16c.03-1.13,1.43-.9,2.33-1.16h4.66c1.42-4.24-5.69-4.57,1.16-4.66-1.87-2.01-5.25-2.52-9.32-2.33-.14-1.19,5.03-2.35,1.16-3.49.38-.3,8.81,1.22,10.47,3.49.94-.22,1.16-1.16,2.33-1.16-.41-3.46-1.85-5.91-3.48-8.15,14.87,5.14-.26,16.03-4.66,22.12h3.49c-1.46,3.27-4.77,3.84-8.15,2.32Z"/><path class="cls-3" d="m91.86,46.56c1.93,2.98,3.13-4.54,6.98-3.49-.22.94-1.16,1.17-1.15,2.33-2.47,1.04-3.44,3.55-6.99,3.49v-2.33h1.16Z"/><path class="cls-3" d="m24.35,47.72h2.32c.12,2.99,4.54,1.67,4.66,4.66h-2.33c-.41-3.08-5.93-1.05-6.98-3.49.9-.26,2.29-.03,2.33-1.16Z"/><path class="cls-3" d="m119.79,47.72c2.8.47,2.53-2.13,5.81-1.16-.22.94-1.16,1.16-1.16,2.33,4.25.36,7.58-.19,10.48-1.16-.22.94-1.16,1.16-1.16,2.33-1.53.41-1.84,2.05-3.49,2.33v-1.16c-4-2.15-8.41-2.08-12.8-1.17.24-1.31,1.29-1.81,2.33-2.33Z"/><path class="cls-2" d="m30.16,60.53c.06-2-.89-2.99-2.33-3.49,1.71-2.75,3.08,4.58,8.15,2.33.28,2.18,1.92-.66,2.33,1.16-.62.93-1.22,1.89-1.16,3.48-3.18.85-2.34-2.31-4.66-2.33-1.53.42-1.83,2.06-3.49,2.33.51,1.04,1.03,2.09,2.33,2.33-2.27,4.19-8.79-3.12-9.3,2.33-3.28-.21-1.46-5.53-5.82-4.66-.93-.61-1.89-1.21-3.49-1.16,2.58-1.67-1.47-2.83,1.16-3.48h2.33c.51,1.03,1.02,2.08,2.33,2.32,4.67-.19,9.27,3.08,11.63-1.15Z"/><path class="cls-4" d="m122.12,54.71c.62-3.26,5.6-2.15,8.14-3.49v1.16c-2.37,1.11-4.6,2.38-6.99,3.49h-1.15v-1.16Z"/><path class="cls-7" d="m73.24,58.2h-1.16c1.54,4.35-3.47,8.05,0,10.47.47-1.98,1.5.24,3.48,0,.2-1.74-.41-4.29,1.16-4.66.02,1.93,3.23.65,3.49,2.33-1.86,4.28,3.34,10.28,6.99,12.81-4.64.37-8.6.06-10.48-2.33-4.64,3.82,1.08,12.28,2.33,13.96-4.27.18-4.46-5.96-6.98-1.16.15-2.86.17-5.6-1.16-6.98h-6.99c-1.63,1.48-.5,5.7-3.49,5.81-.28-2.18-1.92.66-2.33-1.16,2.21-2.82,2.46-7.63,6.99-8.14.02-2.75-2-3.43-1.17-6.99-2.88-1.51-5.65,2.6-5.82,0,2.31-2.29.75-6.65,0-9.32,4.19-2.96,5.8,1.49,9.32,4.66.25-.9.98-1.35,2.33-1.16,1.51-7.11-1.1-12.67,2.33-16.29.63,1.69-1.36,6.01,1.16,5.82v2.33Z"/><path class="cls-3" d="m1.06,59.36c-2.73-.02.43-3.18,2.33-2.33,2.41.69,7.65-1.44,8.15,1.16-2.78.7-8.45-1.47-9.32,1.16h-1.16Z"/><path class="cls-3" d="m123.27,55.87c.26,3.62,5.8,1.96,9.32,2.33v1.16c-6.64-1.56-12.75,3.49-17.46,0,2.97-.52,5.35-1.64,6.99-3.49h1.15Z"/><path class="cls-4" d="m2.23,59.36c.87-2.63,6.54-.46,9.32-1.16.9.26,2.3.03,2.33,1.16-2.63.65,1.42,1.81-1.16,3.48-5.28.63-6.98-2.34-10.48-3.48Z"/><path class="cls-3" d="m132.59,58.2h9.32c-2.79,1.47-3.44,5.1-8.15,4.65.13-2.19,3.85-.81,3.49-3.48h-4.66v-1.16Z"/><path class="cls-6" d="m40.64,60.53c-1.94,2.31.1,1.48,0,4.65h-5.82c2.09,4.17-.09,3.55-4.66,3.49v3.49c1.79.88,11.51-.15,11.64,5.82-.9.26-2.3.03-2.33,1.16h-8.15c.29-1.27,2.32-.8,2.33-2.33h2.33c-2.17-4.75-9.09.81-13.96-2.33-2.81-.47-2.54,2.13-5.82,1.16-1.83.41,1.02,2.05-1.16,2.33-2.74-.38-4.37-1.85-8.15-1.16,3.44-4.71,15.33-.98,19.79-4.66-.03-1.13-1.42-.9-2.32-1.16.42-1.98-.91-2.19-2.33-2.33.51-5.44,7.04,1.86,9.3-2.33-1.3-.24-1.81-1.29-2.33-2.33,1.67-.27,1.96-1.91,3.49-2.33,2.32.02,1.48,3.18,4.66,2.33-.05-1.59.54-2.55,1.16-3.48h2.33Z"/><path class="cls-6" d="m42.97,61.68h1.16c.49,2.22,3.33,2.11,2.33,5.82-5.39.88-1.63-4.45-3.49-4.66v-1.16Z"/><path class="cls-3" d="m16.2,64.01c4.36-.87,2.54,4.45,5.82,4.66,1.42.14,2.75.35,2.33,2.33-3.58-1.47-8.33-1.76-9.32-5.82.99.22,1.1-.45,1.16-1.16Z"/><path class="cls-4" d="m120.96,75.66c.87-3,8.6.85,8.14-3.49h9.32c.03,1.13,1.43.9,2.33,1.17-.77,1.56-2.49,2.17-4.66,2.33h-15.13Z"/><path class="cls-2" d="m127.93,81.48c-5.1-.85.94,2.31-2.33,2.33-2.67-3.32-9.63,2.86-12.8-1.17,1.53.15,8.42.17,4.66-1.16-3.56.05-5.93-1.06-6.99-3.49,5.99-3.13-5.2-4.99,2.33-6.99-1.74-.2-4.3.42-4.66-1.16,4.08-.75,6.69-.45,11.64-2.33-3.45,4.3,5.92,3.57,9.3,4.66.46,4.34-7.27.49-8.14,3.49-1.66-.1-3.3-.19-3.49,1.16h-3.49c1.75,2.89,7.86,1.46,10.47,3.49,1.66-.11,3.3-.2,3.49,1.16Z"/><path class="cls-4" d="m22.02,74.49c-.55,2.49,1.66,2.21,3.48,2.33,4.44,2-4.53-.09-3.48,2.33-2.05-.67-6.84,1.41-6.99-1.16,2.18-.28-.66-1.92,1.16-2.33,3.28.97,3.01-1.64,5.82-1.16Z"/><path class="cls-6" d="m75.55,97.77c1.67.28,1.97,1.92,3.49,2.33-.04-3.54-.67-7.66,3.49-6.99-.33-5.13-8.57-8.44-4.66-13.96,2.3.91,4.19,4.07,2.33,5.82,3.06-2.7,7.27-2.8,10.48,0-.52-4.78,6.08-1.07,6.99,0-3.67-1.34-2.83,1.83-4.66,2.32-3.71,1.01-3.6-1.83-5.82-2.32-3.59-.87-1.42,4.01-5.82,2.32,1.8,2.08,3.2,4.56,4.66,6.99-.28,2.05-2,2.65-4.66,2.33-.57,3.67,2.1,4.11,1.16,8.15-2.7-.38-4.47.19-5.82,1.16v-2.33c.48-2.81-2.12-2.53-1.16-5.82Z"/><path class="cls-5" d="m40.64,79.15c8.98,1.12-1.96,3.44-1.16,6.98v1.16c-2.7.38-4.47-.18-5.82-1.16v-2.32c2.2-.62,9.47-2.05,6.99-3.49v-1.16Z"/><path class="cls-3" d="m48.79,83.81c4.3-.82,5.14,1.84,4.65,5.81-3.72-1.01-3.64,1.79-4.65,3.49,4.18,2.93,1.3,9.42,3.48,12.81,1.62-3.83,4.14-6.72,6.99-9.32.14,1.42.35,2.76,2.33,2.33.15,2.09-1.43,2.45-1.16,4.66-6.83-4.41-6.43,7.19-15.13,4.66,1.74-1.75,3.48-3.5,4.65-5.82-2.97.13-4.07,2.13-5.81,3.49-2.15-1.48,3.79-4.68,4.66-6.99-2.8-2.69-1.78-3.76-1.16-8.15-.22-.94-1.17-1.15-1.16-2.33-4.03,1.03-7.65,2.45-9.32,5.82-1.04-.51-2.08-1.02-2.33-2.33.94-.22,1.16-1.17,2.33-1.17-.19-3.9-9.24-1.17-3.49-4.66,1.35.99,3.13,1.54,5.82,1.16v-1.16c3.38,1.52,6.69.95,8.15-2.32h1.16Z"/><path class="cls-6" d="m32.49,112.9c6.05-2.49,8.9-8.17,13.97-11.63-.77-3.48-2.5,1.11-4.66,0,1.3-1.68,1.25-2.84-1.16-3.49v-2.33c-2.9-.18-3.61,1.83-5.82,2.33v-3.49c-4.12-.24-2.3,5.47-6.99,4.66.22-.94,1.17-1.16,1.16-2.33.85-2.64,3.5-3.48,5.82-4.66.25,1.31,1.29,1.81,2.33,2.33,1.67-3.37,5.29-4.79,9.32-5.82-.01,1.17.94,1.38,1.16,2.33-.62,4.4-1.64,5.47,1.16,8.15-.87,2.31-6.81,5.51-4.66,6.99,1.74-1.36,2.84-3.37,5.81-3.49-1.16,2.32-2.91,4.07-4.65,5.82,8.7,2.53,8.3-9.06,15.13-4.66-.26-2.2,1.31-2.57,1.16-4.66v-1.16c2.75,2.85,2.16-1.74,5.82-1.16,1.4,1.53.45,1.84,0,3.49-.49,2.22-3.33,2.11-2.33,5.82h-1.17c.19-1.35-.26-2.08-1.16-2.33-.03,1.13-1.43.9-2.33,1.16-.17,2.89-.22,5.64,2.33,5.81-.19,1.35.25,2.08,1.16,2.33.03-1.13,1.43-.9,2.33-1.16v-2.32c-.43-1.98.9-2.2,2.33-2.33-.62.93-1.22,1.89-1.17,3.48.25,3.75-2.07,4.93-1.16,9.31-.43-2.67-5.1-1.11-4.66-4.66-2.08,2.97-5.76,4.33-4.66,10.48-.94-.22-1.15-1.16-2.33-1.16-.15-2.09,1.43-2.46,1.17-4.66,1.47-3.95,2.63-8.22,3.49-12.8-1.13.03-.9,1.42-1.16,2.33-2.8.47-2.53-2.13-5.82-1.16-1.03.51-2.08,1.02-2.33,2.32-6.12,4.88-8.47,5.46-10.47,10.48-1.36-.19-.99-2.12-1.16-3.49,1.73-.99,2.51-2.93,2.33-5.82-3,1.27-5.59,2.95-6.99,5.82-1.54-.17-4.33,3.91-4.66,1.16,1.36-1.74,3.37-2.84,3.49-5.82Z"/><path class="cls-2" d="m33.66,86.12c-5.75,3.48,3.3.75,3.49,4.66-1.17,0-1.38.94-2.33,1.17.21-4.46-.95-.42-3.49-1.17.2-2.52-4.12-.52-5.82-1.16.33-2.39,4.34-1.09,4.66-3.49,1.67-.27,1.96-1.91,3.49-2.32v2.32Z"/><path class="cls-5" d="m112.81,84.97c4.32,2.27,12.38.81,16.29,3.48-1.35-.19-2.07.26-2.33,1.16h-4.65c-.87-2.62-6.54-.45-9.32-1.16.45-1.66,1.39-1.96,0-3.48Z"/><path class="cls-4" d="m136.08,83.81c2.7.39,5.9,1.19,3.49,3.48-1.58,3.46-8.05,2.05-12.81,2.33.26-.9.98-1.35,2.33-1.16,3.83-.77,2.79-4.61,6.99-2.33v-2.32Z"/><path class="cls-6" d="m108.15,87.29c.04,5.33-4.08.06-6.99,1.16,4.14,2.95.79,8.25,5.82,5.82-.87,2.2-3.47.81-1.16,3.49-2.46-1.04-3.44-3.54-6.99-3.49.11-4.34,1.31-3.31,0-6.99h9.32Z"/><path class="cls-3" d="m97.68,84.97h1.15c.53,3.36,8.8-1.04,9.32,2.32h-9.32c1.31,3.67.11,2.64,0,6.99,3.55-.05,4.53,2.46,6.99,3.49,1.55,1.16,3.51,1.92,4.66,3.49,4.48,2.12,5.07,2.86,6.99,5.82.21.99-.46,1.09-1.16,1.16h-1.16c-4.99.33-3.83-5.49-8.15-5.82-2.77-3.44-6.87-5.54-10.47-8.15-.52-1.04-1.03-2.08-2.33-2.33-.14-4.11-2.14.13-3.49-3.49-.99,2.43-4.43,4.91-2.33,6.99-.11,1.66-.19,3.29,1.16,3.49-.81.93-1.81,3.19,0,3.49-.85,2.07-2.12.17-3.49,0,1.37,6.24-.02,6.18-2.33,10.47h-1.16c-1.26-.28-.79-2.31-2.33-2.33-2.68-.35-1.29,3.37-3.49,3.49v-8.14c1.35-.98,3.13-1.54,5.82-1.16.93-4.04-1.73-4.48-1.16-8.15,2.65.33,4.37-.28,4.66-2.33-1.46-2.42-2.85-4.91-4.66-6.99,4.41,1.69,2.23-3.19,5.82-2.32,2.22.49,2.11,3.33,5.82,2.32,1.83-.49.99-3.66,4.66-2.32Z"/><path class="cls-6" d="m96.51,94.28c3.6,2.61,7.7,4.71,10.47,8.15-2.98.88-7.28-5.53-10.47-8.15Z"/><path class="cls-6" d="m94.18,91.95c-1.44,1.3-2.39,1.02-2.33-1.17-3.42,1,1.51,2.94,0,5.82-.93-.62-1.89-1.22-3.49-1.16-2.1-2.08,1.34-4.55,2.33-6.99,1.35,3.62,3.36-.62,3.49,3.49Z"/><path class="cls-3" d="m20.86,89.62c3.27-.99,4.77-3.76,9.3-3.49-.32,2.4-4.33,1.1-4.66,3.49,1.7.64,6.02-1.35,5.82,1.16-1.36,2.05-10.61,2.16-10.47-1.16Z"/><path class="cls-3" d="m62.76,89.62c2.32,1.41,4.97.96,5.82,0,2.04,1.37,2.15,10.62-1.17,10.48.45-1.66,1.4-1.96,0-3.49-3.66-.58-3.07,4.02-5.82,1.16-.96-3.29,1.64-3.01,1.17-5.82v-2.33Z"/><path class="cls-2" d="m108.15,87.29c1.37.19,3.3-.2,3.49,1.16-.87,3.65-2.55,8.13,4.66,12.81v1.17c-2.81.47-2.53-2.13-5.82-1.17-1.14-1.57-3.11-2.33-4.66-3.49-2.31-2.69.29-1.29,1.16-3.49-5.04,2.42-1.68-2.87-5.82-5.82,2.91-1.1,7.03,4.16,6.99-1.16Z"/><path class="cls-4" d="m116.3,102.43v-1.17c-7.21-4.68-5.53-9.16-4.66-12.81h1.17c2.78.71,8.44-1.46,9.32,1.16h-2.33c-2.71-.37-4.47.19-5.82,1.16v1.17c-.93.62-1.89,1.22-3.49,1.16,2.86,2.57,5.11,5.76,9.32,6.99.34,2.37,3.15,2.28,3.48,4.66-.9.26-2.29.03-2.32,1.16-2.38-.35-2.29-3.16-4.66-3.49Z"/><path class="cls-6" d="m110.48,101.26c3.29-.96,3.01,1.64,5.82,1.17,2.37.34,2.28,3.15,4.66,3.49v1.16c4.8.23,3.63,6.45,9.3,5.81.22.94,1.17,1.17,1.17,2.33-5.81.77-6.6-3.49-10.47-4.66-.22-.99.45-1.09,1.17-1.15-.28-2.06-2-2.65-4.66-2.33-1.92-2.96-2.51-3.7-6.99-5.82Z"/><path class="cls-2" d="m88.36,95.44c1.6-.05,2.56.54,3.49,1.16,1.51-2.88-3.42-4.83,0-5.82-.06,2.18.89,2.47,2.33,1.17,1.3.25,1.8,1.29,2.33,2.33,3.19,2.62,7.49,9.03,10.47,8.15,4.32.34,3.16,6.16,8.15,5.82-1.24,5.88,3.44,5.86,4.66,9.3-1.04.51-2.09,1.03-2.33,2.33h-2.33c-1.76-5.99-8.46-7.06-11.64-11.63,1.04.51,2.09,1.02,2.33,2.32,1.76-1.01-.32-1.74,1.16-4.65-2.74,3.58-.69.46-4.66,0v-1.16c5.46-.48-1.75-5.14-4.65-4.66.22.94,1.16,1.16,1.15,2.33-1.03-.51-2.08-1.03-2.32-2.33v-1.16c-2.14,2.25-3.94-1-5.82-2.33-1.13.03-.9,1.43-1.16,2.33-1.35-.2-1.27-1.84-1.16-3.49Z"/><path class="cls-6" d="m98.83,104.75c.34-2.06-5.48-3.61-2.32-4.66.24,1.3,1.29,1.81,2.32,2.33,1.53.41,1.84,2.04,3.49,2.33v1.16c3.96.46,1.92,3.58,4.66,0-1.48,2.91.6,3.64-1.16,4.65-.24-1.3-1.29-1.8-2.33-2.32-2.25-.47-.91-4.52-4.66-3.49Z"/><path class="cls-3" d="m27.83,98.93c4.69.81,2.86-4.9,6.99-4.66v3.49c-.65,1.68-1.81,2.84-3.49,3.49-2.32,2.19-4.97,1.09-5.82,2.33-3.15-1.06.99-4.29,2.33-4.66Z"/><path class="cls-5" d="m26.67,97.77c1.17,0,1.38-.94,2.33-1.16.01,1.16-.94,1.38-1.16,2.33-1.34.37-5.48,3.6-2.33,4.66.85-1.24,3.5-.14,5.82-2.33v3.49c-3.02,2.62-7.79-.93-9.3,1.16-1-.22-1.1.45-1.16,1.16-1.89-.34-2,1.1-3.49,1.16-1.66.09-3.29.19-3.49-1.16,4.75-2.23,7.3-6.67,11.63-9.32h1.17Z"/><path class="cls-6" d="m34.82,97.77c2.21-.5,2.93-2.51,5.82-2.33v2.33c-4.5.16-4.59,4.72-8.15,5.82h-1.16v-2.33c1.68-.65,2.84-1.81,3.49-3.49Z"/><path class="cls-2" d="m32.49,103.59c3.56-1.1,3.65-5.66,8.15-5.82,2.41.65,2.46,1.82,1.16,3.49,2.16,1.11,3.89-3.48,4.66,0-5.08,3.46-7.92,9.15-13.97,11.63h-3.49c-.71-4.98,3.8-4.74,3.49-9.3Z"/><path class="cls-6" d="m65.09,105.92c-1-3.71,1.83-3.6,2.33-5.82,3.32.14,3.2-9.11,1.17-10.48-.85.96-3.5,1.41-5.82,0-.57-5.74,7.23-1.92,8.15-2.33.66,2.05-1.41,6.84,1.16,6.99.13-1.42.35-2.76,2.32-2.33-.25,2.2,1.32,2.57,1.16,4.66-2.79-2.19-5.49,1.43-3.48,4.66-2.82-2.93-2.59,2.34-3.49,4.66v1.16c-1.43.13-2.76.35-2.33,2.33-1.36-.19-.99-2.13-1.16-3.49Z"/><path class="cls-2" d="m52.28,108.25c3.29-.97,3.02,1.64,5.82,1.16.26-.91.03-2.3,1.16-2.33-.86,4.57-2.02,8.84-3.49,12.8-1.43-1.3-2.39-1.02-2.33,1.16-2.19-.13-.81-3.85-3.49-3.49,1.04-2.84,2.72-5.05,2.33-9.3Z"/><path class="cls-3" d="m98.83,102.43c.01-1.17-.93-1.38-1.15-2.33,2.9-.48,10.11,4.17,4.65,4.66-1.66-.28-1.96-1.92-3.49-2.33Z"/><path class="cls-6" d="m89.53,98.93c1.86,1.64,2.97,4.01,3.49,6.99-10.54,5.02,4.41,10.73,2.33,16.29-1.27-.28-.8-2.32-2.33-2.33-2.71-.79-3.12-3.87-5.82-4.66,1.13,4.85.38,6.39,2.33,11.64h-1.16c-1.56-.77-2.17-2.49-2.33-4.66,1.43-5.7-4.02-4.52-3.49-9.32h1.16c2.31-4.29,3.7-4.23,2.33-10.47,1.37.17,2.64,2.07,3.49,0-1.81-.3-.81-2.56,0-3.49Z"/><path class="cls-2" d="m76.72,108.25v2.32c-4.25,6.27.58,5.01-1.16,9.31,1.89-.33,2,1.1,3.49,1.16.67-2.05-1.41-6.84,1.16-6.99,1.58.37.97,2.92,1.17,4.66.08,5.88-1.47,6.66,0,11.64v3.49c-.93-.62-1.89-1.22-3.49-1.16,1.44-6.09-1.9-7.42-2.33-11.64-1.36.19-.98,2.12-1.16,3.49-2.78-4.38-1.09-14.26,2.33-16.29Z"/><path class="cls-2" d="m95.35,122.21c2.08-5.56-12.87-11.27-2.33-16.29,2.39.31.27,5.15,3.49,4.65v1.16c1.53,5.26-.03,6.8,2.32,11.64.19,1.35-.25,2.07-1.15,2.33-.52-1.04-1.03-2.09-2.33-2.33v-1.16Z"/><path class="cls-5" d="m117.46,107.08c2.65-.33,4.38.27,4.66,2.33-.71.06-1.38.17-1.17,1.15-2.17-.16-3.89-.77-4.66-2.32.7-.07,1.37-.18,1.16-1.16Z"/><path class="cls-4" d="m48.79,118.72c.99.22,1.09-.45,1.15-1.16,2.69-.36,1.3,3.37,3.49,3.49-.22.94-1.16,1.16-1.16,2.33-1.98.05-3.01-.87-3.48-2.33v-2.33Z"/><path class="cls-4" d="m32.49,103.59c.3,4.56-4.21,4.32-3.49,9.3h3.49c-.13,2.98-2.13,4.08-3.49,5.82-1.84-5.77-5.81,4.52-10.47,3.49.22-4.04,4.11-4.42,4.66-8.15,3.43-2.38,6.46-5.17,8.14-9.31v-1.16h1.16Z"/><path class="cls-4" d="m49.95,110.57c-1.4,4.8-5.95,6.47-8.14,10.48-2.92-.2-2.83,2.61-4.66,3.49-3.27-1.17.33-4.94,0-6.99h1.16c.18,1.37-.2,3.3,1.16,3.49,2-5.01,4.35-5.6,10.47-10.48Z"/><path class="cls-3" d="m67.41,110.57c3.24-.51-.91,6.35,2.33,5.82-.91,5.18,1.54,6.99,1.16,11.64v3.49c-1.79-3.65-2.27-8.6-2.33-13.97-3.7.57,1.95,10.49-3.49,9.31-.84-3.56,1.18-4.25,1.16-6.99-.9-4.38,1.42-5.56,1.16-9.31Z"/><path class="cls-3" d="m98.83,114.06c1.45,3.6,2.88,7.22,5.82,9.31v6.99c-2.57-1.7-2.3-6.23-5.82-6.99-2.35-4.85-.79-6.39-2.32-11.64,1.3.25,1.8,1.3,2.32,2.33Z"/><path class="cls-3" d="m54.6,124.54c1.18,0,1.38.94,2.33,1.16.41,1.53,2.06,1.83,2.33,3.49-.99-.22-1.1.45-1.16,1.16-.94.22-1.16,1.16-2.33,1.16v-1.16c.19-1.35-.25-2.08-1.17-2.33v-3.49Z"/><path class="cls-4" d="m89.53,126.87c.62.93,1.22,1.89,1.16,3.49,2.58.64,1.66-2.22,3.49-2.33-.22.99.45,1.09,1.16,1.16v9.3c-4.23-1.97-4.88-7.54-6.99-11.63h1.16Z"/><path class="cls-3" d="m49.95,128.03c-1.03.51-2.08,1.02-2.32,2.33-1.93-.17,1.22-4.86,0-8.15.06-.71.17-1.37,1.16-1.16.47,1.46,1.5,2.38,3.48,2.33,0,1.17-.94,1.38-1.16,2.33.01,1.16-.93,1.38-1.16,2.33Z"/><path class="cls-6" d="m76.72,108.25c-3.42,2.04-5.11,11.91-2.33,16.29.19-1.37-.2-3.3,1.16-3.49.43,4.23,3.77,5.55,2.33,11.64.22.99-.45,1.09-1.17,1.16-.99-.22-1.09.45-1.16,1.15-3.3-.2,1.42,7.62-3.48,5.82.15-2.09-1.43-2.46-1.16-4.66v-8.14c1.87-1.95,2.44-12.47-1.16-12.81v-6.98c2.97,3.07,2.31-1.59,2.33-4.66h4.65v4.66Z"/><path class="cls-5" d="m98.83,123.37c3.53.76,3.25,5.29,5.82,6.99v4.65c-2.37-.34-2.28-3.15-4.66-3.48.19-1.35-.25-2.08-1.17-2.33-.61-.94-1.21-1.89-1.15-3.49.9-.26,1.34-.98,1.15-2.33Z"/><path class="cls-3" d="m49.95,128.03c-.42,2.38-3.43,8.08-5.81,4.66,3.3-3.9-.72-8.72,3.49-10.48,1.22,3.29-1.93,7.98,0,8.15.24-1.31,1.29-1.82,2.32-2.33Z"/><path class="cls-3" d="m77.88,132.69c1.6-.05,2.56.55,3.49,1.16v-3.49h1.16v8.14c-3.41-.07-4.32-2.65-5.82-4.65.71-.07,1.38-.18,1.17-1.16Z"/><path class="cls-3" d="m76.72,133.86c1.5,1.99,2.41,4.57,5.82,4.65v-2.33c2.74.99-.07,6.01-1.16,6.99v-1.17c-.41-3.86-3.48-5.04-5.82-6.99.07-.7.18-1.37,1.16-1.15Z"/><path class="cls-4" d="m62.76,2.33c.67,2.43,2.88,3.33,2.33,6.99-2.69.36-1.29-3.37-3.49-3.49-.1-1.66-.19-3.29,1.17-3.49Z"/><path class="cls-3" d="m101.16,13.96c1.74-1.36,1.37-4.84,4.66-4.65-.2,1.74.42,4.29-1.17,4.65h-3.49Z"/><path class="cls-3" d="m61.59,19.79c-2.68-3.51-.41-12-1.16-17.46V0c1.31.24,1.81,1.29,2.33,2.33-1.35.2-1.27,1.84-1.17,3.49-.84,3.56,1.19,4.24,1.17,6.98.96,3.29-1.64,3.02-1.17,5.82v1.17Z"/><path class="cls-6" d="m61.59,18.62c-.47-2.8,2.13-2.53,1.17-5.82,2.9,1.18,3,1.92,2.33,5.82h-1.17c.16,6.25,4.53,8.08,0,12.81h-1.16v-1.16c-.73-3.54,1.49-10.03-1.17-11.64Z"/><path class="cls-5" d="m73.24,23.28c-.93-4.04,1.73-4.47,1.15-8.15,2.2.88.82,3.48,3.49,1.16.09,2.04-.26,3.62-1.17,4.66v1.17c-1.59-.05-2.55.54-3.48,1.16Z"/><path class="cls-3" d="m61.59,18.62c2.65,1.62.43,8.11,1.17,11.64-.71-.07-1.37-.18-1.17-1.16v-10.48Z"/><path class="cls-5" d="m46.47,24.44c1.43,2.44,3.22,4.54,4.65,6.99,0,1.17.94,1.38,1.16,2.33-.18,1.36.2,3.29-1.16,3.48-.44-5.78-9.26-9.32-6.98-13.96.9.26,2.3.03,2.33,1.16Z"/><path class="cls-3" d="m10.38,33.76c3.16.71,9.24-1.48,10.48,1.16-1.49.06-1.62,1.49-3.49,1.16-2.2.25-2.57-1.32-4.66-1.16v1.16c-1.3-.25-1.81-1.3-2.33-2.33Z"/><path class="cls-6" d="m86.03,38.41c2.56,5.05-2.72,10.32-5.82,5.82,2.05-1.83,1.53-6.23,3.49-8.14-.32,3.39.28,4,2.33,2.32Z"/><path class="cls-4" d="m20.86,43.06c2.83.66,5.98,1,5.81,4.66h-2.32c-.35-2.37-3.16-2.29-3.49-4.66Z"/><path class="cls-3" d="m13.87,46.56c2.88-.18,4.83.6,5.82,2.33-1.35-.19-2.08.25-2.33,1.16-1.49-.06-1.62-1.49-3.49-1.16.12-1.3-1.69-1.81,0-2.33Z"/><path class="cls-3" d="m133.75,46.56h4.66c-1.02,1.71-1.74,3.69-4.66,3.49,0-1.16.94-1.38,1.16-2.33-2.9.98-6.23,1.52-10.48,1.16,0-1.16.94-1.38,1.16-2.33v-1.16h2.33c0,1.16-.94,1.38-1.17,2.33,3.56.84,4.25-1.19,6.99-1.16Z"/><path class="cls-5" d="m22.02,48.88c1.05,2.44,6.57.41,6.98,3.49-2.82,2.91,7.75,2.28,6.99,6.99-5.07,2.26-6.44-5.08-8.15-2.33-4.36-1.46-7.32-4.32-10.47-6.99.25-.91.98-1.35,2.33-1.16h2.33Z"/><path class="cls-2" d="m117.46,50.05c4.38-.91,8.8-.99,12.8,1.17-2.54,1.34-7.52.23-8.14,3.49-4,.33-7.12,4.01-9.32,0,3.1-2.01.19-3.41,4.66-4.66Z"/><path class="cls-4" d="m16.2,59.36c3.16.71,9.23-1.48,10.47,1.16-2.4.69-7.64-1.45-8.14,1.15-1.31-.24-1.82-1.29-2.33-2.32Z"/><path class="cls-3" d="m48.79,61.68c1.64,2.25,3.07,4.69,3.48,8.15-1.16,0-1.38.94-2.33,1.16-1.66-2.28-10.09-3.8-10.47-3.49,3.86,1.14-1.3,2.31-1.16,3.49,4.07-.19,7.45.31,9.32,2.33-6.85.08.25.42-1.16,4.66h-4.66c-.14-5.97-9.85-4.94-11.64-5.82v-3.49c4.56.05,6.75.68,4.66-3.49h5.82c.1-3.17-1.94-2.34,0-4.65,1.16,0,1.38.93,2.33,1.15v1.16c1.87.21-1.9,5.54,3.49,4.66,1-3.71-1.84-3.6-2.33-5.82h4.66Z"/><path class="cls-3" d="m120.96,75.66h15.13c-1.62,2.65-8.1.43-11.64,1.16h-6.98c.19-1.35,1.84-1.27,3.49-1.16Z"/><path class="cls-2" d="m22.02,79.15c-1.05-2.42,7.92-.33,3.48-2.33-1.83-.12-4.03.16-3.48-2.33,4.87,3.14,11.79-2.42,13.96,2.33h-2.33c-2.9-.18-3.6,1.83-5.82,2.33h-5.81Z"/><path class="cls-3" d="m33.66,76.82c-.01,1.53-2.04,1.06-2.33,2.33h9.32v1.16c-3.92-.73-10.82,1.5-12.81-1.16,2.22-.5,2.93-2.51,5.82-2.33Z"/><path class="cls-3" d="m75.55,97.77c-.96,3.29,1.65,3.01,1.16,5.82h-4.65c-.02,3.06.64,7.73-2.33,4.66.19-1.35-.26-2.08-1.16-2.33.9-2.32.67-7.58,3.49-4.66-2-3.23.69-6.85,3.48-4.66v1.16Z"/><path class="cls-3" d="m67.41,110.57c-.05-1.59.55-2.55,1.17-3.48v-1.16c.9.25,1.35.98,1.16,2.33v8.14c-3.24.52.91-6.34-2.33-5.82Z"/><path class="cls-4" d="m119.79,117.55c2.05.28,2.64,2,2.33,4.66-2.17-.16-3.89-.77-4.66-2.33.24-1.3,1.29-1.81,2.33-2.33Z"/><path class="cls-3" d="m81.38,118.72c2.53-.2.52,4.13,1.16,5.82v5.82h-1.16c-1.47-4.98.08-5.76,0-11.64Z"/><path class="cls-5" d="m70.91,128.03c.38-4.66-2.08-6.46-1.16-11.64v-1.16c3.61.34,3.03,10.86,1.16,12.81Z"/><path class="cls-2" d="m93.02,119.88c.19,4.2-4.77,5.45,1.17,6.99v1.16c-1.84.1-.91,2.97-3.49,2.33.05-1.61-.55-2.56-1.16-3.49-1.95-5.25-1.2-6.8-2.33-11.64,2.71.79,3.12,3.87,5.82,4.66Z"/><path class="cls-3" d="m94.18,126.87c-5.94-1.53-.98-2.79-1.17-6.99,1.53.01,1.06,2.05,2.33,2.33v1.16c-1.36.19-.99,2.12-1.16,3.49Z"/><path class="cls-3" d="m59.26,129.2v13.96c-2.66-1.99-.43-8.89-1.16-12.8.06-.71.18-1.38,1.16-1.16Z"/><path class="cls-2" d="m59.26,133.86v-4.66c-.27-1.67-1.92-1.96-2.33-3.49-1.1-6.15,2.58-7.51,4.66-10.48-.44,3.55,4.23,1.98,4.66,4.66.02,2.74-2,3.43-1.16,6.99-2.29,1.98-.37,8.16-3.49,9.31-1.26-.28-.79-2.31-2.33-2.32Z"/><path class="cls-4" d="m59.26,133.86c1.54,0,1.07,2.04,2.33,2.32,3.13-1.14,1.21-7.32,3.49-9.31.62,8.37-2.34,13.19-3.49,19.79-1.09-.85-1.76-2.12-2.33-3.49v-9.3Z"/><path class="cls-2" d="m101.16,40.73c2.32,0,1.48-3.17,4.66-2.33.26.9.03,2.3,1.16,2.33,0-.64.94-1.32,1.16,0-.06.71-.17,1.38-1.16,1.17-4.09.09-6.89,5.33-9.3,3.49-.01-1.16.93-1.38,1.15-2.33.25-1.3,1.3-1.8,2.33-2.33Z"/><path class="cls-2" d="m33.66,48.88c-.49-2.22-3.33-2.11-2.33-5.82,3.29.96,3.02-1.64,5.82-1.16-.21,4.8,3.93,3.46,4.66,4.66.06,2-.9,2.99-2.33,3.49-.35-1.04-3.15-5.1-3.49-2.33,1.18,0,1.47,2.04,0,2.33-1.16,0-1.38-.94-2.33-1.16Z"/><path class="cls-4" d="m84.87,22.11c-1.17,0-1.38.94-2.33,1.16-.67-2.05,1.41-6.84-1.16-6.99-2.7,1.71,2.28,3.69-2.33,3.49.96-3.28-1.64-3.01-1.16-5.82h1.16c2.2-2.07.01-8.53,4.66-8.14.75,4.68-1.51,12.37,1.17,15.13v1.17Z"/></g></g></svg>