<?xml version="1.0" encoding="UTF-8"?><svg id="Layer_2" xmlns="http://www.w3.org/2000/svg" viewBox="0 0 163.66 167.43"><defs><style>.cls-1{fill:#4a7336;}.cls-1,.cls-2,.cls-3,.cls-4,.cls-5,.cls-6,.cls-7,.cls-8,.cls-9,.cls-10{fill-rule:evenodd;}.cls-2{fill:#5a7840;}.cls-3{fill:#3c4125;}.cls-4{fill:#4b6d2c;}.cls-5{fill:#5d8736;}.cls-6{fill:#798964;}.cls-7{fill:#37551c;}.cls-8{fill:#1b2409;}.cls-9{fill:#d2d2d2;}.cls-10{fill:#9eb189;}</style></defs><g id="Layer_3"><g><path class="cls-9" d="m161.91,118.48c-.16-.86-.84-1.19-1.52-1.53-.04-.98-.99-1.05-.77-2.29-1.62-1.18-3.41-2.2-5.35-3.05v-.77c.81-2.84-1.61-2.46-2.29-3.82-.88-.12-1.35.17-1.53.77-2.08.56-1.54-1.52-3.05-1.53-.62-.15-.76-.77-1.54-.77-1.12-.4-1.92-1.12-3.04-1.53v-2.29c-.9-.12-2.17.13-2.29-.77-2.65-.4-4.07-2.05-6.87-2.29.5-1.02,1.63-1.42,3.05-1.53h2.28c.17-.59.65-.89,1.54-.77,4.35,1.06,4.61-2,8.4-1.52.59-.18,1.51-.03,1.53-.77h1.53c.02-1.01,1.34-.7,1.53-1.53h.76c.62-.15.76-.77,1.53-.77.27-1,1.34-1.2,1.53-2.29,3.51-1.25,4.11-7.36,0-8.39-.56-.71-1.39-1.16-2.29-1.54v-.76c-1.88.1-3.68.11-4.58-.77h-3.05c-2.46.17-3.24-1.35-6.12-.76h-1.53c-1.8-.25-2.87-1.21-5.35-.77v.77h-7.63c-3.25-.19-4.12,1.99-7.64,1.53-.9.12-2.17-.13-2.29.76h-2.29c0,1.27-2.11.43-2.28,1.54-1.75.55-3.91.68-5.35,1.52-1.23-.21-1.32.72-2.29.77-2,2.23.68,4.4,0,7.64h-2.28c-.58,1.96-5.65-.56-5.36,2.28-1.62.36-1.45-1.09-1.52-2.28.46-.05.9-.12.76-.77,1.09-.19,1.29-1.26,2.29-1.53v-1.53c.14-.62.76-.76.76-1.53.59-.68.83-1.73.77-3.06,1.06-2.51,2.01-5.12,3.05-7.63,1.23-.22,1.32.72,2.29.76h4.58c1.56-1.25,3.99-1.6,5.35-3.05.88-.13.82-1.2.76-2.28,3.16-2.5-.08-3.45-3.05-3.82.12-.9,1.39-.64,2.29-.77,2.83-.47,7.86,1.25,8.39-1.53.62-.14.77-.77,1.53-.76,0-.78.62-.91.77-1.54-.3-1.09-.91-1.28,0-2.28.86-.17,1.19-.85,1.53-1.54.05-.46.11-.9.77-.76.37-.91.81-1.73,1.53-2.29,1.1-1.12.58-2.42-1.53-2.28-1.24-1.06-3.94-.65-4.59-2.29,1.6-.33,2.02.52,3.06.76,2.15-.63,1.98,1.08,3.81.77,3.47,1.36,2.46-2.42,4.59-4.58,2.57-2.28,2.29-7.38,3.81-10.69v-3.06c-.46-.03-.9-.11-.76-.76.56-3.87-2.09-4.53-2.29-7.63-1.53-.25-7.54-2.48-7.64.76-.83-.19-.52-1.52-1.53-1.54v.78c-.99,1.55-4.29.8-4.58,3.04h-.78c1,4.3-3.28,3.34-2.28,7.64.14.65-.3.72-.77.77,0-2.29-1.98-2.6-2.29-4.58-2.15.14-3.25,1.33-3.05,3.81h.76c-.1,1.37.94,1.61.76,3.06-.68.33-1.36.66-1.52,1.52h-.77c-.15.62-.77.77-.77,1.53-2.03.11-2.52,5.1-3.82,1.54-.16-.92-.85-.47-1.53,0,.37,2.39-2.05,2.01-2.29,3.82-.68.34-1.37.67-1.53,1.52-1.34.71-1.4,2.69-2.29,3.83v.76c.41.61.79,1.24.76,2.29-1,.02-.69,1.34-1.53,1.54-.09,1.95-1.4,2.68-2.29,3.82-.58-.17-1.5-.03-1.52-.77-.78,0-.92.62-1.54.77-.94,2.36-2.52,4.09-4.58,5.34v.76c-.65.62-.45,2.09-1.53,2.29.18,1.45-.86,1.68-.77,3.05h-.76c-.37.91-.81,1.74-1.53,2.3,0,.77-.62.91-.77,1.53-1.48,2.08-.46,6.67-3.82,6.87.07-1.08.13-2.16-.76-2.29v-.77c-.17-.6-.03-1.51-.77-1.53v-2.29c-.89-.12-.83-1.2-.76-2.29,3.63-.43,6.27-1.87,5.34-6.87v-1.53c-1.13-1.16-1.23-3.35-1.53-5.34v-5.35c-.59-.68-.82-1.72-.76-3.05-2.16.12.64-4.71-1.53-4.58.55-2.34-1.32-2.25-.77-4.59v-.77c-.46-.04-.91-.1-.76-.76,0-.77-.62-.91-.77-1.53.65-2.43-1.2-2.36-1.53-3.82v-1.53c-1.01,0-.7-1.33-1.53-1.53.06-1.08.12-2.16-.77-2.29-.4-.61-.79-1.24-.76-2.29v-.76c-2.11.32-.72-2.84-2.3-3.06-1.76-.51-1.11-3.46-3.04-3.81v-.77c-1.6-.69-3.39-1.19-4.59-2.29-1.21.07-2.91-.37-3.05.77-2.02,1.55-3.99,3.13-3.82,6.88h-.76v.76c.47,2.32-.99,6.58.76,7.63v5.35c-.1,1.36.94,1.61.76,3.04v1.54c.91,1.89,1.12,4.49,1.54,6.87-.2,2.23,1.73,2.35,1.53,4.58,1.58.2.21,3.36,1.53,3.82v.77c.15.61.77.75.77,1.53-.06,3.57-1.74-.9-3.06-.77-.31-1.48-3.5-.07-2.29-3.05-2.08-.07-1.53,1.27-3.04,0-1.11-.43-1.87-1.2-2.29-2.29-1.51-1.57-2.03.52-2.29,2.29-.65-.14-.72.3-.76.76-.4,1.13-1.13,1.93-1.53,3.06-2.22-1.07,1.35-2.63.76-4.58,2.07.54-.54-3.61,1.53-3.06-.08-1.44-2.53-.53-2.29-2.29h-.77c-.13-.89-1.21-.83-2.29-.76h-6.11c-2.91-.63-2.96,1.62-3.82,3.05.34,1.45-1.04,4.61,1.53,3.82.37,2.4-2.35,1.73-1.53,4.58.4.62.79,1.24.76,2.29h.77c.08,1.95,1.4,2.68,2.29,3.82v.76c.96.31,1.55.99,1.52,2.29,2.05,2.06,2.91-.97,4.59-1.53h.77c-.48,1.6-3.92,2.87-.77,3.82v.76c.04.46.12.91.77.77.03.46.11.91.76.76.41.62.79,1.24.77,2.3-.68.34-1.37.67-1.53,1.53-1.13-.39-1.93-1.13-3.06-1.53h-1.52c-.03-.74-.94-.59-1.53-.76-1.04.23-.63,1.91-.76,3.05h-2.29c-2.46.16-3.24-1.35-6.12-.77v-.76h-3.05v-3.06h-9.16c.28,1.3-.59,1.45-1.54,1.54h-4.58v.76h-2.29v.77h-.77c-2.66,1.14-4.83,2.8-6.11,5.35-1.02.51-1.41,1.63-1.53,3.05v3.05c.05.47.11.91.76.77-.24,1.77.12,2.92.77,3.82.85.16,1.19.84,1.53,1.52,2.16,1.42,3.45,3.69,6.87,3.82v-.76c1.9-.11,2.36,1.2,3.82,1.53,1.57-.22,1.53-2.04,2.29-3.05,2.07,1.15-1.22,3.3-1.54,4.58-.14.62-.76.77-.76,1.53,2.15-.63,1.98,1.08,3.82.77.94-.33,1.57-.98,1.53-2.29,1.88-.1,3.68-.11,4.59.77,1.8-.02,2.24,1.32,4.58.76.12.89-.17,1.36-.77,1.53-.34,2.13,4.17-.59,3.82,1.53-.72,1.42,2.29,2.55,0,3.06.7,1.35,1.71,2.37,3.05,3.05.86.17,1.19.85,1.53,1.53,1.53,0,.98,2.08,3.05,1.52.03.74.94.59,1.53.77,1.44-.17,1.69.86,3.05.76h1.53c1.31,1.75,5.84.29,8.41.77h4.58c.68-.59,1.72-.82,3.05-.77v.77c-.65-.14-.72.29-.76.77-1.78.51-2.05,2.54-3.83,3.05-.16.86-.84,1.19-1.52,1.53-1.24,1.06-2.42,2.16-3.82,3.05-1.41.89-2.59,2-3.82,3.05-1.68.61-1.91,2.67-3.05,3.82h-.77c-.22,1.56-2.07,1.5-2.29,3.06,0,.77-.62.91-.76,1.52-1.12.67-2.42,1.14-2.29,3.06-2.06,1.5-3.66,3.47-4.58,6.1-.74.03-.59.93-.76,1.54-.75.02-.59.93-.78,1.53-1.36,2.19-2.43,4.68-2.29,8.4v1.53c.2,1.19,1.67.53,2.29,0,.34-.68.68-1.37,1.53-1.53.23-1.55,2.06-1.5,2.29-3.05,1.53-.78,3.27-1.32,3.83-3.05.62-.16.75-.78,1.52-.78.23-1.54,2.08-1.49,2.29-3.04,2.26-1.07,3.1-3.53,5.35-4.59.2-1.07,1.67-.87,2.29-1.53.51-1.77,2.54-2.05,3.05-3.82h.77c.43-1.1,1.19-1.86,2.29-2.29,2.69-2.67,5.34-5.35,8.39-7.64.18-1.09,1.26-1.29,1.53-2.29,2.01-.53,1.61-3.48,3.82-3.82-.22-1.34,3.59-2.36,1.53-3.05-1.66-1.59.08-2.47.76-3.82.48-2.07,3.19-1.89,3.05-4.58,2.66-.4,1.53-4.6,5.35-3.82.77,2.32,1.26.98,2.29,0v7.64c-2.41.37-2.98-1.09-4.58-1.53-2.58.24-3.57,5.53.76,4.59.13,2.16-4.7-.64-4.58,1.52-.89.12-.65,1.4-.77,2.29-.71.56-1.15,1.39-1.53,2.29v.77c-.7,1.33-.26,3.81-1.53,4.58v.77c-.12.89.18,1.36.77,1.53h3.81c-.13.65.31.72.77.77h.77v.76c-1.83.46-5.55-.96-6.11.77h-3.05c.32,1.84-1.39,1.66-.77,3.81v2.29c.12.89-.17,1.36-.76,1.54-.31,1.83,1.4,1.65.76,3.82-.89.12-.83,1.2-.76,2.29h-.77c.58,2.67-2.31,5.77,0,7.64v2.29c1.41.11.47,2.59,1.53,3.05.4.62.8,1.24.77,2.29.76.84,4.16,2.87,5.35.77h.76c2.14-3.48,4.59-2.38,6.87-6.11-.12-1.9,1.2-2.37,1.53-3.82-.13-.65.3-.72.77-.76.24-1.78,1.63-3.3-.77-3.82,2.5-1.05,1.76-5.36,4.59-6.11.59-.17,1.51-.02,1.53-.77,1.9-1.15.96-5.15,2.29-6.87-.73-1.9,2.72-4.61-.77-4.59h-.77c-.69-1.84-3.07-2.02-5.34-2.29.18-2.36,6.28,1.2,5.34-2.29.08-1.19-.1-2.64,1.54-2.29v-6.11c-.08-3.49-5.61-1.53-6.87-3.82.88-.12.83-1.21.76-2.29v-1.53c-.11-1.87-.11-3.67.77-4.58,1.26-1.33,2.63.6,3.05,2.29.98-.04,1.05-.99,2.29-.77-.03,1.05.36,1.67.76,2.29.07.49.22.93.43,1.33,1.06,3.2,4.06,4.44,4.92,7.84-1.45.32-1.91,1.64-3.82,1.52v3.82c1.07.47.11,2.94,1.54,3.05-.12.9.17,1.37.76,1.53-.2,2.75,1.41,3.68,1.53,6.12.75,1.79,1.34,3.75,1.53,6.11,1.01,0,.71,1.33,1.53,1.53-.19,2.23,1.73,2.35,1.54,4.58.46.04.9.12.76.77.14.62.77.76.77,1.52.65.61.45,2.09,1.53,2.29.65.62.45,2.1,1.53,2.3.17,1.92,2.4,5.68,3.05,4.59.62.15.77.77,1.53.77.14.65-.3.71-.76.76v1.53c.43,1.1,1.19,1.87,2.29,2.29.34.68.66,1.37,1.52,1.53v.77c1.04.23,1.47,1.08,3.06.76,3.79-.8,3.97-5.2,3.81-9.93v-3.06c-1.67-.1-.31-3.24-.76-4.58-.14-.62-.77-.76-.76-1.52.17-1.45-.86-1.68-.77-3.06,1.61.68,2.26,2.33,4.58,2.29.12,1.42,2.59.47,3.06,1.54,4.65.58,5.82-2.33,5.34-6.87v-1.54c-.32-1.46-1.64-1.92-1.53-3.81h-.76c-.9-1.15-.95-3.13-2.29-3.82-1.24-2.58-3.08-4.56-4.58-6.87v-.77c-.17-1.45.86-1.68.76-3.05,1.6-.33,2.02.52,3.06.76,1.42.11,2.55.5,3.05,1.53,1.44-.17,1.68.86,3.05.77.18.84,1.52.52,1.53,1.53.1,1.37-.93,1.61-.76,3.05-1.2,2.72,2.59.46,2.29,2.29,1.05-.04,1.68.36,2.29.77,1.44-.17,1.68.85,3.05.76h1.54v-3.05c-.15-.64.29-.72.76-.77v1.53c1.47,1.07,4.67.43,3.82,3.83h3.05c1.84-1.53,3.7,1.32,5.34-.77h1.53c.62-.15.77-.77,1.53-.77h.77c.04-.46.12-.91.77-.76,4.49-.92,3.7-11.53,1.52-14.51Zm-93.17-23.67h-9.93v-5.36c.16-.92.85-.46,1.53,0,.85.52-.16,2.54,2.29,3.06.77,0,.92.62,1.53.76-.15.65.3.73.76.77,1.46-.32,3.29-.28,3.05-2.3.96-.31,1.56-.99,1.53-2.29,1.53-1.59,3.27-.02,3.82,1.54-.04.46-.11.9-.76.76h-1.53c-.38,2.42,4.4,1.48.76,3.06h-3.05Zm50.41,21.38h-.77c-.07,1.21.11,2.65-1.53,2.3v-1.53c-.11-1.9,1.2-2.36,1.53-3.82,0-.76.62-.91.77-1.52,2.08.71-1.06,2.38,0,4.58Zm-21.39-10.69c-2.44-.09-3.36-1.74-3.05-4.58,2.48-.44,3.56.52,5.35.77-.89,1.14-.95,3.12-2.29,3.81Zm-4.58-.76c1.01.76,2.84.72,3.05,2.29-.43,1.11-1.19,1.87-2.3,2.29-1.92-1.12-1.43-4.09-.76-4.58Zm3.81,10.46c-.22-.27-.58-.54-1.02-.84.44.3.8.58,1.02.84Zm6.11-22.68c.13-.9,1.21-.83,2.29-.77.39,2.16,1.84,3.25,2.28,5.35.02,1.01,1.34.7,1.54,1.53,2.99-.97,2.56,2.09,1.53,3.06.04,1.31-.59,1.95-1.53,2.29-1.4-1.15-4.28-.81-5.35-2.29-1.45.17-1.68-.86-3.06-.77-.04-.47-.1-.9-.76-.77.13-1.91-1.17-2.39-2.29-3.05,1.14-1.75,2.27-1.79,1.53-3.82.89-.64,2.05-1,3.82-.76Zm-23.67-6.12h-3.82c1.54,1.57-.31,1.53-1.53,2.29h-.77c-1.77-.21-1.75-2.04-.76-3.05,1.55-.22,1.49-2.08,3.05-2.29.57-2.36-2.09-1.47-1.53-3.82-2.58.23-2.22,3.39-4.59,3.82-1.65-1.7,3.13-3.45,2.29-6.87,1.11-1.18,2.98-1.6,5.35-1.53-.56,2.33.78,2.78.77,4.58.64.89,1,2.05.76,3.82,1.23-.33,2.56,2.85.77,3.05Zm-16.05-22.14c.4,1.13,1.14,1.93,1.54,3.05.04.98.98,1.06.76,2.29-3.04-2.89-5,4.86-6.87,3.05,1.86-2.47,2.17-6.49,4.58-8.4Zm9.18,51.93c-1.1.43-1.87,1.2-2.3,2.3-1.23.21-1.31-.72-2.29-.77-1.06.03-1.67-.36-2.29-.76.12-1.41,2.59-.47,3.06-1.53.59-.17,1.5-.02,1.52-.77,1.33.04,1.96-.58,2.3-1.53,3.12-.36-.03,1.92,0,3.05Zm21.63-3.17l.14.13-.14-.13Zm2.87,2.31c.17.27.22.55-.07.85.29-.3.24-.58.07-.85Z"/><path class="cls-7" d="m161.91,100.84c-.16-.85-.84-1.18-1.52-1.53-.04-.98-.99-1.05-.77-2.29-1.62-1.18-3.41-2.2-5.35-3.05v-.77c.81-2.84-1.61-2.46-2.29-3.82-.88-.12-1.35.17-1.53.77-2.08.56-1.54-1.52-3.05-1.53-.62-.15-.76-.77-1.54-.77-1.12-.4-1.92-1.13-3.04-1.53v-2.29c-.9-.12-2.17.13-2.29-.77-2.65-.4-4.07-2.05-6.87-2.29.5-1.02,1.63-1.42,3.05-1.53h2.28c.17-.59.65-.89,1.54-.77,4.35,1.06,4.61-2,8.4-1.52.59-.17,1.51-.02,1.53-.77h1.53c.02-1.01,1.34-.7,1.53-1.53h.76c.62-.15.76-.77,1.53-.77.27-1,1.34-1.21,1.53-2.29,3.51-1.26,4.11-7.36,0-8.39-.56-.72-1.39-1.16-2.29-1.54v-.76c-1.88.1-3.68.11-4.58-.77h-3.05c-2.46.17-3.24-1.35-6.12-.76h-1.53c-1.8-.24-2.87-1.21-5.35-.77v.77h-7.63c-3.25-.19-4.12,1.99-7.64,1.53-.9.12-2.17-.13-2.29.76h-2.29c0,1.27-2.11.43-2.28,1.54-1.75.55-3.91.68-5.35,1.52-1.23-.21-1.32.73-2.29.77-2,2.23.68,4.4,0,7.64h-2.28c-.58,1.96-5.65-.56-5.36,2.29-1.62.36-1.45-1.09-1.52-2.29.46-.05.9-.11.76-.77,1.09-.18,1.29-1.25,2.29-1.53v-1.53c.14-.62.76-.76.76-1.53.59-.68.83-1.73.77-3.06,1.06-2.51,2.01-5.12,3.05-7.63,1.23-.22,1.32.72,2.29.76h4.58c1.56-1.25,3.99-1.6,5.35-3.05.88-.13.82-1.2.76-2.29,3.16-2.5-.08-3.45-3.05-3.82.12-.9,1.39-.65,2.29-.77,2.83-.47,7.86,1.25,8.39-1.53.62-.14.77-.77,1.53-.76,0-.78.62-.92.77-1.54-.3-1.09-.91-1.28,0-2.29.86-.16,1.19-.85,1.53-1.53.05-.46.11-.9.77-.76.37-.91.81-1.73,1.53-2.29,1.1-1.12.58-2.43-1.53-2.29-1.24-1.06-3.94-.64-4.59-2.29,1.6-.33,2.02.52,3.06.76,2.15-.63,1.98,1.08,3.81.77,3.47,1.36,2.46-2.43,4.59-4.58,2.57-2.28,2.29-7.38,3.81-10.69v-3.06c-.46-.04-.9-.11-.76-.76.56-3.86-2.09-4.53-2.29-7.63-1.53-.25-7.54-2.48-7.64.76-.83-.19-.52-1.52-1.53-1.54v.78c-.99,1.55-4.29.8-4.58,3.04h-.78c1,4.3-3.28,3.34-2.28,7.64.14.65-.3.72-.77.77,0-2.29-1.98-2.6-2.29-4.58-2.15.14-3.25,1.33-3.05,3.81h.76c-.1,1.37.94,1.61.76,3.06-.68.33-1.36.66-1.52,1.52h-.77c-.15.62-.77.77-.77,1.53-2.03.11-2.52,5.1-3.82,1.53-.16-.92-.85-.47-1.53,0,.37,2.39-2.05,2.02-2.29,3.82-.68.34-1.37.67-1.53,1.52-1.34.71-1.4,2.69-2.29,3.83v.76c.41.61.79,1.24.76,2.29-1,.02-.69,1.34-1.53,1.53-.09,1.95-1.4,2.68-2.29,3.82-.58-.18-1.5-.03-1.52-.77-.78,0-.92.62-1.54.77-.94,2.35-2.52,4.09-4.58,5.34v.76c-.65.62-.45,2.09-1.53,2.3.18,1.45-.86,1.68-.77,3.05h-.76c-.37.91-.81,1.73-1.53,2.29,0,.77-.62.91-.77,1.53-1.48,2.08-.46,6.67-3.82,6.87.07-1.08.13-2.16-.76-2.29v-.77c-.17-.6-.03-1.51-.77-1.53v-2.29c-.89-.12-.83-1.2-.76-2.29,3.63-.43,6.27-1.87,5.34-6.87v-1.52c-1.13-1.16-1.23-3.35-1.53-5.35v-5.34c-.59-.68-.82-1.72-.76-3.05-2.16.12.64-4.71-1.53-4.58.55-2.34-1.32-2.25-.77-4.59v-.77c-.46-.04-.91-.1-.76-.76,0-.77-.62-.91-.77-1.53.65-2.43-1.2-2.36-1.53-3.82v-1.53c-1.01,0-.7-1.34-1.53-1.53.06-1.08.12-2.16-.77-2.29-.4-.61-.79-1.24-.76-2.29v-.76c-2.11.32-.72-2.84-2.3-3.06-1.76-.51-1.11-3.46-3.04-3.81v-.77c-1.6-.69-3.39-1.19-4.59-2.29-1.21.07-2.91-.37-3.05.77-2.02,1.55-3.99,3.13-3.82,6.88h-.76v.76c.47,2.32-.99,6.58.76,7.63v5.36c-.1,1.36.94,1.6.76,3.04v1.53c.91,1.89,1.12,4.49,1.54,6.87-.2,2.23,1.73,2.35,1.53,4.58,1.58.2.21,3.36,1.53,3.82v.77c.15.61.77.75.77,1.53-.06,3.57-1.74-.9-3.06-.77-.31-1.47-3.5-.07-2.29-3.05-2.08-.07-1.53,1.28-3.04,0-1.11-.43-1.87-1.19-2.29-2.29-1.51-1.57-2.03.52-2.29,2.29-.65-.14-.72.3-.76.76-.4,1.13-1.13,1.93-1.53,3.06-2.22-1.07,1.35-2.64.76-4.58,2.07.54-.54-3.61,1.53-3.06-.08-1.44-2.53-.53-2.29-2.29h-.77c-.13-.89-1.21-.83-2.29-.76h-6.11c-2.91-.63-2.96,1.62-3.82,3.05.34,1.45-1.04,4.61,1.53,3.82.37,2.4-2.35,1.73-1.53,4.58.4.62.79,1.24.76,2.29h.77c.08,1.96,1.4,2.68,2.29,3.82v.76c.96.31,1.55.99,1.52,2.29,2.05,2.06,2.91-.97,4.59-1.53h.77c-.48,1.59-3.92,2.87-.77,3.82v.76c.04.46.12.91.77.77.03.46.11.91.76.76.41.62.79,1.24.77,2.29-.68.34-1.37.67-1.53,1.53-1.13-.39-1.93-1.13-3.06-1.53h-1.52c-.03-.74-.94-.59-1.53-.76-1.04.23-.63,1.91-.76,3.05h-2.29c-2.46.17-3.24-1.35-6.12-.77v-.76h-3.05v-3.06h-9.16c.28,1.3-.59,1.45-1.54,1.53h-4.58v.76h-2.29v.77h-.77c-2.66,1.14-4.83,2.8-6.11,5.35-1.02.5-1.41,1.63-1.53,3.05v3.05c.05.47.11.91.76.77-.24,1.77.12,2.92.77,3.82.85.16,1.19.84,1.53,1.52,2.16,1.41,3.45,3.69,6.87,3.82v-.76c1.9-.11,2.36,1.19,3.82,1.53,1.57-.22,1.53-2.04,2.29-3.05,2.07,1.15-1.22,3.3-1.54,4.58-.14.62-.76.77-.76,1.53,2.15-.63,1.98,1.08,3.82.77.94-.33,1.57-.98,1.53-2.29,1.88-.11,3.68-.11,4.59.77,1.8-.02,2.24,1.32,4.58.76.12.89-.17,1.36-.77,1.53-.34,2.13,4.17-.59,3.82,1.53-.72,1.42,2.29,2.56,0,3.06.7,1.34,1.71,2.36,3.05,3.05.86.16,1.19.85,1.53,1.53,1.53,0,.98,2.08,3.05,1.53.03.74.94.59,1.53.77,1.44-.17,1.69.87,3.05.76h1.53c1.31,1.75,5.84.29,8.41.77h4.58c.68-.59,1.72-.82,3.05-.77v.77c-.65-.14-.72.3-.76.77-1.78.51-2.05,2.54-3.83,3.05-.16.85-.84,1.18-1.52,1.53-1.24,1.05-2.42,2.16-3.82,3.05-1.41.89-2.59,2-3.82,3.05-1.68.61-1.91,2.67-3.05,3.82h-.77c-.22,1.56-2.07,1.5-2.29,3.06,0,.77-.62.91-.76,1.52-1.12.67-2.42,1.14-2.29,3.06-2.06,1.5-3.66,3.47-4.58,6.11-.74.03-.59.93-.76,1.53-.75.02-.59.93-.78,1.53-1.36,2.19-2.43,4.68-2.29,8.4v1.53c.2,1.19,1.67.53,2.29,0,.34-.68.68-1.37,1.53-1.53.23-1.55,2.06-1.5,2.29-3.05,1.53-.78,3.27-1.32,3.83-3.05.62-.16.75-.78,1.52-.78.23-1.54,2.08-1.49,2.29-3.05,2.26-1.06,3.1-3.53,5.35-4.59.2-1.07,1.67-.87,2.29-1.53.51-1.77,2.54-2.05,3.05-3.82h.77c.43-1.1,1.19-1.86,2.29-2.28,2.69-2.67,5.34-5.36,8.39-7.64.18-1.09,1.26-1.29,1.53-2.29,2.01-.53,1.61-3.48,3.82-3.82-.22-1.34,3.59-2.36,1.53-3.05-1.66-1.59.08-2.47.76-3.82.48-2.07,3.19-1.89,3.05-4.58,2.66-.4,1.53-4.6,5.35-3.82.77,2.32,1.26.98,2.29,0v7.64c-2.41.37-2.98-1.09-4.58-1.54-2.58.24-3.57,5.53.76,4.59.13,2.16-4.7-.64-4.58,1.53-.89.12-.65,1.39-.77,2.3-.71.56-1.15,1.38-1.53,2.28v.77c-.7,1.33-.26,3.81-1.53,4.58v.77c-.12.89.18,1.36.77,1.53h3.81c-.13.65.31.72.77.77h.77v.76c-1.83.46-5.55-.96-6.11.77h-3.05c.32,1.84-1.39,1.66-.77,3.81v2.29c.12.89-.17,1.36-.76,1.54-.31,1.83,1.4,1.65.76,3.82-.89.12-.83,1.21-.76,2.29h-.77c.58,2.67-2.31,5.76,0,7.64v2.29c1.41.11.47,2.59,1.53,3.05.4.62.8,1.24.77,2.3.76.84,4.16,2.87,5.35.77h.76c2.14-3.48,4.59-2.38,6.87-6.11-.12-1.9,1.2-2.36,1.53-3.82-.13-.64.3-.71.77-.76.24-1.78,1.63-3.3-.77-3.82,2.5-1.06,1.76-5.37,4.59-6.11.59-.17,1.51-.03,1.53-.77,1.9-1.15.96-5.16,2.29-6.87-.73-1.9,2.72-4.6-.77-4.59h-.77c-.69-1.84-3.07-2.02-5.34-2.28.18-2.37,6.28,1.19,5.34-2.29.08-1.2-.1-2.64,1.54-2.3v-6.11c-.08-3.49-5.61-1.53-6.87-3.82.88-.12.83-1.2.76-2.28v-1.54c-.11-1.87-.11-3.67.77-4.58,1.26-1.34,2.63.6,3.05,2.29.98-.04,1.05-.98,2.29-.77-.03,1.06.36,1.67.76,2.29.07.49.22.92.43,1.33,1.06,3.2,4.06,4.44,4.92,7.84-1.45.32-1.91,1.64-3.82,1.52v3.82c1.07.47.11,2.94,1.54,3.05-.12.9.17,1.37.76,1.54-.2,2.75,1.41,3.68,1.53,6.11.75,1.79,1.34,3.75,1.53,6.11,1.01,0,.71,1.33,1.53,1.53-.19,2.23,1.73,2.34,1.54,4.58.46.04.9.12.76.77.14.62.77.76.77,1.53.65.61.45,2.09,1.53,2.28.65.62.45,2.1,1.53,2.29.17,1.92,2.4,5.68,3.05,4.59.62.15.77.77,1.53.77.14.65-.3.72-.76.76v1.53c.43,1.1,1.19,1.87,2.29,2.29.34.68.66,1.37,1.52,1.53v.77c1.04.23,1.47,1.08,3.06.76,3.79-.8,3.97-5.2,3.81-9.92v-3.06c-1.67-.09-.31-3.24-.76-4.58-.14-.62-.77-.76-.76-1.53.17-1.45-.86-1.68-.77-3.06,1.61.68,2.26,2.33,4.58,2.3.12,1.42,2.59.47,3.06,1.53,4.65.58,5.82-2.33,5.34-6.87v-1.54c-.32-1.46-1.64-1.92-1.53-3.81h-.76c-.9-1.15-.95-3.13-2.29-3.82-1.24-2.58-3.08-4.56-4.58-6.87v-.77c-.17-1.45.86-1.68.76-3.05,1.6-.33,2.02.52,3.06.76,1.42.1,2.55.51,3.05,1.53,1.44-.16,1.68.87,3.05.77.18.84,1.52.52,1.53,1.53.1,1.37-.93,1.61-.76,3.05-1.2,2.72,2.59.46,2.29,2.29,1.05-.04,1.68.36,2.29.77,1.44-.18,1.68.86,3.05.76h1.54v-3.05c-.15-.64.29-.72.76-.77v1.53c1.47,1.07,4.67.43,3.82,3.83h3.05c1.84-1.53,3.7,1.33,5.34-.77h1.53c.62-.15.77-.77,1.53-.77h.77c.04-.46.12-.91.77-.76,4.49-.91,3.7-11.53,1.52-14.51Zm-93.17-23.67h-9.93v-5.35c.16-.92.85-.46,1.53,0,.85.52-.16,2.54,2.29,3.06.77,0,.92.62,1.53.76-.15.65.3.72.76.77,1.46-.32,3.29-.28,3.05-2.29.96-.32,1.56-.99,1.53-2.29,1.53-1.59,3.27-.02,3.82,1.53-.04.46-.11.9-.76.76h-1.53c-.38,2.41,4.4,1.48.76,3.06h-3.05Zm50.41,21.38h-.77c-.07,1.2.11,2.65-1.53,2.29v-1.53c-.11-1.9,1.2-2.36,1.53-3.82,0-.76.62-.91.77-1.53,2.08.71-1.06,2.38,0,4.58Zm-21.39-10.69c-2.44-.1-3.36-1.74-3.05-4.58,2.48-.44,3.56.52,5.35.77-.89,1.14-.95,3.12-2.29,3.81Zm-4.58-.76c1.01.76,2.84.72,3.05,2.29-.43,1.11-1.19,1.87-2.3,2.29-1.92-1.12-1.43-4.09-.76-4.58Zm3.81,10.46c-.22-.27-.58-.54-1.02-.84.44.3.8.58,1.02.84Zm6.11-22.68c.13-.9,1.21-.83,2.29-.77.39,2.16,1.84,3.24,2.28,5.34.02,1.01,1.34.7,1.54,1.53,2.99-.97,2.56,2.09,1.53,3.06.04,1.31-.59,1.95-1.53,2.29-1.4-1.15-4.28-.81-5.35-2.29-1.45.17-1.68-.86-3.06-.77-.04-.47-.1-.9-.76-.77.13-1.91-1.17-2.39-2.29-3.05,1.14-1.75,2.27-1.79,1.53-3.82.89-.64,2.05-1,3.82-.76Zm-23.67-6.11h-3.82c1.54,1.57-.31,1.53-1.53,2.29h-.77c-1.77-.21-1.75-2.04-.76-3.05,1.55-.23,1.49-2.08,3.05-2.29.57-2.36-2.09-1.46-1.53-3.82-2.58.23-2.22,3.39-4.59,3.82-1.65-1.7,3.13-3.45,2.29-6.87,1.11-1.18,2.98-1.6,5.35-1.53-.56,2.33.78,2.78.77,4.58.64.89,1,2.05.76,3.82,1.23-.33,2.56,2.85.77,3.05Zm-16.05-22.15c.4,1.14,1.14,1.93,1.54,3.05.04.98.98,1.06.76,2.3-3.04-2.89-5,4.86-6.87,3.05,1.86-2.47,2.17-6.49,4.58-8.4Zm9.18,51.93c-1.1.43-1.87,1.19-2.3,2.29-1.23.21-1.31-.71-2.29-.77-1.06.04-1.67-.36-2.29-.76.12-1.41,2.59-.47,3.06-1.53.59-.18,1.5-.02,1.52-.77,1.33.04,1.96-.58,2.3-1.53,3.12-.36-.03,1.92,0,3.05Zm21.63-3.17l.14.13-.14-.13Zm2.87,2.31c.17.27.22.55-.07.86.29-.3.24-.58.07-.86Z"/><path class="cls-2" d="m56.51,16.83v-2.29c1.8,2.35.46.29,3.06,0v2.29h-3.06Z"/><path class="cls-2" d="m71.79,18.36c.23,2.01-2.96.6-2.29,3.06-1.65.12-.35-2.71-.76-3.83,1.55,1.33,1.49-.57,3.05.77Z"/><path class="cls-1" d="m62.62,21.42c.83.18.51,1.52,1.53,1.52-1.33.97-2,2.58-4.59,2.29v-3.05c.68.34,1.37.67,1.53,1.53.71-.56,1.16-1.39,1.53-2.29Z"/><path class="cls-6" d="m80.19,38.21c.17-.58.64-.88,1.53-.76v2.29c-1.21.07-.59,1.95-2.29,1.53v-2.29c.46-.05.9-.12.76-.78Z"/><path class="cls-2" d="m61.1,59.6c.51-2.96,0-2.72.77-4.59,1.03.24,1.46,1.09,3.05.77-.72,1.57-3,1.57-3.05,3.82h-.77Z"/><path class="cls-2" d="m35.89,66.48c1.31-.16,1.98,1.3,2.29,0,1.66-.13.35,2.7.76,3.82-2.63-4.14.08,2.72-3.05,2.29,1.25-2.5-.17-2.92,0-6.11Z"/><path class="cls-1" d="m11.45,72.58c.02-2.09,3.61-1.81,4.59-.77-.1,1.69-3.24.33-4.59.77Z"/><path class="cls-3" d="m58.05,76.4c-1.65-.65-2.71-1.88-2.29-4.59.74.03.59.94.76,1.53.75-.02.6-.94.78-1.53,1.68.09.31,3.24.76,4.59Z"/><path class="cls-2" d="m123.72,97.02c.42,2.71-2.7,1.87-2.3,4.59-1.09-.19-.26-2.29-1.52-2.3,1.31-.72,1.25-2.82,3.81-2.29Z"/><path class="cls-1" d="m153.51,106.19c-.78,4-3.53-1.63-4.59.76-.83-.18-.52-1.52-1.53-1.53,1.1-1.79,4.54.49,6.11.77Z"/><path class="cls-1" d="m154.27,111.54h-3.05c-.52-2.56,1.27-2.79,3.05-3.05-2.52,2.43-.39,1.67,1.53,3.05h-1.53Z"/><path class="cls-2" d="m98.52,116.11v-2.29c3.95-.65,1.18,5.44,5.35,4.59,1.01,3.29-.13,5.01-1.53,7.64-.6-.17-.9-.65-.77-1.53.38-.91.81-1.74,1.53-2.29-1.87-1.7-1.85-5.28-4.58-6.12Z"/><path class="cls-7" d="m112.27,117.65c2.7.31,1.51,3.33,4.58,1.53.31,1.83-1.4,1.66-.76,3.81-1.91-1.13-4.18-1.93-3.82-5.34Z"/><path class="cls-2" d="m109.98,127.56c-1.33-.05-2.37.19-3.05.78-.5-2.29-1.63.73-3.05,0,.93-2.39,3.3-3.32,3.81-6.11,1.17,1.38,2.76,2.34,2.3,5.33Z"/><path class="cls-2" d="m42.01,122.99h3.05c-.09,1.95-1.11,2.97-3.05,3.06v-3.06Z"/><path class="cls-4" d="m55.75,7.68c-.17-3.75,1.8-5.33,3.82-6.88,1.89.9-1.86,3.17,1.53,3.05-.59.68-.82,1.73-.76,3.05-2.01-1.01-2.57.82-4.59.78Z"/><path class="cls-5" d="m63.38,6.14c.53,2.4,2.04.99,3.83.76.57,2.35-2.09,1.47-1.53,3.82,1.7.42,1.09-1.46,2.29-1.53,2.31-.81-2.57,2.53-3.05,3.82-2.29-.51.73-1.63,0-3.05-2.56-.79-1.2,2.37-1.54,3.81-1.09.44-1.86,1.19-2.28,2.29-.83-.18-.52-1.52-1.53-1.52-2.6.29-1.26,2.35-3.06,0v2.29c.07,1.08.13,2.16-.76,2.29V7.68c2.01.04,2.57-1.79,4.59-.78-.06-1.33.17-2.37.76-3.05-3.38.12.37-2.15-1.53-3.05.14-1.13,1.84-.7,3.05-.77v2.29c.65.15.72-.3.76-.76,2.22,1.22.93,2.85,0,4.58Z"/><path class="cls-4" d="m67.21,3.09c-.62,1.42-.99,3.09-2.29,3.81-.62-.14-.76-.76-1.54-.76.93-1.73,2.22-3.36,0-4.58-.03.46-.1.91-.76.76V.03c1.19,1.11,2.98,1.6,4.59,2.29v.77Z"/><path class="cls-1" d="m63.38,6.14c.78,0,.91.62,1.54.76,1.3-.72,1.68-2.39,2.29-3.81,1.94.35,1.28,3.3,3.04,3.81-.73,1.57-1.55,3.03-2.29,4.59.34,1.11.67-.08,1.53,0-1.03.56-4.02,5.35-3.82,2.29-2.21,2.02,1.71,4.37.77,7.65-1.64-.66-2.7-1.88-2.29-4.59.31-1.6-.52-2.02-.78-3.06.34-1.44-1.03-4.6,1.54-3.81.73,1.42-2.29,2.55,0,3.05.48-1.29,5.37-4.63,3.05-3.82-1.2.07-.59,1.94-2.29,1.53-.56-2.35,2.1-1.47,1.53-3.82-1.79.24-3.3,1.64-3.83-.76Z"/><path class="cls-4" d="m128.31,8.43c.1-3.24,6.11-1.01,7.64-.76.19,3.1,2.84,3.77,2.29,7.63-3.61-3.37-3.45,1.84-2.29,2.29.21,1.6,2.03-1.1,3.04.77v.77c-1.52,3.31-1.25,8.42-3.81,10.69-1.12-2.76-4.09,2.9-4.59.76-1.47-2.85.25-4.48,1.53-4.58-1.43-2.35-2.57,1.93-3.81,2.3-1.35-1.58-2.36-.68-3.06-1.54-.02-3.49,2.69-.04,4.59-.76.36-1.63-1.09-1.46-2.29-1.53-.35-2.12,4.17.6,3.82-1.53.89.12,1.36-.17,1.53-.76,1.13.33-.31.98,0,2.29,1.69-1.11,1.52-4.08,3.82-4.58-1.08-1.97-4.4-1.72-5.35-3.82,1.41-1.12,1.14-3.94,3.82-3.81-.75-1.04-2.04-1.53-3.06-2.29-.1,1.36-.58,5.7-3.04,6.87-2.2-1.27.83-3.68,1.52-4.58-.34-.68-.66-1.37-1.52-1.53.06-1.08.12-2.15-.77-2.29Z"/><path class="cls-1" d="m122.2,10.72c.29-2.24,3.59-1.49,4.58-3.04v-.78c1,.02.7,1.34,1.53,1.54.89.13.83,1.2.77,2.29-3.02,1.41,1,1.91-.77,3.83-.83-.19-.52-1.53-1.53-1.54-1.36.02,1.21,3.61-.77,4.58-.65.15-.71-.29-.77-.76,1.21-2.16-.88-3.24.77-5.35-1.81.24-1.42,2.65-3.81,2.29v-3.05Z"/><path class="cls-5" d="m122.2,13.77c2.39.37,2-2.05,3.81-2.29-1.65,2.1.45,3.18-.77,5.35-2.01.23-.6-2.96-3.04-2.29v-.78Z"/><path class="cls-2" d="m120.67,24.47c.08-2.01,9.41-4.24,10.69-1.53.35,2.13-4.17-.59-3.82,1.53,1.2.08,2.65-.1,2.29,1.53-1.9.72-4.61-2.73-4.59.76.7.85,1.71-.04,3.06,1.54,1.24-.37,2.38-4.65,3.81-2.3-1.27.1-2.99,1.73-1.53,4.58-2.36.57-.92-2.64-3.81-1.53-.12-.9-1.4-.65-2.29-.76v-3.06c-1.37-.09-1.6.93-3.06.77.7-1.33,1.71-2.94,3.06-1.53-.15-.61-.77-.75-.77-1.53-2.08-.56-1.54,1.52-3.05,1.53Z"/><path class="cls-5" d="m69.5,11.49h.76c-.12.89.17,1.36.78,1.53-.61,1.69-2.68,1.91-3.82,3.05,1.61,2.05,4.89-.65,4.58-3.05.68.47,1.37.92,1.53,0,.89.13.83,1.21.77,2.29-.67.7-.14,2.25-.77,4.58-3.56-.75-2.46,3.14-3.82,4.58,1.69,2.28,5.66-1.4,6.87-.76-.07,1.96-2.84,1.23-3.81,2.29-3.04-.49-1.1,4-3.82,3.82,1.25-3.79-2.66-2.44-2.29-5.35-1.5,1.88-6.68,3.07-9.16,1.53v-1.53c1.78,1.64,2.7-4.14-1.53-3.04v-.77c2.47.68,1.07-2.5,2.29-3.06.94.33,1.56.99,1.53,2.29,1.43-.87,3.68-.91,3.05-3.82.62.15.76.78,1.53.77-.42,2.7.65,3.93,2.29,4.59.94-3.28-2.97-5.63-.77-7.65-.2,3.07,2.79-1.73,3.82-2.29Zm-.76,6.11c.41,1.12-.89,3.95.76,3.83-.66-2.46,2.52-1.05,2.29-3.06-1.56-1.33-1.5.57-3.05-.77Zm-7.64,6.11c-.16-.86-.85-1.19-1.53-1.53v3.05c2.58.29,3.25-1.32,4.59-2.29-1.02,0-.71-1.34-1.53-1.52-.37.9-.81,1.73-1.53,2.29Z"/><path class="cls-4" d="m73.32,13.01c-.16.92-.85.47-1.53,0,.31,2.4-2.97,5.1-4.58,3.05,1.14-1.14,3.21-1.36,3.82-3.05-.6-.17-.9-.64-.78-1.53.63-.41,1.25-.79,2.3-.77-.04,1.06.36,1.68.76,2.29Z"/><path class="cls-4" d="m122.2,13.77v.78c2.44-.68,1.04,2.51,3.04,2.29.05.47.11.91.77.76,1.92.33-1.27,1.65-2.29,1.53-.35-1.39-3.74-2.65-4.58-.77-.99-4.3,3.28-3.34,2.28-7.64h.78v3.05Z"/><path class="cls-7" d="m138.99,18.36c-1.01-1.87-2.83.84-3.04-.77-1.16-.44-1.32-5.66,2.29-2.29-.14.65.3.72.76.76v2.29Z"/><path class="cls-1" d="m76.37,23.71c-1.21-.64-5.18,3.04-6.87.76,1.36-1.44.26-5.33,3.82-4.58.63-2.33.1-3.88.77-4.58.83.19.51,1.52,1.53,1.53v1.53c-2.15.96-2.53,3.13-1.53,5.35,1.52,0,.97-2.08,3.05-1.53.15.62.77.76.77,1.53h-1.54Z"/><path class="cls-5" d="m118.37,27.53c-3.42-2.25-.53-5.3-3.04-5.35-.91.12-.65,1.39-.78,2.29-.68-.33-1.36-.66-1.52-1.53.16-.85.84-1.19,1.52-1.52.18-1.46-.85-1.69-.76-3.06h-.76c-.2-2.49.9-3.67,3.05-3.81.31,1.98,2.28,2.29,2.29,4.58,1.04,3.37,3.46,1.49,5.35,0,1.02.11,4.21-1.2,2.29-1.53,1.98-.97-.59-4.56.77-4.58,1,0,.7,1.34,1.53,1.54,1.76-1.92-2.25-2.42.77-3.83.85.17,1.18.85,1.52,1.53-.69.9-3.72,3.31-1.52,4.58,2.46-1.17,2.94-5.51,3.04-6.87,1.02.77,2.31,1.25,3.06,2.29-2.68-.13-2.41,2.69-3.82,3.81.95,2.1,4.26,1.85,5.35,3.82-2.3.5-2.13,3.47-3.82,4.58-.31-1.31,1.13-1.96,0-2.29-.17.59-.64.88-1.53.76-1.28-2.71-10.61-.48-10.69,1.53v.77c-1.62-.36-1.46,1.09-1.53,2.29h-.77Z"/><path class="cls-2" d="m113.04,22.94c.16.86.84,1.19,1.52,1.53.12-.9-.13-2.16.78-2.29,2.51.04-.38,3.1,3.04,5.35-.17,1.08-1.25,1.29-1.53,2.29-2.23-.65.46-2.46,0-3.82-3.74,3.05-.5-3.74-5.35-1.53,0-.76.62-.91.77-1.53h.77Z"/><path class="cls-4" d="m120.67,24.47c1.52,0,.98-2.08,3.05-1.53,0,.78.62.92.77,1.53-1.35-1.4-2.36.2-3.06,1.53-.14.62-.76.76-.76,1.53-1.36-.56-.11-1.4,0-2.29v-.77Z"/><path class="cls-4" d="m56.51,26v-1.53h.78v1.53c.03,3.92,5.37.83,8.39,3.05,1.3,2.66-5.63.85-2.29,3.05-.12.9-1.39.65-2.28.77-.89-.12-1.36.17-1.53.76-.62-.14-.76-.76-1.53-.76-.42-2.38-.63-4.98-1.54-6.87Z"/><path class="cls-5" d="m59.57,33.63c.16-.59.64-.88,1.53-.76.1,1.68,3.24.32,4.58.76.81,2.84-1.61,2.47-2.29,3.82.15.65-.29.72-.76.76.3-1.52-2.2-2.22-3.05-4.58Z"/><path class="cls-4" d="m107.68,26c1.3,3.57,1.79-1.42,3.82-1.53,4.85-2.21,1.61,4.58,5.35,1.53.46,1.36-2.23,3.17,0,3.82.28-1,1.35-1.21,1.53-2.29h.77c-1.06,3.78-3.29,6.38-4.59,9.93-3.2-1,0-2.5,0-4.58-1.66.19-3.96-2.33-6.11-3.82-.18-.83-1.52-.52-1.53-1.53-.69.68-2.12,4.38-3.05,2.29.23-1.81,2.65-1.43,2.29-3.82.68-.47,1.37-.92,1.53,0Z"/><path class="cls-5" d="m126.78,29.05c-.98,1.51-4.38-1.45-5.36,1.53-.86.15-.42.77,0,.76-2.54,2.36-2.47-2.65-.76-3.81,0-.77.62-.91.76-1.53,1.46.17,1.69-.86,3.06-.77v3.06c.9.11,2.17-.14,2.29.76Z"/><path class="cls-1" d="m121.43,30.58c.98-2.97,4.38-.02,5.36-1.53,2.89-1.11,1.46,2.09,3.81,1.53.5,2.14,3.47-3.52,4.59-.76-2.13,2.15-1.12,5.94-4.59,4.58-.02-.74-.92-.59-1.52-.77.4-.61.79-1.24.76-2.29-2.45-.65-2.39,1.18-3.05,2.29-1.04-.24-1.46-1.09-3.06-.76-.02-.74-.93-.59-1.52-.77.85-.93.65-1.57-.78-1.53Z"/><path class="cls-5" d="m103.87,29.82c.93,2.08,2.36-1.61,3.05-2.29,0,1.01,1.34.7,1.53,1.53-.15.62-.77.77-.77,1.53,1.4-1.31,3.03,1.46,3.82,3.05-1.73-.6-4.45-2.15-3.05,0-1.01,2.16-2.02-1.95-1.53-3.81-1.67,2.79.47,4.9-1.53,7.63-.9-.12-.65-1.39-.77-2.29.2-2.23-1.44-2.64-2.28-3.83.16-.85.85-1.18,1.53-1.52Z"/><path class="cls-2" d="m104.63,35.17c.12.9-.13,2.16.77,2.29,2-2.73-.14-4.84,1.53-7.63-.5,1.86.51,5.97,1.53,3.81-1.39-2.15,1.33-.6,3.05,0-.79-1.59-2.42-4.36-3.82-3.05,0-.76.62-.91.77-1.53,2.15,1.49,4.44,4.01,6.11,3.82,0,2.08-3.2,3.58,0,4.58,1.3-3.54,3.53-6.15,4.59-9.93.07-1.2-.1-2.65,1.53-2.29-.11.9-1.36,1.74,0,2.29-1.71,1.16-1.78,6.17.76,3.81-.42,0-.86-.61,0-.76,1.43-.04,1.62.59.78,1.53.58.18,1.5.03,1.52.77h-2.3c.21,1.07,1.68.87,2.3,1.53-1.2.58-1.14,2.42-3.05,2.29-.07,2.08,1.27,1.54,0,3.05-3.24-.18-4.53,1.59-5.34,3.82,2.47.94.58-2.48,3.04-1.53v2.29c.77,0,.92-.62,1.54-.76v2.29c-2.08.55-1.54-1.52-3.06-1.54,2.81,2.75-3.21.02-2.29,3.05-1.11-.41-3.94.9-3.81-.76-1.8-1,.96-5.65-1.53-3.05-2.01-1.82,3.3-1.82,3.82,0-.04-.46-.12-.91-.77-.77.13-.89,1.2-.83,2.28-.76.28-5.77-9.81-8.77-6.87-4.59-.68,2.1-3.1-1.78-2.28,2.29-.91-.37-1.74-.82-2.29-1.53,2.15-.74-1.11-2.03.77-3.04h.76Zm12.22.76v2.29c3.05.25,2.73-2.86,4.58-3.81-3.02-1-1.55,2.51-4.58,1.53Z"/><path class="cls-1" d="m79.43,29.82c2.16-.13-.64,4.7,1.53,4.58-.06,1.33.17,2.37.76,3.05-.89-.12-1.36.17-1.53.76-1.41.72-.46-4.37-1.53-1.52-.74-.06.04-5,.77-6.11v-.76Z"/><path class="cls-5" d="m77.9,30.58c.16-.92.85-.47,1.53,0-.72,1.12-1.51,6.05-.77,6.11,1.06-2.85.11,2.24,1.53,1.52.14.65-.3.72-.76.78.14-.65-.31-.72-.77-.78-1.03.13-1.53-3.87-2.29-1.52-1.65.12-.35-2.71-.76-3.82.71-.82,2.82-.24,2.29-2.29Z"/><path class="cls-4" d="m120.67,39.74c1.27-1.52-.07-.98,0-3.05,1.91.12,1.86-1.71,3.05-2.29-.61-.65-2.08-.45-2.3-1.53h2.3c.64,1.65,3.35,1.23,4.59,2.29-.11,1.66-1.93,1.64-3.82,1.53,2.17,1.53.95,3.55,3.05,3.81-.34.68-.66,1.37-1.53,1.53-1.52,1.27-.97-.08-3.05,0,0-.77.62-.92.76-1.53h-2.3c-.46-.04-.9-.12-.76-.76Z"/><path class="cls-4" d="m114.55,47.38c-.92-3.04,5.1-.31,2.29-3.05,1.52.02.98,2.08,3.06,1.54v-2.29c.89.13.83,1.2.76,2.29.85-.17,1.19-.86,1.53-1.54,1.17.18.11,1.25-.78,1.54.44,1.72,1.2-.93,2.3.76-.53,2.78-5.56,1.06-8.39,1.53.13-.65-.3-.73-.78-.77Z"/><path class="cls-2" d="m77.9,30.58c.52,2.06-1.58,1.47-2.29,2.29.41,1.11-.89,3.94.76,3.82.77-2.35,1.27,1.65,2.29,1.52-1.75.16-3.91,1.18-1.53,3.83-1.7-1.77-2.97.26-5.35,0-1.23.21-1.31-.73-2.29-.77-.61.41-1.24.79-2.29.77-.29-1.32-2.31-4.73-.77-5.35-.66-2.26-1.14,1.76-3.06.76.69-1.35,3.1-.98,2.29-3.82-1.34-.44-4.48.92-4.58-.76.9-.12,2.16.13,2.28-.77-3.34-2.2,3.59-.39,2.29-3.05-3.02-2.22-8.36.86-8.39-3.05,2.48,1.54,7.66.35,9.16-1.53-.37,2.91,3.54,1.56,2.29,5.35,2.72.17.79-4.31,3.82-3.82.12,2.16,1.39,3.18,1.53,5.34-4.16,1.58-4.55,5.08-7.64,6.12-.55,2.08,3.6-.54,3.05,1.53,1.13.03,1.11-4.54,1.54-.78,2-2.82,3.36-6.3,6.87-7.63Z"/><path class="cls-5" d="m100.05,35.17c1.77,2.02,2.05-2.03,3.82,0-1.88,1.01,1.38,2.3-.77,3.04,0-1.16-2.08-2.5-1.53,0h-.77c.04-1.05-.35-1.67-.76-2.29v-.76Z"/><path class="cls-5" d="m126.78,33.63c.66-1.12.6-2.95,3.05-2.29.04,1.06-.36,1.68-.76,2.29.59.17,1.5.02,1.52.77-1.83.31-1.66-1.4-3.81-.77Z"/><path class="cls-5" d="m43.53,32.87c-2.02.85,2.03,3.96,0,2.29-1.41.1-.46,2.58-1.53,3.04-2.38.36-2.43-1.62-2.29-3.81,3.16-.11.15-.51,0-1.53h3.81Z"/><path class="cls-1" d="m45.83,33.63c.12.9-.13,2.17.77,2.29-.21,1.19-1.67.53-2.29,0-.58,2.35,2.09,1.47,1.53,3.82-1.12.66-2.42,1.14-2.29,3.05-2.22-1.07,1.36-2.63.77-4.59-2.32-.02-.74,3.85-3.06,3.83.69,1.34,1.71,2.37,3.06,3.04-.74-1.45.84-3.83,3.05-6.1.59,1.95-2.98,3.51-.76,4.58.4.61.79,1.24.76,2.29-1.12.39-1.93,1.12-3.05,1.52.27,1.2,1.34-.66,1.53.77,1.52-.77,1.2-3.38,3.81-3.06-1.81,2.05.61,4.47,3.83,3.83-1.44-1.12-.1-5.01-1.53-6.12.4-2.18,1.13,1.24,1.53,1.53,1.09-.43,1.86-1.19,2.29-2.29-.02-.75-.93-.6-1.53-.77-.14-.62-.77-.77-.76-1.53,1.52,1.28.97-.07,3.04,0-1.2,2.98,1.99,1.58,2.29,3.05-.83.19-.51,1.52-1.52,1.53-1.51,3.22-6.26,7.31-3.06,10.69-1.15,1.1-3.86-2.71-3.82-5.35-.54-1.52-4.36-2.42-4.58,0-2.34-.95-2.44-2.22-.77-3.81-4.16-.17-4.92,1.88-7.63,4.58-.89-1.14-2.21-1.87-2.29-3.82v-.76c1.84.31,1.66-1.4,3.81-.78-.46-.71-1.77-2.81.78-2.29-1.53-1.97-4.77.79-6.12,1.53-.82-2.85,1.89-2.18,1.53-4.58-2.57.79-1.19-2.37-1.53-3.82,1.1.18.26,2.29,1.53,2.29,1.24-1.3,2.31-2.77,2.29-5.34h2.29c.15,1.02,3.16,1.42,0,1.53-.15,2.19-.1,4.17,2.29,3.81,1.06-.46.11-2.94,1.53-3.04,2.03,1.66-2.02-1.45,0-2.29,1.08-.07,2.16-.13,2.29.76Z"/><path class="cls-1" d="m47.35,38.99c-2.21,2.27-3.79,4.65-3.05,6.1-1.35-.68-2.37-1.7-3.06-3.04,2.32.02.74-3.85,3.06-3.83.59,1.95-2.99,3.51-.77,4.59-.12-1.91,1.18-2.39,2.29-3.05.57-2.35-2.1-1.47-1.53-3.82.62.53,2.08,1.19,2.29,0-.9-.12-.64-1.4-.77-2.29h.77c-.24,1.76,2.21.86,2.29,2.29-2.07-.55.54,3.6-1.53,3.06Z"/><path class="cls-5" d="m49.64,41.27c2.69,1.74,2.52-1.6,4.59,0,.59.17,1.51.02,1.53.77-.43,1.1-1.2,1.86-2.29,2.29-.4-.29-1.13-3.71-1.53-1.53,1.44,1.11.09,5,1.53,6.12-3.22.64-5.64-1.78-3.83-3.83-2.61-.31-2.29,2.29-3.81,3.06-.18-1.43-1.26.43-1.53-.77,1.12-.39,1.93-1.12,3.05-1.52.04-1.06-.36-1.68-.76-2.29.39-1.14,1.13-1.93,1.53-3.06.86.15.42.77,0,.77,1.49,2.43.57,3.32,3.81,4.59.04-2.34-2.75-1.83-2.29-4.59Z"/><path class="cls-1" d="m33.61,44.32c1.34-.74,4.58-3.5,6.12-1.53-2.55-.52-1.24,1.58-.78,2.29-2.15-.62-1.97,1.09-3.81.78v.76h-.77c.04-1.05-.36-1.67-.76-2.29Z"/><path class="cls-2" d="m58.05,32.87c.77,0,.91.62,1.53.76.85,2.35,3.36,3.06,3.05,4.58-1.06.47-.11,2.94-1.53,3.06-1.32-.46.05-3.62-1.53-3.82.2-2.23-1.73-2.35-1.53-4.58Z"/><path class="cls-7" d="m127.54,40.51c-2.1-.26-.88-2.29-3.05-3.81,1.89.11,3.71.14,3.82-1.53,2.11-.14,2.63,1.17,1.53,2.29-.71.57-1.16,1.38-1.53,2.29-.65-.14-.71.3-.77.76Z"/><path class="cls-4" d="m121.43,34.4c-1.85.95-1.53,4.06-4.58,3.81v-2.29c3.03.99,1.56-2.52,4.58-1.53Z"/><path class="cls-4" d="m63.38,37.45c1.92,1,2.4-3.02,3.06-.76-1.54.62.48,4.03.77,5.35,1.05.03,1.67-.36,2.29-.77-1.8,1.47,1.8,3.87,0,5.34-1.95-.08-3.92-.14-3.82-2.29-.71.82-2.82.23-2.29,2.29-2.41,1.91-2.72,5.93-4.58,8.4-2.5,1.21-.25,6.27-2.29.77,1.08-.27.07-1.34-.76-1.53.56-1.36,1.39-.11,2.29,0,.88-2.4-1.2-1.86-1.54-3.05-.03-1.31.58-1.97,1.54-2.29-.02-.75-.93-.6-1.54-.77-.3-1.84,1.4-1.67.78-3.82,1,0,.69-1.34,1.52-1.53,1.32-.13,3,4.34,3.06.77,3.23-.71.34-5.53,3.81-3.06-1.34-4.61-2.86,1.66-4.58,1.53v-.77c1.41-.12.47-2.59,1.53-3.06.47-.03.91-.1.76-.76Z"/><path class="cls-7" d="m103.87,54.25c1.07-.19.86-1.67,1.53-2.29,1.9.11.23,2.58,0,3.05,2.07-4.03,7.91-1.28,9.16-3.05,1.14.14.71,1.85.78,3.05-1.36,1.45-3.79,1.8-5.35,3.05h-4.58c-.98-.04-1.06-.98-2.29-.76v-.77c.4-.62.79-1.24.77-2.29Z"/><path class="cls-7" d="m106.92,42.04c-2.7,2.62-2.18,4.75-.77,8.4-.64.14-.71-.31-.76-.77-.9.12-.65,1.4-.77,2.3-2.45.67-1.58-1.99-3.05-2.3,2.82-.89,2.14-2.36,1.53-5.34,2.62.58.98-3.1,3.82-2.29Z"/><path class="cls-2" d="m61.1,42.04c1.72.12,3.24-6.14,4.58-1.53-3.47-2.47-.58,2.35-3.81,3.06,0-.78-.62-.92-.77-1.53Z"/><path class="cls-4" d="m51.17,37.45c.43,1.1,1.19,1.87,2.29,2.29,0,.76.62.91.76,1.53-2.07-1.6-1.9,1.74-4.59,0-.14-.62-.76-.77-.76-1.53.26-1.77.79-3.86,2.29-2.29Z"/><path class="cls-1" d="m77.14,42.04c-2.38-2.65-.23-3.67,1.53-3.83.46.05.91.12.77.78v2.29c-.15.62-.78.76-.77,1.53-.62-.15-.76-.77-1.53-.76Z"/><path class="cls-4" d="m100.81,38.21h.77c-.56-2.5,1.52-1.16,1.53,0,.56.72,1.39,1.16,2.29,1.53-.81-4.07,1.61-.19,2.28-2.29-2.94-4.19,7.15-1.19,6.87,4.59-1.08-.07-2.15-.13-2.28.76.65-.14.72.31.77.77-.52-1.82-5.83-1.82-3.82,0,2.49-2.6-.27,2.05,1.53,3.05h-2.29c.44,1.85,2.89,1.69,4.59,2.3,2.98.37,6.21,1.32,3.05,3.82.06,1.08.12,2.15-.76,2.29-.07-1.2.37-2.91-.78-3.05-1.25,1.77-7.09-.98-9.16,3.05.23-.47,1.9-2.94,0-3.05-.66.62-.45,2.09-1.53,2.29.56-2.5-1.52-1.17-1.53,0-.64-.63-.42-2.67-2.29-3.81.47-.68.92-1.37,0-1.53.24-1.04,1.91-.64,3.05-.77.11-1.9-1.2-2.37-1.53-3.82-3.47,2.49-4.67,3.95-9.17,3.05-.78,2.57,2.38,1.19,3.82,1.54-1.47,1.58-1.87,4.25-3.05,6.11.89,2.04,4.05.07,3.05-2.29,1.19.32.65,2.4,3.05,1.52,2.4-.36,2.02,2.06,3.82,2.29v.77c-1.05,2.51-2,5.12-3.05,7.63-1.03-.75-1.53-2.03-2.29-3.05-2.59,1-6.38-.5-8.4-2.29-1.12,1.42-1.47,3.63-4.58,3.05.09-1.75,5.1-2.46,3.05-3.82-1.92.93,1.91-1.98,2.29,1.53.72-.56,1.16-1.39,1.54-2.29-.31-2.58-2.96,2.04-2.29-1.53-1.91.64-3,2.09-5.35,2.29.15-.62.77-.76.77-1.53.72-.56,1.16-1.39,1.53-2.29h.76c2.82.86,3.85-2.09,6.12-3.05-.77-1.27-3.53-.54-3.82-2.3v-.76c2.06-1.26,3.64-2.99,4.58-5.34.62-.15.76-.78,1.54-.77.02.74.93.59,1.52.77.9-1.14,2.21-1.87,2.29-3.82.84-.19.52-1.52,1.53-1.53Zm.77,3.83c0-.43.62-.87.77,0-.47.04-.91.1-.77.76,1.45.18,1.68-.86,3.05-.76,1.06-3.93-6.09-1.87-3.05,0Zm1.53,2.29c.61,2.98,1.29,4.46-1.53,5.34,1.47.31.6,2.97,3.05,2.3.12-.9-.13-2.17.77-2.3.04.46.11.91.76.77-1.41-3.66-1.94-5.78.77-8.4-2.84-.82-1.2,2.86-3.82,2.29Z"/><path class="cls-5" d="m121.43,40.51c-.26,1.01-1.33,1.2-1.52,2.29,1.36.1,1.61-.93,3.05-.76.66,1.12,1.14,2.42,3.05,2.29-.15.62-.77.76-.77,1.54-.76,0-.91.62-1.53.76-1.1-1.68-1.86.96-2.3-.76.88-.28,1.95-1.35.78-1.54-.34.68-.68,1.37-1.53,1.54.07-1.09.13-2.16-.76-2.29-.62.14-.77.77-1.54.76v-2.29c-2.47-.95-.58,2.47-3.04,1.53.81-2.23,2.1-4.01,5.34-3.82-.14.65.3.72.76.76Z"/><path class="cls-1" d="m121.43,40.51h2.3c-.14.62-.77.77-.76,1.53,2.08-.08,1.54,1.27,3.05,0-.91,1-.3,1.2,0,2.29-1.91.13-2.39-1.17-3.05-2.29-1.44-.17-1.69.86-3.05.76.18-1.09,1.25-1.28,1.52-2.29Z"/><path class="cls-2" d="m49.64,41.27c-.45,2.75,2.34,2.25,2.29,4.59-3.24-1.26-2.32-2.16-3.81-4.59.42,0,.86-.62,0-.77.04-.46.11-.9.76-.76,0,.76.62.91.76,1.53Z"/><path class="cls-3" d="m77.9,61.89c0-1.79-1.32-2.25-.77-4.58-2.36-.08-4.24.35-5.35,1.53-.94.33-1.57.98-1.53,2.29-1.92-1.49.44-5.13.78-6.88,3.92.42,3.29.21,6.87,2.29-.07,1.09-.13,2.17.76,2.29v2.29c.15.65-.3.71-.76.76Z"/><path class="cls-7" d="m69.5,41.27c.99.03,1.06.98,2.29.77-.04,2.33,2.75,1.83,2.29,4.58,4.06-.84,5.55-2.67,7.63-3.82.3,2,.4,4.19,1.53,5.35v1.52c.93,5.01-1.71,6.45-5.34,6.87-3.58-2.08-2.96-1.88-6.87-2.29-.34,1.75-2.69,5.39-.78,6.88-.03-1.32.59-1.96,1.53-2.29.84,3.42-3.94,5.17-2.29,6.87v.77c2.02-.55,2.9-4.52,5.35-2.29.14.64-.3.72-.76.76v1.54c-.62-.15-.76-.77-1.53-.77-1.75-1.69-2.46,4.12-3.06,6.11.03,1.31-.57,1.98-1.53,2.29v-1.53c-3.04.84-4.13-1.13-3.81,3.05-.62-.14-.77-.76-1.53-.76-2.44-.52-1.44-2.54-2.29-3.06.23-.02,4.63-1.09,3.04-2.29v-1.53c2.72-1.19.47,2.59,2.29,2.29,1.97-.18-1.05-1.31,0-3.06-2.25-1.09,1.78-.58.77,1.52.62-.14.76-.76,1.53-.76.12-2.16-2.15-1.92-3.05-3.06,1.31-2.7,1.54,2.5,3.05,0-1-2.01-2.51-2.34-4.59-1.52-.31-2.02,2.29-1.52,3.06-.77.41-1.46,4.27-4.22,1.53-7.64-.34-.68-.67-1.36-1.53-1.53v-1.53c2.05-.53,1.47,1.58,2.29,2.29,1.4-1.21-1.42-4.64-3.82-4.58-.39-1.12-1.13-1.92-1.54-3.05-.52-2.06,1.59-1.47,2.29-2.29-.11,2.16,1.87,2.21,3.82,2.29,1.8-1.47-1.8-3.87,0-5.34Z"/><path class="cls-4" d="m64.92,55.78c-.14-.65.3-.72.76-.77.18.97,2.28,1,2.29,0,2.75,3.42-1.12,6.17-1.53,7.64-.77-.75-3.38-1.25-3.06.77,2.08-.82,3.58-.49,4.59,1.52-1.52,2.5-1.75-2.7-3.05,0,.9,1.14,3.17.9,3.05,3.06-.77,0-.91.62-1.53.76,1.01-2.11-3.02-2.62-.77-1.52-1.05,1.74,1.97,2.88,0,3.06-1.82.3.43-3.48-2.29-2.29v.76c-1.71-1.52-1.21-2.22-3.04-4.58-1.69-.42-1.09,1.46-2.29,1.52-.33-1.13-.98.3-2.29,0,.37-3.62-.95-.85-2.29-2.29,1.25-3.52,4.15-4.06,7.63-3.82h.77c.05-2.25,2.33-2.25,3.05-3.82Z"/><path class="cls-3" d="m64.92,49.67c2.4-.06,5.22,3.38,3.82,4.58-.82-.71-.24-2.82-2.29-2.29h-.77c.22-1.24-.72-1.32-.76-2.3Z"/><path class="cls-5" d="m57.29,44.32c.62,2.16-1.08,1.98-.78,3.82.6.16,1.52.02,1.54.77-.96.31-1.56.98-1.54,2.29-1.84.86-1.97,3.91,0,4.59,2.04,5.5-.2.45,2.29-.77,1.87,1.8,3.84-5.94,6.87-3.05h.77v1.53c-.74.02-.59.93-.77,1.53-.46.04-.9.11-.76.77-1.6.32-2.02-.52-3.05-.77-.77,1.87-.25,1.62-.77,4.59-3.48-.24-6.38.3-7.63,3.82,1.33,1.44,2.65-1.33,2.29,2.29,1.32.3,1.96-1.13,2.29,0,.14.65-.3.71-.76.77-2.55.26-2.71,2.89-4.59,3.82-2.95-.1-3.01-3.1-5.35-3.82v-.77c2.45-1.12,4.97-2.16,5.35-5.35-3.09.73-4.83,2.81-6.87,4.58v-.76c2.03-.8,1.74-5.67-.77-6.12-.65.15-.72-.3-.76-.76-.13-3.22,1.17,0,2.29,0v.76c1.34-.69,2.36-1.71,3.04-3.05.2-2.74-2.29-2.8-2.29-5.35-1.91-.12-2.4,1.18-3.05,2.3h-.77c-.14-1.13-1.84-.7-3.05-.77.11-.9-.13-2.16.76-2.29-.98-2.14-1.58,2.4-3.81,1.53,2.71-2.7,3.47-4.75,7.63-4.58-1.68,1.59-1.57,2.86.77,3.81.22-2.42,4.04-1.52,4.58,0-.04,2.64,2.67,6.45,3.82,5.35-3.2-3.38,1.55-7.48,3.06-10.69Zm-6.11,23.68c-.18-.59-.02-1.51-.77-1.53-1.38,1.31.24,3,2.29,3.05-.85-2.02,2.7-4.63.77-3.05-1.1.18-1.29,1.25-2.29,1.53Z"/><path class="cls-4" d="m37.43,50.44c2.23.87,2.84-3.66,3.81-1.53-.89.12-.65,1.39-.76,2.29,1.21.07,2.91-.37,3.05.77-1.67.56-2.54,3.58-4.59,1.53.04-1.31-.56-1.98-1.52-2.29v-.76Z"/><path class="cls-2" d="m56.51,51.2c.34,1.19,2.42.65,1.54,3.05-.91-.11-1.74-1.36-2.29,0,.83.19,1.84,1.26.76,1.53-1.97-.68-1.84-3.72,0-4.59Z"/><path class="cls-1" d="m53.47,66.48c1.93-1.58-1.61,1.03-.77,3.05-2.06-.05-3.67-1.74-2.29-3.05.75.02.59.93.77,1.53,1-.28,1.19-1.35,2.29-1.53Z"/><path class="cls-1" d="m110.74,46.62c-.13,1.66,2.7.35,3.81.76.47.04.91.12.78.77-.91.12-2.17-.13-2.29.77-1.7-.6-4.15-.45-4.59-2.3h2.29Z"/><path class="cls-1" d="m43.53,55.78c2.01-.22,1.61-4.51,3.82-2.29-.14.86-.77.42-.76,0-1.48-.31-1.12,3.48.76,2.29-.14.61-.77.76-.76,1.53-1.13,0-2.42-3.22-2.29,0-.65.14-.72-.31-.77-.77v-.76Z"/><path class="cls-1" d="m43.53,55.78c-3.16-.95.29-2.22.77-3.82.65-1.12,1.14-2.42,3.05-2.3,0,2.55,2.49,2.61,2.29,5.35-.68,1.34-1.7,2.36-3.04,3.05v-.76c0-.77.62-.92.76-1.53-1.87,1.19-2.24-2.6-.76-2.29,0,.42.62.86.76,0-2.21-2.21-1.81,2.07-3.82,2.29Z"/><path class="cls-7" d="m87.83,51.97c1.07-.2.87-1.67,1.53-2.3.29,1.75,3.05,1.02,3.82,2.3-2.27.96-3.3,3.91-6.12,3.05-.1-1.37.94-1.6.77-3.05Z"/><path class="cls-1" d="m100.05,50.44c1.88,1.14,1.66,3.18,2.29,3.81,0-1.17,2.08-2.5,1.53,0,.03,1.05-.37,1.67-.77,2.29-1.8-.23-1.42-2.65-3.82-2.29-.02-.74-.93-.58-1.53-.76-.16-1.31,1.31-1.98,0-2.29.09-2.7,2.53,1.63,2.29-.76Z"/><path class="cls-2" d="m65.68,55.02c.17-.59.03-1.51.77-1.53.86.17,1.19.85,1.53,1.53,0,1-2.11.97-2.29,0Z"/><path class="cls-7" d="m84.01,58.84c2.35-.2,3.44-1.66,5.35-2.29-.66,3.57,1.98-1.05,2.29,1.53-.38.91-.82,1.73-1.54,2.29-.37-3.51-4.2-.59-2.29-1.53,2.04,1.36-2.96,2.07-3.05,3.82,3.11.58,3.46-1.63,4.58-3.05,2.02,1.78,5.81,3.29,8.4,2.29.77,1.02,1.27,2.3,2.29,3.05.06,1.33-.17,2.38-.77,3.06-1.1.4-1.86-2.97-2.29-.77-1.11-.34.09-.67,0-1.53-1.44-.85-2.67-1.9-4.58-2.29.38,2.16,4.82,2.59,2.29,5.34.85,1.61,3.03-2.28,3.82.77v1.53c-1,.27-1.2,1.34-2.29,1.53-3.23-2.6-5.13-4.43-9.17-2.29,1.2-1.1.6-3.98,3.05-3.82-.65-2.22-1.14-.86-3.05-.77,1.6,2.96-1.13,1.25-.76,4.59-1.46-1.44-1.39.45-3.82,0,.14-.62.77-.77.76-1.53-1.81-.64-3.55,3.79-3.81,0,1.8-.2.46-3.38-.77-3.05.25-1.77-.12-2.93-.76-3.82.46-.04.91-.11.76-.76.74.02.59.92.77,1.53v.77c.89.12.83,1.2.76,2.29,3.36-.2,2.34-4.8,3.82-6.87Z"/><path class="cls-3" d="m79.43,68.76c.26,3.79,2.01-.64,3.81,0,0,.77-.62.92-.76,1.53,2.43.45,2.36-1.44,3.82,0-.38-3.34,2.36-1.63.76-4.59,1.91-.09,2.4-1.45,3.05.77-2.45-.16-1.86,2.72-3.05,3.82,4.04-2.15,5.94-.31,9.17,2.29.14.65-.3.72-.76.77-2.08-.56-1.54,1.52-3.06,1.53-2,1.81-4.19,1.15-4.58,3.05-5.18-2.01-7.68-1.41-12.99,0,2.27-2.17-1.91-1.47-1.53.76-.68-.34-1.36-.66-1.53-1.52,3.65-1.58-1.14-.65-.76-3.06h1.53c.64,2.72,1.88.08,4.58.77-.65-1.13-1.92-1.64-3.82-1.53-.55-1.55-2.29-3.12-3.82-1.53.6-1.98,1.32-7.8,3.06-6.11.91,1,.29,1.21,0,2.29-1,1.01-1.01,2.84.76,3.05-.14.64.3.72.77.76,2.28,0,3.21-1.37,3.82-3.05h1.53Zm6.1,7.64h2.29c-1.05-1.73,1.97-2.87,0-3.05-.37.9-.81,1.73-1.53,2.29-.04-1.05.36-1.67.76-2.29-2.29-.77-1.35,1.7-1.53,3.05Zm-8.4-3.05c1.32-.3,1.95,1.13,2.29,0-2.9-1.31,1.66-1.25,1.53-2.29-2.08.56-1.54-1.52-3.05-1.53.24,1.77-.12,2.93-.77,3.82Z"/><path class="cls-4" d="m17.57,61.13c1.51.52,2.03,2.03,2.29,3.81,2.43-1.73-.99-4.04-.77-6.11,3.35.4,2.51.24,5.35.77,1.52.92-.19,2.64-.76.76-1.86.7-2.02,3.07-2.29,5.35.94,4.15-2.7,3.72-.77,6.87-3.01.47-.9-4.2-1.53-6.11-2.1-.33-.72,2.84-2.29,3.05v-.77c-.41-.61-.8-1.24-.77-2.29-.74.02-.59.93-.77,1.53-1.68-2.23-2.04-2.97-3.05-6.87,1.02-1.09,4.33-1.09,5.35,0Z"/><path class="cls-5" d="m134.42,60.36c3.42-2.3-3.11,8.13,2.29,6.87-1.49,2.58-4.72,3.43-6.12,6.11-1.14-.9-3.12-.95-3.81-2.29v-.76h1.53c-.68-1.87-4.26-.84-3.82-3.82-.12-.89.17-1.36.76-1.54.75-.66-1.82-3.59,1.54-4.58h1.53v6.11c1.68-2.28,1.52.04,3.81,0,2.08-.73-.71-6.32,2.29-6.11Z"/><path class="cls-2" d="m119.14,61.13c3.52.46,4.4-1.72,7.64-1.53v.76c-3.36.98-.79,3.92-1.54,4.58-1.6-3.03-6.35-2.34-7.63.77.57.35,4.12.19,3.81-1.52,2.3.92-.11,3.34-2.28,2.29,1.83,2.94,2.26-.36,5.35,0-.44,2.98,3.14,1.95,3.82,3.82h-1.53c-3.82-1.53-8.56-2.15-12.23-3.82.09-1.96,2.85-1.23,3.82-2.29-1.85-1.04-.47-1.53-1.53-2.3.12-.89,1.39-.64,2.29-.76Z"/><path class="cls-1" d="m134.42,58.84c2.48-.44,3.55.52,5.35.77-.52,3.07.73,4.35.77,6.87,2.73-1.47,2.8.29,5.34.76.07,1.08.13,2.16-.76,2.29,1.31.73,1.67,2.4,2.3,3.82.32,1.45,1.65,1.92,1.53,3.82-3.79-.48-4.05,2.58-8.4,1.52-1.85-1.76.6-2.63,1.53-3.81-2.88-2.37-6.17-1.86-7.64-1.53-1.81.65,2.1,1.87.77,4.58-1.06,2.11-3.01-2.69-.77-2.29-.51-2.29-1.63.73-3.05,0,3.02,2.02-.35.7-1.53,2.29-2.54-.24,3.27-2.65-.76-2.29-.43-1.68,1.46-1.08,1.52-2.29,1.4-2.68,4.62-3.53,6.12-6.11-5.4,1.25,1.12-9.18-2.29-6.87v-1.53Zm12.23,13.75c-1.19-.86-1.6-2.48-3.82-2.29.3,3.69.66,3.89,3.04,2.29,0,.43.62.87.78,0Z"/><path class="cls-5" d="m145.87,72.58c-2.38,1.6-2.75,1.4-3.04-2.29,2.22-.19,2.63,1.43,3.82,2.29-.16.87-.78.43-.78,0Z"/><path class="cls-1" d="m135.18,77.93c1.34-2.71-2.57-3.94-.77-4.58,1.47-.33,4.76-.85,7.64,1.53-.92,1.18-3.38,2.05-1.53,3.81-.89-.12-1.36.17-1.54.77h-2.28c-.17-.59-.64-.89-1.53-.77v-.76Z"/><path class="cls-2" d="m16.81,69.53c1.57-.21.18-3.38,2.29-3.05.63,1.91-1.48,6.58,1.53,6.11-1.93-3.16,1.71-2.72.77-6.87,3,1.37,0,4.03,1.53,6.87v.77h-2.29c.34.68.67,1.36,1.53,1.53-.18,1.1-2.28.26-2.29,1.53-.94.33-1.57.98-1.54,2.29-.61-.4-1.24-.79-2.28-.76.5.78,1.75.79,1.53,2.29-1.31-.98-3-1.58-3.06-3.82h3.82c.77-.63,1.16-5.89-2.28-3.05.63-.89,1.01-2.05.77-3.82Z"/><path class="cls-5" d="m21.39,65.71c.27-2.28.44-4.65,2.29-5.35.57,1.88,2.28.17.76-.76.17-.92.85-.47,1.53,0v1.53c-1.87.51-1.48,5.29-3.82,3.05.56,2.24,2.68,2.92,2.29,6.11.1-2.14,1.77-4.27.76-6.11,1.65-2.8,1.78,2.21,1.53,3.82.74-.03.59-.93.76-1.53.9.12.65,1.39.77,2.29.12.89-.17,1.36-.77,1.53-.86-2.46-2.17.73-1.53,2.29-1.59-.86-1.61-.83-.77.77-1.23.21-1.31-.72-2.29-.77-1.53-2.84,1.47-5.5-1.53-6.87Z"/><path class="cls-7" d="m39.72,60.36h1.52c1.13.39,1.93,1.13,3.06,1.53-.47.68-.92,1.37,0,1.54v2.29c-3.68,2.78-.91-2.8-4.58-5.35Z"/><path class="cls-4" d="m39.72,60.36c3.67,2.55.9,8.13,4.58,5.35,2.3,1.51-.03,7.66,3.05,8.4.02.74.93.59,1.53.77-.33,1.71-3.77.31-5.35.76.4.62.8,1.24.77,2.29-2.25-2.81-1.63-2.22-3.06.76-.72-1.28-2.53-2.38-3.05,0,.58,1.45,2.28.53.76,2.29h2.29c-.15,1.02-3.17,1.42,0,1.53-.18.83-1.52.51-1.52,1.53-2.21.81-2.54,2.31-1.53,4.58-.91-1.13-2.89-1.19-3.82-2.29-1.03.24-.63,1.91-.76,3.05h-2.29c.35-2.12-4.16.6-3.82-1.53.6-.17.89-.64.77-1.53-1.31-.98-.02-4.57-2.29-4.58-1.34.69-1.4,2.67-2.29,3.82-.91-.88-2.7-.87-4.59-.77.04,1.32-.58,1.96-1.53,2.29.26-2.28,2.3-2.78,3.82-3.82.74-.02.58-.93.76-1.53.88-.24,3.6-2.36,1.53-3.06.68-1.6,4.3-.27,4.58-2.29h1.52c-.14.65.31.72.77.77-.02.74-.93.59-1.53.76,1.3,1.07,3.85-.68,3.05,3.82,2.28-.07,2.05-4.55-.76-3.82-.14-.65.3-.72.76-.76.65.13.72-.3.78-.77,1.11.33-.09.67,0,1.53,1.12-.66,2.42-1.14,2.29-3.05v-1.53c-2.84-.82-1.21,2.86-3.82,2.29-.42-1.68,1.47-1.08,1.54-2.29v-2.29c-1.64-.36-1.46,1.09-1.54,2.29-1.34-.18-1.74-1.31-1.53-3.05-.71.56-1.15,1.39-1.52,2.29-.9-.12-.65-1.39-.77-2.29.6-.17.89-.64.77-1.53.9-.12.65-1.39.76-2.29,1.63-.37,1.46,1.09,1.53,2.29,1.13-.88,1.92-.88,3.05,0,1.88-.65-.23-5.31,1.53-6.11h2.29c.13-1.14-.28-2.83.76-3.05.59.17,1.51.02,1.53.76Zm-3.83,12.22c3.13.44.42-6.43,3.05-2.29-.41-1.12.9-3.95-.76-3.82-.32,1.3-.99-.16-2.29,0-.17,3.18,1.25,3.6,0,6.11Z"/><path class="cls-7" d="m41.24,82.51c-3.17-.1-.15-.51,0-1.53h-2.29c1.52-1.76-.18-.85-.76-2.29.52-2.38,2.33-1.28,3.05,0,1.43-2.97.81-3.57,3.06-.76.03-1.06-.37-1.67-.77-2.29,1.58-.45,5.02.95,5.35-.76-.59-.17-1.51-.03-1.53-.77.45-3.25-.55-5.05-.76-7.63-.15-.65.29-.72.76-.77v.77c2.34.72,2.4,3.72,5.35,3.82,1.88-.93,2.04-3.56,4.59-3.82-.22,1.23.71,1.31.76,2.29-.99,1.02-.47,2.31.76,3.05v5.35c-1.3-.28-1.44.59-1.52,1.52-1.55-.1-5.26-2.18-6.11.77-.89-.12-1.36.17-1.54.77-1.59-.32-2.01.52-3.04.76-.68-.46-1.37-.92-1.53,0-.89-.12-.65-1.4-.76-2.29-1.04.24-.64,1.92-.77,3.06h-.77c-.26-1.07-1.34-.07-1.53.76Zm16.05-10.69c-.17.59-.03,1.52-.78,1.53-.16-.59-.02-1.51-.76-1.53-.41,2.7.65,3.93,2.29,4.59-.45-1.34.92-4.49-.76-4.59Z"/><path class="cls-1" d="m41.24,82.51c.18-.83,1.26-1.83,1.53-.76-1.46.65.83.45.77,1.53-1.6-.32-2.02.52-3.05.77,1.57.72,2.7,1.88,3.05,3.81.74-.02.59-.92.77-1.53,1.95,5.63,3.96,2.86,9.17,3.82-.84,1.97-4.94.67-6.11,2.29h-6.11c1.37,1.6,1.73,4.65-.76,6.11v-.76c.59-.68.82-1.73.76-3.05-.68-1.33-1.7-2.95-3.05-1.54-1.82-.44,1.57-1.89,3.05-1.53-.69-2.11-.24-5.37-1.52-6.87v-.76c0-1.02,1.33-.71,1.52-1.53Z"/><path class="cls-5" d="m33.61,89.38c.13-1.14-.27-2.82.76-3.05.93,1.11,2.91,1.16,3.82,2.29-1-2.27-.67-3.77,1.53-4.58v.76c-2.49,1.25,1.4,4.14-.78,5.35-2.44.67-1.58-1.98-3.05-2.29-.67.34-1.36.67-1.53,1.53h-.76Z"/><path class="cls-7" d="m23.68,85.57c.89-1.15.94-3.13,2.29-3.82,2.28,0,.99,3.6,2.29,4.58-2.34.56-2.78-.78-4.58-.76Z"/><path class="cls-2" d="m29.79,76.4c.87-.15.43-.77,0-.77-1.65-2.4,4.46,3.54,3.82-1.53.62.15.76.77,1.53.77.13,1.91-1.17,2.39-2.29,3.05-.09-.86,1.11-1.2,0-1.53-.05.46-.12.9-.78.77-.46.04-.9.12-.76.76,2.81-.73,3.04,3.75.76,3.82.8-4.5-1.75-2.75-3.05-3.82.6-.17,1.51-.02,1.53-.76-.46-.05-.91-.12-.77-.77Z"/><path class="cls-2" d="m32.85,73.35c-2.4.97-3.13-.76-4.59,1.53h-1.53c.02-.74.93-.59,1.53-.77-1.77-2.88-5.6,3.87,0,2.29-.28,2.01-3.9.69-4.58,2.29,2.07.7-.65,2.82-1.53,3.06.15-.62.77-.77.77-1.53-1.76-.23-.85,2.21-2.29,2.29-.36-2.39,2.06-2.01,2.29-3.82-.14-.62-.77-.76-.77-1.52-1.02.5-1.41,1.63-1.53,3.05h-1.53c-.42-1.69,1.46-1.09,1.53-2.29.98-2.08,3.92-2.2,4.58-4.58-.85-1.59-.82-1.62.77-.77-.65-1.55.66-4.75,1.53-2.29.12.9-.13,2.16.77,2.29.37-.9.81-1.73,1.52-2.29-.22,1.74.18,2.87,1.53,3.05.08-1.2-.1-2.65,1.54-2.29v2.29Z"/><path class="cls-1" d="m47.35,65.71c-.47.04-.91.11-.76.77-.75-.02-.59-.94-.77-1.54,2.04-1.77,3.78-3.85,6.87-4.58-.37,3.18-2.89,4.23-5.35,5.35Z"/><path class="cls-4" d="m116.85,61.89c1.05.77-.32,1.26,1.53,2.3-.97,1.06-3.73.33-3.82,2.29,3.67,1.67,8.41,2.29,12.23,3.82v.76c-8.31-1.35-12.07,4.75-7.64,9.93-3.66-2.08-3.14-.29-4.59-4.58-.62.15-.75.77-1.52.77.09,1.94,1.11,2.96,3.05,3.05.81,2.85-1.9,2.18-1.54,4.58-2.15.64-1.97-1.07-3.81-.76,1.03-.97,1.47-4.03-1.53-3.06-.19-.83-1.52-.51-1.54-1.53.62-.4,1.25-.79,2.3-.77-1.35-4.5-3.93-4.77-1.53-9.16,2.64.6,3.22-.85,4.59-1.53-1.67-3.39,2.1-3.08-.77-4.58.17-1.11,2.28-.27,2.28-1.54h2.29Z"/><path class="cls-2" d="m126.78,71.06c.69,1.34,2.67,1.39,3.81,2.29-.06,1.21-1.94.6-1.52,2.29h-2.29c.56-2.08-1.52-1.54-1.54-3.05-1.56.22-1.53,2.04-2.29,3.05-.68-.33-1.37-.66-1.54-1.53-2.82,1.2-2.94,5.08-.76,6.87-.68.47-1.37.92-1.53,0-4.43-5.17-.67-11.28,7.64-9.93Z"/><path class="cls-5" d="m150.46,60.36c.77,2.29-1.7,1.35-3.05,1.53-1.03.51-1.42,1.63-1.54,3.05,2.48.95.58-2.47,3.06-1.52.58,2.6-3.11.96-2.29,3.81h-.78c-2.54-.47-2.61-2.23-5.34-.76-.04-2.52-1.29-3.8-.77-6.87h1.53c-2.83,2.94,5.65,3.09,6.12.76h3.05Z"/><path class="cls-7" d="m1.53,66.48c1.27-2.55,3.44-4.2,6.11-5.35.63,2.63-1.42,3.22,0,4.58-.58.17-1.5.03-1.52.77-.43,0-.87-.62,0-.77-.24-.4-2.37-1.19-3.06,0-.62.15-.76.77-1.53.77Z"/><path class="cls-2" d="m7.63,65.71c-1.42-1.36.63-1.94,0-4.58h.77c2.3,2.11-2.5,3.57.77,5.35-2.08-.55.54,3.6-1.53,3.05-.9.11-2.16-.13-2.29.77-1.43-.18.43-1.26-.77-1.53,1.25-.09,4.87-.92,3.05-3.05Z"/><path class="cls-1" d="m10.69,60.36c.17.59.64.89,1.53.77,1.01,3.91,1.37,4.64,3.05,6.87.17-.59.03-1.51.77-1.53-.04,1.05.36,1.67.77,2.29-3.68.26-2.69,2.11-5.35-.76-1.15.66.21,1.14-.76,3.05-1.72-.32-.03-4.05-1.53-4.58-3.27-1.78,1.54-3.24-.77-5.35v-.77h2.29Z"/><path class="cls-5" d="m152.74,73.35c-.76,0-.9-.62-1.52-.77-.12-1.9,1.2-2.36,1.52-3.82,2.41-.36,3.13.95,3.83,2.29,2.95-1.81-.51-5.34-3.83-5.35.25-1.03,1.09-1.45.78-3.05,1.86,2.69.82-.81,3.81.77,4.11,1.03,3.51,7.13,0,8.39-2.89-2.7-4.33-1.25-3.05,3.06h-.76c-.17-.59-.03-1.51-.78-1.53Z"/><path class="cls-1" d="m150.46,60.36c.9.88,2.69.86,4.58.77v.76c.91.37,1.73.82,2.29,1.54-2.99-1.58-1.95,1.92-3.81-.77.31,1.6-.52,2.02-.78,3.05,3.32,0,6.78,3.53,3.83,5.35-.7-1.35-1.42-2.65-3.83-2.29-.32,1.46-1.64,1.92-1.52,3.82.62.15.76.77,1.52.77-.06,2.37-2.97-2.36-3.04,0-1.85-.95-2.47-3.13-3.05-5.34,1.3.16,1.88-.86,0-.77-.82-2.85,2.86-1.21,2.29-3.81-2.48-.95-.58,2.47-3.06,1.52.11-1.42.51-2.55,1.54-3.05,1.35-.17,3.82.77,3.05-1.53Z"/><path class="cls-1" d="m146.64,67.24c1.88-.1,1.3.93,0,.77.58,2.22,1.2,4.4,3.05,5.34.07-2.36,2.98,2.37,3.04,0,.75.02.6.93.78,1.53-.19.83-1.52.51-1.53,1.53h-2.29c-.04-1.05.35-1.67.76-2.29-.22-1.61-2.04,1.11-3.05-.76-.62-1.42-.99-3.09-2.3-3.82.89-.13.83-1.21.76-2.29h.78Z"/><path class="cls-1" d="m27.49,66.48c-.17.59-.02,1.5-.76,1.53.25-1.61.12-6.62-1.53-3.82,1.01,1.84-.66,3.98-.76,6.11.38-3.19-1.74-3.87-2.29-6.11,2.34,2.24,1.95-2.55,3.82-3.05h3.05v.76c-2.76-.72-1.06,3.01-1.53,4.59Z"/><path class="cls-8" d="m69.5,65.71c2.37-.43,2.01-3.59,4.59-3.82-.57,2.36,2.09,1.46,1.53,3.82-1.56.22-1.5,2.07-3.05,2.29.29-1.09.91-1.29,0-2.29.77,0,.91.62,1.53.77v-1.54c.46-.04.9-.11.76-.76-2.44-2.23-3.33,1.74-5.35,2.29v-.77Z"/><path class="cls-7" d="m110.74,84.04c1.84-.31,1.66,1.4,3.81.76-.37-2.4,2.35-1.73,1.54-4.58-1.94-.09-2.97-1.11-3.05-3.05.77,0,.9-.62,1.52-.77,1.45,4.29.93,2.5,4.59,4.58.16.92.85.47,1.53,0h1.53c1.33.7,3.8.26,4.58,1.53.28-.84,3.05-2.9,3.81-.76-.95,3.63-3.86,5.3-5.35,8.4.43,2.22,1.2-1.18,2.29-.77.23,1.8,2.65,1.42,2.29,3.82-2.51-3.21-5.21,1-9.92,0-.11-1.37.75-1.78,2.29-1.53-.02-1-1.34-.7-1.53-1.53-1.5.6-2.74,2.67-1.53,3.82-.15.62-.77.77-.77,1.53-.88-.64-2.04-1.01-3.82-.76.6,1.88,2.86,1.47-1.52,2.28,2.2-6.79-6.32-2.84-6.88-6.87-2.51,2.82,1.24,5.86,3.06,6.87-.11,2.19-3.18,1.4-5.35,1.53.99-1.01,1-2.84-.77-3.05-1.66,2.05-1.03,3.47-.76,6.12-1.65-.66-1.23-3.35-2.29-4.59-.43,0-.86.62,0,.77-.17.59-.64.88-1.53.76-.68.47-1.37.92-1.53,0,4.46-1.67-3.81-2.79-.76-5.35-.61.41-1.24.79-2.3.77.23-1.56,2.07-1.5,2.3-3.05-1.1-.41-1.87,2.98-2.3.76,1.11-.43,1.87-1.19,2.3-2.29.68-.33,1.37-.66,1.53-1.53,1.34-.69,1.4-2.67,2.29-3.81-.14-.65.3-.72.76-.77,1.38-.09,1.61.93,3.06.77,1.06,1.47,3.95,1.13,5.35,2.29.93-.33,1.56-.98,1.53-2.29Zm.76,3.81c.73,1.43-2.28,2.55,0,3.06.17-4.49,5.3-.09,6.12-1.54-.91-1.13-2.89-1.19-3.82-2.29.42,0,.86-.62,0-.77-.77,1.22-.72,3.08-2.29,1.53Zm-9.16.77c-.86.08-1.19-1.11-1.54,0,3.37,2.15-2.97,4.88,1.54,6.11-.13-3.87,1.23-5.47.76-6.88-.04.47-.11.91-.76.77Zm1.53-2.29c1.98.82,2.84,2.77,5.35,3.05.8-3.13-4.47-4.12-5.35-3.05Z"/><path class="cls-7" d="m112.27,63.43c2.87,1.5-.91,1.19.77,4.58-1.37.68-1.94,2.13-4.59,1.53-2.41,4.39.18,4.66,1.53,9.16-1.05-.03-1.67.37-2.3.77-.44-2.1-1.89-3.18-2.28-5.34-1.08-.06-2.16-.13-2.29.77-1.77-.24-2.93.12-3.82.76h-2.29c-.3-2.84,4.77-.32,5.36-2.29h2.28c.68-3.24-2-5.41,0-7.64.98-.04,1.06-.98,2.29-.77,1.44-.84,3.6-.97,5.35-1.52Z"/><path class="cls-4" d="m124.49,66.48c-3.09-.36-3.51,2.94-5.35,0,2.17,1.05,4.59-1.38,2.28-2.29.31,1.72-3.25,1.87-3.81,1.52,1.28-3.1,6.04-3.79,7.63-.77-.59.17-.88.65-.76,1.54Z"/><path class="cls-2" d="m57.29,66.48c.46-.05.9-.11.76-.77,1.2-.07.6-1.94,2.29-1.52,1.83,2.35,1.33,3.05,3.04,4.58v.77c-1.41.73-2.54-2.29-3.04,0-.75-.03-.59-.93-.77-1.53-.62.14-.76.77-1.53.76-.04-.98-.98-1.06-.76-2.29Z"/><path class="cls-4" d="m98.52,69.53c-.79-3.04-2.97.85-3.82-.77,2.53-2.75-1.91-3.17-2.29-5.34,1.91.38,3.14,1.44,4.58,2.29.09.85-1.11,1.19,0,1.53.44-2.21,1.19,1.17,2.29.77,0,.77-.62.91-.76,1.53Z"/><path class="cls-2" d="m1.53,66.48c.77,0,.91-.62,1.53-.77-.17.96-1.19,1.56.77,1.53-.25,1.04-1.09,1.45-.77,3.06-1.74-2.4-.22-1.89-3.05-.77.11-1.42.51-2.55,1.53-3.05Z"/><path class="cls-1" d="m19.86,76.4c0-1.26,2.11-.43,2.29-1.53-.86-.17-1.19-.85-1.53-1.53h2.29v-.77c.98.04,1.06.98,2.29.77-.66,2.38-3.59,2.5-4.58,4.58-1.96.03-.93-.57-.76-1.53Z"/><path class="cls-5" d="m7.63,69.53c2.08.55-.54-3.6,1.53-3.05,1.5.53-.19,4.26,1.53,4.58.97-1.91-.39-2.39.76-3.05,2.67,2.87,1.67,1.02,5.35.76v.77c.25,1.77-.13,2.93-.77,3.82h-.77c-1.13.39-1.92,1.13-3.05,1.53-.1-3.97-3.1-.61-3.82-2.29,1.8-.21-.87-2.04-.77-3.05Zm8.41,2.29c-.98-1.05-4.57-1.33-4.59.77,1.35-.44,4.49.92,4.59-.77Z"/><path class="cls-4" d="m51.17,79.46c.85-2.95,4.56-.86,6.11-.77h1.52c-.4.62-.79,1.24-.76,2.29.07,1.08.13,2.17-.76,2.29-1.44,1.92.44-.73,0-2.29-1.35,1.92-1.27.54-3.06,1.53-.16-.59-.02-1.5-.76-1.53v-2.29c-1.24-.21-1.33.72-2.29.77Z"/><path class="cls-10" d="m148.93,77.17c.12-1.9-1.2-2.37-1.53-3.82,1.01,1.87,2.83-.85,3.05.76-.41.62-.79,1.24-.76,2.29h.76c-.02.74-.93.59-1.53.77Z"/><path class="cls-1" d="m3.05,74.88h1.53c-.04-.46-.11-.91-.76-.77-.06-1.07,2.22-.87.76-1.53,1.23-2.56,2.42,2.4,3.82,0,.72,1.68,3.72-1.67,3.82,2.29.06,1.08.12,2.16-.77,2.29-.64.13-.72-.3-.76-.77-.74.03-.59.93-.77,1.53-.62-.66-2.08-.45-2.29-1.53-1.36.43-3.17.39-3.81,1.53-2.14-.75,1.11-2.03-.77-3.05Z"/><path class="cls-4" d="m7.63,65.71c1.82,2.13-1.81,2.96-3.05,3.05,1.19.27-.66,1.35.77,1.53.12-.9,1.39-.65,2.29-.77-.11,1.01,2.57,2.84.77,3.05-1.4,2.4-2.59-2.56-3.82,0,1.46.65-.82.45-.76,1.53.65-.14.71.3.76.77h-1.53c-.99-.27-1.2-1.34-2.29-1.53-.65.14-.71-.29-.76-.77v-3.05c2.84-1.12,1.32-1.63,3.05.77-.32-1.6.52-2.02.77-3.06-1.95.03-.93-.57-.77-1.53.69-1.19,2.82-.4,3.06,0-.87.15-.43.77,0,.77.02-.74.93-.59,1.52-.77Z"/><path class="cls-4" d="m58.05,68.76c.77,0,.91-.62,1.53-.76.17.59.02,1.5.77,1.53.51-2.29,1.63.73,3.04,0,1.59,1.2-2.82,2.27-3.04,2.29-.68-.46-1.37-.92-1.53,0-1.23-.74-1.75-2.03-.76-3.05Z"/><path class="cls-6" d="m74.08,71.06c1.21-.77,3.07-.72,1.53-2.29h2.29c-.61,1.68-1.54,3.05-3.82,3.05-.47-.04-.91-.11-.77-.76h.77Z"/><path class="cls-8" d="m77.9,69.53c1.52,0,.97,2.08,3.05,1.53.13,1.04-4.42.98-1.53,2.29-.34,1.13-.98-.3-2.29,0,.64-.89,1-2.05.77-3.82Z"/><path class="cls-7" d="m1.53,77.17c-.65-.9-1-2.05-.77-3.82,1.09.18,1.3,1.26,2.29,1.53,1.87,1.02-1.37,2.3.77,3.05.14.65-.31.72-.77.76-.34-.68-.67-1.36-1.53-1.52Z"/><path class="cls-1" d="m14.51,76.4c-1.8-.22.88-2.04.77-3.05h.77c3.45-2.83,3.05,2.43,2.28,3.05h-3.82Z"/><path class="cls-6" d="m28.26,74.88c1.46-2.29,2.19-.56,4.59-1.53-.07,1.21-1.95.6-1.54,2.29,2.62.58.98-3.11,3.82-2.29v1.53c-.77,0-.91-.62-1.53-.77.64,5.07-5.47-.87-3.82,1.53.43,0,.87.62,0,.77h-1.52v-1.53Z"/><path class="cls-6" d="m73.32,73.35c1.9-.11,3.17.39,3.82,1.53-2.69-.68-3.93,1.96-4.58-.77.64.14.71-.3.76-.76Z"/><path class="cls-2" d="m92.41,76.4v-1.53c1.52,0,.98-2.08,3.06-1.53.07,1.2-.1,2.64,1.52,2.29-.02.74-.92.59-1.52.77h-3.06Z"/><path class="cls-8" d="m73.32,78.69c-.38-2.22,3.79-2.93,1.53-.76,5.3-1.41,7.81-2.01,12.99,0,.39-1.9,2.58-1.25,4.58-3.05v1.53c1.67,1.14,1.22,4.38,3.82,4.58-.27.88-1.34,1.94-1.53.77-.9.12-.65,1.39-.77,2.29-2.04-.51-2.89-2.2-4.58-3.06-.89.12-.65,1.39-.76,2.29.5,1.02,1.63,1.42,3.05,1.53-2.85,1.36.44,2.22,0,5.35-1.24-.22-1.32.72-2.29.77-.42-1.69-1.79-3.63-3.05-2.29.14-.62.77-.77.76-1.53-.08.17-6.23-1.77-3.82.76-.71.56-1.15,1.39-1.53,2.29-3.82-.78-2.69,3.42-5.35,3.82,1.27-1.29,1.67-3.44,3.06-4.59-1.45-.13-3.13,1.11-.77-2.29-.64-1.06-4.04.24-1.53-2.29,2.2-.85,4.5-1.61,6.11-3.05-2.88-2.58-4.93,2.16-8.4,1.53v-.77c.68-.33,1.37-.66,1.53-1.53-.61.4-1.24.8-2.28.77.22-.47,1.9-2.94,0-3.06h-.77Z"/><path class="cls-3" d="m91.65,90.15c.44-3.12-2.85-3.98,0-5.35-1.42-.11-2.55-.5-3.05-1.53.11-.9-.13-2.17.76-2.29,1.68.86,2.54,2.55,4.58,3.06.12-.9-.13-2.17.77-2.29.18,1.17,1.26.11,1.53-.77-2.6-.2-2.16-3.44-3.82-4.58h3.06c-1.54,2.48,1.08,6.25,4.58,6.11.65-.13.72.3.76.77-.46.04-.9.12-.76.77-1.79-.24-2.87-1.21-5.35-.77-.3,2.84.61,4.48,3.05,4.58-.16.86-.85,1.19-1.53,1.53-.21-1.56-2.04-1.53-3.05-2.29-.67.49-1.16,3.46.76,4.58.43,2.22,1.2-1.17,2.3-.76-.23,1.55-2.07,1.49-2.3,3.05,1.06.03,1.68-.36,2.3-.77-3.05,2.56,5.21,3.67.76,5.35,1.44-1.52-4.06-2.33-4.58-6.11-.4-.62-.79-1.24-.76-2.29Z"/><path class="cls-3" d="m74.84,83.28c3.47.64,5.52-4.11,8.4-1.53-1.6,1.45-3.91,2.2-6.11,3.05-.17-1.1-2.28-.26-2.29-1.53Z"/><path class="cls-3" d="m74.08,78.69c1.9.12.22,2.59,0,3.06,1.05.03,1.67-.37,2.28-.77-.16.86-.85,1.19-1.53,1.53-1.1-.42-1.86-1.19-2.28-2.29.18-.83,1.52-.52,1.53-1.53Z"/><path class="cls-1" d="m127.54,75.64c.06,2.49.98,4.12,3.05,4.59h.77c.12.88-.17,1.35-.77,1.53-.76-2.15-3.53-.08-3.81.76-.78-1.26-3.25-.83-4.58-1.53,2.08-1.16.56-2.88,2.29-5.35,1.31-.16,1.98,1.31,2.29,0h.76Z"/><path class="cls-5" d="m3.82,77.93c.64-1.14,2.45-1.1,3.81-1.53.21,1.07,1.67.87,2.29,1.53.18-.59.03-1.5.77-1.53.04.46.12.9.76.77-.39,1.13-1.13,1.92-1.53,3.05-.46.68-.92,1.36,0,1.53v.76c-3.42-.13-4.71-2.41-6.87-3.82.46-.03.91-.11.77-.76Z"/><path class="cls-7" d="m9.93,80.22c.68-.34,1.37-.67,1.53-1.53,1.11.34-.07.68,0,1.53,1.15,2.13,3.31,1.36,4.59,0-.77,1.01-.73,2.84-2.29,3.05-1.46-.33-1.92-1.64-3.82-1.53-.92-.17-.46-.85,0-1.53Z"/><path class="cls-4" d="m14.51,76.4c.06,2.24,1.75,2.84,3.06,3.82.23-1.5-1.03-1.52-1.53-2.29,1.05-.04,1.67.36,2.28.76-.04-1.31.59-1.95,1.54-2.29-.17.96-1.2,1.56.76,1.53-.07,1.2-1.95.6-1.53,2.29.07,2.08-1.27,1.54,0,3.05v.77c-1.05.04-1.67-.37-2.29-.77.17.59.02,1.51.76,1.53-.51,2.29-1.63-.72-3.06,0,.31-1.28,3.6-3.43,1.54-4.58-1.28,1.36-3.44,2.13-4.59,0-.07-.85,1.11-1.19,0-1.53-.16.86-.85,1.2-1.53,1.53.4-1.13,1.13-1.93,1.53-3.05.89-.13.83-1.21.77-2.29,1.13-.4,1.92-1.13,3.05-1.53.11,1.01-2.56,2.84-.77,3.05Z"/><path class="cls-4" d="m20.62,80.22c.11-1.42.51-2.55,1.53-3.05,0,.76.63.9.77,1.52-.23,1.81-2.65,1.43-2.29,3.82-3.22.13.02-1.17,0-2.29Z"/><path class="cls-2" d="m63.38,77.17h3.83c-.27,1-1.35,1.2-1.53,2.29.64,1.91,2.1,3,2.29,5.35-2.39-.35-2.44,1.63-2.29,3.82-1.34-.67-2.23-2.43-3.81-.77,2.45,3.9,2.14,2.34,3.05,5.35,1.57-.2.18-3.37,2.29-3.05,3.2.11,3.11,3.5,3.04,6.87-.02.75-.92.59-1.52.77-.38-2.41,1.67-2.99,0-4.59-2.2.11-3.63.96-3.06,3.82-2.63-2.45-3.59-6.58-4.58-10.69,3.24.45,3.54-2.06,4.58-3.82.12-1.89-.39-3.17-1.52-3.82-.16-.62-.78-.76-.78-1.52Z"/><path class="cls-5" d="m58.05,80.98c2.78-.49.94,3.64,3.05,3.82,1.6-1.47,0-6.11,3.06-6.11,1.13.65,1.64,1.93,1.52,3.82-1.04,1.76-1.34,4.26-4.58,3.82.98,4.11,1.94,8.24,4.58,10.69-.57-2.86.86-3.71,3.06-3.82,1.67,1.6-.38,2.18,0,4.59-.47,1.05-2.94.11-3.06,1.53h-.76c-.73-1.56-1.56-3.03-2.29-4.58-2.17,1.02.59,3.39.76,4.58-1.51-.52-1.74-2.32-3.04-3.06,2.61-1.43-2.91-5.13-3.83-3.05,1.08,1.73.68,4.93,3.83,4.59-.41,1.1,2.97,1.87.76,2.28-1.33-.05-2.37.18-3.05.77-.17-.59-.64-.89-1.54-.77-2.67-5.52,0-10.68-2.29-17.57,1.79-.99,1.71.39,3.06-1.53.44,1.56-1.44,4.21,0,2.29.89-.12.83-1.21.76-2.29Z"/><path class="cls-4" d="m70.26,97.02c.07-3.38.16-6.77-3.04-6.87-2.11-.32-.72,2.85-2.29,3.05-.92-3.01-.6-1.45-3.05-5.35,1.59-1.66,2.47.1,3.81.77-.15-2.19-.1-4.17,2.29-3.82-.19-2.35-1.66-3.44-2.29-5.35.18-1.09,1.26-1.29,1.53-2.29h.76c-.14.65.31.71.77.76-.15.86-.77.42-.77,0-1.97.18,1.05,1.32,0,3.05h2.29c.66-2.43-1.2-2.36-1.52-3.81h3.05c.17.85.85,1.18,1.53,1.52h.77c0,1.01-1.34.71-1.53,1.53-2.31.93.4,3.05,1.53,3.05-1.48,1.48.8,3.07.76,5.35-1.55.43-1.49,2.3-3.05.76-.66,5.6,2.12,2.72.77,6.12-.34.94-.98,1.57-2.3,1.53Z"/><path class="cls-10" d="m99.28,75.64c.74,2.03-.38,2.07-1.53,3.82,1.13.66,2.43,1.14,2.29,3.05-3.5.14-6.12-3.63-4.58-6.11.59-.17,1.5-.02,1.52-.77h2.29Z"/><path class="cls-7" d="m68.74,77.17c.32,1.46,2.18,1.38,1.52,3.81h-2.29c1.05-1.74-1.97-2.87,0-3.05,0,.42.62.86.77,0-.46-.05-.91-.12-.77-.76h.77Z"/><path class="cls-7" d="m72.56,80.22c.43,1.1,1.19,1.87,2.28,2.29v.77c.02,1.27,2.12.43,2.29,1.53-2.51,2.53.89,1.23,1.53,2.29-2.36,3.39-.68,2.15.77,2.29-1.4,1.15-1.8,3.3-3.06,4.59.14,2.69-2.57,2.51-3.05,4.58h-.76c-.03-1.14,3.12-3.41,0-3.05,1.35-3.39-1.43-.51-.77-6.12,1.56,1.54,1.5-.33,3.05-.76.04-2.28-2.24-3.87-.76-5.35-1.13,0-3.84-2.13-1.53-3.05Z"/><path class="cls-5" d="m19.09,83.28c-1.27-1.52.07-.97,0-3.05h1.53c.02,1.12-3.22,2.42,0,2.29,1.45-.08.53-2.52,2.29-2.29,0,.76-.62.91-.77,1.53-.18.59-.02,1.5-.76,1.53h-2.29Z"/><path class="cls-2" d="m14.51,84.8c1.43-.72,2.55,2.29,3.06,0-.74-.02-.59-.93-.76-1.53.61.4,1.24.8,2.29.77v-.77h2.29c-1.52,1.04-3.56,1.54-3.82,3.82-1.84.32-1.67-1.39-3.82-.77,0-.76.62-.91.76-1.53Z"/><path class="cls-2" d="m56.51,93.2c.92-2.08,6.44,1.62,3.83,3.05-.31-1.98-2.38-2.2-3.83-3.05Z"/><path class="cls-1" d="m44.3,85.57c.08-1.87,2.52-.17,2.29.76,1.33-.7,1.4-2.68,2.29-3.82,1.04-.13,1.53,3.89,2.29,1.53,1.13.33-.3.97,0,2.29.31,1.47,2.96.6,2.29,3.05,2.35-2.15-.79-5.27,0-8.4.74.02.59.93.76,1.53,2.28,6.88-.38,12.04,2.29,17.57.9-.12,1.36.18,1.54.77h-4.58v-.77c-1.91-1.31-2.69-3.67-1.53-4.58.37-2.65-4.14-.44-4.58-2.29v-.76c1.18-1.62,5.28-.32,6.11-2.29-5.21-.96-7.21,1.81-9.17-3.82v-.76Z"/><path class="cls-4" d="m43.53,81.75c.13-1.14-.27-2.82.77-3.06.11.9-.13,2.17.76,2.29.16-.92.85-.46,1.53,0,2.21,1.86-2.36,1.36-3.06.77Z"/><path class="cls-5" d="m42.76,81.75h.77c.7.59,5.27,1.09,3.06-.77,1.03-.24,1.46-1.08,3.04-.76-.57,1.44-2.27.53-.76,2.29-.89,1.14-.95,3.12-2.29,3.82.23-.92-2.22-2.63-2.29-.76-.9-.13-.65-1.4-.77-2.29.06-1.07-2.22-.87-.77-1.53Z"/><path class="cls-4" d="m136.71,79.46c-1.42.11-2.56.51-3.05,1.53,2.8.24,4.22,1.89,6.87,2.29.12.9,1.39.65,2.29.77v2.29c-.68.34-1.37.67-1.54,1.53.65.14.72-.3.77-.76,1.28,1.08-1.54,4.52-1.53,6.87,2.18-1.85,2.69-4.19,3.05-6.11.83.19.51,1.52,1.53,1.53.41.62.8,1.24.76,2.29-2.74-1.8-3.04,4.28-3.81,6.87-1-.27-1.2-1.34-2.29-1.53.55,1.56,2.39,3.03.77,4.59v.76c-1.45-.29-5.35-3.45-4.58.76-1.96.59-.17,4.93-3.06,4.59-1.37.1-1.61-.93-3.05-.77-.51-1.02-1.63-1.42-3.05-1.53.23-2.01-1.06-2.5-3.06-2.29.69-2.55,1.71-.66,3.06,0,1.67-.1,1.64-1.92,1.53-3.81-3.32-.52-4.23,1.37-5.35,3.05-.22,1.23.72,1.32.76,2.3.1,1.37-.93,1.6-.76,3.05-.62-.15-.76-.77-1.54-.77.16-.61.78-.75.78-1.53-2.33-.04-2.97,1.61-4.59,2.29-2.21-.34-3.48-1.61-3.82-3.81,2.08.11,1.24-3.13.76-4.59-1.67.1-.31,3.24-.76,4.59-2.47.93-.59-2.48-3.05-1.54,1,3.07,3.36,4.79,5.35,6.87h-1.54c-1.44-.08-.52-2.52-2.28-2.3-1.21,1.11.67,6.44-3.82,6.12-.44,4.25,2.55,2.79,3.82,3.82.65.14.72-.29.77-.77,1.52-.77,1.2-3.38,3.81-3.05-.63,2.33-2.15,1.83-.76,4.59,1.37.1,1.62-.94,3.05-.77-1.74,2.99-.57,4.15-2.29,6.87-.86.15-.42.77,0,.77.4.61.8,1.24.77,2.29,2.42-.13,5.62-1.79,7.63,0,.56,2.08-1.52,1.53-1.53,3.05-2.32.04-2.97-1.61-4.58-2.3-.1,1.38.93,1.62.77,3.06-.62-.15-.77-.77-1.54-.77.95-2.47-2.47-.58-1.53-3.05-3.4,3.68-5.43,1.72-6.87,1.53v-.78c.46-3-1.13-3.96-2.3-5.33-.51,2.79-2.88,3.72-3.81,6.11,1.42.73,2.55-2.29,3.05,0h-.77c-1.55.22-1.49,2.06-3.05,2.29.14-.65-.3-.72-.76-.77.19-2.23-1.73-2.35-1.54-4.58.05-.47.11-.91.77-.76-.13.88.17,1.35.77,1.53,1.4-2.63,2.54-4.35,1.53-7.64-4.17.85-1.4-5.23-5.35-4.59v2.29c-.16.59-.02,1.51-.77,1.54-.11-2.43-1.73-3.37-1.53-6.11.27-1.07,1.35-.07,1.53.76,1.25.35,1.25-4.16,0-3.81-.96.19-.77,1.52,0,1.52-.23,2.7-2.07-2.69-2.29,0-1.42-.11-.47-2.58-1.54-3.05,2.41.9.98-1.18,3.82.77,1.4-1.61,2.63-2.21,1.53-4.59.72.82,2.82.24,2.29,2.29,1.55-.22,1.5-2.07,3.05-2.29-1.44-1.92-2.68.71-4.58-.76.51-1.53.17-2.59-1.53-3.05v-.77c.88.12,1.35-.17,1.53-.76-.86-.15-.43-.77,0-.77,1.06,1.24.65,3.93,2.29,4.59-.27-2.65-.9-4.07.76-6.12,1.77.21,1.75,2.04.77,3.05,2.16-.13,5.23.66,5.35-1.53-1.82-1.01-5.57-4.05-3.06-6.87.56,4.03,9.08.09,6.88,6.87,4.38-.81,2.12-.4,1.52-2.28,1.78-.25,2.94.12,3.82.76-.32,1.46-1.64,1.92-1.53,3.82-1.5.82-1.31,6.33,1.53,5.35,2.6-2.4-.6-1.91.77-6.12-1.06-2.2,2.08-3.87,0-4.58-1.21-1.15.03-3.22,1.53-3.82.19.83,1.52.52,1.53,1.53-1.54-.25-2.4.16-2.29,1.53,4.72,1,7.41-3.21,9.92,0,.36-2.4-2.06-2.02-2.29-3.82-.11-3.63,7.45-7.02,3.82-9.16h-.77c-.4-.62-.79-1.24-.76-2.29,1.18-1.6,4.54-.27,1.53-2.29,1.42.73,2.55-2.29,3.05,0-2.24-.39-.29,4.4.77,2.29v.76c.89-.12,1.36.17,1.53.77Zm-3.82,23.67c5.86-2.24-5.06-5.78,0-1.52.17-.59.03-1.52.77-1.54.17,1.45-.86,1.69-.77,3.05Zm-24.44,3.06c-3.48.34-6.57,1.07-7.64,3.81,2,3.36,2.73,7.97,5.35,10.69-.57-2.34,2.1-1.46,1.53-3.81,0-1.52-2.08-.97-1.53-3.06,1.58-.97,3.87-1.21,3.82-3.82-4.34,1.26.37-.56-1.53-3.81Zm11.46-6.87c1.25,0,.43,2.11,1.52,2.3-.4-2.72,2.71-1.88,2.3-4.59-2.57-.53-2.5,1.57-3.81,2.29Zm16.8-16.81c-1.34.06-2.37-.17-3.05-.76-1.34,1.55.57,1.49-.77,3.05.68,1.67,5.31.16,3.06-.76-2.68,1.75.04-.4.76-1.53Zm-20.62,40.48c-.64-2.15,1.07-1.98.76-3.81-3.07,1.8-1.88-1.22-4.58-1.53-.36,3.41,1.91,4.21,3.82,5.34Z"/><path class="cls-4" d="m113.8,86.33c.86.15.42.77,0,.77.93,1.1,2.91,1.16,3.82,2.29-.81,1.45-5.95-2.95-6.12,1.54-2.28-.51.73-1.63,0-3.06,1.57,1.55,1.53-.31,2.29-1.53Z"/><path class="cls-2" d="m135.95,84.04c2.25.92-2.38,2.43-3.06.76,1.33-1.56-.57-1.5.77-3.05.68.59,1.72.82,3.05.76-.72,1.13-3.45,3.29-.76,1.53Z"/><path class="cls-7" d="m145.11,89.38c-1.01,0-.7-1.33-1.53-1.53-.36,1.93-.87,4.26-3.05,6.11-.02-2.35,2.81-5.79,1.53-6.87-.04.46-.11.9-.77.76.17-.85.86-1.19,1.54-1.53,1.12.4,1.92,1.13,3.04,1.53-.14.62-.76.77-.76,1.53Z"/><path class="cls-2" d="m145.11,89.38c0-.76.62-.91.76-1.53.78,0,.91.62,1.54.77-.14,2.67-1.75,3.85-3.82,4.58.21,1.78,2.04,1.75,3.06.77.33.94.97,1.57,2.29,1.53-4.15,3.41,2.61,2.96,1.53,7.63-2.84-2.21-4.34-2.79-7.63-2.29,1.76-2.47-.28-4,3.04-4.59-4.04-3.75-2.69,7.63-5.34,5.36,1.62-1.56-.22-3.03-.77-4.59,1.09.18,1.29,1.26,2.29,1.53.78-2.59,1.07-8.67,3.81-6.87.04-1.06-.35-1.67-.76-2.29Z"/><path class="cls-2" d="m133.66,100.07c-.74.02-.59.94-.77,1.54-5.06-4.27,5.86-.73,0,1.52-.1-1.36.93-1.6.77-3.05Z"/><path class="cls-2" d="m116.09,109.24c-1.99-2.08-4.34-3.8-5.35-6.87,2.47-.94.58,2.47,3.05,1.54.44-1.35-.92-4.49.76-4.59.48,1.46,1.32,4.7-.76,4.59.34,2.2,1.61,3.47,3.82,3.81,1.61-.68,2.26-2.33,4.59-2.29,0,.78-.62.92-.78,1.53-.33,1.12-.66-.07-1.52,0-.07,2.09,1.26,1.54,0,3.05-1.61.33-2.02-.52-3.06-.76.4.61.8,1.24.77,2.29-.94-.33-1.57-.98-1.53-2.29Z"/><path class="cls-2" d="m113.04,116.11c-.04.47-.12.91-.77.77-1.27-1.03-4.27.43-3.82-3.82,4.49.32,2.61-5.01,3.82-6.12,1.76-.22.85,2.22,2.28,2.3-.69,2.87-4.68,2.43-4.58,6.11.21,1.6,2.04-1.11,3.06.76Z"/><path class="cls-7" d="m97.76,101.61c2.39.22-1.95-2.21.77-2.3,1.69.46,2.03,1.52,1.53,3.05,1.9,1.47,3.14-1.16,4.58.76-1.55.23-1.5,2.08-3.05,2.29.52-2.05-1.58-1.47-2.29-2.29,1.11,2.37-.12,2.97-1.53,4.59-2.84-1.95-1.41.13-3.82-.77v-3.82c1.91.12,2.37-1.19,3.82-1.52Z"/><path class="cls-7" d="m116.85,99.32v1.53c1.64.36,1.46-1.09,1.53-2.29h.77c-1.37,4.2,1.83,3.72-.77,6.12-2.83.98-3.03-4.53-1.53-5.35Z"/><path class="cls-4" d="m103.1,87.86c.47,1.41-.89,3.01-.76,6.88-4.5-1.24,1.83-3.96-1.54-6.11.34-1.11.67.08,1.54,0,.65.14.71-.3.76-.77Z"/><path class="cls-1" d="m34.37,89.38c.17-.85.85-1.19,1.53-1.53,1.47.31.61,2.97,3.05,2.29,2.17-1.2-1.72-4.09.78-5.35,1.28,1.51.83,4.76,1.52,6.87-1.48-.37-4.87,1.09-3.05,1.53,1.35-1.41,2.37.2,3.05,1.54.06,1.32-.17,2.37-.76,3.05-.66-2.64-2.69-3.93-4.59-5.35-.85.16-1.19.85-1.53,1.53-2.15-.78.22-3.24,0-4.59Z"/><path class="cls-1" d="m109.22,89.38c-2.5-.29-3.37-2.23-5.35-3.05.88-1.07,6.15-.08,5.35,3.05Z"/><path class="cls-6" d="m83.24,87.86c-.28,1.3.6,1.45,1.53,1.53.45,1.59-.95,5.03.76,5.36.07,1.08.12,2.16-.76,2.28.06-1.08.12-2.16-.77-2.28v-4.59c-1.03.98-1.53,2.32-2.29,0,.38-.9.82-1.74,1.53-2.29Z"/><path class="cls-1" d="m31.31,89.38h3.05c.22,1.34-2.15,3.81,0,4.59v1.53c-1.34-.69-2.35-1.71-3.05-3.05,2.29-.5-.72-1.64,0-3.06Z"/><path class="cls-1" d="m146.64,93.97c-1.02.99-2.85,1.01-3.06-.77,2.07-.73,3.68-1.91,3.82-4.58,1.52,0,.97,2.08,3.05,1.53-.95,1.6-2.23,2.87-3.81,3.82Z"/><path class="cls-5" d="m154.27,93.2h-1.54c.31,1.1.92,1.29,0,2.29-.42,0-.86-.62,0-.76-.24-1.63-3.32.12-3.81.76-1.32.04-1.95-.58-2.29-1.53,1.59-.95,2.86-2.22,3.81-3.82.17-.59.64-.89,1.53-.77.69,1.36,3.1.98,2.29,3.82Z"/><path class="cls-8" d="m92.41,92.44c.51,3.78,6.02,4.59,4.58,6.11.17.92.85.47,1.53,0v.77c-2.71.09,1.62,2.52-.77,2.3-.98-3.87-4.89-4.78-5.35-9.17Z"/><path class="cls-5" d="m34.37,93.97c.34-.68.68-1.37,1.53-1.53,1.9,1.42,3.92,2.7,4.59,5.35v.76h-1.53c-2.08.56-1.53-1.52-3.05-1.53-.33-.68-.66-1.36-1.53-1.53v-1.53Z"/><path class="cls-4" d="m56.51,93.2c1.45.86,3.52,1.07,3.83,3.05,1.31.74,1.54,2.54,3.04,3.06v.76c-1.54-.23-1.49-2.06-3.04-2.28-3.15.34-2.75-2.86-3.83-4.59Z"/><path class="cls-7" d="m61.1,100.07c2.21-.42-1.17-1.18-.76-2.28,1.55.23,1.5,2.06,3.04,2.28.62-.14.77-.76,1.54-.76h.76c.62.4,1.24.79,2.29.76-1.47,2.46.97,3.34.77,5.35,2.39.37,2.02-2.05,3.82-2.29v-.76c2.07.69-1.75,1.71-1.53,3.05-2.21.34-1.82,3.29-3.82,3.82-4.06,2.82-8.44,5.31-11.46,9.17-1.5,1.29-5.63-.03-4.58,3.82-2.22-.67-.86-1.14-.77-3.05-2.01-.24-1.97,1.58-2.28,3.05-3.04.23-3.85-1.76-6.88-1.54,1.17-1.88,3.1-3.01,5.35-3.81-.43-1.73-1.2.93-2.29-.77,1.14-1.15,1.37-3.21,3.05-3.82.66,2.26,1.14-1.76,3.05-.76-1.2,1.13-.85,3.41,1.53,3.05-.5-.78-1.75-.79-1.53-2.29,1.77,2.03,2.05-2.02,3.82,0,.11-3.38-2.15.36-3.05-1.52v-.78c1.52,0,.97-2.08,3.05-1.52-.23,1.55,2.21-.16,2.29-.77-.46,2.84,5.45-.25,6.12-3.05,2.79-.5,4.07.5,5.35,1.53-1.71-2.04-2.14-8.04-5.35-3.82-.68-.34-1.36-.66-1.53-1.53v-.77Z"/><path class="cls-4" d="m148.93,95.5c.49-.64,3.57-2.39,3.81-.76-.86.14-.42.76,0,.76.92-1,.31-1.2,0-2.29h1.54v.77c1.94.85,3.72,1.88,5.35,3.05-.22,1.24.72,1.32.77,2.29-.86-.16-1.19-.85-1.54-1.53-4.15,1.18-4.95,5.74-9.16,6.87,0-.77.62-.92.76-1.54,1.08-4.67-5.68-4.22-1.53-7.63Z"/><path class="cls-5" d="m150.46,103.13c-.14.62-.77.77-.76,1.54,4.21-1.14,5-5.69,9.16-6.87.34.68.67,1.36,1.54,1.53.68.34,1.36.67,1.52,1.53-2.01-.24.72,4.28-2.29,3.06-.38,2.4,1.67,2.97,0,4.58,2.45-.64,1.58-.65,3.05.76.41,2.7-2.7,1.87-2.28,4.58-3.36,1.75-.52-3.36.76-3.82-3.03-2.69-8.53-1.08-11.45-2.29-.17,1.45.85,1.69.76,3.06-.96-.17-1.56-1.19-1.53.76-1.47-.31-.06-3.5-3.06-2.29-1.33-1.56.58-1.5-.76-3.05h-.76c-2.02-.23-.6,2.96-3.06,2.29-.13-1.92,1.71-1.86,2.29-3.06-1.56-2.72-2.7,1.28-3.05,2.29-2.77-.25-2.77-2.1,0-.77,0-1.52-2.08-.97-1.54-3.04.77,0,.92.61,1.54.76,0-.77-.62-.92-.77-1.54-2.15.14-.95,3.64-3.81,3.06v-3.06c-.77-4.21,3.13-1.05,4.58-.76v-.76c2.65,2.28,1.3-9.11,5.34-5.36-3.32.58-1.28,2.12-3.04,4.59,3.29-.5,4.79.08,7.63,2.29Zm-3.05,2.29c1,0,.7,1.34,1.53,1.53,1.05-2.39,3.81,3.25,4.59-.76-1.57-.28-5.01-2.56-6.11-.77Z"/><path class="cls-4" d="m74.84,104.66c.71,1.84,3.88,1.21,4.59,3.05,1.41-.11.46-2.58,1.53-3.05,1.43-1.92.08,1.26,0,2.28,2.38-3.32,3.06-4.6,2.29-8.4,2.86-.58-.38,4.88,3.82,4.58.42,1.7-1.46,1.09-1.53,2.29.33,1.49,2.19-1.25,1.53,2.29-1.44.58-.52,2.29-2.29.77,1.51.92-.19,2.63-.77.76-1.04.23-.64,1.91-.77,3.05.62-.14.77-.77,1.53-.76,2.27.26,4.65.45,5.34,2.28-1.31-.04-1.95.59-2.29,1.54-1.57-.53-3.88-1.47-3.82.76h-.77c-1.83-1.91-2.02-.72-5.34-.76h-.77c.3-1.47,2.96-.61,2.29-3.06,1.36-.1,1.6.93,3.05.77-2.35-1.8-.31-.45,0-3.06v-1.52c-2.35-.58-1.47,2.09-3.82,1.52.86-1.58.83-1.61-.76-.76-.32-1.72-4.05-.02-4.59-1.53v-.77c.38-.9.81-1.72,1.53-2.28Z"/><path class="cls-10" d="m80.19,100.84c5.55,1.3-1.74,1.95-4.58,1.53-.12-2.16,4.71.64,4.58-1.53Z"/><path class="cls-7" d="m87.06,107.71c.66-3.54-1.19-.8-1.53-2.29.07-1.2,1.95-.59,1.53-2.29-4.2.3-.96-5.16-3.82-4.58.78,3.8.1,5.08-2.29,8.4.08-1.02,1.43-4.2,0-2.28-1.06.47-.11,2.94-1.53,3.05-.71-1.84-3.88-1.21-4.59-3.05.12-.9-.12-2.17.77-2.3,2.84.42,10.13-.23,4.58-1.53-4.33.94-3.34-4.34-.76-4.59,1.6.44,2.17,1.9,4.58,1.54v-3.05c.89.12.83,1.2.77,2.28,1.27,2.29,6.8.33,6.87,3.82v6.11c-1.63-.35-1.46,1.1-1.54,2.3-1.42-.1-2.55-.51-3.05-1.53Z"/><path class="cls-3" d="m67.97,100.07c.98.05,1.05.98,2.29.77.44-1.1,1.2-1.87,2.3-2.29h.76c-.67,1.35-2.42,2.23-.76,3.82v.76c-1.8.24-1.43,2.66-3.82,2.29.2-2-2.24-2.89-.77-5.35Z"/><path class="cls-1" d="m135.95,103.13v3.06c2.86.58,1.66-2.92,3.81-3.06.15.62.77.77.77,1.54-.62-.15-.77-.77-1.54-.76-.55,2.08,1.53,1.53,1.54,3.04-2.77-1.33-2.77.51,0,.77-.12.89.17,1.36.76,1.53-.02.74-.93.59-1.53.76.13.9,1.4.65,2.29.78v.76c-1.57-.42-1.82,1.46-.77,1.53.23,1.37-2.96.04-2.29-1.53-1.65-.13-.34,2.71-.76,3.82-.61-.41-1.24-.8-2.29-.77.3-1.83-3.49.43-2.29-2.29,2.4,2.15,2.62-2.5,3.05.77,1.43-.87,1.62-2.96,3.05-3.82-.95-.57-3.13-.69-5.35,0,0-1-1.34-.69-1.53-1.53,2.89.34,1.1-3.99,3.06-4.59Z"/><path class="cls-3" d="m60.34,101.61c.04-.47.11-.91.76-.77.17.86.84,1.19,1.53,1.53,3.21-4.22,3.64,1.78,5.35,3.82-1.27-1.02-2.56-2.02-5.35-1.53-.66,2.8-6.58,5.89-6.12,3.05-.08.61-2.52,2.32-2.29.77.99-1.98,1.58-2.41,3.82-1.54-.17-.59-.02-1.5-.76-1.53.18-1.17,1.26-.11,1.52.77,1.26-.77.83-3.25,1.53-4.58Z"/><path class="cls-8" d="m51.17,109.24c1.4-.89,2.58-2,3.82-3.05.68-.34,1.36-.67,1.52-1.53,1.78-.52,2.05-2.54,3.83-3.05-.71,1.33-.27,3.81-1.53,4.58-.26-.88-1.34-1.94-1.52-.77.74.03.59.93.76,1.53-2.24-.87-2.84-.44-3.82,1.54-2.08-.56-1.53,1.52-3.05,1.52v-.76Z"/><path class="cls-5" d="m116.09,109.24c-.04,1.32.59,1.96,1.53,2.29.03-1.06-.37-1.68-.77-2.29,1.04.23,1.46,1.09,3.06.76,1.26-1.52-.07-.96,0-3.05.85-.07,1.18,1.12,1.52,0,.78,0,.92.62,1.54.77v.77c-.87.14-.42.76,0,.76-.34,1.11-.67-.08-1.54,0-.13,2.15,2.88,1.78.78,3.82-2.46.67-1.05-2.52-3.06-2.29-3.2,2.33.04,3.49,2.28,9.16-3.1-.3-2.35,3.25-4.58,3.82,1.73-2.72.56-3.88,2.29-6.87-1.44-.17-1.68.87-3.05.77-1.39-2.76.13-2.26.76-4.59-2.61-.32-2.29,2.29-3.81,3.05-1.02-1.87-2.85.84-3.06-.76-.1-3.68,3.89-3.24,4.58-6.11h1.54Z"/><path class="cls-4" d="m161.91,100.84c2.18,2.98,2.97,13.6-1.52,14.51v-1.54c-.42-2.7,2.7-1.88,2.28-4.58-1.47-1.41-.6-1.4-3.05-.76,1.67-1.61-.38-2.18,0-4.58,3,1.21.27-3.31,2.29-3.06Z"/><path class="cls-2" d="m123.72,104.66c-.04-.98-.98-1.07-.76-2.3,1.12-1.68,2.02-3.58,5.35-3.05.11,1.89.14,3.71-1.53,3.81-1.35-.66-2.37-2.55-3.06,0,2.01-.21,3.29.28,3.06,2.29-1.04-.24-1.46-1.09-3.06-.76Z"/><path class="cls-8" d="m43.53,116.11h.77c1.09,1.69,1.87-.96,2.29.77-2.26.8-4.19,1.93-5.35,3.81h-.76c.14-.61.76-.75.76-1.52.23-1.56,2.08-1.5,2.29-3.06Z"/><path class="cls-4" d="m51.17,110v.78c.9,1.88,3.17-1.86,3.05,1.52-1.77-2.02-2.05,2.03-3.82,0-.23,1.51,1.03,1.52,1.53,2.29-2.37.36-2.73-1.92-1.53-3.05-1.91-1-2.39,3.02-3.05.76,1.23-1.06,2.42-2.16,3.82-3.05v.76Z"/><path class="cls-6" d="m84.78,111.54c-.77,0-.91.62-1.53.76.13-1.14-.27-2.82.77-3.05.58,1.87,2.28.16.77-.76,1.76,1.52.85-.19,2.29-.77.51,1.02,1.63,1.42,3.05,1.53.94,3.49-5.15-.07-5.34,2.29Z"/><path class="cls-2" d="m140.53,107.71c.35-1.01,1.49-5.01,3.05-2.29-.58,1.2-2.42,1.14-2.29,3.06,2.46.67,1.05-2.52,3.06-2.29-1.82,1.49,1.39,4.27-.77,6.11-.47.04-.91.12-.76.77-.6-.17-.89-.64-.77-1.53v-.76c-.9-.12-2.16.12-2.29-.78.59-.16,1.51-.02,1.53-.76-.59-.17-.88-.64-.76-1.53Z"/><path class="cls-6" d="m77.9,109.24c1.59-.86,1.62-.82.76.76,2.35.58,1.47-2.09,3.82-1.52v1.52c-1.34-1.09-1.75-.7-1.53,1.54h-3.05v-2.29Z"/><path class="cls-7" d="m109.98,110c.05,2.61-2.24,2.85-3.82,3.82-.56,2.09,1.52,1.54,1.53,3.06.58,2.36-2.09,1.47-1.53,3.81-2.62-2.72-3.35-7.33-5.35-10.69,1.07-2.74,4.16-3.47,7.64-3.81,1.89,3.25-2.82,5.07,1.53,3.81Z"/><path class="cls-1" d="m144.35,106.19h.76c1.33,1.55-.57,1.49.76,3.05,3-1.2,1.59,1.99,3.06,2.29-.04-1.95.57-.93,1.53-.76.09-1.38-.93-1.61-.76-3.06,2.92,1.21,8.42-.41,11.45,2.29-1.28.46-4.12,5.57-.76,3.82v1.54c-.65-.15-.72.3-.77.76h-.77c-1.78-2.76.38-5.35-3.05-3.82v-.76c-1.92-1.38-4.05-.62-1.53-3.05-1.78.26-3.58.5-3.05,3.05h3.05c-1.74.56-1.35,3.23-2.29,4.58-.89-.12-.64-1.39-.76-2.29-1.66-.13-.35,2.71-.77,3.83h-3.05c.85-3.4-2.35-2.76-3.82-3.83v-1.53c2.15-1.83-1.06-4.62.77-6.11Z"/><path class="cls-1" d="m116.85,123.76c2.23-.57,1.48-4.12,4.58-3.82-2.24-5.67-5.48-6.83-2.28-9.16,2.01-.23.6,2.96,3.06,2.29v.76c-.15.65.29.72.76.77-2.9-.11-1.75,2.68.76,4.59,1.06-3.69,5.37,1.38,6.11,0h.76c-.11,1.89,1.2,2.35,1.53,3.81h-3.81c-1.66-.13-.35,2.71-.77,3.82.89-.13.83-1.2.77-2.29,2.5,1.57-.56,3.94-.77,5.34-2.44-.8,0-3.46-2.29-5.34-2.79.17-2.92,1.05-5.34,0,.98-1.32,1.58-3.01,3.81-3.06-4.5-2.85-4.04,7.73-6.87,3.06-.42,0-.86-.62,0-.77Z"/><path class="cls-1" d="m73.32,107.71c.53,1.51,4.26-.19,4.59,1.53v2.29h-1.54c-1.52.77-3.26,1.32-3.81,3.05-.59-.17-.89-.64-.77-1.53v-.77c1.27-.77.83-3.25,1.53-4.58Z"/><path class="cls-2" d="m95.47,110c.22-2.69,2.06,2.7,2.29,0-.77,0-.96-1.32,0-1.52,1.25-.35,1.25,4.16,0,3.81-.17-.83-1.26-1.83-1.53-.76-.59-.17-.88-.64-.76-1.54Z"/><path class="cls-2" d="m109.98,128.34c1.45.19,3.47,2.15,6.87-1.53-.94,2.47,2.48.58,1.53,3.05-.88-.64-2.04-1-3.82-.76-.12.88.18,1.36.78,1.53-1.01.06-3.97.06-5.35-2.29Z"/><path class="cls-4" d="m122.96,108.48c1.5,2.31,3.34,4.29,4.58,6.87-.98,1.65-2.49-2.54-5.34-1.54v-.76c2.1-2.04-.91-1.67-.78-3.82.86-.08,1.2,1.11,1.54,0-.42,0-.87-.62,0-.76Z"/><path class="cls-1" d="m134.42,109.24c2.21-.69,4.39-.57,5.35,0-1.43.85-1.62,2.95-3.05,3.82-.44-3.27-.65,1.38-3.05-.77-.17-1.44.85-1.68.76-3.05Z"/><path class="cls-2" d="m77.9,111.54h3.05c-.22-2.23.18-2.63,1.53-1.54-.31,2.61-2.35,1.27,0,3.06-1.45.17-1.69-.87-3.05-.77.67,2.45-1.99,1.59-2.29,3.06-.46-.04-.9-.12-.77-.77v-3.05h1.54Z"/><path class="cls-2" d="m150.46,117.65c.42-1.12-.89-3.96.77-3.83.12.9-.13,2.17.76,2.29.94-1.35.56-4.02,2.29-4.58h1.53v.76c3.44-1.54,1.28,1.06,3.05,3.82-.76,0-.91.62-1.53.77v-3.06c-.17-1.09-2.28-.26-2.29-1.53-.69.59-3.13,4.93,0,4.59h.77c-1.65,2.09-3.51-.76-5.34.77Z"/><path class="cls-5" d="m122.2,113.82c2.84-1,4.36,3.18,5.34,1.54,1.34.69,1.4,2.67,2.29,3.82-.74,1.38-5.05-3.69-6.11,0-2.51-1.9-3.66-4.69-.76-4.59-.47-.04-.91-.11-.76-.77Z"/><path class="cls-5" d="m116.85,124.52c2.83,4.67,2.37-5.91,6.87-3.06-2.23.05-2.83,1.74-3.81,3.06,2.42,1.05,2.55.17,5.34,0,2.29,1.88-.15,4.54,2.29,5.34.21-1.4,3.26-3.77.77-5.34.06,1.08.12,2.15-.77,2.29.42-1.11-.89-3.95.77-3.82h3.81v1.54c.48,4.54-.69,7.45-5.34,6.87-.47-1.06-2.94-.11-3.06-1.53,0-1.52,2.08-.97,1.53-3.05-2.01-1.79-5.21-.13-7.63,0,.03-1.05-.37-1.67-.77-2.29Z"/><path class="cls-5" d="m72.56,114.59c.55-1.74,2.29-2.29,3.81-3.05v3.05h-3.81Z"/><path class="cls-4" d="m138.23,115.36c.42-1.11-.89-3.95.76-3.82-.66,1.57,2.52,2.89,2.29,1.53-1.06-.07-.8-1.95.77-1.53-.12.88.17,1.35.77,1.53v3.05h-1.54c-1.37.1-1.61-.93-3.05-.76Z"/><path class="cls-2" d="m83.24,116.11c-.94,1.13-2.22-1.86-3.81.77-.89.12-1.36-.16-1.53-.77v-.76c3.32.04,3.51-1.15,5.34.76Z"/><path class="cls-4" d="m155.8,116.88h-.77c-3.13.34-.69-3.99,0-4.59.02,1.26,2.12.44,2.29,1.53v3.06h-1.53Z"/><path class="cls-5" d="m98.52,116.11c2.73.84,2.71,4.41,4.58,6.12-.71.56-1.15,1.38-1.53,2.29-.65-.15-.71.29-.77.76-.82-.19-.51-1.52-1.53-1.53-.18-2.35-.78-4.32-1.53-6.11.75-.03.6-.94.77-1.54Z"/><path class="cls-6" d="m65.68,111.54c-3.05,2.28-5.7,4.97-8.39,7.64-1.11.43-1.87,1.19-2.29,2.28h-.77c.39-1.12,1.13-1.92,1.53-3.05,3.02-3.86,7.4-6.35,11.46-9.17-.27,1-1.35,1.2-1.53,2.29Z"/><path class="cls-5" d="m79.43,116.88c1.6-2.62,2.87.37,3.81-.77h.77v2.29h6.11c-1.3-.48-1.25-2.3-2.29-3.05.33-.94.98-1.57,2.29-1.54h.77c3.49-.02.04,2.69.77,4.59-1.33,1.72-.39,5.72-2.29,6.87-1.18-.87-1.88-2.2-3.05-3.05.51-3.07-5.9-1.51-3.06-4.58-1.37-.1-1.6.93-3.05.76.44,3.52.24,5.97,4.59,6.87-.21,2.29-1.66-.47-5.34.77-.68,1.57,2.51,2.89,2.29,1.52,2.33,1-2.91,4.15-3.05.78-.54,2.76-4.28,2.32-6.1,3.81-2.42-.38-2.71,1.38-5.35.77v-2.29c-.07-1.08-.13-2.16.76-2.29.59-.17.89-.64.77-1.53,7.32,1.21,9.7-2.51,11.45-6.87-.84-1.53-4.39,4.7-6.11,2.3.35-2.04,2.96-3.81,4.58-2.3-.4-.61-.79-1.24-.76-2.28.88.12,1.35-.17,1.53-.77Z"/><path class="cls-5" d="m70.26,120.69c.35.95.99,1.58,2.3,1.54h.76c-.07,1.2-1.94.6-1.53,2.29-.89-.13-.83-1.21-.76-2.29-1.33-.06-2.38.16-3.06.76v-2.29h2.29Z"/><path class="cls-7" d="m68.74,116.88h3.05c.02.74.93.58,1.53.77-1.14,1.63-1.87-.55-3.82.76.41.61.79,1.24.76,2.28h-2.29c-.63-2.15,1.08-1.97.77-3.81Z"/><path class="cls-2" d="m77.9,117.65c-.03,1.05.36,1.68.76,2.28-1.61-1.52-4.23.25-4.58,2.3h-1.53c.85-.94.66-1.57-.77-1.54,2.56-.5,2.45-3.66,6.11-3.04Z"/><path class="cls-2" d="m84.78,125.28c-4.34-.91-4.15-3.35-4.59-6.87,1.45.17,1.68-.86,3.05-.76-2.84,3.07,3.58,1.51,3.06,4.58-1.33,1.41-2.94-.2-1.53-1.54-2.83.1-1.93,1.12-1.53,3.06h3.06c.08.85-1.12,1.19,0,1.53-.16.92-.85.47-1.53,0Z"/><path class="cls-4" d="m43.53,131.39c-.66-2.26-1.14,1.77-3.05.76-2.2-.1-5,.42-6.11-.76h-1.52c.17-.6.02-1.51.76-1.53,2.47-.94.58,2.48,3.05,1.53,3.34.84,2.16-3.82,1.53-2.29.84-2.05,4.26-2.77,0-5.35-.13-1.92,1.18-2.39,2.29-3.06h.76c3.04-.23,3.85,1.77,6.88,1.54.31-1.47.28-3.29,2.28-3.05-.09,1.91-1.45,2.38.77,3.05-1.05-3.85,3.08-2.53,4.58-3.82-.39,1.13-1.13,1.93-1.53,3.05-.51,1.77-2.54,2.05-3.05,3.82-.62.65-2.09.45-2.29,1.53-2.25,1.05-3.09,3.52-5.35,4.59Zm-1.53-5.34c1.95-.1,2.96-1.12,3.05-3.06h-3.05v3.06Z"/><path class="cls-1" d="m74.08,122.23c1.72,2.41,5.27-3.82,6.11-2.3-1.75,4.36-4.13,8.08-11.45,6.87.12.89-.17,1.36-.77,1.53.64-2.17-1.07-1.99-.76-3.82.59-.17.88-.65.76-1.54.68-.59,1.73-.82,3.06-.76-.07,1.08-.13,2.16.76,2.29-.42-1.69,1.46-1.09,1.53-2.29h.77Z"/><path class="cls-1" d="m83.24,132.15c-1.14-.9-3.12-.95-3.81-2.29-2.13.43-2.14,2.96-3.06,4.58,2.29.06,4.66,3.95,6.12,2.29h.76c-.32,1.46-1.65,1.92-1.53,3.82-2.29,3.73-4.74,2.63-6.87,6.11h-.76c-.78-1.52-1.32-3.26-3.05-3.82-.74.02-.59.93-.78,1.53-.89-.12-.64-1.39-.76-2.28,1.09-.18,1.29-1.27,2.29-1.54-.21-1.57-2.84-.72-3.05-2.29.18-1.1,2.28-.27,2.29-1.53,1.11.34-.09.68,0,1.53,1.89.11,3.7.14,3.81-1.53-2.95-.92-.77-2.23-3.05-3.81.46-.04.91-.12.77-.77,1.82-1.49,5.56-1.06,6.1-3.81.15,3.37,5.38.22,3.05-.78.23,1.37-2.97.05-2.29-1.52,3.69-1.24,5.14,1.53,5.34-.77.68.47,1.37.92,1.53,0,.89-.13,1.36.17,1.53.77-2.82.74-2.09,5.05-4.59,6.11Zm-9.93,8.4c2.53,2.3,1.27.9,1.53,3.82.21-1.57,3.38-.17,3.06-2.28-2.41.37-1.73-2.36-4.59-1.54Z"/><path class="cls-4" d="m86.3,122.23c1.18.86,1.88,2.19,3.05,3.05-.02.74-.93.59-1.53.77-.16-.59-.63-.9-1.53-.77-1.12-.34.08-.67,0-1.53h-3.06c-.39-1.95-1.3-2.97,1.53-3.06-1.41,1.34.2,2.95,1.53,1.54Z"/><path class="cls-7" d="m38.19,123.76c4.26,2.58.84,3.3,0,5.35.64-1.53,1.81,3.13-1.53,2.29-2.47.94-.58-2.47-3.05-1.53.93-2.63,2.52-4.61,4.58-6.11Z"/><path class="cls-5" d="m109.98,127.56v.78c1.39,2.35,4.34,2.35,5.35,2.29-.6-.16-.9-.65-.78-1.53,1.78-.24,2.94.12,3.82.76.77,0,.92.62,1.54.77,0,.77.62.91.76,1.53-.93.09-1.81.23-1.53,1.53-1.46-1.43-1.38.45-3.81,0-.03,1.06.35,1.68.76,2.29-2.35,2.27-2.83-1.65-3.82-3.05-1.34-.22-2.36,3.59-3.05,1.52-.3-2.76,3.1.59,2.28-3.81-.74.02-.58.93-.76,1.53-.65-3.29-6.38-1.94-4.59-3.81h.77c.68-.59,1.73-.83,3.05-.78Z"/><path class="cls-1" d="m66.44,138.27c-2.31-1.87.58-4.97,0-7.64h.77v2.29c2.64.61,2.93-1.14,5.35-.77.14.65-.31.72-.77.77-1.44.84-3.6.97-5.35,1.52.41.62.79,1.25.77,2.29-.75.03-.59.93-.77,1.53Z"/><path class="cls-1" d="m106.16,128.34c-1.79,1.88,3.93.52,4.59,3.81.17-.59.02-1.51.76-1.53.81,4.4-2.58,1.05-2.28,3.81.69,2.08,1.71-1.74,3.05-1.52.99,1.4,1.47,5.32,3.82,3.05v1.52c-.59.17-1.51.02-1.54.77-.92.86-1.38,2.18-3.81,1.53,1.11-1.53-.79-2.68,1.53-3.82-1.68-1-3.13.7-5.35.76-1.07-.19-.87-1.67-1.53-2.29.14-.86.76-.42.76,0,1.58-.4.19-3.61,2.29-1.52-.22-3.17-3.31-2.49-4.58-.77,0-.77-.63-.91-.77-1.53,1.56-.23,1.5-2.07,3.05-2.29Z"/><path class="cls-5" d="m82.48,136.73c-1.46,1.66-3.83-2.23-6.12-2.29.93-1.62.93-4.15,3.06-4.58.69,1.34,2.67,1.4,3.81,2.29-.87.9-.87,2.69-.76,4.58Z"/><path class="cls-2" d="m40.48,132.15c1.91,1.01,2.39-3.02,3.05-.76-.22,1.55-2.07,1.5-2.29,3.05-.77,0-.9.62-1.52.78-.33-1.61.52-2.02.76-3.06Z"/><path class="cls-1" d="m69.5,142.09c.12.9-.13,2.16.76,2.28.18-.59.04-1.51.78-1.53,1.74.56,2.28,2.3,3.05,3.82-1.19,2.1-4.59.07-5.35-.77.04-1.06-.37-1.67-.77-2.3.59-.16.89-.64.77-1.52h.76Z"/><path class="cls-5" d="m68.74,138.27c.21,1.57,2.84.71,3.05,2.29-1,.27-1.2,1.35-2.29,1.54h-.76c.12.88-.17,1.35-.77,1.52-1.06-.46-.11-2.94-1.53-3.05v-2.29c.17-.6.02-1.51.77-1.53,1.6-.44,2.18-1.89,4.58-1.52-.44,1.85-2.89,1.69-4.58,2.28.02.74.93.59,1.53.77Z"/><path class="cls-1" d="m68.74,138.27c-.59-.17-1.51-.02-1.53-.77,1.69-.59,4.14-.43,4.58-2.28-2.4-.38-2.98,1.08-4.58,1.52.03-1.05-.36-1.67-.77-2.29,1.74-.55,3.91-.68,5.35-1.52,2.29,1.58.11,2.9,3.05,3.81-.11,1.67-1.92,1.64-3.81,1.53-.09-.85,1.11-1.19,0-1.53-.02,1.27-2.12.44-2.29,1.53Z"/><path class="cls-2" d="m32.85,131.39h1.52c-.38,2.4,2.63,2.02.77,3.82-3.22-.61-2.61-3.06,0-.78-.69-1.32-1.71-2.94-3.06-1.52.18-.59.03-1.51.78-1.53Z"/><path class="cls-4" d="m32.07,132.92c1.35-1.42,2.37.19,3.06,1.52-2.61-2.28-3.22.17,0,.78v.76c-.76,2.8-3.71,3.42-5.35,5.35-.14-3.71.93-6.21,2.29-8.4Z"/><path class="cls-2" d="m35.13,135.98c2.7.08-1.62,2.52.76,2.29-.23,1.55-2.06,1.5-2.29,3.05-.85.16-1.19.85-1.53,1.53-.61.53-2.08,1.19-2.29,0v-1.53c1.64-1.93,4.59-2.55,5.35-5.35Z"/><path class="cls-2" d="m83.24,132.15c2.4.52,1,2.04.77,3.82-.46.04-.9.11-.77.76h-.76c-.11-1.88-.11-3.68.76-4.58Z"/><path class="cls-1" d="m114.55,138.27v1.53c-.42,0-.86.62,0,.76-.07,1.47-2.97-1.32-3.05,1.54-.76,0-.91-.62-1.53-.77.15-.62.77-.76.77-1.53,2.43.65,2.9-.67,3.81-1.53Z"/><path class="cls-5" d="m39.72,135.22c-.56,1.73-2.3,2.27-3.83,3.05-2.38.23,1.94-2.21-.76-2.29v-.76c1.87-1.81-1.14-1.42-.77-3.82,1.12,1.18,3.92.66,6.11.76-.23,1.04-1.09,1.46-.76,3.06Z"/><path class="cls-5" d="m110.74,139.8c0,.77-.62.91-.77,1.53-.65,1.09-2.89-2.67-3.05-4.59,2.22-.06,3.66-1.75,5.35-.76-2.32,1.14-.42,2.29-1.53,3.82Z"/><path class="cls-5" d="m114.55,138.27c.03-.75.94-.6,1.54-.77,3.04-.49,4.13.97,5.34,2.3.16,4.73-.03,9.12-3.81,9.92-1.17-2.76-.23-7.1,3.05-7.63-1.1-2.5-1.71-1.93-4.58-1.54,0-.76.62-.91.76-1.53-1.05-.04-1.67.37-2.29.77v-1.53Z"/><path class="cls-1" d="m114.55,139.8c.62-.4,1.25-.8,2.29-.77-.14.62-.77.77-.76,1.53,2.87-.39,3.48-.97,4.58,1.54-3.28.53-4.22,4.87-3.05,7.63-1.6.32-2.02-.52-3.06-.76v-.77c3.08.45-.38-2.26.78-4.59-1.65,1-2.7-.81-2.29,3.06-1.11-.43-1.87-1.2-2.29-2.29v-1.53c.46-.04.9-.11.76-.76.08-2.85,2.98-.06,3.05-1.54-.86-.14-.42-.76,0-.76Z"/><path class="cls-10" d="m55.75,7.68v8.39c-1.74-1.05-.29-5.31-.76-7.63v-.76h.76Z"/><path class="cls-1" d="m72.56,10.72c-1.06-.03-1.68.36-2.3.77h-.76c-.86-.08-1.19,1.11-1.53,0,.73-1.56,1.56-3.02,2.29-4.59,1.59.22.19,3.38,2.3,3.06v.76Z"/><path class="cls-4" d="m63.38,13.77c.25,1.04,1.09,1.46.78,3.06-.78,0-.92-.62-1.53-.77.63,2.91-1.62,2.96-3.05,3.82.03-1.31-.58-1.96-1.53-2.29-1.22.57.17,3.74-2.29,3.06v-1.53c.89-.13.83-1.21.76-2.29h3.06v-2.29c1.01,0,.7,1.33,1.53,1.52.43-1.1,1.19-1.86,2.28-2.29Z"/><path class="cls-1" d="m77.14,22.18c-2.08-.56-1.54,1.52-3.05,1.53-1-2.22-.62-4.39,1.53-5.35.32,1.46,2.18,1.39,1.53,3.82Z"/><path class="cls-2" d="m123.72,19.13c-1.89,1.49-4.31,3.37-5.35,0,.47-.04.91-.12.77-.77.84-1.88,4.23-.62,4.58.77Z"/><path class="cls-1" d="m102.34,31.34c.85,1.19,2.49,1.6,2.28,3.83h-.76c-1.77-2.03-2.05,2.02-3.82,0,.9-1.14.95-3.12,2.29-3.83Z"/><path class="cls-4" d="m77.9,30.58c-3.51,1.33-4.87,4.82-6.87,7.63-.43-3.77-.4.8-1.54.78.55-2.08-3.6.54-3.05-1.53,3.09-1.04,3.48-4.54,7.64-6.12-.13-2.15-1.4-3.17-1.53-5.34.97-1.06,3.74-.33,3.81-2.29h1.54c-.15.65.3.72.76.76v.77c-.55,2.34,1.32,2.25.77,4.59v.76c-.68-.47-1.37-.92-1.53,0Z"/><path class="cls-2" d="m104.63,42.04c-1.37-.1-1.6.93-3.05.76-.14-.65.3-.72.77-.76-.15-.87-.77-.43-.77,0-3.03-1.87,4.12-3.93,3.05,0Z"/><path class="cls-5" d="m99.28,54.25c-2.4.88-1.86-1.2-3.05-1.52,1,2.36-2.16,4.33-3.05,2.29,1.19-1.86,1.58-4.53,3.05-6.11-1.44-.34-4.6,1.04-3.82-1.54,4.5.9,5.7-.56,9.17-3.05.33,1.46,1.64,1.92,1.53,3.82-1.14.13-2.82-.27-3.05.77.92.16.47.85,0,1.53.24,2.39-2.21-1.95-2.29.76,1.31.31-.16.99,0,2.29.6.18,1.51.02,1.53.76Z"/><path class="cls-6" d="m10.69,59.6h4.58c.94-.09,1.81-.24,1.54-1.53h9.16v1.53c-.68-.47-1.36-.92-1.53,0-2.83-.52-2-.37-5.35-.77h-.77c-.89.12-.64,1.4-.76,2.29-1.01-1.09-4.33-1.09-5.35,0-.89.12-1.36-.18-1.53-.77v-.76Z"/><path class="cls-7" d="m29.02,61.89c2.88-.58,3.65.93,6.12.77-1.75.79.36,5.45-1.53,6.11-1.13-.88-1.93-.88-3.05,0-.08-1.2.1-2.65-1.53-2.29-.11.9.14,2.16-.76,2.29-.12-.9.13-2.16-.77-2.29.46-1.58-1.23-5.31,1.53-4.59Z"/><path class="cls-4" d="m44.3,61.89c.16-.85.84-1.19,1.53-1.53.03-1.06-.36-1.68-.77-2.29,2.5.44,2.8,5.31.77,6.12-.62-.14-.76-.77-1.53-.76-.92-.17-.47-.85,0-1.54Z"/><path class="cls-1" d="m47.35,74.11c-3.08-.74-.75-6.89-3.05-8.4v-2.29c.77,0,.91.62,1.53.76v.76c.17.59.02,1.52.77,1.54.21,2.58,1.21,4.38.76,7.63Z"/><path class="cls-4" d="m87.06,73.35c-.4.61-.79,1.24-.76,2.29.72-.56,1.15-1.39,1.53-2.29,1.97.18-1.05,1.32,0,3.05h-2.29c.17-1.35-.77-3.82,1.53-3.05Z"/><path class="cls-4" d="m157.33,71.82c-.18,1.09-1.26,1.29-1.53,2.29-.77,0-.91.62-1.53.77-1.28-4.31.16-5.76,3.05-3.06Z"/><path class="cls-1" d="m28.26,74.88v1.53c-5.6,1.58-1.77-5.17,0-2.29-.59.17-1.51.02-1.53.77h1.53Z"/><path class="cls-2" d="m67.97,74.11c.24,2.01-1.59,1.97-3.05,2.29-.46-.04-.91-.11-.76-.77-.32-4.19.78-2.22,3.81-3.05v1.53Z"/><path class="cls-5" d="m129.08,75.64c4.03-.36-1.78,2.06.76,2.29-.04,1.05.36,1.67.76,2.29-2.08-.47-2.99-2.1-3.05-4.59h1.54Z"/><path class="cls-5" d="m120.67,80.98c-2.18-1.8-2.06-5.67.76-6.87.17.86.86,1.19,1.54,1.53.76-1.01.72-2.83,2.29-3.05.02,1.52,2.09.97,1.54,3.05-.32,1.31-.99-.16-2.29,0-1.73,2.47-.21,4.19-2.29,5.35h-1.53Z"/><path class="cls-1" d="m131.36,80.22c3.63,2.14-3.93,5.53-3.82,9.16-1.1-.41-1.87,2.98-2.29.77,1.49-3.1,4.4-4.77,5.35-8.4.6-.17.89-.64.77-1.53Z"/><path class="cls-1" d="m43.53,83.28c.12.9-.13,2.16.77,2.29v.76c-.17.6-.03,1.51-.77,1.53-.35-1.94-1.48-3.1-3.05-3.81,1.04-.24,1.46-1.09,3.05-.77Z"/><path class="cls-3" d="m85.54,94.74c-1.71-.33-.31-3.77-.76-5.36-.93-.08-1.81-.23-1.53-1.53-2.41-2.53,3.74-.59,3.82-.76,0,.76-.62.91-.76,1.53-.88.91-.87,2.7-.77,4.58v1.54Z"/><path class="cls-1" d="m63.38,99.32c-.16-1.19-2.93-3.56-.76-4.58.73,1.55,1.56,3.02,2.29,4.58-.77,0-.92.62-1.54.76v-.76Z"/><path class="cls-1" d="m43.53,100.07c-1.36.11-1.61-.93-3.05-.76-.59-.17-1.51-.03-1.53-.77h1.53c2.49-1.46,2.13-4.5.76-6.11h5.35c-.13,1.28-1.62,3.51,0,5.35.32,2.11-2.85.71-3.06,2.28Z"/><path class="cls-5" d="m43.53,100.07c.21-1.57,3.38-.17,3.06-2.28-1.62-1.84-.13-4.07,0-5.35h.76v.76c.44,1.86,4.95-.36,4.58,2.29-1.15.91-.38,3.27,1.53,4.58h-9.93Z"/><path class="cls-10" d="m45.06,100.07h8.41v.77c-2.57-.48-7.1.99-8.41-.77Z"/><path class="cls-2" d="m84.01,116.11c-.06-2.22,2.25-1.29,3.82-.76,1.04.75.99,2.57,2.29,3.05h-6.11v-2.29Z"/><path class="cls-4" d="m77.9,117.65c-3.66-.62-3.56,2.55-6.11,3.04,1.43-.03,1.62.59.77,1.54-1.32.04-1.96-.58-2.3-1.54.04-1.04-.35-1.67-.76-2.28,1.95-1.31,2.68.87,3.82-.76-.59-.18-1.51-.03-1.53-.77.57-1.73,4.28-.3,6.11-.77.17.6.64.89,1.53.77-.17.59-.64.89-1.53.77Z"/><path class="cls-4" d="m120.67,132.15c.44,1.34-.92,4.48.76,4.58v3.06c-1.21-1.33-2.3-2.78-5.34-2.3v-1.52c-.41-.61-.79-1.24-.76-2.29,2.43.45,2.36-1.43,3.81,0-.28-1.3.59-1.44,1.53-1.53Z"/><path class="cls-1" d="m103.87,132.15c1.26-1.72,4.36-2.41,4.58.77-2.1-2.09-.72,1.12-2.29,1.52,0-.42-.62-.86-.76,0-1.07-.19-.87-1.67-1.53-2.28Z"/><path class="cls-5" d="m77.9,142.09c.32,2.11-2.85.72-3.06,2.28-.26-2.92,1-1.52-1.53-3.82,2.86-.82,2.18,1.9,4.59,1.54Z"/><path class="cls-5" d="m113.04,146.67c-.41-3.87.65-2.07,2.29-3.06-1.15,2.33,2.3,5.03-.78,4.59-.85-.16-1.18-.85-1.52-1.53Z"/><path class="cls-5" d="m37.43,32.87c.02,2.57-1.05,4.04-2.29,5.34-1.27,0-.43-2.11-1.53-2.29.86-1.43.91-3.68,3.82-3.05Z"/><path class="cls-1" d="m58.8,77.17h4.58c0,.76.62.9.78,1.52-3.06,0-1.46,4.65-3.06,6.11-2.11-.18-.27-4.31-3.05-3.82-.04-1.06.36-1.68.76-2.29h-1.52c.08-.93.22-1.8,1.52-1.52Z"/><path class="cls-4" d="m71.79,42.04c2.37.26,3.65-1.77,5.35,0,.77,0,.91.61,1.53.76,0-.77.62-.91.77-1.53,1.69.42,1.08-1.46,2.29-1.53v3.05c-2.08,1.14-3.57,2.98-7.63,3.82.45-2.75-2.34-2.25-2.29-4.58Z"/><path class="cls-4" d="m126.78,59.6h7.63v.76c-3.01-.21-.22,5.38-2.29,6.11-2.29.04-2.13-2.28-3.81,0v-6.11h-1.53v-.76Z"/><path class="cls-4" d="m141.29,59.6c2.88-.59,3.66.93,6.12.76-.46,2.33-8.94,2.18-6.12-.76Z"/><path class="cls-1" d="m51.17,79.46c.97-.04,1.05-.98,2.29-.77v2.29c-.79,3.13,2.35,6.24,0,8.4.66-2.45-1.98-1.58-2.29-3.05-.3-1.32,1.13-1.95,0-2.29-.77,2.36-1.26-1.66-2.29-1.53-1.51-1.75.19-.85.76-2.29.17-.6.65-.89,1.54-.77Z"/><path class="cls-1" d="m55.75,21.42c4.23-1.1,3.31,4.68,1.53,3.04h-.78c.18-1.44-.86-1.68-.76-3.04Z"/><path class="cls-7" d="m17.57,61.13c.12-.9-.13-2.17.76-2.29h.77c-.22,2.07,3.19,4.37.77,6.11-.26-1.78-.79-3.29-2.29-3.81Z"/></g></g></svg>